<svg width="155" height="49" fill="none" xmlns="http://www.w3.org/2000/svg"><path d="M47.083 37.331h-3.677V3.917h3.677v33.414zm24.301.08l-1.519-2.078-.16-.08c-.72.56-2.798 1.279-3.597 1.519-2.238.559-3.198.559-4.956.559-2.398 0-4.477-.8-5.836-2.078-1.359-1.2-2.238-2.319-2.238-4.637 0-4.876 1.36-7.914 9.193-8.153l7.114.4v-1.52c0-1.918-.4-2.877-1.199-3.757-.799-.879-3.197-1.439-4.956-1.439-1.998 0-5.515.16-8.073 1.44v-3.198c1.838-.64 2.398-.8 3.837-1.04 1.598-.32 3.677-.559 5.036-.479 3.197.32 5.276.8 6.635 2.078 1.358 1.28 2.557 2.878 2.557 5.756V37.17l-1.838.24zm-9.433-3.357c2.318 0 3.837-.32 4.956-.64 1.28-.4 2.239-1.04 2.239-1.519l.16-5.995-4.157-.32c-3.438-.24-5.196.16-6.475.96-1.28.799-1.599 1.838-1.599 3.597 0 1.359.48 2.238 1.279 2.877.88.72 2.158 1.04 3.597 1.04zm35.494 3.516V21.904c0-1.998-.64-3.437-1.518-4.396-.88-.96-3.038-1.2-4.957-1.2-1.838 0-4.716 1.44-6.075 2.638-.56.48-.32 1.999-.4 5.676v12.71h-3.757V13.11l2.398.08.72 3.197.56.08c.719-1.199 1.838-1.838 3.517-2.478 1.439-.48 2.877-.88 4.476-.88 2.878 0 4.717.24 6.235 1.68 1.439 1.438 2.638 3.837 2.638 6.954v15.748l-3.837.08zm21.983-.399c-3.277 0-7.274-1.518-9.193-3.677-1.918-2.158-2.797-4.316-2.797-8.233 0-4.077 1.279-6.715 3.197-8.953 1.919-2.239 5.196-3.358 8.793-3.358 1.199 0 6.715.16 7.434.48l.08 3.437c-.799-.32-5.915-.56-6.634-.56-4.877 0-8.794 2.239-8.794 8.554 0 2.958.32 4.317 1.519 5.915 1.199 1.6 3.118 2.638 5.836 3.198 1.998.4 6.155.24 8.233-.64v3.278c-2.478.32-5.276.56-7.674.56zm22.78-.08c-3.598-.16-5.996-1.279-8.074-3.437-2.079-2.158-2.798-4.317-2.798-8.154 0-3.917.959-7.034 2.878-9.273 1.918-2.318 4.476-3.437 7.754-3.437 3.037 0 6.075.64 8.473 3.118 1.839 1.918 1.839 4.156 1.839 7.434l-.48 2.638h-16.707c.08 2.878 1.119 4.636 2.478 6.075 1.359 1.439 3.358 1.999 5.836 1.999 2.638 0 4.876.08 7.993-.72l-.159 3.198c-1.839.48-2.878.48-3.997.56-2.399 0-3.358.08-5.036 0zm0-20.944c-1.919 0-3.997.48-5.196 1.76-1.12 1.278-1.679 2.797-1.839 5.035h13.19c0-2.318-.4-3.677-1.439-4.876-.959-1.28-2.798-1.919-4.716-1.919zM24.062 5.275h-6.795c-6.955 0-12.63 5.676-12.63 12.63V24.7c0 6.955 5.675 12.63 12.63 12.63h2.478l8.074 8.794 2.718-2.478L24.7 37.33c6.635-.32 11.99-5.836 11.99-12.55v-6.796c0-7.034-5.675-12.71-12.63-12.71zm-3.198 25.82a5.27 5.27 0 01-5.276-5.275c0-2.798 2.638-6.795 3.598-8.794 1.198-2.558.639-4.956 1.678-4.956 1.04 0 .24 2.398 1.439 4.956.88 1.919 3.837 5.356 3.837 8.794a5.27 5.27 0 01-5.276 5.275z" fill="#E41A1A"/></svg>