<svg width="100" height="100" fill="none" xmlns="http://www.w3.org/2000/svg"><path d="M78.125 60.938l10.63 10.63a11.72 11.72 0 013.433 8.286v9.6a5.86 5.86 0 01-5.86 5.859H81.25V84.374h-3.125V60.937zM23.438 90.625v-31.25l17.187-10.938h18.75l17.188 10.938v31.25H23.437z" fill="#FA5D3F"/><path d="M59.375 48.438L50 57.812l-9.375-9.374 1.563-6.25h15.624l1.563 6.25z" fill="#FFD4CF"/><path d="M58.406 44.559l-.592-2.371H42.189l-.603 2.41 5.26 2.63a7.03 7.03 0 006.32-.016l5.24-2.653z" fill="#FBB8B0"/><path d="M64.844 23.438H62.5v-6.25h-25v6.25h-2.344a3.906 3.906 0 00-3.906 3.906v1.562a3.906 3.906 0 003.906 3.907H37.5v2.628a5.86 5.86 0 003.239 5.241l7.503 3.752a3.905 3.905 0 003.512-.01l7.534-3.814a5.86 5.86 0 003.212-5.228v-2.57h2.344a3.906 3.906 0 003.906-3.906v-1.562a3.906 3.906 0 00-3.906-3.907z" fill="#FFD4CF"/><path d="M42.188 25h3.124v3.125h-3.124V25zm12.5 0h3.124v3.125h-3.124V25zM50 39.063c-2.629 0-4.688-1.716-4.688-3.907h3.126c0 .276.593.782 1.562.782.97 0 1.563-.506 1.563-.782h3.124c0 2.19-2.058 3.907-4.687 3.907z" fill="#000"/><path d="M45.703 4.688h8.594a9.766 9.766 0 019.766 9.765v2.735H35.936v-2.735a9.766 9.766 0 019.766-9.765z" fill="#FA5D3F"/><path d="M57.99 22.514l-3.656-2.437a7.812 7.812 0 00-8.668 0l-3.655 2.437a3.905 3.905 0 01-6.074-3.25v-2.076l6.475-3.597a15.626 15.626 0 0115.176 0l6.474 3.597v2.076a3.906 3.906 0 01-6.072 3.25zM21.875 54.688h56.25v40.624h-56.25V54.688z" fill="#FAC850"/><path d="M25 84.375h-6.25v10.938h17.188A10.937 10.937 0 0025 84.374z" fill="#FFD4CF"/><path d="M43.75 54.688h12.5V68.75h-12.5V54.687zm0 31.25h12.5v9.374h-12.5v-9.374z" fill="#FA7D29"/><path d="M21.875 60.938l-10.63 10.63a11.72 11.72 0 00-3.432 8.286v9.6a5.86 5.86 0 005.859 5.859h5.078V84.374h3.125V60.937z" fill="#FA5D3F"/><path d="M75 84.375h6.25v10.938H64.062A10.937 10.937 0 0175 84.374z" fill="#FFD4CF"/><path d="M26.563 59.375h3.125V62.5h-3.125v-3.125zm6.25 0h6.25V62.5h-6.25v-3.125zm-6.25 6.25h12.5v3.125h-12.5v-3.125z" fill="#000"/><path d="M66.406 60.938h5.469v3.906a3.906 3.906 0 01-3.906 3.906H62.5v-3.906a3.906 3.906 0 013.906-3.906z" fill="#FFFFFE"/><path d="M67.969 70.313H62.5a1.563 1.563 0 01-1.563-1.563v-3.906a5.475 5.475 0 015.47-5.469h5.468a1.563 1.563 0 011.563 1.563v3.906a5.475 5.475 0 01-5.47 5.469zm-3.906-3.126h3.906a2.346 2.346 0 002.344-2.343V62.5h-3.907a2.346 2.346 0 00-2.344 2.344v2.344z" fill="#000"/><path d="M89.86 70.463l-5.943-5.943-2.21 2.21 5.943 5.942a10.087 10.087 0 012.975 7.182v9.6a4.302 4.302 0 01-4.297 4.296h-3.516v-7.813h3.126v-3.124h-6.25V54.686a1.563 1.563 0 00-1.563-1.562h-8.473l-8.912-5.671-1.294-5.173.547-.278a7.387 7.387 0 004.07-6.621v-1.007h.78a5.476 5.476 0 005.47-5.469v-1.562a5.475 5.475 0 00-5.351-5.468c.436-.802.664-1.7.663-2.612v-4.81A11.341 11.341 0 0054.297 3.124h-8.594a11.341 11.341 0 00-11.328 11.328v4.81c0 .913.228 1.812.664 2.613a5.475 5.475 0 00-5.352 5.468v1.562a5.475 5.475 0 005.47 5.469h.78v1.066a7.383 7.383 0 004.103 6.639l.502.25-1.282 5.124-8.911 5.671h-8.474a1.562 1.562 0 00-1.563 1.563v5.602l-5.792 5.793 2.21 2.21 3.582-3.583v18.103h-6.25v3.124h3.126v7.813h-3.516a4.301 4.301 0 01-4.297-4.297v-9.599a10.09 10.09 0 012.975-7.181l1.255-1.256-2.21-2.21-1.255 1.256a13.194 13.194 0 00-3.89 9.391v9.6a7.43 7.43 0 007.422 7.421h72.656a7.43 7.43 0 007.422-7.422v-9.599a13.194 13.194 0 00-3.89-9.391zM45.313 56.25h9.374v10.938h-9.374V56.25zm11.584-3.125l2.697-2.695 4.237 2.695h-6.934zM38.737 21.33a2.31 2.31 0 01-1.237-2.066v-1.157l5.67-3.15a13.981 13.981 0 0113.66 0l5.67 3.15v1.157a2.343 2.343 0 01-3.644 1.95L55.2 18.777a9.35 9.35 0 00-10.4 0l-3.656 2.437a2.31 2.31 0 01-2.406.116zm28.45 6.014v1.562a2.346 2.346 0 01-2.343 2.344h-.781V25h.78a2.346 2.346 0 012.344 2.344zM45.703 6.25h8.594a8.212 8.212 0 018.203 8.203v.078l-4.153-2.306a17.086 17.086 0 00-16.694 0L37.5 14.53v-.078a8.213 8.213 0 018.203-8.203zm-10.547 25a2.346 2.346 0 01-2.343-2.344v-1.562A2.347 2.347 0 0135.156 25h.782v6.25h-.782zm3.907 4.191V24.677a5.456 5.456 0 003.814-.863l3.656-2.437a6.233 6.233 0 016.934 0l3.656 2.437a5.459 5.459 0 003.815.863v10.705a4.276 4.276 0 01-2.356 3.833l-7.534 3.816a2.354 2.354 0 01-2.107.005l-7.503-3.751a4.274 4.274 0 01-2.376-3.844zm8.48 10.39a5.49 5.49 0 004.917-.012l4.127-2.09 1.058 4.23-5.167 5.166h-4.956l-5.167-5.167 1.05-4.196 4.138 2.07zm-7.136 4.598l2.696 2.696h-6.934l4.238-2.696zm-16.97 5.821h18.75v12.5a1.563 1.563 0 001.563 1.563h12.5a1.563 1.563 0 001.563-1.563v-12.5h18.75v26.563H75A12.52 12.52 0 0062.598 93.75h-4.785v-7.813a1.563 1.563 0 00-1.563-1.562h-12.5a1.562 1.562 0 00-1.563 1.563v7.812h-4.785A12.52 12.52 0 0025 82.812h-1.563V56.25zm-3.125 37.5v-7.813H25a9.39 9.39 0 019.245 7.813H20.313zm25 0V87.5h9.376v6.25h-9.376zm34.376 0H65.755A9.39 9.39 0 0175 85.937h4.688v7.813z" fill="#000"/></svg>