<svg width="25" height="32" fill="none" xmlns="http://www.w3.org/2000/svg"><path d="M17.42 0H.836C.374 0 0 .374 0 1.1v30.33c0 .197.374.571.836.571h22.9c.461 0 .835-.374.835-.571V7.416c0-.398-.053-.526-.146-.62l-6.65-6.65A.505.505 0 0017.42 0z" fill="#E9E9E0"/><path d="M17.715.086v6.771h6.77l-6.77-6.77z" fill="#D9D7CA"/><path d="M23.735 32H.836A.836.836 0 010 31.164v-8.878h24.571v8.878a.836.836 0 01-.836.836zm-7.774-13.714H14.51L12.572 11l-1.937 7.286H9.182L6.857 8.57h1.647l1.453 7.286 1.937-7.286h1.356l1.937 7.286L16.64 8.57h1.646l-2.325 9.715z" fill="#277ADB"/><path d="M8.724 25.306c.456.412.684.987.684 1.723 0 .735-.221 1.318-.664 1.746-.442.43-1.12.644-2.03.644H5.142v-4.733h1.624c.849 0 1.501.207 1.957.62zm-.122 1.743c0-1.083-.62-1.625-1.862-1.625h-.799v3.243h.888c.573 0 1.012-.137 1.316-.41.305-.273.457-.675.457-1.208zm5.796 1.716c-.479.467-1.07.701-1.774.701s-1.295-.234-1.773-.7c-.48-.468-.718-1.05-.718-1.747 0-.698.239-1.28.718-1.747.478-.467 1.07-.7 1.773-.7.704 0 1.295.233 1.774.7.479.467.718 1.05.718 1.747 0 .697-.24 1.28-.718 1.746zm-.585-2.962a1.59 1.59 0 00-1.189-.5c-.47 0-.865.166-1.188.5-.322.334-.484.74-.484 1.216s.162.88.484 1.215c.323.334.719.5 1.188.5.47 0 .866-.166 1.189-.5.322-.334.483-.74.483-1.215 0-.477-.161-.882-.483-1.216zm4.47 2.891c.275 0 .512-.046.71-.139a2.46 2.46 0 00.624-.443l.514.528c-.501.555-1.11.833-1.825.833-.715 0-1.309-.23-1.78-.69-.472-.461-.708-1.043-.708-1.748 0-.704.24-1.29.722-1.76.48-.469 1.087-.704 1.82-.704a2.38 2.38 0 011.838.813l-.507.555a2.226 2.226 0 00-.64-.454 1.79 1.79 0 00-.708-.129c-.478 0-.88.155-1.205.464-.325.31-.487.704-.487 1.185 0 .48.161.883.484 1.205.323.323.705.484 1.148.484z" fill="#EBF0F3"/></svg>