<svg width="48" height="48" fill="none" xmlns="http://www.w3.org/2000/svg"><path d="M27 15c-4.971 0-12 4.029-12 9a12 12 0 0112-12v3z" fill="#545454"/><path fill-rule="evenodd" clip-rule="evenodd" d="M42.999 9h-6.045A17.91 17.91 0 0027 6a17.916 17.916 0 00-9.954 3H5.001A5.002 5.002 0 000 14.001v19.998A5.002 5.002 0 005.001 39h12.045A17.91 17.91 0 0027 42a17.918 17.918 0 009.954-3h6.045A5.002 5.002 0 0048 33.999V14.001A5.002 5.002 0 0042.999 9zM4.5 15a1.5 1.5 0 100-3 1.5 1.5 0 000 3zM27 39a15 15 0 100-30 15 15 0 000 30z" fill="#545454"/><path d="M6 9a3 3 0 013-3h3a3 3 0 010 6H9a3 3 0 01-3-3z" fill="#545454"/></svg>