<svg width="64" height="18" fill="none" xmlns="http://www.w3.org/2000/svg"><g clip-path="url(#clip0)"><path d="M23.467 18.193l3.25-18.285h5.08l-3.15 18.285h-5.18z" fill="#3C58BF"/><path d="M23.467 18.193L27.632-.092h4.165l-3.15 18.285h-5.18z" fill="#293688"/><path d="M47.035.111c-1.016-.406-2.641-.813-4.673-.813-5.08 0-8.736 2.54-8.736 6.197 0 2.743 2.54 4.165 4.57 5.08 2.033.914 2.642 1.523 2.642 2.336 0 1.22-1.625 1.829-3.047 1.829-2.032 0-3.15-.305-4.877-1.016l-.71-.305-.712 4.165c1.22.508 3.454 1.016 5.79 1.016 5.385 0 8.94-2.54 8.94-6.4 0-2.133-1.32-3.759-4.368-5.08-1.828-.914-2.946-1.422-2.946-2.336 0-.813.914-1.625 2.946-1.625 1.727 0 2.946.304 3.86.71l.508.204.813-3.962z" fill="#3C58BF"/><path d="M47.035.111c-1.016-.406-2.641-.813-4.673-.813-5.08 0-7.822 2.54-7.822 6.197 0 2.743 1.625 4.165 3.657 5.08 2.032.914 2.641 1.523 2.641 2.336 0 1.22-1.625 1.829-3.047 1.829-2.032 0-3.15-.305-4.877-1.016l-.71-.305-.712 4.165c1.22.508 3.454 1.016 5.79 1.016 5.385 0 8.94-2.54 8.94-6.4 0-2.133-1.32-3.759-4.368-5.08-1.828-.914-2.946-1.422-2.946-2.336 0-.813.914-1.625 2.946-1.625 1.727 0 2.946.304 3.86.71l.508.204.813-3.962z" fill="#293688"/><path d="M55.772-.092c-1.219 0-2.133.101-2.641 1.32l-7.62 16.965h5.486l1.016-3.047h6.502l.61 3.047H64L59.734-.092h-3.962zm-2.337 12.19c.305-.914 2.032-5.384 2.032-5.384s.407-1.117.711-1.829l.305 1.727s1.016 4.572 1.22 5.588h-4.268v-.102z" fill="#3C58BF"/><path d="M56.991-.092c-1.219 0-2.133.101-2.641 1.32l-8.838 16.965h5.485l1.016-3.047h6.502l.61 3.047H64L59.734-.092H56.99zm-3.556 12.19c.407-1.016 2.032-5.384 2.032-5.384s.407-1.117.711-1.829l.305 1.727s1.016 4.572 1.22 5.588h-4.268v-.102z" fill="#293688"/><path d="M14.121 12.708l-.508-2.641c-.914-3.048-3.86-6.4-7.111-8.025l4.571 16.254h5.486L24.788.01h-5.486l-5.181 12.698z" fill="#3C58BF"/><path d="M14.121 12.708l-.508-2.641c-.914-3.048-3.86-6.4-7.111-8.025l4.571 16.254h5.486L24.788.01h-4.47L14.12 12.708z" fill="#293688"/><path d="M0-.092L.914.11c6.502 1.524 10.972 5.384 12.699 9.955l-1.829-8.634C11.48.212 10.565-.092 9.448-.092H0z" fill="#FFBC00"/><path d="M0-.092C6.502 1.432 11.886 5.393 13.613 9.965l-1.727-7.213c-.305-1.219-1.32-1.93-2.438-1.93L0-.092z" fill="#F7981D"/><path d="M0-.092C6.502 1.432 11.886 5.393 13.613 9.965l-1.22-3.962c-.304-1.22-.71-2.438-2.133-2.946L0-.093z" fill="#ED7C00"/><path d="M19.2 12.098l-3.454-3.454-1.625 3.86-.406-2.54c-.915-3.047-3.86-6.4-7.111-8.025l4.57 16.254h5.487l2.54-6.095zm9.448 6.096l-4.369-4.47-.812 4.47h5.18zm11.682-6.299c.407.406.61.711.508 1.117 0 1.22-1.625 1.83-3.047 1.83-2.032 0-3.15-.306-4.877-1.017l-.71-.305-.712 4.166c1.22.507 3.454 1.015 5.79 1.015 3.252 0 5.893-.914 7.417-2.54l-4.369-4.266zm5.893 6.298h4.774l1.016-3.047h6.502l.61 3.047H64l-1.727-7.416-6.095-5.892.305 1.626s1.016 4.571 1.219 5.587h-4.267c.407-1.016 2.032-5.384 2.032-5.384s.406-1.118.711-1.829" fill="#051244"/></g><defs><clipPath id="clip0"><path fill="#fff" d="M0 0h64v18H0z"/></clipPath></defs></svg>