<svg width="64" height="38" fill="none" xmlns="http://www.w3.org/2000/svg"><g clip-path="url(#clip0)"><path d="M64 19c0 10.565-8.534 19.2-19.2 19.2-10.566 0-19.2-8.635-19.2-19.2S34.133-.2 44.698-.2C55.466-.2 64 8.435 64 19z" fill="#FFB600"/><path d="M44.8-.2C55.365-.2 64 8.435 64 19s-8.534 19.2-19.2 19.2c-10.566 0-19.2-8.635-19.2-19.2" fill="#F7981D"/><path d="M44.8-.2C55.367-.2 64 8.435 64 19s-8.533 19.2-19.2 19.2" fill="#FF8500"/><path d="M18.997-.2C8.533-.1 0 8.435 0 19s8.533 19.2 19.2 19.2c4.978 0 9.448-1.93 12.902-4.978.71-.61 1.32-1.32 1.93-2.032H30.07a23.456 23.456 0 01-1.422-1.93h6.806c.406-.61.813-1.32 1.117-2.032h-9.04c-.306-.61-.61-1.32-.813-2.031h10.564c.61-1.93 1.016-3.962 1.016-6.096 0-1.422-.203-2.742-.406-4.063H26.108c.101-.711.305-1.32.508-2.032H37.18a12.112 12.112 0 00-.813-2.032h-8.94c.305-.71.712-1.32 1.118-2.031h6.806A9.663 9.663 0 0033.83 6.91h-3.76c.61-.71 1.22-1.32 1.93-1.93C28.648 1.83 24.076.003 19.098.003c0-.203 0-.203-.101-.203z" fill="#FF5050"/><path d="M0 19c0 10.565 8.533 19.2 19.2 19.2 4.978 0 9.448-1.93 12.902-4.978.71-.61 1.32-1.32 1.93-2.031H30.07a23.455 23.455 0 01-1.422-1.93h6.806c.406-.61.813-1.321 1.117-2.032h-9.04c-.306-.61-.61-1.32-.813-2.032h10.564c.61-1.93 1.016-3.962 1.016-6.095 0-1.422-.203-2.743-.406-4.064H26.108c.101-.71.305-1.32.508-2.031H37.18a12.119 12.119 0 00-.813-2.032h-8.94c.305-.711.712-1.32 1.118-2.032h6.806a9.663 9.663 0 00-1.523-2.032h-3.76c.61-.71 1.22-1.32 1.931-1.93C28.648 1.832 24.076.003 19.098.003h-.101" fill="#E52836"/><path d="M19.2 38.2c4.977 0 9.447-1.93 12.9-4.978.712-.61 1.322-1.32 1.931-2.031h-3.962a23.432 23.432 0 01-1.422-1.93h6.806c.407-.61.813-1.321 1.118-2.032h-9.042a12.06 12.06 0 01-.812-2.032h10.565c.61-1.93 1.016-3.962 1.016-6.095 0-1.422-.204-2.743-.407-4.064H26.107c.102-.71.305-1.32.508-2.031H37.18a12.11 12.11 0 00-.813-2.032h-8.94c.306-.711.712-1.32 1.118-2.032h6.807a9.656 9.656 0 00-1.524-2.032h-3.759c.61-.71 1.22-1.32 1.93-1.93C28.647 1.832 24.076.003 19.098.003h-.102" fill="#CB2026"/><path d="M26.007 23.876l.304-1.727c-.101 0-.304.102-.508.102-.71 0-.812-.407-.71-.61l.609-3.555h1.117l.305-1.93h-1.016l.203-1.22H24.28s-1.22 6.705-1.22 7.518c0 1.219.712 1.727 1.626 1.727.61 0 1.117-.203 1.32-.305zm.71-3.25c0 2.844 1.93 3.555 3.555 3.555 1.524 0 2.134-.304 2.134-.304l.406-1.93s-1.117.507-2.133.507c-2.235 0-1.829-1.625-1.829-1.625h4.165s.305-1.32.305-1.829c0-1.32-.711-2.946-2.946-2.946-2.133-.203-3.657 2.032-3.657 4.572zm3.555-2.946c1.118 0 .915 1.32.915 1.422h-2.235c0-.102.203-1.422 1.32-1.422zm12.901 6.196l.407-2.235s-1.016.508-1.727.508c-1.423 0-2.032-1.117-2.032-2.336 0-2.438 1.219-3.759 2.641-3.759 1.016 0 1.829.61 1.829.61l.305-2.134s-1.22-.507-2.337-.507c-2.337 0-4.673 2.031-4.673 5.892 0 2.54 1.219 4.266 3.657 4.266.813 0 1.93-.305 1.93-.305zm-28.342-8.025c-1.422 0-2.438.406-2.438.406l-.305 1.727s.914-.406 2.235-.406c.711 0 1.32.102 1.32.711 0 .406-.1.508-.1.508h-.915c-1.727 0-3.657.711-3.657 3.048 0 1.828 1.219 2.235 1.93 2.235 1.422 0 2.032-.915 2.133-.915l-.101.813h1.828l.813-5.587c0-2.438-2.032-2.54-2.743-2.54zm.406 4.571c0 .305-.203 1.93-1.422 1.93-.61 0-.813-.507-.813-.812 0-.508.305-1.22 1.829-1.22.305.102.406.102.406.102zm4.268 3.658c.507 0 3.047.101 3.047-2.642 0-2.54-2.438-2.031-2.438-3.047 0-.508.406-.711 1.117-.711.305 0 1.423.101 1.423.101l.304-1.828s-.71-.204-1.93-.204c-1.523 0-3.047.61-3.047 2.642 0 2.336 2.54 2.133 2.54 3.047 0 .61-.712.712-1.22.712-.914 0-1.828-.305-1.828-.305l-.305 1.828c.102.204.61.407 2.337.407zm40.533-9.854l-.406 2.742s-.813-1.015-1.93-1.015c-1.829 0-3.454 2.235-3.454 4.876 0 1.625.813 3.352 2.54 3.352 1.219 0 1.93-.813 1.93-.813l-.102.712h2.032l1.524-9.753-2.133-.101zm-.914 5.384c0 1.117-.508 2.54-1.625 2.54-.711 0-1.118-.61-1.118-1.626 0-1.625.712-2.641 1.626-2.641.71 0 1.117.508 1.117 1.727zM3.758 23.978l1.22-7.314.203 7.314h1.422l2.641-7.314-1.117 7.314h2.133l1.625-9.752H8.533L6.5 20.219l-.1-5.993H3.454l-1.626 9.752h1.93zm31.492 0c.61-3.352.712-6.095 2.134-5.587.203-1.32.508-1.829.711-2.337h-.406c-.915 0-1.626 1.22-1.626 1.22l.203-1.118h-1.93l-1.32 7.924h2.235v-.102zm12.597-8.127c-1.423 0-2.438.406-2.438.406l-.305 1.727s.914-.406 2.235-.406c.71 0 1.32.102 1.32.711 0 .406-.101.508-.101.508h-.914c-1.727 0-3.658.711-3.658 3.048 0 1.828 1.22 2.235 1.93 2.235 1.423 0 2.032-.915 2.134-.915l-.102.813h1.829l.813-5.587c.101-2.438-2.032-2.54-2.743-2.54zm.508 4.571c0 .305-.204 1.93-1.423 1.93-.61 0-.812-.507-.812-.812 0-.508.304-1.22 1.828-1.22.305.102.305.102.407.102zm3.962 3.556c.61-3.352.711-6.095 2.133-5.587.203-1.32.508-1.829.711-2.337h-.406c-.914 0-1.625 1.22-1.625 1.22l.203-1.118h-1.93l-1.321 7.924h2.235v-.102z" fill="#fff"/><path d="M22.857 22.454c0 1.219.712 1.727 1.626 1.727.71 0 1.32-.203 1.524-.305l.304-1.727c-.101 0-.304.102-.508.102-.71 0-.812-.407-.71-.61l.609-3.555h1.117l.305-1.93h-1.016l.203-1.22m1.421 5.69c0 2.844.915 3.555 2.54 3.555 1.524 0 2.133-.304 2.133-.304l.407-1.93s-1.118.507-2.133.507c-2.235 0-1.83-1.625-1.83-1.625h4.166s.305-1.32.305-1.829c0-1.32-.711-2.946-2.946-2.946-2.134-.203-2.642 2.032-2.642 4.572zm2.54-2.946c1.118 0 1.32 1.32 1.32 1.422h-2.64c0-.102.203-1.422 1.32-1.422zm12.903 6.196l.406-2.235s-1.016.508-1.727.508c-1.422 0-2.031-1.117-2.031-2.336 0-2.438 1.219-3.759 2.64-3.759 1.017 0 1.83.61 1.83.61l.304-2.134s-1.219-.507-2.336-.507c-2.337 0-3.658 2.031-3.658 5.892 0 2.54.204 4.266 2.642 4.266.813 0 1.93-.305 1.93-.305zm-31.087-5.79s.914-.406 2.235-.406c.711 0 1.32.101 1.32.71 0 .407-.1.509-.1.509h-.915c-1.727 0-3.657.71-3.657 3.047 0 1.829 1.219 2.235 1.93 2.235 1.422 0 2.032-.914 2.133-.914l-.101.813h1.828l.813-5.588c0-2.336-2.032-2.438-2.845-2.438l-2.64 2.032zm4.165 2.337c0 .304-1.219 1.93-2.438 1.93-.61 0-.813-.508-.813-.813 0-.508.305-1.22 1.829-1.22.305.102 1.422.102 1.422.102zm1.017 3.454s.61.203 2.336.203c.508 0 3.048.101 3.048-2.642 0-2.54-2.438-2.031-2.438-3.047 0-.508.406-.711 1.117-.711.305 0 1.422.101 1.422.101l.305-1.828s-.711-.204-1.93-.204c-1.524 0-2.032.61-2.032 2.642 0 2.336 1.524 2.133 1.524 3.047 0 .61-.711.712-1.22.712m40.23-5.182s-.813-1.015-1.93-1.015c-1.83 0-2.439 2.235-2.439 4.876 0 1.625-.203 3.352 1.524 3.352 1.22 0 1.93-.813 1.93-.813l-.101.712h2.031l1.524-9.753-2.54 2.641zm-.102 2.642c0 1.117-.914 2.54-2.032 2.54-.711 0-1.117-.61-1.117-1.626 0-1.625.71-2.641 1.625-2.641.711 0 1.524.508 1.524 1.727zM3.758 23.978l1.22-7.314.203 7.314h1.422l2.641-7.314-1.117 7.314h2.133l1.625-9.752h-2.54l-2.844 5.993-.101-5.993H5.282l-3.454 9.752h1.93zm29.359 0h2.134c.609-3.352.71-6.095 2.133-5.587.203-1.32.508-1.829.711-2.337h-.406c-.915 0-1.626 1.22-1.626 1.22l.203-1.118m8.838 1.93s.914-.406 2.235-.406c.71 0 1.32.101 1.32.71 0 .407-.101.509-.101.509h-.914c-1.727 0-3.658.71-3.658 3.047 0 1.829 1.22 2.235 1.93 2.235 1.423 0 2.032-.914 2.134-.914l-.102.813h1.829l.813-5.588c0-2.336-2.032-2.438-2.845-2.438l-2.641 2.032zm4.165 2.337c0 .304-1.22 1.93-2.438 1.93-.61 0-.813-.508-.813-.813 0-.508.305-1.22 1.829-1.22.406.102 1.422.102 1.422.102zm.915 3.555h2.133c.61-3.352.711-6.095 2.133-5.587.203-1.32.508-1.829.711-2.337h-.406c-.914 0-1.625 1.22-1.625 1.22l.203-1.118" fill="#DCE5E5"/></g><defs><clipPath id="clip0"><path fill="#fff" d="M0 0h64v38H0z"/></clipPath></defs></svg>