<svg width="24" height="26" fill="none" xmlns="http://www.w3.org/2000/svg"><path fill-rule="evenodd" clip-rule="evenodd" d="M.855 17.514c.227 0 .444.092.604.255.16.163.25.383.25.614v5.212h5.13c.227 0 .445.091.605.254a.876.876 0 010 1.229.848.848 0 01-.605.254H.855a.848.848 0 01-.605-.254.876.876 0 01-.25-.615v-6.08c0-.23.09-.451.25-.614a.848.848 0 01.605-.255z" fill="#545454"/><path fill-rule="evenodd" clip-rule="evenodd" d="M8.55 16.583a.876.876 0 010 1.228l-7.09 7.205a.848.848 0 01-1.21-.001.876.876 0 01.001-1.23l7.09-7.202a.848.848 0 011.208 0zM23.687 1.2a.87.87 0 01.251.615.88.88 0 01-.251.615l-7.089 7.203a.849.849 0 01-1.21 0 .876.876 0 010-1.229l7.09-7.204a.848.848 0 011.209 0z" fill="#545454"/><path fill-rule="evenodd" clip-rule="evenodd" d="M16.305 1.815c0-.23.09-.45.25-.614a.848.848 0 01.605-.254h5.984c.227 0 .445.091.605.254.16.163.25.384.25.614v6.081c0 .23-.09.451-.25.614a.848.848 0 01-1.21 0 .876.876 0 01-.25-.614V2.684h-5.13a.848.848 0 01-.604-.254.876.876 0 01-.25-.615zm6.84 15.636a.848.848 0 00-.605.255.876.876 0 00-.25.614v5.212h-5.13a.848.848 0 00-.605.254.876.876 0 000 1.229c.16.163.378.254.605.254h5.984a.848.848 0 00.605-.254.876.876 0 00.25-.614V18.32c0-.23-.09-.451-.25-.614a.848.848 0 00-.605-.255z" fill="#545454"/><path fill-rule="evenodd" clip-rule="evenodd" d="M15.45 16.52a.868.868 0 00-.251.615.88.88 0 00.251.615l7.09 7.203a.849.849 0 001.395-.28.883.883 0 00-.185-.948l-7.091-7.205a.848.848 0 00-1.209 0zM.373 1.2a.87.87 0 00-.251.616.88.88 0 00.25.615l7.09 7.203a.849.849 0 001.21 0 .876.876 0 000-1.229l-7.09-7.204a.848.848 0 00-1.21 0z" fill="#545454"/><path fill-rule="evenodd" clip-rule="evenodd" d="M7.756 1.815c0-.23-.09-.45-.25-.614A.848.848 0 006.9.947H.916a.848.848 0 00-.604.254.876.876 0 00-.25.614v6.081c0 .23.09.451.25.614a.848.848 0 001.209 0 .876.876 0 00.25-.614V2.684h5.13a.848.848 0 00.604-.254.876.876 0 00.25-.615z" fill="#545454"/></svg>