<svg width="25" height="25" fill="none" xmlns="http://www.w3.org/2000/svg"><g clip-path="url(#clip0)"><path d="M20.11 23.904a72.484 72.484 0 01-15.415 0 4.37 4.37 0 01-3.882-3.882 72.489 72.489 0 010-15.415A4.37 4.37 0 014.695.726a72.488 72.488 0 0115.414 0 4.37 4.37 0 013.882 3.881 72.496 72.496 0 010 15.415 4.37 4.37 0 01-3.881 3.882z" fill="url(#paint0_linear)"/><path d="M22.686 5.475a3.878 3.878 0 00-3.445-3.444 64.35 64.35 0 00-13.678 0 3.878 3.878 0 00-3.445 3.444 64.348 64.348 0 000 13.679 3.878 3.878 0 003.445 3.444 64.21 64.21 0 0013.678 0 3.878 3.878 0 003.445-3.444 64.33 64.33 0 000-13.679z" fill="url(#paint1_linear)"/><path d="M.762 19.524l.051.498a4.37 4.37 0 003.882 3.882 72.482 72.482 0 0015.414 0 4.37 4.37 0 003.882-3.882l.052-.498H.762z" fill="url(#paint2_linear)"/><path d="M16.537 4.312a3.786 3.786 0 00-3.786 3.786v2.828h-2.038v3.502l2.038 1.825v8.06a72.635 72.635 0 007.358-.41 4.37 4.37 0 003.882-3.881 72.55 72.55 0 00.312-11.47l-4.24-4.24h-3.526z" fill="url(#paint3_linear)"/><path d="M12.75 24.314a72.418 72.418 0 004.195-.142v-9.744h2.782l.337-3.502h-3.12V8.703a.89.89 0 01.89-.89h2.23V4.312h-3.527a3.786 3.786 0 00-3.786 3.786v2.828h-2.038v3.502h2.038v9.886z" fill="#fff"/></g><defs><linearGradient id="paint0_linear" x1="8.371" y1="3.689" x2="14.441" y2="16.677" gradientUnits="userSpaceOnUse"><stop stop-color="#3457A0"/><stop offset="1" stop-color="#3B5998"/></linearGradient><linearGradient id="paint1_linear" x1="16.955" y1="15.443" x2="-4.025" y2="1.028" gradientUnits="userSpaceOnUse"><stop stop-color="#3457A0" stop-opacity="0"/><stop offset="1" stop-color="#1F3F77"/></linearGradient><linearGradient id="paint2_linear" x1="12.402" y1="20.371" x2="12.402" y2="23.619" gradientUnits="userSpaceOnUse"><stop stop-color="#3457A0" stop-opacity="0"/><stop offset="1" stop-color="#1F3F77"/></linearGradient><linearGradient id="paint3_linear" x1="27.954" y1="20.135" x2="11.296" y2="11.735" gradientUnits="userSpaceOnUse"><stop stop-color="#3457A0" stop-opacity="0"/><stop offset=".325" stop-color="#2A4C8D" stop-opacity=".325"/><stop offset=".705" stop-color="#22427D" stop-opacity=".706"/><stop offset="1" stop-color="#1F3F77"/></linearGradient><clipPath id="clip0"><path fill="#fff" transform="translate(.402 .315)" d="M0 0h24v24H0z"/></clipPath></defs></svg>