<svg width="25" height="25" fill="none" xmlns="http://www.w3.org/2000/svg"><path d="M20.11 23.904a72.484 72.484 0 01-15.415 0 4.37 4.37 0 01-3.882-3.882 72.489 72.489 0 010-15.415A4.37 4.37 0 014.695.726a72.488 72.488 0 0115.414 0 4.37 4.37 0 013.882 3.881 72.496 72.496 0 010 15.415 4.37 4.37 0 01-3.881 3.882z" fill="url(#paint0_linear)"/><path d="M22.686 5.475a3.878 3.878 0 00-3.445-3.444 64.35 64.35 0 00-13.678 0 3.878 3.878 0 00-3.445 3.444 64.348 64.348 0 000 13.679 3.878 3.878 0 003.445 3.444 64.21 64.21 0 0013.678 0 3.878 3.878 0 003.445-3.444 64.33 64.33 0 000-13.679z" fill="url(#paint1_linear)"/><path d="M.762 19.524l.051.498a4.37 4.37 0 003.882 3.882 72.482 72.482 0 0015.414 0 4.37 4.37 0 003.882-3.882l.052-.498H.762z" fill="url(#paint2_linear)"/><path d="M24.397 11.471L20.98 6.565c-.792 1.555-4.707 3.652-5.078 3.75-1-.533-2.078-3.75-2.078-3.75s-.053 6.19-.922 6.19c-1.708 0-.716-5.116-.716-3.408-.784 3.409-.004-1.538 0-1.477.232 1.94-1.284 3.945-1.284 3.945s-2.5-2.5-4.234-5.25l-.706.262s-1.223 2.135.576 3.755c.078.088.165.175.26.26l.023.025c-.236-.016-.946-.086-1.357-.377 0 0-.082 1.305 1.005 2.266l.878.885c-.268.022-.563.017-.769-.073 0 0 1.62.628 2.324 1.247l4.5 1c0 1.21-4.604-1.367-6.604-1.867l7.104 10.367c1 0 3.648-.138 6.208-.411a4.37 4.37 0 003.881-3.882c.304-2.847.44-5.7.406-8.55z" fill="url(#paint3_linear)"/><path d="M18.34 12.622c-.292-.385-.209-.556 0-.9.003-.004 2.405-3.482 2.653-4.66l.001-.002c.123-.43 0-.745-.595-.745h-1.968c-.5 0-.732.27-.855.574 0 0-1.002 2.513-2.42 4.142-.458.47-.669.621-.919.621-.123 0-.314-.15-.314-.58V7.06c0-.515-.14-.745-.555-.745h-3.095a.48.48 0 00-.5.464c0 .489.708.601.782 1.976v2.983c0 .654-.114.774-.365.774-.669 0-2.293-2.523-3.255-5.41-.194-.56-.384-.787-.889-.787H4.077c-.561 0-.675.272-.675.575 0 .536.67 3.2 3.111 6.72 1.628 2.403 3.92 3.705 6.005 3.705 1.253 0 1.406-.29 1.406-.787 0-2.296-.113-2.512.515-2.512.291 0 .792.15 1.962 1.31 1.337 1.373 1.557 1.989 2.306 1.989h1.968c.56 0 .845-.29.681-.86-.374-1.2-2.903-3.668-3.017-3.833z" fill="#fff"/><defs><linearGradient id="paint0_linear" x1="8.371" y1="3.689" x2="14.441" y2="16.677" gradientUnits="userSpaceOnUse"><stop stop-color="#659CDB"/><stop offset="1" stop-color="#4F79A9"/></linearGradient><linearGradient id="paint1_linear" x1="17.478" y1="15.037" x2="-17.391" y2="-3.667" gradientUnits="userSpaceOnUse"><stop stop-color="#537EAF" stop-opacity="0"/><stop offset="1" stop-color="#4B729F"/></linearGradient><linearGradient id="paint2_linear" x1="12.402" y1="20.817" x2="12.402" y2="23.962" gradientUnits="userSpaceOnUse"><stop stop-color="#5A8BC4" stop-opacity="0"/><stop offset="1" stop-color="#4B729F"/></linearGradient><linearGradient id="paint3_linear" x1="23.344" y1="22.912" x2="11.619" y2="11.187" gradientUnits="userSpaceOnUse"><stop stop-color="#5685B9" stop-opacity="0"/><stop offset="1" stop-color="#42648B"/></linearGradient></defs></svg>