<svg width="134" height="93" fill="none" xmlns="http://www.w3.org/2000/svg"><path d="M130.312 14.635a16.616 16.616 0 00-11.74-11.722C108.22.14 66.694.14 66.694.14s-41.527 0-51.879 2.773a16.617 16.617 0 00-11.74 11.722C.3 24.972.3 46.551.3 46.551s0 21.578 2.776 31.915a16.617 16.617 0 0011.74 11.723c10.352 2.772 51.879 2.772 51.879 2.772s41.526 0 51.878-2.772a16.616 16.616 0 0011.74-11.723c2.776-10.337 2.776-31.915 2.776-31.915s-.011-21.58-2.776-31.916z" fill="#000" fill-opacity=".61"/><path d="M49.56 66.418L84.058 47.2 49.56 27.983v38.435z" fill="#fff"/></svg>