<svg width="124" height="28" fill="none" xmlns="http://www.w3.org/2000/svg"><path d="M39.155 4.637a4.887 4.887 0 00-3.453-3.448C32.657.374 20.444.374 20.444.374s-12.214 0-15.259.815a4.887 4.887 0 00-3.452 3.448c-.817 3.04-.817 9.387-.817 9.387s0 6.347.817 9.387a4.887 4.887 0 003.452 3.448c3.045.815 15.259.815 15.259.815s12.213 0 15.258-.815a4.887 4.887 0 003.453-3.448c.816-3.04.816-9.387.816-9.387s-.003-6.347-.816-9.387z" fill="red"/><path d="M16.534 19.872l10.147-5.849-10.147-5.849v11.698z" fill="#fff"/><path d="M57.606 25.209c-.772-.52-1.322-1.33-1.65-2.427-.324-1.098-.488-2.555-.488-4.379v-2.481c0-1.84.186-3.32.56-4.434.372-1.114.954-1.93 1.745-2.44.79-.51 1.83-.767 3.115-.767 1.267 0 2.28.26 3.045.78.762.52 1.321 1.336 1.675 2.44.353 1.108.53 2.581.53 4.42v2.482c0 1.824-.173 3.288-.517 4.392-.344 1.107-.904 1.916-1.675 2.427-.772.51-1.82.767-3.141.767-1.364.003-2.428-.26-3.2-.78zm4.327-2.677c.212-.559.322-1.468.322-2.732v-5.326c0-1.226-.107-2.125-.322-2.69-.215-.569-.591-.851-1.132-.851-.52 0-.89.282-1.102.85-.216.569-.322 1.465-.322 2.69V19.8c0 1.264.103 2.176.309 2.732.206.558.575.837 1.115.837s.917-.279 1.132-.837zm54.996-4.087v.864c0 1.098.032 1.92.097 2.469.064.549.199.947.405 1.2.205.25.52.376.948.376.575 0 .974-.225 1.186-.671.216-.446.331-1.191.351-2.231l3.324.196c.019.147.029.353.029.613 0 1.58-.434 2.76-1.299 3.54-.865.78-2.09 1.172-3.671 1.172-1.9 0-3.231-.593-3.993-1.784-.766-1.192-1.145-3.031-1.145-5.522V15.68c0-2.565.396-4.44 1.186-5.62.791-1.182 2.145-1.773 4.064-1.773 1.322 0 2.337.24 3.045.726.707.484 1.205 1.236 1.495 2.26.289 1.024.434 2.436.434 4.24v2.928h-6.456v.003zm.489-7.194c-.196.24-.325.636-.392 1.185-.065.549-.097 1.38-.097 2.497v1.227h2.82v-1.227c0-1.098-.039-1.93-.113-2.497-.074-.569-.209-.967-.405-1.2-.196-.232-.498-.35-.907-.35-.411.002-.713.124-.906.365zm-69.2 6.873L43.833 2.31h3.826l1.537 7.169a67.11 67.11 0 01.864 4.516h.113c.128-.892.418-2.388.865-4.49l1.591-7.195h3.826l-4.44 15.814v7.586h-3.8v-7.586h.003zm30.365-9.508v17.097h-3.016l-.334-2.093h-.084c-.82 1.58-2.047 2.37-3.687 2.37-1.135 0-1.974-.373-2.514-1.115-.54-.744-.81-1.906-.81-3.486V8.616h3.854v12.548c0 .764.084 1.307.251 1.631.167.324.447.488.84.488.334 0 .655-.103.964-.308.308-.206.534-.466.685-.78V8.612h3.851v.004zm19.77 0v17.097h-3.016l-.334-2.093h-.084c-.82 1.58-2.048 2.37-3.688 2.37-1.134 0-1.974-.373-2.514-1.115-.54-.744-.81-1.906-.81-3.486V8.616h3.855v12.548c0 .764.084 1.307.25 1.631.168.324.448.488.84.488.334 0 .656-.103.964-.308.309-.206.534-.466.685-.78V8.612h3.852v.004z" fill="#282828"/><path d="M89.056 5.408H85.23v20.305h-3.771V5.408h-3.826V2.313h11.423v3.095zm22.054 5.939c-.234-1.079-.611-1.859-1.131-2.344-.521-.485-1.238-.725-2.151-.725-.707 0-1.37.199-1.984.6a4.074 4.074 0 00-1.424 1.576h-.029V1.446h-3.713V25.71h3.183l.392-1.618h.083a3.29 3.29 0 001.341 1.368c.595.334 1.257.5 1.984.5 1.302 0 2.263-.6 2.877-1.797.614-1.2.923-3.072.923-5.621v-2.706c0-1.91-.119-3.41-.351-4.488zm-3.533 6.976c0 1.245-.051 2.221-.154 2.927-.103.707-.274 1.21-.518 1.506-.241.299-.569.446-.977.446a1.77 1.77 0 01-.881-.225 1.682 1.682 0 01-.656-.667v-9.705c.129-.465.354-.844.672-1.143.315-.298.662-.446 1.032-.446.392 0 .694.154.907.46.215.307.363.82.446 1.546.084.726.126 1.756.126 3.095v2.206h.003z" fill="#282828"/></svg>