<svg width="294" height="294" viewBox="0 0 294 294" fill="none" xmlns="http://www.w3.org/2000/svg">
<path d="M212.396 108.444C212.396 117.8 204.817 125.383 195.462 125.383C186.111 125.383 178.527 117.8 178.527 108.444C178.527 99.089 186.111 91.5103 195.462 91.5103C204.817 91.5103 212.396 99.089 212.396 108.444Z" fill="#CDDC33"/>
<path d="M115.029 108.444C115.029 117.8 107.445 125.383 98.0944 125.383C88.7436 125.383 81.1602 117.8 81.1602 108.444C81.1602 99.089 88.7436 91.5103 98.0944 91.5103C107.445 91.5103 115.029 99.089 115.029 108.444Z" fill="#CDDC33"/>
<path d="M89.3962 235.038C85.5444 235.038 82.418 231.916 82.418 228.059C82.418 197.936 106.647 173.428 136.431 173.428H159.953C189.737 173.428 213.966 197.801 213.966 227.757C213.966 231.613 210.844 234.74 206.987 234.74C203.135 234.74 200.014 231.613 200.014 227.757C200.014 205.5 182.042 187.389 159.953 187.389H136.431C114.342 187.389 96.3755 205.63 96.3755 228.059C96.3744 231.916 93.248 235.038 89.3962 235.038Z" fill="#CDDC33"/>
<path d="M147 294C65.9622 294 0.0351562 228.054 0.0351562 146.998C0.0351562 65.9457 65.9622 0 147 0C228.033 0 293.961 65.9457 293.961 146.998C293.961 228.054 228.033 294 147 294ZM147 13.9617C73.657 13.9617 13.9922 73.6411 13.9922 146.998C13.9922 220.359 73.6576 280.038 147 280.038C220.339 280.038 280.003 220.359 280.003 146.998C280.003 73.6405 220.339 13.9617 147 13.9617Z" fill="#CDDC33"/>
</svg>
