<svg width="145" height="145" viewBox="0 0 145 145" fill="none" xmlns="http://www.w3.org/2000/svg">
<g clip-path="url(#clip0)">
<path d="M45.869 97.1919V57.8254H36.7686V47.7373H58.4266V97.1919H45.869Z" fill="#ED2226"/>
<path d="M105.622 60.5063C105.622 64.8096 103.294 68.6191 99.4139 70.7359C104.846 72.993 108.232 77.72 108.232 83.2226C108.232 92.1114 100.331 97.7555 87.985 97.7555C75.639 97.7555 67.7378 92.1819 67.7378 83.4347C67.7378 77.7905 71.4062 72.993 77.1204 70.7359C72.9582 68.4075 70.2775 64.4573 70.2775 60.154C70.2775 52.252 77.1914 47.2437 87.9144 47.2437C98.7785 47.2437 105.622 52.3935 105.622 60.5063ZM79.5895 82.1648C79.5895 86.3275 82.5529 88.6555 87.985 88.6555C93.417 88.6555 96.4505 86.3985 96.4505 82.1648C96.4505 78.0736 93.417 75.7447 87.985 75.7447C82.5525 75.7447 79.5895 78.0732 79.5895 82.1648ZM80.8598 61.2118C80.8598 64.74 83.3995 66.7144 87.985 66.7144C92.5705 66.7144 95.1101 64.7395 95.1101 61.2118C95.1101 57.5443 92.5705 55.498 87.985 55.498C83.399 55.498 80.8598 57.5443 80.8598 61.2118Z" fill="#ED2226"/>
<path d="M129.13 53.3205C131.218 59.4823 132.277 65.9271 132.277 72.5002C132.277 105.459 105.462 132.274 72.5027 132.274C39.5431 132.274 12.7281 105.459 12.7281 72.5002C12.7281 39.5402 39.5427 12.7265 72.5023 12.7265C79.0763 12.7265 85.5211 13.7847 91.682 15.8733V2.5714C85.4589 0.865512 79.0317 0 72.5027 0C32.5264 0 0.00292969 32.5235 0.00292969 72.5002C0.00292969 112.477 32.5264 145 72.5027 145C112.479 145 145.002 112.477 145.002 72.5002C145.002 65.9716 144.137 59.544 142.431 53.3205H129.13Z" fill="#ED2226"/>
<path d="M125.51 19.4494V5.54785H115.514V19.4494H101.695V29.4449H115.514V43.346H125.51V29.4449H139.411V19.4494H125.51Z" fill="#ED2226"/>
</g>
<defs>
<clipPath id="clip0">
<rect width="145" height="145" fill="white"/>
</clipPath>
</defs>
</svg>
