<svg width="36" height="32" viewBox="0 0 36 32" fill="none" xmlns="http://www.w3.org/2000/svg">
<path d="M34.8762 31.4381H1.12411C0.722285 31.4381 0.351221 31.2242 0.15017 30.8762C-0.0500567 30.5279 -0.0500567 30.1 0.15017 29.752L17.0263 0.522196C17.4279 -0.174065 18.5721 -0.174065 18.9737 0.522196L35.8498 29.752C36.0501 30.1 36.0501 30.5279 35.8498 30.8762C35.6491 31.2242 35.2777 31.4381 34.8762 31.4381ZM3.07117 29.1898H32.9288L18 3.33278L3.07117 29.1898Z" fill="#FF0000"/>
<path d="M17.9992 26.9413C17.6957 26.9413 17.4147 26.8282 17.201 26.6153C16.9871 26.4013 16.875 26.1201 16.875 25.8171C16.875 25.5249 16.9986 25.2318 17.201 25.0187C17.3131 24.9179 17.4372 24.8388 17.5715 24.7828C17.9876 24.6026 18.4823 24.7037 18.7973 25.0187C18.9995 25.2318 19.1234 25.5249 19.1234 25.8171C19.1234 26.1201 19.011 26.4011 18.7973 26.6153C18.5839 26.8282 18.3027 26.9413 17.9992 26.9413Z" fill="#FF0000"/>
<path d="M17.9992 22.4445C17.3785 22.4445 16.875 21.9416 16.875 21.3203V8.95377C16.875 8.33249 17.3785 7.82959 17.9992 7.82959C18.6202 7.82959 19.1234 8.33249 19.1234 8.95377V21.3203C19.1234 21.9416 18.6202 22.4445 17.9992 22.4445Z" fill="#FF0000"/>
</svg>
