<svg width="155" height="36" viewBox="0 0 155 36" fill="none" xmlns="http://www.w3.org/2000/svg">
<g clip-path="url(#clip0)">
<path d="M29.8807 0.445919C31.4039 0.445919 32.7624 1.06308 33.7504 2.05053C34.7384 3.03798 35.3559 4.39571 35.3559 5.87686V30.1928C35.3559 31.7151 34.7384 33.0729 33.7504 34.0603C32.7624 35.0477 31.4039 35.6649 29.9219 35.6649H5.59236C4.06919 35.6649 2.71069 35.0477 1.72269 34.0603C0.734688 33.0729 0.117188 31.7151 0.117188 30.234V5.87686C0.117188 4.35457 0.734688 2.99684 1.72269 2.00939C2.71069 1.02194 4.0692 0.404785 5.55119 0.404785H29.8807V0.445919ZM32.9271 15.8748C28.7692 21.7172 20.4947 27.8888 11.4792 28.6705C7.48602 28.9996 4.19269 28.0945 2.50486 25.7904V30.1928C2.50486 31.0156 2.83419 31.7974 3.41053 32.3322C3.98685 32.9082 4.72786 33.2374 5.55119 33.2374H29.8807C30.704 33.2374 31.4862 32.9082 32.0214 32.3322C32.5977 31.7562 32.9271 31.0156 32.9271 30.1928V15.8748ZM2.50486 18.7548C4.19269 15.6691 7.8977 12.2541 12.7965 9.66212H12.8377C13.1259 9.53865 13.3729 9.37409 13.661 9.25068C15.3077 8.42778 16.9956 7.72836 18.8069 7.15235C20.0007 6.78206 21.4004 7.44033 21.9355 8.59235C22.4295 9.74437 21.8944 10.9787 20.7005 11.3078C19.5067 11.6781 18.2717 12.1307 16.9544 12.7479C15.884 13.2416 14.8137 13.8176 13.8257 14.4348C11.3969 15.9159 9.91489 17.3971 9.21502 18.7548C7.73304 21.5526 9.91489 23.2395 12.92 23.2395C15.1842 23.2395 17.86 22.5812 20.4947 21.1824C20.4947 21.1824 20.5359 21.1824 20.5359 21.1412H20.577C25.4759 18.5491 27.2049 16.78 28.9339 15.0108C31.0745 12.6244 33.0094 9.16836 33.0094 5.87686C33.0094 5.05402 32.6801 4.27228 32.1037 3.73741C31.5274 3.1614 30.7864 2.83226 29.963 2.83226H5.63353C4.81019 2.83226 4.02803 3.1614 3.49286 3.73741C2.91653 4.31343 2.58719 5.05402 2.58719 5.87686V18.7548H2.50486Z" fill="#00427A"/>
<path fill-rule="evenodd" clip-rule="evenodd" d="M132.506 16.7389H141.151V20.2361H132.506V16.7389ZM63.4285 26.6134L63.1399 27.8888L62.399 28.2591C60.9172 28.9174 59.0648 29.2466 57.0062 29.2877C55.0303 29.2877 53.2189 28.9174 51.4899 28.2591C50.2138 27.7654 49.0611 26.9836 48.0319 25.9962C47.0851 25.0499 46.4264 24.1036 45.9736 22.9927C45.4384 21.635 45.1914 20.1127 45.1914 18.3435C45.1914 14.6817 46.3441 11.8428 48.7318 9.78561C51.0371 7.8107 53.9599 6.82324 57.5826 6.82324C59.476 6.82324 61.1642 7.11128 62.7287 7.68729L63.9224 8.09873L63.5106 9.6622L63.0988 11.6371H62.8108C62.399 11.1434 62.0289 10.7319 61.7403 10.4028C60.6286 9.33301 59.229 8.79816 57.5003 8.79816C55.2361 8.79816 53.3836 9.74446 52.0251 11.7194C50.9136 13.324 50.3372 15.3812 50.3372 17.8909C50.3372 19.619 50.6254 21.2235 51.2018 22.7459C51.7369 24.1447 52.5603 25.2145 53.7541 26.0373C54.9479 26.8191 56.2241 27.1894 57.7061 27.1894C59.476 27.1894 61.0404 26.6957 62.4817 25.5848L63.4285 24.8442L63.8397 25.0499L63.4285 26.6134ZM85.9873 7.19359C85.8231 9.04503 85.6993 12.3777 85.6993 16.8212C85.6993 20.6476 85.6582 25.4613 85.9873 28.8763C85.0406 28.794 84.5056 28.8351 83.5588 28.8351C82.6531 28.8351 81.8295 28.794 80.8828 28.8763C81.1714 25.2968 81.1297 21.7995 81.1297 18.1377C81.1297 16.7389 81.0886 15.052 81.0476 13.9411C76.8487 18.7549 72.773 23.8568 68.8622 28.9174H66.1867L66.4747 18.1789C66.4747 14.1057 66.4336 10.3616 66.145 7.23469L68.739 7.317L71.2502 7.23469C70.9616 10.485 70.9616 14.1057 70.9616 18.1377C70.9616 20.8944 70.9616 21.6761 70.9616 22.3345C75.3664 17.6029 79.648 12.5423 83.3529 7.317L85.6993 7.23469H85.9873V7.19359ZM88.0457 28.8763L88.4164 26.8602L89.3632 21.1001L89.8982 17.2738L90.8456 10.0325L91.1746 7.15243L92.4921 7.23469L93.6859 7.15243L95.1266 10.3616L97.3087 15.0109L99.7783 19.9481L100.931 22.1287L102.084 20.0304L104.636 15.052C105.83 12.6657 106.694 10.7731 107.312 9.41532L108.259 7.19359L109.535 7.27584L110.77 7.19359L111.017 9.37417L111.964 17.3561L113.24 26.1197L113.734 28.9174L111.223 28.8763L108.424 28.9174L108.3 26.9836L107.888 21.5527L107.394 17.2326L107.147 14.6817L105.871 17.3561L103.936 21.1413L101.343 26.6545L100.355 28.9997L99.6962 28.9586L99.0785 28.9997L98.4614 27.5186L97.1028 24.6797L93.521 17.2326L92.2862 14.764L91.9982 17.3149L91.5037 21.6761L91.0925 27.066L91.0509 28.9586L89.528 28.9174L88.0457 28.8763ZM132.959 26.6134L133.37 25.1322L132.959 24.9265L132.012 25.6671C130.571 26.778 129.007 27.2717 127.236 27.2717C125.755 27.2305 124.478 26.9014 123.285 26.1197C122.091 25.2968 121.267 24.2271 120.732 22.8282C120.115 21.3058 119.868 19.7012 119.868 17.9732C119.868 15.4223 120.444 13.4062 121.556 11.8017C122.914 9.82677 124.767 8.88047 127.031 8.88047C128.76 8.88047 130.159 9.41532 131.271 10.4851C131.559 10.8142 131.93 11.1845 132.341 11.7194H132.63L133.041 9.74446L133.453 8.18105L132.259 7.7696C130.694 7.19359 129.007 6.90555 127.113 6.90555C123.49 6.90555 120.567 7.89301 118.262 9.86792C115.916 11.9251 114.722 14.764 114.722 18.4258C114.722 20.195 114.969 21.7173 115.504 23.075C115.957 24.1859 116.615 25.1322 117.562 26.0785C118.592 27.1071 119.703 27.8477 121.02 28.3414C122.708 28.9997 124.561 29.37 126.537 29.37C128.636 29.3288 130.447 28.9997 131.93 28.3414L132.671 27.9711L132.959 26.6134ZM154.859 29.082L154.777 26.8191L154.859 24.8442L152.966 25.0088L150.208 25.091H145.885L149.467 21.8819C151.36 20.195 152.595 19.0018 153.131 18.3435C154.242 16.8212 154.818 15.2166 154.818 13.612C154.777 11.596 154.119 10.0736 152.76 9.08619C151.525 8.13989 149.961 7.68729 147.861 7.68729C146.997 7.68729 146.256 7.7696 145.556 7.89301C143.827 8.30446 142.51 9.2096 141.645 10.5673L141.027 11.6782L143.58 13.9411L143.868 13.8588C144.115 10.7731 145.226 9.25076 147.161 9.25076C148.108 9.25076 148.849 9.74446 149.384 10.6085C149.837 11.3902 150.084 12.2131 150.084 13.2005C150.084 14.3525 149.879 15.5046 149.467 16.6978C148.931 18.3024 148.149 19.7012 147.244 20.9767C146.462 21.9642 145.432 23.1573 144.074 24.5973L141.274 27.5597V29.1231L143.868 28.9586C144.856 28.8763 146.338 28.8763 148.273 28.8763L152.925 29.0409L154.859 29.082Z" fill="#00427A"/>
</g>
<defs>
<clipPath id="clip0">
<rect width="155" height="35.8382" fill="white"/>
</clipPath>
</defs>
</svg>
