<svg width="155" height="49" viewBox="0 0 155 49" fill="none" xmlns="http://www.w3.org/2000/svg">
<path d="M47.0834 37.3311H43.4062V3.91699H47.0834V37.3311Z" fill="#E41A1A"/>
<path d="M71.384 37.411L69.8651 35.3326L69.7052 35.2527C68.9858 35.8122 66.9074 36.5317 66.108 36.7715C63.8698 37.331 62.9105 37.331 61.1519 37.331C58.7537 37.331 56.6753 36.5317 55.3164 35.2527C53.9574 34.0536 53.0781 32.9344 53.0781 30.6162C53.0781 25.74 54.4371 22.7024 62.271 22.4626L69.3855 22.8622V21.3434C69.3855 19.4249 68.9858 18.4657 68.1864 17.5863C67.387 16.707 64.9889 16.1474 63.2303 16.1474C61.2318 16.1474 57.7145 16.3073 55.1565 17.5863V14.3888C56.9951 13.7493 57.5547 13.5894 58.9935 13.3496C60.5923 13.0299 62.6707 12.79 64.0296 12.87C67.2272 13.1897 69.3056 13.6694 70.6645 14.9484C72.0235 16.2274 73.2225 17.8261 73.2225 20.7039V37.1712L71.384 37.411ZM61.9513 34.0536C64.2695 34.0536 65.7883 33.7338 66.9074 33.4141C68.1864 33.0144 69.1457 32.3749 69.1457 31.8953L69.3056 25.8999L65.1488 25.5801C61.7114 25.3403 59.9528 25.74 58.6738 26.5394C57.3948 27.3388 57.075 28.378 57.075 30.1366C57.075 31.4956 57.5547 32.3749 58.354 33.0144C59.2334 33.7338 60.5124 34.0536 61.9513 34.0536Z" fill="#E41A1A"/>
<path d="M97.4454 37.5709V21.9031C97.4454 19.9046 96.8058 18.4657 95.9265 17.5065C95.0472 16.5472 92.8889 16.3074 90.9704 16.3074C89.1318 16.3074 86.254 17.7463 84.8951 18.9453C84.3355 19.425 84.5753 20.9438 84.4954 24.6209V37.3311H80.7383V13.1099L83.1364 13.1898L83.8559 16.3873L84.4154 16.4673C85.1349 15.2682 86.254 14.6287 87.9327 13.9892C89.3716 13.5096 90.8105 13.1099 92.4092 13.1099C95.287 13.1099 97.1256 13.3497 98.6444 14.7886C100.083 16.2274 101.282 18.6256 101.282 21.7432V37.491L97.4454 37.5709Z" fill="#E41A1A"/>
<path d="M119.428 37.1714C116.151 37.1714 112.154 35.6526 110.235 33.4943C108.317 31.336 107.438 29.1776 107.438 25.2607C107.438 21.1838 108.717 18.5459 110.635 16.3076C112.554 14.0693 115.831 12.9502 119.428 12.9502C120.627 12.9502 126.143 13.1101 126.862 13.4298L126.942 16.8672C126.143 16.5474 121.027 16.3076 120.308 16.3076C115.431 16.3076 111.514 18.5459 111.514 24.861C111.514 27.8187 111.834 29.1776 113.033 30.7764C114.232 32.3752 116.151 33.4144 118.869 33.9739C120.867 34.3736 125.024 34.2137 127.102 33.3344V36.6119C124.624 36.9316 121.826 37.1714 119.428 37.1714Z" fill="#E41A1A"/>
<path d="M142.208 37.0912C138.61 36.9314 136.212 35.8122 134.134 33.6539C132.055 31.4956 131.336 29.3372 131.336 25.5002C131.336 21.5832 132.295 18.4656 134.214 16.2274C136.132 13.9092 138.69 12.79 141.968 12.79C145.005 12.79 148.043 13.4295 150.441 15.9076C152.28 17.8261 152.28 20.0644 152.28 23.3419L151.8 25.9798H135.093C135.173 28.8576 136.212 30.6162 137.571 32.0551C138.93 33.494 140.929 34.0536 143.407 34.0536C146.045 34.0536 148.283 34.1335 151.4 33.3341L151.241 36.5317C149.402 37.0113 148.363 37.0113 147.244 37.0912C144.845 37.0912 143.886 37.1712 142.208 37.0912ZM142.208 16.1474C140.289 16.1474 138.211 16.6271 137.012 17.9061C135.892 19.1851 135.333 20.7039 135.173 22.9422H148.363C148.363 20.624 147.963 19.265 146.924 18.066C145.965 16.7869 144.126 16.1474 142.208 16.1474Z" fill="#E41A1A"/>
<path d="M24.0617 5.27539H17.2669C10.3123 5.27539 4.63672 10.951 4.63672 17.9056V24.7004C4.63672 31.655 10.3123 37.3306 17.2669 37.3306H19.745L27.8188 46.1238L30.5367 43.6457L24.7012 37.3306C31.336 37.0108 36.6919 31.4951 36.6919 24.7803V17.9855C36.6919 10.951 31.0163 5.27539 24.0617 5.27539ZM20.8642 31.0954C17.9864 31.0954 15.5882 28.7772 15.5882 25.8195C15.5882 23.0217 18.2262 19.0247 19.1855 17.0263C20.3845 14.4683 19.825 12.0701 20.8642 12.0701C21.9033 12.0701 21.104 14.4683 22.303 17.0263C23.1824 18.9448 26.1401 22.3821 26.1401 25.8195C26.1401 28.6973 23.8219 31.0954 20.8642 31.0954Z" fill="#E41A1A"/>
</svg>
