<svg width="159" height="63" viewBox="0 0 159 63" fill="none" xmlns="http://www.w3.org/2000/svg">
<g clip-path="url(#clip0)">
<path fill-rule="evenodd" clip-rule="evenodd" d="M0.40625 18.385L8.46125 26.4004L10.4762 28.4054L12.4911 26.4004L20.5461 18.385V14.4004H20.5207L10.4762 24.3955L0.431617 14.4004H0.40625V18.385ZM135.686 25.8611H115.531V28.7258H135.686V25.8611ZM135.686 14.4004V17.2653H115.531V14.4004H135.686ZM135.686 20.1307V22.9955H115.531V20.1307H135.686ZM135.686 31.5912V34.4561H115.531V31.5912H135.686ZM89.6333 25.8611H69.4783V28.7258H89.6333V25.8611ZM89.6333 14.4004V17.2653H69.4783V14.4004H89.6333ZM89.6333 20.1307V22.9955H69.4783V20.1307H89.6333ZM89.6333 31.5912V34.4561H69.4783V31.5912H89.6333ZM43.5801 25.8611H23.4252V28.7258H43.5801V25.8611ZM43.5801 14.4004V17.2653H23.4252V14.4004H43.5801ZM43.5801 20.1307V22.9955H23.4252V20.1307H43.5801ZM43.5801 31.5912V34.4561H23.4252V31.5912H43.5801ZM158.705 26.4162L146.63 14.4004H142.6L158.705 30.4261V26.4162ZM138.565 34.4411V30.438L142.588 34.4411H138.565ZM138.565 26.4271V22.4172L150.649 34.4411H146.619L138.565 26.4271ZM138.565 18.4062V14.4004H138.57L158.705 34.4369V34.4411H154.68L138.565 18.4062ZM150.661 14.4004H154.691L158.705 18.3953V22.4053L150.661 14.4004ZM50.4832 34.4411L58.5383 26.4257L60.5533 24.4208L58.5383 22.4157L50.4833 14.4004H46.4593V14.4061L56.5235 24.4208L46.4593 34.4354V34.4411H50.4832ZM46.4593 30.4245V26.4146L48.4629 24.4208L46.4593 22.427V18.417L50.4777 22.4157L52.4927 24.4208L50.4777 26.4257L46.4593 30.4245ZM54.514 14.4004H58.5438L66.5989 22.4157L66.5992 22.4161V26.4254L66.5989 26.4257L58.5437 34.4411H54.514L64.5839 24.4208L54.514 14.4004ZM62.5745 14.4004H66.5992V18.4053L62.5745 14.4004ZM66.5992 30.4362V34.4411H62.5745L66.5992 30.4362ZM106.616 28.4337L108.631 30.4387L112.652 34.4404V30.4305L110.646 28.4337L112.652 26.437V22.4271L106.616 28.4337ZM108.622 14.4004L112.652 18.4103V14.4004H108.622ZM92.5124 30.4413V26.4261L98.5495 20.4188L92.5124 14.4113V14.4004H96.5312L100.564 18.4138L102.579 20.4188L100.564 22.4237L94.5246 28.4337L100.562 34.4411H96.5319L92.5124 30.4413ZM92.5124 22.4153V18.4222L94.5188 20.4188L92.5124 22.4153ZM100.562 14.4004H104.592L108.625 18.4138L110.64 20.4188L108.625 22.4237L102.585 28.4337L108.622 34.4411H104.592L100.57 30.4387L98.5553 28.4337L100.57 26.4288L106.61 20.4188L100.562 14.4004ZM4.46234 14.4004H8.49216L10.4762 16.3746L12.4601 14.4004H16.4899L12.4911 18.3796L10.4762 20.3846L8.46125 18.3796L4.46234 14.4004ZM20.5461 22.396V26.4058L12.4911 34.4212L12.4712 34.4411H8.48111L8.46125 34.4212L0.40625 26.4058V22.396L10.4762 32.4163L20.5461 22.396ZM20.5461 30.4167V34.4266L20.5316 34.4411H16.5018L20.5461 30.4167ZM4.45046 34.4411H0.420643L0.40625 34.4268V30.4167L4.45046 34.4411Z" fill="#1A75CF"/>
<path d="M30.2305 40.6396V48.2855H36.7719V46.7163H32.0762V45.0524H36.2545V43.4832H32.0762V42.2089H36.7719V40.6396H30.2305Z" fill="#545558"/>
<path d="M52.5898 48.2855H55.9163C58.4921 48.2855 60.4698 47.422 60.4698 44.4626C60.4698 41.6928 58.634 40.6396 56.3524 40.6396H52.5898V48.2855ZM54.4356 42.2089H55.8757C57.5794 42.2089 58.4515 42.9566 58.4515 44.431C58.4515 45.9055 57.5794 46.7163 55.8757 46.7163H54.4356V42.2089Z" fill="#545558"/>
<path d="M76.2852 40.6396V48.2855H82.8266V46.7163H78.131V45.0524H82.3092V43.4832H78.131V42.2089H82.8266V40.6396H76.2852Z" fill="#545558"/>
<path d="M98.8398 48.2855H100.686V45.4736H102.815C103.911 45.4736 104.103 45.8739 104.103 47.1692V47.6958C104.103 47.9169 104.154 48.1171 104.255 48.2855H106.324C105.969 47.8643 105.969 47.1797 105.929 46.2635C105.888 45.3894 105.797 44.9682 105.006 44.6312C105.777 44.3257 106.223 43.599 106.223 42.6934C106.223 41.2505 105.28 40.6396 103.363 40.6396H98.8398V48.2855ZM100.686 42.2089H102.694C103.759 42.2089 104.276 42.272 104.276 42.9987C104.276 43.7149 103.769 43.9045 102.775 43.9045H100.686V42.2089Z" fill="#545558"/>
<path d="M122.34 40.6396V48.2855H128.881V46.7163H124.186V45.0524H128.364V43.4832H124.186V42.2089H128.881V40.6396H122.34Z" fill="#545558"/>
<path d="M144.77 40.6396V48.2855H146.544V42.8408L150.256 48.2855H152.497V40.6396H150.722V46.0318L147.041 40.6396H144.77Z" fill="#545558"/>
<path d="M5.69922 40.6396V48.2855H7.47399V43.0936L9.66445 48.2855H11.1958L13.4777 43.1777V48.2855H15.2524V40.6396H12.8895L10.4556 46.1161L8.08247 40.6396H5.69922Z" fill="#545558"/>
</g>
<defs>
<clipPath id="clip0">
<rect width="158.725" height="61.9382" fill="white" transform="translate(0.265625 0.387695)"/>
</clipPath>
</defs>
</svg>
