<svg width="161" height="33" viewBox="0 0 161 33" fill="none" xmlns="http://www.w3.org/2000/svg">
<path d="M158.398 21.2219C157.506 21.9259 156.642 22.3693 155.345 22.3693C153.401 22.3693 151.86 20.8306 151.86 18.0395C151.86 15.38 153.426 13.9193 155.345 13.9193C156.561 13.9193 157.532 14.3885 158.37 15.0149L160.369 12.537C158.776 11.3372 156.993 10.8159 155.237 10.8159C150.996 10.8159 147.863 13.5538 147.863 18.0395C147.863 22.7082 151.023 25.447 155.237 25.447C157.29 25.447 158.964 24.7949 160.559 23.4387L158.398 21.2219ZM136.242 16.6838C136.622 14.6494 137.892 13.5538 139.513 13.5538C141.403 13.5538 142.105 14.9103 142.105 16.6838H136.242ZM139.404 10.7892C135.379 10.7892 132.137 13.5538 132.137 18.0395C132.137 22.7343 135.162 25.4728 139.431 25.4728C141.592 25.4728 143.619 24.8467 145.401 23.6474L143.752 21.2219C142.538 21.952 141.186 22.4212 139.728 22.4212C137.54 22.4212 136.379 21.2475 136.162 18.8746H145.725C145.806 18.4573 145.86 17.7267 145.86 17.1791C145.86 13.424 143.564 10.7892 139.404 10.7892ZM134.09 6.87722H117.504V10.3723H123.746V25.1339H127.823V10.3723H134.09V6.87722ZM113.723 21.5346C113.101 22.2129 112.184 22.7082 110.967 22.7082C109.968 22.7082 109.293 22.1345 109.293 21.2998C109.293 19.5268 111.48 18.9787 113.723 18.8481V21.5346ZM117.667 21.4828V15.6405C117.667 12.7719 116.046 10.8159 111.887 10.8159C109.914 10.8159 107.645 11.468 105.699 12.4063L107.104 15.2231C108.887 14.3885 110.345 13.8408 111.723 13.8408C113.101 13.8408 113.723 14.4673 113.723 15.5097V16.7361C108.347 17.1012 105.348 18.6921 105.348 21.7433C105.348 23.9602 107.131 25.447 109.671 25.447C111.615 25.447 112.967 24.7427 114.182 23.4906C114.993 24.8202 116.127 25.2123 118.855 25.2123V22.578C118.126 22.578 117.667 22.239 117.667 21.4828ZM97.5827 20.987H97.5291L94.45 11.129H90.5335L95.3411 25.1339H99.5824L104.418 11.129H100.663L97.5827 20.987ZM84.2629 10.7892C82.4526 10.7892 80.913 11.6766 79.8599 12.7452L79.6708 11.129H75.942V25.1339H79.8865V15.3015C80.751 14.2582 81.8046 13.6583 83.0203 13.6583C84.3707 13.6583 84.9108 14.5192 84.9108 15.7707V25.1339H88.8815V15.8753C88.8815 12.7196 87.5035 10.7892 84.2629 10.7892ZM66.2945 22.578C64.1602 22.578 62.9717 20.7783 62.9717 18.0138C62.9717 15.4318 64.296 13.7106 66.2945 13.7106C68.2396 13.7106 69.5359 15.4318 69.5359 18.0138C69.5359 20.7783 68.3475 22.578 66.2945 22.578ZM66.2945 10.8159C62.1081 10.8159 58.9739 13.6583 58.9739 17.9877C58.9739 22.6041 61.9186 25.447 66.2945 25.447C70.6167 25.447 73.5343 22.6041 73.5343 17.9877C73.5343 13.6583 70.4276 10.8159 66.2945 10.8159ZM51.2464 22.4221C47.6795 22.4221 45.4379 19.9702 45.4379 16.2146C45.4379 12.5897 47.7346 10.2163 51.2464 10.2163C53.0833 10.2163 54.4875 10.8947 55.8109 11.9115L58.0263 9.19966C56.0546 7.68667 53.7848 6.87812 51.1647 6.87812C45.3842 6.87812 41.3047 10.8159 41.3047 16.2146C41.3047 21.7699 45.2487 25.7607 51.0293 25.7607C53.9744 25.7607 56.3239 24.8476 58.3508 23.0215L55.9186 20.5179C54.6499 21.7181 53.137 22.4221 51.2464 22.4221Z" fill="#18739F"/>
<path d="M25.5527 9.03484C25.5527 9.38972 25.2544 9.67769 24.887 9.67769H9.29504C8.92746 9.67769 8.6292 9.38972 8.6292 9.03484V8.96044C8.6292 8.84702 8.7045 8.74642 8.81598 8.71058L16.8822 6.11752C17.0175 6.07408 17.1644 6.07408 17.2998 6.11752L25.3706 8.71194C25.4793 8.74687 25.5527 8.84532 25.5527 8.95556V9.03484ZM21.794 21.8187V11.1521C21.794 10.7969 22.0923 10.5093 22.4598 10.5093H23.9472C24.3151 10.5093 24.6134 10.7969 24.6134 11.1521V21.8187C24.6134 22.174 24.3151 22.4615 23.9472 22.4615H22.4598C22.0923 22.4615 21.794 22.174 21.794 21.8187ZM15.7294 21.8187V11.1521C15.7294 10.7969 16.0277 10.5093 16.3953 10.5093H17.8829C18.2505 10.5093 18.5488 10.7969 18.5488 11.1521V21.8187C18.5488 22.174 18.2505 22.4615 17.8829 22.4615H16.3953C16.0277 22.4615 15.7294 22.174 15.7294 21.8187ZM9.56852 21.8187V11.1521C9.56852 10.7969 9.86631 10.5093 10.2344 10.5093H11.7216C12.0896 10.5093 12.3879 10.7969 12.3879 11.1521V21.8187C12.3879 22.174 12.0896 22.4615 11.7216 22.4615H10.2344C9.86631 22.4615 9.56852 22.174 9.56852 21.8187ZM25.0828 24.4916C25.0828 24.8468 24.7845 25.1344 24.4171 25.1344H9.76493C9.39736 25.1344 9.09909 24.8468 9.09909 24.4916V23.963C9.09909 23.6077 9.39736 23.3197 9.76493 23.3197H24.4171C24.7845 23.3197 25.0828 23.6077 25.0828 23.963V24.4916ZM17.0909 0.425335C7.89546 0.425335 0.441406 7.622 0.441406 16.5001C0.441406 25.378 7.89546 32.5747 17.0909 32.5747C26.2865 32.5747 33.7406 25.378 33.7406 16.5001C33.7406 7.622 26.2865 0.425335 17.0909 0.425335Z" fill="#18739F"/>
</svg>
