<svg width="138" height="36" viewBox="0 0 138 36" fill="none" xmlns="http://www.w3.org/2000/svg">
<path d="M98.5622 33.7628C107.081 33.7628 113.988 26.8655 113.988 18.3572C113.988 9.84896 107.081 2.95166 98.5622 2.95166C90.043 2.95166 83.1367 9.84896 83.1367 18.3572C83.1367 26.8655 90.043 33.7628 98.5622 33.7628Z" fill="#2B5391"/>
<path d="M108.353 11.4839C108.175 11.2469 107.997 10.9506 107.759 10.7136C105.564 8.04724 102.242 6.38818 98.504 6.38818C98.504 6.38818 98.504 6.38818 98.4446 6.38818C94.7662 6.38818 91.5032 8.10649 89.308 10.7136C89.13 10.9506 88.8927 11.1876 88.7147 11.4839C87.3501 13.4392 86.5195 15.8093 86.5195 18.4164C86.5195 20.9642 87.3501 23.3935 88.7147 25.3489C88.8927 25.5859 89.0707 25.8821 89.308 26.1191C91.5032 28.7262 94.7662 30.4445 98.4446 30.4445C98.4446 30.4445 98.4446 30.4445 98.504 30.4445C102.182 30.4445 105.505 28.7855 107.759 26.1191C107.937 25.8821 108.175 25.6451 108.353 25.3489C109.717 23.3935 110.548 21.0235 110.548 18.4164C110.607 15.8093 109.776 13.4392 108.353 11.4839ZM95.0629 7.92874C93.9356 8.99528 93.0457 10.5358 92.3931 12.4319C91.5625 12.1356 90.7912 11.7209 90.1386 11.3061C91.4438 9.76555 93.105 8.58051 95.0629 7.92874ZM89.5453 12.0171C90.3166 12.4911 91.1472 12.9652 92.0964 13.3207C91.6811 14.802 91.4438 16.5203 91.4438 18.2386H87.5281C87.5874 15.9278 88.2994 13.7947 89.5453 12.0171ZM87.5874 19.2459H91.5032C91.5625 20.7272 91.7998 22.09 92.1558 23.3935C91.2065 23.749 90.3166 24.1638 89.6046 24.6971C88.4774 23.1565 87.7654 21.2605 87.5874 19.2459ZM90.1386 25.4674C90.7912 25.0526 91.5625 24.6378 92.3931 24.3416C93.0457 26.1784 93.9356 27.7782 95.0629 28.8447C93.105 28.1337 91.4438 26.9487 90.1386 25.4674ZM98.0887 29.3187C96.0715 29.0225 94.2916 26.9487 93.3424 23.9861C94.7662 23.5713 96.3681 23.275 98.0887 23.275V29.3187ZM98.0887 22.327C96.3088 22.3862 94.5883 22.6233 93.0457 23.0973C92.7491 21.9122 92.5117 20.6087 92.4524 19.2459H98.0293V22.327H98.0887ZM98.0887 18.2979H92.4524C92.4524 16.6388 92.6897 15.0982 93.0457 13.6762C94.5883 14.1502 96.2495 14.4465 98.0887 14.4465V18.2979ZM98.0887 13.4392C96.3681 13.3799 94.7662 13.1429 93.3424 12.7282C94.3509 9.76555 96.0715 7.69173 98.0887 7.39547V13.4392ZM109.598 18.2979H105.623C105.623 16.5203 105.386 14.8612 104.971 13.3799C105.92 13.0244 106.81 12.5504 107.581 12.0764C108.827 13.7947 109.598 15.9278 109.598 18.2979ZM106.988 11.3061C106.335 11.7209 105.564 12.1356 104.674 12.4319C104.022 10.5358 103.132 8.99528 102.004 7.92874C103.962 8.58051 105.683 9.76555 106.988 11.3061ZM99.0379 7.39547C101.055 7.69173 102.776 9.76555 103.725 12.7282C102.301 13.1429 100.699 13.3799 99.0379 13.4392V7.39547ZM99.0379 14.4465C100.818 14.3872 102.538 14.1502 104.022 13.6762C104.378 15.0982 104.615 16.6388 104.615 18.2979H99.0379V14.4465ZM99.0379 19.2459H104.556C104.496 20.6087 104.318 21.9122 103.962 23.0973C102.479 22.6233 100.758 22.3862 98.9786 22.327L99.0379 19.2459ZM99.0379 29.3187V23.275C100.758 23.3343 102.301 23.5713 103.725 23.9861C102.776 26.9487 101.055 29.0225 99.0379 29.3187ZM102.004 28.8447C103.132 27.7782 104.081 26.1784 104.674 24.3416C105.564 24.6378 106.335 25.0526 106.988 25.4674C105.683 27.0079 103.962 28.193 102.004 28.8447ZM107.581 24.6971C106.81 24.1638 105.92 23.749 104.971 23.3935C105.327 22.1492 105.564 20.7272 105.623 19.2459H109.598C109.42 21.2605 108.709 23.1565 107.581 24.6971Z" fill="white"/>
<path d="M3.63672 31.0966V5.61816H18.6469V9.5288H8.08638V15.9873H17.5197V19.8979H8.08638V31.0966H3.63672Z" fill="#2B5391"/>
<path d="M23.1562 31.0966V5.61816H29.0891C31.1657 5.61816 32.8269 5.73667 33.9541 6.03293C35.0814 6.32919 36.1493 6.74395 37.0392 7.39573C37.9885 8.0475 38.7004 8.87703 39.2344 9.82506C39.7683 10.7731 40.0057 11.7804 40.0057 12.8469C40.0057 14.506 39.531 15.9873 38.5818 17.1723C37.6325 18.4166 36.2086 19.3054 34.4287 19.8979L40.0057 31.0966H34.7847L29.6824 20.5497H27.5466V31.0966H23.1562ZM27.5466 17.2908H29.6231C31.581 17.2908 33.0048 16.9353 34.0728 16.2243C35.0814 15.5133 35.6153 14.506 35.6153 13.2024C35.6153 11.8396 35.0814 10.8916 34.0728 10.2398C33.0642 9.58805 31.4623 9.29179 29.2671 9.29179H27.6059V17.2908H27.5466Z" fill="#2B5391"/>
<path d="M45.1094 31.0966V5.61816H59.9416V9.5288H49.4404V15.8095H58.4584V19.7202H49.4404V27.1859H60.1196V31.1558H45.1094V31.0966Z" fill="#2B5391"/>
<path d="M64.6836 31.0966V5.61816H72.2777C75.0661 5.61816 77.202 6.15143 78.6259 7.27722C80.0498 8.34376 80.7617 10.0028 80.7617 12.1359C80.7617 13.4394 80.4057 14.5652 79.7531 15.454C79.1005 16.3428 78.0919 17.0538 76.7274 17.5278C78.2106 17.8833 79.3378 18.5944 80.1091 19.6609C80.8804 20.7275 81.2957 22.0902 81.2957 23.6308C81.2957 26.1194 80.4651 28.0155 78.8632 29.2005C77.2613 30.4448 74.8288 31.0373 71.5064 31.0373H64.6836V31.0966ZM69.0146 16.2243H71.6251C73.1083 16.2243 74.2949 15.8688 75.1255 15.217C75.9561 14.5652 76.3714 13.6172 76.3714 12.4322C76.3714 11.2471 75.9561 10.4176 75.1848 9.82506C74.4135 9.29179 73.1676 8.99553 71.4471 8.99553H69.0146V16.2243ZM69.0146 27.5414H72.159C73.6423 27.5414 74.8288 27.1859 75.6594 26.4749C76.49 25.7639 76.9053 24.7566 76.9053 23.453C76.9053 22.2088 76.49 21.2607 75.6594 20.6089C74.8288 19.9572 73.6423 19.6017 72.0997 19.6017H68.9553V27.5414H69.0146Z" fill="#2B5391"/>
<path d="M117.191 31.0966V5.61816H123.124C125.201 5.61816 126.862 5.73667 127.989 6.03293C129.117 6.32919 130.184 6.74395 131.074 7.39573C132.024 8.0475 132.736 8.87703 133.27 9.82506C133.803 10.7731 134.041 11.7804 134.041 12.8469C134.041 14.506 133.566 15.9873 132.617 17.1723C131.668 18.4166 130.244 19.3054 128.464 19.8979L134.041 31.0966H128.82L123.718 20.5497H121.582V31.0966H117.191ZM121.582 17.2908H123.658C125.616 17.2908 127.04 16.9353 128.108 16.2243C129.116 15.5133 129.65 14.506 129.65 13.2024C129.65 11.8396 129.116 10.8916 128.108 10.2398C127.099 9.58805 125.497 9.29179 123.302 9.29179H121.641V17.2908H121.582Z" fill="#2B5391"/>
</svg>
