<svg width="155" height="46" viewBox="0 0 155 46" fill="none" xmlns="http://www.w3.org/2000/svg">
<g clip-path="url(#clip0)">
<path d="M64.1586 25.9071C64.1586 28.5089 63.5497 30.4464 62.3872 31.6643C61.2247 32.8821 59.2872 33.5464 56.7961 33.5464C54.2497 33.5464 52.3675 32.8821 51.205 31.6643C50.0425 30.4464 49.4336 28.4535 49.4336 25.9071C49.4336 21.091 51.9247 18.6553 56.8514 18.6553C61.7229 18.6553 64.1586 21.091 64.1586 25.9071ZM60.1175 25.9071C60.1175 24.5232 59.8961 23.5821 59.5086 23.0839C59.0104 22.5857 58.1247 22.3089 56.7961 22.3089C55.5229 22.3089 54.5818 22.5857 54.139 23.0839C53.6407 23.5821 53.4193 24.5785 53.4193 25.9071C53.4193 27.4018 53.6407 28.3982 54.0282 28.9518C54.5264 29.616 55.4122 29.9482 56.8514 29.9482C58.2907 29.9482 59.2318 29.616 59.6747 29.0071C59.9515 28.4535 60.1175 27.4018 60.1175 25.9071ZM76.2818 20.925C76.2818 20.925 76.2818 21.091 76.2264 21.4232C76.1711 21.9768 75.8943 22.2535 75.3407 22.2535C74.2336 22.2535 73.2925 22.2535 72.5175 22.2535C71.4104 22.2535 70.8015 22.6964 70.8015 23.5821V32.4946C70.8015 33.0482 70.5247 33.325 69.9711 33.325H67.7015C67.1479 33.325 66.8711 33.0482 66.8711 32.4946V24.025C66.8711 20.4268 68.8086 18.6 72.6282 18.6C73.7354 18.6 74.5657 18.6553 75.064 18.7107C75.839 18.8214 76.2818 19.375 76.2818 20.3714V20.925ZM86.7997 31.7196C86.7997 32.716 86.4122 33.325 85.5818 33.4357C85.0836 33.491 84.364 33.5464 83.4782 33.5464C79.9907 33.5464 78.2193 31.941 78.2193 28.6196V16.8839C78.2193 15.666 78.8282 15.0018 80.0461 15.0018H81.3193C81.8729 15.0018 82.1497 15.2785 82.1497 15.8321V18.8768H85.3604C85.9693 18.8768 86.2461 19.1535 86.2461 19.7625V21.4785C86.2461 22.0875 85.9693 22.3643 85.3604 22.3643H82.1497V28.6196C82.1497 29.2839 82.2604 29.616 82.4818 29.7821C82.6479 29.8928 83.0907 30.0035 83.755 30.0035C83.9765 30.0035 84.2532 29.9482 84.5854 29.9482C84.9175 29.8928 85.1943 29.8928 85.4157 29.8928C86.3015 29.8928 86.689 30.1696 86.689 30.7232C86.689 30.8339 86.6889 31 86.7443 31.2214C86.7997 31.4428 86.7997 31.5535 86.7997 31.7196ZM103.518 25.9071C103.518 28.5089 102.909 30.4464 101.746 31.6643C100.584 32.8821 98.6461 33.5464 96.155 33.5464C93.6086 33.5464 91.7265 32.8821 90.564 31.6643C89.4015 30.4464 88.7925 28.4535 88.7925 25.9071C88.7925 21.091 91.2836 18.6553 96.2104 18.6553C101.026 18.6553 103.518 21.091 103.518 25.9071ZM99.4765 25.9071C99.4765 24.5232 99.255 23.5821 98.8675 23.0839C98.3693 22.5857 97.4836 22.3089 96.155 22.3089C94.8818 22.3089 93.9407 22.5857 93.4979 23.0839C92.9997 23.5821 92.7782 24.5785 92.7782 25.9071C92.7782 27.4018 92.9997 28.3982 93.3872 28.9518C93.8854 29.616 94.7711 29.9482 96.2104 29.9482C97.6497 29.9482 98.5907 29.616 99.0336 29.0071C99.255 28.4535 99.4765 27.4018 99.4765 25.9071ZM119.46 32.4946C119.46 33.0482 119.184 33.325 118.63 33.325H116.36C115.807 33.325 115.53 33.0482 115.53 32.4946V24.3571C115.53 23.416 115.309 22.8625 114.921 22.5857C114.589 22.3643 113.98 22.2535 113.039 22.2535C111.655 22.2535 110.659 22.3089 110.105 22.475V32.55C110.105 33.1035 109.828 33.3803 109.275 33.3803H107.005C106.451 33.3803 106.175 33.1035 106.175 32.55V20.7589C106.175 19.8178 106.673 19.2643 107.614 19.0982C109.164 18.766 111.101 18.6 113.26 18.6C117.412 18.6 119.571 20.3714 119.571 23.8589L119.46 32.4946ZM126.435 15.0018C126.435 16.4964 125.66 17.2714 124.166 17.2714C122.671 17.2714 121.896 16.4964 121.896 15.0018C121.896 13.4518 122.671 12.6768 124.166 12.6768C125.66 12.6768 126.435 13.4518 126.435 15.0018ZM126.214 32.4946C126.214 33.0482 125.937 33.325 125.384 33.325H123.114C122.56 33.325 122.284 33.0482 122.284 32.4946V20.6482C122.284 19.4303 122.893 18.766 124.11 18.766H125.384C125.937 18.766 126.214 19.0428 126.214 19.5964V32.4946ZM139.776 31.775C139.832 32.716 139.334 33.2696 138.393 33.3803C137.784 33.491 136.621 33.5464 135.071 33.5464C130.366 33.5464 128.041 31 128.041 25.8518C128.041 21.0357 130.366 18.6553 135.071 18.6553C136.676 18.6553 137.618 18.7107 137.95 18.7107C139.168 18.9321 139.776 19.4857 139.776 20.3714V21.5893C139.776 22.0875 139.5 22.3643 139.001 22.3643C138.614 22.3643 138.06 22.3089 137.285 22.3089C136.51 22.2535 136.012 22.2535 135.569 22.2535C134.185 22.2535 133.3 22.475 132.746 23.0285C132.248 23.5268 131.971 24.4678 131.971 25.9071C131.971 27.4018 132.193 28.4535 132.58 28.9518C133.078 29.616 134.019 29.8928 135.514 29.8928C136.123 29.8928 136.787 29.8375 137.618 29.7821L138.835 29.6714C139.334 29.616 139.61 29.8928 139.721 30.4464C139.721 30.4464 139.721 30.8893 139.776 31.775ZM155 31.4428C155 32.3839 154.501 32.9375 153.56 33.1035C152.121 33.3803 150.46 33.491 148.412 33.491C143.984 33.491 141.769 31.941 141.769 28.841C141.769 26.7375 143.098 25.2982 145.81 24.6339C145.976 24.5785 147.028 24.4125 148.966 24.025C150.018 23.8035 150.682 23.6928 151.014 23.5268L150.959 23.4714C150.959 22.8625 150.626 22.475 150.073 22.2535C149.741 22.1428 149.187 22.0875 148.412 22.0875C147.194 22.0875 146.087 22.1428 145.091 22.2535L143.651 22.4196C143.596 22.3643 143.596 22.3643 143.541 22.475C143.098 22.475 142.821 22.2535 142.766 21.7C142.766 21.6446 142.71 21.2018 142.71 20.4821C142.71 19.4857 143.485 18.8768 145.091 18.7107C145.368 18.6553 146.53 18.6553 148.578 18.6553C152.785 18.6553 154.944 20.4821 154.944 24.1357V31.4428H155ZM151.069 29.8928V27.0143L146.751 27.8446C146.087 27.9553 145.755 28.3428 145.755 28.841C145.755 29.616 146.696 30.0589 148.634 30.0589C149.63 30.0589 150.46 30.0035 151.069 29.8928Z" fill="black"/>
<path d="M92.3334 44.8947C92.3334 44.95 92.3334 45.0054 92.3334 45.0607C92.3334 45.1161 92.278 45.1161 92.278 45.1715C92.278 45.2268 92.2227 45.2268 92.2227 45.2268C92.1673 45.2268 92.1673 45.2822 92.1673 45.2822H88.7352C88.6798 45.2822 88.5137 45.2268 88.4584 45.2268C88.403 45.1715 88.3477 45.0607 88.3477 44.95V38.584C88.3477 38.5286 88.3477 38.5286 88.403 38.5286C88.403 38.4732 88.4584 38.4732 88.4584 38.4732C88.4584 38.4732 88.5137 38.4179 88.6244 38.4179C88.6798 38.4179 88.7905 38.4179 88.8459 38.4179C88.9566 38.4179 89.0673 38.4179 89.0673 38.4179C89.1226 38.4179 89.178 38.4179 89.2334 38.4732C89.2887 38.4732 89.2887 38.5286 89.2887 38.5286C89.2887 38.584 89.3441 38.584 89.3441 38.584V44.5072H92.1673C92.2227 44.5072 92.2227 44.5072 92.2227 44.5625C92.278 44.5625 92.278 44.6179 92.278 44.6179C92.278 44.6732 92.3334 44.6732 92.3334 44.7286C92.278 44.7286 92.3334 44.784 92.3334 44.8947ZM94.3262 45.1715C94.3262 45.2268 94.3262 45.2268 94.2709 45.2268L94.2155 45.2822C94.2155 45.2822 94.1602 45.3375 94.0494 45.3375C93.9941 45.3375 93.8834 45.3375 93.828 45.3375C93.7727 45.3375 93.6619 45.3375 93.6066 45.3375C93.5512 45.3375 93.4959 45.3375 93.4405 45.2822C93.3852 45.2268 93.3852 45.2268 93.3852 45.2268L93.3298 45.1715V40.4107C93.3298 40.3554 93.3298 40.3554 93.3852 40.3554C93.3852 40.3 93.4405 40.3 93.4405 40.3C93.4405 40.3 93.4959 40.2447 93.6066 40.2447C93.6619 40.2447 93.7727 40.2447 93.828 40.2447C93.9387 40.2447 94.0494 40.2447 94.0494 40.2447C94.1048 40.2447 94.1602 40.2447 94.2155 40.3C94.2709 40.3554 94.2709 40.3554 94.2709 40.3554C94.2709 40.4107 94.3262 40.4107 94.3262 40.4107V45.1715ZM94.4369 38.75C94.4369 38.9715 94.3816 39.0822 94.3262 39.1929C94.2709 39.2482 94.1048 39.3036 93.828 39.3036C93.5512 39.3036 93.4405 39.2482 93.3298 39.1929C93.2744 39.1375 93.2191 38.9715 93.2191 38.8054C93.2191 38.6393 93.2744 38.4732 93.3298 38.4179C93.3852 38.3625 93.5512 38.3072 93.828 38.3072C94.1048 38.3072 94.2155 38.3625 94.3262 38.4179C94.4369 38.4179 94.4369 38.5286 94.4369 38.75ZM99.0869 38.4179C99.0869 38.4732 99.0869 38.5286 99.0869 38.584C99.0869 38.6393 99.0869 38.6393 99.0316 38.6393C99.0316 38.6947 98.9762 38.6947 98.9762 38.6947H98.9209C98.9209 38.6947 98.8655 38.6947 98.8102 38.6393C98.7548 38.6393 98.7548 38.584 98.6441 38.584C98.5887 38.584 98.5334 38.5286 98.4227 38.5286C98.3119 38.5286 98.2566 38.4732 98.1459 38.4732C97.9798 38.4732 97.8691 38.5286 97.7584 38.5286C97.6477 38.584 97.5369 38.6393 97.5369 38.75C97.4816 38.8054 97.4262 38.9715 97.3709 39.0822C97.3155 39.2482 97.3155 39.4143 97.3155 39.5804V40.0786H98.5334C98.5887 40.0786 98.5887 40.0786 98.5887 40.0786L98.6441 40.134C98.6441 40.1893 98.6994 40.1893 98.6994 40.2447C98.6994 40.3 98.6994 40.3554 98.6994 40.4107C98.6994 40.5215 98.6994 40.6322 98.6441 40.6875C98.5887 40.7429 98.5887 40.7429 98.478 40.7429H97.2602V44.95C97.2602 45.0054 97.2602 45.0054 97.2048 45.0054L97.1494 45.0607C97.1494 45.0607 97.0941 45.1161 96.9834 45.1161C96.8727 45.1161 96.8173 45.1161 96.7619 45.1161C96.7066 45.1161 96.5959 45.1161 96.5405 45.1161C96.4852 45.1161 96.4298 45.1161 96.3744 45.0607C96.3191 45.0607 96.3191 45.0054 96.3191 45.0054L96.2637 44.95V40.7429H95.4887C95.4334 40.7429 95.378 40.6875 95.3227 40.6875C95.2673 40.6322 95.2673 40.5215 95.2673 40.4107C95.2673 40.3554 95.2673 40.3 95.2673 40.2447C95.2673 40.1893 95.3227 40.1893 95.3227 40.134C95.3227 40.0786 95.378 40.0786 95.378 40.0786C95.4334 40.0786 95.4334 40.0786 95.4334 40.0786H96.2084V39.5804C96.2084 39.2482 96.2637 38.9715 96.3191 38.75C96.3744 38.5286 96.5405 38.3072 96.6512 38.1411C96.8173 37.975 96.9834 37.8643 97.2048 37.809C97.4262 37.7536 97.703 37.6982 97.9798 37.6982C98.1459 37.6982 98.2566 37.6982 98.3673 37.7536C98.478 37.809 98.5887 37.809 98.6994 37.809C98.7548 37.8643 98.8102 37.8643 98.8655 37.8643C98.9209 37.8643 98.9209 37.9197 98.9209 37.9197C98.9762 37.975 98.9762 37.975 98.9762 38.0304C99.0869 38.3072 99.0869 38.3625 99.0869 38.4179ZM104.235 42.5697C104.235 42.6804 104.18 42.7911 104.124 42.8465C104.069 42.9018 103.958 42.9018 103.848 42.9018H100.305C100.305 43.1786 100.36 43.4 100.36 43.6215C100.416 43.8429 100.526 44.009 100.692 44.175C100.858 44.3411 101.024 44.4518 101.246 44.5072C101.467 44.5625 101.744 44.6179 102.076 44.6179C102.353 44.6179 102.574 44.6179 102.741 44.5625C102.907 44.5072 103.128 44.5072 103.239 44.4518C103.405 44.3965 103.516 44.3965 103.571 44.3411C103.626 44.2857 103.737 44.2857 103.792 44.2857C103.848 44.2857 103.848 44.2857 103.848 44.2857L103.903 44.3411C103.903 44.3965 103.958 44.3965 103.958 44.4518C103.958 44.5072 103.958 44.5072 103.958 44.6179C103.958 44.6732 103.958 44.6732 103.958 44.7286C103.958 44.784 103.958 44.784 103.958 44.784C103.958 44.8393 103.958 44.8393 103.903 44.8393L103.848 44.8947C103.792 44.8947 103.792 44.95 103.626 44.95C103.516 45.0054 103.405 45.0054 103.183 45.0607C103.017 45.1161 102.851 45.1161 102.574 45.1715C102.353 45.2268 102.076 45.2268 101.855 45.2268C101.412 45.2268 101.024 45.1715 100.692 45.0607C100.36 44.95 100.083 44.784 99.8619 44.5625C99.6405 44.3411 99.4744 44.0643 99.3637 43.7875C99.253 43.4554 99.1977 43.0679 99.1977 42.6804C99.1977 42.2929 99.253 41.9054 99.4191 41.5732C99.5298 41.2411 99.6959 40.9643 99.9173 40.7429C100.139 40.5215 100.416 40.3554 100.748 40.2447C101.08 40.134 101.412 40.0232 101.799 40.0232C102.242 40.0232 102.574 40.0786 102.907 40.2447C103.239 40.3554 103.46 40.5215 103.682 40.7429C103.903 40.9643 104.014 41.1857 104.124 41.4625C104.18 41.7393 104.235 42.0161 104.235 42.3482V42.5697ZM103.239 42.2929C103.239 41.85 103.128 41.4625 102.907 41.2411C102.685 40.9643 102.298 40.8536 101.855 40.8536C101.633 40.8536 101.357 40.909 101.246 40.9643C101.024 41.0197 100.914 41.1857 100.748 41.2965C100.637 41.4072 100.526 41.5732 100.471 41.7947C100.416 41.9607 100.36 42.1268 100.36 42.3482L103.239 42.2929ZM109.494 45.1715C109.494 45.2268 109.494 45.2268 109.439 45.2268L109.383 45.2822C109.328 45.2822 109.328 45.3375 109.217 45.3375C109.162 45.3375 109.051 45.3375 108.996 45.3375C108.941 45.3375 108.83 45.3375 108.774 45.3375C108.719 45.3375 108.664 45.3375 108.608 45.2822C108.553 45.2822 108.553 45.2268 108.553 45.2268L108.498 45.1715V40.4107C108.498 40.3554 108.498 40.3554 108.553 40.3554C108.553 40.3 108.608 40.3 108.608 40.3C108.608 40.3 108.664 40.2447 108.774 40.2447C108.885 40.2447 108.941 40.2447 108.996 40.2447C109.107 40.2447 109.217 40.2447 109.217 40.2447C109.273 40.2447 109.328 40.2447 109.383 40.3C109.439 40.3 109.439 40.3554 109.439 40.3554C109.439 40.4107 109.494 40.4107 109.494 40.4107V45.1715ZM109.66 38.75C109.66 38.9715 109.605 39.0822 109.549 39.1929C109.494 39.2482 109.328 39.3036 109.051 39.3036C108.83 39.3036 108.664 39.2482 108.553 39.1929C108.498 39.1375 108.442 38.9715 108.442 38.8054C108.442 38.6393 108.498 38.4732 108.553 38.4179C108.608 38.3625 108.774 38.3072 109.051 38.3072C109.273 38.3072 109.439 38.3625 109.549 38.4179C109.605 38.4179 109.66 38.5286 109.66 38.75ZM115.971 45.1715C115.971 45.2268 115.971 45.2268 115.916 45.2268L115.86 45.2822C115.86 45.2822 115.805 45.3375 115.694 45.3375C115.639 45.3375 115.528 45.3375 115.473 45.3375C115.362 45.3375 115.251 45.3375 115.251 45.3375C115.196 45.3375 115.141 45.3375 115.085 45.2822C115.03 45.2268 115.03 45.2268 115.03 45.2268L114.974 45.1715V42.4036C114.974 42.1268 114.919 41.9054 114.919 41.7393C114.864 41.5732 114.808 41.4072 114.698 41.2965C114.642 41.1857 114.476 41.075 114.366 41.0197C114.199 40.9643 114.033 40.9643 113.867 40.9643C113.646 40.9643 113.369 41.0197 113.092 41.1857C112.871 41.3518 112.594 41.5732 112.317 41.85V45.1715C112.317 45.2268 112.317 45.2268 112.262 45.2268L112.207 45.2822C112.207 45.2822 112.151 45.3375 112.041 45.3375C111.985 45.3375 111.874 45.3375 111.819 45.3375C111.764 45.3375 111.653 45.3375 111.598 45.3375C111.542 45.3375 111.487 45.3375 111.432 45.2822C111.376 45.2268 111.376 45.2268 111.376 45.2268L111.321 45.1715V40.4107C111.321 40.3554 111.321 40.3554 111.321 40.3554L111.376 40.3C111.376 40.3 111.432 40.2447 111.542 40.2447C111.598 40.2447 111.653 40.2447 111.764 40.2447C111.819 40.2447 111.93 40.2447 111.985 40.2447C112.041 40.2447 112.096 40.2447 112.096 40.3C112.151 40.3 112.151 40.3554 112.151 40.3554V40.4107V41.075C112.483 40.7429 112.76 40.5768 113.037 40.4107C113.369 40.2447 113.646 40.1893 113.923 40.1893C114.255 40.1893 114.587 40.2447 114.808 40.3554C115.03 40.4661 115.251 40.5768 115.417 40.7982C115.583 41.0197 115.694 41.1857 115.749 41.4625C115.805 41.684 115.805 41.9607 115.805 42.3482V45.2268H115.971V45.1715ZM128.592 45.1715C128.592 45.2268 128.592 45.2268 128.537 45.2268L128.482 45.2822C128.482 45.2822 128.426 45.3375 128.316 45.3375C128.26 45.3375 128.149 45.3375 128.094 45.3375C127.983 45.3375 127.873 45.3375 127.873 45.3375C127.873 45.3375 127.762 45.3375 127.707 45.2822C127.651 45.2268 127.651 45.2268 127.651 45.2268L127.596 45.1715V42.2375C127.596 42.0161 127.541 41.85 127.541 41.684C127.485 41.5179 127.43 41.3518 127.319 41.2411C127.264 41.1304 127.098 41.0197 126.987 40.9643C126.876 40.909 126.655 40.909 126.489 40.909C126.267 40.909 125.991 40.9643 125.824 41.1304C125.603 41.2965 125.326 41.5179 125.049 41.7947V45.1161C125.049 45.1715 125.049 45.1715 124.994 45.1715L124.939 45.2268C124.939 45.2268 124.883 45.2822 124.773 45.2822C124.717 45.2822 124.607 45.2822 124.551 45.2822C124.496 45.2822 124.385 45.2822 124.33 45.2822C124.274 45.2822 124.219 45.2822 124.164 45.2268C124.108 45.1715 124.108 45.1715 124.108 45.1715V45.1161V42.1822C124.108 41.9607 124.053 41.7947 124.053 41.6286C123.998 41.4625 123.942 41.2965 123.832 41.1857C123.776 41.075 123.61 40.9643 123.499 40.909C123.389 40.8536 123.223 40.8536 123.001 40.8536C122.78 40.8536 122.503 40.909 122.337 41.075C122.116 41.2411 121.839 41.4625 121.562 41.7393V45.0607C121.562 45.1161 121.562 45.1161 121.507 45.1161L121.451 45.1715C121.451 45.1715 121.396 45.2268 121.285 45.2268C121.23 45.2268 121.119 45.2268 121.064 45.2268C121.008 45.2268 120.898 45.2268 120.842 45.2268C120.787 45.2268 120.732 45.2268 120.676 45.1715C120.621 45.1161 120.621 45.1161 120.621 45.1161L120.566 45.0607V40.3C120.566 40.2447 120.566 40.2447 120.566 40.2447L120.621 40.1893C120.621 40.1893 120.676 40.134 120.787 40.134C120.842 40.134 120.898 40.134 121.008 40.134C121.064 40.134 121.174 40.134 121.23 40.134C121.285 40.134 121.341 40.134 121.341 40.1893C121.396 40.1893 121.396 40.2447 121.396 40.2447V40.3V40.9643C121.728 40.6322 122.005 40.4661 122.282 40.3C122.558 40.134 122.891 40.0786 123.167 40.0786C123.389 40.0786 123.61 40.134 123.776 40.134C123.998 40.1893 124.108 40.2447 124.274 40.3554C124.385 40.4107 124.496 40.5768 124.607 40.6322C124.662 40.7429 124.828 40.8536 124.828 41.0197C125.049 40.8536 125.16 40.6875 125.326 40.5768C125.492 40.4661 125.658 40.3554 125.824 40.3C125.991 40.2447 126.101 40.1893 126.267 40.134C126.433 40.0786 126.544 40.0786 126.71 40.0786C127.042 40.0786 127.319 40.134 127.596 40.2447C127.817 40.3554 128.039 40.4661 128.205 40.6875C128.371 40.909 128.426 41.075 128.537 41.3518C128.592 41.5732 128.592 41.85 128.592 42.1268V45.1715ZM135.457 42.6804C135.457 43.0679 135.401 43.4554 135.291 43.7322C135.18 44.0643 135.014 44.3411 134.792 44.5625C134.571 44.784 134.294 45.0054 133.907 45.1161C133.574 45.2268 133.132 45.3375 132.689 45.3375C132.246 45.3375 131.858 45.2822 131.526 45.1715C131.194 45.0607 130.917 44.8947 130.696 44.6732C130.474 44.4518 130.308 44.175 130.198 43.8982C130.087 43.5661 130.032 43.234 130.032 42.8465C130.032 42.459 130.087 42.0715 130.198 41.7947C130.308 41.4625 130.474 41.1857 130.696 40.9643C130.917 40.7429 131.194 40.5215 131.582 40.4107C131.914 40.3 132.357 40.1893 132.799 40.1893C133.242 40.1893 133.63 40.2447 133.962 40.3554C134.294 40.4661 134.571 40.6322 134.792 40.8536C135.014 41.075 135.18 41.3518 135.291 41.6286C135.401 41.9054 135.457 42.2929 135.457 42.6804ZM134.405 42.7911C134.405 42.5697 134.349 42.2929 134.349 42.0715C134.294 41.85 134.183 41.6286 134.073 41.4625C133.962 41.2965 133.796 41.1304 133.574 41.075C133.353 40.9643 133.076 40.909 132.799 40.909C132.523 40.909 132.246 40.9643 132.024 41.0197C131.803 41.075 131.637 41.2411 131.526 41.4072C131.416 41.5732 131.305 41.7393 131.194 42.0161C131.139 42.2375 131.139 42.5143 131.139 42.7911C131.139 43.0679 131.194 43.2893 131.194 43.5661C131.249 43.7875 131.36 44.009 131.471 44.175C131.582 44.3411 131.748 44.5072 131.969 44.5625C132.191 44.6732 132.467 44.7286 132.744 44.7286C133.021 44.7286 133.298 44.6732 133.519 44.6179C133.741 44.5625 133.907 44.3965 134.017 44.2304C134.128 44.0643 134.239 43.8982 134.349 43.6215C134.405 43.2893 134.405 43.0679 134.405 42.7911ZM139.719 44.784C139.719 44.8947 139.719 45.0054 139.664 45.0054C139.664 45.0607 139.608 45.1161 139.608 45.1161C139.553 45.1715 139.553 45.1715 139.442 45.1715C139.387 45.2268 139.332 45.2268 139.221 45.2268C139.166 45.2268 139.055 45.2822 138.944 45.2822C138.889 45.2822 138.723 45.2822 138.667 45.2822C138.391 45.2822 138.169 45.2268 137.948 45.2268C137.726 45.1715 137.616 45.0607 137.449 44.95C137.339 44.8393 137.228 44.6179 137.173 44.4518C137.117 44.2304 137.117 44.009 137.117 43.7322V40.9643H136.342C136.287 40.9643 136.232 40.909 136.176 40.909C136.121 40.8536 136.121 40.7429 136.121 40.6322C136.121 40.5768 136.121 40.5215 136.121 40.4661C136.121 40.4107 136.176 40.4107 136.176 40.3554C136.176 40.3 136.232 40.3 136.232 40.3C136.287 40.2447 136.287 40.3 136.287 40.3H137.062V39.1929C137.062 39.1375 137.062 39.1375 137.062 39.1375C137.062 39.0822 137.117 39.0822 137.117 39.0822C137.117 39.0822 137.173 39.0268 137.283 39.0268C137.339 39.0268 137.449 39.0268 137.505 39.0268C137.616 39.0268 137.726 39.0268 137.726 39.0268C137.782 39.0268 137.837 39.0268 137.892 39.0822C137.948 39.0822 137.948 39.1375 137.948 39.1375L138.003 39.1929V40.3H139.387C139.442 40.3 139.442 40.3 139.442 40.3C139.498 40.3 139.498 40.3554 139.498 40.3554C139.498 40.4107 139.553 40.4107 139.553 40.4661C139.553 40.5215 139.553 40.5768 139.553 40.6322C139.553 40.7429 139.553 40.8536 139.498 40.909C139.442 40.9643 139.442 40.9643 139.332 40.9643H137.948V43.6215C137.948 43.9536 138.003 44.175 138.114 44.3965C138.224 44.5625 138.446 44.6179 138.723 44.6179C138.778 44.6179 138.889 44.6179 138.944 44.5625C138.999 44.5625 139.055 44.5072 139.166 44.5072C139.221 44.5072 139.276 44.4518 139.332 44.4518C139.387 44.4518 139.387 44.3965 139.442 44.3965H139.498L139.553 44.4518C139.553 44.4518 139.553 44.5072 139.608 44.5072C139.719 44.6732 139.719 44.7286 139.719 44.784ZM142.044 45.1715C142.044 45.2268 142.044 45.2268 141.989 45.2268L141.933 45.2822C141.933 45.2822 141.878 45.3375 141.767 45.3375C141.712 45.3375 141.601 45.3375 141.546 45.3375C141.491 45.3375 141.38 45.3375 141.324 45.3375C141.269 45.3375 141.214 45.3375 141.158 45.2822C141.103 45.2822 141.103 45.2268 141.103 45.2268L141.048 45.1715V40.4107C141.048 40.3554 141.048 40.3554 141.103 40.3554C141.103 40.3 141.158 40.3 141.158 40.3C141.158 40.3 141.214 40.2447 141.324 40.2447C141.38 40.2447 141.491 40.2447 141.546 40.2447C141.657 40.2447 141.767 40.2447 141.767 40.2447C141.823 40.2447 141.878 40.2447 141.933 40.3C141.989 40.3554 141.989 40.3554 141.989 40.3554L142.044 40.4107V45.1715ZM142.155 38.75C142.155 38.9715 142.099 39.0822 142.044 39.1929C141.989 39.2482 141.823 39.3036 141.546 39.3036C141.269 39.3036 141.158 39.2482 141.048 39.1929C140.992 39.1375 140.937 38.9715 140.937 38.8054C140.937 38.6393 140.992 38.4732 141.048 38.4179C141.103 38.3625 141.269 38.3072 141.546 38.3072C141.823 38.3072 141.933 38.3625 142.044 38.4179C142.044 38.4179 142.155 38.5286 142.155 38.75ZM148.908 42.6804C148.908 43.0679 148.853 43.4554 148.742 43.7322C148.632 44.0643 148.466 44.3411 148.244 44.5625C148.023 44.784 147.746 45.0054 147.358 45.1161C147.026 45.2268 146.583 45.3375 146.141 45.3375C145.698 45.3375 145.31 45.2822 144.978 45.1715C144.646 45.0607 144.369 44.8947 144.148 44.6732C143.926 44.4518 143.76 44.175 143.649 43.8982C143.539 43.5661 143.483 43.234 143.483 42.8465C143.483 42.459 143.539 42.0715 143.649 41.7947C143.76 41.4625 143.926 41.1857 144.148 40.9643C144.369 40.7429 144.646 40.5215 145.033 40.4107C145.366 40.3 145.808 40.1893 146.251 40.1893C146.694 40.1893 147.082 40.2447 147.414 40.3554C147.746 40.4661 148.023 40.6322 148.244 40.8536C148.466 41.075 148.632 41.3518 148.742 41.6286C148.798 41.9054 148.908 42.2929 148.908 42.6804ZM147.801 42.7911C147.801 42.5697 147.746 42.2929 147.746 42.0715C147.691 41.85 147.58 41.6286 147.469 41.4625C147.358 41.2965 147.192 41.1304 146.971 41.075C146.749 40.9643 146.473 40.909 146.196 40.909C145.919 40.909 145.642 40.9643 145.421 41.0197C145.199 41.075 145.033 41.2411 144.923 41.4072C144.812 41.5732 144.701 41.7393 144.591 42.0161C144.535 42.2375 144.535 42.5143 144.535 42.7911C144.535 43.0679 144.591 43.2893 144.591 43.5661C144.646 43.7875 144.757 44.009 144.867 44.175C144.978 44.3411 145.144 44.5072 145.366 44.5625C145.587 44.6732 145.864 44.7286 146.141 44.7286C146.417 44.7286 146.694 44.6732 146.916 44.6179C147.137 44.5625 147.303 44.3965 147.414 44.2304C147.524 44.0643 147.635 43.8982 147.746 43.6215C147.801 43.2893 147.801 43.0679 147.801 42.7911ZM154.998 45.1715C154.998 45.2268 154.998 45.2268 154.942 45.2268L154.887 45.2822C154.887 45.2822 154.832 45.3375 154.721 45.3375C154.666 45.3375 154.555 45.3375 154.499 45.3375C154.389 45.3375 154.278 45.3375 154.278 45.3375C154.223 45.3375 154.167 45.3375 154.112 45.2822C154.057 45.2268 154.057 45.2268 154.057 45.2268L154.001 45.1715V42.4036C154.001 42.1268 153.946 41.9054 153.946 41.7393C153.891 41.5732 153.835 41.4072 153.724 41.2965C153.669 41.1857 153.503 41.075 153.392 41.0197C153.282 40.9643 153.06 40.9643 152.894 40.9643C152.673 40.9643 152.396 41.0197 152.119 41.1857C151.898 41.3518 151.621 41.5732 151.344 41.85V45.1715C151.344 45.2268 151.344 45.2268 151.289 45.2268L151.233 45.2822C151.233 45.2822 151.178 45.3375 151.067 45.3375C151.012 45.3375 150.901 45.3375 150.846 45.3375C150.791 45.3375 150.68 45.3375 150.624 45.3375C150.569 45.3375 150.514 45.3375 150.458 45.2822C150.403 45.2268 150.403 45.2268 150.403 45.2268L150.348 45.1715V40.4107C150.348 40.3554 150.348 40.3554 150.348 40.3554L150.403 40.3C150.403 40.3 150.458 40.2447 150.569 40.2447C150.624 40.2447 150.68 40.2447 150.791 40.2447C150.846 40.2447 150.957 40.2447 151.012 40.2447C151.067 40.2447 151.123 40.2447 151.123 40.3C151.178 40.3 151.178 40.3554 151.178 40.3554V40.4107V41.075C151.51 40.7429 151.787 40.5768 152.064 40.4107C152.396 40.2447 152.673 40.1893 152.949 40.1893C153.282 40.1893 153.614 40.2447 153.835 40.3554C154.057 40.4661 154.278 40.5768 154.444 40.7982C154.61 41.0197 154.721 41.1857 154.776 41.4625C154.832 41.684 154.832 41.9607 154.832 42.3482V45.2268H154.998V45.1715Z" fill="#323536"/>
<path d="M8.02678 25.7964C8.02678 21.5893 8.74643 18.6554 10.1857 16.9393C10.7393 16.275 11.4589 15.8321 12.4 15.4446C12.7321 19.5964 13.3411 23.7482 14.5036 28.0107C15.6661 32.2179 18.8214 32.2179 22.1982 31.2768C24.5786 30.6125 26.7375 30.5571 28.675 30.8893C28.3982 32.8821 27.9 34.3768 27.2357 35.3179C25.7964 37.3107 22.9179 38.3071 18.4893 38.3071C14.1161 38.3071 11.2375 37.2554 9.79821 35.2625C8.58036 33.4911 8.02678 30.3357 8.02678 25.7964ZM20.4268 14.5589C23.5268 14.7804 25.6857 15.6107 26.9036 16.9946C27.4018 17.5482 27.7339 18.2679 28.0661 19.1536C31.1661 19.2089 33.8786 19.8732 36.4804 21.0911C35.0411 12.7875 29.5607 8.41428 20.15 7.97143C20.15 6.42143 20.2054 4.81607 20.2054 2.93393C19.8732 0.996429 18.5446 0 16.2196 0H15.0571C15.0571 0 14.6696 0.0553571 13.95 0.0553571C12.6214 0.110714 11.9571 0.830357 11.9571 2.15893C11.9571 4.31786 12.0125 6.42143 12.0125 8.46964C4.04107 10.4071 0 16.1643 0 25.9071C0 32.3839 1.49464 37.2 4.42857 40.3C7.3625 43.4554 12.0679 45.0054 18.4339 45.0054C24.8 45.0054 29.45 43.4554 32.4393 40.3C33.9893 38.6946 35.0964 36.6464 35.8161 34.1554C37.0893 35.0964 38.2518 36.2036 39.4143 37.2554C40.3 38.2518 41.2411 38.3071 42.2929 37.3661C42.8464 36.8679 43.1786 36.5911 43.1786 36.5911L44.0089 35.7607C45.6696 34.1554 46.0018 32.55 44.8946 30.8893C38.5839 25.4643 31.3321 21.4232 21.5339 22.8625C20.9804 19.4857 20.6482 16.8286 20.4268 14.5589Z" fill="#C85249"/>
</g>
<defs>
<clipPath id="clip0">
<rect width="155" height="45.3929" fill="white"/>
</clipPath>
</defs>
</svg>
