<svg width="57" height="29" viewBox="0 0 57 29" fill="none" xmlns="http://www.w3.org/2000/svg">
<path d="M17.4059 0.899999V10H16.4569V1.732H12.0629L11.9589 4.774C11.9155 6.03067 11.8115 7.04467 11.6469 7.816C11.4909 8.57867 11.2482 9.15067 10.9189 9.532C10.5895 9.90467 10.1519 10.091 9.60586 10.091C9.37186 10.091 9.1292 10.0607 8.87786 10L8.95586 9.142C9.1032 9.17667 9.2462 9.194 9.38486 9.194C9.7662 9.194 10.0739 9.04233 10.3079 8.739C10.5505 8.43567 10.7325 7.96767 10.8539 7.335C10.9752 6.69367 11.0575 5.84867 11.1009 4.8L11.2309 0.899999H17.4059ZM24.4669 10.078C23.5656 10.078 22.7466 9.87867 22.0099 9.48C21.2819 9.07267 20.7099 8.518 20.2939 7.816C19.8866 7.114 19.6829 6.32533 19.6829 5.45C19.6829 4.57467 19.8866 3.786 20.2939 3.084C20.7099 2.382 21.2819 1.83167 22.0099 1.433C22.7466 1.02567 23.5656 0.822 24.4669 0.822C25.3682 0.822 26.1786 1.02133 26.8979 1.42C27.6259 1.81867 28.1979 2.37333 28.6139 3.084C29.0299 3.786 29.2379 4.57467 29.2379 5.45C29.2379 6.32533 29.0299 7.11833 28.6139 7.829C28.1979 8.531 27.6259 9.08133 26.8979 9.48C26.1786 9.87867 25.3682 10.078 24.4669 10.078ZM24.4669 9.22C25.1862 9.22 25.8362 9.05967 26.4169 8.739C26.9976 8.40967 27.4526 7.959 27.7819 7.387C28.1112 6.80633 28.2759 6.16067 28.2759 5.45C28.2759 4.73933 28.1112 4.098 27.7819 3.526C27.4526 2.94533 26.9976 2.49467 26.4169 2.174C25.8362 1.84467 25.1862 1.68 24.4669 1.68C23.7476 1.68 23.0932 1.84467 22.5039 2.174C21.9232 2.49467 21.4639 2.94533 21.1259 3.526C20.7966 4.098 20.6319 4.73933 20.6319 5.45C20.6319 6.16067 20.7966 6.80633 21.1259 7.387C21.4639 7.959 21.9232 8.40967 22.5039 8.739C23.0932 9.05967 23.7476 9.22 24.4669 9.22ZM37.3185 1.732H32.4695L32.4825 10H31.5335V0.899999H37.3185V1.732ZM41.7325 10.078C40.8312 10.078 40.0122 9.87867 39.2755 9.48C38.5475 9.07267 37.9755 8.518 37.5595 7.816C37.1522 7.114 36.9485 6.32533 36.9485 5.45C36.9485 4.57467 37.1522 3.786 37.5595 3.084C37.9755 2.382 38.5475 1.83167 39.2755 1.433C40.0122 1.02567 40.8312 0.822 41.7325 0.822C42.6339 0.822 43.4442 1.02133 44.1635 1.42C44.8915 1.81867 45.4635 2.37333 45.8795 3.084C46.2955 3.786 46.5035 4.57467 46.5035 5.45C46.5035 6.32533 46.2955 7.11833 45.8795 7.829C45.4635 8.531 44.8915 9.08133 44.1635 9.48C43.4442 9.87867 42.6339 10.078 41.7325 10.078ZM41.7325 9.22C42.4519 9.22 43.1019 9.05967 43.6825 8.739C44.2632 8.40967 44.7182 7.959 45.0475 7.387C45.3769 6.80633 45.5415 6.16067 45.5415 5.45C45.5415 4.73933 45.3769 4.098 45.0475 3.526C44.7182 2.94533 44.2632 2.49467 43.6825 2.174C43.1019 1.84467 42.4519 1.68 41.7325 1.68C41.0132 1.68 40.3589 1.84467 39.7695 2.174C39.1889 2.49467 38.7295 2.94533 38.3915 3.526C38.0622 4.098 37.8975 4.73933 37.8975 5.45C37.8975 6.16067 38.0622 6.80633 38.3915 7.387C38.7295 7.959 39.1889 8.40967 39.7695 8.739C40.3589 9.05967 41.0132 9.22 41.7325 9.22ZM0.696598 16.9H7.3526V17.719H1.6456V20.696H4.6226C5.69726 20.696 6.51193 20.917 7.0666 21.359C7.62993 21.801 7.9116 22.4423 7.9116 23.283C7.9116 24.1583 7.60826 24.83 7.0016 25.298C6.4036 25.766 5.54126 26 4.4146 26H0.696598V16.9ZM4.4016 25.233C5.24226 25.233 5.87493 25.0727 6.2996 24.752C6.73293 24.4313 6.9496 23.9547 6.9496 23.322C6.9496 22.698 6.73726 22.2343 6.3126 21.931C5.8966 21.619 5.2596 21.463 4.4016 21.463H1.6456V25.233H4.4016ZM13.5479 16.9C14.7092 16.9 15.6192 17.1773 16.2779 17.732C16.9366 18.2867 17.2659 19.0493 17.2659 20.02C17.2659 20.9907 16.9366 21.7533 16.2779 22.308C15.6192 22.854 14.7092 23.127 13.5479 23.127H11.1039V26H10.1419V16.9H13.5479ZM13.5219 22.282C14.4232 22.282 15.1122 22.087 15.5889 21.697C16.0656 21.2983 16.3039 20.7393 16.3039 20.02C16.3039 19.2833 16.0656 18.72 15.5889 18.33C15.1122 17.9313 14.4232 17.732 13.5219 17.732H11.1039V22.282H13.5219ZM25.6794 25.168V26H19.2444V16.9H25.4844V17.732H20.2064V20.969H24.9124V21.788H20.2064V25.168H25.6794ZM35.4188 16.9V26H34.4698V21.801H28.7758V26H27.8138V16.9H28.7758V20.956H34.4698V16.9H35.4188ZM46.7099 25.168V28.041H45.8129V26H37.8699L37.8569 28.041H36.9599L36.9729 25.168H37.4279C38.0259 25.1333 38.4419 24.661 38.6759 23.751C38.9099 22.8323 39.0529 21.5323 39.1049 19.851L39.2089 16.9H45.3449V25.168H46.7099ZM39.9629 19.942C39.9196 21.3287 39.8112 22.4727 39.6379 23.374C39.4732 24.2667 39.1916 24.8647 38.7929 25.168H44.3959V17.732H40.0409L39.9629 19.942ZM54.5216 23.569H49.4516L48.3596 26H47.3586L51.5186 16.9H52.4676L56.6276 26H55.6136L54.5216 23.569ZM54.1706 22.789L51.9866 17.901L49.8026 22.789H54.1706Z" fill="black"/>
</svg>
