<svg width="540" height="540" viewBox="0 0 540 540" fill="none" xmlns="http://www.w3.org/2000/svg">
<g clip-path="url(#clip0)">
<path d="M0 189.002C-0.0214233 136.701 21.6698 86.7379 59.895 51.0413C60.021 50.9243 60.138 50.7983 60.264 50.6723C108.438 5.87239 176.443 -10.6543 239.805 7.03928C303.167 24.7329 352.77 74.101 370.764 137.378C374.04 148.763 376.171 160.446 377.127 172.253C377.198 172.577 377.252 172.905 377.289 173.234C377.487 175.403 377.631 177.68 377.739 180.02H396V162.002C395.975 148.867 405.427 137.63 418.372 135.404C431.317 133.178 443.98 140.613 448.344 153.002H504C523.882 153.002 540 169.12 540 189.002C540 208.884 523.882 225.002 504 225.002H448.344C443.98 237.391 431.317 244.826 418.372 242.601C405.427 240.375 395.975 229.137 396 216.002V198.002H377.766V198.902C377.762 199.433 377.714 199.963 377.622 200.486C376.346 221.298 371.607 241.75 363.6 261.002H454.5C476.857 261.027 494.975 279.145 495 301.502C494.926 323.839 476.837 341.928 454.5 342.002H299.7C235.314 388.765 148.504 390.083 82.728 345.296L71.667 345.512C41.9686 346.179 18.1873 370.347 18 400.052C17.9929 414.543 23.7462 428.443 33.9928 438.689C44.2395 448.936 58.139 454.689 72.63 454.682H315V423.182C314.967 406.676 327.709 392.958 344.172 391.773C360.636 390.589 375.21 402.342 377.541 418.682H495C519.853 418.682 540 438.829 540 463.682C540 488.535 519.853 508.682 495 508.682H377.541C375.21 525.023 360.636 536.776 344.172 535.591C327.709 534.407 314.967 520.688 315 504.182V472.682H72.63C53.3658 472.687 34.8894 465.036 21.2676 451.415C7.64575 437.793 -0.00476074 419.316 0 400.052C0.21405 364.346 26.2414 334.042 61.506 328.439C22.3199 292.669 -0.00408936 242.059 0 189.002ZM522 189.002C522 179.061 513.941 171.002 504 171.002H450V207.002H504C513.941 207.002 522 198.943 522 189.002ZM414 216.002C414 220.973 418.029 225.002 423 225.002C427.971 225.002 432 220.973 432 216.002V162.002C432 157.032 427.971 153.002 423 153.002C418.029 153.002 414 157.032 414 162.002V216.002ZM522 463.682C522 448.771 509.912 436.682 495 436.682H378V490.682H495C509.912 490.682 522 478.594 522 463.682ZM333 504.182C333 511.638 339.044 517.682 346.5 517.682C353.956 517.682 360 511.638 360 504.182V423.182C360 415.726 353.956 409.682 346.5 409.682C339.044 409.682 333 415.726 333 423.182V504.182ZM23.778 145.55C36.0514 157.469 51.3672 165.783 68.049 169.58C72.7653 170.813 77.5415 171.805 82.359 172.55C86.997 173.275 90.2989 177.443 89.9434 182.124C89.5879 186.805 85.6943 190.426 81 190.442C80.5419 190.442 80.0845 190.406 79.632 190.334C74.1761 189.508 68.7684 188.39 63.432 186.986C47.5301 183.052 32.5997 175.91 19.557 165.998C18.5215 173.623 18.0014 181.308 18 189.002C18.0186 199.92 19.0977 210.81 21.222 221.519C24.8694 226.278 29.1029 230.556 33.822 234.254C71.217 264.035 143.478 269.354 213.66 247.538C278.1 227.63 330.3 188.885 349.884 146.36C350.847 144.326 351.765 142.049 352.656 139.628C346.293 118.417 335.819 98.6651 321.831 81.4973C315.674 94.985 307.278 107.333 297 118.019C267.851 147.397 231.698 168.865 191.952 180.398C176.682 185.198 161.023 188.655 145.152 190.73C144.77 190.781 144.385 190.805 144 190.802C139.251 190.801 135.32 187.11 135.02 182.37C134.72 177.631 138.155 173.474 142.866 172.874C157.703 170.937 172.341 167.705 186.615 163.217C223.39 152.609 256.861 132.818 283.878 105.707C294.761 94.6082 303.043 81.2299 308.124 66.5393C291.31 50.0852 271.252 37.3157 249.228 29.0453C255.258 61.4453 221.562 98.4893 171.108 114.158C156.695 118.754 141.668 121.139 126.54 121.232C96.84 121.232 63.216 110.378 56.097 81.5063C40.7631 100.229 29.73 122.093 23.778 145.55ZM74.241 62.3903C72.4346 67.617 72.2806 73.273 73.8 78.5903C73.989 79.1826 74.2144 79.7627 74.475 80.3273C90.162 118.694 164.817 97.0493 165.717 97.0043C207.585 84.0083 237.042 54.4613 231.156 30.2783L230.976 29.5943C230.113 26.988 228.804 24.5517 227.106 22.3943C214.614 19.4778 201.828 18.0042 189 18.0023C146.548 17.9597 105.615 33.7925 74.241 62.3903ZM470.421 317.315C474.658 313.148 477.03 307.445 477 301.502C477 289.076 466.926 279.002 454.5 279.002H355.014C346.024 295.614 334.593 310.783 321.102 324.002L454.5 324.002C460.494 324.023 466.24 321.61 470.421 317.315ZM343.071 263.189C328.975 277.747 312.975 290.332 295.506 300.602C292.742 302.32 289.267 302.412 286.416 300.844C283.565 299.275 281.783 296.29 281.755 293.036C281.727 289.782 283.458 286.767 286.281 285.149C369.342 235.514 361.188 191.225 358.479 168.149C332.883 209.36 281.079 245.603 218.979 264.809C189.711 274.034 159.225 278.818 128.538 279.002C94.3517 280.199 60.5323 271.629 31.041 254.297C33.1297 259.38 35.4727 264.354 38.061 269.201C38.196 269.444 38.313 269.705 38.43 269.966C43.5352 279.421 49.5196 288.373 56.304 296.705C90.189 326.576 158.49 332.525 226.827 311.402C227.97 311.087 229.068 310.709 230.184 310.331L231.138 310.016C234.193 308.997 237.559 309.685 239.969 311.82C242.379 313.956 243.467 317.215 242.822 320.37C242.177 323.526 239.899 326.097 236.844 327.116L235.944 327.422C234.495 327.908 233.082 328.385 231.876 328.709C204.646 337.243 176.297 341.672 147.762 341.849C133.219 341.896 118.707 340.485 104.445 337.637C145.632 361.061 194.692 366.345 239.923 352.229C285.153 338.113 322.499 305.863 343.053 263.171L343.071 263.189Z" fill="#59C3FF"/>
<path d="M164.845 53.5413L137.845 62.5413C133.123 64.112 128.021 61.5573 126.451 56.8353C124.88 52.1133 127.435 47.012 132.157 45.4413L159.157 36.4413C163.879 34.8706 168.98 37.4253 170.551 42.1473C172.121 46.8693 169.567 51.9706 164.845 53.5413Z" fill="#59C3FF"/>
</g>
<defs>
<clipPath id="clip0">
<rect width="540" height="540" fill="white" transform="matrix(-1 0 0 1 540 0)"/>
</clipPath>
</defs>
</svg>
