<svg width="126" height="53" viewBox="0 0 126 53" fill="none" xmlns="http://www.w3.org/2000/svg">
<path fill-rule="evenodd" clip-rule="evenodd" d="M11.957 38.6544C6.53462 38.6544 4.06676 40.1266 3.09352 43.208L0 53H105.388C110.81 53 113.278 51.5278 114.252 48.4464L117.345 38.6544H11.957ZM24.6439 24.9935H19.4301C11.2966 24.9935 17.2055 7.97739 24.053 7.97739H32.2908C33.6116 7.97739 35.9404 8.21705 37.0875 4.99871L38.8601 0H27.5636C21.4461 0 16.6841 2.12274 13.243 5.68346C7.29931 11.7778 5.28331 21.2959 6.70841 25.8495C8.064 30.0607 11.7484 32.834 17.5183 32.9025L22.0022 32.9367H27.5288L28.8844 28.9309C29.8924 26.0892 27.6331 24.9935 24.6439 24.9935ZM88.1131 17.9406L89.8163 12.4968H71.6375C68.6135 12.4968 67.2579 13.3185 66.7366 15.0304L65.0334 20.4742H83.2121C86.2361 20.4742 87.5917 19.6525 88.1131 17.9406ZM62.3222 27.5271L60.619 32.9709H78.7978C81.787 32.9709 83.1774 32.1492 83.6988 30.4373L85.4019 24.9935H67.2232C64.2339 24.9935 62.8783 25.8152 62.3222 27.5271ZM92.3537 5.47804L94.0568 0.0342372H75.8781C72.8541 0.0342372 71.4985 0.855943 70.9771 2.56783L69.2739 8.01163H87.4527C90.4419 8.01163 91.7975 7.18993 92.3537 5.47804ZM64.8943 6.57365C64.1297 1.50646 61.3837 0.0342372 54.7101 0.0342372H42.5446L35.4538 20.4742H39.9377C42.6141 20.4742 43.9697 20.5084 45.3948 16.7422L48.3492 7.97739H52.8679C56.7261 7.97739 55.8571 12.7364 53.9106 17.3585C52.1727 21.4328 49.1487 25.0278 45.499 25.0278H37.9564C34.9324 25.0278 33.5421 25.8495 32.9859 27.5614L31.109 33.0052H36.6356L42.0579 32.9709C46.8546 32.9367 50.7823 32.5943 55.3705 28.52C60.2367 24.1718 65.8676 13.0103 64.8943 6.57365ZM126 0H115.468L105.562 10.374C104.415 11.5724 103.233 12.7707 102.086 14.1744H101.982L106.918 0H98.3321L86.7575 32.9709H95.3429L99.0273 22.5969L102.851 19.4128L105.875 28.7939C106.813 31.7041 107.786 32.9709 109.872 32.9709H116.441L109.698 14.551L126 0Z" fill="#00B33C"/>
<path d="M11.4708 46.8032V49.508H9.94141V42.0099H12.9654C13.8344 42.0099 14.5295 42.2154 15.0162 42.6605C15.5028 43.1055 15.7809 43.6876 15.7809 44.4066C15.7809 45.1256 15.5375 45.7076 15.0162 46.1527C14.5295 46.5978 13.8344 46.8032 12.9654 46.8032H11.4708ZM11.4708 45.6391H12.9654C13.3825 45.6391 13.6953 45.5364 13.9386 45.2968C14.1472 45.0571 14.2515 44.7832 14.2515 44.4408C14.2515 44.0642 14.1472 43.7903 13.9386 43.5506C13.7301 43.311 13.3825 43.2083 12.9654 43.2083H11.4708V45.6391ZM20.1257 47.8988H17.4493L16.9279 49.508H15.3985L18.0054 42.0099H19.5695L22.1764 49.508H20.6471L20.1257 47.8988ZM17.8316 46.7005H19.7433L18.8049 43.7561H18.7701L17.8316 46.7005ZM27.7726 43.174H24.401V44.6462H25.7218C26.5908 44.6462 27.286 44.8859 27.8073 45.331C28.3287 45.7761 28.572 46.3581 28.572 47.0771C28.572 47.7961 28.3287 48.3782 27.8073 48.8233C27.286 49.2683 26.5908 49.508 25.7218 49.508H22.8021V42.0099H27.7726V43.174ZM24.401 45.8103V48.3439H25.7218C26.1389 48.3439 26.4865 48.207 26.6951 47.9673C26.9036 47.7276 27.0426 47.4195 27.0426 47.0429C27.0426 46.7005 26.9384 46.3924 26.6951 46.1527C26.4517 45.913 26.1389 45.7761 25.7218 45.7761H24.401V45.8103ZM35.7323 46.4266C35.7323 47.351 35.4542 48.1043 34.8633 48.7205C34.2724 49.3368 33.5077 49.6107 32.5693 49.6107C31.6308 49.6107 30.8661 49.3026 30.2752 48.7205C29.6843 48.1385 29.4062 47.351 29.4062 46.4266V45.0913C29.4062 44.1669 29.6843 43.4137 30.2752 42.7974C30.8661 42.1811 31.6308 41.9072 32.5693 41.9072C33.5077 41.9072 34.2724 42.2154 34.8633 42.7974C35.4542 43.3795 35.7671 44.1669 35.7671 45.0913V46.4266H35.7323ZM34.2029 45.0913C34.2029 44.5093 34.0639 44.03 33.7511 43.6534C33.4382 43.2767 33.0559 43.1055 32.5345 43.1055C32.0131 43.1055 31.596 43.2767 31.318 43.6534C31.0399 44.03 30.9009 44.5093 30.9009 45.0913V46.4608C30.9009 47.0429 31.0399 47.5565 31.318 47.8988C31.596 48.2754 32.0131 48.4466 32.5345 48.4466C33.0559 48.4466 33.473 48.2754 33.7511 47.8988C34.0291 47.5222 34.2029 47.0429 34.2029 46.4608V45.0913ZM41.9888 43.174H39.8338V49.508H38.3044V43.174H36.1494V42.0099H41.9541V43.174H41.9888ZM46.4032 47.8988H43.7268L43.2054 49.508H41.676L44.2829 42.0099H45.8471L48.454 49.508H46.9246L46.4032 47.8988ZM44.1091 46.7005H46.0209L45.0824 43.7561H45.0476L44.1091 46.7005ZM53.8763 46.2212H50.7133V48.3439H54.3977V49.508H49.1839V42.0099H54.3977V43.174H50.7133V45.0571H53.8763V46.2212ZM57.3174 42.0099L59.2639 47.5222H59.2986L61.2451 42.0099H63.2264V49.508H61.697V47.2825L61.836 43.9615H61.8013L59.7505 49.508H58.7425L56.7265 43.9957H56.6917L56.8308 47.2825V49.508H55.3014V42.0099H57.3174ZM67.3279 49.508V42.0099H69.9C70.8037 42.0099 71.4989 42.1811 71.9855 42.5235C72.4722 42.8659 72.7502 43.3794 72.7502 44.0642C72.7502 44.4066 72.646 44.7147 72.4722 44.9886C72.2984 45.2625 72.0203 45.468 71.6727 45.6049C72.1246 45.7076 72.4722 45.913 72.7155 46.2212C72.9588 46.5293 73.0631 46.9059 73.0631 47.3168C73.0631 48.0358 72.8197 48.5836 72.3331 48.9602C71.8465 49.3368 71.1861 49.508 70.2824 49.508H67.3279ZM68.8573 45.1598H69.9695C70.3866 45.1598 70.6995 45.0913 70.908 44.9201C71.1166 44.749 71.2209 44.5093 71.2209 44.2012C71.2209 43.8588 71.1166 43.5849 70.8733 43.4479C70.6647 43.2767 70.3171 43.2083 69.9 43.2083H68.8573V45.1598ZM68.8573 46.1869V48.3439H70.2476C70.6647 48.3439 70.9428 48.2412 71.1861 48.07C71.4294 47.8988 71.4989 47.6249 71.4989 47.3168C71.4989 46.9402 71.3946 46.6663 71.2209 46.4608C71.0471 46.2554 70.769 46.1869 70.3519 46.1869H68.8573ZM79.9453 46.9402C79.98 47.7619 79.7367 48.4124 79.2153 48.8917C78.694 49.371 77.9988 49.6107 77.0603 49.6107C76.1566 49.6107 75.3919 49.3368 74.8357 48.7548C74.2796 48.1727 73.9668 47.4195 73.9668 46.5293V45.0571C73.9668 44.1327 74.2449 43.4137 74.801 42.8316C75.3571 42.2496 76.0871 41.9415 76.9908 41.9415C77.9293 41.9415 78.6592 42.1811 79.1806 42.6605C79.702 43.1398 79.98 43.7903 79.9453 44.612V44.6462H78.4506C78.4506 44.1669 78.3464 43.7903 78.1031 43.5164C77.8597 43.2425 77.4774 43.1398 76.9908 43.1398C76.5389 43.1398 76.1566 43.311 75.9133 43.6876C75.6352 44.0642 75.4962 44.5093 75.4962 45.0913V46.5978C75.4962 47.1798 75.6352 47.6249 75.9133 48.0015C76.1913 48.3782 76.5737 48.5493 77.0603 48.5493C77.5469 48.5493 77.8945 48.4124 78.1031 48.1727C78.3464 47.9331 78.4506 47.5565 78.4506 47.0429H79.9453V46.9402ZM85.7152 46.2212H82.5522V48.3439H86.2366V49.508H81.0228V42.0099H86.2366V43.174H82.5522V45.0571H85.7152V46.2212ZM92.1455 43.174H88.7044V49.508H87.1751V42.0099H92.1455V43.174ZM99.2015 51.3568H97.8112V49.508H93.1535V51.3568H91.7632L91.6589 48.3439H92.2498C92.5279 48.1043 92.7712 47.7619 92.9797 47.2483C93.1883 46.769 93.2926 46.0158 93.3273 45.0571L93.5359 41.9757H98.4716V48.3097H99.3753L99.2015 51.3568ZM94.7872 45.0913C94.7524 45.8446 94.6482 46.4951 94.5091 47.0086C94.3701 47.5564 94.1615 48.0015 93.9182 48.3439H96.9075V43.174H94.9262L94.7872 45.0913ZM104.381 47.8988H101.704L101.183 49.508H99.6534L102.26 42.0099H103.824L106.431 49.508H104.902L104.381 47.8988ZM102.087 46.7005H103.998L103.06 43.7561H103.025L102.087 46.7005ZM108.656 46.9059H107.127V42.0099H108.656V46.9059ZM108.656 49.508H107.127V48.207H108.656V49.508Z" fill="white"/>
</svg>
