<svg width="100" height="100" viewBox="0 0 100 100" fill="none" xmlns="http://www.w3.org/2000/svg">
<path d="M78.125 60.9375L88.7551 71.5676C89.8433 72.6558 90.7065 73.9477 91.2955 75.3695C91.8844 76.7913 92.1875 78.3151 92.1875 79.8541V89.4531C92.1875 91.0071 91.5702 92.4975 90.4713 93.5963C89.3725 94.6952 87.8821 95.3125 86.3281 95.3125H81.25V84.375H78.125V60.9375Z" fill="#FA5D3F"/>
<path d="M23.4375 90.625V59.375L40.625 48.4375H59.375L76.5625 59.375V90.625H23.4375Z" fill="#FA5D3F"/>
<path d="M59.375 48.4375L50 57.8125L40.625 48.4375L42.1875 42.1875H57.8125L59.375 48.4375Z" fill="#FFD4CF"/>
<path d="M58.4064 44.559L57.8136 42.1875H42.1887L41.5859 44.5986L46.8457 47.2285C47.8274 47.7194 48.9104 47.9736 50.008 47.9708C51.1056 47.9681 52.1874 47.7083 53.1666 47.2125L58.4064 44.559Z" fill="#FBB8B0"/>
<path d="M64.8438 23.4375H62.5V17.1875H37.5V23.4375H35.1562C34.1202 23.4375 33.1267 23.8491 32.3941 24.5816C31.6616 25.3142 31.25 26.3077 31.25 27.3438V28.9063C31.25 29.9423 31.6616 30.9358 32.3941 31.6684C33.1267 32.401 34.1202 32.8125 35.1562 32.8125H37.5V35.4412C37.5 36.5294 37.803 37.596 38.375 38.5217C38.9471 39.4473 39.7656 40.1954 40.7389 40.682L48.2422 44.4336C48.7876 44.7063 49.3892 44.8476 49.999 44.846C50.6088 44.8445 51.2097 44.7003 51.7537 44.4248L59.2879 40.6096C60.2541 40.1202 61.0658 39.3727 61.6329 38.4498C62.1999 37.527 62.5001 36.4651 62.5 35.382V32.8125H64.8438C65.8798 32.8125 66.8733 32.401 67.6059 31.6684C68.3385 30.9358 68.75 29.9423 68.75 28.9063V27.3438C68.75 26.3077 68.3385 25.3142 67.6059 24.5816C66.8733 23.8491 65.8798 23.4375 64.8438 23.4375Z" fill="#FFD4CF"/>
<path d="M42.1875 25H45.3125V28.125H42.1875V25Z" fill="black"/>
<path d="M54.6875 25H57.8125V28.125H54.6875V25Z" fill="black"/>
<path d="M50 39.0625C47.3715 39.0625 45.3125 37.3467 45.3125 35.1562H48.4375C48.4375 35.4316 49.0307 35.9375 50 35.9375C50.9693 35.9375 51.5625 35.4316 51.5625 35.1562H54.6875C54.6875 37.3467 52.6285 39.0625 50 39.0625Z" fill="black"/>
<path d="M45.7031 4.6875H54.2969C56.8869 4.6875 59.3708 5.71638 61.2022 7.54779C63.0336 9.3792 64.0625 11.8631 64.0625 14.4531V17.1875H35.9375V14.4531C35.9375 11.8631 36.9664 9.3792 38.7978 7.54779C40.6292 5.71638 43.1131 4.6875 45.7031 4.6875Z" fill="#FA5D3F"/>
<path d="M57.9895 22.5139L54.3336 20.0766C53.0503 19.221 51.5424 18.7645 50 18.7645C48.4576 18.7645 46.9497 19.221 45.6664 20.0766L42.0105 22.5139C41.4223 22.9061 40.7386 23.1313 40.0324 23.1654C39.3262 23.1995 38.6239 23.0414 38.0006 22.7077C37.3772 22.3741 36.8561 21.8776 36.4927 21.271C36.1294 20.6645 35.9375 19.9707 35.9375 19.2637V17.1875L42.4119 13.5906C44.7331 12.3012 47.3445 11.6245 49.9998 11.6245C52.6551 11.6245 55.2665 12.3012 57.5877 13.5906L64.0625 17.1875V19.2637C64.0625 19.9707 63.8706 20.6645 63.5073 21.271C63.1439 21.8776 62.6228 22.3741 61.9994 22.7077C61.3761 23.0414 60.6738 23.1995 59.9676 23.1654C59.2614 23.1313 58.5777 22.9061 57.9895 22.5139Z" fill="#FAC850"/>
<path d="M21.875 54.6875H78.125V95.3125H21.875V54.6875Z" fill="#FAC850"/>
<path d="M25 84.375H18.75V95.3125H35.9375C35.9375 92.4117 34.7852 89.6297 32.734 87.5785C30.6828 85.5273 27.9008 84.375 25 84.375Z" fill="#FFD4CF"/>
<path d="M43.75 54.6875H56.25V68.75H43.75V54.6875Z" fill="#FA7D29"/>
<path d="M43.75 85.9375H56.25V95.3125H43.75V85.9375Z" fill="#FA7D29"/>
<path d="M21.875 60.9375L11.2449 71.5676C10.1567 72.6558 9.29349 73.9477 8.70455 75.3695C8.11561 76.7913 7.8125 78.3151 7.8125 79.8541V89.4531C7.8125 91.0071 8.42983 92.4975 9.52867 93.5963C10.6275 94.6952 12.1179 95.3125 13.6719 95.3125H18.75V84.375H21.875V60.9375Z" fill="#FA5D3F"/>
<path d="M75 84.375H81.25V95.3125H64.0625C64.0625 92.4117 65.2148 89.6297 67.266 87.5785C69.3172 85.5273 72.0992 84.375 75 84.375Z" fill="#FFD4CF"/>
<path d="M26.5625 59.375H29.6875V62.5H26.5625V59.375Z" fill="black"/>
<path d="M32.8125 59.375H39.0625V62.5H32.8125V59.375Z" fill="black"/>
<path d="M26.5625 65.625H39.0625V68.75H26.5625V65.625Z" fill="black"/>
<path d="M66.4062 60.9375H71.875V64.8438C71.875 65.8798 71.4635 66.8733 70.7309 67.6059C69.9983 68.3385 69.0048 68.75 67.9688 68.75H62.5V64.8438C62.5 63.8077 62.9115 62.8142 63.6441 62.0816C64.3767 61.349 65.3702 60.9375 66.4062 60.9375Z" fill="#FFFFFE"/>
<path d="M67.9688 70.3125H62.5C62.0856 70.3125 61.6882 70.1479 61.3951 69.8549C61.1021 69.5618 60.9375 69.1644 60.9375 68.75V64.8438C60.9392 63.3939 61.5159 62.0038 62.5411 60.9786C63.5663 59.9534 64.9564 59.3767 66.4062 59.375H71.875C72.2894 59.375 72.6868 59.5396 72.9799 59.8326C73.2729 60.1257 73.4375 60.5231 73.4375 60.9375V64.8438C73.4358 66.2936 72.8591 67.6837 71.8339 68.7089C70.8087 69.7341 69.4186 70.3108 67.9688 70.3125ZM64.0625 67.1875H67.9688C68.5901 67.1868 69.1859 66.9397 69.6253 66.5003C70.0647 66.0609 70.3118 65.4651 70.3125 64.8438V62.5H66.4062C65.7849 62.5007 65.1891 62.7478 64.7497 63.1872C64.3103 63.6266 64.0632 64.2224 64.0625 64.8438V67.1875Z" fill="black"/>
<path d="M89.8602 70.4629L83.9174 64.5201L81.7077 66.7299L87.6504 72.6725C88.5965 73.6134 89.3465 74.7326 89.857 75.9653C90.3676 77.1981 90.6287 78.5198 90.625 79.8541V89.4531C90.6237 90.5923 90.1706 91.6845 89.3651 92.49C88.5595 93.2956 87.4674 93.7487 86.3282 93.75H82.8125V85.9375H85.9375V82.8125H79.6875V54.6875C79.6875 54.2731 79.5229 53.8757 79.2299 53.5826C78.9369 53.2896 78.5394 53.125 78.125 53.125H69.6516L60.7397 47.4537L59.4463 42.2805L59.9932 42.0033C61.2198 41.3868 62.2503 40.4407 62.9691 39.2712C63.6879 38.1016 64.0666 36.7548 64.0625 35.382V34.375H64.8438C66.2937 34.3733 67.6837 33.7966 68.709 32.7714C69.7342 31.7462 70.3109 30.3561 70.3125 28.9062V27.3438C70.3109 25.9143 69.7503 24.5422 68.7505 23.5206C67.7507 22.499 66.391 21.9089 64.962 21.8764C65.3977 21.0745 65.6257 20.1763 65.625 19.2637V14.4531C65.6216 11.4498 64.427 8.5704 62.3033 6.4467C60.1796 4.323 57.3003 3.12841 54.2969 3.125H45.7032C42.6998 3.12841 39.8204 4.323 37.6967 6.4467C35.573 8.5704 34.3785 11.4498 34.375 14.4531V19.2637C34.3747 20.1764 34.603 21.0746 35.0391 21.8764C33.6099 21.9086 32.25 22.4986 31.25 23.5203C30.25 24.5419 29.6892 25.9142 29.6875 27.3438V28.9062C29.6892 30.3561 30.2659 31.7462 31.2911 32.7714C32.3164 33.7966 33.7064 34.3733 35.1563 34.375H35.9375V35.4412C35.9329 36.8205 36.3148 38.1736 37.0399 39.3469C37.7651 40.5202 38.8045 41.4669 40.0403 42.0795L40.5415 42.3301L39.2604 47.4537L30.3485 53.125H21.875C21.4606 53.125 21.0632 53.2896 20.7702 53.5826C20.4772 53.8757 20.3125 54.2731 20.3125 54.6875V60.2902L14.5202 66.0826L16.7299 68.2924L20.3125 64.7098V82.8125H14.0625V85.9375H17.1875V93.75H13.6719C12.5327 93.7487 11.4405 93.2956 10.635 92.49C9.82946 91.6845 9.37634 90.5923 9.37505 89.4531V79.8541C9.37143 78.5198 9.63244 77.1981 10.143 75.9654C10.6536 74.7327 11.4035 73.6134 12.3495 72.6725L13.6047 71.4174L11.3954 69.2076L10.1399 70.4629C8.90277 71.6933 7.92198 73.1569 7.25429 74.7689C6.58659 76.3809 6.24526 78.1093 6.25005 79.8541V89.4531C6.25227 91.4208 7.03493 93.3073 8.42632 94.6987C9.81771 96.0901 11.7042 96.8728 13.6719 96.875H86.3282C88.2959 96.8728 90.1824 96.0901 91.5738 94.6987C92.9652 93.3073 93.7478 91.4208 93.75 89.4531V79.8541C93.7548 78.1093 93.4135 76.3809 92.7458 74.7689C92.0781 73.1569 91.0973 71.6933 89.8602 70.4629ZM45.3125 56.25H54.6875V67.1875H45.3125V56.25ZM56.8973 53.125L59.5936 50.4297L63.8307 53.125H56.8973ZM38.7379 21.3301C38.3615 21.1329 38.0467 20.8356 37.8283 20.471C37.6099 20.1064 37.4963 19.6887 37.5 19.2637V18.1068L43.1706 14.9564C45.2572 13.7883 47.6086 13.1748 50 13.1748C52.3914 13.1748 54.7429 13.7883 56.8295 14.9564L62.5 18.1068V19.2637C62.5 19.6879 62.3849 20.1041 62.1669 20.468C61.9489 20.8319 61.6362 21.1298 61.2622 21.3299C60.8882 21.5301 60.4669 21.625 60.0432 21.6045C59.6195 21.584 59.2093 21.449 58.8563 21.2137L55.2004 18.7766C53.6616 17.7467 51.8517 17.1969 50 17.1969C48.1484 17.1969 46.3385 17.7467 44.7997 18.7766L41.1438 21.2137C40.7923 21.4525 40.3817 21.5897 39.9572 21.6102C39.5328 21.6308 39.1109 21.5338 38.7379 21.3301ZM67.1875 27.3438V28.9062C67.1869 29.5276 66.9397 30.1234 66.5003 30.5628C66.0609 31.0022 65.4652 31.2493 64.8438 31.25H64.0625V25H64.8438C65.4652 25.0007 66.0609 25.2478 66.5003 25.6872C66.9397 26.1266 67.1869 26.7224 67.1875 27.3438ZM45.7032 6.25H54.2969C56.4718 6.25243 58.5569 7.11747 60.0947 8.65532C61.6326 10.1932 62.4976 12.2783 62.5 14.4531V14.5312L58.3469 12.2248C55.7967 10.797 52.9228 10.0472 50 10.0472C47.0773 10.0472 44.2034 10.797 41.6532 12.2248L37.5 14.5312V14.4531C37.5025 12.2783 38.3675 10.1932 39.9054 8.65532C41.4432 7.11747 43.5283 6.25243 45.7032 6.25ZM35.1563 31.25C34.5349 31.2493 33.9392 31.0022 33.4998 30.5628C33.0604 30.1234 32.8132 29.5276 32.8125 28.9062V27.3438C32.8132 26.7224 33.0604 26.1266 33.4998 25.6872C33.9392 25.2478 34.5349 25.0007 35.1563 25H35.9375V31.25H35.1563ZM39.0625 35.4412V24.6773C40.3971 24.8708 41.7561 24.5632 42.8772 23.8139L46.5331 21.3766C47.5589 20.6901 48.7655 20.3237 49.9999 20.3237C51.2342 20.3237 52.4408 20.6901 53.4666 21.3766L57.1225 23.8139C58.2439 24.563 59.6029 24.8705 60.9375 24.6771V35.382C60.9399 36.1768 60.7207 36.9565 60.3046 37.6336C59.8884 38.3108 59.2918 38.8585 58.5817 39.2154L51.0479 43.0305C50.7213 43.195 50.3608 43.2812 49.995 43.2821C49.6293 43.2831 49.2684 43.1988 48.9409 43.0359L41.4379 39.2846C40.7225 38.9299 40.1207 38.3818 39.7008 37.7025C39.281 37.0232 39.0599 36.2398 39.0625 35.4412ZM47.5432 45.8318C48.3073 46.2119 49.1495 46.4086 50.0029 46.4064C50.8563 46.4043 51.6974 46.2032 52.4596 45.8193L56.5872 43.7295L57.6448 47.9594L52.4778 53.125H47.5223L42.3553 47.9582L43.4045 43.7617L47.5432 45.8318ZM40.4065 50.4295L43.1028 53.125H36.1692L40.4065 50.4295ZM23.4375 56.25H42.1875V68.75C42.1875 69.1644 42.3522 69.5618 42.6452 69.8549C42.9382 70.1479 43.3356 70.3125 43.75 70.3125H56.25C56.6644 70.3125 57.0619 70.1479 57.3549 69.8549C57.6479 69.5618 57.8125 69.1644 57.8125 68.75V56.25H76.5625V82.8125H75C71.9566 82.8166 69.0188 83.9292 66.7361 85.9422C64.4535 87.9553 62.9823 90.7309 62.5977 93.75H57.8125V85.9375C57.8125 85.5231 57.6479 85.1257 57.3549 84.8326C57.0619 84.5396 56.6644 84.375 56.25 84.375H43.75C43.3356 84.375 42.9382 84.5396 42.6452 84.8326C42.3522 85.1257 42.1875 85.5231 42.1875 85.9375V93.75H37.4024C37.0178 90.7309 35.5466 87.9553 33.264 85.9422C30.9813 83.9292 28.0435 82.8166 25 82.8125H23.4375V56.25ZM20.3125 93.75V85.9375H25C27.2149 85.9403 29.3574 86.726 31.0491 88.1555C32.7407 89.5851 33.8726 91.5667 34.2448 93.75H20.3125ZM45.3125 93.75V87.5H54.6875V93.75H45.3125ZM79.6875 93.75H65.7553C66.1274 91.5667 67.2593 89.5851 68.951 88.1555C70.6427 86.726 72.7852 85.9403 75 85.9375H79.6875V93.75Z" fill="black"/>
</svg>
