<svg width="112" height="64" viewBox="0 0 112 64" fill="none" xmlns="http://www.w3.org/2000/svg">
<g clip-path="url(#clip0)">
<path d="M34.7904 32.6815C33.2908 32.6798 31.853 32.0787 30.7926 31.01C29.7321 29.9413 29.1356 28.4923 29.1339 26.981H20.2227C20.227 30.8733 21.7633 34.6049 24.4943 37.3572C27.2254 40.1095 30.9282 41.6577 34.7904 41.6621V32.6815Z" fill="#0F68AA"/>
<path d="M111.95 0.00439453H103.039V8.61777H111.95V0.00439453Z" fill="#00AEEF"/>
<path d="M29.1356 26.981C29.1355 23.0873 27.6007 19.353 24.8687 16.5998C22.1367 13.8465 18.4313 12.2998 14.5677 12.2998C10.7041 12.2998 6.99872 13.8466 4.26675 16.5999C1.53477 19.3532 -2.08866e-05 23.0874 2.13182e-10 26.9811H8.9113C8.9113 26.2325 9.05761 25.4912 9.34188 24.7996C9.62614 24.108 10.0428 23.4796 10.5681 22.9502C11.0933 22.4209 11.7169 22.001 12.4032 21.7145C13.0894 21.428 13.825 21.2806 14.5678 21.2806C15.3106 21.2806 16.0462 21.428 16.7325 21.7145C17.4187 22.001 18.0423 22.4209 18.5676 22.9502C19.0928 23.4796 19.5095 24.108 19.7937 24.7996C20.078 25.4912 20.2243 26.2325 20.2243 26.9811H29.1356L29.1356 26.981Z" fill="url(#paint0_linear)"/>
<path d="M55.5255 12.2998V13.4519C53.3109 12.5115 50.8998 12.1377 48.5071 12.3641C46.1144 12.5904 43.8144 13.4098 41.8122 14.7492C39.8099 16.0885 38.1675 17.9063 37.0314 20.0405C35.8953 22.1748 35.3008 24.5591 35.3008 26.981C35.3008 29.4029 35.8953 31.7872 37.0314 33.9214C38.1675 36.0556 39.8099 37.8734 41.8122 39.2128C43.8144 40.5522 46.1144 41.3716 48.5071 41.5979C50.8998 41.8243 53.3109 41.4505 55.5255 40.51V41.6622H64.4368V12.2998H55.5255ZM49.869 32.6814C48.7502 32.6814 47.6566 32.3471 46.7264 31.7207C45.7962 31.0943 45.0712 30.204 44.643 29.1624C44.2149 28.1207 44.1029 26.9745 44.3212 25.8687C44.5395 24.7629 45.0782 23.7472 45.8693 22.9499C46.6604 22.1527 47.6683 21.6098 48.7656 21.3898C49.8628 21.1699 51.0002 21.2828 52.0338 21.7143C53.0673 22.1458 53.9508 22.8765 54.5723 23.814C55.1938 24.7514 55.5255 25.8536 55.5255 26.9811C55.5238 28.4924 54.9273 29.9413 53.8668 31.01C52.8064 32.0786 51.3687 32.6797 49.869 32.6814L49.869 32.6814Z" fill="#00AEEF"/>
<path d="M80.2765 0.00439453H71.3652V41.662H80.2765V0.00439453Z" fill="#00AEEF"/>
<path d="M96.1124 0H87.2012V41.662H96.1124V0Z" fill="#00AEEF"/>
<path d="M111.95 12.2998H103.039V41.6622H111.95V12.2998Z" fill="#00AEEF"/>
<path d="M20.2243 0.00634766V26.9828C20.2228 28.4918 19.6277 29.9387 18.5693 31.0062C17.5109 32.0737 16.0756 32.6747 14.5782 32.6774C13.0808 32.68 11.6435 32.0841 10.5814 31.0204C9.51925 29.9566 8.91905 28.5118 8.91235 27.0028C8.91442 26.9946 8.91608 26.9863 8.91732 26.9779C8.91731 26.908 8.88976 26.841 8.84071 26.7916C8.79167 26.7421 8.72515 26.7144 8.65579 26.7144H0.261492C0.227152 26.7144 0.193147 26.7212 0.16142 26.7344C0.129693 26.7477 0.100865 26.7671 0.0765836 26.7916C0.0523019 26.816 0.0330418 26.8451 0.0199031 26.8771C0.00676445 26.909 4.67323e-06 26.9433 9.84513e-06 26.9779C9.84513e-06 26.9796 0.000895827 26.9811 0.000974581 26.9828H9.84513e-06C-0.00221584 28.9122 0.372948 30.8231 1.10405 32.6063C1.83515 34.3894 2.90785 36.0099 4.26081 37.375C5.61377 38.7401 7.22046 39.823 8.98901 40.5619C10.7576 41.3007 12.6533 41.681 14.5678 41.681C16.4823 41.681 18.378 41.3007 20.1465 40.5619C21.9151 39.823 23.5217 38.7401 24.8747 37.375C26.2277 36.0099 27.3004 34.3894 28.0315 32.6063C28.7626 30.8231 29.1377 28.9122 29.1355 26.9828V0.00634766H20.2243Z" fill="#00AEEF"/>
<path d="M4.01081 60.2075C4.36124 60.2138 4.70546 60.1138 4.9988 59.9205C5.28291 59.7325 5.50012 59.4581 5.61886 59.1371L7.20912 59.3644C7.0518 60.0686 6.6432 60.69 6.06099 61.1105C5.4627 61.5378 4.74397 61.7601 4.01081 61.7445C3.42397 61.7527 2.84416 61.615 2.32268 61.3437C1.81579 61.0743 1.39581 60.6645 1.11215 60.1627C0.814239 59.6092 0.658203 58.9894 0.658203 58.3597C0.658203 57.73 0.814239 57.1102 1.11215 56.5567C1.39588 56.0549 1.81588 55.6452 2.32276 55.3757C2.84427 55.1044 3.42406 54.9668 4.01089 54.9749C4.74405 54.9593 5.46278 55.1816 6.06107 55.6089C6.64323 56.0294 7.05183 56.6508 7.2092 57.355L5.61894 57.5823C5.5002 57.2613 5.28299 56.9869 4.99887 56.7989C4.70554 56.6056 4.36132 56.5056 4.01089 56.5119C3.77677 56.5044 3.54368 56.5463 3.32655 56.6348C3.10942 56.7234 2.91304 56.8567 2.74998 57.0262C2.43049 57.3958 2.2545 57.8695 2.2545 58.3597C2.2545 58.8499 2.43049 59.3235 2.74998 59.6932C2.913 59.8627 3.10936 59.996 3.32648 60.0846C3.5436 60.1731 3.77669 60.215 4.01081 60.2075Z" fill="#00AEEF"/>
<path d="M14.9121 55.0709V61.649H13.3693V56.6257H10.8831C10.8831 56.9925 10.8722 57.3473 10.8504 57.6901C10.8286 58.0329 10.7901 58.3857 10.7348 58.7487C10.6848 59.0858 10.6134 59.4194 10.5211 59.7473C10.4373 60.0422 10.3239 60.3277 10.1828 60.5995C10.0609 60.8422 9.89942 61.0625 9.70523 61.2514C9.52024 61.4236 9.29768 61.5495 9.05551 61.6191C8.78284 61.6956 8.49608 61.7058 8.21875 61.6489V60.0941C8.65385 60.1658 8.9545 59.9465 9.1207 59.4363C9.26307 58.9978 9.33822 58.1765 9.34613 56.9725C9.34613 56.7534 9.34416 56.4045 9.34023 55.926V55.0708L14.9121 55.0709Z" fill="#00AEEF"/>
<path d="M22.8453 55.0708L20.1156 62.3067C19.8387 63.0562 19.3877 63.5605 18.7627 63.8196C18.1377 64.0787 17.4336 64.0588 16.6503 63.7597L17.0123 62.4202C17.1417 62.462 17.2749 62.4911 17.41 62.507C17.5388 62.5207 17.669 62.5137 17.7957 62.4861C17.9204 62.4607 18.038 62.4075 18.1398 62.3305C18.251 62.2387 18.3394 62.122 18.3979 61.9896C18.4768 61.8162 18.524 61.6298 18.5373 61.4395L16.1875 55.0708H17.9557L19.5104 59.9386L21.0769 55.0708H22.8453Z" fill="#00AEEF"/>
<path d="M33.3072 55.0708L30.2395 58.3538L33.3072 61.6428H31.6874L29.3198 59.2808V61.6488H27.7473V59.2808L25.3796 61.6428H23.7598L26.8275 58.3538L23.7598 55.0708H25.3796L27.7473 57.4328V55.0708H29.3197V57.4328L31.6874 55.0708H33.3072Z" fill="#00AEEF"/>
<path d="M37.632 55.9141C38.1746 55.9072 38.7116 56.0258 39.2016 56.2608C39.6661 56.4848 40.0595 56.8348 40.3378 57.2715C40.6256 57.7243 40.7743 58.2527 40.7651 58.7904C40.7726 59.3331 40.6254 59.8666 40.3408 60.3274C40.064 60.7761 39.6698 61.1392 39.2015 61.3768C38.7151 61.6243 38.1769 61.7504 37.632 61.7446C37.2159 61.7459 36.8029 61.6719 36.4126 61.5262C36.0387 61.3901 35.692 61.1876 35.389 60.9283C35.0861 60.6622 34.8434 60.3336 34.6776 59.9647C34.5117 59.5959 34.4265 59.1954 34.4277 58.7904C34.4277 58.0369 34.4475 57.1678 34.4871 56.1831C34.5069 55.2224 34.7778 54.4938 35.3 53.9974C35.8221 53.501 36.5362 53.2528 37.4421 53.2529C37.5527 53.2529 37.7337 53.2549 37.985 53.2589C38.2362 53.2629 38.4241 53.2638 38.5487 53.2618C38.6733 53.2599 38.8375 53.2529 39.0412 53.2409C39.2353 53.2301 39.4285 53.2071 39.6198 53.1721C39.8016 53.1383 39.9915 53.0935 40.1895 53.0376V54.4728C39.9916 54.5286 39.8027 54.5735 39.6227 54.6073C39.4286 54.6428 39.2323 54.6658 39.0353 54.6761C38.8237 54.6881 38.6635 54.6961 38.5547 54.7001C38.4459 54.7041 38.254 54.7031 37.9791 54.697C37.7041 54.691 37.5251 54.6881 37.4421 54.6881C36.9318 54.6881 36.55 54.8027 36.2969 55.0319C36.0437 55.2613 35.9092 55.645 35.8934 56.183C35.8934 56.2549 35.8914 56.3107 35.8875 56.3505C36.4229 56.0582 37.0232 55.9081 37.632 55.9141ZM39.2401 58.7904C39.2451 58.5908 39.2065 58.3925 39.127 58.2095C39.0476 58.0266 38.9292 57.8635 38.7802 57.7318C38.4673 57.4439 38.0557 57.2895 37.6321 57.3013C37.2112 57.2899 36.8025 57.4443 36.4928 57.7318C36.3469 57.8665 36.2304 58.0303 36.1507 58.2128C36.071 58.3953 36.0299 58.5925 36.0299 58.7918C36.0299 58.9912 36.071 59.1884 36.1507 59.3709C36.2304 59.5534 36.3469 59.7172 36.4928 59.8518C36.8098 60.1277 37.2147 60.2795 37.6336 60.2795C38.0524 60.2795 38.4573 60.1277 38.7744 59.8518C38.9211 59.7174 39.0384 59.5535 39.1186 59.3707C39.1988 59.1879 39.2402 58.9903 39.2401 58.7904Z" fill="#00AEEF"/>
<path d="M47.5473 55.0706H49.1257V61.6486H47.5473L47.5058 60.4526C47.3315 60.8457 47.0442 61.1769 46.6809 61.4035C46.2746 61.6418 45.8099 61.76 45.34 61.7443C44.9071 61.7584 44.476 61.6823 44.0737 61.5207C43.6714 61.3592 43.3065 61.1156 43.002 60.8053C42.3888 60.1796 42.0822 59.3644 42.0822 58.3596C42.0775 57.8876 42.161 57.419 42.3285 56.9782C42.479 56.577 42.7104 56.2115 43.0079 55.9048C43.303 55.6076 43.6554 55.3746 44.0434 55.2202C44.4557 55.0546 44.8961 54.9713 45.34 54.9749C45.8117 54.9598 46.2782 55.0779 46.6869 55.3158C47.0536 55.5416 47.345 55.8727 47.5237 56.2666L47.5473 55.0706ZM44.2361 59.7229C44.4031 59.8881 44.602 60.0169 44.8205 60.1013C45.0389 60.1857 45.2723 60.2238 45.506 60.2133C45.7429 60.2229 45.979 60.1817 46.1989 60.0926C46.4188 60.0034 46.6174 59.8683 46.7818 59.6962C47.0954 59.3198 47.2658 58.8433 47.2626 58.3518C47.2593 57.8604 47.0826 57.3862 46.764 57.0141C46.6012 56.8455 46.4052 56.7132 46.1885 56.6256C45.9718 56.5381 45.7394 56.4973 45.5061 56.5058C45.2724 56.4961 45.0392 56.5351 44.8212 56.6205C44.6032 56.7059 44.405 56.8358 44.2392 57.0021C43.927 57.3855 43.7561 57.866 43.7556 58.362C43.755 58.858 43.9249 59.3388 44.2363 59.7229L44.2361 59.7229Z" fill="#00AEEF"/>
<path d="M59.931 60.094H60.8804V63.7001H59.3376V61.6488H55.1541V63.7001H53.6113V60.094H54.359C54.5275 59.3531 54.6405 58.6005 54.6972 57.8424C54.7447 57.1468 54.7684 56.2229 54.7684 55.0708H59.931V60.094ZM55.8959 60.094H58.3882V56.6257H56.2994C56.2762 57.7922 56.1411 58.9537 55.8959 60.094H55.8959Z" fill="#00AEEF"/>
<path d="M66.9588 61.3439C66.4329 61.6074 65.8535 61.7446 65.2662 61.7446C64.6788 61.7446 64.0994 61.6074 63.5735 61.3439C63.0685 61.0743 62.6498 60.6657 62.3661 60.1658C62.0681 59.6117 61.9121 58.9915 61.9121 58.3613C61.9121 57.7311 62.0681 57.1109 62.3661 56.5568C62.6497 56.0551 63.0696 55.6453 63.5764 55.3758C64.1018 55.1123 64.6807 54.9751 65.2677 54.9751C65.8546 54.9751 66.4335 55.1123 66.9589 55.3758C67.4652 55.6449 67.8843 56.0548 68.1664 56.5568C68.4624 57.1115 68.6174 57.7315 68.6174 58.3613C68.6174 58.9911 68.4624 59.6111 68.1664 60.1658C67.8837 60.6666 67.4647 61.0754 66.9588 61.3439ZM65.2647 60.2076C65.4985 60.2168 65.7316 60.1762 65.9488 60.0887C66.1661 60.0011 66.3626 59.8685 66.5256 59.6994C66.8576 59.3353 67.0335 58.8539 67.0151 58.3598C67.0268 58.1158 66.9895 57.8719 66.9054 57.6428C66.8212 57.4136 66.6921 57.2039 66.5256 57.0263C66.1874 56.6965 65.7352 56.5121 65.2646 56.5121C64.7939 56.5121 64.3417 56.6965 64.0035 57.0263C63.6845 57.3972 63.5086 57.8714 63.5081 58.3623C63.5075 58.8532 63.6824 59.3278 64.0007 59.6994C64.1649 59.8678 64.3621 59.9999 64.5797 60.0874C64.7973 60.1749 65.0306 60.2158 65.2647 60.2076V60.2076Z" fill="#00AEEF"/>
<path d="M73.044 60.2075C73.3944 60.2138 73.7386 60.1138 74.0319 59.9205C74.316 59.7325 74.5332 59.4581 74.652 59.1371L76.2422 59.3644C76.085 60.0687 75.6763 60.6901 75.094 61.1105C74.4958 61.5378 73.7771 61.7601 73.044 61.7445C72.4571 61.7527 71.8773 61.6151 71.3557 61.3437C70.8489 61.0742 70.429 60.6645 70.1454 60.1627C69.8474 59.6092 69.6914 58.9894 69.6914 58.3597C69.6914 57.73 69.8474 57.1102 70.1454 56.5567C70.429 56.0549 70.8489 55.6452 71.3557 55.3757C71.8773 55.1044 72.4571 54.9668 73.044 54.9749C73.7771 54.9593 74.4958 55.1816 75.094 55.6089C75.6763 56.0293 76.0849 56.6507 76.2422 57.355L74.652 57.5823C74.5332 57.2613 74.316 56.9869 74.0319 56.7989C73.7386 56.6056 73.3944 56.5056 73.044 56.5119C72.8099 56.5044 72.5768 56.5463 72.3596 56.6348C72.1424 56.7234 71.946 56.8567 71.7829 57.0262C71.4634 57.3958 71.2874 57.8694 71.2874 58.3597C71.2874 58.8499 71.4634 59.3235 71.7829 59.6932C71.946 59.8627 72.1424 59.996 72.3596 60.0846C72.5767 60.1732 72.8099 60.215 73.044 60.2075Z" fill="#00AEEF"/>
<path d="M82.2727 55.0708V56.6256H80.5342V61.6488H78.7659V56.6256H77.0215V55.0708H82.2727Z" fill="#00AEEF"/>
<path d="M88.6448 55.0706H90.2233V61.6486H88.6448L88.6033 60.4527C88.4291 60.8457 88.1418 61.1769 87.7786 61.4035C87.3722 61.6418 86.9075 61.76 86.4375 61.7443C86.0047 61.7585 85.5736 61.6823 85.1713 61.5208C84.769 61.3592 84.4041 61.1156 84.0995 60.8053C83.4864 60.1797 83.1798 59.3644 83.1799 58.3596C83.1751 57.8876 83.2586 57.419 83.426 56.9782C83.5766 56.577 83.8079 56.2115 84.1055 55.9048C84.4006 55.6076 84.7531 55.3746 85.1411 55.2202C85.5534 55.0546 85.9937 54.9713 86.4376 54.9749C86.9093 54.9598 87.3758 55.0779 87.7844 55.3158C88.1511 55.5416 88.4425 55.8727 88.6212 56.2666L88.6448 55.0706ZM85.3339 59.7229C85.5008 59.8882 85.6997 60.017 85.9181 60.1013C86.1366 60.1857 86.3699 60.2238 86.6036 60.2134C86.8405 60.2229 87.0766 60.1817 87.2965 60.0926C87.5164 60.0034 87.715 59.8684 87.8794 59.6962C88.1929 59.3198 88.3634 58.8433 88.3601 58.3519C88.3569 57.8604 88.1802 57.3862 87.8616 57.0141C87.6988 56.8455 87.5027 56.7132 87.286 56.6257C87.0693 56.5381 86.8368 56.4973 86.6035 56.5058C86.3698 56.4961 86.1367 56.5351 85.9186 56.6205C85.7006 56.7059 85.5025 56.8358 85.3367 57.0021C85.0245 57.3855 84.8536 57.866 84.8531 58.362C84.8526 58.858 85.0224 59.3389 85.3338 59.723L85.3339 59.7229Z" fill="#00AEEF"/>
<path d="M96.5848 58.3479C96.7522 58.36 96.9148 58.4098 97.0606 58.4937C97.2064 58.5775 97.3317 58.6932 97.4273 58.8323C97.6443 59.1477 97.7546 59.5251 97.7418 59.9087C97.7472 60.1813 97.6839 60.4508 97.5578 60.6921C97.4406 60.9133 97.2703 61.1014 97.0624 61.2393C96.8474 61.3801 96.6108 61.4842 96.3621 61.5472C96.0916 61.6164 95.8135 61.6506 95.5344 61.6489H91.8555V55.0709H95.4098C95.686 55.0688 95.9612 55.103 96.2287 55.1726C96.4717 55.2358 96.7024 55.3399 96.911 55.4805C97.1132 55.6185 97.2775 55.8057 97.3888 56.0246C97.5092 56.2666 97.5693 56.5345 97.5638 56.8051C97.577 57.1599 97.4906 57.5112 97.3146 57.8187C97.2336 57.9511 97.1274 58.066 97.0021 58.1568C96.8769 58.2476 96.735 58.3125 96.5848 58.3479ZM93.4398 56.1174V57.8159H95.0301C95.1428 57.8193 95.2551 57.8001 95.3605 57.7596C95.4659 57.7191 95.5623 57.658 95.6442 57.5798C95.8021 57.4154 95.8905 57.1956 95.8905 56.9668C95.8905 56.738 95.8021 56.5181 95.6442 56.3538C95.5623 56.2756 95.4659 56.2145 95.3605 56.174C95.2551 56.1334 95.1428 56.1143 95.0301 56.1177L93.4398 56.1174ZM95.1487 60.5247C95.376 60.5316 95.5967 60.4477 95.7629 60.2914C95.8446 60.2132 95.9089 60.1184 95.9514 60.0132C95.9938 59.908 96.0135 59.7949 96.0092 59.6814C96.0131 59.5671 95.9933 59.4532 95.9508 59.3472C95.9084 59.2411 95.8444 59.1452 95.7629 59.0656C95.6814 58.9866 95.5852 58.9247 95.4797 58.8836C95.3743 58.8425 95.2618 58.823 95.1487 58.8263H93.4398V60.5248L95.1487 60.5247Z" fill="#00AEEF"/>
<path d="M104.619 55.0708L101.723 58.3538L104.619 61.6428H102.957L100.613 59.2808V61.6488H99.0352V55.0708H100.613V57.4328L102.957 55.0708H104.619Z" fill="#00AEEF"/>
<path d="M111.999 55.0708V61.6488H110.462V57.5526L107.674 61.6488H105.971V55.0708H107.513V59.1671L110.302 55.0708H111.999Z" fill="#00AEEF"/>
</g>
<defs>
<linearGradient id="paint0_linear" x1="8.67929" y1="19.653" x2="26.112" y2="19.8102" gradientUnits="userSpaceOnUse">
<stop offset="0.06" stop-color="#00AEEF"/>
<stop offset="0.8" stop-color="#0F68AA"/>
</linearGradient>
<clipPath id="clip0">
<rect width="112" height="64" fill="white"/>
</clipPath>
</defs>
</svg>
