<svg width="100" height="100" viewBox="0 0 100 100" fill="none" xmlns="http://www.w3.org/2000/svg">
<path d="M35.9375 64.0625H95.3125V76.1719C95.3125 77.2461 94.4336 78.125 93.3594 78.125H35.9375V64.0625Z" fill="#FA5D3F"/>
<path d="M8.59375 53.125H35.9375V78.125H6.64062C5.56641 78.125 4.6875 77.2461 4.6875 76.1719V57.0312C4.6875 54.8828 6.44531 53.125 8.59375 53.125Z" fill="#FA5D3F"/>
<path d="M35.9375 53.125H7.8125L18.5547 38.3594C19.6484 36.8359 21.4258 35.9375 23.3008 35.9375H35.9375V53.125Z" fill="#FFF9F7"/>
<path d="M37.8906 20.3125H93.3594C94.4336 20.3125 95.3125 21.1914 95.3125 22.2656V64.0625H35.9375V22.2656C35.9375 21.1914 36.8164 20.3125 37.8906 20.3125Z" fill="#FAC850"/>
<path d="M20.3125 89.0625C25.4902 89.0625 29.6875 84.8652 29.6875 79.6875C29.6875 74.5098 25.4902 70.3125 20.3125 70.3125C15.1348 70.3125 10.9375 74.5098 10.9375 79.6875C10.9375 84.8652 15.1348 89.0625 20.3125 89.0625Z" fill="#4D4D4D"/>
<path d="M79.6875 89.0625C84.8652 89.0625 89.0625 84.8652 89.0625 79.6875C89.0625 74.5098 84.8652 70.3125 79.6875 70.3125C74.5098 70.3125 70.3125 74.5098 70.3125 79.6875C70.3125 84.8652 74.5098 89.0625 79.6875 89.0625Z" fill="#4D4D4D"/>
<path d="M35.9375 35.9375H23.4375L29.1016 27.4414C29.4727 26.8945 30.0781 26.5625 30.7227 26.5625H35.9375V35.9375Z" fill="#FA5D3F"/>
<path d="M25 57.8125H31.25V60.9375H25V57.8125Z" fill="black"/>
<path d="M8.59375 65.625H4.6875V57.0312C4.6875 54.8828 6.44531 53.125 8.59375 53.125H12.5V61.7188C12.5 63.8672 10.7422 65.625 8.59375 65.625Z" fill="#FAC850"/>
<path d="M40.625 25H43.75V28.125H40.625V25Z" fill="black"/>
<path d="M40.625 56.25H43.75V59.375H40.625V56.25Z" fill="black"/>
<path d="M87.5 25H90.625V28.125H87.5V25Z" fill="black"/>
<path d="M87.5 56.25H90.625V59.375H87.5V56.25Z" fill="black"/>
<path d="M20.3125 82.8125C22.0384 82.8125 23.4375 81.4134 23.4375 79.6875C23.4375 77.9616 22.0384 76.5625 20.3125 76.5625C18.5866 76.5625 17.1875 77.9616 17.1875 79.6875C17.1875 81.4134 18.5866 82.8125 20.3125 82.8125Z" fill="#FEFEFE"/>
<path d="M20.3125 84.375C17.7148 84.375 15.625 82.2852 15.625 79.6875C15.625 77.0898 17.7148 75 20.3125 75C22.9102 75 25 77.0898 25 79.6875C25 82.2656 22.8906 84.375 20.3125 84.375ZM20.3125 78.125C19.4531 78.125 18.75 78.8281 18.75 79.6875C18.75 80.5469 19.4531 81.25 20.3125 81.25C21.1719 81.25 21.875 80.5469 21.875 79.6875C21.875 78.8281 21.1719 78.125 20.3125 78.125Z" fill="black"/>
<path d="M79.6875 82.8125C81.4134 82.8125 82.8125 81.4134 82.8125 79.6875C82.8125 77.9616 81.4134 76.5625 79.6875 76.5625C77.9616 76.5625 76.5625 77.9616 76.5625 79.6875C76.5625 81.4134 77.9616 82.8125 79.6875 82.8125Z" fill="#FEFEFE"/>
<path d="M79.6875 84.375C77.0898 84.375 75 82.2852 75 79.6875C75 77.0898 77.0898 75 79.6875 75C82.2852 75 84.375 77.0898 84.375 79.6875C84.375 82.2656 82.2656 84.375 79.6875 84.375ZM79.6875 78.125C78.8281 78.125 78.125 78.8281 78.125 79.6875C78.125 80.5469 78.8281 81.25 79.6875 81.25C80.5469 81.25 81.25 80.5469 81.25 79.6875C81.25 78.8281 80.5469 78.125 79.6875 78.125Z" fill="black"/>
<path d="M93.3594 18.75H37.8906C35.957 18.75 34.375 20.332 34.375 22.2656V25H30.7422C29.5703 25 28.4766 25.5859 27.8125 26.5625L22.5781 34.4141C20.4688 34.6289 18.5352 35.7227 17.2852 37.4414L6.79687 51.875C4.60937 52.6367 3.125 54.707 3.125 57.0312V76.1719C3.125 78.1055 4.70703 79.6875 6.64062 79.6875H9.375C9.375 85.7227 14.2773 90.625 20.3125 90.625C26.3477 90.625 31.25 85.7227 31.25 79.6875H68.75C68.75 85.7227 73.6523 90.625 79.6875 90.625C85.7227 90.625 90.625 85.7227 90.625 79.6875H93.3594C95.293 79.6875 96.875 78.1055 96.875 76.1719V22.2656C96.875 20.332 95.293 18.75 93.3594 18.75ZM6.25 57.0312C6.25 55.7422 7.30469 54.6875 8.59375 54.6875H10.9375V61.7188C10.9375 63.0078 9.88281 64.0625 8.59375 64.0625H6.25V57.0312ZM20.3125 87.5C15.9961 87.5 12.5 84.0039 12.5 79.6875C12.5 75.3711 15.9961 71.875 20.3125 71.875C24.6289 71.875 28.125 75.3711 28.125 79.6875C28.125 84.0039 24.6289 87.5 20.3125 87.5ZM34.375 76.5625H30.8008C29.082 70.7812 22.9883 67.4805 17.1875 69.1992C13.6523 70.2539 10.8789 73.0273 9.82422 76.5625H6.64062C6.42578 76.5625 6.25 76.3867 6.25 76.1719V67.1875H8.59375C11.6211 67.1875 14.0625 64.7461 14.0625 61.7188V54.6875H34.375V76.5625ZM34.375 51.5625H10.8789L19.8242 39.2773C20.625 38.1641 21.9336 37.5 23.3008 37.5H34.375V51.5625ZM34.375 34.375H26.3477L30.3906 28.3008C30.4688 28.1836 30.5859 28.125 30.7227 28.125H34.375V34.375ZM79.6875 87.5C75.3711 87.5 71.875 84.0039 71.875 79.6875C71.875 75.3711 75.3711 71.875 79.6875 71.875C84.0039 71.875 87.5 75.3711 87.5 79.6875C87.5 84.0039 84.0039 87.5 79.6875 87.5ZM93.75 76.1719C93.75 76.3867 93.5742 76.5625 93.3594 76.5625H90.1758C88.457 70.7812 82.3633 67.4805 76.5625 69.1992C73.0273 70.2539 70.2539 73.0273 69.1992 76.5625H37.5V65.625H93.75V76.1719ZM93.75 62.5H37.5V22.2656C37.5 22.0508 37.6758 21.875 37.8906 21.875H93.3594C93.5742 21.875 93.75 22.0508 93.75 22.2656V62.5Z" fill="black"/>
</svg>
