<svg width="25" height="32" viewBox="0 0 25 32" fill="none" xmlns="http://www.w3.org/2000/svg">
<path d="M17.42 0H0.836C0.374286 0 0 0.374286 0 1.10057V31.4286C0 31.6257 0.374286 32 0.836 32H23.7354C24.1971 32 24.5714 31.6257 24.5714 31.4286V7.416C24.5714 7.01829 24.5183 6.89029 24.4246 6.796L17.7754 0.146857C17.6811 0.0531429 17.5531 0 17.42 0Z" fill="#E9E9E0"/>
<path d="M17.7148 0.0864258V6.85728H24.4857L17.7148 0.0864258Z" fill="#D9D7CA"/>
<path d="M23.7354 31.9999H0.836C0.374286 31.9999 0 31.6256 0 31.1639V22.2856H24.5714V31.1639C24.5714 31.6256 24.1971 31.9999 23.7354 31.9999Z" fill="#277ADB"/>
<path d="M15.9615 18.2856H14.5087L12.5717 10.9999L10.6346 18.2856H9.18187L6.85742 8.57129H8.50391L9.95669 15.857L11.8937 8.57129H13.2497L15.1867 15.857L16.6395 8.57129H18.286L15.9615 18.2856Z" fill="#277ADB"/>
<path d="M8.72381 25.3056C9.17999 25.7185 9.40756 26.2929 9.40756 27.0287C9.40756 27.7642 9.18662 28.3466 8.74419 28.7752C8.30176 29.2042 7.62463 29.4185 6.71337 29.4185H5.14258V24.686H6.76738C7.61583 24.686 8.26818 24.8926 8.72381 25.3056ZM8.60204 27.0488C8.60204 25.9656 7.98164 25.424 6.74037 25.424H5.94148V28.6669H6.82851C7.40152 28.6669 7.84064 28.5305 8.14532 28.2573C8.44994 27.9843 8.60204 27.5816 8.60204 27.0488Z" fill="#EBF0F3"/>
<path d="M14.3977 28.7651C13.9195 29.2323 13.3283 29.466 12.6242 29.466C11.9201 29.466 11.3289 29.2323 10.8507 28.7651C10.3719 28.2982 10.1328 27.7158 10.1328 27.0186C10.1328 26.3211 10.3719 25.739 10.8507 25.2718C11.3289 24.8046 11.9201 24.5713 12.6242 24.5713C13.3283 24.5713 13.9195 24.8046 14.3977 25.2718C14.8765 25.739 15.1156 26.3211 15.1156 27.0186C15.1156 27.7158 14.8765 28.2982 14.3977 28.7651ZM13.8126 25.8032C13.4897 25.4694 13.0936 25.3024 12.6242 25.3024C12.1548 25.3024 11.7586 25.4694 11.4358 25.8032C11.1135 26.1374 10.9521 26.5423 10.9521 27.0186C10.9521 27.4949 11.1135 27.8999 11.4358 28.2337C11.7587 28.5679 12.1548 28.7348 12.6242 28.7348C13.0937 28.7348 13.4898 28.5679 13.8126 28.2337C14.1349 27.8999 14.2963 27.4949 14.2963 27.0186C14.2963 26.5424 14.135 26.1373 13.8126 25.8032Z" fill="#EBF0F3"/>
<path d="M18.2828 28.6941C18.5577 28.6941 18.7946 28.6481 18.9936 28.5555C19.1919 28.463 19.3997 28.3151 19.6167 28.112L20.1307 28.6401C19.6299 29.1952 19.0217 29.4729 18.3065 29.4729C17.5908 29.4729 16.9974 29.2426 16.5258 28.7823C16.0542 28.3219 15.8184 27.7396 15.8184 27.0354C15.8184 26.3313 16.0586 25.7448 16.5396 25.2751C17.02 24.806 17.6272 24.5713 18.3605 24.5713C19.0938 24.5713 19.7064 24.8421 20.1984 25.3837L19.691 25.9388C19.4651 25.7223 19.2519 25.5711 19.0508 25.4851C18.8502 25.3994 18.6144 25.3564 18.3433 25.3564C17.8651 25.3564 17.4635 25.5113 17.1384 25.8203C16.8134 26.1294 16.6508 26.5245 16.6508 27.0052C16.6508 27.4859 16.8123 27.8875 17.1351 28.2101C17.4581 28.5329 17.8404 28.6941 18.2828 28.6941Z" fill="#EBF0F3"/>
</svg>
