<svg width="196" height="196" viewBox="0 0 196 196" fill="none" xmlns="http://www.w3.org/2000/svg">
<path d="M141.6 72.2963C141.6 78.5333 136.548 83.5889 130.311 83.5889C124.077 83.5889 119.021 78.5333 119.021 72.2963C119.021 66.0593 124.077 61.0068 130.311 61.0068C136.548 61.0068 141.6 66.0593 141.6 72.2963Z" fill="#C8C8C8"/>
<path d="M76.6883 72.2963C76.6883 78.5333 71.6327 83.5889 65.3989 83.5889C59.165 83.5889 54.1094 78.5333 54.1094 72.2963C54.1094 66.0593 59.165 61.0068 65.3989 61.0068C71.6327 61.0068 76.6883 66.0593 76.6883 72.2963Z" fill="#C8C8C8"/>
<path d="M59.5994 156.691C57.0315 156.691 54.9473 154.61 54.9473 152.039C54.9473 131.957 71.0999 115.618 90.9559 115.618H106.637C126.493 115.618 142.646 131.867 142.646 151.838C142.646 154.409 140.565 156.493 137.994 156.493C135.425 156.493 133.345 154.409 133.345 151.838C133.345 137 121.364 124.926 106.637 124.926H90.9563C76.2302 124.926 64.2523 137.087 64.2523 152.039C64.2516 154.61 62.1673 156.691 59.5994 156.691Z" fill="#C8C8C8"/>
<path d="M98.0021 196C43.9768 196 0.0253906 152.036 0.0253906 97.9984C0.0253906 43.9638 43.9768 0 98.0021 0C152.024 0 195.976 43.9638 195.976 97.9984C195.976 152.036 152.024 196 98.0021 196ZM98.0021 9.30779C49.1066 9.30779 9.33007 49.094 9.33007 97.9984C9.33007 146.906 49.107 186.692 98.0021 186.692C146.894 186.692 186.671 146.906 186.671 97.9984C186.671 49.0937 146.894 9.30779 98.0021 9.30779Z" fill="#C8C8C8"/>
</svg>
