<svg width="48" height="48" viewBox="0 0 48 48" fill="none" xmlns="http://www.w3.org/2000/svg">
<path d="M27 15C22.029 15 15 19.029 15 24C15 20.8174 16.2643 17.7652 18.5147 15.5147C20.7652 13.2643 23.8174 12 27 12V15Z" fill="#545454"/>
<path fill-rule="evenodd" clip-rule="evenodd" d="M42.999 9.00003H36.954C34.0056 7.03784 30.5416 5.99385 27 6.00003C23.4584 5.99421 19.9946 7.03817 17.046 9.00003H5.001C2.241 9.00003 0 11.238 0 14.001V33.999C0 36.759 2.238 39 5.001 39H17.046C19.896 40.896 23.319 42 27 42C30.5416 42.0057 34.0054 40.9617 36.954 39H42.999C45.759 39 48 36.762 48 33.999V14.001C48 11.241 45.762 9.00003 42.999 9.00003ZM4.5 15C4.89782 15 5.27936 14.842 5.56066 14.5607C5.84196 14.2794 6 13.8979 6 13.5C6 13.1022 5.84196 12.7207 5.56066 12.4394C5.27936 12.1581 4.89782 12 4.5 12C4.10218 12 3.72064 12.1581 3.43934 12.4394C3.15804 12.7207 3 13.1022 3 13.5C3 13.8979 3.15804 14.2794 3.43934 14.5607C3.72064 14.842 4.10218 15 4.5 15ZM27 39C30.9782 39 34.7936 37.4197 37.6066 34.6066C40.4196 31.7936 42 27.9783 42 24C42 20.0218 40.4196 16.2065 37.6066 13.3934C34.7936 10.5804 30.9782 9.00003 27 9.00003C23.0218 9.00003 19.2064 10.5804 16.3934 13.3934C13.5804 16.2065 12 20.0218 12 24C12 27.9783 13.5804 31.7936 16.3934 34.6066C19.2064 37.4197 23.0218 39 27 39Z" fill="#545454"/>
<path d="M6 9C6 8.20435 6.31607 7.44129 6.87868 6.87868C7.44129 6.31607 8.20435 6 9 6H12C12.7956 6 13.5587 6.31607 14.1213 6.87868C14.6839 7.44129 15 8.20435 15 9C15 9.79565 14.6839 10.5587 14.1213 11.1213C13.5587 11.6839 12.7956 12 12 12H9C8.20435 12 7.44129 11.6839 6.87868 11.1213C6.31607 10.5587 6 9.79565 6 9Z" fill="#545454"/>
</svg>
