<svg width="104" height="50" viewBox="0 0 104 50" fill="none" xmlns="http://www.w3.org/2000/svg">
<path d="M9.03984 30.9961V33.4837H3.0355V45.2113H0V30.9961H9.03984Z" fill="black"/>
<path d="M13.1479 34.3389V38.6396C13.1479 39.0913 13.0752 40.1996 12.9237 41.9645L17.9708 34.3389H21.5637V45.2111H18.6736V40.8742C18.6736 40.1032 18.7402 39.013 18.8675 37.6035L13.8386 45.2111H10.2578V34.3389H13.1479Z" fill="black"/>
<path d="M34.6262 34.3389V45.2111H31.6331V36.5675H27.6706V45.2111H24.6836V34.3389H34.6262Z" fill="black"/>
<path d="M42.7824 45.41C41.0193 45.41 39.6439 44.9282 38.6563 43.9584C37.6626 42.9947 37.1719 41.6213 37.1719 39.8565C37.1719 38.0374 37.6324 36.628 38.5472 35.6281C39.4621 34.6342 40.7284 34.1343 42.3462 34.1343C43.8912 34.1343 45.0969 34.574 45.9573 35.4474C46.8176 36.3208 47.2478 37.5315 47.2478 39.0734V40.513H40.1892C40.2195 41.3563 40.474 42.0129 40.9405 42.4887C41.4131 42.9645 42.0675 43.1995 42.9157 43.1995C43.5761 43.1995 44.2002 43.1332 44.7818 42.9947C45.3695 42.8561 45.9815 42.6393 46.6237 42.3441V44.639C46.1027 44.898 45.5452 45.0908 44.9515 45.2173C44.3577 45.3438 43.6367 45.41 42.7824 45.41ZM42.3583 36.2485C41.7282 36.2485 41.2313 36.4473 40.8739 36.8448C40.5164 37.2423 40.3104 37.8085 40.2558 38.5434H44.4425C44.4304 37.8085 44.2365 37.2423 43.8669 36.8448C43.4973 36.4473 42.9945 36.2485 42.3583 36.2485Z" fill="black"/>
<path d="M55.8208 45.41C54.5363 45.41 53.5305 44.9462 52.7974 44.0186H52.6398C52.7428 44.9282 52.7974 45.4522 52.7974 45.5968V49.9998H49.8164V34.3391H52.24L52.658 35.7485H52.7974C53.4941 34.6704 54.5302 34.1343 55.8995 34.1343C57.1901 34.1343 58.2019 34.6282 58.935 35.6221C59.6681 36.6159 60.0317 37.9892 60.0317 39.7541C60.0317 40.9166 59.862 41.9225 59.5167 42.7778C59.1713 43.6331 58.6866 44.2837 58.0565 44.7354C57.4203 45.1872 56.6751 45.41 55.8208 45.41ZM54.9422 36.5075C54.203 36.5075 53.6698 36.7304 53.3306 37.1821C52.9913 37.6339 52.8156 38.3747 52.8034 39.4168V39.736C52.8034 40.9045 52.9791 41.7418 53.3245 42.2478C53.6759 42.7537 54.2273 43.0067 54.9846 43.0067C56.3236 43.0067 56.9901 41.9105 56.9901 39.7179C56.9901 38.6458 56.8265 37.8447 56.4933 37.3086C56.1661 36.7785 55.645 36.5075 54.9422 36.5075Z" fill="black"/>
<path d="M76.4091 45.2112H73.6221V36.646L73.4645 37.2483C73.1131 38.6156 72.7981 39.6516 72.5133 40.3504L70.5744 45.2112H68.4538L66.4847 40.3082C66.206 39.5974 65.9031 38.5915 65.588 37.3025L65.4002 36.64V45.2052H62.6191V34.339H66.7271L68.6053 38.977C68.7992 39.477 68.981 40.0492 69.1506 40.6997C69.3142 41.3502 69.4293 41.9044 69.4899 42.3622C69.702 41.3924 69.8716 40.6937 69.9928 40.266C70.114 39.8384 70.2473 39.4529 70.3866 39.0915C70.532 38.7361 71.1803 37.1519 72.3315 34.333H76.4031V45.2112H76.4091Z" fill="black"/>
<path d="M84.5695 45.41C82.8064 45.41 81.431 44.9282 80.4434 43.9584C79.4498 42.9947 78.959 41.6213 78.959 39.8565C78.959 38.0374 79.4195 36.628 80.3344 35.6281C81.2492 34.6342 82.5155 34.1343 84.1333 34.1343C85.6783 34.1343 86.884 34.574 87.7444 35.4474C88.6047 36.3208 89.0349 37.5315 89.0349 39.0734V40.513H81.9824C82.0127 41.3563 82.2671 42.0129 82.7337 42.4887C83.2063 42.9645 83.8606 43.1995 84.7089 43.1995C85.3693 43.1995 85.9933 43.1332 86.575 42.9947C87.1627 42.8561 87.7747 42.6393 88.4169 42.3441V44.639C87.8958 44.898 87.3384 45.0908 86.7446 45.2173C86.1509 45.3438 85.4238 45.41 84.5695 45.41ZM84.1514 36.2485C83.5213 36.2485 83.0245 36.4473 82.667 36.8448C82.3095 37.2423 82.1035 37.8085 82.049 38.5434H86.2357C86.2236 37.8085 86.0297 37.2423 85.6601 36.8448C85.2845 36.4473 84.7816 36.2485 84.1514 36.2485Z" fill="black"/>
<path d="M103.049 49.1142H100.371V45.2171H93.0159V49.1142H90.3379V43.0426H91.2588C91.8829 42.0789 92.41 40.8562 92.8341 39.3865C93.2583 37.9168 93.5552 36.2302 93.7248 34.3389H101.456V43.0426H103.062V49.1142H103.049ZM98.4628 43.0426V36.5675H96.2211C96.0575 37.7722 95.8333 38.9166 95.5485 40.0008C95.2638 41.085 94.8699 42.097 94.367 43.0426H98.4628Z" fill="black"/>
<path fill-rule="evenodd" clip-rule="evenodd" d="M91.2822 0L97.1653 3.37309L103.049 6.7522V13.5044V20.2626L97.1653 23.6357L91.2822 27.0148L85.399 23.6357L79.5098 20.2626V13.5044V6.7522L85.399 3.37309L91.2822 0Z" fill="#4365AF"/>
<path d="M88.9744 21.0699C87.799 21.0699 87.2416 19.034 86.981 17.3234C86.7993 16.1368 86.7205 15.8236 86.4357 15.1008C86.1691 14.4261 85.8601 14.0346 85.5632 13.6612C85.2482 13.2636 84.9271 12.854 84.6847 12.1553C84.1091 10.517 84.5453 8.07148 86.2782 6.81259C87.7687 5.72838 89.5379 6.04762 89.6106 6.05967C90.6527 6.25844 91.4767 6.63189 92.1068 7.03546C92.1371 6.84873 92.1977 6.67405 92.2886 6.54154C92.4946 6.24037 92.8884 6.0416 93.4216 5.96932C94.3244 5.84885 95.7482 6.10786 96.7358 6.95113C98.1475 8.16183 98.4202 10.517 97.8567 12.0047C97.5962 12.6974 97.3114 13.0829 97.0387 13.4504C96.7419 13.8539 96.4632 14.2274 96.1966 15.0405C96.0027 15.6308 95.9118 16.0464 95.8027 16.5765C95.7543 16.7993 95.7058 17.0463 95.6392 17.3354L95.621 17.4258C95.3423 18.6425 94.8212 20.9133 93.5428 21.0097C92.5734 21.088 92.3128 20.2026 92.1008 19.4978C91.8826 18.7509 91.7857 18.1907 91.7069 17.745C91.6585 17.4619 91.6161 17.2089 91.5494 16.968C91.4525 16.6247 91.3737 16.3898 91.3131 16.2271C91.2465 16.3837 91.1677 16.6126 91.0829 16.962L90.889 17.7269C90.6951 18.5281 90.5073 19.281 90.38 19.6544L90.3437 19.7628C90.2165 20.1845 89.9438 21.0519 88.9986 21.0759C88.9865 21.0699 88.9804 21.0699 88.9744 21.0699ZM88.8774 6.73429C88.3261 6.73429 87.4657 6.84271 86.7023 7.40288C85.2664 8.45095 84.8907 10.5591 85.3694 11.9204C85.5754 12.4987 85.8359 12.8299 86.1388 13.2154C86.4539 13.613 86.8053 14.0647 87.1143 14.8357C87.4233 15.6188 87.5142 15.9741 87.7081 17.221C88.0231 19.275 88.5866 20.3471 88.9804 20.3471C88.9804 20.3471 88.9804 20.3471 88.9865 20.3471C89.3319 20.3411 89.4833 20.0761 89.6409 19.552L89.6833 19.4255C89.7984 19.0762 89.9923 18.3052 90.174 17.5583L90.3679 16.7873C90.6406 15.7151 90.9253 15.2574 91.3313 15.2574C91.6463 15.2574 91.9129 15.5103 92.2522 16.7813C92.3249 17.0463 92.3734 17.3174 92.4219 17.6246C92.5007 18.0763 92.5915 18.5943 92.7975 19.299C93.0338 20.1002 93.155 20.317 93.4701 20.2869C93.9608 20.2507 94.4334 19.2328 94.8878 17.2692L94.906 17.1788C94.9727 16.8957 95.0211 16.6548 95.0696 16.4319C95.1847 15.8838 95.2756 15.4501 95.4816 14.8237C95.7846 13.9021 96.1117 13.4564 96.4329 13.0287C96.6873 12.6854 96.9297 12.3541 97.1539 11.7578C97.6325 10.4929 97.378 8.48709 96.245 7.51733C95.4634 6.84873 94.282 6.60177 93.5064 6.70417C93.1429 6.75236 92.949 6.8668 92.8824 6.95715C92.7672 7.11978 92.7975 7.52937 92.8824 7.6137C93.6155 8.2582 93.6155 8.4389 93.6155 8.53528C93.6155 8.69188 93.5185 8.83042 93.3731 8.87861C93.2277 8.93282 93.0399 8.86054 92.943 8.74007C92.5673 8.28229 91.4706 7.17399 89.4591 6.79452C89.4409 6.77645 89.2167 6.73429 88.8774 6.73429Z" fill="white"/>
<path fill-rule="evenodd" clip-rule="evenodd" d="M64.7761 0L70.6593 3.37309L76.5424 6.7522V13.5044V20.2626L70.6593 23.6357L64.7761 27.0148L58.8929 23.6357L53.0098 20.2626V13.5044V6.7522L58.8929 3.37309L64.7761 0Z" fill="#ED2127"/>
<path d="M72.9315 20.5216C72.7255 20.7325 72.6831 20.7264 72.4589 20.5216C72.0712 20.1723 71.6834 19.829 71.2956 19.4796C70.92 19.1423 70.5383 18.799 70.1626 18.4617C69.787 18.1243 69.4113 17.787 69.0357 17.4497C68.9751 17.3955 68.9084 17.3052 68.8418 17.2991C68.7812 17.2931 68.7085 17.3835 68.6479 17.4317C68.3813 17.6425 68.0602 17.7208 67.733 17.781C67.5028 17.8232 67.2665 17.8352 67.0362 17.8593C66.7515 17.8894 66.5333 17.781 66.3334 17.5883C65.9638 17.2329 65.576 16.9016 65.1943 16.5583C64.9641 16.3535 64.746 16.1427 64.5157 15.9379C64.2916 15.7331 64.0613 15.5403 63.8311 15.3355C63.3282 14.8838 62.8193 14.432 62.3164 13.9742C61.8317 13.5345 61.3409 13.1008 60.8562 12.6611C60.2988 12.1612 59.7474 11.6613 59.19 11.1673C59.0385 11.0348 58.8931 10.8963 58.7416 10.7638C58.4569 10.5228 58.4084 10.1855 58.681 9.89641C58.7477 9.82413 58.8143 9.75185 58.881 9.68559C58.9295 9.6374 58.9355 9.60126 58.881 9.55308C58.675 9.37237 58.469 9.19167 58.269 9.00495C58.2145 8.95676 58.1842 8.96881 58.1418 9.01097C57.9964 9.14951 57.857 9.29407 57.6995 9.41454C57.542 9.52898 57.3663 9.61331 57.1663 9.63138C56.8028 9.6615 56.5786 9.51091 56.4695 9.16758C56.4635 9.15553 56.4514 9.14349 56.4453 9.13144C56.4453 9.04711 56.4453 8.96279 56.4453 8.87846C56.4514 8.86641 56.4635 8.85436 56.4695 8.84232C56.518 8.60741 56.615 8.39056 56.7725 8.20986C57.0815 7.85448 57.3966 7.50513 57.7116 7.15577C58.0206 6.81244 58.3357 6.47513 58.6447 6.1318C58.8446 5.90893 59.0627 5.71619 59.3475 5.60776C59.4263 5.57765 59.5111 5.55355 59.5959 5.52344C59.6565 5.52344 59.7171 5.52344 59.7777 5.52344C59.8443 5.55355 59.9171 5.57765 59.9837 5.61379C60.2503 5.76437 60.3593 6.05349 60.2806 6.38478C60.2018 6.71004 60.0201 6.96905 59.7959 7.20396C59.7292 7.27022 59.7413 7.30636 59.808 7.36057C60.0079 7.53524 60.2079 7.70992 60.4018 7.89062C60.4502 7.93279 60.4805 7.94483 60.529 7.89062C60.5956 7.81232 60.6684 7.74606 60.7289 7.66776C60.9531 7.40273 61.3045 7.37261 61.559 7.6015C62.1952 8.1677 62.8314 8.73992 63.4615 9.30612C63.9826 9.77594 64.5036 10.2458 65.0247 10.7096C65.5215 11.1553 66.0183 11.595 66.5152 12.0407C67.0665 12.5407 67.6239 13.0406 68.1753 13.5345C68.5752 13.8959 68.9751 14.2513 69.375 14.6127C69.4598 14.685 69.5022 14.7753 69.5083 14.8717C69.5204 15.0825 69.5204 15.2873 69.5204 15.4981C69.5204 15.6367 69.4961 15.7692 69.4961 15.9077C69.5022 16.2571 69.4053 16.5763 69.2053 16.8655C69.1508 16.9377 69.1568 16.9739 69.2295 17.0341C69.6355 17.3895 70.0354 17.7569 70.4413 18.1183C70.9624 18.5881 71.4895 19.058 72.0106 19.5278C72.1802 19.6784 72.3559 19.829 72.5195 19.9856C72.6649 20.1181 72.8103 20.2566 72.9497 20.3952C72.9315 20.4373 72.9315 20.4795 72.9315 20.5216ZM64.5218 11.1432C64.4491 11.2216 64.3946 11.2938 64.3279 11.3541C64.2734 11.4083 64.2794 11.4384 64.334 11.4866C64.5763 11.7034 64.8187 11.9263 65.061 12.1492C65.4306 12.4925 65.8002 12.8418 66.1698 13.1852C66.5394 13.5285 66.9151 13.8598 67.2907 14.2031C67.6906 14.5705 68.0844 14.938 68.4782 15.3114C68.5146 15.3476 68.5328 15.4138 68.5388 15.462C68.5388 15.5463 68.5267 15.6307 68.5085 15.715C68.4479 16.0101 68.3147 16.2691 68.0784 16.4679C67.836 16.6787 67.5452 16.7932 67.2301 16.8474C67.1877 16.8534 67.1271 16.8353 67.0908 16.8052C66.909 16.6546 66.7272 16.498 66.5515 16.3414C66.2243 16.0463 65.8972 15.7451 65.57 15.45C65.0732 14.9982 64.5763 14.5404 64.0795 14.0887C63.6372 13.6851 63.201 13.2815 62.7647 12.878C62.6132 12.7394 62.6011 12.619 62.7344 12.4624C62.8011 12.3841 62.8738 12.3058 62.9404 12.2335C63.2191 11.9323 63.4978 11.6311 63.7766 11.33C63.9159 11.1794 64.0553 11.0288 64.2007 10.8662C64.0916 10.7698 63.9886 10.6794 63.8796 10.5831C63.6614 10.824 63.4494 11.0529 63.2373 11.2878C63.0374 11.5107 62.8374 11.7335 62.6314 11.9564C62.5405 12.0528 62.4133 12.0588 62.3224 11.9685C62.2315 11.8841 62.2315 11.7637 62.3164 11.6673C62.6617 11.2818 63.0131 10.9023 63.3585 10.5168C63.4251 10.4445 63.4857 10.3723 63.5584 10.294C63.4494 10.1976 63.3464 10.1012 63.2313 9.99881C63.2131 10.0229 63.207 10.041 63.1949 10.053C63.001 10.2638 62.8132 10.4747 62.6193 10.6915C62.5102 10.812 62.4012 10.9324 62.2921 11.0469C62.2073 11.1372 62.0861 11.1432 61.9952 11.0649C61.9104 10.9927 61.8983 10.8842 61.9649 10.7758C61.9952 10.7337 62.0255 10.6975 62.0558 10.6614C62.3285 10.3602 62.6072 10.059 62.8798 9.75787C62.892 9.7398 62.898 9.69764 62.8859 9.68559C62.795 9.60126 62.6981 9.51694 62.6011 9.43261C62.4921 9.54705 62.3891 9.64945 62.2921 9.75787C61.9771 10.1072 61.6681 10.4566 61.353 10.7999C61.2621 10.9023 61.1288 10.8963 61.0319 10.7939C60.9531 10.7096 60.9592 10.6011 61.0561 10.4927C61.3348 10.1795 61.6196 9.87231 61.9044 9.5591C62.0316 9.42056 62.1528 9.28202 62.2861 9.13746C61.9104 8.80015 61.5408 8.46887 61.1652 8.13156C61.0561 8.25203 60.9531 8.36045 60.8501 8.46887C60.6381 8.68571 60.3109 8.69173 60.0806 8.49296C59.6929 8.14963 59.3051 7.80027 58.9173 7.45092C58.8749 7.41478 58.8325 7.37864 58.778 7.33647C58.9537 7.14372 59.1112 6.96905 59.2688 6.79437C59.396 6.65583 59.5232 6.51127 59.5899 6.33659C59.602 6.30045 59.6141 6.25829 59.6262 6.20408C59.5899 6.2101 59.5717 6.21613 59.5596 6.21613C59.5353 6.22215 59.5172 6.2342 59.4929 6.24624C59.299 6.34262 59.1657 6.50525 59.0264 6.66186C58.5296 7.20998 58.0267 7.75209 57.5359 8.30624C57.3966 8.46284 57.2754 8.63752 57.1481 8.8122C57.1178 8.85436 57.1118 8.9146 57.0876 8.98688C57.2209 8.97483 57.3057 8.9146 57.3784 8.84834C57.5238 8.71583 57.6571 8.57729 57.7904 8.43273C57.9116 8.30624 58.0267 8.17372 58.1479 8.04121C58.2569 8.13758 58.3539 8.22793 58.4569 8.31828C58.7901 8.61945 59.1233 8.9146 59.4566 9.21577C59.6929 9.43261 59.6929 9.76992 59.4687 10.0048C59.3899 10.0892 59.3112 10.1735 59.2385 10.2638C59.2263 10.2819 59.2263 10.3361 59.2385 10.3542C59.3415 10.4566 59.4566 10.553 59.5656 10.6493C60.0019 11.0409 60.4442 11.4384 60.8804 11.8299C61.0804 12.0106 61.2803 12.1913 61.4802 12.366C61.8014 12.6491 62.1225 12.9382 62.4436 13.2213C62.8193 13.5586 63.1888 13.8959 63.5645 14.2332C64.0734 14.691 64.5884 15.1488 65.1034 15.6066C65.6912 16.1306 66.2728 16.6546 66.8605 17.1787C66.8908 17.2028 66.9393 17.2269 66.9756 17.2208C67.2362 17.1967 67.5088 17.1847 67.7633 17.1245C68.6358 16.9257 69.0781 16.2149 68.9569 15.3476C68.9387 15.215 68.9205 15.0765 68.8054 14.9801C68.4843 14.691 68.1571 14.4079 67.836 14.1188C67.3149 13.649 66.7939 13.1852 66.2728 12.7153C65.8547 12.3359 65.4306 11.9564 65.0126 11.5769C64.8369 11.4263 64.6854 11.2878 64.5218 11.1432ZM67.1756 16.48C67.2544 16.4679 67.3149 16.4378 67.3271 16.3715C67.3392 16.3173 67.3331 16.245 67.3028 16.2089C67.1998 16.0945 67.0847 15.9921 66.9696 15.8836C66.8242 15.7511 66.6788 15.6246 66.5394 15.4921C66.2304 15.203 65.9214 14.9139 65.6124 14.6248C65.1883 14.2332 64.7641 13.8477 64.3461 13.4562C64.1825 13.3056 64.0189 13.149 63.8493 12.9984C63.7644 12.9201 63.6736 12.9201 63.6069 12.9984C63.5403 13.0707 63.5463 13.1551 63.6311 13.2394C63.7038 13.3117 63.7766 13.3779 63.8553 13.4442C64.5703 14.1067 65.2852 14.7693 66.0002 15.4259C66.3516 15.7511 66.703 16.0824 67.0605 16.4077C67.0847 16.4378 67.1332 16.4559 67.1756 16.48Z" fill="white"/>
<path fill-rule="evenodd" clip-rule="evenodd" d="M38.2742 0L44.1573 3.37309L50.0405 6.7522V13.5044V20.2626L44.1573 23.6357L38.2742 27.0148L32.391 23.6357L26.5078 20.2626V13.5044V6.7522L32.391 3.37309L38.2742 0Z" fill="#CDDC33"/>
<path d="M43.4003 20.853C40.1527 20.853 36.9052 20.853 33.6576 20.853C33.6091 20.8409 33.5607 20.8168 33.5061 20.8108C33.0638 20.7385 32.6821 20.5458 32.361 20.2446C31.9248 19.829 31.7188 19.317 31.7188 18.7147C31.7188 16.8173 31.7188 14.926 31.7188 13.0286C31.7188 12.1733 31.7188 11.3119 31.7188 10.4566C31.7188 10.1856 31.8763 10.0229 32.1429 10.0229C33.3062 10.0229 34.4634 10.0229 35.6267 10.0229C35.6691 10.0229 35.7055 10.0229 35.7479 10.035C35.9418 10.0832 36.0569 10.2338 36.0569 10.4506C36.0569 11.4204 36.0569 12.3961 36.0569 13.3659C36.0569 13.39 36.0569 13.4201 36.0569 13.4442C36.1599 13.2936 36.2508 13.131 36.3417 12.9744C36.3477 12.9563 36.3477 12.9382 36.3477 12.9142C36.3477 11.7095 36.3477 10.4988 36.3477 9.2941C36.3477 9.25194 36.3356 9.23387 36.2932 9.20978C35.6934 8.93872 35.348 8.48697 35.2995 7.8244C35.2511 7.11967 35.6994 6.46914 36.372 6.24025C36.4871 6.19809 36.6143 6.18002 36.7355 6.1499C38.123 6.1499 39.5105 6.1499 40.898 6.1499C40.9101 6.15593 40.9282 6.16195 40.9404 6.16195C41.6977 6.2523 42.2854 6.86066 42.346 7.61961C42.4006 8.2882 42.0128 8.92668 41.3887 9.19171C41.316 9.22182 41.2918 9.26399 41.2918 9.33627C41.2918 10.5168 41.2918 11.6974 41.2978 12.872C41.2978 12.9142 41.31 12.9684 41.3342 13.0045C42.3036 14.685 43.2791 16.3595 44.2546 18.04C44.406 18.3051 44.5636 18.5641 44.6908 18.8412C44.8544 19.1965 44.8968 19.57 44.7575 19.9374C44.5878 20.4072 44.2243 20.6602 43.7517 20.7747C43.6305 20.8228 43.5154 20.8349 43.4003 20.853ZM35.5661 20.0699C35.6085 20.0699 35.6328 20.0699 35.6631 20.0699C36.9779 20.0699 38.2866 20.0699 39.6014 20.0699C40.7889 20.0699 41.9764 20.0699 43.164 20.0699C43.37 20.0699 43.576 20.0519 43.7638 19.9555C43.9456 19.8591 44.0425 19.7085 44.0364 19.4977C44.0304 19.2869 43.9395 19.1002 43.8365 18.9195C42.752 17.0462 41.6674 15.1789 40.5768 13.3057C40.5284 13.2213 40.4981 13.131 40.4981 13.0286C40.4981 11.6733 40.4981 10.3121 40.4981 8.9568C40.4981 8.72188 40.6253 8.58335 40.8555 8.54118C41.1827 8.48095 41.413 8.30025 41.5099 7.98101C41.6068 7.66779 41.5281 7.39072 41.2918 7.16183C41.1282 7.00522 40.9282 6.94499 40.698 6.94499C39.4438 6.94499 38.1836 6.94499 36.9294 6.94499C36.8567 6.94499 36.79 6.95101 36.7173 6.96306C36.3174 7.05341 36.069 7.37867 36.0751 7.78224C36.0811 8.15569 36.3659 8.4689 36.7537 8.54118C37.0081 8.58937 37.1233 8.72188 37.1233 8.98089C37.1233 10.3301 37.1233 11.6733 37.1233 13.0226C37.1233 13.125 37.099 13.2153 37.0506 13.2996C36.7779 13.7755 36.5113 14.2513 36.2387 14.7272C36.1902 14.8055 36.1538 14.8958 36.0933 14.9621C36.0508 15.0103 36.0387 15.0585 36.0387 15.1247C36.0387 16.3294 36.0387 17.5281 36.0387 18.7327C36.0387 19.1363 35.9357 19.5098 35.7116 19.8531C35.6752 19.9193 35.6267 19.9856 35.5661 20.0699ZM32.5125 13.0105C32.5488 13.0105 32.5791 13.0105 32.6033 13.0105C32.9487 13.0105 33.3001 13.0105 33.6455 13.0105C33.7 13.0105 33.7545 13.0166 33.8091 13.0346C33.9848 13.0949 34.0938 13.2816 34.0635 13.4623C34.0332 13.649 33.8697 13.7875 33.6818 13.7936C33.3183 13.7936 32.9608 13.7936 32.5973 13.7936C32.5731 13.7936 32.5428 13.7936 32.5185 13.7936C32.5185 14.2272 32.5185 14.6429 32.5185 15.0705C32.5549 15.0705 32.5791 15.0705 32.6094 15.0705C32.9608 15.0705 33.3062 15.0705 33.6576 15.0705C33.8939 15.0705 34.0696 15.2332 34.0696 15.45C34.0757 15.6849 33.8999 15.8596 33.6576 15.8596C33.3062 15.8596 32.9548 15.8596 32.6033 15.8596C32.5791 15.8596 32.5488 15.8596 32.5185 15.8596C32.5185 16.2872 32.5185 16.7089 32.5185 17.1365C32.5488 17.1365 32.5791 17.1365 32.6033 17.1365C32.9487 17.1365 33.2941 17.1365 33.6394 17.1365C33.6818 17.1365 33.7182 17.1365 33.7606 17.1426C33.9605 17.1908 34.0878 17.3654 34.0696 17.5702C34.0514 17.763 33.8818 17.9136 33.6758 17.9196C33.3244 17.9196 32.9669 17.9196 32.6155 17.9196C32.5852 17.9196 32.5549 17.9196 32.5246 17.9196C32.5246 17.9437 32.5185 17.9617 32.5185 17.9798C32.5185 18.2569 32.5125 18.534 32.5246 18.811C32.5306 18.9556 32.5609 19.1002 32.6094 19.2327C32.8518 19.8591 33.5788 20.2024 34.2514 20.0278C34.8572 19.8651 35.2693 19.3652 35.2693 18.7749C35.2693 16.1487 35.2693 13.5225 35.2693 10.8963C35.2693 10.8722 35.2693 10.8481 35.2632 10.818C34.3483 10.818 33.4334 10.818 32.5246 10.818C32.5125 11.5468 32.5125 12.2757 32.5125 13.0105Z" fill="white"/>
<path d="M40.2857 18.6847C39.5223 18.6847 38.9043 18.0703 38.9043 17.3173C38.9043 16.5584 39.5223 15.944 40.2857 15.938C41.0491 15.938 41.6671 16.5584 41.6671 17.3173C41.6611 18.0763 41.0491 18.6847 40.2857 18.6847Z" fill="white"/>
<path d="M37.905 16.4918C37.5354 16.4918 37.2324 16.1906 37.2324 15.8172C37.2324 15.4498 37.5354 15.1426 37.911 15.1426C38.2806 15.1426 38.5896 15.4498 38.5896 15.8112C38.5896 16.1906 38.2806 16.4918 37.905 16.4918Z" fill="white"/>
<path d="M38.0566 12.083C38.0566 11.7758 38.3051 11.5288 38.6141 11.5288C38.917 11.5288 39.1654 11.7818 39.1654 12.083C39.1654 12.3902 38.9109 12.6371 38.6019 12.6371C38.3051 12.6371 38.0566 12.3841 38.0566 12.083Z" fill="white"/>
<path d="M37.8677 18.269C37.8677 18.5039 37.6799 18.6906 37.4436 18.6846C37.2073 18.6846 37.0195 18.4979 37.0255 18.2569C37.0255 18.028 37.2194 17.8413 37.4497 17.8413C37.6799 17.8413 37.8677 18.0341 37.8677 18.269Z" fill="white"/>
<path d="M39.0862 13.4624C39.3225 13.4624 39.5104 13.6491 39.5104 13.884C39.5104 14.1129 39.3225 14.3057 39.0923 14.3057C38.856 14.3057 38.6621 14.1189 38.6621 13.884C38.6621 13.6491 38.8499 13.4624 39.0862 13.4624Z" fill="white"/>
<path fill-rule="evenodd" clip-rule="evenodd" d="M11.7663 0L17.6495 3.37309L23.5327 6.7522V13.5044V20.2626L17.6495 23.6357L11.7663 27.0148L5.88317 23.6357L0 20.2626V13.5044V6.7522L5.88317 3.37309L11.7663 0Z" fill="#F7DE25"/>
<path d="M16.9034 16.251C17.273 15.2271 17.3638 14.179 17.1518 13.1189C16.8004 11.3721 15.8491 10.0349 14.3223 9.09528C14.2799 9.07118 14.2375 9.02902 14.2132 8.98083C13.9527 8.54113 13.571 8.28212 13.056 8.24598C12.9166 8.23393 12.7773 8.25803 12.6258 8.26405C12.547 8.03516 12.3956 7.85446 12.1653 7.75206C12.1169 7.72797 12.0987 7.70388 12.0987 7.64967C12.0987 7.38464 12.0987 7.11961 12.0987 6.84856C12.0987 6.63774 11.9896 6.53534 11.7776 6.52932C11.7654 6.52932 11.7473 6.52932 11.7351 6.52932V5.61979H11.8806C11.9957 5.61979 12.0866 5.52944 12.0866 5.41499V5.04757C12.0866 4.93312 11.9957 4.84277 11.8806 4.84277H10.6203C10.5052 4.84277 10.4143 4.93312 10.4143 5.04757V5.42102C10.4143 5.53546 10.5052 5.62581 10.6203 5.62581H10.7657V6.53534C10.7415 6.53534 10.7173 6.53534 10.6991 6.53534C10.4991 6.53534 10.3901 6.64979 10.3901 6.84253C10.3901 7.11359 10.3901 7.37861 10.3901 7.64967C10.3901 7.69183 10.384 7.72195 10.3355 7.74604C9.99019 7.90265 9.81448 8.1737 9.81448 8.55317C9.81448 10.065 9.81448 11.5769 9.81448 13.0888C9.81448 13.4442 9.99625 13.6971 10.3113 13.8537C10.3719 13.8839 10.3901 13.908 10.3901 13.9742C10.3901 14.6127 10.3901 15.2572 10.3901 15.8957C10.3901 16.1065 10.4991 16.2149 10.7112 16.2149C11.0687 16.2149 11.4201 16.2149 11.7776 16.2149C11.9896 16.2149 12.1047 16.1065 12.1047 15.8957C12.1047 15.2512 12.1047 14.6067 12.1047 13.9622C12.1047 13.908 12.1169 13.8778 12.1714 13.8477C12.2562 13.8056 12.335 13.7574 12.4016 13.6971C12.6197 13.5044 12.6803 13.2574 12.6803 12.9804C12.6743 12.366 12.6803 11.7456 12.6803 11.1312C12.6803 11.1131 12.6864 11.089 12.6864 11.089C12.8924 11.077 13.0863 11.077 13.2802 11.0468C13.474 11.0167 13.6497 10.9204 13.8133 10.8119C13.8255 10.818 13.8315 10.818 13.8376 10.824C13.8497 10.83 13.8618 10.8421 13.8679 10.8481C14.8797 11.6492 15.4492 12.6852 15.5401 13.9682C15.6007 14.8596 15.3826 15.6909 14.9039 16.4498C14.8797 16.486 14.8373 16.5161 14.8009 16.5281C14.5586 16.5944 14.3223 16.6486 14.0799 16.7088C13.9648 16.7389 13.8497 16.7811 13.7346 16.7811C12.5167 16.7871 11.305 16.7811 10.0871 16.7811C9.89931 16.7811 9.71148 16.7811 9.52366 16.7811C9.36612 16.7811 9.24495 16.9076 9.24495 17.0642C9.24495 17.2329 9.37218 17.3473 9.56607 17.3473C10.9717 17.3473 12.3774 17.3473 13.7891 17.3473C13.8376 17.3473 13.886 17.3413 13.9345 17.3292C14.0375 17.3051 14.1405 17.281 14.2678 17.2509C14.2314 17.2871 14.2193 17.3051 14.2011 17.3232C13.8255 17.6786 13.3953 17.9557 12.9227 18.1544C12.3713 18.3893 11.7897 18.4917 11.1898 18.4917C10.275 18.4917 9.36007 18.4917 8.44518 18.4917C8.28159 18.4917 8.17858 18.552 8.10588 18.6965C7.93623 19.0459 7.75446 19.3952 7.57876 19.7446C7.45152 19.9916 7.57876 20.1964 7.85746 20.1964C7.8817 20.1964 7.90594 20.1964 7.93017 20.1964C9.52366 20.1964 11.1171 20.1964 12.7106 20.1964C13.7346 20.1964 14.7525 20.1903 15.7764 20.2024C16.0672 20.2024 16.2005 19.9614 16.0672 19.7326C15.8915 19.4133 15.734 19.076 15.5704 18.7507C15.5341 18.6724 15.4795 18.6062 15.425 18.5038C15.4371 18.4917 15.4674 18.4797 15.4916 18.4556C16.1218 17.8292 16.6004 17.0943 16.9034 16.251ZM12.959 10.5168C12.4925 10.5168 12.1047 10.1313 12.1047 9.6675C12.1047 9.2037 12.4925 8.81218 12.959 8.81218C13.4316 8.81218 13.8194 9.19767 13.8194 9.6675C13.8194 10.1373 13.4316 10.5168 12.959 10.5168Z" fill="white"/>
</svg>
