<svg width="144" height="144" viewBox="0 0 144 144" fill="none" xmlns="http://www.w3.org/2000/svg">
<path d="M72 0C32.3553 0 0 32.3575 0 72C0 111.645 32.3578 144 72 144C111.644 144 144 111.642 144 72C144 32.3556 111.642 0 72 0ZM72 8.4375C91.4085 8.4375 108.81 17.1841 120.478 30.9395L104.509 42.7373C103.542 42.5641 102.548 42.4688 101.531 42.4688H94.8412L87.6395 35.2668C86.8483 34.4756 85.7753 34.0312 84.6562 34.0312H59.3438C58.2249 34.0312 57.152 34.4756 56.3608 35.2668L49.1588 42.4688H42.4688C33.1639 42.4688 25.5938 50.0389 25.5938 59.3438V93.0938C25.5938 95.5372 26.12 97.859 27.0585 99.9574L18.4967 106.283C12.1326 96.3852 8.4375 84.616 8.4375 72C8.4375 36.9515 36.9515 8.4375 72 8.4375ZM109.969 59.3438V93.0938C109.969 97.7462 106.184 101.531 101.531 101.531H42.4688C41.515 101.531 40.5984 101.37 39.7429 101.077L57.8933 87.6673C61.6334 91.0381 66.5806 93.0938 72 93.0938C83.6311 93.0938 93.0938 83.6311 93.0938 72C93.0938 68.8272 92.3853 65.8178 91.125 63.1159L105.952 52.1612C108.36 53.6487 109.969 56.3116 109.969 59.3438ZM59.3438 72C59.3438 65.0213 65.0213 59.3438 72 59.3438C74.6238 59.3438 77.0633 60.1467 79.0867 61.5192L59.8958 75.6973C59.5378 74.527 59.3438 73.2859 59.3438 72ZM84.6562 72C84.6562 78.9787 78.9787 84.6562 72 84.6562C69.3762 84.6562 66.9367 83.8533 64.9133 82.4808L84.1042 68.3027C84.4622 69.473 84.6562 70.7141 84.6562 72ZM86.1067 56.333C82.3666 52.9619 77.4194 50.9062 72 50.9062C60.3689 50.9062 50.9062 60.3689 50.9062 72C50.9062 75.1731 51.6147 78.1822 52.875 80.8841L34.1851 94.6921C34.0853 94.174 34.0312 93.6402 34.0312 93.0935V59.3438C34.0312 54.6913 37.8163 50.9062 42.4688 50.9062H50.9062C52.0251 50.9062 53.098 50.4619 53.8892 49.6707L61.0912 42.4688H82.9088L90.1105 49.6707C90.9017 50.4619 91.9747 50.9062 93.0938 50.9062H93.4518L86.1067 56.333ZM72 135.562C52.5918 135.562 35.1906 126.816 23.5221 113.061L32.3167 106.563C35.1436 108.699 38.6603 109.969 42.4688 109.969H101.531C110.836 109.969 118.406 102.399 118.406 93.0938V59.3438C118.406 54.4567 116.316 50.0504 112.985 46.9657L125.503 37.7173C131.867 47.6148 135.562 59.384 135.562 72C135.562 107.049 107.049 135.562 72 135.562Z" fill="#DBDBDB"/>
</svg>
