<svg width="40" height="40" viewBox="0 0 40 40" fill="none" xmlns="http://www.w3.org/2000/svg">
<path d="M37.5 9.99951H2.5C1.1225 9.99951 0 11.122 0 12.4995V34.9995C0 36.3795 1.1225 37.4995 2.5 37.4995H37.5C38.88 37.4995 40 36.3795 40 34.9995V12.4995C40 11.122 38.88 9.99951 37.5 9.99951Z" fill="#2196F3"/>
<path d="M40 14.9995H0V22.4995H40V14.9995Z" fill="#455A64"/>
<path d="M11.25 29.9995H6.25C5.56 29.9995 5 29.4395 5 28.7495C5 28.0595 5.56 27.4995 6.25 27.4995H11.25C11.94 27.4995 12.5 28.0595 12.5 28.7495C12.5 29.4395 11.94 29.9995 11.25 29.9995Z" fill="#FAFAFA"/>
<path d="M40 22.3645V12.4995C40 11.122 38.88 9.99951 37.5 9.99951H17.5V12.4995C17.5 20.3295 20.48 25.097 28.14 29.507C28.705 29.8295 29.35 29.9995 30 29.9995C30.65 29.9995 31.295 29.8295 31.8675 29.502C35.6575 27.3245 38.2975 25.052 40 22.3645Z" fill="#FAFAFA"/>
<path d="M39.2425 6.35174L30.4925 2.60174C30.175 2.46674 29.8225 2.46674 29.505 2.60174L20.755 6.35174C20.2975 6.54674 20 6.99924 20 7.49924V12.4992C20 19.3767 22.5425 23.3967 29.3775 27.3342C29.57 27.4442 29.785 27.4992 30 27.4992C30.215 27.4992 30.43 27.4442 30.6225 27.3342C37.4575 23.4067 40 19.3867 40 12.4992V7.49924C40 6.99924 39.7025 6.54674 39.2425 6.35174Z" fill="#009688"/>
<path d="M28.7498 18.7494C28.7323 18.7494 28.7123 18.7494 28.6973 18.7494C28.2998 18.7319 27.9323 18.5269 27.7098 18.1944L25.2098 14.4444C24.8273 13.8694 24.9823 13.0944 25.5573 12.7119C26.1273 12.3319 26.9048 12.4819 27.2898 13.0594L28.8423 15.3869L32.7723 10.4719C33.2048 9.93435 33.9923 9.84935 34.5298 10.2769C35.0698 10.7094 35.1548 11.4944 34.7248 12.0344L29.7248 18.2844C29.4873 18.5769 29.1273 18.7494 28.7498 18.7494Z" fill="#FAFAFA"/>
</svg>
