<svg width="64" height="18" viewBox="0 0 64 18" fill="none" xmlns="http://www.w3.org/2000/svg">
<g clip-path="url(#clip0)">
<path d="M23.4668 18.1934L26.7176 -0.0922852H31.7969L28.6477 18.1934H23.4668Z" fill="#3C58BF"/>
<path d="M23.4668 18.1934L27.6319 -0.0922852H31.7969L28.6477 18.1934H23.4668Z" fill="#293688"/>
<path d="M47.035 0.111038C46.0192 -0.295312 44.3938 -0.70166 42.362 -0.70166C37.2827 -0.70166 33.6255 1.83802 33.6255 5.49517C33.6255 8.23802 36.1652 9.66025 38.1969 10.5745C40.2287 11.4888 40.8382 12.0983 40.8382 12.911C40.8382 14.1301 39.2128 14.7396 37.7906 14.7396C35.7589 14.7396 34.6414 14.4349 32.9144 13.7237L32.2033 13.419L31.4922 17.5841C32.7112 18.092 34.9462 18.5999 37.2827 18.5999C42.6668 18.5999 46.2223 16.0602 46.2223 12.1999C46.2223 10.0666 44.9017 8.4412 41.8541 7.12056C40.0255 6.20628 38.9081 5.69834 38.9081 4.78406C38.9081 3.97136 39.8223 3.15866 41.8541 3.15866C43.5811 3.15866 44.8001 3.46342 45.7144 3.86977L46.2223 4.07294L47.035 0.111038Z" fill="#3C58BF"/>
<path d="M47.035 0.111038C46.0192 -0.295312 44.3938 -0.70166 42.362 -0.70166C37.2827 -0.70166 34.5398 1.83802 34.5398 5.49517C34.5398 8.23802 36.1652 9.66025 38.1969 10.5745C40.2287 11.4888 40.8382 12.0983 40.8382 12.911C40.8382 14.1301 39.2128 14.7396 37.7906 14.7396C35.7589 14.7396 34.6414 14.4349 32.9144 13.7237L32.2033 13.419L31.4922 17.5841C32.7112 18.092 34.9462 18.5999 37.2827 18.5999C42.6668 18.5999 46.2223 16.0602 46.2223 12.1999C46.2223 10.0666 44.9017 8.4412 41.8541 7.12056C40.0255 6.20628 38.9081 5.69834 38.9081 4.78406C38.9081 3.97136 39.8223 3.15866 41.8541 3.15866C43.5811 3.15866 44.8001 3.46342 45.7144 3.86977L46.2223 4.07294L47.035 0.111038Z" fill="#293688"/>
<path d="M55.772 -0.0922852C54.553 -0.0922852 53.6387 0.00930326 53.1308 1.22835L45.5117 18.1934H50.9974L52.0133 15.1458H58.5149L59.1244 18.1934H64.0006L59.7339 -0.0922852H55.772ZM53.4355 12.0982C53.7403 11.1839 55.4673 6.71406 55.4673 6.71406C55.4673 6.71406 55.8736 5.5966 56.1784 4.88549L56.4831 6.61248C56.4831 6.61248 57.499 11.1839 57.7022 12.1998H53.4355V12.0982Z" fill="#3C58BF"/>
<path d="M56.9911 -0.0922852C55.772 -0.0922852 54.8578 0.00930326 54.3498 1.22835L45.5117 18.1934H50.9974L52.0133 15.1458H58.5149L59.1244 18.1934H64.0006L59.7339 -0.0922852H56.9911ZM53.4355 12.0982C53.8419 11.0823 55.4673 6.71406 55.4673 6.71406C55.4673 6.71406 55.8736 5.5966 56.1784 4.88549L56.4831 6.61248C56.4831 6.61248 57.499 11.1839 57.7022 12.1998H53.4355V12.0982Z" fill="#293688"/>
<path d="M14.121 12.7082L13.6131 10.0669C12.6988 7.01929 9.75275 3.66691 6.50195 2.04151L11.0734 18.2955H16.5591L24.7877 0.00976562H19.302L14.121 12.7082Z" fill="#3C58BF"/>
<path d="M14.121 12.7082L13.6131 10.0669C12.6988 7.01929 9.75275 3.66691 6.50195 2.04151L11.0734 18.2955H16.5591L24.7877 0.00976562H20.3178L14.121 12.7082Z" fill="#293688"/>
<path d="M0 -0.0922852L0.914286 0.11089C7.41587 1.6347 11.8857 5.49502 13.6127 10.0664L11.7841 1.43152C11.4794 0.212477 10.5651 -0.0922852 9.44762 -0.0922852H0Z" fill="#FFBC00"/>
<path d="M0 -0.0922852C6.50159 1.43152 11.8857 5.39343 13.6127 9.96486L11.8857 2.75216C11.581 1.53311 10.5651 0.822002 9.44762 0.822002L0 -0.0922852Z" fill="#F7981D"/>
<path d="M0 -0.0922852C6.50159 1.43152 11.8857 5.39343 13.6127 9.96486L12.3937 6.00295C12.0889 4.78391 11.6825 3.56486 10.2603 3.05692L0 -0.0922852Z" fill="#ED7C00"/>
<path d="M19.2003 12.0982L15.7464 8.64422L14.121 12.5045L13.7146 9.96485C12.8003 6.91723 9.85431 3.56485 6.60352 1.93945L11.1749 18.1934H16.6607L19.2003 12.0982Z" fill="#051244"/>
<path d="M28.6477 18.1935L24.2795 13.7236L23.4668 18.1935H28.6477Z" fill="#051244"/>
<path d="M40.3303 11.895C40.7366 12.3014 40.9398 12.6061 40.8382 13.0125C40.8382 14.2315 39.2128 14.8411 37.7906 14.8411C35.7589 14.8411 34.6414 14.5363 32.9144 13.8252L32.2033 13.5204L31.4922 17.6855C32.7112 18.1934 34.9462 18.7014 37.2827 18.7014C40.5335 18.7014 43.1747 17.7871 44.6985 16.1617L40.3303 11.895Z" fill="#051244"/>
<path d="M46.2227 18.1932H50.9973L52.0131 15.1456H58.5147L59.1242 18.1932H64.0004L62.2735 10.7773L56.1782 4.88525L56.483 6.51065C56.483 6.51065 57.4988 11.0821 57.702 12.0979H53.4354C53.8417 11.0821 55.4671 6.71382 55.4671 6.71382C55.4671 6.71382 55.8734 5.59636 56.1782 4.88525" fill="#051244"/>
</g>
<defs>
<clipPath id="clip0">
<rect width="64" height="18" fill="white"/>
</clipPath>
</defs>
</svg>
