<svg width="64" height="38" viewBox="0 0 64 38" fill="none" xmlns="http://www.w3.org/2000/svg">
<g clip-path="url(#clip0)">
<path d="M32 33.222C35.8603 29.7681 38.2984 24.6887 38.2984 18.9998C38.2984 13.3109 35.8603 8.33314 32 4.77758C28.6476 1.72996 24.0762 -0.200195 19.2 -0.200195C8.63492 -0.200195 0 8.43473 0 18.9998C0 29.5649 8.63492 38.0982 19.2 38.0982C24.0762 38.1998 28.6476 36.2697 32 33.222Z" fill="#07A9E2"/>
<path d="M0 18.9998C0 29.5649 8.63492 38.0982 19.2 38.0982C24.1778 38.0982 28.6476 36.2696 32 33.1204C35.8603 29.6665 38.2984 24.5871 38.2984 18.8982C38.2984 13.2093 35.8603 8.33314 32 4.77758C28.6476 1.72996 24.0762 -0.200195 19.2 -0.200195" fill="#009DDD"/>
<path d="M31.9999 4.77758C28.6475 1.72996 24.0761 -0.200195 19.1999 -0.200195C18.8951 -0.200195 18.5904 -0.200195 18.2856 -0.200195C12.292 4.16806 8.43164 11.1776 8.43164 18.9998C8.43164 26.822 12.292 33.8315 18.184 38.0982C18.4888 38.0982 18.7935 38.0982 19.0983 38.0982C24.0761 38.0982 28.5459 36.2696 31.8983 33.1204C35.7586 29.6665 38.1967 24.5871 38.1967 18.8982C38.1967 13.2093 35.8602 8.33314 31.9999 4.77758Z" fill="#0284CC"/>
<path d="M44.9011 -0.200195C39.9233 -0.200195 35.4534 1.62838 31.9995 4.77758C31.2884 5.3871 30.6788 6.09822 30.0693 6.80933H33.9296C34.4376 7.41885 34.9455 8.12996 35.3519 8.84107H28.5455C28.1392 9.55218 27.7328 10.1617 27.4281 10.8728H36.4693C36.7741 11.5839 37.0788 12.1935 37.282 12.9046H26.7169C26.5138 13.6157 26.3106 14.2252 26.1074 14.9363H37.8915C38.1963 16.2569 38.2979 17.5776 38.2979 18.9998C38.2979 21.1331 37.9931 23.1649 37.282 25.095H26.7169C26.9201 25.8061 27.2249 26.4157 27.5296 27.1268H36.5709C36.2661 27.8379 35.8598 28.549 35.4534 29.1585H28.6471C29.0535 29.8696 29.5614 30.5807 30.0693 31.1903H33.9296C33.3201 31.9014 32.7106 32.6125 31.9995 33.222C35.4534 36.2696 39.9233 38.1998 44.9011 38.1998C55.4661 38.1998 63.9995 29.6665 63.9995 19.1014C63.9995 8.43472 55.4661 -0.200195 44.9011 -0.200195Z" fill="#FF2957"/>
<path d="M44.9011 -0.200195C39.9233 -0.200195 35.4534 1.62838 31.9995 4.77758C31.2884 5.3871 30.6788 6.09822 30.0693 6.80933H33.9296C34.4376 7.41885 34.9455 8.12996 35.3519 8.84107H28.5455C28.1392 9.55218 27.7328 10.1617 27.4281 10.8728H36.4693C36.7741 11.5839 37.0788 12.1935 37.282 12.9046H26.7169C26.5138 13.6157 26.3106 14.2252 26.1074 14.9363H37.8915C38.1963 16.2569 38.2979 17.5776 38.2979 18.9998C38.2979 21.1331 37.9931 23.1649 37.282 25.095H26.7169C26.9201 25.8061 27.2249 26.4157 27.5296 27.1268H36.5709C36.2661 27.8379 35.8598 28.549 35.4534 29.1585H28.6471C29.0535 29.8696 29.5614 30.5807 30.0693 31.1903H33.9296C33.3201 31.9014 32.7106 32.6125 31.9995 33.222C35.4534 36.2696 39.9233 38.1998 44.9011 38.1998C55.4661 38.1998 63.9995 29.6665 63.9995 19.1014" fill="#ED1C2E"/>
<path d="M32 33.2223C35.8603 29.7683 38.2984 24.6889 38.2984 19.0001C38.2984 13.3112 35.8603 8.33339 32 4.77783V33.2223V33.2223Z" fill="#0466B5"/>
<path d="M57.3965 23.1652C57.3965 22.8604 57.7012 22.5557 58.006 22.5557C58.3108 22.5557 58.6155 22.8604 58.6155 23.1652C58.6155 23.47 58.3108 23.7747 58.006 23.7747C57.7012 23.7747 57.3965 23.47 57.3965 23.1652ZM58.006 23.6731C58.3108 23.6731 58.4124 23.47 58.4124 23.1652C58.4124 22.8604 58.2092 22.7588 58.006 22.7588C57.7012 22.7588 57.4981 22.962 57.4981 23.1652C57.4981 23.3684 57.8028 23.6731 58.006 23.6731ZM58.006 23.3684H57.9044V22.8604H58.1076C58.2092 22.8604 58.2092 22.8604 58.2092 22.8604L58.3108 22.962C58.3108 23.0636 58.3108 23.0636 58.2092 23.0636L58.3108 23.2668H58.2092L58.1076 23.0636H58.006V23.3684ZM58.006 23.0636C58.1076 23.0636 58.1076 23.0636 58.1076 23.0636C58.1076 23.0636 58.1076 23.0636 58.1076 22.962H58.006V23.0636Z" fill="white"/>
<path d="M31.9995 4.778C31.2884 5.38752 30.6789 6.09863 30.0693 6.80974H33.9296C34.4376 7.41927 34.9455 8.13038 35.3519 8.84149H28.5455C28.1392 9.5526 27.7328 10.1621 27.4281 10.8732H36.4693C36.7741 11.5843 37.0789 12.1939 37.282 12.905H26.7169C26.5138 13.6161 26.3106 14.2256 26.1074 14.9367H37.8915C38.1963 16.2574 38.2979 17.578 38.2979 19.0002C38.2979 21.1335 37.9931 23.1653 37.282 25.0955H26.7169C26.9201 25.8066 27.2249 26.4161 27.5296 27.1272H36.5709C36.2662 27.8383 35.8598 28.5494 35.4535 29.1589H28.6471C29.0535 29.8701 29.5614 30.5812 30.0693 31.1907H33.9296C33.3201 31.9018 32.7106 32.6129 31.9995 33.2224C35.4535 36.2701 39.9233 38.2002 44.9011 38.2002C45.2058 38.2002 45.5106 38.2002 45.8154 38.2002C51.7074 33.9335 55.5677 26.924 55.5677 19.1018C55.5677 11.2796 51.7074 4.27006 45.8154 0.0033936C45.5106 0.0033936 45.2058 0.0033936 44.9011 0.0033936C39.9233 -0.199781 35.4535 1.73038 31.9995 4.778Z" fill="#D1094B"/>
<path d="M16.7623 23.7749H14.3242L15.7464 16.359L12.4956 23.7749H10.3623L9.95594 16.359L8.53372 23.7749H6.40039L8.22896 14.0225H11.9877L12.1909 20.1177L14.8321 14.0225H18.6924L16.7623 23.7749Z" fill="white"/>
<path d="M14.4258 19.5081L15.848 16.3589L14.7306 22.251C14.8322 22.7589 14.9337 23.3685 15.1369 23.8764H16.7623L18.5909 14.124H15.0353C14.629 15.6478 14.3242 17.3748 14.3242 19.1018C14.4258 19.2034 14.4258 19.305 14.4258 19.5081Z" fill="#DCE5E5"/>
<path d="M43.3778 23.6732C42.6667 23.8764 42.2604 23.978 41.6508 23.978C40.4318 23.978 39.8223 23.3685 39.8223 22.251C39.8223 22.0478 39.8223 21.8447 39.9239 21.5399L40.0254 20.7272L40.127 20.1177L41.2445 14.124H43.581L43.2762 15.9526H44.4953L44.1905 17.7812H42.9715L42.3619 21.032C42.3619 21.1335 42.2604 21.3367 42.2604 21.3367C42.2604 21.7431 42.5651 21.9462 43.0731 21.9462C43.3778 21.9462 43.581 21.9462 43.6826 21.8447L43.3778 23.6732Z" fill="#DCE5E5"/>
<path d="M50.3882 15.9527C50.1851 15.8511 50.1851 15.8511 50.0835 15.8511C49.9819 15.8511 49.8803 15.8511 49.8803 15.7495C49.7787 15.7495 49.7787 15.7495 49.5755 15.7495C48.7628 15.7495 48.2549 16.0543 47.5438 17.0701L47.747 15.8511H45.6136L44.1914 23.7749H46.6295C47.4422 18.8987 47.8485 18.086 48.966 18.086C49.0676 18.086 49.1692 18.086 49.2708 18.086L49.5755 18.1876L50.3882 15.9527Z" fill="#DCE5E5"/>
<path d="M33.9299 18.3908C33.9299 19.4067 34.5394 20.1178 35.7585 20.5241C36.7744 20.9305 36.8759 21.0321 36.8759 21.4384C36.8759 21.9463 36.4696 22.1495 35.4537 22.1495C34.7426 22.1495 34.0315 22.0479 33.3204 21.8447L33.0156 23.6733H33.1172L33.5236 23.7749C33.6251 23.7749 33.9299 23.7749 34.1331 23.7749C34.7426 23.8765 35.149 23.8765 35.4537 23.8765C37.9934 23.8765 39.2124 23.0638 39.2124 21.2352C39.2124 20.1178 38.7045 19.5082 37.4855 19.0003C36.4696 18.594 36.368 18.4924 36.368 18.1876C36.368 17.7813 36.7744 17.5781 37.5871 17.5781C37.9934 17.5781 38.7045 17.5781 39.314 17.6797L39.6188 15.8511C39.0093 15.7495 38.095 15.7495 37.4855 15.7495C34.8442 15.7495 33.9299 16.9686 33.9299 18.3908Z" fill="#DCE5E5"/>
<path d="M24.4821 23.7749H22.5519V22.9622C21.9424 23.5718 21.1297 23.8765 20.0122 23.8765C18.6916 23.8765 17.8789 22.9622 17.8789 21.7432C17.8789 19.813 19.4027 18.6956 22.044 18.6956C22.3487 18.6956 22.6535 18.6956 23.0599 18.6956C23.1614 18.3908 23.1614 18.2892 23.1614 18.1876C23.1614 17.6797 22.7551 17.4765 21.6376 17.4765C20.9265 17.4765 20.2154 17.5781 19.7075 17.6797L19.4027 17.7813H19.1995L19.5043 16.0543C20.7234 15.7495 21.4345 15.6479 22.3487 15.6479C24.3805 15.6479 25.498 16.4606 25.498 17.9845C25.498 18.3908 25.498 18.6956 25.2948 19.6099L24.7868 22.4543L24.6853 22.9622L24.5837 23.3686V23.6733L24.4821 23.7749ZM22.7551 20.2194C22.4503 20.2194 22.3487 20.2194 22.2472 20.2194C20.9265 20.2194 20.2154 20.6257 20.2154 21.4384C20.2154 21.9464 20.5202 22.2511 21.0281 22.2511C22.044 22.2511 22.7551 21.4384 22.7551 20.2194Z" fill="#DCE5E5"/>
<path d="M32.3043 23.5718C31.4916 23.7749 30.6789 23.8765 29.8662 23.8765C27.225 23.8765 25.8027 22.6575 25.8027 20.321C25.8027 17.5781 27.5297 15.6479 29.9678 15.6479C31.898 15.6479 33.117 16.7654 33.117 18.4924C33.117 19.1019 33.0154 19.6099 32.8123 20.4226H28.0377C28.0377 20.5241 28.0377 20.6257 28.0377 20.7273C28.0377 21.6416 28.7488 22.1495 30.0694 22.1495C30.9837 22.1495 31.6948 22.0479 32.5075 21.6416L32.3043 23.5718ZM31.0853 18.8987C31.0853 18.7972 31.0853 18.594 31.0853 18.4924C31.0853 17.8829 30.6789 17.4765 29.9678 17.4765C29.2567 17.4765 28.6472 17.9845 28.444 18.8987H31.0853Z" fill="#DCE5E5"/>
<path d="M57.8028 20.2189C57.3965 22.8602 55.5679 23.9776 53.1298 23.9776C50.4886 23.9776 49.3711 22.3522 49.3711 20.3205C49.3711 17.5776 51.1997 15.6475 54.0441 15.6475C56.4822 15.6475 57.8028 17.2729 57.8028 19.203C57.8028 19.711 57.8028 19.711 57.8028 20.2189ZM55.2632 19.203C55.2632 18.3903 54.9584 17.6792 53.9425 17.6792C52.7235 17.6792 52.0124 19.1014 52.0124 20.4221C52.0124 21.4379 52.5203 22.149 53.333 22.149C53.8409 22.149 54.9584 21.4379 55.1616 20.2189C55.2632 19.8125 55.2632 19.5078 55.2632 19.203Z" fill="white"/>
<path d="M49.4727 21.235C49.5743 20.5239 49.6759 19.7112 49.6759 19.0001C49.6759 18.8985 49.6759 18.7969 49.6759 18.7969C49.5743 19.3048 49.4727 19.8127 49.4727 20.4223C49.3711 20.6254 49.3711 20.9302 49.4727 21.235Z" fill="white"/>
</g>
<defs>
<clipPath id="clip0">
<rect width="64" height="38" fill="white"/>
</clipPath>
</defs>
</svg>
