<svg width="87" height="25" viewBox="0 0 87 25" fill="none" xmlns="http://www.w3.org/2000/svg">
<path d="M0 0H84.9615V23.8749H12.6827C15.2 23.8474 17.7174 23.0928 19.797 21.652C22.5059 19.7997 24.4487 16.8496 24.9959 13.5977C25.4748 10.9495 25.0233 8.16411 23.7646 5.80406C18.4015 8.86389 13.0384 11.91 7.67526 14.9698C5.1442 13.5154 2.61315 12.0609 0.0820884 10.6339C-0.123133 13.4879 0.725114 16.4105 2.42161 18.702C4.74744 21.9265 8.64664 23.8749 12.6006 23.8749H0V0ZM17.2933 0.192097C14.0918 1.97585 10.9178 3.80077 7.71631 5.59824C6.27976 4.78869 4.84321 3.9517 3.39299 3.15587C3.02359 3.4303 2.77732 3.86937 2.47633 4.2124C4.24123 5.18661 5.97877 6.2157 7.74367 7.1899C11.4787 5.03568 15.2411 2.90889 18.9898 0.768386C18.4425 0.535126 17.9089 1.63569e-08 17.2933 0.192097ZM39.7308 2.40121C39.1698 2.66191 38.8552 3.2382 38.691 3.81449C38.3353 5.07684 38.2258 6.40779 38.3626 7.71131C38.4721 8.71295 38.9646 9.79693 39.9634 10.1811C41.1947 10.6339 42.7817 10.4007 43.6163 9.31669C44.2456 8.46597 44.3414 7.32711 44.1772 6.31175C44.0678 5.61197 43.6437 4.91218 42.9733 4.65148C41.8514 4.19868 40.6201 4.50055 39.5666 4.98079C39.676 4.47311 39.7581 3.9517 40.0454 3.51262C40.237 3.22448 40.5927 3.12843 40.9074 3.01866C41.8924 2.73052 42.9049 2.57958 43.9173 2.41493C43.8489 2.04446 43.7805 1.68771 43.7121 1.31723C42.3576 1.57794 40.9758 1.79748 39.7308 2.40121ZM60.1434 2.40121C59.2541 2.82656 59.0352 3.89682 58.871 4.78869C58.6658 6.24314 58.5153 7.86224 59.2404 9.19319C59.7877 10.1948 61.0327 10.5104 62.0999 10.3458C62.9618 10.2497 63.81 9.76948 64.2342 8.97366C64.6856 8.12294 64.7404 7.09385 64.5625 6.16081C64.4257 5.47475 63.9605 4.82986 63.2765 4.5966C62.1819 4.19868 60.9917 4.50055 59.9656 4.96707C60.075 4.47311 60.1571 3.9517 60.4307 3.51262C60.6223 3.21076 60.978 3.11471 61.2927 3.01866C62.2777 2.73052 63.3038 2.56586 64.3162 2.41493C64.2615 2.04446 64.1794 1.67398 64.111 1.31723C62.7566 1.59166 61.3747 1.79748 60.1434 2.40121ZM7.72999 8.7404C5.71882 7.62898 3.73502 6.44896 1.71017 5.35126C1.50495 5.7629 1.29973 6.16081 1.09451 6.55873C3.28354 7.80736 5.47256 9.04226 7.67526 10.2909C12.2312 7.71131 16.7734 5.10428 21.3293 2.5247C20.9873 2.18167 20.6179 1.8798 20.2348 1.59166C16.0756 3.97914 11.8891 6.35291 7.72999 8.7404ZM34.053 1.96213C32.9585 2.12678 31.8913 2.71679 31.3304 3.70472C30.619 4.92591 30.5642 6.46268 30.9473 7.80735C31.2894 9.0011 32.3155 9.94786 33.5194 10.2223C34.8192 10.5104 36.201 10.4418 37.446 9.9753C37.3639 9.65972 37.2681 9.34413 37.1587 9.02854C35.8726 9.31669 34.4087 9.5225 33.2458 8.76784C32.247 8.13666 31.9324 6.87431 32.0145 5.7629C32.0418 4.78869 32.4796 3.7596 33.3689 3.30681C34.5182 2.73052 35.8863 2.92261 37.0629 3.32053C37.186 3.00494 37.3228 2.67563 37.446 2.36004C36.3925 1.90724 35.1885 1.8112 34.053 1.96213ZM7.68894 11.8551C5.34943 10.4967 2.99623 9.15203 0.629344 7.8348C0.506212 8.2876 0.39676 8.75412 0.300991 9.20692C2.76364 10.6065 5.23997 11.9923 7.70263 13.4056C12.8468 10.5104 17.991 7.58782 23.1352 4.6652C22.8753 4.28101 22.588 3.92426 22.3007 3.56751C17.4301 6.32547 12.5732 9.11087 7.68894 11.8551ZM47.2145 3.8831C46.2431 4.1438 45.5727 5.0494 45.4086 6.00988C45.2307 7.02525 45.217 8.12294 45.6548 9.08343C46.0105 9.83809 46.8177 10.2497 47.6249 10.3046C48.6237 10.3869 49.6498 10.3046 50.6075 10.0027C50.5391 9.70088 50.4707 9.38529 50.4023 9.08343C49.4309 9.35785 48.3364 9.54995 47.3787 9.12459C46.722 8.809 46.5578 8.02689 46.5167 7.35456C47.9259 7.34083 49.3488 7.34083 50.758 7.35456C50.7853 6.38035 50.7443 5.28266 50.1013 4.48683C49.4035 3.67728 48.1859 3.62239 47.2145 3.8831ZM53.2069 4.4045C53.2069 4.28101 53.2069 4.03403 53.2069 3.91054C52.7828 3.91054 52.3724 3.91054 51.9483 3.91054C51.9483 6.87431 51.9483 9.85181 51.9483 12.8156C52.345 12.8156 52.7555 12.8156 53.1522 12.8156C53.1659 11.9786 53.1522 11.1416 53.1522 10.3046C54.3015 10.4555 55.6149 10.4555 56.5452 9.65971C57.5029 8.85017 57.6808 7.47805 57.5576 6.29802C57.4755 5.35126 57.0241 4.33589 56.0937 3.9517C55.1497 3.52634 54.0278 3.78705 53.2069 4.4045ZM66.0264 4.1438C65.9854 4.45939 66.1632 4.77497 66.2316 5.09056C67.1072 4.8573 68.0649 4.63776 68.9542 4.95335C69.5562 5.24149 69.4057 6.0236 69.4194 6.57245C68.3523 6.65478 67.1893 6.44896 66.2316 7.02525C65.3423 7.54665 65.2192 8.86389 65.7665 9.67344C66.2316 10.3183 67.1072 10.483 67.846 10.3869C68.4754 10.3183 69.009 9.98902 69.5289 9.64599C69.8025 10.2634 70.555 10.4281 71.1569 10.3458C71.3348 10.0988 71.239 9.72832 71.2937 9.42646C71.0475 9.34413 70.637 9.28924 70.6507 8.93249C70.6097 7.75247 70.6781 6.55873 70.6234 5.37871C70.6097 4.65148 70.0487 4.04775 69.351 3.89682C68.2428 3.62239 67.0799 3.73216 66.0264 4.1438ZM83.2103 3.86937C82.3483 4.89846 81.5001 5.94127 80.6518 6.98408C81.3633 7.80735 82.0337 8.65807 82.7588 9.46762C83.2376 10.0027 83.8943 10.3183 84.6058 10.3732C84.6878 10.0576 84.7562 9.74204 84.811 9.42646C83.566 8.97366 82.8682 7.77991 81.9379 6.91548C82.7998 5.88639 83.7028 4.89846 84.5647 3.8831C84.1132 3.86937 83.6617 3.86937 83.2103 3.86937ZM72.3472 3.91054C72.3472 6.0236 72.3472 8.13666 72.3472 10.2497C72.7577 10.2497 73.1818 10.2497 73.5922 10.2497C73.5922 9.35785 73.5922 8.45225 73.5922 7.56037C74.591 7.56037 75.6034 7.56037 76.6021 7.56037C76.6021 8.45225 76.6021 9.35785 76.6021 10.2497C77.0126 10.2497 77.4367 10.2497 77.8471 10.2497C77.8745 8.13666 77.8471 6.0236 77.8608 3.89682C77.4367 3.89682 77.0263 3.89682 76.6021 3.89682C76.6021 4.78869 76.6021 5.69429 76.6021 6.58617C75.5897 6.58617 74.591 6.58617 73.5922 6.58617C73.5922 5.69429 73.5922 4.78869 73.5922 3.89682C73.1818 3.91054 72.7713 3.91054 72.3472 3.91054ZM79.3795 10.2909C79.8036 10.2909 80.214 10.2909 80.6381 10.2909C80.6381 8.16411 80.6381 6.03732 80.6381 3.91054C80.214 3.91054 79.8036 3.91054 79.3931 3.91054C79.3795 6.03732 79.3931 8.16411 79.3795 10.2909ZM61.7715 13.433C62.3324 14.2151 63.3449 14.6817 64.2889 14.4347C64.8635 14.2975 65.3013 13.8858 65.657 13.4468C65.4928 13.2409 65.315 13.0488 65.1508 12.843C64.7677 13.2135 64.3026 13.5565 63.7416 13.5428C63.1807 13.584 62.7018 13.2409 62.3188 12.843C62.1409 13.0351 61.963 13.2272 61.7715 13.433ZM33.9846 13.6526C33.0542 13.8035 32.1376 14.2563 31.5493 15.0247C30.8515 15.9303 30.6463 17.124 30.7284 18.2492C30.7968 19.292 31.1525 20.3622 31.9324 21.0895C32.7122 21.8304 33.8341 22.1048 34.8876 22.0637C36.0231 22.0499 37.2134 21.6932 37.9796 20.8288C38.8688 19.8546 39.1014 18.4413 38.9646 17.1515C38.8688 16.0538 38.3763 14.9424 37.4597 14.2975C36.4609 13.584 35.1612 13.4742 33.9846 13.6526ZM40.4285 15.5598C40.4422 17.6866 40.4285 19.8134 40.4422 21.9265C40.839 21.9265 41.2494 21.9265 41.6462 21.9265C41.6462 21.0209 41.6462 20.1153 41.6462 19.2097C42.6723 19.1822 43.6847 19.1959 44.7108 19.2097C44.7108 20.1153 44.7108 21.0209 44.7108 21.9265C45.1212 21.9265 45.518 21.9265 45.9284 21.9265C45.9284 19.7997 45.9284 17.6729 45.9284 15.5461C45.5317 15.5461 45.1349 15.5461 44.7382 15.5324C44.6971 16.438 44.7245 17.3299 44.7245 18.2217C43.6984 18.2217 42.686 18.2355 41.6598 18.208C41.6735 17.3161 41.6599 16.4243 41.6735 15.5461C41.2494 15.5461 40.839 15.5461 40.4285 15.5598ZM48.5963 15.5461C48.5553 16.8222 48.5005 18.0982 48.2269 19.3469C48.1448 19.6762 48.0627 20.0192 47.8712 20.3074C47.5839 20.6915 47.1324 20.8974 46.7083 21.1032C46.8177 21.4462 46.9272 21.803 47.0366 22.146C47.8575 21.899 48.6647 21.405 48.9794 20.5681C49.4719 19.2783 49.5403 17.8787 49.6771 16.5066C50.2928 16.5066 50.9085 16.5066 51.5105 16.5066C51.5105 18.3178 51.5105 20.1153 51.5105 21.9265C51.9209 21.9265 52.3177 21.9265 52.7281 21.9265C52.7281 19.7997 52.7281 17.6729 52.7281 15.5461C51.36 15.5461 49.9781 15.5461 48.5963 15.5461ZM54.452 15.848C54.534 16.1498 54.6298 16.4517 54.7119 16.7536C55.5875 16.534 56.5452 16.3008 57.4208 16.6164C58.0228 16.9045 57.8723 17.6866 57.886 18.2355C56.8188 18.3178 55.6696 18.112 54.6982 18.6745C53.5353 19.3469 53.6447 21.3776 54.9171 21.8716C55.9432 22.3518 57.1198 21.9951 57.9681 21.3364C58.2691 21.9813 59.0352 22.1048 59.6782 22.0362C59.7056 21.7344 59.733 21.4325 59.7603 21.1306C59.5277 21.0346 59.172 21.0209 59.1173 20.719C59.0352 19.4429 59.1584 18.1531 59.0626 16.8633C58.9942 16.1636 58.3922 15.6559 57.7355 15.5324C56.6547 15.3128 55.4917 15.4226 54.452 15.848ZM60.8275 15.5598C60.8548 17.6866 60.8275 19.8134 60.8412 21.9265C61.2516 21.9265 61.6757 21.9265 62.0862 21.9265C63.1807 20.3485 64.371 18.8392 65.3834 17.2064C65.3287 18.7843 65.356 20.3485 65.356 21.9265C65.7802 21.9265 66.1906 21.9265 66.601 21.9265C66.601 19.7997 66.601 17.6729 66.601 15.5461C66.1769 15.5461 65.7528 15.5461 65.3287 15.5598C64.2478 17.1515 63.0439 18.6471 62.0314 20.2936C62.1272 18.7157 62.0588 17.124 62.0725 15.5461C61.6621 15.5461 61.2379 15.5461 60.8275 15.5598ZM68.2565 15.5461C68.2154 17.6729 68.2428 19.8134 68.2428 21.9402C68.6532 21.9402 69.05 21.9402 69.4604 21.9402C69.4604 21.0346 69.4604 20.1153 69.4604 19.2097C70.4729 19.2097 71.499 19.2097 72.5114 19.2097C72.5114 20.1153 72.5114 21.0346 72.5114 21.9402C72.9218 21.9402 73.3186 21.9402 73.729 21.9402C73.729 19.8134 73.729 17.6866 73.729 15.5461C73.3323 15.5461 72.9218 15.5461 72.5251 15.5461C72.5114 16.438 72.5251 17.3436 72.5251 18.2355C71.499 18.2355 70.4865 18.2355 69.4604 18.2355C69.4604 17.3436 69.4604 16.4517 69.4604 15.5461C69.0637 15.5461 68.6532 15.5461 68.2565 15.5461ZM47.0914 5.118C47.5839 4.55543 48.5963 4.48683 49.0888 5.09056C49.4172 5.48847 49.4446 6.0236 49.4856 6.51756C48.5142 6.51756 47.5428 6.51756 46.5578 6.51756C46.6536 6.0236 46.7493 5.48847 47.0914 5.118ZM53.248 5.24149C53.891 4.91218 54.6709 4.62404 55.3823 4.91219C56.0937 5.20033 56.34 6.03732 56.381 6.7371C56.4221 7.57409 56.2853 8.56202 55.5465 9.08343C54.8761 9.54995 54.0005 9.42646 53.248 9.30296C53.248 7.94457 53.248 6.59989 53.248 5.24149ZM39.5119 5.88639C40.2643 5.5022 41.14 5.20033 42.0019 5.41987C42.5355 5.55708 42.9049 6.06476 42.9869 6.58617C43.0964 7.27223 43.0417 8.02689 42.6723 8.63063C42.0977 9.61855 40.3875 9.64599 39.8539 8.58946C39.4161 7.76619 39.4571 6.79199 39.5119 5.88639ZM59.8971 5.88639C60.677 5.48847 61.58 5.17289 62.4556 5.43359C63.0165 5.59824 63.3449 6.17453 63.3996 6.7371C63.468 7.40944 63.4133 8.15038 63.0165 8.72667C62.3598 9.65971 60.6496 9.60483 60.1845 8.50714C59.8151 7.68386 59.8561 6.76454 59.8971 5.88639ZM67.203 7.57409C67.9008 7.28595 68.6806 7.40944 69.4194 7.35456C69.4194 7.84852 69.4194 8.32876 69.4194 8.82272C68.749 9.24808 67.8871 9.56367 67.1072 9.24808C66.4505 8.93249 66.5189 7.82108 67.203 7.57409ZM34.2582 14.6268C35.1885 14.4759 36.2557 14.6405 36.9261 15.3677C37.6649 16.1636 37.8291 17.3436 37.7196 18.4001C37.6375 19.2783 37.2408 20.1839 36.4472 20.6504C35.64 21.1169 34.6276 21.1718 33.752 20.8836C32.849 20.5681 32.2744 19.6899 32.1102 18.7843C31.9187 17.8375 31.9734 16.7947 32.4249 15.9166C32.7806 15.2168 33.4921 14.7503 34.2582 14.6268ZM55.6012 19.2783C56.3126 18.9627 57.1061 19.0999 57.8586 19.0313C57.8586 19.539 57.8586 20.0329 57.8449 20.5406C57.1609 20.8836 56.34 21.2404 55.5875 20.9385C54.9034 20.6504 54.9445 19.5664 55.6012 19.2783Z" fill="white"/>
<path d="M17.2941 0.191945C17.9098 -0.000151277 18.4433 0.548696 18.9906 0.768235C15.2419 2.90874 11.4795 5.03552 7.74448 7.18975C5.97958 6.21555 4.24205 5.18646 2.47715 4.21225C2.77814 3.8555 3.01072 3.43015 3.3938 3.15572C4.84403 3.95155 6.26689 4.78854 7.71712 5.59809C10.9049 3.80062 14.0927 1.9757 17.2941 0.191945ZM39.7316 2.40106C40.9766 1.79732 42.3584 1.59151 43.6992 1.31708C43.7676 1.68755 43.836 2.04431 43.9044 2.41478C42.892 2.57943 41.8796 2.73037 40.8945 3.01851C40.5798 3.12828 40.2241 3.21061 40.0326 3.51247C39.7453 3.95155 39.6632 4.47296 39.5537 4.98064C40.6072 4.5004 41.8522 4.19853 42.9604 4.65133C43.6445 4.91203 44.0686 5.61181 44.1644 6.31159C44.3285 7.32696 44.2328 8.46582 43.6034 9.31653C42.7689 10.4005 41.1818 10.6338 39.9505 10.181C38.9518 9.79678 38.4592 8.7128 38.3498 7.71116C38.213 6.40764 38.3224 5.07669 38.6781 3.81434C38.856 3.23805 39.1707 2.66176 39.7316 2.40106ZM39.5127 5.88624C39.458 6.79184 39.4306 7.76604 39.8547 8.60303C40.3883 9.65956 42.0848 9.63212 42.6731 8.6442C43.0425 8.04046 43.0972 7.2858 42.9878 6.59974C42.9057 6.06461 42.5363 5.55693 42.0027 5.43344C41.1408 5.20018 40.2652 5.50205 39.5127 5.88624ZM60.1442 2.40106C61.3892 1.79732 62.7711 1.59151 64.0982 1.30336C64.1666 1.67383 64.2486 2.03058 64.3034 2.40106C63.291 2.56571 62.2649 2.71664 61.2798 3.00479C60.9651 3.11456 60.6094 3.21061 60.4179 3.49875C60.1306 3.93783 60.0485 4.44551 59.9527 4.9532C60.9788 4.48668 62.1691 4.19853 63.2636 4.58273C63.9477 4.81599 64.4128 5.44716 64.5496 6.14694C64.7275 7.07998 64.6728 8.10907 64.2213 8.95978C63.7972 9.74189 62.9626 10.2359 62.087 10.3319C61.0335 10.4966 59.7748 10.181 59.2276 9.17932C58.5025 7.83465 58.653 6.22927 58.8582 4.77482C59.0224 3.89667 59.2413 2.82641 60.1442 2.40106ZM59.898 5.88624C59.8432 6.76439 59.8159 7.68371 60.199 8.49326C60.6641 9.59096 62.3743 9.65956 63.031 8.7128C63.4141 8.13651 63.4688 7.39557 63.4141 6.72323C63.3594 6.16066 63.031 5.59809 62.4701 5.41972C61.5945 5.17274 60.6778 5.48832 59.898 5.88624ZM7.7308 8.74025C11.8899 6.35276 16.0765 3.97899 20.2356 1.59151C20.6187 1.87965 20.9881 2.18152 21.3301 2.52455C16.7742 5.10413 12.232 7.69743 7.67608 10.2907C5.48705 9.04211 3.29803 7.8072 1.09532 6.55858C1.30055 6.14694 1.50577 5.74903 1.71099 5.35111C3.73583 6.44881 5.71964 7.62883 7.7308 8.74025ZM34.0538 1.96198C35.203 1.81105 36.3933 1.90709 37.4742 2.35989C37.351 2.67548 37.2142 3.00479 37.0911 3.32038C35.9145 2.92246 34.5463 2.73037 33.3971 3.30665C32.4941 3.75945 32.07 4.78854 32.0426 5.76275C31.9606 6.87416 32.2752 8.15023 33.274 8.76769C34.4369 9.52235 35.9145 9.31653 37.1868 9.02839C37.2963 9.34398 37.3921 9.65956 37.4742 9.97515C36.2292 10.428 34.8336 10.5103 33.5476 10.2221C32.3436 9.94771 31.3175 9.00095 30.9755 7.8072C30.5924 6.46253 30.6471 4.93948 31.3586 3.70457C31.8921 2.71664 32.9456 2.12663 34.0538 1.96198ZM7.68976 11.855C12.574 9.11072 17.4309 6.32532 22.3015 3.56736C22.6025 3.92411 22.8761 4.28086 23.1361 4.66505C17.9919 7.57394 12.8613 10.4966 7.70344 13.4054C5.24079 11.9922 2.76445 10.6063 0.301803 9.20677C0.397573 8.74024 0.507024 8.28745 0.630157 7.83465C2.99704 9.15188 5.35024 10.4966 7.68976 11.855ZM47.2153 3.88294C48.1867 3.62224 49.4043 3.67713 50.1158 4.48668C50.7725 5.28251 50.7998 6.3802 50.7725 7.35441C49.3633 7.35441 47.9404 7.34068 46.5312 7.35441C46.5586 8.01302 46.7228 8.80885 47.3932 9.12444C48.3509 9.5498 49.4454 9.37142 50.4168 9.08327C50.4852 9.38514 50.5536 9.70073 50.622 10.0026C49.6643 10.3045 48.6382 10.3868 47.6394 10.3045C46.8459 10.2496 46.025 9.82422 45.6693 9.08327C45.2315 8.13651 45.2315 7.0251 45.423 6.00973C45.5735 5.04925 46.2439 4.14365 47.2153 3.88294ZM47.0922 5.11785C46.7365 5.48832 46.6407 6.02345 46.5723 6.51741C47.5437 6.51741 48.515 6.51741 49.5001 6.51741C49.4591 6.02345 49.4317 5.48832 49.1033 5.09041C48.6108 4.48668 47.5847 4.55528 47.0922 5.11785ZM53.2078 4.40435C54.0286 3.7869 55.1505 3.52619 56.1219 3.95155C57.0386 4.33574 57.49 5.35111 57.5858 6.29787C57.7089 7.4779 57.5311 8.85001 56.5734 9.65956C55.6431 10.4554 54.3296 10.4554 53.1804 10.3045C53.1804 11.1415 53.1804 11.9784 53.1804 12.8154C52.7836 12.8154 52.3732 12.8154 51.9764 12.8154C51.9764 9.85166 51.9764 6.87416 51.9764 3.91039C52.4006 3.91039 52.811 3.91039 53.2351 3.91039C53.2078 4.03388 53.2078 4.28086 53.2078 4.40435ZM53.2488 5.24134C53.2488 6.59974 53.2488 7.94442 53.2488 9.30281C54.015 9.4263 54.8769 9.5498 55.5473 9.08327C56.2724 8.56187 56.4229 7.57394 56.3819 6.73695C56.3545 6.03717 56.0945 5.20018 55.3831 4.91203C54.6717 4.62389 53.8918 4.91203 53.2488 5.24134ZM66.0272 4.14365C67.067 3.73201 68.2436 3.63596 69.3381 3.86922C70.0359 4.02016 70.5968 4.62389 70.6105 5.35111C70.6652 6.53113 70.5968 7.72488 70.6379 8.9049C70.6242 9.26165 71.0346 9.31653 71.2809 9.39886C71.2262 9.70073 71.3219 10.0712 71.1441 10.3182C70.5421 10.4142 69.7896 10.2359 69.516 9.6184C69.0098 9.96143 68.4625 10.2907 67.8332 10.3593C67.0944 10.4554 66.2188 10.3045 65.7536 9.64584C65.1927 8.83629 65.3295 7.53278 66.2188 6.99765C67.1765 6.43509 68.3531 6.62718 69.4065 6.54486C69.3792 5.99601 69.5434 5.2139 68.9414 4.92576C68.0658 4.62389 67.0944 4.84343 66.2188 5.06297C66.164 4.77482 65.9999 4.45923 66.0272 4.14365ZM67.2038 7.57394C66.5198 7.82093 66.4514 8.93234 67.1081 9.24793C67.8879 9.57724 68.7498 9.24793 69.4202 8.82257C69.4065 8.32861 69.4202 7.84837 69.4202 7.35441C68.6814 7.40929 67.9016 7.29952 67.2038 7.57394ZM83.2111 3.86922C83.6626 3.86922 84.1277 3.86922 84.5792 3.86922C83.7173 4.88459 82.8143 5.88624 81.9524 6.90161C82.8827 7.76604 83.5805 8.95978 84.8255 9.41258C84.7708 9.72817 84.6887 10.0438 84.6203 10.3593C83.9088 10.3182 83.2384 9.98887 82.7733 9.45375C82.0481 8.6442 81.3641 7.79348 80.6663 6.97021C81.5009 5.94112 82.3491 4.89831 83.2111 3.86922ZM72.348 3.91039C72.7722 3.91039 73.1826 3.91039 73.6067 3.91039C73.6067 4.80226 73.6067 5.70786 73.6067 6.59974C74.6055 6.59974 75.6179 6.59974 76.6166 6.59974C76.6166 5.70786 76.6166 4.80226 76.6166 3.91039C77.0408 3.91039 77.4512 3.91039 77.8753 3.91039C77.8753 6.02345 77.889 8.15023 77.8616 10.2633C77.4512 10.2633 77.0271 10.2633 76.6166 10.2633C76.6166 9.37142 76.6166 8.46582 76.6166 7.57394C75.6042 7.57394 74.6055 7.57394 73.6067 7.57394C73.6067 8.46582 73.6067 9.37142 73.6067 10.2633C73.1826 10.2633 72.7722 10.2633 72.3617 10.2633C72.348 8.13651 72.348 6.02345 72.348 3.91039ZM79.3803 10.2907C79.394 8.16395 79.3666 6.03717 79.394 3.91039C79.8044 3.91039 80.2285 3.91039 80.639 3.91039C80.639 6.03717 80.639 8.16395 80.639 10.2907C80.2285 10.2907 79.8044 10.2907 79.3803 10.2907ZM7.67608 14.9559C13.0392 11.8961 18.4023 8.85001 23.7654 5.79019C25.0241 8.15023 25.4756 10.9356 24.9967 13.5838C24.4495 16.8357 22.5067 19.7858 19.7978 21.6382C17.7182 23.0789 15.2008 23.8336 12.6835 23.861H12.6151C8.66114 23.861 4.74826 21.9126 2.4361 18.6881C0.739608 16.3829 -0.108639 13.4741 0.0965822 10.62C2.61396 12.0608 5.14502 13.5152 7.67608 14.9559Z" fill="#299E30"/>
<path d="M61.7717 13.4333C61.9496 13.2412 62.1411 13.0354 62.3327 12.8433C62.7021 13.2275 63.1809 13.5705 63.7555 13.543C64.3165 13.5568 64.7816 13.2275 65.1647 12.8433C65.3289 13.0491 65.5068 13.2412 65.6709 13.447C65.3152 13.8861 64.8637 14.2977 64.3028 14.4349C63.3451 14.6819 62.3327 14.2017 61.7717 13.4333ZM33.9848 13.6528C35.1614 13.4744 36.4611 13.5842 37.4736 14.2977C38.3902 14.9426 38.8828 16.054 38.9785 17.1517C39.1153 18.4278 38.8964 19.8411 37.9935 20.829C37.2136 21.6934 36.0233 22.0639 34.9015 22.0639C33.848 22.1051 32.7261 21.8306 31.9463 21.0897C31.1664 20.3625 30.8107 19.2922 30.7423 18.2494C30.6602 17.1243 30.8518 15.9305 31.5632 15.0249C32.1378 14.2565 33.0545 13.8037 33.9848 13.6528ZM34.2584 14.627C33.4923 14.7368 32.7809 15.217 32.4251 15.9168C31.9736 16.7812 31.9326 17.8241 32.1105 18.7845C32.2883 19.6901 32.8629 20.5683 33.7522 20.8839C34.6278 21.172 35.6403 21.1171 36.4475 20.6506C37.2273 20.1841 37.6241 19.2785 37.7198 18.4003C37.8293 17.3438 37.6788 16.1775 36.9263 15.368C36.2559 14.6545 35.1888 14.4761 34.2584 14.627ZM40.4288 15.5601C40.8392 15.5463 41.2496 15.5463 41.6601 15.5601C41.6464 16.4519 41.6601 17.3438 41.6464 18.222C42.6725 18.2494 43.6849 18.2357 44.711 18.2357C44.7247 17.3438 44.6837 16.4382 44.7247 15.5463C45.1215 15.5601 45.5182 15.5601 45.915 15.5601C45.915 17.6868 45.915 19.8136 45.915 21.9404C45.5046 21.9404 45.1078 21.9404 44.6974 21.9404C44.6974 21.0348 44.6974 20.1292 44.6974 19.2236C43.6712 19.2099 42.6588 19.2099 41.6327 19.2236C41.6327 20.1292 41.6327 21.0348 41.6327 21.9404C41.236 21.9404 40.8255 21.9404 40.4288 21.9404C40.4288 19.8136 40.4424 17.6868 40.4288 15.5601ZM48.5966 15.5463C49.9784 15.5463 51.3602 15.5463 52.742 15.5463C52.742 17.6731 52.742 19.7999 52.742 21.9267C52.3316 21.9267 51.9348 21.9267 51.5244 21.9267C51.5244 20.1155 51.5244 18.318 51.5244 16.5068C50.9087 16.5068 50.293 16.5068 49.6911 16.5068C49.5543 17.8789 49.4858 19.2785 48.9933 20.5683C48.6923 21.4053 47.8714 21.8992 47.0506 22.1462C46.9411 21.8032 46.8317 21.4464 46.7222 21.1034C47.1463 20.8976 47.5978 20.6918 47.8851 20.3076C48.0767 20.0194 48.1724 19.6764 48.2408 19.3471C48.5008 18.0985 48.5555 16.8224 48.5966 15.5463ZM54.4522 15.8482C55.4783 15.4091 56.6549 15.3131 57.7494 15.5189C58.4061 15.6424 59.0081 16.1638 59.0765 16.8498C59.1723 18.1259 59.0491 19.4157 59.1312 20.7055C59.186 21.0074 59.5417 21.0211 59.7743 21.1171C59.7469 21.419 59.7195 21.7209 59.6922 22.0227C59.0491 22.0913 58.283 21.9679 57.982 21.323C57.1337 21.9953 55.9571 22.3383 54.931 21.8581C53.6587 21.3641 53.5492 19.3334 54.7121 18.661C55.6698 18.0985 56.8328 18.3043 57.8999 18.222C57.8725 17.6731 58.0367 16.891 57.4347 16.6029C56.5591 16.301 55.6014 16.5205 54.7258 16.7401C54.6301 16.4519 54.548 16.1501 54.4522 15.8482ZM55.6014 19.2785C54.9447 19.5666 54.9174 20.6506 55.5877 20.9388C56.3539 21.2406 57.1611 20.8839 57.8452 20.5408C57.8589 20.0332 57.8589 19.5392 57.8589 19.0315C57.1064 19.1001 56.2992 18.9629 55.6014 19.2785ZM60.8277 15.5601C61.2518 15.5463 61.676 15.5463 62.0864 15.5463C62.0727 17.1243 62.1275 18.7159 62.0454 20.2939C63.0441 18.6473 64.2618 17.1517 65.3426 15.5601C65.7667 15.5463 66.1908 15.5463 66.615 15.5463C66.615 17.6731 66.615 19.7999 66.615 21.9267C66.1908 21.9267 65.7804 21.9267 65.3699 21.9267C65.3699 20.3488 65.3426 18.7845 65.3973 17.2066C64.3849 18.8394 63.1946 20.3488 62.1001 21.9267C61.676 21.9267 61.2655 21.9267 60.8551 21.9267C60.814 19.8136 60.8414 17.6868 60.8277 15.5601ZM68.2567 15.5463C68.6535 15.5463 69.0502 15.5601 69.4607 15.5601C69.4607 16.4519 69.4607 17.3438 69.4607 18.2494C70.4868 18.2494 71.4992 18.2494 72.5253 18.2494C72.5253 17.3575 72.5253 16.4519 72.5253 15.5601C72.9221 15.5601 73.3325 15.5601 73.7293 15.5601C73.743 17.6868 73.7293 19.8136 73.7293 21.9541C73.3188 21.9541 72.9221 21.9541 72.5116 21.9541C72.5116 21.0485 72.5116 20.1292 72.5116 19.2236C71.4855 19.2236 70.4731 19.2236 69.4607 19.2236C69.4607 20.1292 69.4607 21.0485 69.4607 21.9541C69.0502 21.9541 68.6535 21.9541 68.243 21.9541C68.2567 19.7999 68.2294 17.6731 68.2567 15.5463Z" fill="#F59624"/>
</svg>
