<svg width="73" height="33" viewBox="0 0 73 33" fill="none" xmlns="http://www.w3.org/2000/svg">
<path d="M35.7754 18.6642H36.9098V21.1945H37.7295L39.2003 18.6642H40.4405L38.6752 21.6338V21.6546L40.5457 24.8953H39.2636L37.7504 22.1766H36.9314V24.8953H35.7963V18.6636H35.7754V18.6642ZM43.0882 20.3164C44.4532 20.3164 45.5674 21.2991 45.5674 22.6582C45.5674 24.0387 44.4747 25.0006 43.1091 25.0006C41.7428 25.0006 40.6502 24.0387 40.6502 22.6582C40.6293 21.2783 41.7219 20.3164 43.0882 20.3164ZM46.4497 20.4204H47.5215V23.934H48.9295V20.421H50.0006V23.934H51.4087V20.421H52.4805V24.8953H46.4915V20.4204H46.4497ZM55.6539 20.3164C56.9353 20.3164 57.6498 21.2575 57.6498 22.4287C57.6463 22.5758 57.6323 22.7224 57.608 22.8675H54.5188C54.5822 23.6409 55.1915 24.0595 55.8642 24.0595C56.326 24.0595 56.7883 23.8502 57.1456 23.5785L57.5871 24.3734C57.1247 24.7699 56.4311 25.0214 55.78 25.0214C54.2876 25.0214 53.3635 23.9548 53.3635 22.679C53.3635 21.2783 54.3085 20.3164 55.6539 20.3164ZM58.1749 23.9548C58.7215 23.871 59.1206 23.4115 59.1206 21.8217V20.421H62.3992V24.8953H61.285V21.3193H60.1923V21.821C60.1923 23.7657 59.6672 24.8953 58.1749 24.9369V23.9542V23.9548ZM65.5928 20.3164C66.8742 20.3164 67.5887 21.2575 67.5887 22.4287C67.5852 22.5758 67.5712 22.7224 67.5469 22.8675H64.4577C64.5211 23.6409 65.1304 24.0595 65.8031 24.0595C66.2649 24.0595 66.7273 23.8502 67.0845 23.5785L67.526 24.3734C67.0636 24.7699 66.37 25.0214 65.7189 25.0214C64.2272 25.0214 63.3024 23.9548 63.3024 22.679C63.3024 21.2783 64.2481 20.3164 65.5928 20.3164ZM68.5135 20.4204H69.6271V22.1356H70.1737L71.2663 20.421H72.5059L71.0769 22.5535V22.575L72.6738 24.8953H71.3715L70.1946 23.0767H69.6068V24.8953H68.492V20.4204H68.5129H68.5135ZM43.0882 24.0387C43.8236 24.0387 44.4329 23.4739 44.4329 22.6374C44.4329 21.8217 43.8236 21.2361 43.0875 21.2361C42.3528 21.2361 41.7644 21.8015 41.7644 22.6374C41.7644 23.4739 42.3521 24.0387 43.0882 24.0387ZM56.5154 22.094C56.5154 21.5084 56.1157 21.1529 55.6115 21.1529C55.0446 21.1529 54.624 21.5292 54.5188 22.094H56.5154ZM66.4543 22.094C66.4543 21.5084 66.0552 21.1529 65.551 21.1529C64.9828 21.1529 64.5629 21.5292 64.4577 22.094H66.4543Z" fill="#2D3540"/>
<path d="M51.4714 5.09258V15.653C51.4723 15.6916 51.4653 15.73 51.4508 15.7659C51.4364 15.8018 51.4147 15.8344 51.3873 15.8618C51.3598 15.8891 51.327 15.9106 51.291 15.925C51.2549 15.9394 51.2163 15.9463 51.1775 15.9454H49.0131C48.9742 15.9463 48.9356 15.9394 48.8996 15.925C48.8635 15.9106 48.8307 15.8891 48.8033 15.8618C48.7758 15.8344 48.7542 15.8018 48.7397 15.7659C48.7253 15.73 48.7183 15.6916 48.7192 15.653V5.09258C48.7183 5.05393 48.7253 5.0155 48.7397 4.97961C48.7542 4.94372 48.7758 4.91112 48.8033 4.88379C48.8307 4.85645 48.8635 4.83494 48.8996 4.82055C48.9356 4.80617 48.9742 4.79921 49.0131 4.8001H51.1775C51.2163 4.79921 51.2549 4.80617 51.291 4.82055C51.327 4.83494 51.3598 4.85645 51.3873 4.88379C51.4147 4.91112 51.4364 4.94372 51.4508 4.97961C51.4653 5.0155 51.4723 5.05393 51.4714 5.09258ZM68.3658 4.8001C68.4501 4.8001 68.5552 4.8417 68.6597 4.92554C68.7231 4.98794 68.7231 5.09258 68.7022 5.17642L65.1297 15.7576C65.108 15.8124 65.0705 15.8595 65.0219 15.893C64.9733 15.9266 64.9158 15.9451 64.8567 15.9461H62.9235C62.7975 15.9461 62.6923 15.883 62.6505 15.7576L60.5691 9.58893L58.489 15.757C58.4673 15.8117 58.4298 15.8588 58.3812 15.8924C58.3326 15.9259 58.2751 15.9444 58.216 15.9454H56.2828C56.1567 15.9454 56.0516 15.883 56.0098 15.757L52.4373 5.17577C52.4164 5.09258 52.4164 5.00873 52.4791 4.92554C52.5216 4.8417 52.6267 4.8001 52.7103 4.8001H55.1268C55.2528 4.8001 55.358 4.88329 55.4004 5.00874L57.3121 11.2613L59.4138 5.00874C59.4354 4.95398 59.4729 4.90685 59.5215 4.8733C59.5701 4.83975 59.6276 4.82129 59.6868 4.82025H61.3887C61.5148 4.82025 61.6199 4.88329 61.6617 5.00874L63.7634 11.2613L65.6757 5.00874C65.6929 4.9495 65.7286 4.89729 65.7777 4.85975C65.8269 4.8222 65.8868 4.8013 65.9487 4.8001H68.3652H68.3658ZM72.0219 4.8001C72.1689 4.8001 72.2949 4.92554 72.3158 5.09258V15.653C72.3167 15.6916 72.3097 15.73 72.2953 15.7659C72.2808 15.8018 72.2592 15.8344 72.2317 15.8618C72.2043 15.8891 72.1715 15.9106 72.1354 15.925C72.0994 15.9394 72.0608 15.9463 72.0219 15.9454H69.8575C69.8187 15.9463 69.7801 15.9394 69.744 15.925C69.708 15.9106 69.6752 15.8891 69.6477 15.8618C69.6203 15.8344 69.5986 15.8018 69.5842 15.7659C69.5697 15.73 69.5627 15.6916 69.5636 15.653V5.09258C69.5627 5.05393 69.5697 5.0155 69.5842 4.97961C69.5986 4.94372 69.6203 4.91112 69.6477 4.88379C69.6752 4.85645 69.708 4.83494 69.744 4.82055C69.7801 4.80617 69.8187 4.79921 69.8575 4.8001H72.0219ZM47.458 15.5698C47.5841 15.716 47.4789 15.9246 47.2895 15.9246H44.6419C44.5897 15.926 44.538 15.9155 44.4906 15.8937C44.4433 15.8719 44.4016 15.8396 44.3689 15.7992L43.928 15.2558C43.0032 15.8408 41.9099 16.197 40.7546 16.197C37.5191 16.197 34.8923 13.5829 34.8923 10.3624C34.8923 7.14187 37.5191 4.52777 40.7546 4.52777C43.9907 4.52777 46.6175 7.14187 46.6175 10.3624C46.6175 11.5128 46.2812 12.6002 45.6927 13.5198L47.458 15.5691V15.5698ZM25.3309 20.6927C25.8775 20.902 26.0878 21.717 26.1296 22.0725C26.2139 22.7212 26.0251 22.9721 25.8148 22.9721C25.6045 22.9721 25.31 22.7212 24.9952 22.2194C24.6797 21.717 24.5537 21.1528 24.7222 20.8597C24.8267 20.6712 25.0579 20.588 25.3315 20.6927H25.3309ZM22.1372 23.0559C22.4736 23.0559 22.8517 23.2021 23.1881 23.4946C23.8392 24.0386 24.0286 24.6658 23.6923 25.126C23.5029 25.3561 23.1881 25.5023 22.8308 25.5023C22.4736 25.5023 22.0954 25.3769 21.8433 25.1468C21.2549 24.645 21.087 23.8079 21.4645 23.3484C21.6121 23.1599 21.8433 23.0559 22.1372 23.0559ZM14.7833 29.0991C6.79777 29.0991 0.326172 22.6581 0.326172 14.7118C0.326172 6.76555 6.79843 0.325195 14.7826 0.325195C22.7675 0.325195 29.2397 6.7662 29.2397 14.7118C29.2397 17.4091 28.4834 19.94 27.202 22.094C27.1596 22.1564 27.0544 22.1356 27.0335 22.0517C26.5293 18.5179 24.365 16.5726 21.2131 15.9877C20.9394 15.9454 20.8976 15.7784 21.2549 15.7368C22.2215 15.653 23.5871 15.6738 24.3016 15.7992C24.3434 15.4437 24.365 15.0674 24.365 14.691C24.365 9.44204 20.078 5.17577 14.8035 5.17577C9.52971 5.17577 5.24274 9.44204 5.24274 14.691C5.24274 19.94 9.52971 24.2063 14.8042 24.2063H15.245C15.0952 23.3573 15.0318 22.4955 15.0556 21.6338C15.0772 21.0482 15.2032 20.9644 15.4553 21.4245C16.7792 23.7039 18.6705 25.7532 22.3684 26.5689C25.3942 27.2383 28.4201 28.0118 31.6771 32.1311C31.971 32.4867 31.5301 32.863 31.1938 32.5705C27.8741 29.6425 24.8482 28.6806 22.0954 28.6806C19.0062 28.702 16.9052 29.0991 14.7826 29.0991H14.7833ZM42.2045 13.2274L41.0485 11.8261C40.9231 11.6798 41.0282 11.4497 41.217 11.4497H43.6544C43.7804 11.115 43.8438 10.7387 43.8438 10.3624C43.8438 8.62701 42.5408 7.12107 40.7546 7.12107C38.969 7.12107 37.6654 8.62701 37.6654 10.3624C37.6654 12.0977 38.969 13.5829 40.7546 13.5829C41.2588 13.6037 41.7636 13.4574 42.2045 13.2274Z" fill="#FF8C00"/>
</svg>
