<svg width="64" height="38" viewBox="0 0 64 38" fill="none" xmlns="http://www.w3.org/2000/svg">
<g clip-path="url(#clip0)">
<path d="M63.9996 18.9998C63.9996 29.5649 55.4663 38.1998 44.7996 38.1998C34.2345 38.1998 25.5996 29.5649 25.5996 18.9998C25.5996 8.43473 34.1329 -0.200195 44.698 -0.200195C55.4663 -0.200195 63.9996 8.43473 63.9996 18.9998Z" fill="#FFB600"/>
<path d="M44.7996 -0.200195C55.3647 -0.200195 63.9996 8.43473 63.9996 18.9998C63.9996 29.5649 55.4663 38.1998 44.7996 38.1998C34.2345 38.1998 25.5996 29.5649 25.5996 18.9998" fill="#F7981D"/>
<path d="M44.8008 -0.200195C55.3659 -0.200195 64.0008 8.43473 64.0008 18.9998C64.0008 29.5649 55.4674 38.1998 44.8008 38.1998" fill="#FF8500"/>
<path d="M18.9968 -0.200195C8.53333 -0.098608 0 8.43473 0 18.9998C0 29.5649 8.53333 38.1998 19.2 38.1998C24.1778 38.1998 28.6476 36.2696 32.1016 33.222C32.8127 32.6125 33.4222 31.9014 34.0317 31.1903H30.0698C29.5619 30.5808 29.054 29.8696 28.6476 29.2601H35.454C35.8603 28.6506 36.2667 27.9395 36.5714 27.2284H27.5302C27.2254 26.6189 26.9206 25.9077 26.7175 25.1966H37.2825C37.8921 23.2665 38.2984 21.2347 38.2984 19.1014C38.2984 17.6792 38.0952 16.3585 37.8921 15.0379H26.1079C26.2095 14.3268 26.4127 13.7173 26.6159 13.0062H37.181C36.9778 12.295 36.673 11.5839 36.3683 10.9744H27.4286C27.7333 10.2633 28.1397 9.65377 28.546 8.94266H35.3524C34.946 8.23155 34.4381 7.52044 33.8286 6.91092H30.0698C30.6794 6.19981 31.2889 5.59028 32 4.98076C28.6476 1.83155 24.0762 0.00297911 19.0984 0.00297911C19.0984 -0.200196 19.0984 -0.200195 18.9968 -0.200195Z" fill="#FF5050"/>
<path d="M0 19.0002C0 29.5653 8.53333 38.2002 19.2 38.2002C24.1778 38.2002 28.6476 36.2701 32.1016 33.2225C32.8127 32.6129 33.4222 31.9018 34.0317 31.1907H30.0698C29.5619 30.5812 29.054 29.8701 28.6476 29.2606H35.454C35.8603 28.651 36.2667 27.9399 36.5714 27.2288H27.5302C27.2254 26.6193 26.9206 25.9082 26.7175 25.1971H37.2825C37.8921 23.2669 38.2984 21.2352 38.2984 19.1018C38.2984 17.6796 38.0952 16.359 37.8921 15.0383H26.1079C26.2095 14.3272 26.4127 13.7177 26.6159 13.0066H37.181C36.9778 12.2955 36.673 11.5844 36.3683 10.9748H27.4286C27.7333 10.2637 28.1397 9.65421 28.546 8.9431H35.3524C34.946 8.23199 34.4381 7.52088 33.8286 6.91136H30.0698C30.6794 6.20024 31.2889 5.59072 32 4.9812C28.6476 1.83199 24.0762 0.00341797 19.0984 0.00341797H18.9968" fill="#E52836"/>
<path d="M19.1993 38.2002C24.177 38.2002 28.6469 36.2701 32.1009 33.2225C32.812 32.6129 33.4215 31.9018 34.031 31.1907H30.0691C29.5612 30.5812 29.0532 29.8701 28.6469 29.2606H35.4532C35.8596 28.651 36.2659 27.9399 36.5707 27.2288H27.5294C27.2247 26.6193 26.9199 25.9082 26.7167 25.1971H37.2818C37.8913 23.2669 38.2977 21.2352 38.2977 19.1018C38.2977 17.6796 38.0945 16.359 37.8913 15.0383H26.1072C26.2088 14.3272 26.412 13.7177 26.6151 13.0066H37.1802C36.977 12.2955 36.6723 11.5844 36.3675 10.9748H27.4278C27.7326 10.2637 28.139 9.65421 28.5453 8.9431H35.3516C34.9453 8.23199 34.4374 7.52088 33.8278 6.91136H30.0691C30.6786 6.20024 31.2882 5.59072 31.9993 4.9812C28.6469 1.83199 24.0755 0.00341797 19.0977 0.00341797H18.9961" fill="#CB2026"/>
<path d="M26.0066 23.8762L26.3113 22.1492C26.2098 22.1492 26.0066 22.2508 25.8034 22.2508C25.0923 22.2508 24.9907 21.8445 25.0923 21.6413L25.7018 18.0857H26.8193L27.124 16.1556H26.1082L26.3113 14.9365H24.2796C24.2796 14.9365 23.0605 21.6413 23.0605 22.454C23.0605 23.673 23.7717 24.181 24.6859 24.181C25.2955 24.181 25.8034 23.9778 26.0066 23.8762Z" fill="white"/>
<path d="M26.7168 20.6258C26.7168 23.4702 28.647 24.1813 30.2724 24.1813C31.7962 24.1813 32.4057 23.8766 32.4057 23.8766L32.812 21.9464C32.812 21.9464 31.6946 22.4544 30.6787 22.4544C28.4438 22.4544 28.8501 20.829 28.8501 20.829H33.0152C33.0152 20.829 33.32 19.5083 33.32 19.0004C33.32 17.6798 32.6089 16.0544 30.3739 16.0544C28.2406 15.8512 26.7168 18.0861 26.7168 20.6258ZM30.2724 17.6798C31.3898 17.6798 31.1866 19.0004 31.1866 19.102H28.9517C28.9517 19.0004 29.1549 17.6798 30.2724 17.6798Z" fill="white"/>
<path d="M43.1732 23.8764L43.5796 21.6415C43.5796 21.6415 42.5637 22.1494 41.8526 22.1494C40.4304 22.1494 39.8209 21.032 39.8209 19.8129C39.8209 17.3748 41.0399 16.0542 42.4621 16.0542C43.478 16.0542 44.2907 16.6637 44.2907 16.6637L44.5955 14.5304C44.5955 14.5304 43.3764 14.0225 42.2589 14.0225C39.9224 14.0225 37.5859 16.0542 37.5859 19.9145C37.5859 22.4542 38.805 24.1812 41.2431 24.1812C42.0558 24.1812 43.1732 23.8764 43.1732 23.8764Z" fill="white"/>
<path d="M14.831 15.8511C13.4088 15.8511 12.3929 16.2574 12.3929 16.2574L12.0882 17.9844C12.0882 17.9844 13.0024 17.5781 14.3231 17.5781C15.0342 17.5781 15.6437 17.6796 15.6437 18.2892C15.6437 18.6955 15.5421 18.7971 15.5421 18.7971C15.5421 18.7971 14.9326 18.7971 14.6278 18.7971C12.9009 18.7971 10.9707 19.5082 10.9707 21.8447C10.9707 23.6733 12.1897 24.0796 12.9009 24.0796C14.3231 24.0796 14.9326 23.1654 15.0342 23.1654L14.9326 23.9781H16.7612L17.5739 18.3908C17.5739 15.9527 15.5421 15.8511 14.831 15.8511ZM15.2374 20.4225C15.2374 20.7273 15.0342 22.3527 13.8151 22.3527C13.2056 22.3527 13.0024 21.8447 13.0024 21.54C13.0024 21.032 13.3072 20.3209 14.831 20.3209C15.1358 20.4225 15.2374 20.4225 15.2374 20.4225Z" fill="white"/>
<path d="M19.5045 24.0797C20.0124 24.0797 22.5521 24.1813 22.5521 21.4384C22.5521 18.8987 20.114 19.4067 20.114 18.3908C20.114 17.8828 20.5204 17.6797 21.2315 17.6797C21.5362 17.6797 22.6537 17.7813 22.6537 17.7813L22.9584 15.9527C22.9584 15.9527 22.2473 15.7495 21.0283 15.7495C19.5045 15.7495 17.9807 16.359 17.9807 18.3908C17.9807 20.7273 20.5204 20.5241 20.5204 21.4384C20.5204 22.0479 19.8092 22.1495 19.3013 22.1495C18.387 22.1495 17.4727 21.8447 17.4727 21.8447L17.168 23.6733C17.2696 23.8765 17.7775 24.0797 19.5045 24.0797Z" fill="white"/>
<path d="M60.0385 14.2256L59.6322 16.9684C59.6322 16.9684 58.8195 15.9526 57.702 15.9526C55.8734 15.9526 54.248 18.1875 54.248 20.8288C54.248 22.4542 55.0607 24.1811 56.7877 24.1811C58.0068 24.1811 58.7179 23.3684 58.7179 23.3684L58.6163 24.0796H60.648L62.1719 14.3272L60.0385 14.2256ZM59.1242 19.6097C59.1242 20.7272 58.6163 22.1494 57.4988 22.1494C56.7877 22.1494 56.3814 21.5399 56.3814 20.524C56.3814 18.8986 57.0925 17.8827 58.0068 17.8827C58.7179 17.8827 59.1242 18.3907 59.1242 19.6097Z" fill="white"/>
<path d="M3.75828 23.978L4.97733 16.6637L5.18051 23.978H6.60273L9.244 16.6637L8.12654 23.978H10.2599L11.8853 14.2256H8.53289L6.50114 20.2192L6.39955 14.2256H3.45352L1.82812 23.978H3.75828Z" fill="white"/>
<path d="M35.2505 23.978C35.8601 20.6256 35.9617 17.8828 37.3839 18.3907C37.5871 17.0701 37.8918 16.5621 38.095 16.0542C38.095 16.0542 37.9934 16.0542 37.6886 16.0542C36.7744 16.0542 36.0632 17.2732 36.0632 17.2732L36.2664 16.1558H34.3363L33.0156 24.0796H35.2505V23.978Z" fill="white"/>
<path d="M47.8466 15.8511C46.4244 15.8511 45.4086 16.2574 45.4086 16.2574L45.1038 17.9844C45.1038 17.9844 46.0181 17.5781 47.3387 17.5781C48.0498 17.5781 48.6593 17.6796 48.6593 18.2892C48.6593 18.6955 48.5578 18.7971 48.5578 18.7971C48.5578 18.7971 47.9482 18.7971 47.6435 18.7971C45.9165 18.7971 43.9863 19.5082 43.9863 21.8447C43.9863 23.6733 45.2054 24.0796 45.9165 24.0796C47.3387 24.0796 47.9482 23.1654 48.0498 23.1654L47.9482 23.9781H49.7768L50.5895 18.3908C50.6911 15.9527 48.5578 15.8511 47.8466 15.8511ZM48.3546 20.4225C48.3546 20.7273 48.1514 22.3527 46.9324 22.3527C46.3228 22.3527 46.1197 21.8447 46.1197 21.54C46.1197 21.032 46.4244 20.3209 47.9482 20.3209C48.253 20.4225 48.253 20.4225 48.3546 20.4225Z" fill="white"/>
<path d="M52.317 23.978C52.9265 20.6256 53.0281 17.8828 54.4503 18.3907C54.6535 17.0701 54.9582 16.5621 55.1614 16.0542C55.1614 16.0542 55.0598 16.0542 54.755 16.0542C53.8408 16.0542 53.1296 17.2732 53.1296 17.2732L53.3328 16.1558H51.4027L50.082 24.0796H52.317V23.978Z" fill="white"/>
<path d="M22.8574 22.454C22.8574 23.673 23.5685 24.181 24.4828 24.181C25.1939 24.181 25.8035 23.9778 26.0066 23.8762L26.3114 22.1492C26.2098 22.1492 26.0066 22.2508 25.8035 22.2508C25.0923 22.2508 24.9908 21.8445 25.0923 21.6413L25.7019 18.0857H26.8193L27.1241 16.1556H26.1082L26.3114 14.9365" fill="#DCE5E5"/>
<path d="M27.7324 20.6258C27.7324 23.4702 28.6467 24.1813 30.2721 24.1813C31.7959 24.1813 32.4054 23.8766 32.4054 23.8766L32.8118 21.9464C32.8118 21.9464 31.6943 22.4544 30.6785 22.4544C28.4435 22.4544 28.8499 20.829 28.8499 20.829H33.015C33.015 20.829 33.3197 19.5083 33.3197 19.0004C33.3197 17.6798 32.6086 16.0544 30.3737 16.0544C28.2404 15.8512 27.7324 18.0861 27.7324 20.6258ZM30.2721 17.6798C31.3896 17.6798 31.5927 19.0004 31.5927 19.102H28.9515C28.9515 19.0004 29.1546 17.6798 30.2721 17.6798Z" fill="#DCE5E5"/>
<path d="M43.1749 23.8764L43.5813 21.6415C43.5813 21.6415 42.5654 22.1494 41.8543 22.1494C40.4321 22.1494 39.8226 21.032 39.8226 19.8129C39.8226 17.3748 41.0416 16.0542 42.4638 16.0542C43.4797 16.0542 44.2924 16.6637 44.2924 16.6637L44.5972 14.5304C44.5972 14.5304 43.3781 14.0225 42.2607 14.0225C39.9241 14.0225 38.6035 16.0542 38.6035 19.9145C38.6035 22.4542 38.8067 24.1812 41.2448 24.1812C42.0575 24.1812 43.1749 23.8764 43.1749 23.8764Z" fill="#DCE5E5"/>
<path d="M12.0882 18.0859C12.0882 18.0859 13.0024 17.6796 14.3231 17.6796C15.0342 17.6796 15.6437 17.7812 15.6437 18.3907C15.6437 18.7971 15.5421 18.8986 15.5421 18.8986C15.5421 18.8986 14.9326 18.8986 14.6278 18.8986C12.9009 18.8986 10.9707 19.6098 10.9707 21.9463C10.9707 23.7748 12.1897 24.1812 12.9009 24.1812C14.3231 24.1812 14.9326 23.2669 15.0342 23.2669L14.9326 24.0796H16.7612L17.5739 18.4923C17.5739 16.1558 15.5421 16.0542 14.7294 16.0542L12.0882 18.0859ZM16.2532 20.4225C16.2532 20.7272 15.0342 22.3526 13.8151 22.3526C13.2056 22.3526 13.0024 21.8447 13.0024 21.5399C13.0024 21.032 13.3072 20.3209 14.831 20.3209C15.1358 20.4225 16.2532 20.4225 16.2532 20.4225Z" fill="#DCE5E5"/>
<path d="M17.2695 23.8765C17.2695 23.8765 17.8791 24.0797 19.606 24.0797C20.114 24.0797 22.6537 24.1813 22.6537 21.4384C22.6537 18.8987 20.2156 19.4067 20.2156 18.3908C20.2156 17.8828 20.6219 17.6797 21.333 17.6797C21.6378 17.6797 22.7552 17.7813 22.7552 17.7813L23.06 15.9527C23.06 15.9527 22.3489 15.7495 21.1298 15.7495C19.606 15.7495 19.0981 16.359 19.0981 18.3908C19.0981 20.7273 20.6219 20.5241 20.6219 21.4384C20.6219 22.0479 19.9108 22.1495 19.4029 22.1495" fill="#DCE5E5"/>
<path d="M59.6315 16.9684C59.6315 16.9684 58.8188 15.9525 57.7013 15.9525C55.8728 15.9525 55.2632 18.1875 55.2632 20.8287C55.2632 22.4541 55.0601 24.1811 56.787 24.1811C58.0061 24.1811 58.7172 23.3684 58.7172 23.3684L58.6156 24.0795H60.6474L62.1712 14.3271L59.6315 16.9684ZM59.5299 19.6097C59.5299 20.7271 58.6156 22.1494 57.4981 22.1494C56.787 22.1494 56.3807 21.5398 56.3807 20.524C56.3807 18.8986 57.0918 17.8827 58.0061 17.8827C58.7172 17.8827 59.5299 18.3906 59.5299 19.6097Z" fill="#DCE5E5"/>
<path d="M3.75828 23.978L4.97733 16.6637L5.18051 23.978H6.60273L9.244 16.6637L8.12654 23.978H10.2599L11.8853 14.2256H9.34558L6.50114 20.2192L6.39955 14.2256H5.28209L1.82812 23.978H3.75828Z" fill="#DCE5E5"/>
<path d="M33.1172 23.978H35.2505C35.86 20.6256 35.9616 17.8828 37.3839 18.3907C37.587 17.0701 37.8918 16.5621 38.095 16.0542C38.095 16.0542 37.9934 16.0542 37.6886 16.0542C36.7743 16.0542 36.0632 17.2732 36.0632 17.2732L36.2664 16.1558" fill="#DCE5E5"/>
<path d="M45.1038 18.0859C45.1038 18.0859 46.0181 17.6796 47.3387 17.6796C48.0498 17.6796 48.6594 17.7812 48.6594 18.3907C48.6594 18.7971 48.5578 18.8986 48.5578 18.8986C48.5578 18.8986 47.9482 18.8986 47.6435 18.8986C45.9165 18.8986 43.9863 19.6098 43.9863 21.9463C43.9863 23.7748 45.2054 24.1812 45.9165 24.1812C47.3387 24.1812 47.9482 23.2669 48.0498 23.2669L47.9482 24.0796H49.7768L50.5895 18.4923C50.5895 16.1558 48.5578 16.0542 47.7451 16.0542L45.1038 18.0859ZM49.2689 20.4225C49.2689 20.7272 48.0498 22.3526 46.8308 22.3526C46.2213 22.3526 46.0181 21.8447 46.0181 21.5399C46.0181 21.032 46.3228 20.3209 47.8467 20.3209C48.253 20.4225 49.2689 20.4225 49.2689 20.4225Z" fill="#DCE5E5"/>
<path d="M50.1836 23.978H52.3169C52.9264 20.6256 53.028 17.8828 54.4503 18.3907C54.6534 17.0701 54.9582 16.5621 55.1614 16.0542C55.1614 16.0542 55.0598 16.0542 54.755 16.0542C53.8407 16.0542 53.1296 17.2732 53.1296 17.2732L53.3328 16.1558" fill="#DCE5E5"/>
</g>
<defs>
<clipPath id="clip0">
<rect width="64" height="38" fill="white"/>
</clipPath>
</defs>
</svg>
