<svg width="100" height="24" viewBox="0 0 100 24" fill="none" xmlns="http://www.w3.org/2000/svg">
<g clip-path="url(#clip0)">
<path d="M88.5559 0.304688C90.3838 0.304688 92.123 0.721677 93.6836 1.4676C93.9284 1.57754 94.1747 1.70913 94.4187 1.84084L93.3486 2.78465L91.7443 1.13878L88.98 3.55244L87.3522 1.81862L82.2691 6.31735L85.5235 9.85039L84.253 10.9473L87.4638 14.4804L86.1932 15.5768L90.786 20.6022L93.5043 18.1443L95.8685 20.7783C95.4 21.1294 94.8872 21.4813 94.3305 21.788C92.6359 22.7314 90.6737 23.279 88.5784 23.279C82.1348 23.279 76.8966 18.1232 76.8966 11.782C76.8738 5.48359 82.113 0.304688 88.5559 0.304688ZM86.4153 11.0793L89.2021 8.6214L91.6996 11.3643L88.9122 13.8219L86.4153 11.0793ZM88.4 15.8193L91.1642 13.3397L93.6836 16.0824L90.8966 18.5403L88.4 15.8193ZM84.4323 6.40542L87.2183 3.94756L89.7152 6.69047L86.9283 9.14822L84.4323 6.40542ZM89.5366 5.08836L91.6101 3.24517L93.4832 5.28604L91.4097 7.151L89.5366 5.08836ZM93.2378 13.5368L95.3106 11.6935L97.1837 13.7556L95.11 15.6001L93.2378 13.5368ZM95.0656 17.6846L97.1393 15.841L99.0108 17.8817L96.938 19.7464L95.0656 17.6846ZM95.913 8.20441L97.295 6.97542L98.543 8.33645L97.1612 9.56499L95.913 8.20441ZM94.1294 4.14477L95.5115 2.89424L96.7605 4.27648L95.3773 5.50535L94.1294 4.14477ZM97.674 12.2644L99.056 11.0355L100.327 12.3961L98.9227 13.6246L97.674 12.2644ZM91.4541 9.21408L93.5278 7.37077L95.4 9.41119L93.3273 11.2548L91.4541 9.21408Z" fill="#036CB5"/>
<mask id="mask0" mask-type="alpha" maskUnits="userSpaceOnUse" x="-1" y="5" width="13" height="11">
<path d="M-0.324219 5.07812V15.6849H11.8611V5.07812H-0.324219Z" fill="white"/>
</mask>
<g mask="url(#mask0)">
<path d="M5.79096 8.2189H5.68581L3.71162 15.6849H2.098L-0.324219 5.07812H1.35L3.02462 12.9925H3.12919L5.07249 5.07812H6.40355L8.4818 12.9925H8.58644L10.1117 5.07812H11.8611L9.43822 15.6849H7.82339L5.79096 8.2189Z" fill="#036CB5"/>
</g>
<path d="M13.9859 11.1693H17.409C17.3348 9.59897 16.5718 8.97121 15.7648 8.97121C14.8528 8.97121 14.1497 9.67417 13.9859 11.1693ZM18.605 13.9826V15.1198C17.9323 15.5087 17.0357 15.8081 15.9586 15.8081C13.4476 15.8081 12.416 14.2522 12.416 11.8888C12.416 9.6139 13.567 7.96826 15.8096 7.96826C17.678 7.96826 18.8299 9.18085 18.8299 11.6188V12.1724H13.956C13.956 13.967 14.6881 14.7601 16.2286 14.7601C17.0357 14.7601 17.7833 14.4754 18.605 13.9826Z" fill="#036CB5"/>
<path d="M22.3074 14.6085C22.786 14.8179 23.3096 14.8489 23.684 14.8489C24.7901 14.8489 25.6265 14.1597 25.6265 11.7368C25.6265 9.83688 24.9388 9.22347 23.9375 9.22347C23.339 9.22347 22.9057 9.38855 22.3074 9.71703V14.6085H22.3074ZM22.3232 8.61029C22.7706 8.37172 23.5329 8.05647 24.3406 8.05647C26.1947 8.05647 27.1966 9.34298 27.1966 11.7368C27.1966 14.5345 25.8507 15.8959 23.684 15.8959C22.891 15.8959 21.6651 15.6415 20.7676 15.1617V4.72064L22.3232 4.34717V8.61029H22.3232Z" fill="#036CB5"/>
<path d="M33.9257 13.434H34.0005L37.1994 5.07129H39.0543V15.6788H37.4396V7.98875H37.3048L34.2544 15.6788H33.2984L30.2473 8.16853H30.1133V15.6788H28.7676V5.07129H30.5772L33.9257 13.434Z" fill="#036CB5"/>
<path d="M45.6512 11.8883C45.6512 9.86888 44.8295 9.01656 43.8129 9.01656C42.8264 9.01656 41.9735 9.86889 41.9735 11.8883C41.9735 13.9381 42.7519 14.7601 43.8129 14.7601C44.8738 14.7601 45.6512 13.9381 45.6512 11.8883ZM40.4043 11.8883C40.4043 9.26938 41.8399 7.96826 43.8129 7.96826C45.787 7.96826 47.2218 9.26936 47.2218 11.8883C47.2218 14.446 45.8614 15.8081 43.8129 15.8081C41.7647 15.8081 40.4043 14.446 40.4043 11.8883Z" fill="#036CB5"/>
<path d="M48.4043 9.07614C49.077 8.67156 50.4979 7.96826 52.2168 7.96826C54.0108 7.96826 54.6824 8.67156 54.6824 10.212V15.6284H53.1286V10.5566C53.1286 9.37498 52.5465 9.16556 51.7831 9.16556C51.1858 9.16556 50.4223 9.43524 49.9592 9.70446V15.6284H48.4043V9.07614H48.4043Z" fill="#036CB5"/>
<path d="M57.9718 11.1693H61.3952C61.3216 9.59897 60.5583 8.97121 59.7509 8.97121C58.8387 8.97121 58.1369 9.67417 57.9718 11.1693ZM62.5909 13.9826V15.1198C61.9186 15.5087 61.0215 15.8081 59.9448 15.8081C57.4346 15.8081 56.4023 14.2522 56.4023 11.8888C56.4023 9.6139 57.5529 7.96826 59.7957 7.96826C61.6652 7.96826 62.8169 9.18085 62.8169 11.6188V12.1724H57.9424C57.9424 13.967 58.6751 14.7601 60.215 14.7601C61.0215 14.7601 61.7702 14.4754 62.5909 13.9826Z" fill="#036CB5"/>
<path d="M69.0273 7.96826H70.6275L67.9212 15.4473C67.1726 17.512 66.2617 18.5893 64.5427 18.5893V17.3634C65.5599 17.3634 66.1868 16.5551 66.5465 15.4473L63.6758 7.96826H65.3206L67.2342 13.4735H67.3239L69.0273 7.96826Z" fill="#036CB5"/>
<path d="M15.8245 22.5796V21.9336C16.3789 22.2139 16.9065 22.3546 17.4063 22.3546C17.8227 22.3546 18.1416 22.2786 18.3645 22.1251C18.5874 21.9727 18.699 21.7666 18.699 21.506C18.699 21.2456 18.6073 21.0502 18.424 20.9202C18.2411 20.7904 17.8991 20.6296 17.399 20.4393C17.2255 20.3743 17.1146 20.332 17.0645 20.3119C17.0153 20.2923 16.9187 20.2517 16.7749 20.1919C16.6314 20.1322 16.5374 20.0867 16.493 20.0569C16.4482 20.026 16.373 19.9808 16.2663 19.9215C16.1599 19.8608 16.0882 19.8074 16.0508 19.7607C16.0141 19.7126 15.963 19.6519 15.8986 19.5794C15.8343 19.5072 15.7908 19.4354 15.7685 19.3623C15.7464 19.2898 15.725 19.2059 15.7055 19.1106C15.6858 19.0151 15.6758 18.9128 15.6758 18.8026C15.6758 18.377 15.8332 18.035 16.1474 17.7743C16.4621 17.5145 16.8963 17.3843 17.4511 17.3843C17.9411 17.3843 18.4293 17.4742 18.9141 17.6545V18.3373C18.4438 18.1067 17.9734 17.9926 17.5029 17.9926C17.1712 17.9926 16.9236 18.0615 16.7602 18.2015C16.5968 18.3415 16.515 18.5268 16.515 18.7574C16.515 19.0028 16.5968 19.1888 16.7602 19.3168C16.9236 19.4452 17.2159 19.5866 17.6369 19.7413C18.3596 20.0066 18.8574 20.2468 19.1295 20.4624C19.402 20.6769 19.5381 20.9982 19.5381 21.4231C19.5381 21.869 19.3512 22.2335 18.9774 22.5162C18.6035 22.799 18.0899 22.9405 17.4361 22.9405C16.8372 22.9405 16.2998 22.8198 15.8245 22.5796ZM23.3819 22.8268H22.6764L22.6243 22.3914C22.1981 22.7422 21.7725 22.9176 21.3467 22.9176C20.9903 22.9176 20.7142 22.8215 20.5188 22.6282C20.3228 22.4356 20.2251 22.1922 20.2251 21.8961C20.2251 21.7407 20.2535 21.5922 20.3106 21.4495C20.3676 21.3066 20.4617 21.1682 20.5928 21.0331C20.724 20.8977 20.922 20.7891 21.1868 20.7062C21.4517 20.6231 21.77 20.5821 22.1415 20.5821H22.6022V20.3794C22.6022 20.0441 22.5402 19.8158 22.4164 19.6925C22.2923 19.5698 22.0844 19.5085 21.7924 19.5085C21.4359 19.5085 20.9976 19.6555 20.4779 19.9516V19.3511C21.0127 19.1059 21.5373 18.9823 22.0522 18.9823C22.5522 18.9823 22.8991 19.0855 23.092 19.2912C23.2853 19.4959 23.3819 19.8067 23.3819 20.2212V22.8268ZM22.6096 21.1075H22.2156C21.4034 21.1075 20.9976 21.3505 20.9976 21.8362C20.9976 22.007 21.0518 22.1296 21.1609 22.2076C21.2701 22.2854 21.4062 22.3238 21.5698 22.3238C21.7773 22.3238 21.9781 22.2737 22.1712 22.1733C22.3642 22.0739 22.5105 21.9588 22.6096 21.8286V21.1075H22.6096ZM24.5888 24.329V19.5315C24.8068 19.3659 25.0639 19.2327 25.3613 19.1328C25.6586 19.0334 25.9503 18.9823 26.2379 18.9823C27.2674 18.9823 27.7827 19.6108 27.7827 20.8677C27.7827 21.5184 27.649 22.0165 27.3814 22.3613C27.1141 22.7071 26.7308 22.879 26.2302 22.879C25.8835 22.879 25.5938 22.7914 25.3613 22.6173V24.329H24.5888ZM25.3539 19.786V22.0619C25.4529 22.1566 25.5777 22.2271 25.7288 22.2749C25.88 22.3224 26.0126 22.3461 26.1263 22.3461C26.3985 22.3461 26.6129 22.2404 26.7689 22.0277C26.9249 21.8145 27.0025 21.428 27.0025 20.8678C27.0025 20.4123 26.9225 20.0784 26.7615 19.8694C26.6006 19.6584 26.3911 19.5538 26.1336 19.5538C25.8419 19.5538 25.582 19.6309 25.3539 19.786ZM29.5542 19.0209V22.8268H28.7818V19.2082L29.5542 19.0209ZM28.6628 17.9166C28.6628 17.7814 28.7135 17.663 28.8149 17.5597C28.9167 17.4572 29.0344 17.4057 29.1676 17.4057C29.3016 17.4057 29.4192 17.4572 29.5209 17.5597C29.6224 17.663 29.6731 17.7814 29.6731 17.9166C29.6731 18.0517 29.6224 18.171 29.5209 18.274C29.4192 18.3756 29.3016 18.4271 29.1676 18.4271C29.0344 18.4271 28.9167 18.3756 28.8149 18.274C28.7135 18.171 28.6628 18.0517 28.6628 17.9166ZM32.4472 22.3914C32.8039 22.3914 33.1972 22.2611 33.6281 22.0014V22.5719C33.2321 22.8025 32.7938 22.9176 32.3135 22.9176C31.7094 22.9176 31.2651 22.7448 30.9804 22.3992C30.6956 22.0535 30.5533 21.5708 30.5533 20.9501C30.5533 20.3591 30.6994 19.8831 30.9912 19.5239C31.2837 19.1635 31.6993 18.9823 32.239 18.9823C32.7147 18.9823 33.0831 19.1379 33.3462 19.4486C33.6085 19.7594 33.7394 20.2142 33.7394 20.8148V21.093H31.3183C31.3183 21.5387 31.41 21.8669 31.5929 22.0759C31.7762 22.287 32.061 22.3914 32.4472 22.3914ZM32.2166 19.4862C31.9843 19.4862 31.7885 19.579 31.63 19.7634C31.4718 19.9489 31.3725 20.2247 31.333 20.5891H33.0338C33.0138 20.2191 32.9275 19.9433 32.7738 19.7607C32.6206 19.5775 32.4349 19.4862 32.2166 19.4862ZM34.7234 22.8268V19.5386C35.3325 19.1679 35.9639 18.9823 36.6177 18.9823C37.0584 18.9823 37.3726 19.0731 37.5608 19.2534C37.749 19.4338 37.8431 19.7189 37.8431 20.109V22.8268H37.0708V20.2818C37.0708 20.0066 37.0137 19.8212 36.8999 19.7266C36.7859 19.6309 36.6202 19.5837 36.4022 19.5837C36.1052 19.5837 35.803 19.6742 35.4962 19.8542V22.8268H34.7234V22.8268ZM39.7853 19.1635H40.9589L40.7732 19.6742H39.7853V21.6558C39.7853 22.1566 39.9983 22.4068 40.4241 22.4068C40.5874 22.4068 40.7533 22.372 40.9222 22.3017V22.7818C40.6893 22.8722 40.4118 22.9176 40.09 22.9176C39.7186 22.9176 39.4463 22.811 39.2728 22.5976C39.0997 22.3858 39.0129 22.1064 39.0129 21.7602V18.6675L39.7853 18.1038V19.1635H39.7853ZM42.4709 19.0209V22.8268H41.6982V19.2082L42.4709 19.0209ZM41.5795 17.9166C41.5795 17.7814 41.6303 17.663 41.7312 17.5597C41.8327 17.4572 41.9503 17.4057 42.0844 17.4057C42.2179 17.4057 42.3358 17.4572 42.437 17.5597C42.5387 17.663 42.5894 17.7814 42.5894 17.9166C42.5894 18.0517 42.5387 18.171 42.437 18.274C42.3358 18.3756 42.2179 18.4271 42.0844 18.4271C41.9503 18.4271 41.8327 18.3756 41.7312 18.274C41.6303 18.171 41.5795 18.0517 41.5795 17.9166ZM47.7293 19.2833V19.8831C47.3578 19.6332 46.9814 19.5085 46.6005 19.5085C46.4074 19.5085 46.2489 19.546 46.1248 19.6213C46.0012 19.6959 45.9392 19.8165 45.9392 19.9808C45.9392 20.1369 46.0071 20.2604 46.1433 20.3529C46.2796 20.4458 46.4938 20.5396 46.7862 20.6341C46.9496 20.6892 47.0719 20.7321 47.1535 20.7619C47.2354 20.7927 47.3428 20.8428 47.4768 20.9124C47.6104 20.9828 47.7108 21.0522 47.7775 21.1229C47.8444 21.1932 47.905 21.2852 47.9596 21.4007C48.0141 21.5158 48.041 21.6431 48.041 21.7833C48.041 22.129 47.9036 22.4041 47.6292 22.6094C47.3543 22.8146 46.9864 22.9176 46.5262 22.9176C46.011 22.9176 45.5824 22.8075 45.241 22.5865V22.0014C45.6766 22.2612 46.0753 22.3914 46.4371 22.3914C46.9814 22.3914 47.2539 22.2117 47.2539 21.8509C47.2539 21.7812 47.2378 21.7155 47.2056 21.6558C47.1734 21.5958 47.1363 21.547 47.0943 21.5093C47.0521 21.4718 46.9839 21.4294 46.8898 21.3811C46.7956 21.3346 46.7166 21.2997 46.6522 21.2768C46.5879 21.2545 46.4864 21.2181 46.3479 21.1682C46.1447 21.093 45.9838 21.0282 45.8648 20.9728C45.7458 20.9173 45.6274 20.8462 45.5084 20.759C45.3894 20.6713 45.3026 20.5668 45.2485 20.447C45.1941 20.3273 45.1668 20.1842 45.1668 20.0192C45.1668 19.8089 45.2162 19.6292 45.3153 19.4794C45.4142 19.3282 45.5432 19.2206 45.7014 19.1558C45.8599 19.0905 46.0047 19.0452 46.1359 19.0209C46.2673 18.9951 46.3972 18.9823 46.5262 18.9823C46.9472 18.9823 47.3481 19.0827 47.7293 19.2833ZM51.8328 22.8268H51.1274L51.0751 22.3914C50.649 22.7422 50.2236 22.9176 49.7979 22.9176C49.4414 22.9176 49.1653 22.8215 48.9697 22.6282C48.7738 22.4356 48.6763 22.1922 48.6763 21.8961C48.6763 21.7407 48.7047 21.5922 48.7618 21.4495C48.8186 21.3066 48.9128 21.1682 49.044 21.0331C49.1755 20.8977 49.3731 20.7891 49.638 20.7062C49.903 20.6231 50.2214 20.5821 50.5922 20.5821H51.0533V20.3794C51.0533 20.0441 50.991 19.8158 50.8679 19.6925C50.7433 19.5698 50.5355 19.5085 50.2438 19.5085C49.887 19.5085 49.4487 19.6555 48.9289 19.9516V19.3511C49.4638 19.1059 49.9884 18.9823 50.5033 18.9823C51.0037 18.9823 51.3498 19.0855 51.5431 19.2912C51.7361 19.4959 51.8328 19.8067 51.8328 20.2212V22.8268H51.8328ZM51.061 21.1075H50.667C49.8548 21.1075 49.4487 21.3505 49.4487 21.8362C49.4487 22.007 49.5032 22.1296 49.612 22.2076C49.7212 22.2854 49.8569 22.3238 50.0207 22.3238C50.2285 22.3238 50.4285 22.2737 50.6223 22.1733C50.8154 22.0739 50.9617 21.9588 51.061 21.8286V21.1075H51.061ZM53.7756 19.1635H54.949L54.7628 19.6742H53.7756V21.6558C53.7756 22.1566 53.9883 22.4068 54.4136 22.4068C54.5772 22.4068 54.7426 22.372 54.9117 22.3017V22.7818C54.6788 22.8722 54.4019 22.9176 54.0791 22.9176C53.7084 22.9176 53.4362 22.811 53.2628 22.5976C53.0893 22.3858 53.0024 22.1064 53.0024 21.7602V18.6675L53.7755 18.1038V19.1635H53.7756Z" fill="#B6B6B6"/>
</g>
<defs>
<clipPath id="clip0">
<rect width="100" height="24" fill="white"/>
</clipPath>
</defs>
</svg>
