<svg width="48" height="38" viewBox="0 0 48 38" fill="none" xmlns="http://www.w3.org/2000/svg">
<g clip-path="url(#clip0)">
<path d="M6.58065 1.69678C2.86452 1.69678 0 4.09678 0 8.27742V20.2C0.309677 21.671 1.85806 22.7548 3.56129 22.7548C5.49677 22.7548 6.89032 21.3613 6.89032 19.6581V13.6194H12.1548V19.5806C12.1548 22.9097 7.89677 24.6129 4.8 24.6129C3.01935 24.6129 1.31613 24.071 0.0774194 23.1419V36.3032H8.43871C11.3806 36.3032 14.7871 33.5161 14.7871 29.9548V1.69678H6.58065Z" fill="#1174CE"/>
<path d="M0 8.27742V20.2C0.309677 21.671 1.85806 22.7548 3.56129 22.7548C5.49677 22.7548 6.89032 21.3613 6.89032 19.6581V13.6194H12.1548V19.5806C12.1548 22.9097 7.89677 24.6129 4.8 24.6129C3.01935 24.6129 1.31613 24.071 0.0774194 23.1419V36.3032H8.43871C11.3806 36.3032 14.7871 33.5161 14.7871 29.9548V1.69678" fill="#0F549D"/>
<path d="M12.0774 13.6191V19.5804C12.0774 22.9095 7.81936 24.6127 4.72258 24.6127C2.94194 24.6127 1.23871 24.0708 0 23.1417V36.303H8.36129C11.3032 36.303 14.7097 33.5159 14.7097 29.9546" fill="#02375E"/>
<path d="M35.8438 22.5999H39.4825C40.4115 22.5999 41.2631 21.7482 41.2631 20.8192C41.2631 19.8902 40.4115 19.0386 39.4825 19.0386H35.8438V22.5999Z" fill="#146643"/>
<path d="M39.9491 1.69678C36.1555 1.69678 33.3684 4.09678 33.3684 8.2V13.6194H43.1233C44.5168 13.6194 45.6781 14.7806 45.6781 16.1742C45.6781 17.5677 44.5168 18.729 43.1233 18.729C44.6717 18.729 45.9104 19.8129 45.9104 21.2065C45.9104 22.6 44.7491 23.6839 43.1233 23.6839H33.291V36.3032H41.6523C44.5942 36.3032 48.0007 33.5161 48.0007 29.9548V1.69678H39.9491Z" fill="#1BCC38"/>
<path d="M33.291 8.27742V13.6194H43.0459C44.4394 13.6194 45.6007 14.7806 45.6007 16.1742C45.6007 17.5677 44.4394 18.729 43.0459 18.729C44.5942 18.729 45.833 19.8129 45.833 21.2065C45.833 22.6 44.6717 23.6839 43.0459 23.6839H33.291V36.3032H41.6523C44.5942 36.3032 48.0007 33.5161 48.0007 29.9548V1.69678" fill="#329947"/>
<path d="M45.6007 16.1743C45.6007 17.5679 44.4394 18.7292 43.0459 18.7292C44.5942 18.7292 45.833 19.813 45.833 21.2066C45.833 22.6001 44.6717 23.684 43.0459 23.684H33.291V36.3033H41.6523C44.5942 36.3033 48.0007 33.5162 48.0007 29.955" fill="#146643"/>
<path d="M41.1876 16.4838C41.1876 15.5547 40.336 14.7031 39.407 14.7031H35.8457V18.187H39.4844C40.4134 18.187 41.1876 17.4128 41.1876 16.4838Z" fill="#146643"/>
<path d="M23.149 1.69678C19.3555 1.69678 16.5684 4.09678 16.5684 8.2V14.8581C17.4974 14.0839 18.6587 13.5419 19.8974 13.5419H28.7232V15.4C26.6329 14.9355 24.62 14.7032 23.6135 14.7032C21.4458 14.7032 19.6651 16.4839 19.6651 18.6516C19.6651 20.8194 21.4458 22.6 23.6135 22.6C24.62 22.6 26.6329 22.4452 28.7232 21.9806V23.6839H19.8974C18.6587 23.6839 17.42 23.2194 16.5684 22.3677V36.3032H24.9296C27.8716 36.3032 31.278 33.5161 31.278 29.9548V1.69678H23.149Z" fill="#E20E37"/>
<path d="M16.5684 8.27742V14.9355C17.4974 14.1613 18.6587 13.6194 19.8974 13.6194H28.7232V15.4774C26.6329 15.0129 24.62 14.7806 23.6135 14.7806C21.4458 14.7806 19.6651 16.5613 19.6651 18.729C19.6651 20.8968 21.4458 22.6774 23.6135 22.6774C24.62 22.6774 26.6329 22.5226 28.7232 22.0581V23.6839H19.8974C18.6587 23.6839 17.42 23.2194 16.5684 22.3677V36.3032H24.9296C27.8716 36.3032 31.278 33.5161 31.278 29.9548V1.69678" fill="#B41F36"/>
<path d="M28.7232 13.6191V15.4772C26.6329 15.0127 24.62 14.7804 23.6135 14.7804C21.4458 14.7804 19.6651 16.5611 19.6651 18.7288C19.6651 20.8966 21.4458 22.6772 23.6135 22.6772C24.62 22.6772 26.6329 22.5224 28.7232 22.0579V23.6837H19.8974C18.6587 23.6837 17.42 23.2191 16.5684 22.3675V36.303H24.9296C27.8716 36.303 31.278 33.5159 31.278 29.9546" fill="#720A1E"/>
</g>
<defs>
<clipPath id="clip0">
<rect width="48" height="38" fill="white"/>
</clipPath>
</defs>
</svg>
