<svg width="28" height="36" viewBox="0 0 28 36" fill="none" xmlns="http://www.w3.org/2000/svg">
<path d="M0.774688 17.7403C0.774688 15.8097 0.938519 14.5849 4.983 11.6014C8.33215 9.13081 19.0649 0.689453 19.0649 0.689453V14.7815H27.2277V35.063H3.32344C1.9215 35.063 0.773438 33.9284 0.773438 32.5429L0.774688 17.7403Z" fill="#FFCF01"/>
<path d="M19.065 14.7812V22.9458L4.06641 33.0445L23.0295 26.9464V14.7812H19.065Z" fill="#D3AB07"/>
<path d="M12.2112 14.3586C13.0879 13.3253 14.3698 12.9607 15.0726 13.5441C15.7755 14.1275 15.6354 15.4375 14.7587 16.4708C13.882 17.504 12.6002 17.8674 11.8973 17.284C11.1932 16.7019 11.3345 15.3918 12.2112 14.3586Z" fill="#231F20"/>
</svg>
