<svg width="72" height="72" viewBox="0 0 72 72" fill="none" xmlns="http://www.w3.org/2000/svg">
<path d="M36 72C55.8823 72 72 55.8823 72 36C72 16.1178 55.8823 0 36 0C16.1178 0 0 16.1178 0 36C0 55.8823 16.1178 72 36 72Z" fill="url(#paint0_linear)"/>
<path d="M36 4.15366C53.5384 4.15366 67.8461 18.4614 67.8461 35.9998C67.8461 53.5383 53.5384 67.846 36 67.846C18.4615 67.846 4.15383 53.5383 4.15383 35.9998C4.15383 18.4614 18.4615 4.15366 36 4.15366ZM36 2.76904C17.6307 2.76904 2.76921 17.6306 2.76921 35.9998C2.76921 54.369 17.6307 69.2306 36 69.2306C54.3692 69.2306 69.2308 54.369 69.2308 35.9998C69.2308 17.6306 54.3692 2.76904 36 2.76904Z" fill="white"/>
<path d="M53.1279 26.6987C51.5065 26.6987 50.1284 27.4392 49.1556 28.591C48.2638 27.4392 46.8046 26.6987 45.1832 26.6987C42.4269 26.6987 40.157 29.0023 40.157 31.7995C40.157 38.1343 48.3449 42.3302 48.6692 42.4947C48.8313 42.577 48.9934 42.577 49.1556 42.577C49.3177 42.577 49.4798 42.577 49.642 42.4947C49.9662 42.3302 58.1541 38.1343 58.1541 31.7995C58.1541 29.0023 55.8842 26.6987 53.1279 26.6987ZM49.1556 40.1911C47.5342 39.2039 42.4269 35.913 42.4269 31.7995C42.4269 30.2364 43.724 28.92 45.2643 28.92C46.8046 28.92 48.1017 30.2364 48.1017 31.7995C48.1017 32.4577 48.5881 32.9513 49.2366 32.9513C49.8852 32.9513 50.3716 32.4577 50.3716 31.7995C50.3716 30.2364 51.6687 28.92 53.209 28.92C54.7493 28.92 56.0463 30.2364 56.0463 31.7995C55.9653 35.9953 50.858 39.2861 49.1556 40.1911Z" fill="white"/>
<path d="M36.6079 45.2557C37.9049 44.762 38.8778 43.528 38.8778 42.0471C38.8778 40.1549 37.3375 38.5917 35.4729 38.5917H29.8792V34.3959C29.8792 33.9023 29.7981 33.4087 29.5549 32.9151C31.0952 32.2569 32.1491 30.776 32.1491 29.0483C32.1491 26.7448 30.2846 24.8525 28.0146 24.8525C25.7447 24.8525 23.8802 26.7448 23.8802 29.0483C23.8802 29.9533 24.2045 30.776 24.6909 31.5165C23.7991 32.0924 23.1506 33.1619 23.1506 34.3959V41.718C22.8263 41.8003 22.421 41.8003 22.0967 41.9648L21.1239 32.5037C20.9617 30.776 19.5025 29.4597 17.8001 29.4597H16.8273C16.1787 29.4597 15.6923 29.9533 15.6923 30.6115C15.6923 31.2697 16.1787 31.7633 16.8273 31.7633H17.8001C18.3676 31.7633 18.854 32.1746 18.935 32.7505L19.9889 42.7875C17.4758 44.3507 15.6923 47.1479 15.6923 50.3564C15.6923 55.2104 19.5836 59.0771 24.2855 59.0771C28.6632 59.0771 32.3113 55.704 32.8787 51.3437C32.8787 51.5082 32.9598 51.6728 32.9598 51.8373V55.6218C32.9598 57.514 34.5001 59.0771 36.3646 59.0771C38.2292 59.0771 39.7695 57.514 39.7695 55.6218V51.8373C39.6074 49.2047 38.4724 46.8188 36.6079 45.2557ZM28.0146 27.1561C29.0685 27.1561 29.8792 27.9788 29.8792 29.0483C29.8792 30.1179 29.0685 30.9406 28.0146 30.9406C26.9608 30.9406 26.1501 30.1179 26.1501 29.0483C26.1501 27.9788 26.9608 27.1561 28.0146 27.1561ZM25.3394 34.3959C25.3394 33.7378 25.8258 33.2441 26.4744 33.2441C27.1229 33.2441 27.6093 33.7378 27.6093 34.3959V39.7435C27.6093 40.4017 28.0957 40.8953 28.7443 40.8953H35.4729C36.1214 40.8953 36.6079 41.3889 36.6079 42.0471C36.6079 42.7053 36.1214 43.1989 35.4729 43.1989H29.0685C28.0146 42.4585 26.7176 41.9648 25.3394 41.718V34.3959ZM24.2855 56.8558C20.7996 56.8558 17.8811 53.9764 17.8811 50.3564C17.8811 46.7365 20.7185 43.8571 24.2855 43.8571C27.8525 43.8571 30.6899 46.7365 30.6899 50.3564C30.6899 53.9764 27.7714 56.8558 24.2855 56.8558ZM37.4185 55.704C37.4185 56.3622 36.9321 56.8558 36.2836 56.8558C35.635 56.8558 35.1486 56.3622 35.1486 55.704V51.9196C35.1486 50.1919 34.0947 48.711 32.5545 48.0529C32.3112 47.1479 31.9059 46.2429 31.3384 45.5025C34.6622 45.667 37.3375 48.5465 37.3375 52.0019V55.704H37.4185Z" fill="white"/>
<path d="M24.2854 46.1606C22.0155 46.1606 20.1509 48.0529 20.1509 50.3564C20.1509 52.66 22.0155 54.5523 24.2854 54.5523C26.5553 54.5523 28.4199 52.66 28.4199 50.3564C28.3388 48.0529 26.5553 46.1606 24.2854 46.1606ZM24.2854 52.2487C23.2315 52.2487 22.4208 51.426 22.4208 50.3564C22.4208 49.2869 23.2315 48.4642 24.2854 48.4642C25.3393 48.4642 26.15 49.2869 26.15 50.3564C26.15 51.426 25.2582 52.2487 24.2854 52.2487Z" fill="white"/>
<path d="M22.7457 12.9233C22.9889 12.9233 23.151 13.0879 23.151 13.3347V14.9801C23.151 16.7078 23.0699 18.2709 22.9889 19.2582C23.2321 18.4355 23.7185 17.2837 23.9617 16.5432L25.1777 13.2524C25.2588 13.0879 25.4209 13.0056 25.583 13.0056H26.4748C26.718 13.0056 26.8801 13.1702 26.8801 13.417V21.8908C26.8801 22.1377 26.718 22.3022 26.4748 22.3022H25.7452C25.502 22.3022 25.3398 22.1377 25.3398 21.8908V20.2454C25.3398 18.3532 25.4209 17.0369 25.4209 16.0496C25.1777 16.8723 24.7724 18.0241 24.5292 18.7646L23.3131 22.0554C23.2321 22.2199 23.0699 22.3022 22.9078 22.3022H21.935C21.6918 22.3022 21.5296 22.1377 21.5296 21.8908V13.3347C21.5296 13.0879 21.6918 12.9233 21.935 12.9233H22.7457Z" fill="white"/>
<path d="M34.5812 13.3347V21.8086C34.5812 22.0554 34.419 22.2199 34.1758 22.2199H33.203C32.9598 22.2199 32.7977 22.0554 32.7977 21.8086V14.8978C32.7977 14.651 32.6356 14.4865 32.3924 14.4865H31.4195C31.1763 14.4865 31.0142 14.651 31.0142 14.8978V21.8086C31.0142 22.0554 30.8521 22.2199 30.6089 22.2199H29.636C29.3928 22.2199 29.2307 22.0554 29.2307 21.8086V13.3347C29.2307 13.0879 29.3928 12.9233 29.636 12.9233H34.1758C34.419 12.9233 34.5812 13.0879 34.5812 13.3347Z" fill="white"/>
<path d="M36.8513 13.417C36.8513 13.2524 37.0135 13.0056 37.1756 13.0056C37.581 12.9233 38.1484 12.9233 38.7159 12.9233C39.7698 12.9233 40.5805 13.0879 41.229 13.6638C41.7965 14.1574 42.0397 14.8978 42.0397 15.7205C42.0397 16.7078 41.7154 17.4482 41.229 17.9419C40.6615 18.5177 39.7698 18.8468 39.0402 18.8468C38.878 18.8468 38.797 18.8468 38.7159 18.8468V21.8908C38.7159 22.1377 38.5538 22.3022 38.3106 22.3022H37.3378C37.0946 22.3022 36.9324 22.1377 36.9324 21.8908V13.417H36.8513ZM38.6348 17.2837C38.7159 17.2837 38.797 17.2837 38.9591 17.2837C39.8509 17.2837 40.2562 16.6255 40.2562 15.8028C40.2562 14.9801 39.9319 14.3219 39.1213 14.3219C38.9591 14.3219 38.797 14.3219 38.7159 14.4042V17.2837H38.6348Z" fill="white"/>
<path d="M44.472 20.41L44.2288 21.8908C44.2288 22.0554 43.9855 22.2199 43.8234 22.2199H42.9317C42.6885 22.2199 42.4453 21.9731 42.5263 21.7263L44.3098 13.2524C44.3098 13.0879 44.553 12.9233 44.7152 12.9233H46.1744C46.3365 12.9233 46.4987 13.0879 46.5797 13.2524L48.2011 21.7263C48.2822 21.9731 48.0389 22.2199 47.7957 22.2199H46.904C46.7419 22.2199 46.5797 22.0554 46.4987 21.8908L46.2555 20.41C46.2555 20.2454 46.0122 20.0809 45.8501 20.0809H44.8773C44.7152 20.0809 44.553 20.2454 44.472 20.41ZM45.5258 18.6823C45.769 18.6823 45.9312 18.4355 45.9312 18.1887L45.688 16.7078C45.6069 16.1319 45.5258 15.2269 45.4448 14.651C45.3637 15.3092 45.2016 16.2142 45.1205 16.7901L44.8773 18.2709C44.7962 18.5177 45.0394 18.7646 45.2826 18.7646H45.5258V18.6823Z" fill="white"/>
<defs>
<linearGradient id="paint0_linear" x1="2.30769" y1="19.8462" x2="68.7692" y2="50.7692" gradientUnits="userSpaceOnUse">
<stop stop-color="#6A11CB"/>
<stop offset="1" stop-color="#2575FC"/>
</linearGradient>
</defs>
</svg>
