<svg width="24" height="26" viewBox="0 0 24 26" fill="none" xmlns="http://www.w3.org/2000/svg">
<path fill-rule="evenodd" clip-rule="evenodd" d="M0.854919 17.5142C1.08166 17.5142 1.29911 17.6057 1.45944 17.7686C1.61977 17.9315 1.70984 18.1524 1.70984 18.3828V23.5948H6.83936C7.06609 23.5948 7.28355 23.6863 7.44388 23.8492C7.6042 24.0121 7.69427 24.233 7.69427 24.4634C7.69427 24.6938 7.6042 24.9147 7.44388 25.0776C7.28355 25.2405 7.06609 25.3321 6.83936 25.3321H0.854919C0.628181 25.3321 0.410729 25.2405 0.2504 25.0776C0.0900716 24.9147 0 24.6938 0 24.4634V18.3828C0 18.1524 0.0900716 17.9315 0.2504 17.7686C0.410729 17.6057 0.628181 17.5142 0.854919 17.5142Z" fill="#545454"/>
<path fill-rule="evenodd" clip-rule="evenodd" d="M8.54906 16.5828C8.70934 16.7457 8.79937 16.9667 8.79937 17.197C8.79937 17.4273 8.70934 17.6482 8.54906 17.8111L1.46007 25.0158C1.29954 25.1787 1.0819 25.2701 0.855035 25.2699C0.62817 25.2698 0.410661 25.178 0.250356 25.0149C0.090052 24.8518 8.40307e-05 24.6307 0.000244355 24.4002C0.000404678 24.1697 0.0906801 23.9487 0.251211 23.7858L7.34021 16.5828C7.50053 16.42 7.71794 16.3285 7.94463 16.3285C8.17133 16.3285 8.38874 16.42 8.54906 16.5828ZM23.688 1.20062C23.7676 1.28131 23.8308 1.37717 23.8739 1.4827C23.917 1.58824 23.9391 1.70137 23.9391 1.81563C23.9391 1.92989 23.917 2.04303 23.8739 2.14856C23.8308 2.25409 23.7676 2.34995 23.688 2.43064L16.599 9.63357C16.4387 9.79668 16.2212 9.88841 15.9943 9.88857C15.7674 9.88873 15.5498 9.79732 15.3893 9.63444C15.2287 9.47156 15.1385 9.25055 15.1383 9.02004C15.1382 8.78953 15.2281 8.5684 15.3884 8.40529L22.4791 1.20062C22.6394 1.03777 22.8569 0.946289 23.0836 0.946289C23.3103 0.946289 23.5277 1.03777 23.688 1.20062Z" fill="#545454"/>
<path fill-rule="evenodd" clip-rule="evenodd" d="M16.305 1.81544C16.305 1.58505 16.3951 1.36411 16.5554 1.2012C16.7157 1.0383 16.9332 0.946777 17.1599 0.946777H23.1443C23.3711 0.946777 23.5885 1.0383 23.7489 1.2012C23.9092 1.36411 23.9993 1.58505 23.9993 1.81544V7.89604C23.9993 8.12642 23.9092 8.34737 23.7489 8.51027C23.5885 8.67318 23.3711 8.7647 23.1443 8.7647C22.9176 8.7647 22.7002 8.67318 22.5398 8.51027C22.3795 8.34737 22.2894 8.12642 22.2894 7.89604V2.68409H17.1599C16.9332 2.68409 16.7157 2.59257 16.5554 2.42967C16.3951 2.26676 16.305 2.04582 16.305 1.81544ZM23.1443 17.4513C22.9176 17.4513 22.7002 17.5428 22.5398 17.7057C22.3795 17.8686 22.2894 18.0896 22.2894 18.3199V23.5319H17.1599C16.9332 23.5319 16.7157 23.6234 16.5554 23.7863C16.3951 23.9492 16.305 24.1702 16.305 24.4005C16.305 24.6309 16.3951 24.8519 16.5554 25.0148C16.7157 25.1777 16.9332 25.2692 17.1599 25.2692H23.1443C23.3711 25.2692 23.5885 25.1777 23.7489 25.0148C23.9092 24.8519 23.9993 24.6309 23.9993 24.4005V18.3199C23.9993 18.0896 23.9092 17.8686 23.7489 17.7057C23.5885 17.5428 23.3711 17.4513 23.1443 17.4513Z" fill="#545454"/>
<path fill-rule="evenodd" clip-rule="evenodd" d="M15.4502 16.5203C15.3705 16.601 15.3074 16.6968 15.2643 16.8024C15.2212 16.9079 15.199 17.021 15.199 17.1353C15.199 17.2496 15.2212 17.3627 15.2643 17.4682C15.3074 17.5738 15.3705 17.6696 15.4502 17.7503L22.5391 24.9532C22.6994 25.1163 22.917 25.2081 23.1438 25.2082C23.2561 25.2083 23.3674 25.1859 23.4712 25.1423C23.575 25.0987 23.6694 25.0347 23.7488 24.9541C23.8283 24.8734 23.8914 24.7777 23.9345 24.6723C23.9775 24.5668 23.9997 24.4538 23.9998 24.3397C23.9999 24.2256 23.9778 24.1125 23.9349 24.007C23.892 23.9016 23.8291 23.8057 23.7497 23.7249L16.659 16.5203C16.4987 16.3574 16.2813 16.266 16.0546 16.266C15.8279 16.266 15.6105 16.3574 15.4502 16.5203ZM0.372808 1.20062C0.293192 1.28131 0.230026 1.37717 0.186927 1.4827C0.143828 1.58824 0.121643 1.70137 0.121643 1.81563C0.121643 1.92989 0.143828 2.04303 0.186927 2.14856C0.230026 2.25409 0.293192 2.34995 0.372808 2.43064L7.46179 9.63356C7.6221 9.79667 7.83961 9.8884 8.06647 9.88856C8.29334 9.88872 8.51097 9.79731 8.6715 9.63443C8.83203 9.47155 8.92231 9.25054 8.92247 9.02003C8.92263 8.78952 8.83266 8.56839 8.67236 8.40528L1.58166 1.20062C1.42134 1.03777 1.20393 0.946289 0.977235 0.946289C0.750541 0.946289 0.533129 1.03777 0.372808 1.20062Z" fill="#545454"/>
<path fill-rule="evenodd" clip-rule="evenodd" d="M7.7558 1.81543C7.7558 1.58505 7.66573 1.36411 7.5054 1.2012C7.34507 1.0383 7.12762 0.946777 6.90088 0.946777H0.916443C0.689704 0.946777 0.472252 1.0383 0.311924 1.2012C0.151595 1.36411 0.0615234 1.58505 0.0615234 1.81543V7.89602C0.0615234 8.12641 0.151595 8.34735 0.311924 8.51026C0.472252 8.67316 0.689704 8.76468 0.916443 8.76468C1.14318 8.76468 1.36063 8.67316 1.52096 8.51026C1.68129 8.34735 1.77136 8.12641 1.77136 7.89602V2.68409H6.90088C7.12762 2.68409 7.34507 2.59257 7.5054 2.42967C7.66573 2.26676 7.7558 2.04581 7.7558 1.81543Z" fill="#545454"/>
</svg>
