<svg width="140" height="20" viewBox="0 0 140 20" fill="none" xmlns="http://www.w3.org/2000/svg">
<path fill-rule="evenodd" clip-rule="evenodd" d="M119.583 18.5625C119.485 19.1175 120.033 19.5512 120.515 19.3037L126.003 16.4837L131.489 19.3037C131.971 19.5512 132.519 19.1175 132.421 18.5637L131.384 12.6512L135.788 8.45621C136.199 8.06371 135.985 7.34622 135.434 7.26871L129.311 6.39872L126.581 0.989965C126.529 0.880326 126.447 0.787694 126.345 0.72283C126.242 0.657967 126.123 0.623535 126.002 0.623535C125.881 0.623535 125.762 0.657967 125.659 0.72283C125.557 0.787694 125.475 0.880326 125.423 0.989965L122.693 6.39996L116.57 7.26997C116.019 7.34747 115.805 8.06496 116.216 8.45746L120.62 12.6525L119.583 18.565V18.5625ZM125.714 15.1037L121.106 17.4712L121.974 12.525C121.994 12.4111 121.986 12.294 121.951 12.1839C121.915 12.0739 121.853 11.9742 121.77 11.8937L118.138 8.43121L123.203 7.71122C123.307 7.69538 123.407 7.65435 123.492 7.59165C123.578 7.52896 123.647 7.44645 123.694 7.35122L126.003 2.77871L128.31 7.35122C128.357 7.44645 128.426 7.52896 128.511 7.59165C128.597 7.65435 128.696 7.69538 128.801 7.71122L133.866 8.42997L130.234 11.8925C130.15 11.973 130.088 12.0729 130.053 12.1832C130.017 12.2935 130.009 12.4109 130.03 12.525L130.898 17.4712L126.29 15.1037C126.201 15.0578 126.102 15.0338 126.002 15.0338C125.902 15.0338 125.803 15.0578 125.714 15.1037Z" fill="#FFB21E"/>
<path fill-rule="evenodd" clip-rule="evenodd" d="M91.5825 18.5625C91.485 19.1175 92.0325 19.5512 92.515 19.3037L98.0025 16.4837L103.489 19.3037C103.971 19.5512 104.519 19.1175 104.421 18.5637L103.384 12.6512L107.788 8.45621C108.199 8.06371 107.985 7.34622 107.434 7.26872L101.311 6.39872L98.5813 0.989965C98.5293 0.880326 98.4472 0.787694 98.3447 0.72283C98.2421 0.657967 98.1232 0.623535 98.0019 0.623535C97.8806 0.623535 97.7617 0.657967 97.6591 0.72283C97.5566 0.787694 97.4745 0.880326 97.4225 0.989965L94.6925 6.39996L88.57 7.26997C88.0188 7.34747 87.805 8.06496 88.2163 8.45746L92.62 12.6525L91.5825 18.565V18.5625ZM97.7138 15.1037L93.1063 17.4712L93.9738 12.525C93.9941 12.4111 93.9861 12.294 93.9506 12.1839C93.9151 12.0739 93.8531 11.9742 93.77 11.8937L90.1375 8.43121L95.2025 7.71122C95.3074 7.69538 95.4069 7.65435 95.4924 7.59165C95.578 7.52896 95.6471 7.44645 95.6938 7.35122L98.0025 2.77871L100.31 7.35122C100.357 7.44645 100.426 7.52896 100.511 7.59165C100.597 7.65435 100.696 7.69538 100.801 7.71122L105.866 8.42997L102.234 11.8925C102.15 11.973 102.088 12.0729 102.053 12.1832C102.017 12.2935 102.009 12.4109 102.03 12.525L102.897 17.4712L98.29 15.1037C98.2009 15.0578 98.1021 15.0338 98.0019 15.0338C97.9017 15.0338 97.8029 15.0578 97.7138 15.1037Z" fill="#FFB21E"/>
<path fill-rule="evenodd" clip-rule="evenodd" d="M7.58253 18.5625C7.48503 19.1175 8.03253 19.5512 8.51503 19.3037L14.0025 16.4837L19.4888 19.3037C19.9713 19.5512 20.5188 19.1175 20.4213 18.5637L19.3838 12.6512L23.7875 8.45621C24.1988 8.06371 23.985 7.34622 23.4338 7.26872L17.3113 6.39872L14.5813 0.989965C14.5293 0.880326 14.4472 0.787694 14.3447 0.72283C14.2421 0.657967 14.1232 0.623535 14.0019 0.623535C13.8805 0.623535 13.7617 0.657967 13.6591 0.72283C13.5566 0.787694 13.4745 0.880326 13.4225 0.989965L10.6925 6.39996L4.57003 7.26997C4.01878 7.34747 3.80503 8.06496 4.21628 8.45746L8.62003 12.6525L7.58253 18.565V18.5625ZM13.7138 15.1037L9.10628 17.4712L9.97378 12.525C9.9941 12.4111 9.98615 12.294 9.95062 12.1839C9.91509 12.0739 9.85308 11.9742 9.77003 11.8937L6.13753 8.43121L11.2025 7.71122C11.3074 7.69538 11.4069 7.65435 11.4924 7.59165C11.578 7.52896 11.6471 7.44645 11.6938 7.35122L14.0025 2.77871L16.31 7.35122C16.3567 7.44645 16.4258 7.52896 16.5114 7.59165C16.5969 7.65435 16.6964 7.69538 16.8013 7.71122L21.8663 8.42997L18.2338 11.8925C18.1504 11.973 18.0882 12.0729 18.0527 12.1832C18.0172 12.2935 18.0094 12.4109 18.03 12.525L18.8975 17.4712L14.29 15.1037C14.2009 15.0578 14.1021 15.0338 14.0019 15.0338C13.9017 15.0338 13.8029 15.0578 13.7138 15.1037Z" fill="#FFB21E"/>
<path fill-rule="evenodd" clip-rule="evenodd" d="M35.5825 18.5625C35.485 19.1175 36.0325 19.5512 36.515 19.3037L42.0025 16.4837L47.4888 19.3037C47.9713 19.5512 48.5188 19.1175 48.4213 18.5637L47.3838 12.6512L51.7875 8.45621C52.1988 8.06371 51.985 7.34622 51.4338 7.26872L45.3113 6.39872L42.5813 0.989965C42.5293 0.880326 42.4472 0.787694 42.3447 0.72283C42.2421 0.657967 42.1232 0.623535 42.0019 0.623535C41.8806 0.623535 41.7617 0.657967 41.6591 0.72283C41.5566 0.787694 41.4745 0.880326 41.4225 0.989965L38.6925 6.39996L32.57 7.26997C32.0188 7.34747 31.805 8.06496 32.2163 8.45746L36.62 12.6525L35.5825 18.565V18.5625ZM41.7138 15.1037L37.1063 17.4712L37.9738 12.525C37.9941 12.4111 37.9861 12.294 37.9506 12.1839C37.9151 12.0739 37.8531 11.9742 37.77 11.8937L34.1375 8.43121L39.2025 7.71122C39.3074 7.69538 39.4069 7.65435 39.4924 7.59165C39.578 7.52896 39.6471 7.44645 39.6938 7.35122L42.0025 2.77871L44.31 7.35122C44.3567 7.44645 44.4258 7.52896 44.5114 7.59165C44.5969 7.65435 44.6964 7.69538 44.8013 7.71122L49.8663 8.42997L46.2338 11.8925C46.1504 11.973 46.0882 12.0729 46.0527 12.1832C46.0172 12.2935 46.0094 12.4109 46.03 12.525L46.8975 17.4712L42.29 15.1037C42.2009 15.0578 42.1021 15.0338 42.0019 15.0338C41.9017 15.0338 41.8029 15.0578 41.7138 15.1037Z" fill="#FFB21E"/>
<path fill-rule="evenodd" clip-rule="evenodd" d="M63.5825 18.5625C63.485 19.1175 64.0325 19.5512 64.515 19.3037L70.0025 16.4837L75.4888 19.3037C75.9713 19.5512 76.5188 19.1175 76.4213 18.5637L75.3838 12.6512L79.7875 8.45621C80.1988 8.06371 79.985 7.34622 79.4338 7.26872L73.3113 6.39872L70.5813 0.989965C70.5293 0.880326 70.4472 0.787694 70.3447 0.72283C70.2421 0.657967 70.1232 0.623535 70.0019 0.623535C69.8806 0.623535 69.7617 0.657967 69.6591 0.72283C69.5566 0.787694 69.4745 0.880326 69.4225 0.989965L66.6925 6.39996L60.57 7.26997C60.0188 7.34747 59.805 8.06496 60.2163 8.45746L64.62 12.6525L63.5825 18.565V18.5625ZM69.7138 15.1037L65.1063 17.4712L65.9738 12.525C65.9941 12.4111 65.9861 12.294 65.9506 12.1839C65.9151 12.0739 65.8531 11.9742 65.77 11.8937L62.1375 8.43121L67.2025 7.71122C67.3074 7.69538 67.4069 7.65435 67.4924 7.59165C67.578 7.52896 67.6471 7.44645 67.6938 7.35122L70.0025 2.77871L72.31 7.35122C72.3567 7.44645 72.4258 7.52896 72.5114 7.59165C72.5969 7.65435 72.6964 7.69538 72.8013 7.71122L77.8663 8.42997L74.2338 11.8925C74.1504 11.973 74.0882 12.0729 74.0527 12.1832C74.0172 12.2935 74.0094 12.4109 74.03 12.525L74.8975 17.4712L70.29 15.1037C70.2009 15.0578 70.1021 15.0338 70.0019 15.0338C69.9017 15.0338 69.8029 15.0578 69.7138 15.1037Z" fill="#FFB21E"/>
</svg>
