<svg width="140" height="20" viewBox="0 0 140 20" fill="none" xmlns="http://www.w3.org/2000/svg">
<g clip-path="url(#clip0)">
<path d="M120.515 19.3039C120.033 19.5514 119.485 19.1176 119.583 18.5639L120.62 12.6514L116.216 8.45639C115.805 8.06389 116.019 7.34639 116.57 7.26889L122.693 6.39889L125.423 0.990137C125.669 0.502637 126.335 0.502637 126.581 0.990137L129.311 6.39889L135.434 7.26889C135.985 7.34639 136.199 8.06389 135.788 8.45639L131.384 12.6514L132.421 18.5639C132.519 19.1176 131.971 19.5514 131.489 19.3039L126 16.4839L120.514 19.3039H120.515Z" fill="#FFB21E"/>
</g>
<g clip-path="url(#clip1)">
<path d="M92.515 19.3039C92.0325 19.5514 91.485 19.1176 91.5825 18.5639L92.62 12.6514L88.2163 8.45639C87.805 8.06389 88.0188 7.34639 88.57 7.26889L94.6925 6.39889L97.4225 0.990137C97.6688 0.502637 98.335 0.502637 98.5813 0.990137L101.311 6.39889L107.434 7.26889C107.985 7.34639 108.199 8.06389 107.788 8.45639L103.384 12.6514L104.421 18.5639C104.519 19.1176 103.971 19.5514 103.489 19.3039L98 16.4839L92.5138 19.3039H92.515Z" fill="#FFB21E"/>
</g>
<g clip-path="url(#clip2)">
<path d="M8.51503 19.3039C8.03253 19.5514 7.48503 19.1176 7.58253 18.5639L8.62003 12.6514L4.21628 8.45639C3.80503 8.06389 4.01878 7.34639 4.57003 7.26889L10.6925 6.39889L13.4225 0.990137C13.6688 0.502637 14.335 0.502637 14.5813 0.990137L17.3113 6.39889L23.4338 7.26889C23.985 7.34639 24.1988 8.06389 23.7875 8.45639L19.3838 12.6514L20.4213 18.5639C20.5188 19.1176 19.9713 19.5514 19.4888 19.3039L14 16.4839L8.51378 19.3039H8.51503Z" fill="#FFB21E"/>
</g>
<g clip-path="url(#clip3)">
<path d="M36.515 19.3039C36.0325 19.5514 35.485 19.1176 35.5825 18.5639L36.62 12.6514L32.2163 8.45639C31.805 8.06389 32.0188 7.34639 32.57 7.26889L38.6925 6.39889L41.4225 0.990137C41.6688 0.502637 42.335 0.502637 42.5813 0.990137L45.3113 6.39889L51.4338 7.26889C51.985 7.34639 52.1988 8.06389 51.7875 8.45639L47.3838 12.6514L48.4213 18.5639C48.5188 19.1176 47.9713 19.5514 47.4888 19.3039L42 16.4839L36.5138 19.3039H36.515Z" fill="#FFB21E"/>
</g>
<g clip-path="url(#clip4)">
<path d="M64.515 19.3039C64.0325 19.5514 63.485 19.1176 63.5825 18.5639L64.62 12.6514L60.2163 8.45639C59.805 8.06389 60.0188 7.34639 60.57 7.26889L66.6925 6.39889L69.4225 0.990137C69.6688 0.502637 70.335 0.502637 70.5813 0.990137L73.3113 6.39889L79.4338 7.26889C79.985 7.34639 80.1988 8.06389 79.7875 8.45639L75.3838 12.6514L76.4213 18.5639C76.5188 19.1176 75.9713 19.5514 75.4888 19.3039L70 16.4839L64.5138 19.3039H64.515Z" fill="#FFB21E"/>
</g>
<defs>
<clipPath id="clip0">
<rect width="20" height="20" fill="white" transform="translate(116)"/>
</clipPath>
<clipPath id="clip1">
<rect width="20" height="20" fill="white" transform="translate(88)"/>
</clipPath>
<clipPath id="clip2">
<rect width="20" height="20" fill="white" transform="translate(4)"/>
</clipPath>
<clipPath id="clip3">
<rect width="20" height="20" fill="white" transform="translate(32)"/>
</clipPath>
<clipPath id="clip4">
<rect width="20" height="20" fill="white" transform="translate(60)"/>
</clipPath>
</defs>
</svg>
