<svg width="96" height="96" viewBox="0 0 96 96" fill="none" xmlns="http://www.w3.org/2000/svg">
<path d="M69.356 35.4104C69.356 38.4652 66.8813 40.9415 63.8264 40.9415C60.7731 40.9415 58.2969 38.4652 58.2969 35.4104C58.2969 32.3556 60.7731 29.8809 63.8264 29.8809C66.8813 29.8809 69.356 32.3556 69.356 35.4104Z" fill="#CDDC33"/>
<path d="M37.5591 35.4104C37.5591 38.4652 35.0829 40.9415 32.0295 40.9415C28.9762 40.9415 26.5 38.4652 26.5 35.4104C26.5 32.3556 28.9762 29.8809 32.0295 29.8809C35.0829 29.8809 37.5591 32.3556 37.5591 35.4104Z" fill="#CDDC33"/>
<path d="M67.5886 56.6295C68.8463 56.6295 69.8672 57.6489 69.8672 58.9081C69.8672 68.7443 61.9557 76.7471 52.2303 76.7471H44.5497C34.8243 76.7471 26.9128 68.7885 26.9128 59.0069C26.9128 57.7477 27.9322 56.7268 29.1914 56.7268C30.4493 56.7268 31.4685 57.7477 31.4685 59.0069C31.4685 66.2744 37.3368 72.1883 44.5495 72.1883H52.2301C59.4429 72.1883 65.3096 66.2319 65.3096 58.9083C65.31 57.6489 66.3308 56.6295 67.5886 56.6295Z" fill="#CDDC33"/>
<path d="M48.0003 96C21.5389 96 0.0117188 74.4667 0.0117188 47.9992C0.0117187 21.5333 21.5389 0 48.0003 0C74.4601 0 95.9873 21.5333 95.9873 47.9992C95.9873 74.4665 74.4601 96 48.0003 96ZM48.0003 4.55892C24.0515 4.55892 4.56911 24.0461 4.56911 47.9992C4.56911 71.9541 24.0517 91.4411 48.0003 91.4411C71.9475 91.4411 91.4299 71.9539 91.4299 47.9992C91.4299 24.0459 71.9475 4.55892 48.0003 4.55892Z" fill="#CDDC33"/>
</svg>
