<svg width="72" height="72" viewBox="0 0 72 72" fill="none" xmlns="http://www.w3.org/2000/svg">
<path d="M19.3934 10.6875H30.4605H41.5418H52.609H63.6762V5.0625H8.32617V10.6875H19.3934Z" fill="#FFDAAE"/>
<path d="M15.2438 24.3281L19.3922 10.6875H8.325L1.40625 24.3281V27.7875C1.40625 31.6125 4.5 34.7063 8.325 34.7063C12.15 34.7063 15.2438 31.6125 15.2438 27.7875V24.3281Z" fill="#FF5A5A"/>
<path d="M19.3926 10.6875L15.2441 24.3281V27.7875C15.2441 31.6125 18.3379 34.7063 22.1629 34.7063C25.9879 34.7063 29.0816 31.6125 29.0816 27.7875V24.3281L30.4598 10.6875H19.3926Z" fill="#FF9D21"/>
<path d="M30.4582 10.6875L29.0801 24.3281V27.7875C29.0801 31.6125 32.1738 34.7063 35.9988 34.7063C39.8238 34.7063 42.9176 31.6125 42.9176 27.7875V24.3281L41.5394 10.6875H30.4582Z" fill="#FF5A5A"/>
<path d="M41.541 10.6875L42.9191 24.3281V27.7875C42.9191 31.6125 46.0129 34.7063 49.8379 34.7063C53.6629 34.7063 56.7567 31.6125 56.7567 27.7875V24.3281L52.6082 10.6875H41.541Z" fill="#FF9D21"/>
<path d="M52.6074 10.6875L56.7559 24.3281V27.7875C56.7559 31.6125 59.8496 34.7063 63.6746 34.7063C67.4996 34.7063 70.5934 31.6125 70.5934 27.7875V24.3281L63.6746 10.6875H52.6074Z" fill="#FF5A5A"/>
<path d="M49.8387 34.7062C46.0137 34.7062 42.9199 31.6125 42.9199 27.7875C42.9199 31.6125 39.8262 34.7062 36.0012 34.7062C32.1762 34.7062 29.0824 31.6125 29.0824 27.7875C29.0824 31.6125 25.9887 34.7062 22.1637 34.7062C18.3387 34.7062 15.2449 31.6125 15.2449 27.7875C15.2449 31.6125 12.1512 34.7062 8.32617 34.7062V66.9375H46.8012V61.3125H13.9512V56.1656V41.625H28.4918H37.3652H46.8012H58.0512V66.9375H63.6762V34.7062C59.8512 34.7062 56.7574 31.6125 56.7574 27.7875C56.7574 31.5984 53.6637 34.7062 49.8387 34.7062Z" fill="#FFDAAE"/>
<path d="M46.8012 41.625H37.3652H28.4918H13.9512V56.1656V61.3125H46.8012V54.2812V41.625Z" fill="#96C8EB"/>
<path d="M46.7988 41.625V54.2812V61.3125V66.9375H58.0488V41.625H46.7988Z" fill="#BF9A94"/>
<path d="M71.8453 23.6812L65.0812 10.35V5.0625C65.0812 4.28906 64.4484 3.65625 63.675 3.65625H8.325C7.55156 3.65625 6.91875 4.28906 6.91875 5.0625V10.35L0.154688 23.6812C0.05625 23.8781 0 24.1031 0 24.3141V27.7734C0 31.8797 2.99531 35.3109 6.91875 35.9719V65.5312H5.48438C4.71094 65.5312 4.07812 66.1641 4.07812 66.9375C4.07812 67.7109 4.71094 68.3438 5.48438 68.3438H8.325H8.33906H46.8141H58.0641H63.6891H66.5156C67.2891 68.3438 67.9219 67.7109 67.9219 66.9375C67.9219 66.1641 67.2891 65.5312 66.5156 65.5312H65.0812V35.9859C69.0047 35.3109 72 31.8938 72 27.7875V24.3281C72 24.1031 71.9437 23.8781 71.8453 23.6812ZM9.73125 6.46875H62.2687V9.28125H52.6078H41.5406H30.4734H19.4062H9.73125V6.46875ZM55.35 27.7875C55.35 30.825 52.875 33.3 49.8375 33.3C46.8 33.3 44.325 30.825 44.325 27.7875V24.3281C44.325 24.2859 44.325 24.2297 44.3109 24.1875L43.0875 12.0938H51.5531L55.3359 24.525V27.7875H55.35ZM41.5125 27.7875C41.5125 30.825 39.0375 33.3 36 33.3C32.9625 33.3 30.4875 30.825 30.4875 27.7875V24.3984L31.7391 12.0938H40.2609L41.5125 24.3984V27.7875ZM27.675 24.3281V27.7875C27.675 30.825 25.2 33.3 22.1625 33.3C19.125 33.3 16.65 30.825 16.65 27.7875V24.5391L20.4328 12.0938H28.8984L27.675 24.1734C27.675 24.2297 27.675 24.2719 27.675 24.3281ZM2.8125 27.7875V24.6656L9.18281 12.0938H17.4937L13.8938 23.9062C13.8516 24.0328 13.8375 24.1734 13.8375 24.3141V27.7734C13.8375 30.8109 11.3625 33.2859 8.325 33.2859C5.2875 33.3 2.8125 30.825 2.8125 27.7875ZM9.73125 35.9859C12.0234 35.5922 13.9922 34.2703 15.2438 32.4C16.7344 34.6359 19.2797 36.0984 22.1625 36.0984C25.0453 36.0984 27.5906 34.6219 29.0813 32.4C30.5719 34.6359 33.1172 36.0984 36 36.0984C38.8828 36.0984 41.4281 34.6219 42.9188 32.4C44.4094 34.6359 46.9547 36.0984 49.8375 36.0984C52.7203 36.0984 55.2656 34.6219 56.7563 32.4C58.0078 34.2562 59.9766 35.5922 62.2687 35.9859V65.5312H59.4562V41.625C59.4562 40.8516 58.8234 40.2188 58.05 40.2188H46.8H13.95C13.1766 40.2188 12.5437 40.8516 12.5437 41.625V61.3125C12.5437 62.0859 13.1766 62.7188 13.95 62.7188H45.3937V65.5312H9.73125V35.9859ZM15.3562 56.7422L29.0672 43.0312H33.9609L31.2891 45.7031C30.7406 46.2516 30.7406 47.1375 31.2891 47.6859C31.5703 47.9672 31.9219 48.0938 32.2875 48.0938C32.6531 48.0938 33.0047 47.9531 33.2859 47.6859L37.9547 43.0172H45.3937V59.8922H15.3562V56.7422ZM15.3562 52.7625V43.0312H25.0875L15.3562 52.7625ZM48.2062 65.5312V61.3125V55.6875H49.6125C50.3859 55.6875 51.0187 55.0547 51.0187 54.2812C51.0187 53.5078 50.3859 52.875 49.6125 52.875H48.2062V43.0312H56.6437V65.5312H48.2062ZM69.1875 27.7875C69.1875 30.825 66.7125 33.3 63.675 33.3C60.6375 33.3 58.1625 30.825 58.1625 27.7875V24.3281C58.1625 24.1875 58.1484 24.0469 58.1063 23.9203L54.5063 12.1078H62.8172L69.1875 24.6656V27.7875Z" fill="#000001"/>
</svg>
