<svg width="25" height="25" viewBox="0 0 25 25" fill="none" xmlns="http://www.w3.org/2000/svg">
<g clip-path="url(#clip0)">
<path d="M20.1096 23.9038C14.9766 24.4517 9.82806 24.4517 4.69507 23.9038C2.64832 23.6854 1.03168 22.0687 0.813232 20.0218C0.265381 14.8888 0.265381 9.74042 0.813232 4.60742C1.03168 2.56067 2.64832 0.944031 4.69507 0.725586C9.82806 0.177734 14.9764 0.177734 20.1094 0.725586C22.1564 0.944031 23.773 2.56067 23.9915 4.60742C24.5393 9.74042 24.5393 14.8888 23.9915 20.0218C23.773 22.0687 22.1566 23.6854 20.1096 23.9038Z" fill="url(#paint0_linear)"/>
<path d="M22.6861 5.47556C22.4923 3.65933 21.0579 2.2247 19.2415 2.03079C14.6866 1.54483 10.1181 1.54483 5.56314 2.03079C3.74692 2.2247 2.31229 3.65933 2.11838 5.47556C1.63242 10.0305 1.63242 14.599 2.11838 19.1537C2.31229 20.9701 3.74692 22.4048 5.56314 22.5985C10.1181 23.0846 14.6866 23.0846 19.2413 22.5985C21.0577 22.4048 22.4923 20.9701 22.6861 19.1537C23.1722 14.599 23.1722 10.0305 22.6861 5.47556Z" fill="url(#paint1_linear)"/>
<path d="M0.761719 19.5243C0.778198 19.6902 0.795227 19.8561 0.812988 20.022C1.03143 22.0687 2.64807 23.6854 4.69501 23.9038C9.828 24.4517 14.9764 24.4517 20.1094 23.9038C22.1563 23.6854 23.7728 22.0687 23.9912 20.022C24.009 19.8561 24.026 19.6902 24.0427 19.5243H0.761719Z" fill="url(#paint2_linear)"/>
<path d="M20.1098 23.9038C22.1568 23.6853 23.7732 22.0687 23.9917 20.0218C24.2313 17.7773 24.3661 15.5298 24.3961 13.2818L19.1828 8.06864C18.9151 7.73685 18.673 7.70609 18.1713 7.60813C17.7648 7.52866 17.349 7.47446 16.9353 7.45817C15.6128 7.40598 14.2893 7.35636 12.9658 7.34373C11.0225 7.32523 9.07882 7.33164 7.14322 7.55649C6.30862 7.65336 5.42642 8.30796 5.33175 9.20023C5.28323 9.65873 5.199 10.1147 5.17282 10.5743C5.07705 12.248 5.0571 13.9209 5.2911 15.588C5.36947 16.1463 5.45572 16.4018 5.832 16.713L13.4263 24.3074C15.6552 24.2757 17.884 24.1413 20.1098 23.9038Z" fill="url(#paint3_linear)"/>
<path d="M12.8144 17.4804C10.8771 17.4154 9.37765 17.3785 7.88003 17.307C7.423 17.2851 6.9526 17.223 6.51974 17.0824C5.72305 16.8238 5.26858 16.2412 5.15048 15.3998C4.91647 13.7326 4.93643 12.0598 5.03219 10.386C5.05856 9.92643 5.14279 9.4705 5.19131 9.012C5.28561 8.11973 6.168 7.46494 7.00259 7.36826C8.93838 7.14341 10.8819 7.137 12.8253 7.15549C14.1488 7.16813 15.4721 7.21775 16.7947 7.26993C17.2083 7.28623 17.6242 7.34061 18.0307 7.4199C18.9264 7.59476 19.4446 8.15507 19.6024 9.05503C19.8159 10.2727 19.8718 11.5021 19.8269 12.732C19.7931 13.6629 19.6971 14.5923 19.6006 15.5196C19.494 16.5429 18.608 17.149 17.81 17.2016C16.0015 17.3208 14.1909 17.4054 12.8144 17.4804Z" fill="url(#paint4_linear)"/>
<path d="M10.9863 14.5788C12.2369 13.811 13.457 13.0616 14.7136 12.29C13.4595 11.5193 12.2397 10.7697 10.9863 9.99951V14.5788Z" fill="white"/>
</g>
<defs>
<linearGradient id="paint0_linear" x1="5.86199" y1="-0.285534" x2="23.1552" y2="33.0305" gradientUnits="userSpaceOnUse">
<stop stop-color="#FFFCF8"/>
<stop offset="0.1875" stop-color="#FAF8F6"/>
<stop offset="0.4041" stop-color="#ECEEF2"/>
<stop offset="0.6353" stop-color="#D5DCEA"/>
<stop offset="0.875" stop-color="#B5C4DF"/>
<stop offset="1" stop-color="#A1B5D8"/>
</linearGradient>
<linearGradient id="paint1_linear" x1="9.60728" y1="10.7425" x2="-31.0516" y2="-12.1281" gradientUnits="userSpaceOnUse">
<stop stop-color="#A1B5D8" stop-opacity="0"/>
<stop offset="0.3094" stop-color="#90A2BD" stop-opacity="0.309804"/>
<stop offset="0.7554" stop-color="#7C8B9C" stop-opacity="0.756863"/>
<stop offset="1" stop-color="#748290"/>
</linearGradient>
<linearGradient id="paint2_linear" x1="12.4021" y1="21.5006" x2="12.4021" y2="25.2416" gradientUnits="userSpaceOnUse">
<stop stop-color="#A1B5D8" stop-opacity="0"/>
<stop offset="0.3094" stop-color="#90A2BD" stop-opacity="0.309804"/>
<stop offset="0.7554" stop-color="#7C8B9C" stop-opacity="0.756863"/>
<stop offset="1" stop-color="#748290"/>
</linearGradient>
<linearGradient id="paint3_linear" x1="20.2544" y1="20.1388" x2="3.78954" y2="3.67396" gradientUnits="userSpaceOnUse">
<stop stop-color="#A1B5D8" stop-opacity="0"/>
<stop offset="0.3094" stop-color="#90A2BD" stop-opacity="0.309804"/>
<stop offset="0.7554" stop-color="#7C8B9C" stop-opacity="0.756863"/>
<stop offset="1" stop-color="#748290"/>
</linearGradient>
<linearGradient id="paint4_linear" x1="11.4954" y1="9.68454" x2="13.6995" y2="16.1022" gradientUnits="userSpaceOnUse">
<stop stop-color="#E52D27"/>
<stop offset="1" stop-color="#B31217"/>
</linearGradient>
<clipPath id="clip0">
<rect width="24" height="24" fill="white" transform="translate(0.402344 0.314697)"/>
</clipPath>
</defs>
</svg>
