<svg width="25" height="25" viewBox="0 0 25 25" fill="none" xmlns="http://www.w3.org/2000/svg">
<g clip-path="url(#clip0)">
<path d="M20.1096 23.9038C14.9766 24.4517 9.82806 24.4517 4.69507 23.9038C2.64832 23.6854 1.03168 22.0687 0.813232 20.0218C0.265381 14.8888 0.265381 9.74042 0.813232 4.60742C1.03168 2.56067 2.64832 0.944031 4.69507 0.725586C9.82806 0.177734 14.9764 0.177734 20.1094 0.725586C22.1564 0.944031 23.773 2.56067 23.9915 4.60742C24.5393 9.74042 24.5393 14.8888 23.9915 20.0218C23.773 22.0687 22.1566 23.6854 20.1096 23.9038Z" fill="url(#paint0_linear)"/>
<path d="M22.6861 5.47549C22.4923 3.65927 21.0579 2.22464 19.2415 2.03073C14.6866 1.54477 10.1181 1.54477 5.56314 2.03073C3.74692 2.22464 2.31229 3.65927 2.11838 5.47549C1.63242 10.0304 1.63242 14.5989 2.11838 19.1537C2.31229 20.9701 3.74692 22.4047 5.56314 22.5984C10.1181 23.0846 14.6866 23.0846 19.2413 22.5984C21.0577 22.4047 22.4923 20.9701 22.6861 19.1537C23.1722 14.5989 23.1722 10.0304 22.6861 5.47549Z" fill="url(#paint1_linear)"/>
<path d="M0.761719 19.5243C0.778198 19.6902 0.795227 19.8561 0.812988 20.022C1.03143 22.0687 2.64807 23.6854 4.69501 23.9038C9.828 24.4517 14.9764 24.4517 20.1094 23.9038C22.1563 23.6854 23.7728 22.0687 23.9912 20.022C24.009 19.8561 24.026 19.6902 24.0427 19.5243H0.761719Z" fill="url(#paint2_linear)"/>
<path d="M16.5366 4.31171C14.4455 4.31171 12.7505 6.0069 12.7505 8.09796V10.926H10.7129V14.4276L12.7505 16.2526V24.3136C15.2045 24.3017 17.6583 24.1653 20.1088 23.9038C22.1557 23.6854 23.7722 22.0687 23.9906 20.0218C24.3982 16.2026 24.5024 12.3749 24.3033 8.55133L20.0637 4.31171H16.5366Z" fill="url(#paint3_linear)"/>
<path d="M12.7505 24.3136C14.1489 24.3068 15.5471 24.2594 16.9447 24.1715V14.4276H19.7275L20.0637 10.926H16.9447V8.70258C16.9447 8.21149 17.3428 7.81342 17.8339 7.81342H20.0637V4.31171H16.5366C14.4455 4.31171 12.7505 6.0069 12.7505 8.09796V10.926H10.7129V14.4276H12.7505V24.3136Z" fill="white"/>
</g>
<defs>
<linearGradient id="paint0_linear" x1="8.37081" y1="3.68905" x2="14.4411" y2="16.6766" gradientUnits="userSpaceOnUse">
<stop stop-color="#3457A0"/>
<stop offset="1" stop-color="#3B5998"/>
</linearGradient>
<linearGradient id="paint1_linear" x1="16.955" y1="15.4428" x2="-4.02494" y2="1.02756" gradientUnits="userSpaceOnUse">
<stop stop-color="#3457A0" stop-opacity="0"/>
<stop offset="1" stop-color="#1F3F77"/>
</linearGradient>
<linearGradient id="paint2_linear" x1="12.4021" y1="20.3713" x2="12.4021" y2="23.6189" gradientUnits="userSpaceOnUse">
<stop stop-color="#3457A0" stop-opacity="0"/>
<stop offset="1" stop-color="#1F3F77"/>
</linearGradient>
<linearGradient id="paint3_linear" x1="27.9536" y1="20.1348" x2="11.2956" y2="11.7352" gradientUnits="userSpaceOnUse">
<stop stop-color="#3457A0" stop-opacity="0"/>
<stop offset="0.3251" stop-color="#2A4C8D" stop-opacity="0.32549"/>
<stop offset="0.7045" stop-color="#22427D" stop-opacity="0.705882"/>
<stop offset="1" stop-color="#1F3F77"/>
</linearGradient>
<clipPath id="clip0">
<rect width="24" height="24" fill="white" transform="translate(0.402344 0.314697)"/>
</clipPath>
</defs>
</svg>
