<svg width="25" height="25" viewBox="0 0 25 25" fill="none" xmlns="http://www.w3.org/2000/svg">
<g clip-path="url(#clip0)">
<path d="M20.1096 23.9038C14.9766 24.4517 9.82806 24.4517 4.69507 23.9038C2.64832 23.6854 1.03168 22.0687 0.813232 20.0218C0.265381 14.8888 0.265381 9.74042 0.813232 4.60742C1.03168 2.56067 2.64832 0.944031 4.69507 0.725586C9.82806 0.177734 14.9764 0.177734 20.1094 0.725586C22.1564 0.944031 23.773 2.56067 23.9915 4.60742C24.5393 9.74042 24.5393 14.8888 23.9915 20.0218C23.773 22.0687 22.1566 23.6854 20.1096 23.9038Z" fill="url(#paint0_linear)"/>
<path d="M22.6861 5.47549C22.4923 3.65927 21.0579 2.22464 19.2415 2.03073C14.6866 1.54477 10.1181 1.54477 5.56314 2.03073C3.74692 2.22464 2.31229 3.65927 2.11838 5.47549C1.63242 10.0304 1.63242 14.5989 2.11838 19.1537C2.31229 20.9701 3.74692 22.4047 5.56314 22.5984C10.1181 23.0846 14.6866 23.0846 19.2413 22.5984C21.0577 22.4047 22.4923 20.9701 22.6861 19.1537C23.1722 14.5989 23.1722 10.0304 22.6861 5.47549Z" fill="url(#paint1_linear)"/>
<path d="M0.761719 19.5243C0.778198 19.6902 0.795227 19.8561 0.812988 20.022C1.03143 22.0687 2.64807 23.6854 4.69501 23.9038C9.828 24.4517 14.9764 24.4517 20.1094 23.9038C22.1563 23.6854 23.7728 22.0687 23.9912 20.022C24.009 19.8561 24.026 19.6902 24.0427 19.5243H0.761719Z" fill="url(#paint2_linear)"/>
<path d="M24.3978 11.4713L19.4161 6.48975C18.8578 6.8089 18.3658 6.98596 17.9952 7.08411C17.7868 7.13995 17.6167 7.17035 17.4944 7.18701C16.9326 6.61115 16.1482 6.25354 15.2799 6.25354C13.5715 6.25354 12.1863 7.63855 12.1863 9.34729C12.1863 9.409 12.188 9.46997 12.192 9.53076C12.2003 9.67889 12.2191 9.82446 12.2482 9.966C11.535 9.95538 9.21692 9.76495 7.0061 7.86981C7.00592 7.86981 7.00592 7.86963 7.00592 7.86963H7.00574L5.96313 6.82684C5.96313 6.82684 4.73999 8.96167 6.53827 10.5816C6.61719 10.6697 6.70398 10.7567 6.79901 10.8422C6.80652 10.8506 6.81439 10.8588 6.8219 10.8672C6.58588 10.8513 5.87598 10.7806 5.46509 10.4904C5.46509 10.4904 5.38251 11.7952 6.4696 12.7558L7.34741 13.6411C7.08008 13.6633 6.78436 13.658 6.57874 13.5679C6.57874 13.5679 6.76074 14.3408 7.46423 14.9593L8.69397 16.1954C7.95624 16.6252 6.66479 17.163 4.96484 17.0256L12.4247 24.3147C14.9879 24.314 17.551 24.177 20.1102 23.9038C22.1572 23.6854 23.7738 22.0687 23.9922 20.022C24.296 17.1747 24.431 14.3226 24.3978 11.4713Z" fill="url(#paint3_linear)"/>
<path d="M19.8414 7.69128C19.3104 7.96906 18.5106 8.09741 18.2455 8.1344C18.2433 8.12158 18.2411 8.10931 18.2389 8.09705C19.1403 7.53949 19.4163 6.48975 19.4163 6.48975C18.858 6.8089 18.366 6.98596 17.9954 7.08411C17.787 7.13995 17.6169 7.17017 17.4946 7.18701C16.9328 6.61096 16.1484 6.25354 15.2801 6.25354C13.5717 6.25354 12.1865 7.63837 12.1865 9.34729C12.1865 9.40881 12.1882 9.46997 12.1922 9.53058C12.2004 9.67871 12.2193 9.82428 12.2484 9.96582C11.4215 9.95355 8.43671 9.69995 5.96332 6.82684C5.96332 6.82684 4.586 9.22992 6.90155 10.8715C6.90155 10.8715 5.96332 10.8422 5.46527 10.4904C5.46527 10.4904 5.31879 12.806 7.98572 13.5384C7.98572 13.5384 7.04803 13.7731 6.57874 13.5679C6.57874 13.5679 7.04785 15.5608 9.39252 15.7076C9.39252 15.7076 7.71088 17.2472 4.96484 17.0256C6.31543 17.8807 7.91669 18.3757 9.63348 18.3757C14.4607 18.3757 18.374 14.4625 18.374 9.63531C18.374 9.57507 18.3735 9.51483 18.3722 9.45459C18.3735 9.41888 18.374 9.38336 18.374 9.34729C18.374 9.3222 18.3735 9.29712 18.3731 9.27203C19.2656 8.67731 19.8414 7.69128 19.8414 7.69128Z" fill="white"/>
</g>
<defs>
<linearGradient id="paint0_linear" x1="8.37081" y1="3.68905" x2="14.4411" y2="16.6766" gradientUnits="userSpaceOnUse">
<stop stop-color="#00C3FF"/>
<stop offset="1" stop-color="#00B0ED"/>
</linearGradient>
<linearGradient id="paint1_linear" x1="17.4781" y1="15.0375" x2="-17.3908" y2="-3.66747" gradientUnits="userSpaceOnUse">
<stop stop-color="#00B0ED" stop-opacity="0"/>
<stop offset="1" stop-color="#00A2CE"/>
</linearGradient>
<linearGradient id="paint2_linear" x1="12.4021" y1="20.817" x2="12.4021" y2="23.9618" gradientUnits="userSpaceOnUse">
<stop stop-color="#00B0ED" stop-opacity="0"/>
<stop offset="1" stop-color="#00A2CE"/>
</linearGradient>
<linearGradient id="paint3_linear" x1="23.3446" y1="22.9118" x2="11.6198" y2="11.1871" gradientUnits="userSpaceOnUse">
<stop stop-color="#00B0ED" stop-opacity="0"/>
<stop offset="1" stop-color="#00A2CE"/>
</linearGradient>
<clipPath id="clip0">
<rect width="24" height="24" fill="white" transform="translate(0.402344 0.314697)"/>
</clipPath>
</defs>
</svg>
