<svg width="25" height="25" viewBox="0 0 25 25" fill="none" xmlns="http://www.w3.org/2000/svg">
<path d="M20.1096 23.9038C14.9766 24.4517 9.82806 24.4517 4.69507 23.9038C2.64832 23.6854 1.03168 22.0687 0.813232 20.0218C0.265381 14.8888 0.265381 9.74042 0.813232 4.60742C1.03168 2.56067 2.64832 0.944031 4.69507 0.725586C9.82806 0.177734 14.9764 0.177734 20.1094 0.725586C22.1564 0.944031 23.773 2.56067 23.9915 4.60742C24.5393 9.74042 24.5393 14.8888 23.9915 20.0218C23.773 22.0687 22.1566 23.6854 20.1096 23.9038Z" fill="url(#paint0_linear)"/>
<path d="M22.6861 5.47549C22.4923 3.65927 21.0579 2.22464 19.2415 2.03073C14.6866 1.54477 10.1181 1.54477 5.56314 2.03073C3.74692 2.22464 2.31229 3.65927 2.11838 5.47549C1.63242 10.0304 1.63242 14.5989 2.11838 19.1537C2.31229 20.9701 3.74692 22.4047 5.56314 22.5984C10.1181 23.0846 14.6866 23.0846 19.2413 22.5984C21.0577 22.4047 22.4923 20.9701 22.6861 19.1537C23.1722 14.5989 23.1722 10.0304 22.6861 5.47549Z" fill="url(#paint1_linear)"/>
<path d="M0.761719 19.5243C0.778198 19.6902 0.795227 19.8561 0.812988 20.022C1.03143 22.0687 2.64807 23.6854 4.69501 23.9038C9.828 24.4517 14.9764 24.4517 20.1094 23.9038C22.1563 23.6854 23.7728 22.0687 23.9912 20.022C24.009 19.8561 24.026 19.6902 24.0427 19.5243H0.761719Z" fill="url(#paint2_linear)"/>
<path d="M17.4024 13.3147L15.9024 14.8147C15.4024 14.8147 13.9024 15.8147 13.9024 15.8147L13.9023 16.3147C13.9023 16.3147 13.9024 16.3147 13.9024 16.8147C12.194 16.8147 13.119 15.782 13.4023 15.3147C13.4826 15.1823 14.4393 14.6606 14.4023 14.3147C12.9023 14.8147 12.4024 14.8147 12.4024 14.8147H11.9024L11.9023 14.3147C11.9023 14.3147 11.767 14.0477 11.4023 14.3147C11.4813 14.4028 11.3073 14.7292 11.4023 14.8147C11.4099 14.8231 10.4023 14.5121 10.4023 14.3147C10.1663 14.2988 9.81323 14.6049 9.40234 14.3147C9.40234 14.3147 9.33566 14.3735 8.40234 14.3147L7.90234 14.8147C8.90234 16.3147 9.40234 17.3147 9.40234 17.3147C9.40234 17.3147 11.6989 16.6961 12.4024 17.3147L11.4024 17.8147C10.4023 18.3147 9.40234 19.3147 8.40234 19.8147L10.9024 24.3147C11.9024 24.3147 17.5504 24.1771 20.1097 23.9039C21.4024 23.8147 22.9024 22.8147 22.9024 22.3147C22.9024 22.3147 18.9024 15.3147 17.4024 13.3147Z" fill="url(#paint3_linear)"/>
<path d="M15.9021 6.31473C15.4021 6.3147 12.9021 4.81473 13.1312 4.81079C11.0083 4.81079 8.28711 7.03198 8.28711 9.15491C8.28711 10.2757 8.9021 11.3147 9.4021 11.8147L18.6717 24.0568C19.1425 24.0158 19.6132 23.9702 20.0836 23.92C22.1306 23.7016 23.7472 22.085 23.9656 20.038C24.0158 19.5676 24.0614 19.0969 24.1024 18.6261L15.9021 6.31473Z" fill="url(#paint4_linear)"/>
<path d="M12.4016 12.9812C14.7947 12.9812 16.7348 11.0411 16.7348 8.64792C16.7348 6.25472 14.7948 4.3147 12.4016 4.3147C10.0084 4.3147 8.06836 6.25475 8.06836 8.64795C8.0713 11.0399 10.0096 12.9782 12.4016 12.9812ZM12.4016 6.31465C13.6902 6.31465 14.7349 7.35929 14.7349 8.64795C14.7349 9.93661 13.6902 10.9812 12.4016 10.9812C11.1129 10.9812 10.0683 9.93661 10.0683 8.64795C10.0683 7.35929 11.113 6.31465 12.4016 6.31465Z" fill="white"/>
<path d="M16.6469 15.0345C17.1178 14.7243 17.4016 14.1984 17.4022 13.6346C17.4088 13.1666 17.1447 12.7369 16.7242 12.5313C16.2922 12.3155 15.7751 12.3641 15.3909 12.6566C13.6102 13.9548 11.1951 13.9548 9.4144 12.6566C9.02959 12.3656 8.51338 12.3171 8.08108 12.5313C7.66081 12.7368 7.3966 13.1661 7.40244 13.6339C7.40344 14.1977 7.68709 14.7234 8.15777 15.0338C8.76163 15.4354 9.41924 15.7496 10.1111 15.9671C10.2284 16.0035 10.3495 16.0373 10.4744 16.0684L8.45979 18.0383C7.9313 18.5511 7.91852 19.3951 8.43129 19.9236C8.94406 20.4521 9.78814 20.4649 10.3167 19.9521C10.3277 19.9414 10.3385 19.9306 10.3491 19.9195L12.4024 17.7943L14.4597 19.9235C14.972 20.4524 15.8161 20.4659 16.345 19.9535C16.8739 19.4412 16.8874 18.5971 16.375 18.0683C16.3643 18.0572 16.3534 18.0463 16.3423 18.0356L14.331 16.0677C14.4559 16.0357 14.5774 16.0017 14.6957 15.9657C15.3867 15.7491 16.0437 15.4355 16.6469 15.0345Z" fill="white"/>
<defs>
<linearGradient id="paint0_linear" x1="8.37081" y1="3.68905" x2="14.4411" y2="16.6766" gradientUnits="userSpaceOnUse">
<stop stop-color="#FF9800"/>
<stop offset="1" stop-color="#ED8D00"/>
</linearGradient>
<linearGradient id="paint1_linear" x1="17.4781" y1="15.0375" x2="-17.3908" y2="-3.66747" gradientUnits="userSpaceOnUse">
<stop stop-color="#BD7100" stop-opacity="0"/>
<stop offset="1" stop-color="#F39100"/>
</linearGradient>
<linearGradient id="paint2_linear" x1="12.4021" y1="20.817" x2="12.4021" y2="23.9618" gradientUnits="userSpaceOnUse">
<stop stop-color="#FF9800" stop-opacity="0"/>
<stop offset="1" stop-color="#F09002"/>
</linearGradient>
<linearGradient id="paint3_linear" x1="23.344" y1="22.9119" x2="11.6192" y2="11.1871" gradientUnits="userSpaceOnUse">
<stop stop-color="#D57F02" stop-opacity="0"/>
<stop offset="1" stop-color="#D17D01"/>
</linearGradient>
<linearGradient id="paint4_linear" x1="19.9021" y1="19.8147" x2="10.4021" y2="7.81473" gradientUnits="userSpaceOnUse">
<stop stop-color="#D07C00" stop-opacity="0"/>
<stop offset="1" stop-color="#C77702"/>
</linearGradient>
</defs>
</svg>
