<svg width="25" height="25" viewBox="0 0 25 25" fill="none" xmlns="http://www.w3.org/2000/svg">
<path d="M20.1096 23.9038C14.9766 24.4517 9.82806 24.4517 4.69507 23.9038C2.64832 23.6854 1.03168 22.0687 0.813232 20.0218C0.265381 14.8888 0.265381 9.74042 0.813232 4.60742C1.03168 2.56067 2.64832 0.944031 4.69507 0.725586C9.82806 0.177734 14.9764 0.177734 20.1094 0.725586C22.1564 0.944031 23.773 2.56067 23.9915 4.60742C24.5393 9.74042 24.5393 14.8888 23.9915 20.0218C23.773 22.0687 22.1566 23.6854 20.1096 23.9038Z" fill="url(#paint0_linear)"/>
<path d="M22.6861 5.47549C22.4923 3.65927 21.0579 2.22464 19.2415 2.03073C14.6866 1.54477 10.1181 1.54477 5.56314 2.03073C3.74692 2.22464 2.31229 3.65927 2.11838 5.47549C1.63242 10.0304 1.63242 14.5989 2.11838 19.1537C2.31229 20.9701 3.74692 22.4047 5.56314 22.5984C10.1181 23.0846 14.6866 23.0846 19.2413 22.5984C21.0577 22.4047 22.4923 20.9701 22.6861 19.1537C23.1722 14.5989 23.1722 10.0304 22.6861 5.47549Z" fill="url(#paint1_linear)"/>
<path d="M0.761719 19.5243C0.778198 19.6902 0.795227 19.8561 0.812988 20.022C1.03143 22.0687 2.64807 23.6854 4.69501 23.9038C9.828 24.4517 14.9764 24.4517 20.1094 23.9038C22.1563 23.6854 23.7728 22.0687 23.9912 20.022C24.009 19.8561 24.026 19.6902 24.0427 19.5243H0.761719Z" fill="url(#paint2_linear)"/>
<path d="M24.3971 11.4713L20.9803 6.5647C20.1876 8.11981 16.2728 10.2166 15.9022 10.3147C14.9023 9.78207 13.8241 6.5647 13.8241 6.5647C13.8241 6.5647 13.7705 12.7558 12.9022 12.7558C11.1938 12.7558 12.1856 7.63858 12.1856 9.34732C11.4022 12.7558 12.1816 7.80905 12.1856 7.86984C12.4183 9.81039 10.9022 11.8147 10.9022 11.8147C10.9022 11.8147 8.40222 9.3147 6.66785 6.5647L5.96237 6.82687C5.96237 6.82687 4.73923 8.9617 6.53751 10.5816C6.61643 10.6697 6.70322 10.7567 6.79825 10.8422C6.80576 10.8506 6.81363 10.8589 6.82114 10.8673C6.58512 10.8513 5.87522 10.7807 5.46433 10.4904C5.46433 10.4904 5.38175 11.7953 6.46884 12.7558L7.34665 13.6411C7.07932 13.6633 6.7836 13.658 6.57797 13.5679C6.57797 13.5679 8.19873 14.1962 8.90222 14.8147L13.4022 15.8147C13.4022 17.0257 8.79825 14.4478 6.79825 13.9478L13.9022 24.3147C14.9022 24.3147 17.5502 24.177 20.1095 23.9038C22.1564 23.6854 23.773 22.0688 23.9915 20.022C24.2953 17.1747 24.4302 14.3227 24.3971 11.4713Z" fill="url(#paint3_linear)"/>
<path d="M18.3391 12.6224C18.0481 12.2374 18.1314 12.0661 18.3391 11.722C18.3429 11.7181 20.7452 8.24048 20.9927 7.06113L20.9942 7.06034C21.1172 6.63055 20.9942 6.3147 20.3994 6.3147H18.4314C17.9303 6.3147 17.6993 6.58577 17.5756 6.88905C17.5756 6.88905 16.5736 9.40177 15.156 11.0306C14.6985 11.5012 14.487 11.6521 14.2372 11.6521C14.1142 11.6521 13.923 11.5012 13.923 11.0714V7.06034C13.923 6.54491 13.7827 6.3147 13.3679 6.3147H10.2733C9.95907 6.3147 9.77231 6.55513 9.77231 6.77905C9.77231 7.26777 10.4811 7.38013 10.5546 8.75513V11.7385C10.5546 12.3922 10.4413 12.5124 10.1901 12.5124C9.52106 12.5124 7.89725 9.98948 6.93497 7.10198C6.74071 6.54177 6.55095 6.31548 6.04619 6.31548H4.07737C3.5156 6.31548 3.40234 6.58655 3.40234 6.88984C3.40234 7.4257 4.07137 10.0901 6.51345 13.6101C8.14101 16.0128 10.4331 17.3147 12.5182 17.3147C13.7715 17.3147 13.9245 17.0256 13.9245 16.5282C13.9245 14.2323 13.8112 14.0155 14.439 14.0155C14.73 14.0155 15.231 14.1663 16.401 15.3253C17.7383 16.6995 17.9581 17.3147 18.7066 17.3147H20.6747C21.2357 17.3147 21.52 17.0256 21.3565 16.4551C20.9822 15.2553 18.4531 12.7874 18.3391 12.6224Z" fill="white"/>
<defs>
<linearGradient id="paint0_linear" x1="8.37081" y1="3.68905" x2="14.4411" y2="16.6766" gradientUnits="userSpaceOnUse">
<stop stop-color="#659CDB"/>
<stop offset="1" stop-color="#4F79A9"/>
</linearGradient>
<linearGradient id="paint1_linear" x1="17.4781" y1="15.0375" x2="-17.3908" y2="-3.66747" gradientUnits="userSpaceOnUse">
<stop stop-color="#537EAF" stop-opacity="0"/>
<stop offset="1" stop-color="#4B729F"/>
</linearGradient>
<linearGradient id="paint2_linear" x1="12.4021" y1="20.817" x2="12.4021" y2="23.9618" gradientUnits="userSpaceOnUse">
<stop stop-color="#5A8BC4" stop-opacity="0"/>
<stop offset="1" stop-color="#4B729F"/>
</linearGradient>
<linearGradient id="paint3_linear" x1="23.3438" y1="22.9118" x2="11.6191" y2="11.1871" gradientUnits="userSpaceOnUse">
<stop stop-color="#5685B9" stop-opacity="0"/>
<stop offset="1" stop-color="#42648B"/>
</linearGradient>
</defs>
</svg>
