<svg width="25" height="25" viewBox="0 0 25 25" fill="none" xmlns="http://www.w3.org/2000/svg">
<g clip-path="url(#clip0)">
<path d="M23.9915 4.60742C23.773 2.56067 22.1566 0.943848 20.1096 0.725586C14.9764 0.177734 9.82825 0.177734 4.69525 0.725586C2.64832 0.944031 1.03168 2.56067 0.813232 4.60742C0.265381 9.74042 0.265381 14.8888 0.813232 20.0218C1.03168 22.0687 2.64832 23.6854 4.69507 23.9038C9.82806 24.4517 14.9764 24.4517 20.1096 23.9038C22.1566 23.6854 23.773 22.0687 23.9915 20.0218C24.5393 14.8888 24.5393 9.7406 23.9915 4.60742Z" fill="url(#paint0_radial)"/>
<path d="M22.6861 5.47549C22.4923 3.65927 21.0579 2.22464 19.2415 2.03073C14.6866 1.54477 10.1181 1.54477 5.56314 2.03073C3.74692 2.22464 2.31229 3.65927 2.11838 5.47549C1.63242 10.0304 1.63242 14.5989 2.11838 19.1537C2.31229 20.9701 3.74692 22.4047 5.56314 22.5984C10.1181 23.0846 14.6866 23.0846 19.2413 22.5984C21.0577 22.4047 22.4923 20.9701 22.6861 19.1537C23.1722 14.5989 23.1722 10.0304 22.6861 5.47549Z" fill="url(#paint1_linear)"/>
<path d="M0.761719 19.5243C0.778198 19.6902 0.795227 19.8561 0.812988 20.022C1.03143 22.0687 2.64807 23.6854 4.69501 23.9038C9.828 24.4517 14.9764 24.4517 20.1094 23.9038C22.1563 23.6854 23.7728 22.0687 23.9912 20.022C24.009 19.8561 24.026 19.6902 24.0427 19.5243H0.761719Z" fill="url(#paint2_linear)"/>
<path d="M23.9911 20.0218C24.2856 17.2637 24.4214 14.5012 24.3995 11.739L18.9136 6.2532C18.2283 5.47079 17.2272 4.98245 16.051 4.94015C13.632 4.85299 11.2053 4.85739 8.78589 4.94052C6.77649 5.00973 5.37134 6.36032 5.01099 8.34536C4.94745 8.69583 4.90936 9.05087 4.85938 9.4039V15.2234C4.88702 15.412 4.92767 15.5996 4.94031 15.7893C5.02087 16.9967 5.51709 18.0309 6.31158 18.7306L11.8941 24.3129C14.6337 24.3321 17.3735 24.1959 20.1093 23.9038C22.1562 23.6854 23.7727 22.0688 23.9911 20.0218Z" fill="url(#paint3_linear)"/>
<path d="M23.9913 20.022C23.773 22.0685 22.156 23.6855 20.1094 23.9038C17.374 24.1957 14.6337 24.3321 11.8944 24.3129L6.32031 18.7388C6.96649 19.3044 7.80878 19.6488 8.78619 19.6856C11.205 19.7764 13.6323 19.774 16.0511 19.6869C18.2388 19.6078 19.822 17.9886 19.8903 15.8008C19.9631 13.478 19.9631 11.149 19.8903 8.82617C19.8591 7.81689 19.5048 6.92883 18.9174 6.25684L24.3998 11.7392C24.4214 14.501 24.2855 17.2639 23.9913 20.022Z" fill="url(#paint4_linear)"/>
<path d="M15.2346 9.71588C14.5319 8.95068 13.5235 8.47058 12.4027 8.47058C10.2798 8.47058 8.55859 10.1918 8.55859 12.3147C8.55859 13.4355 9.0387 14.4438 9.80389 15.1466L18.6979 24.0406C19.1686 23.9996 19.6394 23.954 20.1098 23.9038C22.1567 23.6854 23.7734 22.0687 23.9918 20.0218C24.042 19.5514 24.0876 19.0806 24.1286 18.6099L15.2346 9.71588Z" fill="url(#paint5_linear)"/>
<path d="M24.3561 14.9L17.1982 7.74219C17.0312 7.52301 16.7681 7.38074 16.4713 7.38074C15.9662 7.38074 15.5566 7.79016 15.5566 8.29535C15.5566 8.59216 15.6989 8.85529 15.9181 9.02228L24.2281 17.3325C24.2845 16.5219 24.3272 15.7109 24.3561 14.9Z" fill="url(#paint6_linear)"/>
<path d="M4.85938 9.4039C4.90936 9.05087 4.94745 8.69583 5.01099 8.34536C5.37115 6.36032 6.77649 5.00973 8.78589 4.94052C11.2053 4.85739 13.632 4.85299 16.051 4.94015C18.238 5.01889 19.8218 6.63827 19.8901 8.82602C19.9628 11.1491 19.9628 13.4778 19.8901 15.8009C19.8218 17.9886 18.2385 19.6078 16.0511 19.6867C13.6321 19.7741 11.2049 19.7763 8.78607 19.6855C6.59869 19.6032 5.08661 17.9802 4.94031 15.7892C4.92767 15.5996 4.88702 15.4118 4.85938 15.2232C4.85938 13.2834 4.85938 11.3435 4.85938 9.4039ZM12.4041 18.3902C13.5111 18.3902 14.6193 18.4233 15.7249 18.3825C17.4583 18.3182 18.5245 17.2837 18.565 15.5518C18.6152 13.3939 18.6152 11.2331 18.565 9.07504C18.5245 7.34359 17.4576 6.28488 15.7249 6.24807C13.5256 6.20157 11.3239 6.20193 9.12463 6.24807C7.40509 6.28415 6.33575 7.32144 6.28906 9.03384C6.22974 11.219 6.22974 13.408 6.28906 15.5932C6.33575 17.3054 7.40509 18.3188 9.12482 18.3825C10.2165 18.4231 11.3109 18.3902 12.4041 18.3902Z" fill="url(#paint7_linear)"/>
<path d="M4.85938 9.4039C4.90936 9.05087 4.94745 8.69583 5.01099 8.34536C5.37115 6.36032 6.77649 5.00973 8.78589 4.94052C11.2053 4.85739 13.632 4.85299 16.051 4.94015C18.238 5.01889 19.8218 6.63827 19.8901 8.82602C19.9628 11.1491 19.9628 13.4778 19.8901 15.8009C19.8218 17.9886 18.2385 19.6078 16.0511 19.6867C13.6321 19.7741 11.2049 19.7763 8.78607 19.6855C6.59869 19.6032 5.08661 17.9802 4.94031 15.7892C4.92767 15.5996 4.88702 15.4118 4.85938 15.2232C4.85938 13.2834 4.85938 11.3435 4.85938 9.4039ZM12.4041 18.3902C13.5111 18.3902 14.6193 18.4233 15.7249 18.3825C17.4583 18.3182 18.5245 17.2837 18.565 15.5518C18.6152 13.3939 18.6152 11.2331 18.565 9.07504C18.5245 7.34359 17.4576 6.28488 15.7249 6.24807C13.5256 6.20157 11.3239 6.20193 9.12463 6.24807C7.40509 6.28415 6.33575 7.32144 6.28906 9.03384C6.22974 11.219 6.22974 13.408 6.28906 15.5932C6.33575 17.3054 7.40509 18.3188 9.12482 18.3825C10.2165 18.4231 11.3109 18.3902 12.4041 18.3902Z" fill="white"/>
<path d="M12.4027 8.47076C10.2798 8.47076 8.55859 10.1918 8.55859 12.3147C8.55859 14.4378 10.2798 16.1588 12.4027 16.1588C14.5258 16.1588 16.2468 14.4378 16.2468 12.3147C16.2468 10.1918 14.5258 8.47076 12.4027 8.47076ZM12.4027 14.8353C11.0106 14.8353 9.88208 13.7068 9.88208 12.3147C9.88208 10.9225 11.0106 9.79407 12.4027 9.79407C13.7949 9.79407 14.9233 10.9225 14.9233 12.3147C14.9233 13.7068 13.7949 14.8353 12.4027 14.8353Z" fill="white"/>
<path d="M17.3857 8.29535C17.3857 8.80035 16.9763 9.20978 16.4713 9.20978C15.9662 9.20978 15.5566 8.80035 15.5566 8.29535C15.5566 7.79016 15.9662 7.38074 16.4713 7.38074C16.9763 7.38074 17.3857 7.79016 17.3857 8.29535Z" fill="white"/>
</g>
<defs>
<radialGradient id="paint0_radial" cx="0" cy="0" r="1" gradientUnits="userSpaceOnUse" gradientTransform="translate(5.32221 21.2888) scale(26.4678)">
<stop stop-color="#FAE100"/>
<stop offset="0.0544" stop-color="#FADC04"/>
<stop offset="0.1167" stop-color="#FBCE0E"/>
<stop offset="0.1829" stop-color="#FCB720"/>
<stop offset="0.2514" stop-color="#FE9838"/>
<stop offset="0.3054" stop-color="#FF7950"/>
<stop offset="0.4922" stop-color="#FF1C74"/>
<stop offset="1" stop-color="#6C1CD1"/>
</radialGradient>
<linearGradient id="paint1_linear" x1="9.60728" y1="10.7425" x2="-31.0516" y2="-12.1281" gradientUnits="userSpaceOnUse">
<stop stop-color="#A1B5D8" stop-opacity="0"/>
<stop offset="0.3094" stop-color="#90A2BD" stop-opacity="0.309804"/>
<stop offset="0.7554" stop-color="#7C8B9C" stop-opacity="0.756863"/>
<stop offset="1" stop-color="#748290"/>
</linearGradient>
<linearGradient id="paint2_linear" x1="12.4021" y1="21.5006" x2="12.4021" y2="25.2416" gradientUnits="userSpaceOnUse">
<stop stop-color="#FAE100" stop-opacity="0"/>
<stop offset="0.3068" stop-color="#FCA800" stop-opacity="0.305882"/>
<stop offset="0.6275" stop-color="#FE7300" stop-opacity="0.627451"/>
<stop offset="0.8685" stop-color="#FF5200" stop-opacity="0.866667"/>
<stop offset="1" stop-color="#FF4500"/>
</linearGradient>
<linearGradient id="paint3_linear" x1="11.0367" y1="10.9154" x2="5.09707" y2="4.97579" gradientUnits="userSpaceOnUse">
<stop stop-color="#833AB4" stop-opacity="0"/>
<stop offset="1" stop-color="#833AB4"/>
</linearGradient>
<linearGradient id="paint4_linear" x1="16.8506" y1="22.2657" x2="13.886" y2="8.2899" gradientUnits="userSpaceOnUse">
<stop stop-color="#833AB4" stop-opacity="0"/>
<stop offset="1" stop-color="#833AB4"/>
</linearGradient>
<linearGradient id="paint5_linear" x1="17.9792" y1="17.8912" x2="6.07182" y2="5.9838" gradientUnits="userSpaceOnUse">
<stop stop-color="#833AB4" stop-opacity="0"/>
<stop offset="1" stop-color="#833AB4"/>
</linearGradient>
<linearGradient id="paint6_linear" x1="18.8623" y1="10.6864" x2="14.9248" y2="6.74887" gradientUnits="userSpaceOnUse">
<stop stop-color="#833AB4" stop-opacity="0"/>
<stop offset="1" stop-color="#833AB4"/>
</linearGradient>
<linearGradient id="paint7_linear" x1="17.1673" y1="7.58267" x2="7.45872" y2="17.2912" gradientUnits="userSpaceOnUse">
<stop stop-color="#833AB4"/>
<stop offset="0.0922" stop-color="#9C3495"/>
<stop offset="0.2927" stop-color="#DC2546"/>
<stop offset="0.392" stop-color="#FD1D1D"/>
<stop offset="0.5589" stop-color="#FC6831"/>
<stop offset="0.6887" stop-color="#FC9B40"/>
<stop offset="0.7521" stop-color="#FCAF45"/>
<stop offset="0.7806" stop-color="#FDB750"/>
<stop offset="0.8656" stop-color="#FECB6A"/>
<stop offset="0.9415" stop-color="#FFD87A"/>
<stop offset="1" stop-color="#FFDC80"/>
</linearGradient>
<clipPath id="clip0">
<rect width="24" height="24" fill="white" transform="translate(0.402344 0.314697)"/>
</clipPath>
</defs>
</svg>
