<svg width="134" height="93" viewBox="0 0 134 93" fill="none" xmlns="http://www.w3.org/2000/svg">
<path d="M130.312 14.6352C128.782 8.92668 124.289 4.44063 118.572 2.91254C108.22 0.140138 66.6936 0.140137 66.6936 0.140137C66.6936 0.140137 25.1668 0.140138 14.8152 2.91254C9.09827 4.44063 4.60563 8.92668 3.0753 14.6352C0.298829 24.9717 0.298828 46.5505 0.298828 46.5505C0.298828 46.5505 0.298829 68.1294 3.0753 78.4659C4.60563 84.1744 9.09827 88.6604 14.8152 90.1885C25.1668 92.9609 66.6936 92.9609 66.6936 92.9609C66.6936 92.9609 108.22 92.9609 118.572 90.1885C124.289 88.6604 128.782 84.1744 130.312 78.4659C133.088 68.1294 133.088 46.5505 133.088 46.5505C133.088 46.5505 133.077 24.9717 130.312 14.6352Z" fill="black" fill-opacity="0.61"/>
<path d="M49.5596 66.4181L84.0578 47.2005L49.5596 27.9829V66.4181Z" fill="white"/>
</svg>
