<svg width="50" height="35" viewBox="0 0 50 35" fill="none" xmlns="http://www.w3.org/2000/svg">
<path d="M48.3382 5.38919C47.7692 3.26679 46.0989 1.5989 43.9734 1.03076C40.1247 3.87013e-07 24.6852 0 24.6852 0C24.6852 0 9.24579 3.87013e-07 5.3971 1.03076C3.27159 1.5989 1.60125 3.26679 1.03228 5.38919C3.87581e-07 9.23223 0 17.2551 0 17.2551C0 17.2551 3.87581e-07 25.2781 1.03228 29.1211C1.60125 31.2435 3.27159 32.9114 5.3971 33.4795C9.24579 34.5103 24.6852 34.5103 24.6852 34.5103C24.6852 34.5103 40.1247 34.5103 43.9734 33.4795C46.0989 32.9114 47.7692 31.2435 48.3382 29.1211C49.3705 25.2781 49.3705 17.2551 49.3705 17.2551C49.3705 17.2551 49.3664 9.23223 48.3382 5.38919Z" fill="black" fill-opacity="0.61"/>
<path d="M18.3145 24.6417L31.1407 17.4967L18.3145 10.3517V24.6417Z" fill="white"/>
</svg>
