<svg width="402" height="402" viewBox="0 0 402 402" fill="none" xmlns="http://www.w3.org/2000/svg">
<path d="M53.8695 348.547C48.4558 348.708 44.3895 342.633 46.6154 337.688C49.2025 331.286 58.5301 331.285 61.1165 337.688C63.3471 342.627 59.2776 348.704 53.8695 348.547Z" fill="#E7E6E6"/>
<path d="M280.524 362.315H128.225C123.888 362.315 120.373 358.799 120.373 354.463V304.425C120.373 300.09 123.888 296.574 128.225 296.574H280.524C284.86 296.574 288.376 300.09 288.376 304.425V354.463C288.375 358.799 284.86 362.315 280.524 362.315ZM136.076 346.612H272.673V312.277H136.076V346.612Z" fill="#E7E6E6"/>
<path d="M208.57 283.444C194.987 283.444 183.936 272.38 183.936 258.78C183.936 245.181 194.987 234.116 208.57 234.116C222.153 234.116 233.204 245.181 233.204 258.78C233.204 272.38 222.153 283.444 208.57 283.444ZM208.57 249.819C203.645 249.819 199.639 253.839 199.639 258.78C199.639 263.721 203.645 267.741 208.57 267.741C213.495 267.741 217.501 263.721 217.501 258.78C217.501 253.839 213.494 249.819 208.57 249.819Z" fill="#E7E6E6"/>
<path d="M263.74 283.444C250.157 283.444 239.105 272.38 239.105 258.78C239.105 245.181 250.157 234.116 263.74 234.116C277.324 234.116 288.375 245.181 288.375 258.78C288.375 272.38 277.324 283.444 263.74 283.444ZM263.74 249.819C258.815 249.819 254.809 253.839 254.809 258.78C254.809 263.721 258.815 267.741 263.74 267.741C268.664 267.741 272.672 263.721 272.672 258.78C272.672 253.839 268.665 249.819 263.74 249.819Z" fill="#E7E6E6"/>
<path d="M236.154 138.288C208.044 138.288 185.176 115.385 185.176 87.234C185.176 59.0822 208.044 36.1792 236.154 36.1792C264.263 36.1792 287.132 59.0822 287.132 87.234C287.132 115.385 264.263 138.288 236.154 138.288ZM236.154 51.8815C216.704 51.8815 200.879 67.7401 200.879 87.2332C200.879 106.725 216.703 122.584 236.154 122.584C255.604 122.584 271.428 106.725 271.428 87.2332C271.428 67.7401 255.605 51.8815 236.154 51.8815Z" fill="#E7E6E6"/>
<path d="M398.396 177.299C396.151 175.854 393.323 175.65 390.892 176.758L329.94 204.53V183.629C329.94 168.062 317.292 155.397 301.744 155.397H284.886C306.066 140.164 319.887 115.285 319.887 87.2339C319.887 40.9898 282.324 3.3667 236.154 3.3667C202.624 3.3667 173.633 23.21 160.273 51.7873C146.913 23.21 117.923 3.3667 84.3925 3.3667C38.2238 3.36591 0.661102 40.989 0.661102 87.2339C0.661102 115.285 14.4822 140.164 35.6618 155.397H28.1957C12.6481 155.397 0 168.062 0 183.629V370.401C0 385.969 12.6481 398.634 28.1957 398.634H301.744C317.292 398.634 329.94 385.969 329.94 370.401V349.501L390.892 377.273C391.93 377.746 393.041 377.98 394.148 377.98C395.632 377.98 397.11 377.56 398.396 376.731C400.642 375.287 402 372.798 402 370.128V183.903C402 181.232 400.642 178.744 398.396 177.299ZM236.154 19.069C273.665 19.069 304.184 49.6469 304.184 87.2332C304.184 124.819 273.666 155.396 236.154 155.396C198.643 155.396 168.125 124.819 168.125 87.2332C168.126 49.6469 198.643 19.069 236.154 19.069ZM187.423 155.397H133.125C144.746 147.039 154.151 135.777 160.274 122.681C166.397 135.777 175.802 147.039 187.423 155.397ZM16.3642 87.2339C16.3642 49.6477 46.8817 19.0698 84.3941 19.0698C121.905 19.0698 152.423 49.6477 152.423 87.2339C152.423 124.819 121.906 155.397 84.3941 155.397C46.8817 155.397 16.3642 124.819 16.3642 87.2339ZM314.238 370.401C314.238 377.31 308.633 382.931 301.745 382.931H28.1965C21.3084 382.931 15.7039 377.31 15.7039 370.401V183.629C15.7039 176.721 21.3084 171.1 28.1965 171.1H46.0149V307.908C46.0149 312.243 49.5308 315.759 53.8664 315.759C58.2021 315.759 61.718 312.243 61.718 307.908V171.1H301.745C308.633 171.1 314.238 176.721 314.238 183.629V370.401ZM386.297 357.923L329.941 332.245V221.786L386.297 196.108V357.923Z" fill="#E7E6E6"/>
<path d="M84.3931 138.288C56.2845 138.288 33.416 115.385 33.416 87.234C33.416 59.0822 56.2845 36.1792 84.3931 36.1792C112.503 36.1792 135.372 59.0822 135.372 87.234C135.372 115.385 112.503 138.288 84.3931 138.288ZM84.3931 51.8815C64.9432 51.8815 49.1191 67.7401 49.1191 87.2332C49.1191 106.725 64.9424 122.584 84.3931 122.584C103.844 122.584 119.669 106.725 119.669 87.2332C119.669 67.7401 103.845 51.8815 84.3931 51.8815Z" fill="#E7E6E6"/>
</svg>
