<svg width="124" height="28" viewBox="0 0 124 28" fill="none" xmlns="http://www.w3.org/2000/svg">
<path d="M39.1548 4.63724C38.7047 2.95828 37.3833 1.63886 35.7019 1.18943C32.6573 0.374024 20.4437 0.374023 20.4437 0.374023C20.4437 0.374023 8.23006 0.374024 5.18549 1.18943C3.50406 1.63886 2.18271 2.95828 1.73262 4.63724C0.916016 7.67734 0.916016 14.024 0.916016 14.024C0.916016 14.024 0.916016 20.3707 1.73262 23.4108C2.18271 25.0897 3.50406 26.4092 5.18549 26.8586C8.23006 27.674 20.4437 27.674 20.4437 27.674C20.4437 27.674 32.6573 27.674 35.7019 26.8586C37.3833 26.4092 38.7047 25.0897 39.1548 23.4108C39.9714 20.3707 39.9714 14.024 39.9714 14.024C39.9714 14.024 39.9682 7.67734 39.1548 4.63724Z" fill="#FF0000"/>
<path d="M16.5342 19.8725L26.6806 14.0234L16.5342 8.17432V19.8725Z" fill="white"/>
<path d="M57.6057 25.2089C56.8341 24.6888 56.2844 23.8799 55.9564 22.782C55.6317 21.684 55.4678 20.2266 55.4678 18.4032V15.9216C55.4678 14.0822 55.6542 12.6023 56.0272 11.4883C56.4001 10.3743 56.982 9.55893 57.7729 9.0485C58.5638 8.53807 59.6022 8.28125 60.8882 8.28125C62.1549 8.28125 63.1676 8.54128 63.9328 9.06134C64.6947 9.5814 65.2541 10.3968 65.6078 11.5011C65.9614 12.6087 66.1382 14.0822 66.1382 15.9216V18.4032C66.1382 20.2266 65.9646 21.6905 65.6206 22.7948C65.2766 23.9023 64.7172 24.7113 63.9456 25.2217C63.174 25.7322 62.126 25.989 60.8046 25.989C59.4415 25.9922 58.3773 25.729 57.6057 25.2089ZM61.9331 22.5316C62.1453 21.973 62.2546 21.0645 62.2546 19.7996V14.4738C62.2546 13.2475 62.1485 12.3486 61.9331 11.7836C61.7177 11.2154 61.3415 10.9329 60.8014 10.9329C60.2806 10.9329 59.9108 11.2154 59.6987 11.7836C59.4833 12.3519 59.3772 13.2475 59.3772 14.4738V19.7996C59.3772 21.0645 59.48 21.9762 59.6858 22.5316C59.8916 23.0901 60.2613 23.3694 60.8014 23.3694C61.3415 23.3694 61.7177 23.0901 61.9331 22.5316Z" fill="#282828"/>
<path d="M116.929 18.4453V19.3089C116.929 20.4068 116.961 21.2286 117.026 21.7776C117.09 22.3265 117.225 22.7246 117.431 22.9782C117.636 23.2286 117.951 23.3538 118.379 23.3538C118.954 23.3538 119.353 23.1291 119.565 22.6829C119.781 22.2366 119.896 21.4918 119.916 20.4517L123.24 20.6476C123.259 20.7952 123.269 21.0007 123.269 21.2607C123.269 22.8402 122.835 24.0215 121.97 24.8016C121.105 25.5817 119.88 25.9734 118.299 25.9734C116.399 25.9734 115.068 25.3795 114.306 24.1885C113.54 22.9975 113.161 21.158 113.161 18.6668V15.6813C113.161 13.1163 113.557 11.2415 114.347 10.0601C115.138 8.87877 116.492 8.28809 118.411 8.28809C119.733 8.28809 120.748 8.52885 121.456 9.0136C122.163 9.49835 122.661 10.2495 122.951 11.2736C123.24 12.2977 123.385 13.7102 123.385 15.5144V18.4421H116.929V18.4453ZM117.418 11.2511C117.222 11.4919 117.093 11.8868 117.026 12.4357C116.961 12.9847 116.929 13.8161 116.929 14.9333V16.1596H119.749V14.9333C119.749 13.8354 119.71 13.0039 119.636 12.4357C119.562 11.8675 119.427 11.4694 119.231 11.2351C119.035 11.004 118.733 10.8852 118.324 10.8852C117.913 10.8884 117.611 11.0104 117.418 11.2511Z" fill="#282828"/>
<path d="M48.2182 18.1238L43.833 2.31006H47.6588L49.1956 9.47855C49.5878 11.2442 49.8739 12.7498 50.0604 13.9954H50.1729C50.3015 13.1029 50.5909 11.6069 51.0377 9.50423L52.6292 2.31006H56.455L52.0151 18.1238V25.7096H48.215V18.1238H48.2182Z" fill="#282828"/>
<path d="M78.5831 8.61552V25.7133H75.5675L75.2331 23.6202H75.1495C74.3297 25.1997 73.1016 25.9894 71.462 25.9894C70.3271 25.9894 69.488 25.617 68.9479 24.8754C68.4078 24.1307 68.1377 22.9686 68.1377 21.3891V8.61552H71.9924V21.1644C71.9924 21.9284 72.076 22.471 72.2432 22.7952C72.4104 23.1194 72.6901 23.2832 73.0823 23.2832C73.4167 23.2832 73.7382 23.1804 74.0468 22.975C74.3554 22.7695 74.5805 22.5095 74.7316 22.1949V8.6123H78.5831V8.61552Z" fill="#282828"/>
<path d="M98.3526 8.61552V25.7133H95.337L95.0026 23.6202H94.9191C94.0992 25.1997 92.8711 25.9894 91.2315 25.9894C90.0966 25.9894 89.2575 25.617 88.7174 24.8754C88.1773 24.1307 87.9072 22.9686 87.9072 21.3891V8.61552H91.762V21.1644C91.762 21.9284 91.8455 22.471 92.0127 22.7952C92.1799 23.1194 92.4596 23.2832 92.8518 23.2832C93.1862 23.2832 93.5077 23.1804 93.8163 22.975C94.125 22.7695 94.35 22.5095 94.5011 22.1949V8.6123H98.3526V8.61552Z" fill="#282828"/>
<path d="M89.0556 5.40816H85.2298V25.713H81.4586V5.40816H77.6328V2.31348H89.0556V5.40816Z" fill="#282828"/>
<path d="M111.11 11.3467C110.876 10.2681 110.499 9.48797 109.979 9.00322C109.458 8.51847 108.741 8.27771 107.828 8.27771C107.121 8.27771 106.458 8.47674 105.844 8.87802C105.23 9.2793 104.754 9.80258 104.42 10.4543H104.391V1.44629H100.678V25.7094H103.861L104.253 24.0914H104.336C104.635 24.6693 105.082 25.1219 105.677 25.459C106.272 25.7928 106.934 25.9598 107.661 25.9598C108.963 25.9598 109.924 25.3595 110.538 24.162C111.152 22.9614 111.461 21.0898 111.461 18.5409V15.8346C111.461 13.9245 111.342 12.4254 111.11 11.3467ZM107.577 18.3226C107.577 19.5682 107.526 20.5441 107.423 21.2503C107.32 21.9566 107.149 22.4606 106.905 22.7559C106.664 23.0545 106.336 23.2022 105.928 23.2022C105.609 23.2022 105.317 23.1283 105.047 22.9774C104.777 22.8298 104.558 22.6051 104.391 22.3097V12.6051C104.52 12.1396 104.745 11.7608 105.063 11.4623C105.378 11.1637 105.725 11.0161 106.095 11.0161C106.487 11.0161 106.789 11.1701 107.002 11.4751C107.217 11.7833 107.365 12.2969 107.448 13.0225C107.532 13.748 107.574 14.7785 107.574 16.1171V18.3226H107.577Z" fill="#282828"/>
</svg>
