<svg width="24" height="24" fill="none" xmlns="http://www.w3.org/2000/svg"><path fill-rule="evenodd" clip-rule="evenodd" d="M4.821 1.608c2.399-.48 5.553-.543 7.71 1.611a.749.749 0 01.219.531v16.5a.75.75 0 01-1.281.531c-1.264-1.266-3.172-1.588-5.205-1.38-2.016.21-3.99.925-5.178 1.52A.75.75 0 010 20.25V3.75a.75.75 0 01.414-.67l.336.67-.336-.67.003-.002.006-.003.02-.009a7.51 7.51 0 01.33-.154 19.437 19.437 0 014.05-1.304H4.82zM1.5 4.23v14.862c1.269-.514 2.916-1.008 4.611-1.182 1.715-.177 3.58-.035 5.139.84V4.077c-1.595-1.393-3.947-1.434-6.135-.996-1.242.254-2.454.64-3.615 1.149z" fill="#000"/><path fill-rule="evenodd" clip-rule="evenodd" d="M19.179 1.608c-2.397-.48-5.553-.543-7.71 1.611a.749.749 0 00-.219.531v16.5a.75.75 0 001.281.531c1.264-1.266 3.172-1.588 5.205-1.38 2.016.21 3.99.925 5.178 1.52A.75.75 0 0024 20.25V3.75a.75.75 0 00-.414-.67l-.336.67.336-.67-.003-.002-.006-.003-.02-.009-.07-.034a19.44 19.44 0 00-4.308-1.423zM22.5 4.23v14.862c-1.269-.514-2.916-1.008-4.611-1.182-1.715-.177-3.58-.035-5.139.84V4.077c1.595-1.393 3.947-1.434 6.135-.996 1.242.254 2.454.64 3.615 1.149z" fill="#000"/></svg>