<svg width="20" height="20" fill="none" xmlns="http://www.w3.org/2000/svg"><g clip-path="url(#clip0)" fill="#545454"><path d="M.062 9.584C.23 9.334 3.725 3.34 9.97 3.34c6.243 0 9.74 5.994 9.906 6.244a.756.756 0 010 .832c-.166.25-3.663 6.244-9.906 6.244-6.244 0-9.74-5.994-9.907-6.244a1.419 1.419 0 010-.832zm9.907 4.578A4.122 4.122 0 0014.13 10a4.122 4.122 0 00-4.16-4.162A4.122 4.122 0 005.806 10a4.122 4.122 0 004.163 4.162z"/><path d="M9.97 7.503c1.415 0 2.497 1.082 2.497 2.497 0 1.415-1.082 2.498-2.498 2.498-1.415 0-2.497-1.083-2.497-2.498 0-1.415 1.082-2.497 2.497-2.497zM9.136 10c.5 0 .832-.333.832-.832 0-.5-.333-.833-.832-.833-.5 0-.833.333-.833.833 0 .5.333.832.833.832z"/></g><defs><clipPath id="clip0"><path fill="#fff" transform="matrix(-1 0 0 1 20 0)" d="M0 0h20v20H0z"/></clipPath></defs></svg>