<svg width="24" height="24" fill="none" xmlns="http://www.w3.org/2000/svg"><path d="M11.934 1.996c-3.752 0-6.805 3.25-6.805 7.243 0 1.315.554 2.73.577 2.789.179.452.532 1.154.787 1.566l4.666 7.525c.19.308.473.485.775.485.302 0 .585-.177.776-.485l4.666-7.525a11.94 11.94 0 00.787-1.566c.023-.06.577-1.473.577-2.789 0-3.994-3.053-7.243-6.806-7.243zm5.49 9.701a10.946 10.946 0 01-.716 1.428L12.04 20.65c-.092.149-.121.149-.213 0L7.16 13.125a10.955 10.955 0 01-.717-1.428c-.007-.018-.515-1.32-.515-2.458 0-3.524 2.694-6.39 6.005-6.39s6.005 2.866 6.005 6.39c0 1.14-.509 2.445-.514 2.458z" fill="#000"/><path fill-rule="evenodd" clip-rule="evenodd" d="M5.525 12.1v-.002c-.032-.08-.59-1.514-.59-2.859 0-4.092 3.13-7.439 7-7.439s7 3.347 7 7.44c0 1.354-.566 2.797-.591 2.86a12.094 12.094 0 01-.803 1.598l-4.666 7.525c-.219.352-.558.577-.94.577-.383 0-.723-.225-.941-.577m0 0l-4.666-7.525c-.26-.422-.62-1.134-.803-1.597m5.634 9.018c.19.308.473.485.775.485.302 0 .585-.177.776-.485l4.666-7.525a11.94 11.94 0 00.787-1.566c.023-.06.577-1.473.577-2.789 0-3.994-3.053-7.243-6.806-7.243-3.752 0-6.805 3.25-6.805 7.243 0 1.307.547 2.712.577 2.788v.001c.179.452.532 1.154.787 1.566l4.666 7.525zm6.086-9.496a8.53 8.53 0 00.252-.784c.125-.463.248-1.055.248-1.6 0-3.426-2.617-6.195-5.81-6.195-3.195 0-5.811 2.77-5.811 6.195 0 1.092.49 2.356.501 2.386.156.394.479 1.037.701 1.396l4.609 7.431 4.608-7.431c.222-.36.546-1.002.701-1.396v-.002zm-.537 1.502L12.04 20.65c-.092.149-.121.149-.213 0L7.16 13.125a10.954 10.954 0 01-.717-1.428c-.008-.022-.515-1.321-.515-2.458 0-3.524 2.694-6.39 6.005-6.39s6.005 2.866 6.005 6.39c0 1.14-.509 2.446-.514 2.458-.16.406-.489 1.059-.717 1.428z" fill="#000"/><path d="M12 5C9.794 5 8 6.795 8 9s1.794 4 4 4 4-1.795 4-4-1.794-4-4-4zm0 7.111A3.115 3.115 0 018.889 9 3.115 3.115 0 0112 5.889 3.115 3.115 0 0115.111 9 3.115 3.115 0 0112 12.111z" fill="#000"/><path fill-rule="evenodd" clip-rule="evenodd" d="M7.8 9c0-2.316 1.884-4.2 4.2-4.2 2.316 0 4.2 1.884 4.2 4.2 0 2.316-1.884 4.2-4.2 4.2A4.205 4.205 0 017.8 9zm1.29 0A2.915 2.915 0 0012 11.911a2.915 2.915 0 002.911-2.91A2.915 2.915 0 0012 6.088 2.915 2.915 0 009.089 9zM8 9c0-2.205 1.794-4 4-4s4 1.795 4 4-1.794 4-4 4-4-1.795-4-4zm.889 0A3.115 3.115 0 0012 12.111 3.115 3.115 0 0015.111 9 3.115 3.115 0 0012 5.889 3.115 3.115 0 008.889 9z" fill="#000"/></svg>