<svg width="24" height="24" fill="none" xmlns="http://www.w3.org/2000/svg"><path d="M20.482 16.507l-2.602-2.603a1.854 1.854 0 00-1.317-.539c-.52 0-1.011.205-1.383.577l-1.013 1.012c-.787-.437-1.832-1.039-2.918-2.125-1.085-1.085-1.687-2.128-2.126-2.919l1.013-1.013c.754-.755.77-1.966.035-2.7L7.57 3.595a1.846 1.846 0 00-1.318-.541c-.508 0-.99.196-1.359.552-.223.18-1.344 1.17-1.762 3.21-.585 2.857.76 5.606 4.64 9.487 4.334 4.333 8.034 4.67 9.065 4.67.214 0 .344-.013.378-.017 2.022-.237 2.746-1.135 3.274-1.79.685-.85.683-1.968-.006-2.659zm-.863 1.958c-.497.616-.966 1.198-2.535 1.381 0 0-.086.01-.248.01-.922 0-4.245-.313-8.276-4.343-3.578-3.58-4.834-6.034-4.335-8.473.365-1.78 1.332-2.536 1.37-2.565l.033-.025.03-.03a.838.838 0 01.594-.25c.203 0 .39.076.527.215l2.602 2.602c.3.299.284.802-.035 1.121L8.2 9.253l-.02.02c-.298.33-.263.774-.098 1.063.475.857 1.125 2.03 2.377 3.283 1.247 1.247 2.419 1.897 3.274 2.371.085.048.262.129.483.129.26 0 .5-.11.678-.312l1.076-1.076a.836.836 0 01.593-.249c.203 0 .39.076.528.213l2.6 2.6c.33.332.194.84-.072 1.17zM13.905 5.79c.96.11 2.09.692 2.878 1.48.797.797 1.38 1.939 1.485 2.909a.558.558 0 101.11-.12c-.133-1.227-.825-2.598-1.805-3.578-.97-.971-2.328-1.66-3.54-1.8a.558.558 0 10-.128 1.11zm-.524 2.34c.52.06 1.238.445 1.708.915.475.475.86 1.2.917 1.725a.559.559 0 001.11-.12c-.096-.896-.691-1.848-1.237-2.394-.541-.542-1.484-1.134-2.37-1.236a.558.558 0 10-.128 1.11z" fill="#000002"/></svg>