<svg width="24" height="24" fill="none" xmlns="http://www.w3.org/2000/svg"><path d="M5.781 17.203a2.397 2.397 0 00-2.4 2.399A2.397 2.397 0 005.781 22c1.328 0 2.4-1.072 2.4-2.398a2.4 2.4 0 00-2.4-2.399zm0 3.526a1.127 1.127 0 110-2.255 1.127 1.127 0 110 2.255zm12.704-3.526a2.392 2.392 0 00-2.39 2.399A2.392 2.392 0 0018.485 22a2.392 2.392 0 002.39-2.398 2.395 2.395 0 00-2.39-2.399zm0 3.526a1.125 1.125 0 01-1.124-1.127 1.125 1.125 0 112.247 0c0 .623-.502 1.127-1.123 1.127zm3.42-13.478a.71.71 0 00-.521-.286L8.78 6.187h-.043c-.2 0-.388.085-.517.236a.667.667 0 00-.153.542l.012.058c.05.294.294.514.595.534l9.34.576 2.437.151-1.48 5.51H6.91L5.215 3.487a.69.69 0 00-.368-.503l-1.795-.906a.698.698 0 00-.952.325c-.157.337-.008.732.333.906l1.465.739 1.72 10.444a.819.819 0 00.815.685h13.074a.698.698 0 00.674-.51l1.837-6.83a.716.716 0 00-.113-.585z" fill="#000"/></svg>