<svg width="24" height="24" fill="none" xmlns="http://www.w3.org/2000/svg"><path fill-rule="evenodd" clip-rule="evenodd" d="M2 4.143A2.143 2.143 0 014.143 2h4.286a2.143 2.143 0 012.142 2.143v4.286A2.143 2.143 0 018.43 10.57H4.143A2.143 2.143 0 012 8.43V4.143zm11.429 0A2.143 2.143 0 0115.57 2h4.286A2.143 2.143 0 0122 4.143v4.286a2.143 2.143 0 01-2.143 2.142h-4.286A2.143 2.143 0 0113.43 8.43V4.143zM2 15.57a2.143 2.143 0 012.143-2.142h4.286a2.143 2.143 0 012.142 2.142v4.286A2.143 2.143 0 018.43 22H4.143A2.143 2.143 0 012 19.857v-4.286zm11.429 0a2.143 2.143 0 012.142-2.142h4.286A2.143 2.143 0 0122 15.57v4.286A2.143 2.143 0 0119.857 22h-4.286a2.143 2.143 0 01-2.142-2.143v-4.286z" fill="#000"/></svg>