<svg width="20" height="20" fill="none" xmlns="http://www.w3.org/2000/svg"><path d="M17.73 5.832h-2.016v-3.29a.544.544 0 00-.544-.544H4.83c-.3 0-.544.243-.544.544v3.29H2.27C1.57 5.832 1 6.4 1 7.1v6.979c0 .7.57 1.269 1.27 1.269h2.016v2.698c0 .3.244.544.544.544h10.34c.3 0 .544-.243.544-.544V15.35h2.016c.7 0 1.27-.57 1.27-1.27V7.102c0-.7-.57-1.27-1.27-1.27zM5.375 3.085h9.25v2.747h-9.25V3.085zm9.25 14.418h-9.25v-5.396h9.25v5.396zm3.287-3.423a.184.184 0 01-.182.181h-2.016v-2.698c0-.3-.244-.544-.544-.544H4.83c-.3 0-.544.243-.544.544v2.698H2.27a.184.184 0 01-.182-.181V7.1c0-.097.084-.18.182-.18h15.46c.098 0 .181.083.181.18v6.98z" fill="#000"/><path d="M15.169 9.744a.774.774 0 100-1.549.774.774 0 000 1.549zm-2.692 3.436H7.525a.544.544 0 100 1.089h4.952a.544.544 0 100-1.089zm0 2.162H7.525a.544.544 0 100 1.088h4.952a.544.544 0 100-1.088z" fill="#000"/></svg>