<svg width="24" height="24" fill="none" xmlns="http://www.w3.org/2000/svg"><g clip-path="url(#clip0)"><path fill-rule="evenodd" clip-rule="evenodd" d="M4.3 22.275c-.118.666.54 1.187 1.118.89l6.585-3.384 6.584 3.384c.579.297 1.236-.224 1.119-.889l-1.245-7.095 5.284-5.033c.494-.471.237-1.332-.424-1.425l-7.347-1.044-3.276-6.491a.77.77 0 00-1.39 0L8.03 7.68.684 8.724c-.661.093-.918.954-.424 1.425l5.284 5.034L4.3 22.278v-.003zm7.357-4.15l-5.53 2.84L7.17 15.03a.847.847 0 00-.245-.757l-4.359-4.155 6.078-.864a.787.787 0 00.59-.432l2.77-5.487 2.77 5.487a.787.787 0 00.589.432l6.078.862-4.36 4.155a.845.845 0 00-.244.759l1.041 5.935-5.529-2.84a.755.755 0 00-.691 0z" fill="#000"/></g><defs><clipPath id="clip0"><path fill="#fff" d="M0 0h24v24H0z"/></clipPath></defs></svg>