<svg width="24" height="24" fill="none" xmlns="http://www.w3.org/2000/svg"><path fill-rule="evenodd" clip-rule="evenodd" d="M19.286 7.556H4.714V19.17c0 .343.128.67.356.913.228.242.537.378.859.378H18.07c.322 0 .631-.136.86-.378.227-.242.355-.57.355-.913V7.556zM3.5 6.266V19.17c0 .685.256 1.341.711 1.825a2.358 2.358 0 001.718.756H18.07c.644 0 1.262-.272 1.718-.756.455-.484.711-1.14.711-1.825V6.266h-17z" fill="#000"/><path d="M12 3.04a2.95 2.95 0 00-2.147.945 3.331 3.331 0 00-.889 2.281H7.75c0-1.198.448-2.346 1.245-3.193A4.127 4.127 0 0112 1.75c1.127 0 2.208.476 3.005 1.323a4.664 4.664 0 011.245 3.193h-1.214c0-.855-.32-1.676-.89-2.28A2.948 2.948 0 0012 3.04z" fill="#000"/></svg>