<svg width="24" height="24" fill="none" xmlns="http://www.w3.org/2000/svg"><path d="M24 12c0 3.2-1.246 6.207-3.508 8.469a11.898 11.898 0 01-8.469 3.508c-2.46 0-4.824-.741-6.836-2.142A11.982 11.982 0 011.87 18.36v2.529H0v-5.614h5.614v1.871H3.321c1.796 3.057 5.06 4.96 8.702 4.96 5.573 0 10.106-4.534 10.106-10.106H24zM11.93 1.895c3.642 0 6.907 1.902 8.703 4.959h-2.247v1.871h5.567V3.111h-1.871v2.53a11.983 11.983 0 00-3.316-3.476A11.906 11.906 0 0011.93.023a11.828 11.828 0 00-8.447 3.51A11.93 11.93 0 000 12h1.871c0-5.572 4.513-10.105 10.059-10.105zM8.39 6.62l-1.209 1.2c-.54.54-.598 1.29-.35 2.052.426 1.318.875 2.353 2.933 4.41s3.148 2.39 4.429 2.918c.295.122.573.18.834.18.464 0 .873-.185 1.219-.531l1.204-1.21-3.094-3.098-1.596 1.56c-.423-.31-.902-.725-1.497-1.319-.6-.6-1.059-1.111-1.405-1.566l1.55-1.562L8.39 6.62z" fill="#000"/></svg>