<svg width="34" height="34" fill="none" xmlns="http://www.w3.org/2000/svg"><path d="M24.81 14.852V8.797a.7.7 0 00-.194-.46l-6.79-7.13A.677.677 0 0017.34 1H6.575C4.587 1 3 2.62 3 4.608v20.355a3.564 3.564 0 003.575 3.582h8.497C16.679 31.213 19.6 33 22.928 33c5.056 0 9.184-4.108 9.184-9.17.007-4.422-3.168-8.117-7.303-8.977zm-6.804-11.51l4.555 4.794h-2.954c-.88 0-1.6-.727-1.6-1.607V3.341zM6.575 27.21c-1.247 0-2.241-1-2.241-2.248V4.608c0-1.254.994-2.274 2.24-2.274h10.098v4.195a2.94 2.94 0 002.935 2.941h3.868v5.209c-.2-.007-.36-.027-.533-.027-2.328 0-4.469.894-6.083 2.295H8.39c-.367 0-.667.3-.667.666 0 .367.3.668.667.668h7.23a10.613 10.613 0 00-1.174 2.067H8.389c-.367 0-.667.3-.667.667 0 .367.3.667.667.667h5.622a8.98 8.98 0 00-.253 2.148c0 1.2.233 2.387.653 3.388H6.575v-.007zm16.36 4.462c-4.322 0-7.837-3.515-7.837-7.837A7.84 7.84 0 0122.935 16a7.84 7.84 0 017.837 7.836c0 4.322-3.515 7.837-7.837 7.837z" fill="#545454"/><path d="M8.389 14.94h6.756c.367 0 .667-.3.667-.667a.67.67 0 00-.667-.668H8.389c-.367 0-.667.3-.667.668 0 .366.3.667.667.667zm17.961 8.756l-2.741 2.955v-7.283c0-.367-.3-.667-.667-.667-.367 0-.667.3-.667.667v7.283l-2.761-2.955a.673.673 0 00-.948-.033.665.665 0 00-.033.94l3.902 4.195a.67.67 0 00.487.214c.186 0 .36-.08.486-.214l3.909-4.195a.664.664 0 00-.027-.94.665.665 0 00-.94.033z" fill="#545454"/></svg>