<svg width="24" height="24" fill="none" xmlns="http://www.w3.org/2000/svg"><path d="M23.983 5.169a.739.739 0 00-.03-.15c-.116-.714-.707-1.269-1.453-1.269h-21c-.746 0-1.337.555-1.454 1.269a.739.739 0 00-.03.15C.015 5.198 0 5.222 0 5.25v13.5c0 .029.015.054.017.082a.724.724 0 00.03.149c.115.712.708 1.269 1.453 1.269h21c.745 0 1.338-.556 1.453-1.27a.724.724 0 00.03-.149c.002-.027.017-.052.017-.081V5.25c0-.029-.015-.053-.017-.081zm-2.002.081l-8.325 6.105L12 12.57l-1.655-1.213-.001-.002L2.019 5.25h19.962zM1.5 6.73l7.188 5.271-7.188 5.27V6.731zm.519 12.02l7.938-5.819 1.599 1.174a.745.745 0 00.888 0l1.599-1.174 7.938 5.819H2.019zM22.5 17.271l-7.188-5.27 7.188-5.27v10.54z" fill="#000"/></svg>