<svg width="24" height="24" fill="none" xmlns="http://www.w3.org/2000/svg"><path fill-rule="evenodd" clip-rule="evenodd" d="M24 12s-4.5-8.25-12-8.25S0 12 0 12s4.5 8.25 12 8.25S24 12 24 12zM1.76 12a19.7 19.7 0 002.49 3.065C6.18 16.998 8.82 18.75 12 18.75c3.18 0 5.819-1.752 7.752-3.685A19.703 19.703 0 0022.242 12a19.704 19.704 0 00-2.49-3.065C17.819 7.002 15.179 5.25 12 5.25c-3.18 0-5.819 1.752-7.752 3.685A19.7 19.7 0 001.758 12h.002z" fill="#000"/><path fill-rule="evenodd" clip-rule="evenodd" d="M12 8.25a3.75 3.75 0 100 7.5 3.75 3.75 0 000-7.5zM6.75 12a5.25 5.25 0 1110.5 0 5.25 5.25 0 01-10.5 0z" fill="#000"/></svg>