<svg width="24" height="24" fill="none" xmlns="http://www.w3.org/2000/svg"><g clip-path="url(#clip0)" fill="#000"><path d="M21.374 10.75a.625.625 0 00-.625.624v7.077l-5 2v-6.577a.625.625 0 00-1.25 0v6.576l-4.999-2V8.548l2.896 1.159a.625.625 0 10.464-1.161L9.119 7.048h-.001l-.01-.003a.62.62 0 00-.464 0l-.011.003H8.63L2.393 9.544a.625.625 0 00-.392.58v11.25a.626.626 0 00.857.58l6.017-2.406 6.006 2.402h.001l.012.005a.62.62 0 00.463 0l.011-.005h.002l6.238-2.495a.629.629 0 00.391-.581v-7.5a.625.625 0 00-.625-.625zM8.25 18.45l-5 2v-9.903l5-2v9.903zM17.625 4.5a1.877 1.877 0 00-1.875 1.875c0 1.033.841 1.875 1.875 1.875A1.877 1.877 0 0019.5 6.375 1.877 1.877 0 0017.625 4.5zm0 2.5a.625.625 0 110-1.25.625.625 0 010 1.25z"/><path d="M17.625 2a4.38 4.38 0 00-4.375 4.375c0 2.245 3.51 6.22 3.91 6.667a.628.628 0 00.93 0c.4-.446 3.91-4.422 3.91-6.667A4.38 4.38 0 0017.624 2zm0 9.67C16.26 10.053 14.5 7.568 14.5 6.376a3.13 3.13 0 013.125-3.125 3.13 3.13 0 013.124 3.125c0 1.19-1.76 3.677-3.124 5.296z"/></g><defs><clipPath id="clip0"><path fill="#fff" transform="translate(2 2)" d="M0 0h20v20H0z"/></clipPath></defs></svg>