<svg width="24" height="24" fill="none" xmlns="http://www.w3.org/2000/svg"><path d="M24 16.242a7.776 7.776 0 00-5.681-7.475C18.11 3.897 14.084 0 9.164 0 4.111 0 0 4.11 0 9.164c0 1.647.438 3.25 1.27 4.658L.035 18.294l4.472-1.237a9.13 9.13 0 004.26 1.262A7.776 7.776 0 0016.242 24a7.73 7.73 0 003.948-1.078l3.776 1.044-1.044-3.776A7.73 7.73 0 0024 16.242zm-19.272-.705l-2.677.74.74-2.677-.169-.264a7.731 7.731 0 01-1.216-4.172c0-4.278 3.48-7.758 7.758-7.758 4.278 0 7.758 3.48 7.758 7.758 0 4.278-3.48 7.758-7.758 7.758a7.732 7.732 0 01-4.172-1.216l-.264-.17zm17.221 6.412l-1.986-.55-.266.173a6.328 6.328 0 01-3.455 1.022 6.367 6.367 0 01-6.021-4.327 9.181 9.181 0 008.046-8.047 6.368 6.368 0 014.327 6.022 6.328 6.328 0 01-1.022 3.455l-.172.266.55 1.986z" fill="#000"/><path d="M8.46 12.703h1.407v1.406H8.461v-1.406zm2.11-5.672c0 .4-.162.768-.457 1.038L8.46 9.581v1.716h1.406V10.2l1.195-1.093a2.82 2.82 0 00.915-2.076A2.816 2.816 0 009.164 4.22a2.816 2.816 0 00-2.812 2.81h1.406a1.407 1.407 0 012.812 0z" fill="#000"/></svg>