<svg width="24" height="24" fill="none" xmlns="http://www.w3.org/2000/svg"><g clip-path="url(#clip0)" fill-rule="evenodd" clip-rule="evenodd" fill="#000"><path d="M4.282 10.719a.75.75 0 00-1.062 0l-3 3a.75.75 0 101.062 1.062l2.469-2.47 2.469 2.47a.751.751 0 001.062-1.062l-3-3zm19.5-1.5a.75.75 0 00-1.062 0l-2.47 2.47-2.468-2.47a.75.75 0 10-1.062 1.062l3 3a.751.751 0 001.062 0l3-3a.75.75 0 000-1.062z"/><path d="M12 4.5a7.492 7.492 0 00-6.288 3.41.75.75 0 01-1.255-.82A9 9 0 0121 12a.75.75 0 01-1.502 0 7.5 7.5 0 00-7.5-7.5H12zm-8.25 6.75a.75.75 0 01.75.75 7.5 7.5 0 0013.788 4.09.75.75 0 111.256.82A9 9 0 013 12a.75.75 0 01.752-.75H3.75z"/></g><defs><clipPath id="clip0"><path fill="#fff" d="M0 0h24v24H0z"/></clipPath></defs></svg>