<svg width="36" height="36" viewBox="0 0 36 36" fill="none" xmlns="http://www.w3.org/2000/svg">
<g clip-path="url(#clip0_501_11848)">
<path fill-rule="evenodd" clip-rule="evenodd" d="M6.4484 33.4126C6.2729 34.4116 7.2584 35.1924 8.1269 34.7469L18.0044 29.6709L27.8797 34.7469C28.7481 35.1924 29.7337 34.4116 29.5581 33.4149L27.6907 22.7724L35.6174 15.2214C36.3577 14.5149 35.9729 13.2234 34.9806 13.0839L23.9601 11.5179L19.0462 1.78213C18.9525 1.58478 18.8049 1.41804 18.6202 1.30129C18.4356 1.18454 18.2217 1.12256 18.0033 1.12256C17.7848 1.12256 17.5709 1.18454 17.3863 1.30129C17.2017 1.41804 17.054 1.58478 16.9604 1.78213L12.0464 11.5201L1.0259 13.0861C0.0336499 13.2256 -0.3511 14.5171 0.38915 15.2236L8.3159 22.7746L6.4484 33.4171V33.4126ZM17.4846 27.1869L9.19115 31.4484L10.7526 22.5451C10.7892 22.3402 10.7749 22.1294 10.711 21.9313C10.647 21.7332 10.5354 21.5538 10.3859 21.4089L3.8474 15.1764L12.9644 13.8804C13.1532 13.8519 13.3322 13.778 13.4862 13.6652C13.6402 13.5523 13.7646 13.4038 13.8486 13.2324L18.0044 5.00188L22.1579 13.2324C22.2419 13.4038 22.3663 13.5523 22.5203 13.6652C22.6743 13.778 22.8534 13.8519 23.0422 13.8804L32.1591 15.1741L25.6206 21.4066C25.4706 21.5516 25.3587 21.7314 25.2947 21.93C25.2308 22.1285 25.2167 22.3398 25.2539 22.5451L26.8154 31.4484L18.5219 27.1869C18.3615 27.1042 18.1837 27.0611 18.0033 27.0611C17.8228 27.0611 17.645 27.1042 17.4846 27.1869Z" fill="#FFB21E"/>
</g>
<defs>
<clipPath id="clip0_501_11848">
<rect width="36" height="36" fill="white"/>
</clipPath>
</defs>
</svg>
