<svg width="36" height="36" viewBox="0 0 36 36" fill="none" xmlns="http://www.w3.org/2000/svg">
<g clip-path="url(#clip0_501_11850)">
<path fill-rule="evenodd" clip-rule="evenodd" d="M12.0464 11.5177L16.9604 1.782C17.0548 1.58615 17.2023 1.42072 17.3861 1.30457C17.5698 1.18842 17.7825 1.1262 17.9999 1.125C18.4117 1.125 18.8234 1.34325 19.0462 1.782L23.9602 11.5177L34.9807 13.0837C35.2554 13.1269 35.5068 13.2635 35.6925 13.4705C35.8781 13.6775 35.9867 13.9422 35.9999 14.22C36.0153 14.4049 35.9889 14.5909 35.9227 14.7642C35.8565 14.9375 35.7522 15.0937 35.6174 15.2212L27.6907 22.7723L29.5582 33.4147C29.7337 34.4115 28.7482 35.1922 27.8797 34.7467L17.9999 29.6707L8.12468 34.7467C8.0214 34.8004 7.91068 34.8383 7.79618 34.8592C7.02893 34.9943 6.29318 34.2878 6.44618 33.4147L8.31368 22.7723L0.389184 15.2212C0.266395 15.1045 0.168888 14.9638 0.102705 14.8078C0.036523 14.6518 0.00307519 14.4839 0.00443435 14.3145C0.0050119 14.0751 0.0703169 13.8403 0.193434 13.635C0.282081 13.4867 0.402907 13.3601 0.546995 13.2647C0.691082 13.1693 0.854755 13.1075 1.02593 13.0837L12.0464 11.5177ZM17.9999 27.0608C18.1799 27.0608 18.3599 27.1012 18.5219 27.1868L26.8154 31.4482L25.2539 22.545C25.2172 22.3401 25.2314 22.1292 25.2953 21.931C25.3593 21.7329 25.471 21.5535 25.6207 21.4088L32.1592 15.1762L23.0422 13.8802C22.8534 13.8517 22.6743 13.7779 22.5203 13.665C22.3663 13.5522 22.242 13.4037 22.1579 13.2323L18.0044 5.00175L17.9999 5.0085V27.0585V27.0608Z" fill="#FFB21E"/>
</g>
<defs>
<clipPath id="clip0_501_11850">
<rect width="36" height="36" fill="white"/>
</clipPath>
</defs>
</svg>
