<svg width="57" height="29" fill="none" xmlns="http://www.w3.org/2000/svg"><path d="M17.406.9V10h-.95V1.732h-4.393l-.104 3.042c-.043 1.257-.147 2.27-.312 3.042-.156.763-.399 1.335-.728 1.716-.33.373-.767.559-1.313.559A3.08 3.08 0 018.878 10l.078-.858c.147.035.29.052.429.052.381 0 .689-.152.923-.455.242-.303.425-.771.546-1.404.121-.641.204-1.486.247-2.535l.13-3.9h6.175zm7.06 9.178c-.9 0-1.72-.2-2.456-.598a4.522 4.522 0 01-1.716-1.664c-.407-.702-.611-1.49-.611-2.366 0-.875.204-1.664.61-2.366a4.428 4.428 0 011.717-1.651c.737-.407 1.556-.611 2.457-.611.901 0 1.712.2 2.43.598a4.4 4.4 0 011.717 1.664c.416.702.624 1.49.624 2.366 0 .875-.208 1.668-.624 2.379a4.428 4.428 0 01-1.716 1.651c-.72.399-1.53.598-2.431.598zm0-.858c.72 0 1.37-.16 1.95-.481a3.584 3.584 0 001.366-1.352c.33-.58.494-1.226.494-1.937 0-.71-.165-1.352-.494-1.924a3.47 3.47 0 00-1.365-1.352 3.883 3.883 0 00-1.95-.494c-.72 0-1.374.165-1.963.494a3.56 3.56 0 00-1.378 1.352 3.786 3.786 0 00-.494 1.924c0 .71.165 1.356.494 1.937a3.684 3.684 0 001.378 1.352 4.04 4.04 0 001.963.481zm12.852-7.488H32.47L32.483 10h-.95V.9h5.785v.832zm4.415 8.346c-.902 0-1.72-.2-2.457-.598a4.522 4.522 0 01-1.717-1.664c-.407-.702-.61-1.49-.61-2.366 0-.875.203-1.664.61-2.366a4.428 4.428 0 011.717-1.651c.736-.407 1.555-.611 2.456-.611.902 0 1.712.2 2.431.598a4.4 4.4 0 011.717 1.664c.415.702.623 1.49.623 2.366 0 .875-.208 1.668-.623 2.379a4.428 4.428 0 01-1.717 1.651c-.719.399-1.53.598-2.43.598zm0-.858c.719 0 1.369-.16 1.95-.481.58-.33 1.035-.78 1.364-1.352.33-.58.495-1.226.495-1.937 0-.71-.165-1.352-.495-1.924a3.47 3.47 0 00-1.364-1.352 3.882 3.882 0 00-1.95-.494c-.72 0-1.374.165-1.963.494a3.56 3.56 0 00-1.379 1.352 3.786 3.786 0 00-.493 1.924c0 .71.164 1.356.493 1.937a3.685 3.685 0 001.379 1.352 4.04 4.04 0 001.962.481zM.697 16.9h6.656v.819H1.646v2.977h2.977c1.074 0 1.889.221 2.444.663.563.442.845 1.083.845 1.924 0 .875-.304 1.547-.91 2.015-.598.468-1.46.702-2.587.702H.697v-9.1zm3.705 8.333c.84 0 1.473-.16 1.898-.481.433-.32.65-.797.65-1.43 0-.624-.213-1.088-.637-1.391-.416-.312-1.053-.468-1.911-.468H1.646v3.77h2.756zm9.146-8.333c1.161 0 2.071.277 2.73.832.659.555.988 1.317.988 2.288 0 .97-.33 1.733-.988 2.288-.659.546-1.569.819-2.73.819h-2.444V26h-.962v-9.1h3.406zm-.026 5.382c.901 0 1.59-.195 2.067-.585.477-.399.715-.958.715-1.677 0-.737-.238-1.3-.715-1.69-.477-.399-1.166-.598-2.067-.598h-2.418v4.55h2.418zm12.157 2.886V26h-6.435v-9.1h6.24v.832h-5.278v3.237h4.706v.819h-4.706v3.38h5.473zm9.74-8.268V26h-.95v-4.199h-5.693V26h-.962v-9.1h.962v4.056h5.694V16.9h.949zm11.29 8.268v2.873h-.896V26H37.87l-.013 2.041h-.897l.013-2.873h.455c.598-.035 1.014-.507 1.248-1.417.234-.919.377-2.219.429-3.9l.104-2.951h6.136v8.268h1.365zm-6.746-5.226c-.043 1.387-.152 2.53-.325 3.432-.165.893-.446 1.49-.845 1.794h5.603v-7.436H40.04l-.078 2.21zm14.559 3.627h-5.07L48.36 26h-1.001l4.16-9.1h.949l4.16 9.1h-1.014l-1.092-2.431zm-.351-.78l-2.184-4.888-2.184 4.888h4.368z" fill="#000"/></svg>