<svg width="540" height="540" fill="none" xmlns="http://www.w3.org/2000/svg"><g clip-path="url(#clip0)" fill="#59C3FF"><path d="M0 189.002a188.658 188.658 0 0159.895-137.96c.126-.118.243-.244.369-.37 48.174-44.8 116.179-61.326 179.541-43.633 63.362 17.694 112.965 67.062 130.959 130.339a178.095 178.095 0 016.363 34.875c.071.324.125.652.162.981.198 2.169.342 4.446.45 6.786H396v-18.018c-.025-13.135 9.427-24.372 22.372-26.598 12.945-2.226 25.608 5.209 29.972 17.598H504c19.882 0 36 16.118 36 36s-16.118 36-36 36h-55.656c-4.364 12.389-17.027 19.824-29.972 17.599-12.945-2.226-22.397-13.464-22.372-26.599v-18h-18.234v.9a9.56 9.56 0 01-.144 1.584 187.457 187.457 0 01-14.022 60.516h90.9c22.357.025 40.475 18.143 40.5 40.5-.074 22.337-18.163 40.426-40.5 40.5H299.7c-64.386 46.763-151.196 48.081-216.972 3.294l-11.061.216c-29.698.667-53.48 24.835-53.667 54.54a54.602 54.602 0 0054.63 54.63H315v-31.5c-.033-16.506 12.709-30.224 29.172-31.409 16.464-1.184 31.038 10.569 33.369 26.909H495c24.853 0 45 20.147 45 45s-20.147 45-45 45H377.541c-2.331 16.341-16.905 28.094-33.369 26.909-16.463-1.184-29.205-14.903-29.172-31.409v-31.5H72.63A72.614 72.614 0 010 400.052c.214-35.706 26.241-66.01 61.506-71.613A188.775 188.775 0 010 189.002zm522 0c0-9.941-8.059-18-18-18h-54v36h54c9.941 0 18-8.059 18-18zm-108 27a9 9 0 009 9 9 9 0 009-9v-54a9 9 0 00-18 0v54zm108 247.68c0-14.911-12.088-27-27-27H378v54h117c14.912 0 27-12.088 27-27zm-189 40.5c0 7.456 6.044 13.5 13.5 13.5s13.5-6.044 13.5-13.5v-81c0-7.456-6.044-13.5-13.5-13.5s-13.5 6.044-13.5 13.5v81zM23.778 145.55a93.256 93.256 0 0044.271 24.03 142.954 142.954 0 0014.31 2.97A9 9 0 0181 190.442c-.458 0-.915-.036-1.368-.108a154.656 154.656 0 01-16.2-3.348 120.234 120.234 0 01-43.875-20.988A171.174 171.174 0 0018 189.002a168.594 168.594 0 003.222 32.517 71.221 71.221 0 0012.6 12.735c37.395 29.781 109.656 35.1 179.838 13.284C278.1 227.63 330.3 188.885 349.884 146.36c.963-2.034 1.881-4.311 2.772-6.732a168.827 168.827 0 00-30.825-58.13A131.4 131.4 0 01297 118.018a243.62 243.62 0 01-105.048 62.379 274.907 274.907 0 01-46.8 10.332 8.222 8.222 0 01-1.152.072 9 9 0 01-1.134-17.928 256.607 256.607 0 0043.749-9.657 225.576 225.576 0 0097.263-57.51 104.935 104.935 0 0024.246-39.168 169.305 169.305 0 00-58.896-37.494c6.03 32.4-27.666 69.444-78.12 85.113a149.73 149.73 0 01-44.568 7.074c-29.7 0-63.324-10.854-70.443-39.726a165.203 165.203 0 00-32.319 64.044zm50.463-83.16a26.937 26.937 0 00-.441 16.2c.189.593.414 1.173.675 1.737 15.687 38.367 90.342 16.722 91.242 16.677 41.868-12.996 71.325-42.543 65.439-66.726l-.18-.684a23.671 23.671 0 00-3.87-7.2A167.717 167.717 0 00189 18.002 170.1 170.1 0 0074.241 62.39zm396.18 254.925A22.022 22.022 0 00477 301.502c0-12.426-10.074-22.5-22.5-22.5h-99.486a188.819 188.819 0 01-33.912 45H454.5a22.11 22.11 0 0015.921-6.687zm-127.35-54.126a224.777 224.777 0 01-47.565 37.413 9.001 9.001 0 11-9.225-15.453c83.061-49.635 74.907-93.924 72.198-117-25.596 41.211-77.4 77.454-139.5 96.66a306.98 306.98 0 01-90.441 14.193 179.994 179.994 0 01-97.497-24.705 163.84 163.84 0 007.02 14.904c.135.243.252.504.369.765a171.072 171.072 0 0017.874 26.739c33.885 29.871 102.186 35.82 170.523 14.697 1.143-.315 2.241-.693 3.357-1.071l.954-.315a9.016 9.016 0 0111.684 10.354 9.012 9.012 0 01-5.978 6.746l-.9.306c-1.449.486-2.862.963-4.068 1.287a287.216 287.216 0 01-84.114 13.14 217.614 217.614 0 01-43.317-4.212 170.997 170.997 0 00238.608-74.466l.018.018z"/><path d="M164.845 53.541l-27 9a9.01 9.01 0 01-11.394-5.706 9.01 9.01 0 015.706-11.394l27-9a9.01 9.01 0 015.688 17.1z"/></g><defs><clipPath id="clip0"><path fill="#fff" transform="matrix(-1 0 0 1 540 0)" d="M0 0h540v540H0z"/></clipPath></defs></svg>