<svg width="196" height="196" fill="none" xmlns="http://www.w3.org/2000/svg"><path d="M141.6 72.296c0 6.237-5.052 11.293-11.289 11.293-6.234 0-11.29-5.056-11.29-11.293 0-6.237 5.056-11.29 11.29-11.29 6.237 0 11.289 5.053 11.289 11.29zm-64.912 0c0 6.237-5.055 11.293-11.29 11.293-6.233 0-11.289-5.056-11.289-11.293 0-6.237 5.056-11.29 11.29-11.29 6.234 0 11.29 5.053 11.29 11.29zM59.6 156.691a4.652 4.652 0 01-4.653-4.652c0-20.082 16.153-36.421 36.009-36.421h15.681c19.856 0 36.009 16.249 36.009 36.22a4.651 4.651 0 11-9.301 0c0-14.838-11.981-26.912-26.708-26.912h-15.68c-14.727 0-26.705 12.161-26.705 27.113a4.653 4.653 0 01-4.653 4.652z" fill="#C8C8C8"/><path d="M98.002 196C43.977 196 .025 152.036.025 97.998.025 43.964 43.977 0 98.002 0c54.022 0 97.974 43.964 97.974 97.998 0 54.038-43.952 98.002-97.974 98.002zm0-186.692c-48.895 0-88.672 39.786-88.672 88.69 0 48.908 39.777 88.694 88.672 88.694 48.892 0 88.669-39.786 88.669-88.694 0-48.904-39.777-88.69-88.669-88.69z" fill="#C8C8C8"/></svg>