<svg width="104" height="50" fill="none" xmlns="http://www.w3.org/2000/svg"><path d="M9.04 30.996v2.488H3.036V45.21H0V30.996h9.04zm4.108 3.343v4.3c0 .452-.073 1.56-.224 3.325l5.047-7.625h3.593V45.21h-2.89v-4.337c0-.77.066-1.861.194-3.27l-5.03 7.607h-3.58V34.34h2.89zm21.478 0V45.21h-2.993v-8.643h-3.962v8.643h-2.987V34.34h9.942zm8.156 11.071c-1.763 0-3.138-.482-4.126-1.452-.993-.963-1.484-2.337-1.484-4.102 0-1.819.46-3.228 1.375-4.228.915-.994 2.181-1.494 3.8-1.494 1.544 0 2.75.44 3.61 1.313.86.874 1.29 2.084 1.29 3.626v1.44H40.19c.03.843.285 1.5.752 1.976.472.476 1.127.71 1.975.71.66 0 1.284-.066 1.866-.204a9.83 9.83 0 001.842-.65v2.294a7.032 7.032 0 01-1.672.578c-.594.127-1.315.193-2.17.193zm-.424-9.161c-.63 0-1.127.198-1.484.596-.358.397-.564.964-.618 1.698h4.187c-.013-.734-.206-1.3-.576-1.698-.37-.398-.872-.596-1.509-.596zM55.82 45.41c-1.284 0-2.29-.464-3.023-1.391h-.157c.103.91.157 1.433.157 1.578V50h-2.98V34.34h2.423l.418 1.408h.14c.696-1.078 1.732-1.614 3.102-1.614 1.29 0 2.302.494 3.035 1.488.733.994 1.097 2.367 1.097 4.132 0 1.163-.17 2.169-.515 3.024-.346.855-.83 1.506-1.46 1.957-.637.452-1.382.675-2.236.675zm-.878-8.902c-.739 0-1.272.222-1.611.674-.34.452-.515 1.193-.528 2.235v.319c0 1.169.176 2.006.522 2.512.35.506.902.759 1.66.759 1.339 0 2.005-1.096 2.005-3.29 0-1.071-.163-1.872-.497-2.408-.327-.53-.848-.801-1.55-.801zm21.468 8.703h-2.788v-8.565l-.157.602c-.352 1.368-.667 2.404-.952 3.102l-1.939 4.861h-2.12l-1.97-4.903c-.278-.71-.58-1.716-.896-3.005l-.188-.663v8.565h-2.78V34.34h4.107l1.878 4.638c.194.5.376 1.072.546 1.723.163.65.278 1.204.339 1.662.212-.97.382-1.668.503-2.096.121-.428.254-.813.394-1.174l1.945-4.759h4.071v10.878h.006zm8.16.199c-1.764 0-3.139-.482-4.127-1.452-.993-.963-1.484-2.337-1.484-4.102 0-1.819.46-3.228 1.375-4.228.915-.994 2.181-1.494 3.8-1.494 1.544 0 2.75.44 3.61 1.313.86.874 1.29 2.084 1.29 3.626v1.44h-7.052c.03.843.285 1.5.752 1.976.472.476 1.127.71 1.975.71.66 0 1.284-.066 1.866-.204a9.83 9.83 0 001.842-.65v2.294a7.032 7.032 0 01-1.672.578c-.594.127-1.321.193-2.175.193zm-.419-9.161c-.63 0-1.126.198-1.484.596-.358.397-.564.964-.618 1.698h4.187c-.012-.734-.206-1.3-.576-1.698-.376-.398-.878-.596-1.509-.596zm18.898 12.865h-2.678v-3.897h-7.355v3.897h-2.678v-6.071h.92c.625-.964 1.152-2.187 1.576-3.657.424-1.47.721-3.156.89-5.047h7.732v8.704h1.606v6.071h-.013zm-4.586-6.071v-6.475H96.22A28.726 28.726 0 0195.55 40a14.043 14.043 0 01-1.182 3.042h4.096z" fill="#000"/><path fill-rule="evenodd" clip-rule="evenodd" d="M91.282 0l5.883 3.373 5.884 3.38v13.509l-5.884 3.373-5.883 3.379-5.883-3.38-5.89-3.372V6.752l5.89-3.379L91.282 0z" fill="#4365AF"/><path d="M88.974 21.07c-1.175 0-1.732-2.036-1.993-3.747-.182-1.186-.26-1.5-.545-2.222-.267-.675-.576-1.066-.873-1.44-.315-.397-.636-.807-.878-1.506-.576-1.638-.14-4.084 1.593-5.342 1.49-1.085 3.26-.765 3.333-.753a7.04 7.04 0 012.496.975c.03-.186.09-.36.182-.493.206-.302.6-.5 1.133-.573.902-.12 2.326.139 3.314.982 1.411 1.21 1.684 3.566 1.12 5.054-.26.692-.545 1.078-.817 1.445-.297.404-.576.777-.842 1.59a12.47 12.47 0 00-.394 1.537c-.049.222-.097.47-.164.758l-.018.09c-.279 1.217-.8 3.488-2.078 3.585-.97.078-1.23-.807-1.442-1.512-.218-.747-.315-1.307-.394-1.753-.048-.283-.09-.536-.158-.777a9.628 9.628 0 00-.236-.74 4.75 4.75 0 00-.23.734l-.194.765c-.194.801-.382 1.554-.509 1.927l-.036.109c-.127.421-.4 1.289-1.345 1.313-.012-.006-.019-.006-.025-.006zm-.097-14.336c-.55 0-1.411.109-2.175.669-1.436 1.048-1.811 3.156-1.333 4.517.206.579.467.91.77 1.295.315.398.666.85.975 1.62.31.784.4 1.14.594 2.386.315 2.054.879 3.126 1.272 3.126h.007c.345-.006.496-.27.654-.795l.042-.127c.115-.349.31-1.12.491-1.867l.194-.77c.273-1.073.557-1.53.963-1.53.315 0 .582.252.921 1.523.073.265.121.536.17.844.079.451.17.97.376 1.674.236.801.357 1.018.672.988.49-.036.963-1.054 1.418-3.018l.018-.09c.067-.283.115-.524.164-.747.115-.548.206-.982.412-1.608.303-.922.63-1.368.95-1.795.255-.344.498-.675.722-1.271.478-1.265.224-3.27-.909-4.24-.782-.67-1.963-.916-2.739-.814-.363.048-.557.163-.624.253-.115.163-.085.572 0 .657.733.644.733.825.733.921a.359.359 0 01-.242.344c-.145.054-.333-.018-.43-.139-.376-.458-1.472-1.566-3.484-1.945-.018-.019-.242-.06-.582-.06z" fill="#fff"/><path fill-rule="evenodd" clip-rule="evenodd" d="M64.776 0l5.883 3.373 5.883 3.38v13.509l-5.883 3.373-5.883 3.379-5.883-3.38-5.883-3.372V6.752l5.883-3.379L64.776 0z" fill="#ED2127"/><path d="M72.931 20.522c-.206.21-.248.204-.472 0-.388-.35-.776-.693-1.163-1.042l-1.133-1.018-1.127-1.012c-.06-.055-.128-.145-.194-.15-.06-.007-.133.084-.194.132-.267.21-.588.289-.915.349-.23.042-.467.054-.697.078-.285.03-.503-.078-.703-.27-.37-.356-.757-.687-1.139-1.03-.23-.206-.448-.416-.678-.621-.224-.205-.455-.398-.685-.603-.503-.451-1.012-.903-1.515-1.36-.484-.44-.975-.874-1.46-1.314-.557-.5-1.109-1-1.666-1.494-.151-.132-.297-.27-.448-.403-.285-.241-.334-.579-.061-.868.067-.072.133-.144.2-.21.048-.049.054-.085 0-.133-.206-.18-.412-.361-.612-.548-.054-.048-.085-.036-.127.006-.146.139-.285.283-.443.404a1.069 1.069 0 01-.533.216c-.363.03-.587-.12-.697-.463-.005-.012-.018-.025-.024-.037v-.253c.006-.012.019-.024.024-.036a1.37 1.37 0 01.303-.632c.31-.356.625-.705.94-1.054.309-.344.624-.68.933-1.024.2-.223.418-.416.702-.524.08-.03.164-.054.249-.085h.182c.066.03.14.055.206.09.266.151.375.44.297.772-.08.325-.26.584-.485.819-.067.066-.055.102.012.157.2.174.4.349.594.53.048.042.078.054.127 0 .067-.079.14-.145.2-.223.224-.265.575-.295.83-.067.636.567 1.272 1.139 1.903 1.705.52.47 1.042.94 1.563 1.404.496.445.993.885 1.49 1.33.552.5 1.109 1 1.66 1.495.4.36.8.716 1.2 1.078a.364.364 0 01.133.259c.012.21.012.415.012.626 0 .139-.024.271-.024.41.006.35-.09.668-.29.958-.055.072-.05.108.023.168.406.356.806.723 1.212 1.084.521.47 1.049.94 1.57 1.41.17.15.345.301.508.458.146.132.291.27.43.41-.017.041-.017.084-.017.126zm-8.41-9.379c-.072.079-.126.15-.193.211-.055.054-.049.084.006.133.242.216.485.44.727.662.37.344.74.693 1.109 1.036.37.343.745.675 1.12 1.018.4.367.794.735 1.188 1.108a.275.275 0 01.06.151c0 .084-.011.169-.03.253-.06.295-.193.554-.43.753a1.7 1.7 0 01-.848.38.201.201 0 01-.14-.043 18.25 18.25 0 01-.538-.464c-.328-.295-.655-.596-.982-.891-.497-.452-.994-.91-1.49-1.361-.443-.404-.879-.808-1.315-1.211-.152-.139-.164-.259-.03-.416.066-.078.139-.156.205-.229.28-.3.558-.602.837-.903.139-.15.278-.301.424-.464l-.321-.283-.643.705c-.2.223-.4.445-.606.668-.09.097-.218.103-.309.013-.09-.085-.09-.205-.006-.302.346-.385.697-.765 1.042-1.15.067-.072.128-.145.2-.223-.109-.096-.212-.193-.327-.295-.018.024-.024.042-.036.054-.194.21-.382.422-.576.638a19.19 19.19 0 01-.327.356.206.206 0 01-.297.018c-.085-.072-.097-.18-.03-.29.03-.041.06-.078.09-.114.273-.3.552-.602.825-.903.012-.018.018-.06.006-.072a11.94 11.94 0 00-.285-.253c-.109.114-.212.216-.309.325-.315.35-.624.699-.939 1.042-.09.102-.224.096-.321-.006-.079-.084-.073-.193.024-.301.279-.313.564-.62.848-.934.128-.138.249-.277.382-.422l-1.12-1.005c-.11.12-.213.228-.316.337a.553.553 0 01-.77.024c-.387-.343-.775-.693-1.163-1.042a3.736 3.736 0 00-.139-.115c.176-.192.333-.367.49-.542.128-.138.255-.283.322-.457.012-.037.024-.079.036-.133-.036.006-.054.012-.066.012-.025.006-.043.018-.067.03-.194.097-.327.26-.467.416-.496.548-1 1.09-1.49 1.644-.14.157-.26.332-.388.506-.03.042-.036.103-.06.175a.473.473 0 00.29-.139c.146-.132.28-.27.412-.415.122-.127.237-.26.358-.392.109.097.206.187.309.277.333.301.666.597 1 .898.236.217.236.554.012.789a4.722 4.722 0 00-.23.259c-.013.018-.013.072 0 .09.103.103.218.199.327.295.436.392.878.79 1.314 1.18.2.182.4.362.6.537.321.283.643.572.964.855.375.338.745.675 1.12 1.012.51.458 1.024.916 1.54 1.374.587.524 1.169 1.048 1.757 1.572.03.024.078.048.115.042.26-.024.533-.036.787-.096.873-.2 1.315-.91 1.194-1.777-.018-.133-.036-.272-.152-.368-.32-.289-.648-.572-.969-.861-.521-.47-1.042-.934-1.563-1.404-.418-.38-.842-.759-1.26-1.138-.176-.15-.328-.29-.491-.434zm2.655 5.337c.078-.012.139-.042.151-.108.012-.055.006-.127-.024-.163-.103-.114-.218-.217-.333-.325-.146-.133-.291-.26-.43-.392l-.928-.867c-.424-.392-.848-.777-1.266-1.169-.163-.15-.327-.307-.497-.458-.085-.078-.175-.078-.242 0-.067.073-.06.157.024.241a3.6 3.6 0 00.224.205c.715.663 1.43 1.325 2.145 1.982.352.325.703.656 1.06.982.025.03.073.048.116.072z" fill="#fff"/><path fill-rule="evenodd" clip-rule="evenodd" d="M38.274 0l5.883 3.373 5.884 3.38v13.509l-5.884 3.373-5.883 3.379-5.883-3.38-5.883-3.372V6.752l5.883-3.379L38.274 0z" fill="#CDDC33"/><path d="M43.4 20.853h-9.742c-.049-.012-.097-.036-.152-.042a2.15 2.15 0 01-1.145-.566c-.436-.416-.642-.928-.642-1.53v-8.258c0-.271.157-.434.424-.434h3.484c.042 0 .078 0 .12.012.195.048.31.199.31.416v2.993c.103-.15.194-.313.285-.47.006-.018.006-.036.006-.06v-3.62c0-.042-.012-.06-.055-.084-.6-.271-.945-.723-.993-1.386a1.574 1.574 0 011.072-1.584c.115-.042.242-.06.364-.09h4.162c.012.006.03.012.042.012.758.09 1.345.699 1.406 1.458a1.578 1.578 0 01-.957 1.572c-.073.03-.097.072-.097.144 0 1.18 0 2.361.006 3.536 0 .042.012.096.036.133.97 1.68 1.945 3.354 2.92 5.035.152.265.31.524.437.801.163.355.206.729.066 1.096-.17.47-.533.723-1.005.838-.122.048-.237.06-.352.078zm-7.834-.783h7.598c.206 0 .412-.018.6-.114a.471.471 0 00.272-.458c-.006-.211-.096-.398-.2-.579a2637.7 2637.7 0 00-3.26-5.613.547.547 0 01-.078-.277V8.957c0-.235.127-.374.358-.416.327-.06.557-.24.654-.56.097-.313.018-.59-.218-.82-.164-.156-.364-.216-.594-.216h-3.769c-.072 0-.139.006-.212.018a.8.8 0 00-.642.82c.006.373.29.686.679.758.254.048.37.18.37.44v4.042a.541.541 0 01-.073.277c-.273.475-.54.951-.812 1.427-.049.079-.085.169-.146.235a.222.222 0 00-.054.163v3.608a2 2 0 01-.327 1.12 2.298 2.298 0 01-.146.217zm-3.053-7.06h1.132c.055 0 .11.007.164.025a.39.39 0 01.255.427.4.4 0 01-.382.332h-1.163v1.276h1.139c.236 0 .412.163.412.38.006.235-.17.41-.412.41h-1.139v1.277h1.12c.043 0 .08 0 .122.006.2.048.327.222.309.427a.399.399 0 01-.394.35h-1.151c0 .024-.006.042-.006.06 0 .277-.006.554.006.831.006.145.036.29.084.422.243.626.97.97 1.642.795.606-.163 1.018-.663 1.018-1.253v-7.879c0-.024 0-.048-.006-.078h-2.738c-.012.729-.012 1.458-.012 2.193z" fill="#fff"/><path d="M40.286 18.685a1.376 1.376 0 01-1.382-1.368 1.382 1.382 0 012.763 0 1.376 1.376 0 01-1.381 1.368zm-2.381-2.193a.674.674 0 11.006-1.35c.37 0 .679.308.679.67 0 .379-.31.68-.685.68zm.152-4.409a.554.554 0 011.108 0 .56.56 0 01-.563.554.556.556 0 01-.545-.554zm-.189 6.186a.412.412 0 01-.424.416.413.413 0 01-.419-.428c0-.229.194-.416.425-.416.23 0 .418.193.418.428zm1.218-4.807a.42.42 0 01.424.422.423.423 0 01-.418.422.426.426 0 01-.43-.422.42.42 0 01.424-.422z" fill="#fff"/><path fill-rule="evenodd" clip-rule="evenodd" d="M11.766 0l5.883 3.373 5.884 3.38v13.509l-5.884 3.373-5.883 3.379-5.883-3.38L0 20.264V6.752l5.883-3.379L11.766 0z" fill="#F7DE25"/><path d="M16.903 16.251c.37-1.024.46-2.072.249-3.132-.352-1.747-1.303-3.084-2.83-4.024a.286.286 0 01-.109-.114c-.26-.44-.642-.699-1.157-.735-.14-.012-.279.012-.43.018a.838.838 0 00-.46-.512c-.05-.024-.067-.048-.067-.102v-.801c0-.211-.11-.314-.321-.32h-.043v-.91h.146c.115 0 .206-.09.206-.204v-.367a.204.204 0 00-.206-.205h-1.26a.204.204 0 00-.207.205v.373c0 .114.091.205.206.205h.146v.91h-.067c-.2 0-.309.114-.309.307v.807c0 .042-.006.072-.055.096-.345.157-.52.428-.52.807v4.536c0 .355.181.608.496.765.06.03.08.054.08.12v1.922c0 .21.108.319.32.319h1.067c.212 0 .327-.108.327-.32v-1.933c0-.054.012-.084.066-.114a.992.992 0 00.23-.15c.219-.194.28-.44.28-.718-.007-.614 0-1.234 0-1.849 0-.018.005-.042.005-.042.206-.012.4-.012.594-.042.194-.03.37-.127.533-.235.012.006.018.006.025.012a.13.13 0 01.03.024c1.012.801 1.581 1.837 1.672 3.12a4.044 4.044 0 01-.636 2.482.214.214 0 01-.103.078c-.242.066-.479.12-.721.18-.115.03-.23.073-.345.073-1.218.006-2.43 0-3.648 0h-.563a.278.278 0 00-.279.283c0 .169.127.283.321.283h4.223a.598.598 0 00.146-.018l.333-.078c-.037.036-.049.054-.067.072a4.241 4.241 0 01-1.278.831 4.377 4.377 0 01-1.733.338H8.445c-.163 0-.266.06-.34.204-.169.35-.35.7-.526 1.049-.127.247 0 .451.278.451h4.853c1.025 0 2.042-.006 3.066.006.291 0 .425-.24.291-.47-.175-.319-.333-.656-.497-.981-.036-.079-.09-.145-.145-.247.012-.012.042-.024.067-.048a5.894 5.894 0 001.411-2.205zm-3.944-5.734a.859.859 0 01-.854-.85c0-.463.387-.855.854-.855.473 0 .86.386.86.856s-.387.849-.86.849z" fill="#fff"/></svg>