<svg width="28" height="36" fill="none" xmlns="http://www.w3.org/2000/svg"><path d="M.775 17.74c0-1.93.164-3.155 4.208-6.139C8.333 9.131 19.065.69 19.065.69v14.092h8.163v20.282H3.323c-1.401 0-2.55-1.135-2.55-2.52L.775 17.74z" fill="#FFCF01"/><path d="M19.065 14.781v8.165L4.066 33.044l18.963-6.098V14.781h-3.964z" fill="#D3AB07"/><path d="M12.211 14.359c.877-1.034 2.159-1.398 2.862-.815.702.583.562 1.893-.314 2.927-.877 1.033-2.159 1.396-2.862.813-.704-.582-.563-1.892.314-2.925z" fill="#231F20"/></svg>