<svg width="73" height="33" fill="none" xmlns="http://www.w3.org/2000/svg"><path d="M35.775 18.664h1.135v2.53h.82l1.47-2.53h1.24l-1.765 2.97v.02l1.87 3.241h-1.281l-1.514-2.718h-.819v2.718h-1.135v-6.231h-.02zm7.313 1.652c1.365 0 2.48.983 2.48 2.342 0 1.38-1.093 2.343-2.459 2.343s-2.459-.962-2.459-2.343c-.02-1.38 1.072-2.342 2.438-2.342zm3.362.104h1.072v3.514h1.407v-3.513h1.072v3.513h1.408v-3.513h1.072v4.474h-5.99V20.42h-.041zm9.204-.104c1.281 0 1.996.942 1.996 2.113a3.103 3.103 0 01-.042.439h-3.09c.064.773.673 1.192 1.346 1.192.462 0 .924-.21 1.282-.482l.441.795c-.462.397-1.156.648-1.807.648-1.492 0-2.416-1.066-2.416-2.342 0-1.4.945-2.363 2.29-2.363zm2.52 3.639c.547-.084.947-.543.947-2.133V20.42h3.278v4.474h-1.114V21.32h-1.093v.502c0 1.945-.525 3.074-2.017 3.116v-.983zm7.419-3.639c1.281 0 1.996.942 1.996 2.113a3.103 3.103 0 01-.042.439h-3.09c.064.773.673 1.192 1.346 1.192.462 0 .924-.21 1.282-.482l.441.795c-.462.397-1.156.648-1.807.648-1.492 0-2.417-1.066-2.417-2.342 0-1.4.946-2.363 2.29-2.363zm2.92.104h1.114v1.716h.547l1.092-1.715h1.24l-1.43 2.133v.021l1.598 2.32H71.37l-1.176-1.818h-.588v1.818h-1.115V20.42h.021zm-25.425 3.62c.736 0 1.345-.565 1.345-1.402 0-.815-.61-1.4-1.346-1.4-.734 0-1.323.565-1.323 1.4 0 .837.588 1.402 1.324 1.402zm13.427-1.945c0-.586-.4-.941-.904-.941-.566 0-.987.376-1.092.941h1.996zm9.94 0c0-.586-.4-.941-.904-.941-.568 0-.988.376-1.093.941h1.996z" fill="#2D3540"/><path d="M51.471 5.093v10.56a.284.284 0 01-.18.272.288.288 0 01-.113.02h-2.165a.288.288 0 01-.294-.292V5.093a.286.286 0 01.294-.293h2.165a.289.289 0 01.273.18.284.284 0 01.02.113zM68.366 4.8c.084 0 .19.042.294.126.063.062.063.167.042.25L65.13 15.758a.297.297 0 01-.273.188h-1.934a.272.272 0 01-.273-.188l-2.08-6.17-2.081 6.169a.298.298 0 01-.273.188h-1.933c-.126 0-.231-.062-.273-.188L52.437 5.176c-.02-.083-.02-.167.042-.25.043-.084.148-.126.231-.126h2.417a.29.29 0 01.273.209l1.912 6.252 2.102-6.252a.297.297 0 01.273-.189h1.702c.126 0 .23.063.273.189l2.101 6.252 1.913-6.252a.289.289 0 01.273-.209h2.416zm3.656 0c.147 0 .273.126.294.293v10.56a.285.285 0 01-.294.292h-2.165a.288.288 0 01-.293-.292V5.093a.284.284 0 01.18-.272.289.289 0 01.114-.02h2.164zM47.458 15.57c.126.146.02.355-.169.355h-2.647a.34.34 0 01-.273-.126l-.441-.543a5.947 5.947 0 01-3.173.941c-3.236 0-5.863-2.614-5.863-5.835 0-3.22 2.627-5.834 5.863-5.834 3.236 0 5.862 2.614 5.862 5.834 0 1.15-.336 2.238-.924 3.158l1.765 2.05zm-22.127 5.123c.547.209.757 1.024.799 1.38.084.648-.105.9-.315.9-.21 0-.505-.252-.82-.754-.315-.502-.441-1.066-.273-1.36.105-.188.336-.271.61-.166h-.001zm-3.194 2.363c.337 0 .715.146 1.051.439.651.544.84 1.17.504 1.631-.19.23-.504.376-.861.376s-.736-.125-.988-.355c-.588-.502-.756-1.34-.378-1.799.147-.188.378-.292.672-.292zm-7.354 6.043C6.798 29.1.326 22.66.326 14.712.326 6.766 6.798.325 14.783.325c7.984 0 14.457 6.441 14.457 14.387 0 2.697-.757 5.228-2.038 7.382-.042.062-.148.042-.169-.042-.504-3.534-2.668-5.48-5.82-6.064-.274-.043-.315-.21.042-.251.966-.084 2.332-.063 3.047.062.041-.355.063-.732.063-1.108 0-5.249-4.287-9.515-9.561-9.515S5.242 9.442 5.242 14.69c0 5.249 4.287 9.515 9.561 9.515h.441c-.15-.849-.213-1.71-.19-2.572.022-.586.148-.67.4-.21 1.324 2.28 3.216 4.33 6.913 5.145 3.026.67 6.052 1.443 9.31 5.562.293.356-.148.732-.484.44-3.32-2.928-6.346-3.89-9.099-3.89-3.089.021-5.19.418-7.312.418zm27.422-15.872l-1.157-1.4c-.125-.147-.02-.377.169-.377h2.437a3.12 3.12 0 00.19-1.088c0-1.735-1.303-3.24-3.09-3.24-1.785 0-3.089 1.505-3.089 3.24 0 1.736 1.304 3.22 3.09 3.22.504.022 1.009-.125 1.45-.355z" fill="#FF8C00"/></svg>