<svg width="48" height="38" fill="none" xmlns="http://www.w3.org/2000/svg"><g clip-path="url(#clip0)"><path d="M6.58 1.697c-3.715 0-6.58 2.4-6.58 6.58V20.2c.31 1.471 1.858 2.555 3.561 2.555 1.936 0 3.33-1.394 3.33-3.097V13.62h5.264v5.962c0 3.329-4.258 5.032-7.355 5.032-1.78 0-3.484-.542-4.723-1.471v13.161H8.44c2.942 0 6.348-2.787 6.348-6.348V1.697H6.581z" fill="#1174CE"/><path d="M0 8.277V20.2c.31 1.471 1.858 2.555 3.561 2.555 1.936 0 3.33-1.394 3.33-3.097V13.62h5.264v5.962c0 3.329-4.258 5.032-7.355 5.032-1.78 0-3.484-.542-4.723-1.471v13.161H8.44c2.942 0 6.348-2.787 6.348-6.348V1.697" fill="#0F549D"/><path d="M12.077 13.62v5.96c0 3.33-4.258 5.033-7.354 5.033-1.781 0-3.484-.542-4.723-1.471v13.161h8.361c2.942 0 6.349-2.787 6.349-6.348" fill="#02375E"/><path d="M35.844 22.6h3.639c.928 0 1.78-.852 1.78-1.78 0-.93-.852-1.781-1.78-1.781h-3.64v3.56z" fill="#146643"/><path d="M39.95 1.697c-3.794 0-6.582 2.4-6.582 6.503v5.42h9.755a2.577 2.577 0 012.555 2.554 2.578 2.578 0 01-2.555 2.555c1.549 0 2.787 1.084 2.787 2.477 0 1.394-1.16 2.478-2.787 2.478h-9.832v12.62h8.361c2.942 0 6.349-2.788 6.349-6.35V1.698h-8.052z" fill="#1BCC38"/><path d="M33.291 8.277v5.342h9.755a2.577 2.577 0 012.555 2.555 2.578 2.578 0 01-2.555 2.555c1.548 0 2.787 1.084 2.787 2.477 0 1.394-1.161 2.478-2.787 2.478H33.29v12.62h8.361c2.942 0 6.349-2.788 6.349-6.35V1.698" fill="#329947"/><path d="M45.6 16.174a2.578 2.578 0 01-2.554 2.555c1.548 0 2.787 1.084 2.787 2.478 0 1.393-1.161 2.477-2.787 2.477H33.29v12.62h8.361c2.942 0 6.349-2.788 6.349-6.349m-6.812-13.471c0-.93-.852-1.78-1.781-1.78h-3.561v3.483h3.638c.93 0 1.704-.774 1.704-1.703z" fill="#146643"/><path d="M23.149 1.697c-3.794 0-6.58 2.4-6.58 6.503v6.658c.928-.774 2.09-1.316 3.328-1.316h8.826V15.4c-2.09-.465-4.103-.697-5.11-.697a3.965 3.965 0 00-3.948 3.949 3.965 3.965 0 003.948 3.948c1.007 0 3.02-.155 5.11-.62v1.704h-8.826c-1.238 0-2.477-.465-3.329-1.316v13.935h8.362c2.942 0 6.348-2.787 6.348-6.348V1.697h-8.129z" fill="#E20E37"/><path d="M16.568 8.277v6.659c.93-.775 2.09-1.317 3.33-1.317h8.825v1.858c-2.09-.464-4.103-.696-5.11-.696a3.965 3.965 0 00-3.948 3.948 3.965 3.965 0 003.948 3.948c1.007 0 3.02-.154 5.11-.619v1.626h-8.826c-1.238 0-2.477-.465-3.329-1.316v13.935h8.362c2.942 0 6.348-2.787 6.348-6.348V1.697" fill="#B41F36"/><path d="M28.723 13.62v1.857c-2.09-.464-4.103-.697-5.11-.697a3.965 3.965 0 00-3.948 3.949 3.965 3.965 0 003.948 3.948c1.007 0 3.02-.155 5.11-.62v1.627h-8.826c-1.238 0-2.477-.465-3.329-1.317v13.936h8.362c2.942 0 6.348-2.787 6.348-6.348" fill="#720A1E"/></g><defs><clipPath id="clip0"><path fill="#fff" d="M0 0h48v38H0z"/></clipPath></defs></svg>