<svg width="40" height="40" fill="none" xmlns="http://www.w3.org/2000/svg"><path d="M37.5 10h-35A2.504 2.504 0 000 12.5V35c0 1.38 1.123 2.5 2.5 2.5h35A2.5 2.5 0 0040 35V12.5c0-1.378-1.12-2.5-2.5-2.5z" fill="#2196F3"/><path d="M40 15H0v7.5h40V15z" fill="#455A64"/><path d="M11.25 30h-5a1.25 1.25 0 010-2.5h5a1.25 1.25 0 010 2.5zM40 22.364V12.5c0-1.377-1.12-2.5-2.5-2.5h-20v2.5c0 7.83 2.98 12.598 10.64 17.008a3.763 3.763 0 003.727-.005c3.79-2.177 6.43-4.45 8.133-7.137z" fill="#FAFAFA"/><path d="M39.242 6.352l-8.75-3.75a1.255 1.255 0 00-.987 0l-8.75 3.75A1.247 1.247 0 0020 7.499v5c0 6.878 2.543 10.898 9.378 14.835a1.254 1.254 0 001.244 0C37.459 23.407 40 19.387 40 12.5v-5c0-.5-.297-.952-.758-1.147z" fill="#009688"/><path d="M28.75 18.75h-.053a1.255 1.255 0 01-.987-.556l-2.5-3.75a1.249 1.249 0 112.08-1.385l1.552 2.328 3.93-4.915a1.256 1.256 0 011.758-.195 1.25 1.25 0 01.195 1.757l-5 6.25a1.26 1.26 0 01-.975.465z" fill="#FAFAFA"/></svg>