<svg width="100" height="24" fill="none" xmlns="http://www.w3.org/2000/svg"><g clip-path="url(#clip0)"><path d="M88.556.305c1.828 0 3.567.417 5.128 1.163.244.11.49.241.735.373l-1.07.944-1.605-1.646-2.764 2.413-1.628-1.733-5.083 4.498 3.254 3.533-1.27 1.097 3.21 3.533-1.27 1.097 4.593 5.025 2.718-2.458 2.364 2.634c-.468.351-.98.703-1.537 1.01a11.796 11.796 0 01-5.753 1.491c-6.443 0-11.681-5.156-11.681-11.497C76.874 5.484 82.113.305 88.556.305zm-2.14 10.774l2.786-2.458 2.498 2.743-2.788 2.458-2.497-2.743zm1.984 4.74l2.764-2.48 2.52 2.743-2.787 2.458-2.497-2.72zm-3.968-9.414l2.786-2.457 2.497 2.742-2.787 2.458-2.496-2.743zm5.105-1.317l2.073-1.843 1.873 2.041-2.073 1.865-1.873-2.063zm3.7 8.449l2.074-1.844 1.873 2.063L95.11 15.6l-1.872-2.063zm1.829 4.148l2.073-1.844 1.872 2.04-2.073 1.865-1.872-2.061zm.847-9.48l1.382-1.23 1.248 1.361-1.382 1.229-1.248-1.36zm-1.784-4.06l1.382-1.25 1.25 1.381-1.384 1.23-1.248-1.361zm3.545 8.12l1.382-1.23 1.271 1.361-1.404 1.229-1.249-1.36zm-6.22-3.05l2.074-1.844L95.4 9.41l-2.073 1.844-1.873-2.04z" fill="#036CB5"/><mask id="a" maskUnits="userSpaceOnUse" x="-1" y="5" width="13" height="11"><path d="M-.324 5.078v10.607H11.86V5.078H-.324z" fill="#fff"/></mask><g mask="url(#a)"><path d="M5.791 8.219h-.105l-1.974 7.466H2.098L-.324 5.078H1.35l1.675 7.914h.104l1.943-7.914h1.332l2.078 7.914h.104l1.526-7.914h1.75L9.437 15.685H7.823L5.791 8.219z" fill="#036CB5"/></g><path d="M13.986 11.17h3.423c-.074-1.571-.837-2.199-1.644-2.199-.912 0-1.615.703-1.78 2.198zm4.619 2.813v1.137a5.27 5.27 0 01-2.646.688c-2.511 0-3.543-1.556-3.543-3.92 0-2.274 1.151-3.92 3.394-3.92 1.868 0 3.02 1.213 3.02 3.65v.554h-4.874c0 1.795.732 2.588 2.273 2.588.807 0 1.554-.285 2.376-.777zm3.702.625c.479.21 1.003.24 1.377.24 1.106 0 1.942-.688 1.942-3.111 0-1.9-.687-2.514-1.689-2.514-.598 0-1.031.166-1.63.494v4.891zm.016-5.998c.448-.238 1.21-.554 2.018-.554 1.854 0 2.856 1.287 2.856 3.68 0 2.798-1.346 4.16-3.513 4.16-.793 0-2.019-.255-2.916-.734V4.72l1.555-.374V8.61zm11.603 4.824H34l3.198-8.363h1.855V15.68H37.44V7.99h-.135l-3.05 7.69h-.957l-3.05-7.51h-.135v7.51h-1.345V5.07h1.81l3.348 8.363zm11.725-1.546c0-2.02-.822-2.871-1.838-2.871-.987 0-1.84.852-1.84 2.871 0 2.05.779 2.872 1.84 2.872 1.06 0 1.838-.822 1.838-2.872zm-5.247 0c0-2.619 1.436-3.92 3.409-3.92 1.974 0 3.409 1.301 3.409 3.92 0 2.558-1.36 3.92-3.41 3.92-2.047 0-3.408-1.362-3.408-3.92zm8-2.812c.673-.404 2.094-1.108 3.813-1.108 1.794 0 2.465.704 2.465 2.244v5.416H53.13v-5.071c0-1.182-.582-1.391-1.346-1.391-.597 0-1.36.27-1.824.538v5.924h-1.555V9.076zm9.568 2.094h3.423c-.073-1.571-.837-2.199-1.644-2.199-.912 0-1.614.703-1.78 2.198zm4.619 2.813v1.137a5.268 5.268 0 01-2.646.688c-2.51 0-3.543-1.556-3.543-3.92 0-2.274 1.15-3.92 3.394-3.92 1.87 0 3.02 1.213 3.02 3.65v.554h-4.874c0 1.795.733 2.588 2.273 2.588.806 0 1.555-.285 2.376-.777zm6.436-6.015h1.6l-2.706 7.48c-.748 2.064-1.66 3.141-3.378 3.141v-1.226c1.017 0 1.644-.808 2.003-1.916l-2.87-7.479h1.645l1.913 5.505h.09l1.703-5.505z" fill="#036CB5"/><path d="M15.825 22.58v-.646c.554.28 1.082.42 1.581.42.417 0 .736-.075.959-.229a.713.713 0 00.334-.619c0-.26-.092-.456-.275-.586-.183-.13-.525-.29-1.025-.48a20.125 20.125 0 01-.335-.128l-.29-.12a1.936 1.936 0 01-.281-.135 3.043 3.043 0 00-.227-.135.783.783 0 01-.215-.161 3.335 3.335 0 00-.152-.182.59.59 0 01-.13-.217 2.776 2.776 0 01-.063-.251 1.52 1.52 0 01-.03-.308c0-.426.157-.768.471-1.029.315-.26.75-.39 1.304-.39.49 0 .978.09 1.463.27v.683a3.18 3.18 0 00-1.411-.344c-.332 0-.58.069-.743.209a.696.696 0 00-.245.555c0 .246.082.432.245.56.164.128.456.27.877.424.723.266 1.22.506 1.492.721.273.215.41.536.41.961 0 .446-.188.81-.562 1.093-.373.283-.887.425-1.54.425-.6 0-1.137-.121-1.613-.361zm7.557.247h-.706l-.052-.436c-.426.351-.851.527-1.277.527-.357 0-.633-.096-.828-.29a.982.982 0 01-.294-.732 1.177 1.177 0 01.368-.863c.131-.135.329-.244.594-.327.265-.083.583-.124.954-.124h.461v-.203c0-.335-.062-.563-.186-.687-.124-.122-.332-.183-.624-.183-.356 0-.794.146-1.314.443v-.6c.535-.246 1.06-.37 1.574-.37.5 0 .847.104 1.04.31.193.204.29.515.29.93v2.605zm-.772-1.72h-.394c-.813 0-1.218.244-1.218.73 0 .17.054.293.163.37.11.078.245.117.409.117.207 0 .408-.05.601-.15.193-.1.34-.215.439-.345v-.721zm1.979 3.222v-4.797c.218-.166.475-.3.772-.4.298-.099.59-.15.877-.15 1.03 0 1.545.629 1.545 1.886 0 .65-.134 1.149-.402 1.493-.267.346-.65.518-1.15.518-.348 0-.637-.088-.87-.262v1.712h-.772zm.765-4.543v2.276a.943.943 0 00.375.213c.151.047.284.071.397.071a.753.753 0 00.643-.318c.156-.213.234-.6.234-1.16 0-.456-.08-.79-.241-.999a.753.753 0 00-.628-.315c-.292 0-.552.077-.78.232zm4.2-.765v3.806h-.772v-3.619l.772-.187zm-.891-1.104a.49.49 0 01.152-.357.483.483 0 01.706 0 .494.494 0 010 .714.486.486 0 01-.706 0 .495.495 0 01-.152-.357zm3.784 4.474c.357 0 .75-.13 1.181-.39v.57a2.562 2.562 0 01-1.315.347c-.604 0-1.048-.173-1.333-.519-.284-.346-.427-.828-.427-1.449 0-.59.146-1.067.438-1.426.293-.36.708-.542 1.248-.542.476 0 .844.156 1.107.467.263.31.393.765.393 1.366v.278h-2.42c0 .446.091.774.274.983.183.211.468.315.854.315zm-.23-2.905a.745.745 0 00-.587.277c-.158.186-.258.462-.297.826h1.7c-.02-.37-.105-.646-.26-.828a.702.702 0 00-.556-.275zm2.506 3.34V19.54c.61-.371 1.24-.557 1.895-.557.44 0 .755.091.943.271.188.18.282.466.282.856v2.718h-.772v-2.545c0-.275-.057-.46-.171-.555-.114-.096-.28-.143-.498-.143-.297 0-.599.09-.906.27v2.973h-.773zm5.062-3.663h1.174l-.186.511h-.988v1.982c0 .5.213.75.64.75.162 0 .328-.034.497-.104v.48c-.233.09-.51.136-.832.136-.371 0-.644-.107-.817-.32-.173-.212-.26-.492-.26-.838v-3.093l.772-.563v1.06zm2.686-.142v3.806h-.773v-3.619l.773-.187zm-.891-1.104c0-.136.05-.254.151-.357a.482.482 0 01.706 0 .493.493 0 010 .714.484.484 0 01-.706 0 .496.496 0 01-.151-.357zm6.15 1.366v.6c-.372-.25-.749-.374-1.13-.374a.905.905 0 00-.475.112c-.124.075-.186.196-.186.36 0 .156.068.28.204.372.137.093.35.187.643.281.164.055.286.098.367.128.082.03.19.08.324.15.133.07.234.14.3.21.067.071.128.163.183.279a.882.882 0 01.081.382.98.98 0 01-.412.826c-.275.206-.643.309-1.103.309-.515 0-.944-.11-1.285-.331V22c.436.26.834.39 1.196.39.544 0 .817-.18.817-.54a.406.406 0 00-.048-.195.533.533 0 00-.112-.147 1.033 1.033 0 00-.204-.128 2.306 2.306 0 00-.238-.104 31.899 31.899 0 01-.304-.109 6.748 6.748 0 01-.483-.195 2.121 2.121 0 01-.357-.214.793.793 0 01-.26-.312 1.03 1.03 0 01-.081-.428c0-.21.05-.39.148-.54a.83.83 0 01.386-.323c.159-.066.304-.11.435-.135a2.02 2.02 0 01.39-.039c.421 0 .822.1 1.203.301zm4.103 3.544h-.706l-.052-.436c-.426.351-.851.527-1.277.527-.357 0-.633-.096-.828-.29a.982.982 0 01-.294-.732c0-.155.029-.304.086-.447.057-.142.15-.28.282-.416.132-.135.33-.244.594-.327.265-.083.583-.124.954-.124h.461v-.203c0-.335-.062-.563-.185-.687-.125-.122-.333-.183-.624-.183-.357 0-.795.146-1.315.443v-.6c.535-.246 1.06-.37 1.574-.37.5 0 .847.104 1.04.31.193.204.29.515.29.93v2.605zm-.772-1.72h-.394c-.812 0-1.218.244-1.218.73 0 .17.054.293.163.37.11.078.245.117.409.117.207 0 .407-.05.601-.15.193-.1.34-.215.439-.345v-.721zm2.715-1.944h1.173l-.186.511h-.987v1.982c0 .5.212.75.638.75.163 0 .329-.034.498-.104v.48c-.233.09-.51.136-.833.136-.37 0-.643-.107-.816-.32-.174-.212-.26-.492-.26-.838v-3.093l.773-.563v1.06z" fill="#B6B6B6"/></g><defs><clipPath id="clip0"><path fill="#fff" d="M0 0h100v24H0z"/></clipPath></defs></svg>