<svg width="140" height="20" fill="none" xmlns="http://www.w3.org/2000/svg"><g clip-path="url(#clip0)"><path d="M120.515 19.304c-.482.247-1.03-.186-.932-.74l1.037-5.913-4.404-4.195c-.411-.392-.197-1.11.354-1.187l6.123-.87 2.73-5.409a.641.641 0 011.158 0l2.73 5.409 6.123.87c.551.077.765.795.354 1.187l-4.404 4.195 1.037 5.913c.098.554-.45.987-.932.74L126 16.484l-5.486 2.82h.001z" fill="#FFB21E"/></g><g clip-path="url(#clip1)"><path d="M92.515 19.304c-.483.247-1.03-.186-.933-.74l1.038-5.913-4.404-4.195c-.411-.392-.197-1.11.354-1.187l6.123-.87L97.422.99a.642.642 0 011.158 0l2.73 5.409 6.123.87c.551.077.765.795.354 1.187l-4.404 4.195 1.037 5.913c.098.554-.45.987-.932.74L98 16.484l-5.486 2.82h.001z" fill="#FFB21E"/></g><g clip-path="url(#clip2)"><path d="M8.515 19.304c-.482.247-1.03-.186-.932-.74L8.62 12.65 4.216 8.456c-.411-.392-.197-1.11.354-1.187l6.123-.87L13.423.99a.642.642 0 011.158 0l2.73 5.409 6.123.87c.551.077.765.795.354 1.187l-4.404 4.195 1.037 5.913c.098.554-.45.987-.932.74L14 16.484l-5.486 2.82h.001z" fill="#FFB21E"/></g><g clip-path="url(#clip3)"><path d="M36.515 19.304c-.483.247-1.03-.186-.932-.74l1.037-5.913-4.404-4.195c-.411-.392-.197-1.11.354-1.187l6.123-.87L41.422.99a.642.642 0 011.158 0l2.73 5.409 6.123.87c.551.077.765.795.354 1.187l-4.404 4.195 1.037 5.913c.098.554-.45.987-.932.74L42 16.484l-5.486 2.82h.001z" fill="#FFB21E"/></g><g clip-path="url(#clip4)"><path d="M64.515 19.304c-.483.247-1.03-.186-.932-.74l1.037-5.913-4.404-4.195c-.411-.392-.197-1.11.354-1.187l6.122-.87L69.422.99a.642.642 0 011.16 0l2.73 5.409 6.122.87c.551.077.765.795.353 1.187l-4.403 4.195 1.037 5.913c.098.554-.45.987-.932.74L70 16.484l-5.486 2.82h.001z" fill="#FFB21E"/></g><defs><clipPath id="clip0"><path fill="#fff" transform="translate(116)" d="M0 0h20v20H0z"/></clipPath><clipPath id="clip1"><path fill="#fff" transform="translate(88)" d="M0 0h20v20H0z"/></clipPath><clipPath id="clip2"><path fill="#fff" transform="translate(4)" d="M0 0h20v20H0z"/></clipPath><clipPath id="clip3"><path fill="#fff" transform="translate(32)" d="M0 0h20v20H0z"/></clipPath><clipPath id="clip4"><path fill="#fff" transform="translate(60)" d="M0 0h20v20H0z"/></clipPath></defs></svg>