<svg width="96" height="96" fill="none" xmlns="http://www.w3.org/2000/svg"><path d="M69.356 35.41a5.53 5.53 0 11-11.06 0 5.53 5.53 0 1111.06 0zm-31.796 0a5.53 5.53 0 11-11.062.001 5.53 5.53 0 0111.061 0zm30.029 21.22a2.279 2.279 0 012.278 2.278c0 9.836-7.911 17.84-17.637 17.84h-7.68c-9.726 0-17.637-7.96-17.637-17.741a2.279 2.279 0 114.555 0c0 7.267 5.869 13.181 13.082 13.181h7.68c7.213 0 13.08-5.956 13.08-13.28a2.28 2.28 0 012.279-2.279z" fill="#CDDC33"/><path d="M48 96C21.54 96 .012 74.467.012 48S21.539 0 48 0c26.46 0 47.987 21.533 47.987 48 0 26.466-21.527 48-47.987 48zm0-91.441c-23.948 0-43.43 19.487-43.43 43.44 0 23.955 19.482 43.442 43.43 43.442S91.43 71.954 91.43 48C91.43 24.046 71.947 4.56 48 4.56z" fill="#CDDC33"/></svg>