<svg width="72" height="72" fill="none" xmlns="http://www.w3.org/2000/svg"><path d="M19.393 10.688h44.283V5.061H8.326v5.625h11.067z" fill="#FFDAAE"/><path d="M15.244 24.328l4.148-13.64H8.325l-6.919 13.64v3.46a6.914 6.914 0 006.919 6.918 6.914 6.914 0 006.919-6.919v-3.459z" fill="#FF5A5A"/><path d="M19.393 10.688l-4.149 13.64v3.46a6.914 6.914 0 006.919 6.918 6.914 6.914 0 006.919-6.919v-3.459l1.378-13.64H19.393z" fill="#FF9D21"/><path d="M30.458 10.688l-1.378 13.64v3.46A6.914 6.914 0 0036 34.706a6.914 6.914 0 006.919-6.919v-3.459l-1.379-13.64H30.46z" fill="#FF5A5A"/><path d="M41.541 10.688l1.378 13.64v3.46a6.914 6.914 0 006.919 6.918 6.914 6.914 0 006.919-6.919v-3.459l-4.149-13.64H41.541z" fill="#FF9D21"/><path d="M52.607 10.688l4.149 13.64v3.46a6.914 6.914 0 006.919 6.918 6.914 6.914 0 006.918-6.919v-3.459l-6.918-13.64H52.607z" fill="#FF5A5A"/><path d="M49.839 34.706a6.914 6.914 0 01-6.92-6.919 6.914 6.914 0 01-6.918 6.92 6.914 6.914 0 01-6.919-6.92 6.914 6.914 0 01-6.918 6.92 6.914 6.914 0 01-6.92-6.92 6.914 6.914 0 01-6.918 6.92v32.23h38.475v-5.624h-32.85V41.624h44.1v25.313h5.625V34.706a6.914 6.914 0 01-6.919-6.919 6.923 6.923 0 01-6.918 6.92z" fill="#FFDAAE"/><path d="M46.801 41.625H13.952v19.688h32.85V41.624z" fill="#96C8EB"/><path d="M46.799 41.625v25.312h11.25V41.626h-11.25z" fill="#BF9A94"/><path d="M71.845 23.681L65.081 10.35V5.063a1.41 1.41 0 00-1.406-1.407H8.325a1.41 1.41 0 00-1.406 1.406v5.288L.155 23.681a1.448 1.448 0 00-.155.633v3.46c0 4.106 2.995 7.537 6.919 8.198v29.56H5.484a1.41 1.41 0 00-1.406 1.406 1.41 1.41 0 001.406 1.406h61.032a1.41 1.41 0 001.406-1.406 1.41 1.41 0 00-1.406-1.407H65.08V35.986c3.925-.676 6.92-4.092 6.92-8.198v-3.46c0-.225-.056-.45-.155-.647zM9.731 6.47H62.27v2.81H9.73V6.47zM55.35 27.788a5.521 5.521 0 01-5.513 5.512 5.521 5.521 0 01-5.512-5.512v-3.46c0-.042 0-.098-.014-.14l-1.224-12.094h8.466l3.783 12.431v3.263h.014zm-13.837 0A5.521 5.521 0 0136 33.3a5.521 5.521 0 01-5.512-5.512v-3.39l1.251-12.304h8.522l1.252 12.304v3.39zm-13.838-3.46v3.46a5.521 5.521 0 01-5.512 5.512 5.521 5.521 0 01-5.513-5.512v-3.249l3.783-12.445h8.465l-1.223 12.08v.154zm-24.863 3.46v-3.122l6.37-12.572h8.312l-3.6 11.812a1.3 1.3 0 00-.056.408v3.46a5.521 5.521 0 01-5.513 5.512c-3.037.014-5.512-2.461-5.512-5.498zm6.92 8.198a8.324 8.324 0 005.512-3.586 8.297 8.297 0 006.919 3.698A8.332 8.332 0 0029.08 32.4 8.297 8.297 0 0036 36.098a8.332 8.332 0 006.919-3.698 8.297 8.297 0 006.919 3.698 8.332 8.332 0 006.918-3.698 8.374 8.374 0 005.513 3.586V65.53h-2.813V41.625a1.41 1.41 0 00-1.406-1.406h-44.1a1.41 1.41 0 00-1.406 1.406v19.688a1.41 1.41 0 001.406 1.406h31.444v2.812H9.73V35.986zm5.624 20.756l13.711-13.71h4.894l-2.672 2.671a1.4 1.4 0 00.998 2.39c.366 0 .718-.14.999-.407l4.669-4.669h7.439v16.875H15.356v-3.15zm0-3.98v-9.73h9.731l-9.73 9.73zm32.85 12.77v-9.844h1.406a1.41 1.41 0 001.407-1.407 1.41 1.41 0 00-1.407-1.406h-1.406v-9.844h8.438v22.5h-8.438zm20.981-37.744a5.521 5.521 0 01-5.512 5.512 5.521 5.521 0 01-5.512-5.512v-3.46c0-.14-.015-.281-.057-.408l-3.6-11.812h8.311l6.37 12.558v3.122z" fill="#000001"/></svg>