<svg width="402" height="402" fill="none" xmlns="http://www.w3.org/2000/svg"><path d="M53.87 348.547c-5.414.161-9.48-5.914-7.255-10.859 2.587-6.402 11.915-6.403 14.502 0 2.23 4.939-1.84 11.016-7.247 10.859zm226.654 13.768H128.225a7.852 7.852 0 01-7.852-7.852v-50.038a7.852 7.852 0 017.852-7.851h152.299a7.852 7.852 0 017.852 7.851v50.038a7.853 7.853 0 01-7.852 7.852zm-144.448-15.703h136.597v-34.335H136.076v34.335zm72.494-63.168c-13.583 0-24.634-11.064-24.634-24.664 0-13.599 11.051-24.664 24.634-24.664s24.634 11.065 24.634 24.664c0 13.6-11.051 24.664-24.634 24.664zm0-33.625c-4.925 0-8.931 4.02-8.931 8.961 0 4.941 4.006 8.961 8.931 8.961 4.925 0 8.931-4.02 8.931-8.961 0-4.941-4.007-8.961-8.931-8.961zm55.17 33.625c-13.583 0-24.635-11.064-24.635-24.664 0-13.599 11.052-24.664 24.635-24.664 13.584 0 24.635 11.065 24.635 24.664 0 13.6-11.051 24.664-24.635 24.664zm0-33.625c-4.925 0-8.931 4.02-8.931 8.961 0 4.941 4.006 8.961 8.931 8.961 4.924 0 8.932-4.02 8.932-8.961 0-4.941-4.007-8.961-8.932-8.961zm-27.586-111.531c-28.11 0-50.978-22.903-50.978-51.054 0-28.152 22.868-51.055 50.978-51.055 28.109 0 50.978 22.903 50.978 51.055 0 28.151-22.869 51.054-50.978 51.054zm0-86.407c-19.45 0-35.275 15.86-35.275 35.352 0 19.492 15.824 35.351 35.275 35.351 19.45 0 35.274-15.859 35.274-35.35 0-19.494-15.823-35.352-35.274-35.352z" fill="#E7E6E6"/><path d="M398.396 177.299a7.85 7.85 0 00-7.504-.541L329.94 204.53v-20.901c0-15.567-12.648-28.232-28.196-28.232h-16.858c21.18-15.233 35.001-40.112 35.001-68.163 0-46.244-37.563-83.867-83.733-83.867-33.53 0-62.521 19.843-75.881 48.42-13.36-28.577-42.35-48.42-75.88-48.42C38.222 3.366.66 40.989.66 87.234c0 28.051 13.821 52.93 35 68.163h-7.465C12.648 155.397 0 168.062 0 183.629v186.772c0 15.568 12.648 28.233 28.196 28.233h273.548c15.548 0 28.196-12.665 28.196-28.233v-20.9l60.952 27.772a7.849 7.849 0 007.504-.542 7.851 7.851 0 003.604-6.603V183.903a7.853 7.853 0 00-3.604-6.604zM236.154 19.069c37.511 0 68.03 30.578 68.03 68.164s-30.518 68.163-68.03 68.163c-37.511 0-68.029-30.577-68.029-68.163.001-37.586 30.518-68.164 68.029-68.164zm-48.731 136.328h-54.298a84.384 84.384 0 0027.149-32.716 84.384 84.384 0 0027.149 32.716zM16.364 87.234c0-37.586 30.518-68.164 68.03-68.164 37.511 0 68.029 30.578 68.029 68.164 0 37.585-30.517 68.163-68.029 68.163s-68.03-30.578-68.03-68.163zM314.238 370.4c0 6.909-5.605 12.53-12.493 12.53H28.197c-6.889 0-12.493-5.621-12.493-12.53V183.629c0-6.908 5.604-12.529 12.492-12.529h17.819v136.808a7.852 7.852 0 0015.703 0V171.1h240.027c6.888 0 12.493 5.621 12.493 12.529v186.772zm72.059-12.478l-56.356-25.678V221.786l56.356-25.678v161.815z" fill="#E7E6E6"/><path d="M84.393 138.288c-28.108 0-50.977-22.903-50.977-51.054 0-28.152 22.869-51.055 50.977-51.055 28.11 0 50.979 22.903 50.979 51.055 0 28.151-22.869 51.054-50.979 51.054zm0-86.407c-19.45 0-35.274 15.86-35.274 35.352 0 19.492 15.823 35.351 35.274 35.351s35.276-15.859 35.276-35.35c0-19.494-15.824-35.352-35.276-35.352z" fill="#E7E6E6"/></svg>