<svg width="24" height="24" fill="none" xmlns="http://www.w3.org/2000/svg"><path fill-rule="evenodd" clip-rule="evenodd" d="M.75 3A2.25 2.25 0 013 .75h6.879a2.25 2.25 0 011.59.66l10.5 10.5a2.25 2.25 0 010 3.18l-6.878 6.879a2.252 2.252 0 01-3.182 0l-10.5-10.5a2.25 2.25 0 01-.659-1.59V3zM3 2.25a.75.75 0 00-.75.75v6.879a.75.75 0 00.219.53l10.5 10.5a.75.75 0 001.062 0l6.877-6.878a.751.751 0 000-1.062l-10.5-10.5a.75.75 0 00-.529-.219H3z" fill="#000"/><path fill-rule="evenodd" clip-rule="evenodd" d="M3.75 6.75a3 3 0 116 0 3 3 0 01-6 0zm3-1.5a1.5 1.5 0 100 3 1.5 1.5 0 000-3z" fill="#000"/><path d="M10.679 13.242c-.494 0-.897-.145-1.21-.434-.313-.29-.469-.685-.469-1.187 0-.329.072-.615.216-.86a1.42 1.42 0 01.59-.56 1.86 1.86 0 01.873-.201c.5 0 .906.148 1.219.443.313.29.469.682.469 1.178 0 .502-.156.897-.469 1.187-.313.29-.719.434-1.22.434zm3.883-3.167h1.35l-4.483 5.85h-1.35l4.482-5.85zm-3.883 2.373a.478.478 0 00.403-.2c.1-.134.15-.343.15-.627s-.05-.493-.15-.627a.478.478 0 00-.403-.2.488.488 0 00-.404.209c-.1.133-.15.34-.15.618 0 .279.05.488.15.627.107.134.241.2.404.2zM15.312 16c-.5 0-.907-.145-1.22-.434-.306-.29-.459-.686-.459-1.187 0-.496.156-.889.469-1.178.313-.296.716-.443 1.21-.443.5 0 .906.147 1.22.443.312.29.468.682.468 1.178 0 .501-.156.897-.469 1.187-.313.29-.719.434-1.22.434zm0-.794a.478.478 0 00.403-.2c.1-.134.15-.343.15-.627s-.05-.493-.15-.627a.478.478 0 00-.403-.2.478.478 0 00-.403.2c-.1.134-.15.343-.15.627s.05.493.15.627c.1.133.234.2.403.2z" fill="#000"/></svg>