<svg width="145" height="145" fill="none" xmlns="http://www.w3.org/2000/svg"><g clip-path="url(#clip0)" fill="#ED2226"><path d="M45.869 97.192V57.825h-9.1V47.737h21.658v49.455H45.869zm59.753-36.686c0 4.304-2.328 8.113-6.208 10.23 5.432 2.257 8.818 6.984 8.818 12.487 0 8.888-7.901 14.532-20.247 14.532s-20.247-5.573-20.247-14.32c0-5.645 3.668-10.442 9.382-12.7-4.162-2.328-6.843-6.278-6.843-10.581 0-7.902 6.914-12.91 17.637-12.91 10.864 0 17.708 5.15 17.708 13.262zM79.59 82.165c0 4.162 2.963 6.49 8.395 6.49 5.432 0 8.466-2.257 8.466-6.49 0-4.091-3.034-6.42-8.466-6.42-5.433 0-8.395 2.328-8.395 6.42zm1.27-20.953c0 3.528 2.54 5.502 7.125 5.502s7.125-1.974 7.125-5.502c0-3.668-2.54-5.714-7.125-5.714-4.586 0-7.125 2.046-7.125 5.714z"/><path d="M129.13 53.32a59.599 59.599 0 013.147 19.18c0 32.959-26.815 59.774-59.774 59.774-32.96 0-59.775-26.815-59.775-59.774 0-32.96 26.815-59.773 59.774-59.773a59.574 59.574 0 0119.18 3.146V2.571A72.415 72.415 0 0072.502 0C32.527 0 .003 32.523.003 72.5s32.524 72.5 72.5 72.5c39.977 0 72.5-32.523 72.5-72.5 0-6.528-.865-12.956-2.571-19.18H129.13z"/><path d="M125.51 19.45V5.547h-9.996v13.901h-13.819v9.996h13.819v13.901h9.996v-13.9h13.901v-9.996H125.51z"/></g><defs><clipPath id="clip0"><path fill="#fff" d="M0 0h145v145H0z"/></clipPath></defs></svg>