<svg width="391" height="402" viewBox="0 0 391 402" fill="none" xmlns="http://www.w3.org/2000/svg">
<path d="M42.8695 348.547C37.4558 348.708 33.3895 342.633 35.6154 337.688C38.2025 331.286 47.5301 331.285 50.1165 337.688C52.3471 342.627 48.2776 348.704 42.8695 348.547Z" fill="#E7E6E6"/>
<path d="M269.524 362.315H117.225C112.888 362.315 109.373 358.799 109.373 354.463V304.425C109.373 300.09 112.888 296.574 117.225 296.574H269.524C273.86 296.574 277.376 300.09 277.376 304.425V354.463C277.375 358.799 273.86 362.315 269.524 362.315ZM125.076 346.612H261.673V312.277H125.076V346.612Z" fill="#E7E6E6"/>
<path d="M197.57 283.444C183.987 283.444 172.936 272.38 172.936 258.78C172.936 245.181 183.987 234.116 197.57 234.116C211.153 234.116 222.204 245.181 222.204 258.78C222.204 272.38 211.153 283.444 197.57 283.444ZM197.57 249.819C192.645 249.819 188.639 253.839 188.639 258.78C188.639 263.721 192.645 267.741 197.57 267.741C202.495 267.741 206.501 263.721 206.501 258.78C206.501 253.839 202.494 249.819 197.57 249.819Z" fill="#E7E6E6"/>
<path d="M252.74 283.444C239.157 283.444 228.105 272.38 228.105 258.78C228.105 245.181 239.157 234.116 252.74 234.116C266.324 234.116 277.375 245.181 277.375 258.78C277.375 272.38 266.324 283.444 252.74 283.444ZM252.74 249.819C247.815 249.819 243.809 253.839 243.809 258.78C243.809 263.721 247.815 267.741 252.74 267.741C257.664 267.741 261.672 263.721 261.672 258.78C261.672 253.839 257.665 249.819 252.74 249.819Z" fill="#E7E6E6"/>
<path d="M225.154 138.288C197.044 138.288 174.176 115.385 174.176 87.234C174.176 59.0822 197.044 36.1792 225.154 36.1792C253.263 36.1792 276.132 59.0822 276.132 87.234C276.132 115.385 253.263 138.288 225.154 138.288ZM225.154 51.8815C205.704 51.8815 189.879 67.7401 189.879 87.2332C189.879 106.725 205.703 122.584 225.154 122.584C244.604 122.584 260.428 106.725 260.428 87.2332C260.428 67.7401 244.605 51.8815 225.154 51.8815Z" fill="#E7E6E6"/>
<path d="M387.396 177.299C385.151 175.854 382.323 175.65 379.892 176.758L318.94 204.53V183.629C318.94 168.062 306.292 155.397 290.744 155.397H273.886C295.066 140.164 308.887 115.285 308.887 87.2339C308.887 40.9898 271.324 3.3667 225.154 3.3667C191.624 3.3667 162.633 23.21 149.273 51.7873C135.913 23.21 106.923 3.3667 73.3925 3.3667C27.2238 3.36591 -10.3389 40.989 -10.3389 87.2339C-10.3389 115.285 3.48221 140.164 24.6618 155.397H17.1957C1.64808 155.397 -11 168.062 -11 183.629V370.401C-11 385.969 1.64808 398.634 17.1957 398.634H290.744C306.292 398.634 318.94 385.969 318.94 370.401V349.501L379.892 377.273C380.93 377.746 382.041 377.98 383.148 377.98C384.632 377.98 386.11 377.56 387.396 376.731C389.642 375.287 391 372.798 391 370.128V183.903C391 181.232 389.642 178.744 387.396 177.299ZM225.154 19.069C262.665 19.069 293.184 49.6469 293.184 87.2332C293.184 124.819 262.666 155.396 225.154 155.396C187.643 155.396 157.125 124.819 157.125 87.2332C157.126 49.6469 187.643 19.069 225.154 19.069ZM176.423 155.397H122.125C133.746 147.039 143.151 135.777 149.274 122.681C155.397 135.777 164.802 147.039 176.423 155.397ZM5.36423 87.2339C5.36423 49.6477 35.8817 19.0698 73.3941 19.0698C110.905 19.0698 141.423 49.6477 141.423 87.2339C141.423 124.819 110.906 155.397 73.3941 155.397C35.8817 155.397 5.36423 124.819 5.36423 87.2339ZM303.238 370.401C303.238 377.31 297.633 382.931 290.745 382.931H17.1965C10.3084 382.931 4.70391 377.31 4.70391 370.401V183.629C4.70391 176.721 10.3084 171.1 17.1965 171.1H35.0149V307.908C35.0149 312.243 38.5308 315.759 42.8664 315.759C47.2021 315.759 50.718 312.243 50.718 307.908V171.1H290.745C297.633 171.1 303.238 176.721 303.238 183.629V370.401ZM375.297 357.923L318.941 332.245V221.786L375.297 196.108V357.923Z" fill="#E7E6E6"/>
<path d="M73.3931 138.288C45.2845 138.288 22.416 115.385 22.416 87.234C22.416 59.0822 45.2845 36.1792 73.3931 36.1792C101.503 36.1792 124.372 59.0822 124.372 87.234C124.372 115.385 101.503 138.288 73.3931 138.288ZM73.3931 51.8815C53.9432 51.8815 38.1191 67.7401 38.1191 87.2332C38.1191 106.725 53.9424 122.584 73.3931 122.584C92.8438 122.584 108.669 106.725 108.669 87.2332C108.669 67.7401 92.8445 51.8815 73.3931 51.8815Z" fill="#E7E6E6"/>
</svg>
