<svg width="155" height="36" fill="none" xmlns="http://www.w3.org/2000/svg"><g clip-path="url(#clip0)" fill="#00427A"><path d="M29.88.446c1.524 0 2.882.617 3.87 1.605a5.414 5.414 0 011.606 3.826v24.316c0 1.522-.618 2.88-1.606 3.867a5.42 5.42 0 01-3.828 1.605H5.592a5.444 5.444 0 01-3.87-1.605 5.414 5.414 0 01-1.605-3.826V5.877a5.44 5.44 0 011.606-3.868A5.42 5.42 0 015.55.405h24.33v.04zm3.047 15.429C28.77 21.717 20.495 27.889 11.48 28.67c-3.993.329-7.286-.576-8.974-2.88v4.402c0 .823.33 1.604.906 2.14.576.575 1.317.904 2.14.904h24.33c.823 0 1.605-.329 2.14-.905.577-.576.906-1.316.906-2.14V15.876zm-30.422 2.88c1.688-3.086 5.393-6.5 10.291-9.093h.042c.288-.123.535-.288.823-.411a35.457 35.457 0 015.146-2.099c1.194-.37 2.593.288 3.129 1.44.494 1.152-.042 2.387-1.235 2.716-1.194.37-2.43.823-3.747 1.44a28.52 28.52 0 00-3.128 1.687c-2.43 1.48-3.911 2.962-4.611 4.32-1.482 2.798.7 4.485 3.705 4.485 2.264 0 4.94-.659 7.575-2.058 0 0 .04 0 .04-.04h.042c4.899-2.593 6.628-4.362 8.357-6.131 2.14-2.387 4.075-5.843 4.075-9.134 0-.823-.329-1.605-.905-2.14-.577-.576-1.318-.905-2.141-.905H5.633c-.823 0-1.605.33-2.14.905-.576.576-.906 1.317-.906 2.14v12.878h-.082z"/><path fill-rule="evenodd" clip-rule="evenodd" d="M132.506 16.739h8.645v3.497h-8.645V16.74zm-69.078 9.874l-.288 1.276-.741.37c-1.482.658-3.334.988-5.393 1.029-1.976 0-3.787-.37-5.516-1.029-1.276-.494-2.429-1.275-3.458-2.263-.947-.946-1.606-1.892-2.058-3.003-.536-1.358-.783-2.88-.783-4.65 0-3.661 1.153-6.5 3.54-8.557 2.306-1.975 5.229-2.963 8.852-2.963 1.893 0 3.581.288 5.146.864l1.193.412-.411 1.563-.412 1.975h-.288c-.412-.494-.782-.905-1.07-1.234-1.112-1.07-2.512-1.605-4.24-1.605-2.265 0-4.117.946-5.476 2.921-1.111 1.605-1.688 3.662-1.688 6.172 0 1.728.288 3.333.865 4.855.535 1.399 1.358 2.469 2.552 3.291 1.194.782 2.47 1.152 3.952 1.152 1.77 0 3.334-.493 4.776-1.604l.947-.74.41.205-.41 1.563zm22.56-19.42c-.165 1.852-.289 5.185-.289 9.628 0 3.827-.04 8.64.288 12.055-.946-.082-1.481-.04-2.428-.04-.906 0-1.73-.042-2.676.04.288-3.58.247-7.077.247-10.738 0-1.4-.041-3.086-.082-4.197-4.2 4.814-8.275 9.916-12.186 14.976h-2.675l.288-10.738c0-4.073-.041-7.817-.33-10.944l2.594.082 2.511-.082c-.288 3.25-.288 6.87-.288 10.903v4.196c4.404-4.731 8.686-9.792 12.39-15.017l2.347-.082h.288v-.041zm2.058 21.683l.37-2.016.947-5.76.535-3.826.948-7.242.329-2.88 1.317.083 1.194-.083 1.44 3.21 2.183 4.649 2.47 4.937 1.152 2.18 1.153-2.098 2.552-4.978a160.526 160.526 0 002.676-5.637l.947-2.221 1.276.082 1.235-.082.247 2.18.947 7.982 1.276 8.764.494 2.797-2.511-.04-2.799.04-.124-1.933-.412-5.431-.494-4.32-.247-2.551-1.276 2.674-1.935 3.785-2.593 5.514-.988 2.345-.659-.041-.617.04-.618-1.48-1.358-2.84-3.582-7.446-1.235-2.469-.288 2.55-.494 4.362-.412 5.39-.041 1.893-1.523-.042-1.482-.04zm44.913-2.263l.411-1.48-.411-.206-.947.74c-1.441 1.111-3.005 1.605-4.776 1.605-1.481-.041-2.758-.37-3.951-1.152-1.194-.823-2.018-1.893-2.553-3.292-.617-1.522-.864-3.127-.864-4.855 0-2.55.576-4.567 1.688-6.171 1.358-1.975 3.211-2.922 5.475-2.922 1.729 0 3.128.535 4.24 1.605.288.33.659.7 1.07 1.234h.289l.411-1.975.412-1.563-1.194-.411c-1.565-.576-3.252-.864-5.146-.864-3.623 0-6.546.987-8.851 2.962-2.346 2.057-3.54 4.896-3.54 8.558 0 1.769.247 3.291.782 4.649.453 1.11 1.111 2.057 2.058 3.003 1.03 1.03 2.141 1.77 3.458 2.263a15.123 15.123 0 005.517 1.029c2.099-.041 3.91-.37 5.393-1.029l.741-.37.288-1.358zm21.9 2.469l-.082-2.263.082-1.975-1.893.165-2.758.082h-4.323l3.582-3.21c1.893-1.686 3.128-2.88 3.664-3.538 1.111-1.522 1.687-3.126 1.687-4.731-.041-2.016-.699-3.538-2.058-4.526-1.235-.946-2.799-1.399-4.899-1.399-.864 0-1.605.083-2.305.206-1.729.411-3.046 1.317-3.911 2.674l-.618 1.111 2.553 2.263.288-.082c.247-3.086 1.358-4.608 3.293-4.608.947 0 1.688.493 2.223 1.357.453.782.7 1.605.7 2.592 0 1.152-.205 2.305-.617 3.498-.536 1.604-1.318 3.003-2.223 4.279-.782.987-1.812 2.18-3.17 3.62l-2.8 2.963v1.563l2.594-.164c.988-.083 2.47-.083 4.405-.083l4.652.165 1.934.041z"/></g><defs><clipPath id="clip0"><path fill="#fff" d="M0 0h155v35.838H0z"/></clipPath></defs></svg>