<svg width="155" height="46" fill="none" xmlns="http://www.w3.org/2000/svg"><g clip-path="url(#clip0)"><path d="M64.159 25.907c0 2.602-.61 4.54-1.772 5.757-1.162 1.218-3.1 1.882-5.59 1.882-2.547 0-4.43-.664-5.592-1.882-1.163-1.218-1.771-3.21-1.771-5.757 0-4.816 2.49-7.252 7.417-7.252 4.872 0 7.308 2.436 7.308 7.252zm-4.042 0c0-1.384-.22-2.325-.608-2.823-.499-.498-1.384-.775-2.713-.775-1.273 0-2.214.277-2.657.775-.498.498-.72 1.494-.72 2.823 0 1.495.222 2.491.61 3.045.497.664 1.383.996 2.822.996 1.44 0 2.38-.332 2.824-.94.277-.555.443-1.606.443-3.1zm16.165-4.982s0 .166-.056.498c-.055.554-.332.83-.885.83h-2.823c-1.108 0-1.716.443-1.716 1.33v8.912c0 .553-.277.83-.83.83h-2.27c-.554 0-.83-.277-.83-.83v-8.47c0-3.598 1.937-5.425 5.756-5.425 1.107 0 1.938.055 2.436.11.775.111 1.218.665 1.218 1.661v.554zM86.8 31.72c0 .996-.388 1.605-1.218 1.716-.498.055-1.218.11-2.104.11-3.487 0-5.259-1.605-5.259-4.926V16.884c0-1.218.61-1.882 1.827-1.882h1.273c.554 0 .83.276.83.83v3.045h3.211c.61 0 .886.277.886.886v1.715c0 .61-.277.886-.886.886h-3.21v6.256c0 .664.11.996.332 1.162.166.11.609.221 1.273.221.222 0 .498-.055.83-.055.333-.055.61-.055.83-.055.886 0 1.274.277 1.274.83 0 .11 0 .277.055.498.056.222.056.332.056.499zm16.718-5.813c0 2.602-.609 4.54-1.772 5.757-1.162 1.218-3.1 1.882-5.591 1.882-2.546 0-4.428-.664-5.591-1.882-1.162-1.218-1.771-3.21-1.771-5.757 0-4.816 2.49-7.252 7.417-7.252 4.816 0 7.308 2.436 7.308 7.252zm-4.041 0c0-1.384-.222-2.325-.61-2.823-.498-.498-1.383-.775-2.712-.775-1.273 0-2.214.277-2.657.775-.498.498-.72 1.494-.72 2.823 0 1.495.222 2.491.61 3.045.497.664 1.383.996 2.822.996 1.44 0 2.38-.332 2.824-.94.221-.555.442-1.606.442-3.1zm19.983 6.588c0 .553-.276.83-.83.83h-2.27c-.553 0-.83-.277-.83-.83v-8.138c0-.941-.221-1.494-.609-1.771-.332-.222-.941-.332-1.882-.332-1.384 0-2.38.055-2.934.221V32.55c0 .553-.277.83-.83.83h-2.27c-.554 0-.83-.277-.83-.83V20.759c0-.941.498-1.495 1.439-1.66 1.55-.333 3.487-.499 5.646-.499 4.152 0 6.311 1.771 6.311 5.259l-.111 8.636zm6.975-17.493c0 1.494-.775 2.27-2.269 2.27-1.495 0-2.27-.776-2.27-2.27 0-1.55.775-2.325 2.27-2.325 1.494 0 2.269.775 2.269 2.325zm-.221 17.493c0 .553-.277.83-.83.83h-2.27c-.554 0-.83-.277-.83-.83V20.648c0-1.218.609-1.882 1.826-1.882h1.274c.553 0 .83.277.83.83v12.899zm13.562-.72c.056.941-.442 1.495-1.383 1.605-.609.111-1.772.166-3.322.166-4.705 0-7.03-2.546-7.03-7.694 0-4.816 2.325-7.197 7.03-7.197 1.605 0 2.547.056 2.879.056 1.218.221 1.826.775 1.826 1.66v1.218c0 .498-.276.775-.775.775-.387 0-.941-.055-1.716-.055-.775-.056-1.273-.056-1.716-.056-1.384 0-2.269.222-2.823.776-.498.498-.775 1.439-.775 2.878 0 1.495.222 2.546.609 3.045.498.664 1.439.94 2.934.94.609 0 1.273-.055 2.104-.11l1.217-.11c.499-.056.775.22.886.774 0 0 0 .443.055 1.329zM155 31.443c0 .94-.499 1.494-1.44 1.66-1.439.277-3.1.388-5.148.388-4.428 0-6.643-1.55-6.643-4.65 0-2.104 1.329-3.543 4.041-4.207.166-.056 1.218-.221 3.156-.609 1.052-.221 1.716-.332 2.048-.498l-.055-.056c0-.608-.333-.996-.886-1.218-.332-.11-.886-.166-1.661-.166-1.218 0-2.325.056-3.321.166l-1.44.167c-.055-.056-.055-.056-.11.055-.443 0-.72-.222-.775-.775 0-.055-.056-.498-.056-1.218 0-.996.775-1.605 2.381-1.771.277-.056 1.439-.056 3.487-.056 4.207 0 6.366 1.827 6.366 5.48v7.308H155zm-3.931-1.55v-2.879l-4.318.83c-.664.111-.996.499-.996.997 0 .775.941 1.218 2.879 1.218.996 0 1.826-.056 2.435-.166z" fill="#000"/><path d="M92.333 44.895v.166c0 .055-.055.055-.055.11 0 .056-.055.056-.055.056-.056 0-.056.055-.056.055h-3.432c-.055 0-.221-.055-.277-.055a.423.423 0 01-.11-.277v-6.366c0-.055 0-.055.055-.055 0-.056.055-.056.055-.056s.056-.055.166-.055h.443c.056 0 .111 0 .166.055.056 0 .056.056.056.056 0 .055.055.055.055.055v5.923h2.823c.056 0 .056 0 .056.056.055 0 .055.055.055.055 0 .055.055.055.055.11-.055 0 0 .056 0 .167zm1.993.276c0 .056 0 .056-.055.056l-.055.055s-.056.056-.167.056h-.442c-.056 0-.111 0-.166-.056l-.056-.055-.055-.055V40.41c0-.056 0-.056.055-.056 0-.055.055-.055.055-.055s.056-.055.167-.055h.442c.056 0 .111 0 .166.055l.056.055c0 .056.055.056.055.056v4.76zm.11-6.421a.857.857 0 01-.11.443c-.055.055-.221.11-.498.11s-.388-.055-.498-.11c-.056-.055-.11-.221-.11-.388 0-.166.054-.332.11-.387.055-.056.221-.11.498-.11s.388.054.498.11c.11 0 .11.11.11.332zm4.65-.332v.166c0 .055 0 .055-.054.055 0 .056-.056.056-.056.056h-.055s-.056 0-.11-.056c-.056 0-.056-.055-.167-.055-.055 0-.11-.055-.221-.055s-.166-.056-.277-.056c-.166 0-.277.056-.388.056-.11.055-.221.11-.221.221-.055.055-.11.221-.166.332-.055.166-.055.332-.055.498v.499h1.272l.055.055c0 .055.055.055.055.11v.167c0 .11 0 .221-.055.276-.055.056-.055.056-.166.056H97.26v4.207c0 .055 0 .055-.055.055l-.056.056s-.055.055-.166.055h-.443c-.055 0-.11 0-.166-.055-.055 0-.055-.056-.055-.056l-.055-.055v-4.207h-.775c-.056 0-.111-.056-.166-.056-.056-.055-.056-.165-.056-.276v-.166c0-.056.056-.056.056-.111s.055-.055.055-.055h.83v-.499c0-.332.056-.608.111-.83.055-.221.221-.443.332-.609.166-.166.332-.277.554-.332.221-.055.498-.11.775-.11.166 0 .277 0 .387.055.111.055.222.055.332.055.056.055.111.055.166.055.056 0 .056.056.056.056.055.055.055.055.055.11.11.277.11.332.11.388zm5.149 4.152a.42.42 0 01-.111.276c-.055.056-.166.056-.276.056h-3.543c0 .277.055.498.055.72.056.22.166.387.332.553.166.166.332.277.554.332.221.056.498.11.83.11.277 0 .498 0 .665-.054.166-.056.387-.056.498-.111.166-.055.277-.055.332-.11.055-.056.166-.056.221-.056h.056l.055.055c0 .056.055.056.055.11v.333c0 .055 0 .055-.055.055l-.055.056c-.056 0-.056.055-.222.055-.11.055-.221.055-.443.11-.166.056-.332.056-.609.111-.221.056-.498.056-.719.056a3.68 3.68 0 01-1.163-.166 2.081 2.081 0 01-.83-.498 2.322 2.322 0 01-.498-.776 3.57 3.57 0 01-.166-1.107c0-.387.055-.775.221-1.107.11-.332.277-.609.498-.83.222-.221.499-.388.831-.498.332-.111.664-.222 1.051-.222.443 0 .775.056 1.108.222.332.11.553.277.775.498.221.221.332.443.442.72.056.276.111.553.111.885v.222zm-.996-.277c0-.443-.111-.83-.332-1.052-.222-.277-.609-.387-1.052-.387-.222 0-.498.055-.609.11-.222.056-.332.222-.498.333-.111.11-.222.276-.277.498-.055.166-.111.332-.111.553l2.879-.055zm6.255 2.879c0 .055 0 .055-.055.055l-.056.055c-.055 0-.055.056-.166.056h-.443c-.055 0-.11 0-.166-.056-.055 0-.055-.055-.055-.055l-.055-.055V40.41c0-.056 0-.056.055-.056 0-.055.055-.055.055-.055s.056-.055.166-.055h.443c.056 0 .111 0 .166.055.056 0 .056.055.056.055 0 .056.055.056.055.056v4.76zm.166-6.422a.85.85 0 01-.111.443c-.055.055-.221.11-.498.11-.221 0-.387-.055-.498-.11-.055-.055-.111-.221-.111-.388 0-.166.056-.332.111-.387.055-.056.221-.11.498-.11a1.1 1.1 0 01.498.11c.056 0 .111.11.111.332zm6.311 6.422c0 .055 0 .055-.055.055l-.056.055s-.055.056-.166.056h-.443c-.055 0-.11 0-.166-.056l-.055-.055-.056-.055v-2.768c0-.277-.055-.499-.055-.665-.055-.166-.111-.332-.221-.442-.056-.111-.222-.222-.332-.277-.167-.056-.333-.056-.499-.056-.221 0-.498.056-.775.222a7.253 7.253 0 00-.775.664v3.322c0 .055 0 .055-.055.055l-.055.055s-.056.056-.166.056h-.443c-.056 0-.111 0-.166-.056l-.056-.055-.055-.055v-4.818l.055-.055s.056-.055.166-.055h.443c.056 0 .111 0 .111.055.055 0 .055.055.055.055v.721c.332-.332.609-.498.886-.664a1.9 1.9 0 01.886-.222c.332 0 .664.056.885.166.222.111.443.222.609.443.166.222.277.388.332.664.056.222.056.499.056.886v2.879h.166v-.055zm12.621 0c0 .055 0 .055-.055.055l-.055.055s-.056.056-.166.056h-.443s-.111 0-.166-.056l-.056-.055-.055-.055v-2.934c0-.222-.055-.388-.055-.554-.056-.166-.111-.332-.222-.443-.055-.11-.221-.221-.332-.277-.111-.055-.332-.055-.498-.055-.222 0-.498.055-.665.221a7.253 7.253 0 00-.775.665v3.321c0 .056 0 .056-.055.056l-.055.055s-.056.055-.166.055h-.443c-.056 0-.111 0-.166-.055l-.056-.055v-2.99c0-.221-.055-.387-.055-.553-.055-.166-.111-.332-.221-.443-.056-.111-.222-.222-.333-.277-.11-.055-.276-.055-.498-.055-.221 0-.498.055-.664.221a7.253 7.253 0 00-.775.664v3.322c0 .055 0 .055-.055.055l-.056.056s-.055.055-.166.055h-.443c-.055 0-.11 0-.166-.055l-.055-.056-.055-.055v-4.816l.055-.056s.055-.055.166-.055h.443c.055 0 .111 0 .111.055.055 0 .055.056.055.056v.719c.332-.332.609-.498.886-.664.276-.166.609-.221.885-.221.222 0 .443.055.609.055.222.055.332.11.498.221.111.056.222.222.333.277.055.11.221.222.221.388.221-.166.332-.333.498-.443.166-.11.332-.222.498-.277.167-.055.277-.11.443-.166.166-.055.277-.055.443-.055.332 0 .609.055.886.166.221.11.443.221.609.443.166.221.221.387.332.664.055.221.055.498.055.775v3.044zm6.865-2.492c0 .388-.056.775-.166 1.052a2.083 2.083 0 01-.499.83c-.221.222-.498.443-.885.554-.333.11-.775.221-1.218.221-.443 0-.831-.055-1.163-.166a2.081 2.081 0 01-.83-.498 2.301 2.301 0 01-.498-.775 3.215 3.215 0 01-.166-1.052c0-.387.055-.774.166-1.051a2.07 2.07 0 01.498-.83c.221-.222.498-.444.886-.554.332-.111.775-.222 1.217-.222.443 0 .831.056 1.163.166.332.111.609.277.83.499.222.221.388.498.499.775.11.276.166.664.166 1.051zm-1.052.111c0-.221-.056-.498-.056-.72a2.054 2.054 0 00-.276-.608c-.111-.166-.277-.333-.499-.388a1.766 1.766 0 00-.775-.166c-.276 0-.553.055-.775.11-.221.056-.387.222-.498.388-.11.166-.221.332-.332.61-.055.22-.055.497-.055.774s.055.498.055.775c.055.221.166.443.277.609.111.166.277.332.498.388.222.11.498.166.775.166s.554-.056.775-.111c.222-.056.388-.221.498-.388.111-.166.222-.332.332-.608.056-.333.056-.554.056-.83zm5.314 1.993c0 .11 0 .221-.055.221 0 .056-.056.111-.056.111-.055.056-.055.056-.166.056-.055.055-.11.055-.221.055-.055 0-.166.055-.277.055h-.277c-.276 0-.498-.055-.719-.055-.222-.055-.332-.166-.499-.277-.11-.11-.221-.332-.276-.498-.056-.222-.056-.443-.056-.72v-2.768h-.775c-.055 0-.11-.055-.166-.055-.055-.055-.055-.166-.055-.277v-.166c0-.055.055-.055.055-.11 0-.056.056-.056.056-.056.055-.055.055 0 .055 0h.775v-1.162c0-.056.055-.056.055-.056s.056-.055.166-.055h.443c.056 0 .111 0 .166.055.056 0 .056.056.056.056l.055.055V40.3h1.439c.056 0 .056.055.056.055 0 .056.055.056.055.111v.166c0 .11 0 .222-.055.277-.056.055-.056.055-.166.055h-1.384v2.657c0 .333.055.554.166.776.11.166.332.22.609.22.055 0 .166 0 .221-.054.055 0 .111-.056.222-.056.055 0 .11-.055.166-.055.055 0 .055-.055.11-.055h.056l.055.055s0 .055.055.055c.111.166.111.222.111.277zm2.325.388c0 .055 0 .055-.055.055l-.056.055s-.055.056-.166.056h-.443c-.055 0-.11 0-.166-.056-.055 0-.055-.055-.055-.055l-.055-.055V40.41c0-.056 0-.056.055-.056 0-.055.055-.055.055-.055s.056-.055.166-.055h.443c.056 0 .111 0 .166.055l.056.055.055.056v4.76zm.111-6.422c0 .221-.056.332-.111.443-.055.055-.221.11-.498.11s-.388-.055-.498-.11c-.056-.055-.111-.221-.111-.388 0-.166.055-.332.111-.387.055-.056.221-.11.498-.11s.387.054.498.11c0 0 .111.11.111.332zm6.753 3.93c0 .388-.055.775-.166 1.052a2.07 2.07 0 01-.498.83c-.221.222-.498.443-.886.554-.332.11-.775.221-1.217.221-.443 0-.831-.055-1.163-.166a2.081 2.081 0 01-.83-.498 2.32 2.32 0 01-.499-.775 3.241 3.241 0 01-.166-1.052c0-.387.056-.774.166-1.051.111-.333.277-.61.499-.83.221-.222.498-.444.885-.554.333-.111.775-.222 1.218-.222.443 0 .831.056 1.163.166.332.111.609.277.83.499.222.221.388.498.498.775.056.276.166.664.166 1.051zm-1.107.111c0-.221-.055-.498-.055-.72a2.03 2.03 0 00-.277-.608c-.111-.166-.277-.333-.498-.388a1.77 1.77 0 00-.775-.166 3.26 3.26 0 00-.775.11c-.222.056-.388.222-.498.388a2.951 2.951 0 00-.332.61c-.056.22-.056.497-.056.774s.056.498.056.775c.055.221.166.443.276.609.111.166.277.332.499.388.221.11.498.166.775.166.276 0 .553-.056.775-.111.221-.056.387-.221.498-.388.11-.166.221-.332.332-.608.055-.333.055-.554.055-.83zm7.197 2.38c0 .056 0 .056-.056.056l-.055.055s-.055.056-.166.056h-.443c-.055 0-.111 0-.166-.056l-.055-.055-.056-.055v-2.768c0-.277-.055-.499-.055-.665-.055-.166-.111-.332-.222-.442-.055-.111-.221-.222-.332-.277-.11-.056-.332-.056-.498-.056-.221 0-.498.056-.775.222a7.253 7.253 0 00-.775.664v3.322c0 .055 0 .055-.055.055l-.056.055s-.055.056-.166.056h-.443c-.055 0-.11 0-.166-.056l-.055-.055-.055-.055v-4.818l.055-.055s.055-.055.166-.055h.443c.055 0 .111 0 .111.055.055 0 .055.055.055.055v.721c.332-.332.609-.498.886-.664a1.9 1.9 0 01.885-.222c.333 0 .665.056.886.166.222.111.443.222.609.443.166.222.277.388.332.664.056.222.056.499.056.886v2.879h.166v-.055z" fill="#323536"/><path d="M8.027 25.796c0-4.207.72-7.14 2.159-8.857.553-.664 1.273-1.107 2.214-1.494.332 4.151.941 8.303 2.104 12.566 1.162 4.207 4.317 4.207 7.694 3.266 2.38-.665 4.54-.72 6.477-.388-.277 1.993-.775 3.488-1.44 4.429-1.439 1.993-4.317 2.99-8.746 2.99-4.373 0-7.252-1.053-8.69-3.045-1.219-1.772-1.772-4.927-1.772-9.467zm12.4-11.237c3.1.221 5.259 1.052 6.477 2.436.498.553.83 1.273 1.162 2.159 3.1.055 5.813.72 8.414 1.937-1.439-8.304-6.92-12.677-16.33-13.12 0-1.55.055-3.155.055-5.037C19.873.996 18.545 0 16.22 0h-1.163s-.387.055-1.107.055c-1.329.056-1.993.775-1.993 2.104 0 2.159.055 4.262.055 6.31C4.042 10.408 0 16.165 0 25.908 0 32.384 1.495 37.2 4.429 40.3c2.933 3.155 7.639 4.705 14.005 4.705 6.366 0 11.016-1.55 14.005-4.705 1.55-1.605 2.657-3.654 3.377-6.145 1.273.941 2.436 2.049 3.598 3.1.886.997 1.827 1.052 2.879.111.553-.498.886-.775.886-.775l.83-.83c1.66-1.606 1.993-3.211.886-4.872-6.311-5.425-13.563-9.466-23.361-8.026-.554-3.377-.886-6.034-1.107-8.304z" fill="#C85249"/></g><defs><clipPath id="clip0"><path fill="#fff" d="M0 0h155v45.393H0z"/></clipPath></defs></svg>