<svg width="100" height="100" fill="none" xmlns="http://www.w3.org/2000/svg"><path d="M35.938 64.063h59.374v12.109a1.959 1.959 0 01-1.953 1.953H35.938V64.062zM8.594 53.125h27.343v25H6.642a1.959 1.959 0 01-1.954-1.953v-19.14a3.918 3.918 0 013.907-3.907z" fill="#FA5D3F"/><path d="M35.938 53.125H7.811l10.743-14.766a5.848 5.848 0 014.746-2.422h12.637v17.188z" fill="#FFF9F7"/><path d="M37.89 20.313h55.47c1.074 0 1.953.878 1.953 1.953v41.797H35.937V22.266a1.96 1.96 0 011.954-1.953z" fill="#FAC850"/><path d="M20.313 89.063a9.375 9.375 0 100-18.75 9.375 9.375 0 100 18.75zm59.375 0a9.375 9.375 0 100-18.75 9.375 9.375 0 100 18.75z" fill="#4D4D4D"/><path d="M35.938 35.938h-12.5l5.664-8.497a1.97 1.97 0 011.62-.878h5.215v9.375z" fill="#FA5D3F"/><path d="M25 57.813h6.25v3.124H25v-3.124z" fill="#000"/><path d="M8.594 65.625H4.688v-8.594a3.918 3.918 0 013.906-3.906H12.5v8.594a3.918 3.918 0 01-3.906 3.906z" fill="#FAC850"/><path d="M40.625 25h3.125v3.125h-3.125V25zm0 31.25h3.125v3.125h-3.125V56.25zM87.5 25h3.125v3.125H87.5V25zm0 31.25h3.125v3.125H87.5V56.25z" fill="#000"/><path d="M20.313 82.813a3.125 3.125 0 100-6.25 3.125 3.125 0 000 6.25z" fill="#FEFEFE"/><path d="M20.313 84.375a4.676 4.676 0 01-4.688-4.688A4.676 4.676 0 0120.313 75 4.676 4.676 0 0125 79.688a4.701 4.701 0 01-4.688 4.687zm0-6.25c-.86 0-1.563.703-1.563 1.563 0 .859.703 1.562 1.563 1.562.859 0 1.562-.703 1.562-1.563 0-.859-.703-1.562-1.563-1.562z" fill="#000"/><path d="M79.688 82.813a3.125 3.125 0 100-6.25 3.125 3.125 0 000 6.25z" fill="#FEFEFE"/><path d="M79.688 84.375A4.676 4.676 0 0175 79.687 4.676 4.676 0 0179.688 75a4.676 4.676 0 014.687 4.688 4.701 4.701 0 01-4.688 4.687zm0-6.25c-.86 0-1.563.703-1.563 1.563 0 .859.703 1.562 1.563 1.562.859 0 1.562-.703 1.562-1.563 0-.859-.703-1.562-1.563-1.562z" fill="#000"/><path d="M93.36 18.75H37.89a3.526 3.526 0 00-3.515 3.516V25h-3.633a3.545 3.545 0 00-2.93 1.563l-5.234 7.851a7.48 7.48 0 00-5.293 3.027L6.797 51.875a5.473 5.473 0 00-3.672 5.156v19.14a3.526 3.526 0 003.516 3.516h2.734c0 6.036 4.902 10.938 10.938 10.938 6.035 0 10.937-4.902 10.937-10.938h37.5c0 6.036 4.902 10.938 10.938 10.938 6.035 0 10.937-4.902 10.937-10.938h2.734a3.526 3.526 0 003.516-3.515V22.266a3.526 3.526 0 00-3.516-3.516zM6.25 57.031a2.35 2.35 0 012.344-2.343h2.344v7.03a2.35 2.35 0 01-2.344 2.344H6.25v-7.03zM20.313 87.5a7.81 7.81 0 01-7.813-7.813 7.81 7.81 0 017.813-7.812 7.81 7.81 0 017.812 7.813 7.81 7.81 0 01-7.813 7.812zm14.062-10.938h-3.574c-1.719-5.78-7.813-9.081-13.613-7.363a10.962 10.962 0 00-7.364 7.364H6.641a.392.392 0 01-.391-.391v-8.984h2.344a5.46 5.46 0 005.469-5.47v-7.03h20.312v21.874zm0-25H10.879l8.945-12.285a4.303 4.303 0 013.477-1.777h11.074v14.063zm0-17.187h-8.027l4.043-6.074a.384.384 0 01.332-.176h3.652v6.25zM79.688 87.5a7.81 7.81 0 01-7.813-7.813 7.81 7.81 0 017.813-7.812 7.81 7.81 0 017.812 7.813 7.81 7.81 0 01-7.813 7.812zM93.75 76.172c0 .215-.176.39-.39.39h-3.184c-1.719-5.78-7.813-9.081-13.614-7.363a10.962 10.962 0 00-7.363 7.364H37.5V65.624h56.25v10.547zm0-13.672H37.5V22.266c0-.215.176-.391.39-.391h55.47c.214 0 .39.176.39.39V62.5z" fill="#000"/></svg>