<svg width="167" height="36" viewBox="0 0 167 36" fill="none" xmlns="http://www.w3.org/2000/svg">
    <path d="M52.9696 12.1563C52.9696 16.9447 52.9696 22.3678 52.9696 27.1563C51.7004 27.1563 50.4312 27.1563 49.1042 27.1563C49.1042 21.2717 49.1042 14.637 49.1042 8.75243C52.7389 8.75243 56.4889 8.75243 60.1235 8.75243C60.1235 9.96396 60.1235 10.9447 60.1235 12.1563H52.9696Z"
          fill="black"/>
    <path d="M61.0466 27.214H60.1235V14.9832H63.6428V21.1563L70.9697 14.9832H72.0658V27.214H68.5466V20.8678L61.0466 27.214Z"
          fill="black"/>
    <path d="M87.2965 14.9832V27.1563H83.7196V18.0986H79.0465V27.1563H75.4119V14.9832H87.2965Z" fill="black"/>
    <path d="M102.008 21.8486H93.5272C93.6426 23.7524 95.0849 24.5024 96.8156 24.6178C97.3349 24.6178 97.9118 24.6755 98.4887 24.6178C99.5849 24.5024 100.739 24.214 101.489 23.8678L101.893 26.464C100.393 27.1563 98.7195 27.5601 97.0464 27.5601C92.8349 27.6178 89.8926 25.137 89.8926 21.0409C89.9503 16.7717 93.1233 14.8101 96.4118 14.8101C101.027 14.6947 102.989 17.6947 102.008 21.8486ZM93.5849 19.5409H99.0656C99.1233 17.9255 97.7964 17.4063 96.4695 17.4063C95.0849 17.4063 93.8733 18.1563 93.5849 19.5409Z"
          fill="black"/>
    <path d="M112.335 14.637C115.97 14.637 117.931 17.6947 117.931 20.9832C117.931 25.8294 113.431 28.7717 109.104 26.637V33.387H105.47V19.137C105.47 17.9832 105.643 17.2332 104.316 17.2909V14.9255C105.989 14.5794 108.412 14.5217 108.412 16.887C109.104 15.387 110.72 14.637 112.335 14.637ZM108.989 23.7524C111.527 25.2524 114.297 24.0986 114.297 21.0409C114.297 19.4255 113.431 17.8101 111.585 17.8101C109.97 17.8101 109.047 19.137 108.989 20.5794V23.7524Z"
          fill="black"/>
    <path d="M127.162 24.6755L124.046 21.6178V27.1563C122.893 27.1563 121.739 27.1563 120.585 27.1563C120.585 23.2332 120.585 18.8486 120.585 15.0409H121.681L127.335 20.5794L133.046 14.9832H134.085C134.085 18.8486 134.085 23.1755 134.085 27.0986C132.931 27.0986 131.777 27.0986 130.623 27.0986V21.5601L127.393 24.6178H127.162V24.6755Z"
          fill="black"/>
    <path d="M148.797 21.8486H140.316C140.431 23.7524 141.873 24.5024 143.604 24.6178C144.123 24.6178 144.7 24.6755 145.277 24.6178C146.373 24.5024 147.527 24.214 148.277 23.8678L148.681 26.464C147.181 27.1563 145.508 27.5601 143.835 27.5601C139.623 27.6178 136.681 25.137 136.681 21.0409C136.739 16.7717 139.912 14.8101 143.2 14.8101C147.816 14.6947 149.777 17.6947 148.797 21.8486ZM140.373 19.5409H145.854C145.912 17.9255 144.585 17.4063 143.258 17.4063C141.931 17.4063 140.662 18.1563 140.373 19.5409Z"
          fill="black"/>
    <path d="M150.7 29.8101L150.585 24.4447H150.643H150.816C152.835 24.387 152.72 23.0024 153.008 21.0986L153.989 14.9832H163.335V24.4447H165.008L164.893 29.8101H161.777V27.1563H153.873V29.8101H150.7ZM159.989 17.9255H156.931L156.412 21.8486L156.239 22.7717C156.123 23.4063 155.893 24.0986 155.431 24.4447H159.931V17.9255H159.989Z"
          fill="black"/>
    <path d="M90.4696 10.3678C90.8734 10.4832 91.1042 10.7717 91.1042 11.1755C91.1042 11.9832 90.3542 12.0409 89.7196 12.0409H88.335C88.335 11.0024 88.335 9.96397 88.335 8.92551H89.5465C90.1234 8.92551 90.9311 8.9832 90.9311 9.7332C90.9311 10.0217 90.8157 10.2524 90.4696 10.3678ZM89.6042 10.1947C89.8927 10.1947 90.2388 10.137 90.2388 9.84858C90.2388 9.50243 89.8927 9.44474 89.6042 9.44474H89.0273V10.1947H89.6042ZM89.6619 11.5217C89.9503 11.5217 90.4119 11.5217 90.4119 11.1178C90.4119 10.714 89.9504 10.714 89.6042 10.714H89.0273V11.5794H89.6619V11.5217Z"
          fill="#646363"/>
    <path d="M94.2196 9.96397C94.1042 9.61781 93.7581 9.44473 93.3542 9.44473C92.8927 9.44473 92.3735 9.79089 92.3735 10.4255C92.3735 11.1178 92.8927 11.464 93.3542 11.464C93.7004 11.464 94.0465 11.2909 94.2196 10.887H94.9119C94.7389 11.6947 94.0465 12.0409 93.3542 12.0409C92.5465 12.0409 91.6812 11.5217 91.6812 10.4255C91.6812 9.32935 92.5465 8.81012 93.3542 8.81012C94.0465 8.81012 94.7389 9.15627 94.9119 9.96397H94.2196Z"
          fill="#646363"/>
    <path d="M98.4312 10.5986H96.0658C96.0658 11.1755 96.5274 11.5217 97.1043 11.5217C97.5081 11.5217 97.912 11.464 98.2581 11.3486L98.3735 11.8678C98.0274 12.0409 97.5658 12.1563 97.162 12.1563C96.1235 12.1563 95.3158 11.5217 95.3735 10.4832C95.3735 9.44473 96.1812 8.9255 97.0466 8.9255C98.1427 8.86781 98.662 9.56012 98.4312 10.5986ZM95.835 7.88704C95.835 7.65627 96.0081 7.54089 96.2389 7.54089C96.4697 7.54089 96.6427 7.65627 96.6427 7.88704C96.6427 8.11781 96.4697 8.23319 96.2389 8.23319C96.0081 8.23319 95.835 8.06012 95.835 7.88704ZM96.1235 10.137H97.912C97.912 9.6755 97.5081 9.44473 97.1043 9.44473C96.5851 9.38704 96.1812 9.61781 96.1235 10.137ZM97.3351 7.88704C97.3351 7.65627 97.5081 7.54089 97.7389 7.54089C97.9697 7.54089 98.1427 7.65627 98.1427 7.88704C98.1427 8.11781 97.9697 8.23319 97.7389 8.23319C97.5081 8.23319 97.3351 8.06012 97.3351 7.88704Z"
          fill="#646363"/>
    <path d="M100.623 12.7332V11.464H100.681C101.143 11.464 101.2 11.0024 101.258 10.4832L101.489 8.92551H103.739V11.5217H104.143V12.7909H103.508V12.0986H101.258V12.7909H100.623V12.7332ZM103.046 9.50243H102.066L101.893 10.714C101.835 11.1755 101.777 11.4063 101.604 11.5217H103.046V9.50243Z"
          fill="#646363"/>
    <path d="M106.046 9.56012L105.873 10.9447C105.758 11.9255 105.527 12.214 104.489 12.0409V11.5217C105.066 11.5794 105.123 11.3486 105.123 10.887L105.354 8.92551C106.162 8.92551 106.97 8.92551 107.777 8.92551V12.0409H107.085V9.56012H106.046Z"
          fill="#646363"/>
    <path d="M109.393 10.887C108.989 10.7717 108.7 10.3678 108.7 9.96397C108.7 9.38705 109.162 8.92551 109.854 8.92551C110.258 8.92551 111.066 8.92551 111.469 8.92551V12.0409C111.239 12.0409 111.008 12.0409 110.719 12.0409V11.0601H110.143L109.393 12.0409H108.643V11.9832L109.393 10.887ZM110.719 10.4832V9.50243C110.489 9.50243 110.258 9.50243 110.027 9.50243C109.681 9.50243 109.393 9.7332 109.393 10.0217C109.393 10.3101 109.623 10.5409 110.027 10.5409H110.719V10.4832Z"
          fill="#646363"/>
    <path d="M113.893 9.09858C114.181 8.92551 114.643 8.86781 115.047 8.86781C115.681 8.86781 116.316 9.04089 116.316 9.7332C116.316 10.0217 116.143 10.3101 115.797 10.3678C116.2 10.4832 116.489 10.7717 116.489 11.1755C116.489 11.8678 115.797 12.0986 115.104 12.0986C114.585 12.0986 114.066 11.9832 113.777 11.8101L113.835 11.2332C114.066 11.4063 114.585 11.5217 115.047 11.5794C115.45 11.5794 115.797 11.464 115.797 11.1178C115.797 10.714 115.335 10.6563 114.989 10.6563C114.816 10.6563 114.7 10.6563 114.527 10.6563V10.1947C114.7 10.1947 114.816 10.1947 114.989 10.1947C115.277 10.1947 115.624 10.1947 115.624 9.79089C115.624 9.44474 115.277 9.38704 114.989 9.38704C114.7 9.38704 114.239 9.44474 114.008 9.61781L113.893 9.09858Z"
          fill="#646363"/>
    <path d="M117.008 12.7332V11.464H117.066C117.527 11.464 117.585 11.0024 117.643 10.4832L117.873 8.92551H120.123V11.5217H120.527V12.7909H119.893V12.0986H117.643V12.7909H117.008V12.7332ZM119.431 9.50243H118.45L118.277 10.714C118.22 11.1755 118.162 11.4063 117.989 11.5217H119.431V9.50243Z"
          fill="#646363"/>
    <path d="M122.719 12.0986C121.854 12.0986 121.046 11.5794 121.046 10.4832C121.046 9.38704 121.854 8.86781 122.719 8.86781C123.585 8.86781 124.45 9.38704 124.45 10.4832C124.393 11.5794 123.527 12.0986 122.719 12.0986ZM122.719 11.464C123.181 11.464 123.7 11.1178 123.7 10.4832C123.7 9.79089 123.181 9.44474 122.719 9.50243C122.258 9.50243 121.796 9.84858 121.796 10.4832C121.739 11.1178 122.2 11.464 122.719 11.464Z"
          fill="#646363"/>
    <path d="M126.931 8.81012C127.854 8.81012 128.373 9.56012 128.373 10.4255C128.373 11.4063 127.623 12.0986 126.758 12.0409C126.47 12.0409 126.239 11.9255 125.95 11.8101V13.6563H125.2V9.90627C125.2 9.56012 125.258 9.38704 124.854 9.38704V8.9255C125.373 8.81012 125.777 8.9255 125.777 9.44474C126.008 8.9832 126.47 8.81012 126.931 8.81012ZM125.95 11.2332C126.239 11.4063 126.527 11.5217 126.758 11.464C127.22 11.464 127.623 11.1178 127.623 10.4832C127.623 9.96397 127.335 9.50243 126.758 9.50243C126.239 9.50243 125.95 9.90627 125.95 10.3678V11.2332Z"
          fill="#646363"/>
    <path d="M130.566 12.0986C129.7 12.0986 128.893 11.5794 128.893 10.4832C128.893 9.38704 129.7 8.86781 130.566 8.86781C131.431 8.86781 132.296 9.38704 132.296 10.4832C132.239 11.5794 131.431 12.0986 130.566 12.0986ZM130.566 11.464C131.027 11.464 131.546 11.1178 131.546 10.4832C131.546 9.79089 131.027 9.44474 130.566 9.50243C130.104 9.50243 129.643 9.84858 129.643 10.4832C129.585 11.1178 130.104 11.464 130.566 11.464Z"
          fill="#646363"/>
    <path d="M135.181 10.3678C135.585 10.4832 135.816 10.7717 135.816 11.1755C135.816 11.9832 135.066 12.0409 134.431 12.0409H133.046C133.046 11.0024 133.046 9.96397 133.046 8.92551H134.258C134.835 8.92551 135.643 8.9832 135.643 9.7332C135.643 10.0217 135.527 10.2524 135.181 10.3678ZM134.258 10.1947C134.546 10.1947 134.893 10.137 134.893 9.84858C134.893 9.50243 134.546 9.44474 134.258 9.44474H133.681V10.1947H134.258ZM134.316 11.5217C134.604 11.5217 135.066 11.5217 135.066 11.1178C135.066 10.714 134.604 10.714 134.258 10.714H133.681V11.5794H134.316V11.5217Z"
          fill="#646363"/>
    <path d="M138.008 12.0986C137.143 12.0986 136.335 11.5794 136.335 10.4832C136.335 9.38704 137.143 8.86781 138.008 8.86781C138.873 8.86781 139.739 9.38704 139.739 10.4832C139.681 11.5794 138.873 12.0986 138.008 12.0986ZM138.008 11.464C138.47 11.464 138.989 11.1178 138.989 10.4832C138.989 9.79089 138.47 9.44474 138.008 9.50243C137.546 9.50243 137.085 9.84858 137.085 10.4832C137.027 11.1178 137.546 11.464 138.008 11.464Z"
          fill="#646363"/>
    <path d="M140.662 12.0409H140.489V8.9255H141.181V10.7717L143.2 8.86781C143.258 8.86781 143.373 8.86781 143.431 8.86781C143.431 9.90627 143.431 10.9447 143.431 11.9832C143.2 11.9832 142.97 11.9832 142.739 11.9832V10.0793L140.662 12.0409ZM141.008 7.65627C141.066 8.2332 141.47 8.57935 142.046 8.57935C142.623 8.57935 143.027 8.2332 143.085 7.65627C142.97 7.65627 142.739 7.59858 142.623 7.59858C142.566 7.88704 142.335 8.00243 142.046 8.00243C141.758 8.00243 141.527 7.88704 141.47 7.59858L141.008 7.65627Z"
          fill="#646363"/>
    <path d="M149.604 8.92551H150.239C150.296 9.61781 150.123 10.137 149.431 10.4255L150.412 11.9255V11.9832H149.662L148.796 10.5986C148.681 10.5986 148.566 10.6563 148.335 10.6563V11.9832H147.643V10.6563C147.412 10.6563 147.296 10.6563 147.181 10.5986L146.316 11.9832H145.566V11.9255L146.546 10.4255C145.912 10.137 145.739 9.56012 145.796 8.92551H146.489C146.431 9.61781 146.72 10.137 147.643 10.137V8.92551H148.335V10.137C149.316 10.137 149.604 9.61781 149.604 8.92551Z"
          fill="#646363"/>
    <path d="M151.277 12.0409H151.104V8.92551H151.797V10.7717L153.816 8.86781C153.873 8.86781 153.989 8.86781 154.047 8.86781C154.047 9.90627 154.047 10.9447 154.047 11.9832C153.816 11.9832 153.585 11.9832 153.354 11.9832V10.0794L151.277 12.0409Z"
          fill="#646363"/>
    <path d="M154.854 9.09858C155.143 8.92551 155.604 8.86781 156.008 8.86781C156.643 8.86781 157.277 9.04089 157.277 9.7332C157.277 10.0217 157.104 10.3101 156.758 10.3678C157.162 10.4832 157.45 10.7717 157.45 11.1755C157.45 11.8678 156.758 12.0986 156.066 12.0986C155.546 12.0986 155.027 11.9832 154.739 11.8101L154.796 11.2332C155.027 11.4063 155.546 11.5217 156.008 11.5794C156.412 11.5794 156.758 11.464 156.758 11.1178C156.758 10.714 156.296 10.6563 155.95 10.6563C155.777 10.6563 155.662 10.6563 155.489 10.6563V10.1947C155.662 10.1947 155.777 10.1947 155.95 10.1947C156.239 10.1947 156.585 10.1947 156.585 9.79089C156.585 9.44474 156.239 9.38704 155.95 9.38704C155.662 9.38704 155.2 9.44474 154.97 9.61781L154.854 9.09858Z"
          fill="#646363"/>
    <path d="M161.142 8.92551V12.0409H160.45V10.714H158.893V12.0409H158.2V8.92551H158.893V10.137H160.45V8.92551H161.142Z"
          fill="#646363"/>
    <path d="M162.296 12.0409H162.123V8.92551H162.816V10.7717L164.835 8.86781C164.893 8.86781 165.008 8.86781 165.066 8.86781C165.066 9.90627 165.066 10.9447 165.066 11.9832C164.835 11.9832 164.604 11.9832 164.373 11.9832V10.0794L162.296 12.0409Z"
          fill="#646363"/>
    <path fill-rule="evenodd" clip-rule="evenodd"
          d="M9.18121 16.0217L13.0466 18.214L16.912 20.3486V24.7332V29.0601L13.0466 31.2524L9.18121 33.4447L5.31582 31.2524L1.45044 29.0601V24.7332V20.3486L5.31582 18.214L9.18121 16.0217Z"
          fill="#F9D900"/>
    <path fill-rule="evenodd" clip-rule="evenodd"
          d="M25.5657 16.0217L29.4311 18.214L33.2965 20.3486V24.7332V29.0601L29.4311 31.2524L25.5657 33.4447L21.7003 31.2524L17.835 29.0601V24.7332V20.3486L21.7003 18.214L25.5657 16.0217Z"
          fill="#95C11F"/>
    <path fill-rule="evenodd" clip-rule="evenodd"
          d="M33.7581 2.1755L37.6235 4.36781L41.4889 6.50242V10.887V15.214L37.6235 17.4063L33.7581 19.5986L29.8927 17.4063L26.0273 15.214V10.887V6.50242L29.8927 4.36781L33.7581 2.1755Z"
          fill="#4A5DA7"/>
    <path d="M12.9311 24.387C12.8734 24.0986 12.585 23.9255 12.2965 23.9255C12.2388 23.9255 12.1811 23.9255 12.1234 23.9255L11.4311 24.0986C10.9696 24.214 10.508 24.2716 10.0465 24.3293C10.1042 23.7524 10.2773 23.2909 10.6811 22.8293C11.3734 22.0217 11.258 20.8101 10.4503 20.0601C9.64264 19.3678 8.37341 19.3678 7.62341 20.1178C6.81572 20.8678 6.81572 22.0793 7.50803 22.887C7.91187 23.3486 8.08495 23.8101 8.14264 24.387C7.6811 24.3293 7.21957 24.2716 6.75803 24.1563L6.06572 23.9832C6.00803 23.9832 5.95034 23.9832 5.89264 23.9832C5.60418 23.9832 5.31572 24.1563 5.25803 24.4447C5.20034 24.6178 5.25803 24.7909 5.31572 24.964C5.4311 25.137 5.54649 25.1947 5.71957 25.2524L6.64264 25.4832C6.9311 25.5409 7.16187 25.5986 7.45034 25.6563V25.7716H7.33495C6.52726 25.7716 5.89264 26.4063 5.89264 27.214V27.8486C5.89264 28.6563 6.75803 29.2909 7.50803 29.2909H10.7965C11.6042 29.2909 12.2388 28.6563 12.2388 27.8486V27.214C12.2388 26.4063 11.6042 25.7716 10.7965 25.7716H10.6811V25.5409C10.9696 25.4832 11.2003 25.4255 11.4888 25.3678L12.3542 25.137C12.8157 25.0793 13.0465 24.7332 12.9311 24.387ZM7.91187 20.3486C8.54649 19.714 9.58495 19.714 10.2196 20.2909C10.8542 20.8678 10.9696 21.8486 10.3926 22.5409C9.9311 23.0601 9.70034 23.6947 9.64264 24.3293C9.46957 24.3293 9.2388 24.3293 9.06572 24.3293C8.89264 24.3293 8.66187 24.3293 8.4888 24.3293C8.4888 23.6947 8.25803 23.1178 7.79649 22.5986C7.27726 21.964 7.27726 20.9832 7.91187 20.3486ZM10.7388 26.1755H10.8542C11.4888 26.1755 11.9503 26.637 11.9503 27.2716V27.9063C11.9503 28.4832 11.4311 29.0024 10.8542 29.0024H7.56572C6.9888 29.0024 6.29649 28.5409 6.29649 27.9063V27.2716C6.29649 26.6947 6.81572 26.1755 7.39264 26.1755H7.50803V26.464H7.39264C6.9311 26.464 6.58495 26.8101 6.58495 27.214V27.8486C6.58495 28.2524 6.9311 28.5986 7.39264 28.5986H10.8542C11.3157 28.5986 11.6619 28.2524 11.6619 27.8486V27.214C11.6619 26.8101 11.3157 26.464 10.8542 26.464H10.7388V26.1755ZM10.7965 26.8101H10.9119C11.1426 26.8101 11.3157 26.9832 11.3157 27.214V27.8486C11.3157 28.0793 11.1426 28.2524 10.9119 28.2524H7.45034C7.21957 28.2524 7.04649 28.0793 7.04649 27.8486V27.214C7.04649 26.9832 7.21957 26.8101 7.45034 26.8101H7.56572C7.62341 27.0986 7.91187 27.387 8.25803 27.387H10.0465C10.3926 27.387 10.6811 27.1563 10.7965 26.8101C10.7388 26.8101 10.7388 26.8101 10.7965 26.8101C10.7388 26.8101 10.7388 26.8101 10.7965 26.8101ZM10.3926 26.637C10.3926 26.8101 10.2196 26.9832 10.0465 26.9832H8.25803C8.08495 26.9832 7.91187 26.8101 7.91187 26.637V25.5986C8.31572 25.6563 8.77726 25.6563 9.1811 25.6563C9.58495 25.6563 10.0465 25.6563 10.4503 25.5986V26.637H10.3926ZM12.3542 24.8486L11.4888 25.0793C10.7388 25.2524 9.9311 25.3678 9.12341 25.3678C8.31572 25.3678 7.56572 25.2524 6.75803 25.0793L5.83495 24.8486C5.66187 24.7909 5.60418 24.6755 5.60418 24.5024C5.66187 24.387 5.77726 24.2716 5.89264 24.2716H5.95034L6.64264 24.4447C7.16187 24.5601 7.7388 24.6755 8.25803 24.7332C8.54649 24.7332 8.77726 24.7909 9.06572 24.7909C9.35418 24.7909 9.58495 24.7909 9.87341 24.7332C10.4503 24.6755 10.9696 24.6178 11.4888 24.4447L12.1811 24.2716H12.2388C12.3542 24.2716 12.4696 24.387 12.5273 24.5024C12.6426 24.6178 12.5273 24.7909 12.3542 24.8486Z"
          fill="white"/>
    <path d="M9.41185 20.5793C9.52723 20.5793 9.70031 20.6947 9.81569 20.8101C9.93108 20.9255 9.98877 21.0986 10.0465 21.1563C10.0465 21.214 10.1618 21.2717 10.2195 21.2717H10.2772C10.3926 21.214 10.4503 21.1563 10.3926 21.0409C10.3349 20.8678 10.2195 20.6947 10.0465 20.5217C9.81569 20.3486 9.64262 20.2332 9.46954 20.1755C9.35416 20.1755 9.29646 20.2332 9.23877 20.2909C9.23877 20.464 9.29646 20.5793 9.41185 20.5793Z"
          fill="white"/>
    <path d="M35.3735 10.714C34.9697 10.0793 34.2774 9.6755 33.5851 9.6755C32.8351 9.6755 32.1427 10.0793 31.7966 10.714L30.9312 12.0986C30.7581 12.387 30.7004 12.6755 30.7004 12.964C30.7004 13.2524 30.8158 13.5409 31.0466 13.8293C31.2197 14.0601 31.5081 14.2332 31.7966 14.2909C32.0851 14.3486 32.4312 14.3486 32.7197 14.1755C33.2966 13.9447 33.9312 13.9447 34.5081 14.1755C34.6812 14.2332 34.912 14.2909 35.0851 14.2909C35.2004 14.2909 35.3158 14.2909 35.4312 14.2332C35.7197 14.1755 36.0081 14.0024 36.1812 13.7717C36.3543 13.5409 36.4697 13.2524 36.5274 12.9063C36.5274 12.6178 36.4697 12.2717 36.2966 12.0409L35.3735 10.714ZM35.8927 13.5986C35.7197 13.7717 35.5466 13.887 35.3158 13.9447C35.0851 14.0024 34.8543 14.0024 34.6812 13.887C33.9889 13.5986 33.2389 13.5986 32.5466 13.887C32.3158 14.0024 32.0851 14.0024 31.912 13.9447C31.6812 13.887 31.5081 13.7717 31.3351 13.5986C31.162 13.4255 31.1043 13.1947 31.1043 12.964C31.1043 12.7332 31.162 12.5024 31.2774 12.2717L32.1427 10.887C32.4889 10.3678 33.0081 10.0217 33.6427 10.0217C34.2774 10.0217 34.7966 10.3101 35.1427 10.887L36.0081 12.2717C36.1235 12.4447 36.1812 12.6755 36.1812 12.964C36.1235 13.1947 36.0081 13.4255 35.8927 13.5986Z"
          fill="white"/>
    <path d="M31.5081 9.84858C31.6234 9.56012 31.6234 9.27166 31.5081 8.98319C31.3927 8.69473 31.2196 8.46396 30.9311 8.29089C30.6427 8.11781 30.3542 8.11781 30.0657 8.23319C29.4888 8.46396 29.2581 9.15627 29.4888 9.79089C29.6619 10.2524 30.1234 10.5986 30.585 10.5986C30.7004 10.5986 30.8157 10.5986 30.9311 10.5409C31.2196 10.4255 31.4504 10.1947 31.5081 9.84858ZM30.8157 10.1947C30.4696 10.3101 30.0081 10.0793 29.835 9.6755C29.6619 9.21396 29.835 8.75242 30.1811 8.57935C30.2388 8.57935 30.3542 8.52166 30.4119 8.52166C30.5273 8.52166 30.6427 8.57935 30.758 8.63704C30.9311 8.75243 31.1042 8.9255 31.1619 9.15627C31.2196 9.38704 31.2773 9.61781 31.1619 9.79089C31.1042 9.96396 30.9888 10.137 30.8157 10.1947Z"
          fill="white"/>
    <path d="M32.8925 9.27165C33.5848 9.27165 34.1618 8.63704 34.1618 7.82935C34.1618 7.02165 33.5848 6.38704 32.8925 6.38704C32.2002 6.38704 31.6233 7.02165 31.6233 7.82935C31.6233 8.63704 32.2002 9.27165 32.8925 9.27165ZM32.8925 6.73319C33.4118 6.73319 33.8156 7.25242 33.8156 7.82935C33.8156 8.40627 33.4118 8.9255 32.8925 8.9255C32.3733 8.9255 31.9694 8.40627 31.9694 7.82935C31.9694 7.25242 32.3733 6.73319 32.8925 6.73319Z"
          fill="white"/>
    <path d="M35.258 9.6755C35.3734 9.73319 35.4888 9.73319 35.6042 9.73319C36.1234 9.73319 36.6426 9.32935 36.8157 8.75242C36.9311 8.40627 36.9311 8.06012 36.8157 7.77166C36.7003 7.4255 36.4119 7.19473 36.1234 7.07935C35.7772 6.96396 35.4311 7.02166 35.1426 7.19473C34.8542 7.36781 34.6234 7.65627 34.508 8.00242C34.2772 8.75242 34.6234 9.50242 35.258 9.6755ZM34.9119 8.11781C34.9695 7.88704 35.1426 7.65627 35.3734 7.54089C35.4888 7.48319 35.6619 7.4255 35.7772 7.4255C35.8349 7.4255 35.9503 7.4255 36.008 7.48319C36.2388 7.54089 36.4119 7.71396 36.4695 7.94473C36.5849 8.1755 36.5849 8.46396 36.4695 8.69473C36.2965 9.21396 35.7772 9.50242 35.3734 9.38704C34.9119 9.21396 34.7388 8.63704 34.9119 8.11781Z"
          fill="white"/>
    <path d="M37.9695 9.73319C37.7387 9.56012 37.4503 9.50242 37.2195 9.56012C36.8734 9.61781 36.5849 9.79089 36.3541 10.0793C35.9503 10.6563 36.008 11.3486 36.5272 11.7524C36.7003 11.8678 36.9311 11.9832 37.1618 11.9832C37.5657 11.9832 37.9118 11.8101 38.1426 11.464C38.5464 10.8293 38.4887 10.0793 37.9695 9.73319ZM37.8541 11.1755C37.5657 11.5217 37.0464 11.6947 36.758 11.4063C36.4118 11.1755 36.4118 10.6563 36.7003 10.2524C36.8734 10.0217 37.0464 9.90627 37.2772 9.84858C37.3349 9.84858 37.3349 9.84858 37.3926 9.84858C37.508 9.84858 37.6811 9.90627 37.7964 9.96396C38.0849 10.2524 38.1426 10.7717 37.8541 11.1755Z"
          fill="white"/>
    <path d="M35.4889 12.5024C35.3735 12.5601 35.3158 12.6178 35.3735 12.7332C35.3735 12.7332 35.4312 12.9063 35.3158 13.0793C35.2004 13.1947 35.085 13.2524 35.0273 13.2524C34.9119 13.2524 34.8542 13.3678 34.8542 13.4832C34.8542 13.5986 34.9696 13.6563 35.0273 13.6563C35.085 13.6563 35.3735 13.5986 35.5466 13.3101C35.7196 13.0217 35.6619 12.7332 35.6043 12.6755C35.6619 12.5024 35.5466 12.4447 35.4889 12.5024Z"
          fill="white"/>
    <path fill-rule="evenodd" clip-rule="evenodd"
          d="M17.3736 2.1755L21.239 4.36781L25.1044 6.50242V10.887V15.214L21.239 17.4063L17.3736 19.5986L13.5082 17.4063L9.64282 15.214V10.887V6.50242L13.5082 4.36781L17.3736 2.1755Z"
          fill="#E52322"/>
    <path d="M19.6813 4.88704C19.6236 4.65627 19.3928 4.48319 19.1044 4.48319C19.0467 4.48319 18.989 4.48319 18.9313 4.48319L18.5851 4.54088C18.2967 4.59858 18.0659 4.65627 17.7774 4.65627C17.662 4.65627 17.5467 4.65627 17.3736 4.65627C17.2582 4.65627 17.1428 4.65627 16.9697 4.65627C16.6813 4.65627 16.4505 4.59858 16.162 4.54088L15.8159 4.48319C15.7582 4.48319 15.7005 4.48319 15.6428 4.48319C15.3544 4.48319 15.1236 4.65627 15.0659 4.88704C15.0082 5.06012 15.0659 5.1755 15.1236 5.34858C15.1813 5.46396 15.3544 5.57935 15.5274 5.63704L15.6428 5.69473C15.6428 6.79088 15.5851 7.65627 15.6428 8.34858C15.7582 10.0217 15.8159 10.4832 15.8736 10.714C15.989 11.464 16.1044 11.8678 16.2197 12.2717C16.2774 12.5024 16.3351 12.7332 16.3928 12.964C16.4505 13.0793 16.4505 13.2524 16.5082 13.3678C16.6813 14.1178 16.912 14.9255 16.8544 16.5986C16.7967 16.5986 16.739 16.6563 16.739 16.7717L16.6236 17.5217C16.6236 17.5793 16.6236 17.637 16.6813 17.637C16.739 17.6947 16.739 17.6947 16.7967 17.6947H17.8351C17.8928 17.6947 17.9505 17.6947 17.9505 17.637C18.0082 17.5793 18.0082 17.5217 18.0082 17.5217L17.9505 16.7717C17.9505 16.714 17.8928 16.6563 17.8351 16.5986C17.7774 14.9255 18.0082 14.1178 18.1813 13.3678C18.239 13.2524 18.239 13.0793 18.2967 12.964C18.3544 12.7332 18.412 12.5024 18.4697 12.2717C18.5851 11.8678 18.7005 11.4063 18.8159 10.714C18.8736 10.4832 18.9313 10.0217 19.0467 8.34858C19.1044 7.65627 19.0467 6.79088 19.0467 5.69473L19.162 5.63704C19.3351 5.57935 19.4505 5.52165 19.5659 5.34858C19.739 5.23319 19.739 5.06012 19.6813 4.88704ZM16.2774 9.79088H18.6428C18.6428 9.84858 18.6428 9.96396 18.6428 10.0217H16.3351C16.2774 10.0217 16.2774 9.84858 16.2774 9.79088ZM18.7005 5.75242C18.7005 6.79088 18.7582 7.59858 18.7005 8.29088C18.7005 8.81012 18.6428 9.04088 18.6428 9.38704H16.2197C16.2197 9.09858 16.162 8.81012 16.162 8.29088C16.1044 7.59858 16.162 6.79088 16.162 5.75242C16.5659 5.86781 17.0274 5.86781 17.4313 5.86781C17.8351 5.9255 18.2967 5.86781 18.7005 5.75242ZM17.3159 15.2717C17.3736 15.2717 17.3736 15.2717 17.4313 15.2717H17.489C17.489 15.6755 17.4313 16.0793 17.4313 16.5986H17.3159C17.3736 16.0793 17.3736 15.6755 17.3159 15.2717ZM17.5467 14.8101C17.489 14.8101 17.489 14.8678 17.4313 14.8678C17.3736 14.8678 17.3159 14.8678 17.3159 14.8678C17.2582 14.5217 17.2005 14.2332 17.2005 14.0024C17.3159 14.0024 17.3736 14.0601 17.489 14.0601C17.6044 14.0601 17.662 14.0601 17.7197 14.0024C17.662 14.1755 17.6044 14.464 17.5467 14.8101ZM17.0851 17.3486L17.1428 16.9447H17.662L17.7197 17.3486H17.0851ZM18.1236 12.1563C18.0659 12.387 18.0082 12.6178 17.9505 12.9063C17.8928 13.0217 17.8928 13.1947 17.8351 13.3101C17.8351 13.3678 17.8351 13.4255 17.7774 13.4255C17.7197 13.4832 17.5467 13.5409 17.4313 13.5409C17.2582 13.5409 17.0851 13.4832 17.0274 13.4255C17.0274 13.3678 17.0274 13.3101 16.9697 13.3101C16.912 13.1947 16.912 13.0217 16.8544 12.9063C16.7967 12.6178 16.739 12.387 16.6813 12.1563C16.5659 11.7524 16.4505 11.3486 16.3351 10.6563C16.3351 10.5986 16.3351 10.5409 16.3351 10.4832H18.5274C18.5274 10.5409 18.5274 10.5986 18.5274 10.6563C18.3544 11.3486 18.239 11.7524 18.1236 12.1563ZM19.162 5.23319L18.7005 5.34858C18.2967 5.46396 17.8351 5.52165 17.4313 5.52165C17.0274 5.52165 16.5659 5.46396 16.162 5.34858L15.7005 5.23319C15.6428 5.23319 15.5851 5.11781 15.5851 5.06012C15.5851 5.00242 15.6428 4.94473 15.7582 4.94473C15.7582 4.94473 15.7582 4.94473 15.8159 4.94473L16.1044 5.00242C16.3928 5.06012 16.6813 5.11781 16.9697 5.11781C17.0851 5.11781 17.2582 5.11781 17.3736 5.11781C17.489 5.11781 17.662 5.11781 17.7774 5.11781C18.0659 5.11781 18.3544 5.06012 18.6428 5.00242L18.989 4.94473C18.989 4.94473 18.989 4.94473 19.0467 4.94473C19.1044 4.94473 19.162 5.00242 19.2197 5.06012C19.2774 5.11781 19.2197 5.1755 19.162 5.23319Z"
          fill="white"/>
    <path d="M23.7197 27.387C23.6621 27.387 23.5467 27.387 23.489 27.3293C23.4313 27.2717 23.3736 27.214 23.3736 27.1563C23.3159 27.0409 23.3736 26.9255 23.3736 26.8678C23.4313 26.8101 23.4313 26.7524 23.489 26.6947C23.5467 26.637 23.5467 26.637 23.5467 26.5793C23.5467 26.5793 23.5467 26.464 23.5467 26.4063C23.5467 26.3486 23.5467 26.3486 23.489 26.2909C23.4313 26.2332 23.4313 26.2332 23.3736 26.1755C23.3736 26.1755 23.3159 26.1178 23.2582 26.0601C23.2005 26.0024 23.1428 25.9447 23.1428 25.8293C23.1428 25.714 23.2005 25.5986 23.2582 25.5409C23.3736 25.4255 23.489 25.4832 23.6044 25.4832C23.8928 25.4832 23.9505 25.4832 23.9505 25.4832C24.0082 25.4832 24.1236 25.4832 24.1236 25.4255H24.1813C24.1813 25.4255 24.239 25.3678 24.2967 25.3678C24.4121 25.3101 24.5274 25.2524 24.5851 25.2524C24.6428 25.2524 24.8159 25.1947 24.989 25.3101C24.989 25.3101 25.1621 25.4255 25.2197 25.5986C25.2197 25.6563 25.2197 25.714 25.2197 25.8293H25.3351C25.3351 25.8293 25.3351 25.8293 25.3351 25.7717C25.3351 25.6563 25.4505 25.5409 25.4505 25.4832C25.5082 25.4255 25.5659 25.3101 25.739 25.2524C25.8544 25.1947 26.0274 25.1947 26.1428 25.2524C26.2582 25.3101 26.3736 25.4255 26.3736 25.5409C26.4313 25.6563 26.4313 25.714 26.4313 25.8293C26.4313 25.8293 26.4313 25.8293 26.4313 25.887H26.489C26.7197 25.887 26.8351 25.887 26.8351 25.887C26.8928 25.887 27.0082 25.9447 27.1236 26.0024C27.1813 26.0601 27.2967 26.1178 27.3544 26.2909C27.4121 26.4063 27.4121 26.637 27.2967 26.8101C27.239 26.8678 27.1236 26.9255 27.0659 26.9255C26.8351 26.9832 26.6621 26.9832 26.6621 26.9832C26.4313 26.9832 26.3736 26.9832 26.2005 26.9832C26.0274 26.9832 25.9121 26.9832 25.8544 26.9832C25.7967 26.9832 25.6813 26.9255 25.5082 26.8678L25.4505 26.8101C25.3351 26.7524 25.2774 26.7524 25.2774 26.7524H25.2197C25.2197 26.8101 25.1621 26.9255 25.1044 26.9832C25.0467 27.0409 24.989 27.0986 24.8736 27.1563C24.7582 27.214 24.7005 27.214 24.5851 27.214H24.4121C24.2967 27.214 24.239 27.214 24.1236 27.214H24.0082C23.9505 27.214 23.8928 27.214 23.8351 27.214H23.7774C23.8351 27.387 23.7774 27.387 23.7197 27.387ZM23.6044 25.9447C23.6621 25.9447 23.6621 26.0024 23.6044 25.9447C23.6621 26.0024 23.6621 26.0601 23.7197 26.0601L23.7774 26.1178C23.8351 26.2332 23.8351 26.2909 23.8928 26.3486C23.9505 26.464 23.8928 26.5793 23.8928 26.637C23.8928 26.6947 23.8928 26.8101 23.8351 26.8678C23.8351 26.9255 23.7774 26.9255 23.7774 26.9255C23.7774 26.9255 23.7774 26.9255 23.8351 26.9255H23.8928C23.9505 26.9255 24.0082 26.9255 24.0659 26.9255H24.1813C24.2967 26.9255 24.4121 26.9255 24.5274 26.9255H24.7005C24.8159 26.9255 24.8159 26.9255 24.8159 26.9255C24.8736 26.9255 24.8736 26.8678 24.8736 26.8678C24.8736 26.8678 24.8736 26.8101 24.9313 26.8101C24.9313 26.7524 24.989 26.637 25.0467 26.5793C25.1621 26.5217 25.2774 26.464 25.3351 26.464C25.4505 26.464 25.5659 26.464 25.739 26.5793L25.7967 26.637C25.9121 26.6947 26.0274 26.7524 26.0274 26.7524C26.0851 26.7524 26.1428 26.7524 26.3159 26.7524C26.489 26.7524 26.5467 26.7524 26.7774 26.7524C26.7774 26.7524 26.9505 26.7524 27.1236 26.6947C27.1236 26.6947 27.1236 26.6947 27.1813 26.6947C27.1813 26.6947 27.1813 26.637 27.1236 26.637C27.1236 26.5793 27.0659 26.5793 27.0659 26.5793C27.0082 26.5217 26.9505 26.5217 26.8928 26.5217C26.8928 26.5217 26.8351 26.5217 26.6044 26.5217H26.5467C26.3736 26.5217 26.2582 26.5217 26.2005 26.4063C26.1428 26.3486 26.1428 26.2332 26.1428 26.1755C26.1428 26.1755 26.1428 26.1178 26.1428 26.0601C26.1428 26.0024 26.1428 25.9447 26.1428 25.9447C26.1428 25.9447 26.1428 25.887 26.0851 25.887C26.0274 25.887 26.0274 25.887 25.9697 25.887C25.9121 25.887 25.9121 25.9447 25.8544 25.9447C25.8544 25.9447 25.7967 26.0024 25.7967 26.0601C25.7967 26.1178 25.7967 26.1178 25.7967 26.1178V26.1755C25.7967 26.2332 25.7967 26.3486 25.739 26.4063C25.6236 26.464 25.5659 26.464 25.5082 26.464H25.3928C25.3928 26.464 25.3351 26.464 25.2774 26.464H25.1044H25.0467L24.9313 26.4063C24.8159 26.3486 24.8159 26.1755 24.8159 26.0601C24.8159 25.9447 24.8159 25.9447 24.8159 25.887C24.8159 25.887 24.8159 25.887 24.7582 25.8293C24.7582 25.8293 24.7005 25.8293 24.6428 25.8293C24.6428 25.8293 24.5274 25.887 24.4697 25.887C24.4121 25.887 24.4121 25.9447 24.3544 25.9447C24.2967 25.9447 24.2967 26.0024 24.239 26.0024C24.1813 26.0024 24.0659 26.0601 23.9505 26.0601C23.9505 26.0024 23.8928 26.0024 23.6044 25.9447Z"
          fill="white"/>
    <path d="M26.9505 25.3678C26.7774 25.3678 26.662 25.3678 26.662 25.3678C26.4312 25.3678 26.3735 25.3101 26.2005 25.3101C26.0274 25.3101 25.912 25.2524 25.8543 25.2524C25.7966 25.1947 25.6812 25.1947 25.5658 25.0793L25.5082 25.0217C25.3928 24.964 25.3928 24.964 25.3351 24.964H25.2774C25.2774 25.0217 25.2197 25.0793 25.162 25.1947C25.1043 25.2524 24.9889 25.3101 24.8735 25.3678C24.7582 25.4255 24.7005 25.3678 24.5851 25.3678H24.412C24.2966 25.3678 24.2389 25.3678 24.1235 25.3101H24.0082C23.9505 25.3101 23.8928 25.3101 23.8928 25.3101H23.8351C23.7197 25.3101 23.6043 25.3101 23.4889 25.1947C23.4312 25.137 23.3735 25.0793 23.3735 25.0217C23.3735 24.9063 23.4312 24.7909 23.4312 24.7909C23.4889 24.7332 23.5466 24.6755 23.5466 24.6755C23.6043 24.6178 23.6043 24.6178 23.6043 24.5601C23.6043 24.5601 23.6043 24.5024 23.6043 24.387C23.6043 24.3293 23.6043 24.3293 23.6043 24.2717C23.6043 24.214 23.5466 24.214 23.5466 24.1563C23.5466 24.1563 23.4889 24.0986 23.4889 24.0409C23.4312 23.9255 23.4312 23.8678 23.4312 23.8101C23.4312 23.6947 23.4889 23.5793 23.6043 23.5793C23.7197 23.5217 23.8351 23.5217 23.9505 23.5793C24.2389 23.637 24.2389 23.637 24.2966 23.637C24.3543 23.637 24.4697 23.637 24.4697 23.637H24.5274C24.5274 23.637 24.5851 23.637 24.6428 23.5793C24.7582 23.5217 24.8735 23.5217 24.9312 23.5217C24.9889 23.5217 25.162 23.5217 25.2774 23.637C25.2774 23.637 25.3928 23.7524 25.4505 23.9255C25.4505 23.9832 25.4505 24.0409 25.3928 24.1563L25.5082 24.214C25.5082 24.214 25.5082 24.214 25.5082 24.1563C25.5658 24.0409 25.6235 23.9255 25.6812 23.9255C25.7389 23.8678 25.8543 23.8101 26.0274 23.7524C26.2005 23.7524 26.3158 23.7524 26.4312 23.8678C26.5466 23.9255 26.6043 24.0409 26.662 24.1563C26.662 24.2717 26.662 24.3293 26.662 24.4447C26.662 24.4447 26.662 24.4447 26.662 24.5024H26.7197C26.9505 24.5601 27.0082 24.5601 27.0658 24.5601C27.1235 24.5601 27.2389 24.6178 27.3543 24.7332C27.412 24.7909 27.4697 24.8486 27.5274 25.0217C27.5851 25.1947 27.5274 25.3678 27.3543 25.4832C27.2389 25.5409 27.1812 25.5409 27.1235 25.5409C27.0082 25.3678 26.9505 25.3678 26.9505 25.3678ZM25.2774 24.5024C25.3351 24.5024 25.3351 24.5024 25.2774 24.5024C25.4505 24.5024 25.5658 24.5601 25.6812 24.6755L25.7389 24.7332C25.8543 24.7909 25.912 24.8486 25.9697 24.8486C26.0274 24.8486 26.0851 24.8486 26.2005 24.9063C26.3158 24.9063 26.4312 24.964 26.662 24.964C26.662 24.964 26.8351 24.964 27.0082 24.964C27.0082 24.964 27.0082 24.964 27.0658 24.964V24.9063C27.0658 24.8486 27.0082 24.8486 27.0082 24.7909C26.9505 24.7332 26.9505 24.7332 26.8928 24.7332C26.8928 24.7332 26.8351 24.7332 26.6043 24.6755H26.5466C26.3735 24.6755 26.2582 24.6178 26.2005 24.5024C26.1428 24.387 26.1428 24.3293 26.2005 24.2717C26.2005 24.2717 26.2005 24.214 26.2005 24.1563C26.2005 24.0986 26.2005 24.0409 26.2005 24.0409C26.2005 24.0409 26.2005 23.9832 26.1428 23.9832C26.0851 23.9832 26.0851 23.9832 26.0274 23.9832C25.9697 23.9832 25.9697 24.0409 25.912 24.0409L25.8543 24.0986C25.8543 24.1563 25.8543 24.1563 25.8543 24.1563V24.214C25.8543 24.2717 25.8543 24.387 25.7389 24.4447C25.6235 24.5024 25.5658 24.4447 25.5082 24.4447L25.3928 24.387H25.3351L25.2197 24.3293H25.162L25.1043 24.2717C24.9889 24.1563 25.0466 24.0409 25.0466 23.9255C25.0466 23.8101 25.1043 23.8101 25.1043 23.7524C25.1043 23.7524 25.1043 23.7524 25.1043 23.6947C25.1043 23.6947 25.0466 23.6947 24.9889 23.6947C24.9312 23.6947 24.8735 23.6947 24.8158 23.7524L24.7005 23.8101C24.6428 23.8101 24.6428 23.8101 24.5851 23.8101C24.5274 23.8101 24.412 23.8101 24.2966 23.8101C24.2389 23.8101 24.1812 23.8101 23.9505 23.7524C23.9505 23.8101 24.0082 23.8101 24.0082 23.8101L24.0658 23.8678C24.1235 23.9832 24.1235 24.0409 24.1235 24.0986C24.1235 24.214 24.1235 24.3293 24.0658 24.387C24.0658 24.4447 24.0082 24.5024 23.9505 24.6178L23.8928 24.6755H23.9505C24.0082 24.6755 24.0658 24.6755 24.1235 24.6755H24.2389C24.3543 24.6755 24.4697 24.7332 24.5851 24.7332H24.7582C24.8735 24.7332 24.8735 24.7332 24.8735 24.7332C24.8735 24.7332 24.9312 24.7332 24.9889 24.6755C24.9889 24.6755 24.9889 24.6178 25.0466 24.6178C25.0466 24.5601 25.1043 24.5024 25.2197 24.4447C25.162 24.5024 25.2197 24.5024 25.2774 24.5024Z"
          fill="white"/>
    <path d="M27.1236 23.5793H27.066C26.8929 23.5793 26.7198 23.5216 26.6621 23.5216C26.489 23.464 26.3736 23.464 26.2583 23.464C26.0852 23.4063 26.0275 23.4063 25.9121 23.3486C25.8544 23.2909 25.7967 23.2332 25.6236 23.1755L25.566 23.1178C25.4506 23.0601 25.4506 23.0024 25.4506 23.0024C25.3929 23.0601 25.3352 23.1178 25.2775 23.1755C25.2198 23.2332 25.1044 23.2909 24.989 23.2909C24.8736 23.2909 24.816 23.2909 24.7006 23.2332L24.6429 23.1755C24.5275 23.1755 24.4698 23.1178 24.3544 23.1178H24.239C24.1813 23.1178 24.1813 23.1178 24.1236 23.0601H24.066C23.9506 23.0601 23.8352 23.0024 23.7775 22.887C23.7198 22.8293 23.7198 22.7717 23.6621 22.714C23.6621 22.5986 23.7198 22.4832 23.7198 22.4832C23.7775 22.4255 23.8352 22.3678 23.8352 22.3678C23.8929 22.3678 23.8929 22.3101 23.8929 22.3101C23.8929 22.3101 23.8929 22.2524 23.9506 22.1947C23.9506 22.137 23.9506 22.137 23.9506 22.0793C23.9506 22.0217 23.8929 22.0217 23.8929 21.964C23.8929 21.964 23.8352 21.9063 23.8352 21.8486C23.7775 21.7332 23.7775 21.6755 23.8352 21.6178C23.8352 21.5024 23.9506 21.4447 24.0083 21.387C24.1236 21.3293 24.239 21.387 24.3544 21.4447C24.5852 21.5601 24.6429 21.5601 24.6429 21.5601C24.7006 21.5601 24.7583 21.5601 24.816 21.5601H24.8736C24.8736 21.5601 24.9313 21.5601 24.989 21.5601C25.1044 21.5601 25.2198 21.5024 25.2775 21.5601C25.3352 21.5601 25.5083 21.6178 25.6236 21.7332C25.6236 21.7909 25.739 21.9063 25.739 22.0217C25.739 22.0793 25.739 22.137 25.6813 22.1947H25.739C25.7967 22.0793 25.9121 22.0217 25.9121 21.964C25.9698 21.9063 26.0852 21.8486 26.2583 21.8486C26.3736 21.8486 26.5467 21.9063 26.6044 21.964C26.7198 22.0217 26.7775 22.137 26.7775 22.2524C26.7775 22.3678 26.7775 22.4255 26.7198 22.5409H26.7775C27.0083 22.5986 27.066 22.6563 27.1236 22.6563C27.1813 22.714 27.2967 22.714 27.3544 22.8293C27.4121 22.887 27.4698 22.9447 27.4698 23.1178C27.4698 23.2332 27.4121 23.464 27.239 23.5216C27.239 23.5793 27.1813 23.5793 27.1236 23.5793ZM25.4506 22.5986C25.5083 22.5986 25.5083 22.5986 25.566 22.5986C25.6813 22.5986 25.7967 22.714 25.9121 22.7717L25.9698 22.8293C26.0852 22.887 26.1429 22.9447 26.1429 23.0024C26.2006 23.0024 26.2583 23.0601 26.3736 23.0601C26.489 23.1178 26.6044 23.1178 26.7775 23.1755C26.7775 23.1755 26.9506 23.2332 27.066 23.2332C27.066 23.2332 27.066 23.2332 27.066 23.1755C27.066 23.1178 27.066 23.1178 27.0083 23.1178C26.9506 23.0601 26.9506 23.0601 26.8929 23.0601C26.8929 23.0601 26.8352 23.0601 26.6621 23.0024H26.6044C26.4313 22.9447 26.3736 22.9447 26.316 22.8293C26.2583 22.714 26.316 22.6563 26.316 22.5986C26.316 22.5986 26.316 22.5409 26.316 22.4832C26.316 22.4255 26.316 22.3678 26.316 22.3678C26.316 22.3678 26.316 22.3101 26.2583 22.3101C26.2583 22.3101 26.2006 22.2524 26.2006 22.3101C26.1429 22.3101 26.1429 22.3101 26.0852 22.3678L26.0275 22.4255V22.4832V22.5409C26.0275 22.5986 25.9698 22.6563 25.9121 22.714C25.7967 22.7717 25.739 22.714 25.6813 22.714H25.6236C25.566 22.714 25.566 22.714 25.5083 22.6563L25.3929 22.5986H25.3352L25.2775 22.3101C25.2198 22.1947 25.2198 22.0793 25.2775 21.964C25.3352 21.9063 25.3352 21.8486 25.3352 21.8486H25.2775C25.2775 21.8486 25.1621 21.8486 25.1044 21.8486H24.989C24.9313 21.8486 24.9313 21.8486 24.8736 21.8486C24.816 21.8486 24.7583 21.8486 24.6429 21.8486C24.5852 21.8486 24.5275 21.8486 24.3544 21.7332C24.3544 21.7909 24.4121 21.7909 24.4121 21.7909C24.4121 21.8486 24.4121 21.8486 24.4698 21.8486C24.5275 21.964 24.4698 22.0217 24.4698 22.0793C24.4698 22.1947 24.4121 22.3101 24.4121 22.3678C24.4121 22.4255 24.3544 22.4832 24.2967 22.5409C24.2967 22.5409 24.2967 22.5409 24.239 22.5409H24.2967C24.3544 22.5409 24.4121 22.5409 24.4698 22.5986H24.5275C24.6429 22.6563 24.7583 22.6563 24.816 22.6563L24.9313 22.714C25.0467 22.714 25.0467 22.714 25.0467 22.714C25.0467 22.714 25.1044 22.714 25.1044 22.6563C25.1044 22.6563 25.1044 22.6563 25.1621 22.5986C25.2198 22.5409 25.2198 22.4832 25.3352 22.4255C25.3352 22.5986 25.3929 22.5986 25.4506 22.5986Z"
          fill="white"/>
    <path d="M27.2967 21.6755C27.239 21.6755 27.239 21.6755 27.2967 21.6755C27.0659 21.6755 26.9506 21.6178 26.8929 21.6178C26.7198 21.5601 26.6621 21.5601 26.5467 21.5024C26.4313 21.4447 26.3159 21.4447 26.2582 21.387C26.2006 21.3293 26.1429 21.2717 26.0275 21.1563H25.9121C25.8544 21.0986 25.8544 21.0986 25.8544 21.0986C25.7967 21.0986 25.7967 21.1563 25.739 21.214C25.6813 21.2717 25.5659 21.3293 25.4506 21.3293C25.3352 21.3293 25.2775 21.3293 25.1621 21.2717L25.0467 21.214C24.989 21.214 24.8736 21.1563 24.8159 21.1563H24.7582C24.7006 21.1563 24.7006 21.1563 24.6429 21.0986C24.5275 21.0409 24.4121 21.0409 24.2967 20.9255C24.239 20.8678 24.239 20.8101 24.239 20.7524C24.239 20.637 24.2967 20.5793 24.2967 20.5217C24.3544 20.464 24.4121 20.4063 24.4121 20.4063C24.4698 20.3486 24.4698 20.3486 24.4698 20.2909C24.4698 20.2909 24.5275 20.2332 24.5275 20.1178C24.5275 20.0601 24.5275 20.0601 24.5275 20.0024C24.5275 19.9447 24.5275 19.9447 24.4698 19.887C24.4698 19.887 24.4698 19.8293 24.4121 19.7717C24.4121 19.6563 24.4121 19.5986 24.4121 19.5409C24.4121 19.4255 24.5275 19.3678 24.5852 19.3101C24.7006 19.2524 24.8159 19.3101 24.9313 19.3101C25.1621 19.4255 25.1621 19.4255 25.2198 19.4255C25.2775 19.4255 25.3352 19.4255 25.3352 19.4255H25.3929C25.3929 19.4255 25.4506 19.4255 25.5082 19.4255C25.6236 19.4255 25.6813 19.3678 25.7967 19.4255C25.8544 19.4255 26.0275 19.4832 26.0852 19.5986C26.0852 19.5986 26.2006 19.714 26.1429 19.887C26.1429 19.9447 26.1429 20.0024 26.0852 20.1178C26.1429 20.0024 26.2582 19.9447 26.2582 19.887C26.3159 19.8293 26.4313 19.7717 26.6044 19.7717C26.7198 19.7717 26.8929 19.8293 26.9506 19.9447C27.0082 20.0024 27.0659 20.1178 27.0659 20.2332C27.0659 20.3486 27.0659 20.4063 27.0082 20.5217C27.1813 20.5793 27.239 20.5793 27.2967 20.637C27.3544 20.6947 27.4698 20.7524 27.5275 20.8678C27.5275 20.9255 27.6429 21.0409 27.6429 21.1563C27.6429 21.2717 27.5852 21.5024 27.4121 21.5601C27.4121 21.6755 27.3544 21.6755 27.2967 21.6755ZM25.8544 20.637C25.9121 20.637 25.9121 20.637 25.9698 20.637C26.0852 20.637 26.1429 20.7524 26.2582 20.8101L26.3159 20.8678C26.3736 20.9255 26.4313 20.9832 26.489 21.0409C26.489 21.0409 26.6044 21.0986 26.6621 21.0986C26.7775 21.1563 26.8352 21.1563 27.0082 21.214C27.0082 21.214 27.1236 21.2717 27.2967 21.2717V21.214C27.2967 21.1563 27.2967 21.1563 27.239 21.0986C27.239 21.0409 27.1813 21.0409 27.1813 21.0409C27.1813 21.0409 27.1236 21.0409 26.9506 20.9832H26.8929C26.7775 20.9255 26.6621 20.9255 26.6044 20.7524C26.6044 20.637 26.6044 20.5793 26.6044 20.5217C26.6044 20.5217 26.6044 20.464 26.6621 20.4063C26.6621 20.3486 26.7198 20.2909 26.7198 20.2909V20.2332C26.7198 20.2332 26.7198 20.2332 26.6621 20.2332C26.6044 20.2332 26.6044 20.2332 26.6044 20.2909L26.5467 20.3486C26.5467 20.4063 26.5467 20.4063 26.489 20.4063V20.464C26.489 20.5217 26.4313 20.5793 26.3736 20.637C26.2582 20.6947 26.1429 20.637 26.1429 20.5793H26.0852C26.0275 20.5793 26.0275 20.5793 25.9698 20.5217L25.9121 20.464H25.8544L25.739 20.3486C25.6813 20.2332 25.739 20.1178 25.739 20.0024C25.7967 19.887 25.7967 19.887 25.7967 19.8293V19.7717C25.7967 19.7717 25.7967 19.7717 25.739 19.7717C25.739 19.7717 25.6813 19.7717 25.5659 19.7717H25.4506C25.3929 19.7717 25.3929 19.7717 25.3352 19.7717C25.2775 19.7717 25.1621 19.7717 25.1044 19.7717C25.0467 19.7717 25.0467 19.7717 24.8736 19.6563C24.8736 19.714 24.8736 19.714 24.9313 19.714C24.9313 19.7717 24.9313 19.7717 24.9313 19.7717C24.9313 19.887 24.9313 19.9447 24.9313 20.0024C24.9313 20.1178 24.8736 20.2332 24.8736 20.2909C24.8159 20.3486 24.8159 20.4063 24.7582 20.464L24.7006 20.5217C24.7582 20.5217 24.8159 20.5217 24.8159 20.5793H24.8736C24.989 20.5793 25.0467 20.637 25.1621 20.637L25.2775 20.6947C25.3352 20.6947 25.3352 20.6947 25.3352 20.6947C25.3352 20.6947 25.3929 20.6947 25.3929 20.637C25.3929 20.637 25.3929 20.5793 25.4506 20.5793C25.5082 20.5217 25.5082 20.464 25.6236 20.4063C25.739 20.637 25.7967 20.637 25.8544 20.637Z"
          fill="white"/>
    <path d="M27.7582 19.8293C27.7005 19.8293 27.7005 19.8293 27.7005 19.8293C27.5274 19.8293 27.412 19.7717 27.3543 19.7717C27.1812 19.714 27.1235 19.714 27.0081 19.6563C26.8928 19.5986 26.7774 19.5986 26.7197 19.5409C26.662 19.4832 26.6043 19.4255 26.4889 19.3678L26.4312 19.3101C26.3735 19.2524 26.3735 19.2524 26.3735 19.2524C26.3735 19.3101 26.3158 19.3678 26.2581 19.4255C26.2005 19.4255 26.1428 19.4255 26.0274 19.4255C25.912 19.4255 25.8543 19.4255 25.7389 19.3678L25.6235 19.3101C25.5658 19.2524 25.4505 19.2524 25.3928 19.2524H25.3351C25.2774 19.2524 25.2774 19.2524 25.2197 19.1947C25.1043 19.137 24.9889 19.137 24.9312 19.0217C24.8735 18.964 24.8735 18.9063 24.8735 18.8486C24.8735 18.7332 24.9312 18.6755 24.9889 18.6178C25.0466 18.5601 25.1043 18.5601 25.1043 18.5024L25.162 18.4447C25.162 18.4447 25.2197 18.387 25.2197 18.3293C25.2197 18.2717 25.2197 18.2717 25.2197 18.214C25.2197 18.1563 25.2197 18.1563 25.162 18.0986C25.162 18.0986 25.162 18.0409 25.1043 17.9832C25.1043 17.9255 25.1043 17.8678 25.1043 17.7524C25.1043 17.637 25.2197 17.5793 25.2774 17.5217C25.3928 17.464 25.5082 17.5217 25.6235 17.5793C25.7966 17.6947 25.8543 17.6947 25.8543 17.6947C25.912 17.6947 25.9697 17.6947 25.9697 17.6947C25.9697 17.6947 25.9697 17.6947 26.0274 17.6947H26.1428C26.2581 17.6947 26.3158 17.6947 26.4312 17.6947C26.4889 17.6947 26.6043 17.7524 26.7197 17.8678C26.7197 17.9255 26.8351 18.0409 26.7774 18.1563C26.7774 18.214 26.7774 18.214 26.7197 18.2717C26.7774 18.214 26.8351 18.1563 26.8351 18.1563C26.8928 18.0986 27.0081 18.0409 27.1235 18.0409C27.2389 18.0409 27.3543 18.0986 27.4697 18.214C27.5274 18.2717 27.5851 18.387 27.5851 18.5024C27.5851 18.6178 27.5851 18.6755 27.5274 18.7332C27.7005 18.7909 27.7581 18.8486 27.8158 18.8486C27.8735 18.9063 27.9312 18.964 28.0466 19.0217C28.0466 19.0793 28.1043 19.137 28.1043 19.3101C28.1043 19.4255 28.0466 19.5986 27.8735 19.714C27.8735 19.8293 27.8158 19.8293 27.7582 19.8293ZM26.4312 18.7909C26.4889 18.7909 26.5466 18.7909 26.5466 18.7909C26.662 18.8486 26.7197 18.9063 26.8351 18.964L26.8928 19.0217C26.9505 19.0793 27.0081 19.137 27.0081 19.137C27.0081 19.137 27.1235 19.1947 27.1812 19.1947C27.2966 19.2524 27.3543 19.2524 27.5274 19.3101C27.5274 19.3101 27.6428 19.3678 27.7582 19.3678C27.7582 19.3678 27.7582 19.3678 27.7582 19.3101V19.2524C27.7582 19.1947 27.7005 19.1947 27.7005 19.1947C27.7005 19.1947 27.6428 19.1947 27.5274 19.137C27.3543 19.0793 27.2966 19.0217 27.2389 18.9063C27.2389 18.7909 27.2389 18.7332 27.2389 18.6755C27.2389 18.6755 27.2389 18.6178 27.2966 18.6178C27.2966 18.5601 27.3543 18.5024 27.3543 18.5024V18.4447C27.3543 18.4447 27.3543 18.4447 27.2966 18.4447C27.2966 18.4447 27.2389 18.4447 27.2389 18.5024C27.2389 18.5024 27.1812 18.5024 27.1812 18.5601V18.6178V18.6755C27.1812 18.7332 27.1235 18.7909 27.0658 18.8486C26.9505 18.9063 26.8351 18.8486 26.8351 18.7909H26.7774C26.7197 18.7909 26.7197 18.7909 26.7197 18.7332L26.662 18.6755H26.6043L26.4889 18.5601C26.4312 18.4447 26.4889 18.3293 26.4889 18.2717C26.5466 18.214 26.5466 18.1563 26.5466 18.1563V17.9255L26.4889 18.0986C26.4889 18.0986 26.4312 18.0986 26.3735 18.0986H26.2581C26.2005 18.0986 26.2005 18.0986 26.1428 18.0986C26.0851 18.0986 25.9697 18.0986 25.912 18.0409C25.8543 18.0409 25.8543 18.0409 25.7389 17.9832V18.0409V18.0986C25.7389 18.214 25.7389 18.2717 25.7389 18.3293C25.7389 18.4447 25.6812 18.5601 25.6812 18.5601C25.6812 18.6178 25.6235 18.6755 25.5658 18.7332C25.6235 18.7332 25.6235 18.7332 25.6812 18.7909H25.7389C25.8543 18.8486 25.912 18.8486 25.9697 18.9063L26.0851 18.964C26.1428 18.964 26.1428 18.964 26.1428 18.964H26.2005C26.2005 18.964 26.2005 18.964 26.2581 18.9063C26.3158 18.8486 26.3158 18.7909 26.4312 18.7332C26.3158 18.7909 26.3735 18.7909 26.4312 18.7909Z"
          fill="white"/>
    <path d="M23.5466 31.4832C23.4312 31.4832 23.3735 31.4255 23.3735 31.3678C23.3158 31.3101 23.3735 31.1947 23.4312 31.137C23.4312 31.137 23.8927 30.7909 24.3543 30.4447L24.4697 30.387C24.585 30.3293 24.585 30.3294 24.6427 30.214V30.1563C24.7581 29.9832 24.7581 29.8101 24.7004 29.7524C24.6427 29.6947 24.4697 29.5794 24.3543 29.5217L24.4697 29.3486L24.3543 29.5217C24.2389 29.464 23.9504 29.2909 23.835 28.887C23.7197 28.5409 23.835 28.2524 24.0081 28.0794C24.1235 28.0217 24.1812 27.964 24.2966 27.964C24.3543 27.964 24.4697 27.964 24.585 27.9063C24.7581 27.8486 24.9312 27.7909 24.9889 27.7332C25.0466 27.7332 25.0466 27.6755 25.0466 27.6755C25.1043 27.5601 25.162 27.5024 25.3927 27.4447C25.5658 27.387 25.8543 27.387 26.0274 27.5601C26.1427 27.6755 26.1427 27.7909 26.1427 28.0217V28.137C26.1427 28.4255 26.2004 28.4832 26.2004 28.4832C26.2004 28.5409 26.2581 28.5409 26.2581 28.5409C26.3158 28.5986 26.3735 28.5986 26.4312 28.714C26.5466 28.9447 26.4312 29.1755 26.3735 29.3486C26.3158 29.4063 26.3158 29.464 26.2581 29.5217C26.2581 29.5794 26.2581 29.5793 26.2581 29.5793C26.2581 29.637 26.3158 29.6947 26.3158 29.8101C26.2581 29.9255 26.2004 29.9832 26.1427 30.0409C26.085 30.0409 26.085 30.0986 26.0274 30.0986L25.912 30.1563C25.7966 30.214 25.7966 30.2717 25.7966 30.2717C25.7966 30.387 25.7966 30.5024 25.7389 30.5601C25.6812 30.6755 25.5081 30.7332 25.4504 30.7909C25.3927 30.7909 25.335 30.8486 25.2774 30.8486L25.2197 30.9063C25.162 30.964 25.1043 31.0217 25.0466 31.0793C24.8735 31.1947 24.6427 31.2524 24.3543 31.3101H24.2389C24.1235 31.3101 24.0658 31.3678 24.0081 31.3678C23.662 31.4255 23.5466 31.4832 23.5466 31.4832ZM25.5081 27.7909C25.4504 27.7909 25.3927 27.7909 25.3927 27.7909C25.335 27.7909 25.335 27.7909 25.335 27.7909C25.2774 27.8486 25.2197 27.9063 25.162 27.964C25.162 27.964 25.162 27.964 25.1043 27.964C25.1043 27.964 24.8735 28.0794 24.6427 28.1947C24.4697 28.2524 24.3543 28.2524 24.2389 28.3101C24.1812 28.3101 24.1812 28.3101 24.1235 28.3101C24.1235 28.3101 24.0658 28.4255 24.1235 28.6563C24.2389 28.9447 24.3543 29.0024 24.4697 29.0601C24.4697 29.0601 24.4697 29.0601 24.5274 29.0601C24.7004 29.1755 24.8735 29.2909 24.9889 29.3486C25.162 29.5217 25.2774 29.8101 24.9889 30.214C24.8735 30.387 24.8158 30.4447 24.7004 30.5601L24.585 30.6178C24.5274 30.6755 24.4697 30.7332 24.3543 30.7909C24.5274 30.7332 24.6427 30.7332 24.7004 30.6755C24.7004 30.6755 24.7581 30.6178 24.8158 30.5601C24.8735 30.5024 24.9312 30.4447 24.9889 30.387C25.1043 30.3293 25.162 30.3293 25.2197 30.2717H25.2774C25.2774 30.2717 25.2774 30.214 25.2774 30.1563C25.2774 30.0986 25.2774 30.0986 25.2774 30.0409C25.335 29.8678 25.4504 29.8101 25.5658 29.6947L25.6812 29.637C25.7389 29.5794 25.7966 29.5794 25.8543 29.5217C25.8543 29.464 25.7966 29.4063 25.7966 29.3486C25.7966 29.2332 25.8543 29.1178 25.912 29.1178C25.912 29.1178 25.9697 29.0601 25.9697 29.0024C26.0274 28.887 26.085 28.8294 26.0274 28.7717C26.0274 28.7717 26.0274 28.7717 25.9697 28.714C25.912 28.6563 25.8543 28.6563 25.7966 28.5409C25.6812 28.4255 25.6812 28.3101 25.6812 27.964V27.8486C25.6812 27.7909 25.6812 27.6755 25.6812 27.6755C25.6812 27.7909 25.5658 27.7909 25.5081 27.7909Z"
          fill="white"/>
    <path d="M28.9697 19.5409C28.6236 20.4063 28.4505 21.3293 28.3928 22.2524C28.3351 22.714 28.3351 23.1755 28.3928 23.637C28.3928 23.8678 28.4505 24.0986 28.4505 24.3293L28.5659 25.0217C28.6813 26.0024 28.5659 26.9832 28.2774 27.9063C28.1044 28.3678 27.9313 28.8293 27.7005 29.2332C27.5851 29.464 27.4697 29.637 27.2967 29.8678C27.239 29.9832 27.1236 30.0409 27.0659 30.1563L26.8351 30.387V30.4447C26.8351 30.4447 26.7774 30.5024 26.7197 30.4447C26.7197 30.4447 26.662 30.387 26.7197 30.387C26.7774 30.2717 26.8928 30.1563 26.9505 30.0986C27.0082 29.9832 27.0659 29.9255 27.1236 29.8101C27.239 29.637 27.3544 29.4063 27.4697 29.1755C27.7005 28.7717 27.8736 28.3101 27.989 27.8486C28.2197 26.9255 28.2774 26.0024 28.162 25.0793L28.0467 24.387C27.989 24.1563 27.989 23.9255 27.989 23.637C27.989 23.1755 27.989 22.6563 28.0467 22.1947C28.162 21.2717 28.4505 20.2909 28.7967 19.4255C28.7967 19.3678 28.8544 19.3678 28.912 19.3678C28.9697 19.4832 28.9697 19.5409 28.9697 19.5409Z"
          fill="white"/>
</svg>
