<svg width="64" height="19" fill="none" xmlns="http://www.w3.org/2000/svg"><g clip-path="url(#clip0)" fill-rule="evenodd" clip-rule="evenodd"><path d="M17.246 0v.008c-.008 0-2.5-.008-3.164 2.373a2632.61 2632.61 0 01-2.374 8.378h-.474S9.477 4.596 8.86 2.373C8.196-.007 5.696 0 5.696 0H0v18.116h5.696V7.357h.475l3.322 10.76h3.956L16.77 7.364h.475v10.751h5.696V0h-5.696zm20.806 0s-1.67.15-2.452 1.899l-4.035 8.86h-.475V0h-5.695v18.116h5.379s1.748-.158 2.532-1.898l3.955-8.86h.475v10.758h5.696V0h-5.38zm7.911 8.228v9.888h5.696v-5.775h6.17a6.163 6.163 0 005.815-4.113H45.963z" fill="#4DB45E"/><path d="M57.83 0H45.164a9.1 9.1 0 008.947 7.436h9.763c.087-.411.126-.83.126-1.265A6.167 6.167 0 0057.83 0z" fill="url(#paint0_linear)"/></g><defs><linearGradient id="paint0_linear" x1="45.166" y1="3.718" x2="64" y2="3.718" gradientUnits="userSpaceOnUse"><stop offset=".3" stop-color="#00B4E6"/><stop offset="1" stop-color="#088CCB"/></linearGradient><clipPath id="clip0"><path fill="#fff" d="M0 0h64v18.116H0z"/></clipPath></defs></svg>