<svg width="72" height="72" fill="none" xmlns="http://www.w3.org/2000/svg"><path d="M36 72c19.882 0 36-16.118 36-36S55.882 0 36 0 0 16.118 0 36s16.118 36 36 36z" fill="url(#paint0_linear)"/><path d="M36 4.154C53.538 4.154 67.846 18.46 67.846 36c0 17.538-14.308 31.846-31.846 31.846S4.154 53.538 4.154 36C4.154 18.46 18.462 4.154 36 4.154zm0-1.385c-18.37 0-33.23 14.862-33.23 33.23 0 18.37 14.86 33.232 33.23 33.232 18.37 0 33.23-14.862 33.23-33.231C69.23 17.63 54.37 2.769 36 2.769z" fill="#fff"/><path d="M53.128 26.699c-1.621 0-3 .74-3.972 1.892-.892-1.152-2.351-1.892-3.973-1.892-2.756 0-5.026 2.303-5.026 5.1 0 6.335 8.188 10.531 8.512 10.696.162.082.324.082.487.082.162 0 .324 0 .486-.082.324-.165 8.512-4.36 8.512-10.695 0-2.798-2.27-5.101-5.026-5.101zM49.156 40.19c-1.622-.987-6.73-4.278-6.73-8.392 0-1.563 1.298-2.879 2.838-2.879s2.838 1.316 2.838 2.88c0 .658.486 1.151 1.135 1.151.648 0 1.135-.493 1.135-1.152 0-1.563 1.297-2.879 2.837-2.879 1.54 0 2.837 1.316 2.837 2.88-.08 4.195-5.188 7.486-6.89 8.391zm-12.548 5.066c1.297-.494 2.27-1.728 2.27-3.209 0-1.892-1.54-3.455-3.405-3.455h-5.594v-4.196c0-.494-.08-.987-.324-1.48 1.54-.66 2.594-2.14 2.594-3.868 0-2.303-1.864-4.195-4.134-4.195-2.27 0-4.135 1.892-4.135 4.195 0 .905.325 1.728.81 2.469a3.443 3.443 0 00-1.54 2.879v7.322c-.324.082-.729.082-1.053.247l-.973-9.461c-.162-1.728-1.621-3.044-3.324-3.044h-.973c-.648 0-1.135.493-1.135 1.151 0 .659.487 1.152 1.135 1.152h.973c.568 0 1.054.412 1.135.988l1.054 10.037c-2.513 1.563-4.297 4.36-4.297 7.568 0 4.854 3.892 8.721 8.593 8.721 4.378 0 8.026-3.373 8.594-7.733 0 .164.08.329.08.493v3.785c0 1.892 1.541 3.455 3.406 3.455 1.864 0 3.404-1.563 3.404-3.455v-3.785c-.162-2.632-1.297-5.018-3.161-6.581zm-8.593-18.1c1.053 0 1.864.823 1.864 1.892 0 1.07-.81 1.893-1.864 1.893s-1.865-.823-1.865-1.893.81-1.892 1.865-1.892zm-2.676 7.24c0-.658.487-1.152 1.135-1.152.649 0 1.135.494 1.135 1.152v5.347c0 .659.487 1.152 1.135 1.152h6.729c.648 0 1.135.494 1.135 1.152 0 .658-.487 1.152-1.135 1.152h-6.404c-1.054-.74-2.351-1.234-3.73-1.481v-7.322zm-1.053 22.46c-3.486 0-6.405-2.88-6.405-6.5s2.837-6.499 6.404-6.499c3.567 0 6.405 2.88 6.405 6.5s-2.919 6.499-6.405 6.499zm13.133-1.152c0 .658-.487 1.152-1.135 1.152-.649 0-1.135-.494-1.135-1.152V51.92c0-1.728-1.054-3.209-2.595-3.867-.243-.905-.648-1.81-1.216-2.55 3.324.164 6 3.044 6 6.499v3.702h.08z" fill="#fff"/><path d="M24.285 46.16c-2.27 0-4.134 1.893-4.134 4.196 0 2.304 1.864 4.196 4.134 4.196 2.27 0 4.135-1.892 4.135-4.196-.081-2.303-1.865-4.195-4.135-4.195zm0 6.089c-1.053 0-1.864-.823-1.864-1.893s.81-1.892 1.864-1.892 1.865.823 1.865 1.892c0 1.07-.892 1.893-1.865 1.893zm-1.539-39.326c.243 0 .405.165.405.412v1.645c0 1.728-.081 3.29-.162 4.278.243-.822.73-1.974.973-2.715l1.216-3.29a.445.445 0 01.405-.247h.892c.243 0 .405.164.405.411v8.474c0 .247-.162.411-.405.411h-.73c-.243 0-.405-.164-.405-.411v-1.646c0-1.892.08-3.208.08-4.195-.242.822-.648 1.974-.89 2.715l-1.217 3.29a.445.445 0 01-.405.247h-.973c-.243 0-.405-.164-.405-.411v-8.556c0-.247.162-.412.405-.412h.81zm11.835.412v8.474c0 .246-.162.41-.405.41h-.973c-.243 0-.405-.164-.405-.41v-6.911c0-.247-.162-.412-.406-.412h-.973c-.243 0-.405.165-.405.412v6.91c0 .247-.162.412-.405.412h-.973c-.243 0-.405-.165-.405-.411v-8.474c0-.247.162-.412.405-.412h4.54c.243 0 .405.165.405.412zm2.27.082c0-.165.163-.411.325-.411.405-.083.972-.083 1.54-.083 1.054 0 1.864.165 2.513.74.568.494.81 1.235.81 2.057 0 .988-.324 1.728-.81 2.222-.568.576-1.46.905-2.189.905h-.324v3.044c0 .247-.162.411-.405.411h-.973c-.243 0-.406-.164-.406-.411v-8.474h-.08zm1.784 3.867h.324c.892 0 1.297-.659 1.297-1.481 0-.823-.324-1.481-1.135-1.481-.162 0-.324 0-.405.082v2.88h-.081zm5.837 3.126l-.243 1.48c0 .165-.243.33-.406.33h-.891c-.244 0-.487-.247-.406-.494l1.784-8.474c0-.164.243-.329.405-.329h1.46c.162 0 .324.165.405.33l1.621 8.473c.081.247-.162.494-.405.494h-.892c-.162 0-.324-.165-.405-.33l-.244-1.48c0-.165-.243-.33-.405-.33h-.973c-.162 0-.324.165-.405.33zm1.054-1.728c.243 0 .405-.246.405-.493l-.243-1.481c-.081-.576-.162-1.481-.243-2.057-.081.658-.243 1.563-.325 2.14l-.243 1.48c-.08.247.162.494.406.494h.243v-.083z" fill="#fff"/><defs><linearGradient id="paint0_linear" x1="2.308" y1="19.846" x2="68.769" y2="50.769" gradientUnits="userSpaceOnUse"><stop stop-color="#6A11CB"/><stop offset="1" stop-color="#2575FC"/></linearGradient></defs></svg>