<svg width="18" height="18" viewBox="0 0 18 18" fill="none" xmlns="http://www.w3.org/2000/svg">
<path d="M12.5401 10.6812C14.7441 7.63007 14.007 3.4052 10.8948 1.24501C7.7827 -0.91517 3.47331 -0.193044 1.26992 2.85857C-0.933476 5.90967 -0.196905 10.134 2.91575 12.2942C5.13705 13.836 8.07385 13.9547 10.4168 12.5982L15.5075 17.5592C16.0571 18.1265 16.9717 18.1492 17.5503 17.6103C18.1289 17.0719 18.1521 16.1753 17.6029 15.608C17.5856 15.59 17.5687 15.5735 17.5503 15.5564L12.5401 10.6812ZM6.90081 11.1437C4.44154 11.1442 2.44769 9.19098 2.44611 6.77994C2.44559 4.36889 4.43786 2.41415 6.89766 2.41311C9.35377 2.41208 11.3466 4.36218 11.3513 6.77013C11.3555 9.18169 9.3643 11.1395 6.90397 11.1437C6.90292 11.1437 6.90239 11.1437 6.90081 11.1437Z" fill="#545454"/>
</svg>
