<svg width="46" height="11" viewBox="0 0 46 11" fill="none" xmlns="http://www.w3.org/2000/svg">
<path d="M14.301 2.34188C14.1336 1.71765 13.6423 1.2271 13.0172 1.06C11.8852 0.756836 7.34428 0.756836 7.34428 0.756836C7.34428 0.756836 2.80331 0.756836 1.67135 1.06C1.04621 1.2271 0.554935 1.71765 0.387592 2.34188C0.0839845 3.47217 0.0839844 5.83183 0.0839844 5.83183C0.0839844 5.83183 0.0839845 8.19149 0.387592 9.32179C0.554935 9.94602 1.04621 10.4366 1.67135 10.6037C2.80331 10.9068 7.34428 10.9068 7.34428 10.9068C7.34428 10.9068 11.8852 10.9068 13.0172 10.6037C13.6423 10.4366 14.1336 9.94602 14.301 9.32179C14.6046 8.19149 14.6046 5.83183 14.6046 5.83183C14.6046 5.83183 14.6034 3.47217 14.301 2.34188Z" fill="#FF0000"/>
<path d="M5.89062 8.00654L9.66301 5.83188L5.89062 3.65723V8.00654Z" fill="white"/>
<path d="M21.1621 9.99039C20.8752 9.79704 20.6708 9.49626 20.5489 9.08807C20.4281 8.67987 20.3672 8.138 20.3672 7.46006V6.53744C20.3672 5.85353 20.4365 5.3033 20.5752 4.88914C20.7138 4.47498 20.9302 4.17181 21.2242 3.98204C21.5183 3.79226 21.9044 3.69678 22.3825 3.69678C22.8534 3.69678 23.2299 3.79346 23.5144 3.98681C23.7977 4.18017 24.0057 4.48333 24.1372 4.89391C24.2687 5.30569 24.3344 5.85353 24.3344 6.53744V7.46006C24.3344 8.138 24.2699 8.68226 24.142 9.09284C24.0141 9.50462 23.8061 9.80539 23.5192 9.99517C23.2323 10.1849 22.8427 10.2804 22.3514 10.2804C21.8446 10.2816 21.4489 10.1837 21.1621 9.99039ZM22.7709 8.99497C22.8498 8.78729 22.8905 8.44951 22.8905 7.97925V5.99915C22.8905 5.54321 22.851 5.20901 22.7709 4.99895C22.6909 4.78769 22.551 4.68265 22.3502 4.68265C22.1566 4.68265 22.0191 4.78769 21.9402 4.99895C21.8601 5.21021 21.8207 5.54321 21.8207 5.99915V7.97925C21.8207 8.44951 21.8589 8.78848 21.9354 8.99497C22.0119 9.20265 22.1494 9.30649 22.3502 9.30649C22.551 9.30649 22.6909 9.20265 22.7709 8.99497Z" fill="#282828"/>
<path d="M43.2173 7.47563V7.79669C43.2173 8.20489 43.2293 8.51044 43.2532 8.71454C43.2771 8.91864 43.3273 9.06664 43.4038 9.16093C43.4803 9.25402 43.5974 9.30057 43.7564 9.30057C43.9703 9.30057 44.1186 9.21702 44.1975 9.05112C44.2775 8.88521 44.3206 8.60831 44.3277 8.2216L45.5637 8.29441C45.5709 8.34931 45.5744 8.4257 45.5744 8.52238C45.5744 9.1096 45.4131 9.54883 45.0915 9.83887C44.77 10.1289 44.3146 10.2745 43.7265 10.2745C43.0201 10.2745 42.5252 10.0537 42.2419 9.6109C41.9575 9.16809 41.8164 8.48418 41.8164 7.55798V6.44798C41.8164 5.49433 41.9634 4.79729 42.2575 4.35806C42.5515 3.91883 43.0547 3.69922 43.7683 3.69922C44.2596 3.69922 44.6373 3.78873 44.9003 3.96896C45.1633 4.14919 45.3485 4.42848 45.4561 4.80922C45.5637 5.18997 45.6175 5.71513 45.6175 6.38591V7.47443H43.2173V7.47563ZM43.399 4.80087C43.3261 4.89039 43.2783 5.03719 43.2532 5.24129C43.2293 5.44539 43.2173 5.75452 43.2173 6.16988V6.62582H44.2656V6.16988C44.2656 5.76168 44.2512 5.45255 44.2238 5.24129C44.1963 5.03003 44.1461 4.88203 44.0731 4.7949C44.0002 4.70897 43.8879 4.6648 43.7361 4.6648C43.5831 4.666 43.4707 4.71135 43.399 4.80087Z" fill="#282828"/>
<path d="M17.6714 7.35601L16.041 1.47656H17.4634L18.0348 4.14177C18.1806 4.79823 18.287 5.358 18.3563 5.8211H18.3982C18.446 5.48929 18.5536 4.9331 18.7197 4.15132L19.3114 1.47656H20.7338L19.0831 7.35601V10.1764H17.6702V7.35601H17.6714Z" fill="#282828"/>
<path d="M28.9617 3.82102V10.1779H27.8405L27.7162 9.39969H27.6851C27.3803 9.98692 26.9237 10.2805 26.3141 10.2805C25.8921 10.2805 25.5802 10.1421 25.3793 9.86638C25.1785 9.58947 25.0781 9.1574 25.0781 8.57017V3.82102H26.5113V8.48663C26.5113 8.77069 26.5424 8.9724 26.6045 9.09295C26.6667 9.2135 26.7707 9.27437 26.9165 9.27437C27.0408 9.27437 27.1604 9.23618 27.2751 9.15979C27.3899 9.0834 27.4735 8.98672 27.5297 8.86976V3.81982H28.9617V3.82102Z" fill="#282828"/>
<path d="M36.3113 3.82102V10.1779H35.1901L35.0658 9.39969H35.0347C34.7299 9.98692 34.2733 10.2805 33.6637 10.2805C33.2417 10.2805 32.9298 10.1421 32.729 9.86638C32.5281 9.58947 32.4277 9.1574 32.4277 8.57017V3.82102H33.8609V8.48663C33.8609 8.77069 33.892 8.9724 33.9541 9.09295C34.0163 9.2135 34.1203 9.27437 34.2661 9.27437C34.3904 9.27437 34.51 9.23618 34.6247 9.15979C34.7395 9.0834 34.8231 8.98672 34.8793 8.86976V3.81982H36.3113V3.82102Z" fill="#282828"/>
<path d="M32.8543 2.62813H31.4319V10.1774H30.0298V2.62813H28.6074V1.47754H32.8543V2.62813Z" fill="#282828"/>
<path d="M41.0546 4.8362C40.9673 4.43516 40.8274 4.14513 40.6338 3.9649C40.4402 3.78468 40.1736 3.69516 39.8341 3.69516C39.5712 3.69516 39.3249 3.76916 39.0966 3.91835C38.8683 4.06755 38.6914 4.2621 38.5671 4.50439H38.5564V1.15527H37.1758V10.1762H38.3591L38.505 9.57461H38.536C38.6472 9.78945 38.8134 9.95774 39.0345 10.0831C39.2556 10.2072 39.5018 10.2693 39.772 10.2693C40.2561 10.2693 40.6135 10.0461 40.8418 9.60087C41.0701 9.15448 41.1848 8.45864 41.1848 7.51096V6.50479C41.1848 5.79462 41.1406 5.23723 41.0546 4.8362ZM39.7409 7.42979C39.7409 7.89289 39.7218 8.25573 39.6835 8.51832C39.6453 8.7809 39.5819 8.96829 39.4911 9.07809C39.4014 9.18909 39.2795 9.244 39.1277 9.244C39.0094 9.244 38.9006 9.21655 38.8002 9.16045C38.6998 9.10554 38.6185 9.022 38.5564 8.91219V5.30407C38.6042 5.13101 38.6878 4.99017 38.8062 4.87917C38.9233 4.76817 39.0524 4.71326 39.1899 4.71326C39.3357 4.71326 39.4481 4.77055 39.527 4.88394C39.607 4.99852 39.662 5.18949 39.6931 5.45923C39.7242 5.72898 39.7397 6.11211 39.7397 6.60982V7.42979H39.7409Z" fill="#282828"/>
</svg>
