<?xml version="1.0" encoding="UTF-8" standalone="no"?>
<svg
   xmlns:inkscape="http://www.inkscape.org/namespaces/inkscape"
   xmlns:sodipodi="http://sodipodi.sourceforge.net/DTD/sodipodi-0.dtd"
   xmlns:svg="http://www.w3.org/2000/svg"
   width="20"
   height="20"
   fill="none"
   version="1.1"
   id="svg19"
   xmlns="http://www.w3.org/2000/svg">
  <defs
     id="defs23" />
  <path
     fill-rule="evenodd"
     clip-rule="evenodd"
     d="m 3.7200124,18.563 c -0.098,0.555 0.45,0.988 0.932,0.74 l 5.4869996,-2.82 5.487,2.82 c 0.482,0.248 1.03,-0.186 0.932,-0.74 l -1.037,-5.912 4.404,-4.195 c 0.41,-0.392 0.197,-1.11 -0.354,-1.187 l -6.123,-0.87 -2.73,-5.409 C 10.485528,0.50240498 9.7914964,0.50240498 9.5590124,0.99 l -2.73,5.41 -6.12200003,0.87 c -0.551,0.077 -0.765,0.795 -0.354,1.187 l 4.40400003,4.195 -1.037,5.913 v -0.003 z m 6.13,-3.46 -4.607,2.368 0.868,-4.946 c 0.04098,-0.231158 -0.035454,-0.467581 -0.204,-0.631 l -3.632,-3.464 5.065,-0.72 c 0.212442,-0.032491 0.395497,-0.1669801 0.49,-0.36 l 2.3099996,-4.572 2.307,4.572 c 0.0947,0.1932824 0.278186,0.3278152 0.491,0.36 l 5.065,0.719 -3.632,3.463 c -0.169335,0.163343 -0.245879,0.40048 -0.204,0.632 l 0.867,4.946 -4.607,-2.367 c -0.18076,-0.09291 -0.39524,-0.09291 -0.5759996,0 z"
     fill="#ffb21e"
     id="path17"
     sodipodi:nodetypes="ccccccccccccccccccccccccccccccccccc" />
</svg>
