<svg width="294" height="294" fill="none" xmlns="http://www.w3.org/2000/svg"><path d="M212.396 108.444c0 9.356-7.579 16.939-16.934 16.939-9.351 0-16.935-7.583-16.935-16.939 0-9.355 7.584-16.934 16.935-16.934 9.355 0 16.934 7.579 16.934 16.934zm-97.367 0c0 9.356-7.584 16.939-16.935 16.939-9.35 0-16.934-7.583-16.934-16.939 0-9.355 7.584-16.934 16.934-16.934 9.351 0 16.935 7.579 16.935 16.934zM89.396 235.038a6.978 6.978 0 01-6.978-6.979c0-30.123 24.229-54.631 54.013-54.631h23.522c29.784 0 54.013 24.373 54.013 54.329a6.98 6.98 0 01-6.979 6.983c-3.852 0-6.973-3.127-6.973-6.983 0-22.257-17.972-40.368-40.061-40.368h-23.522c-22.089 0-40.056 18.241-40.056 40.67a6.98 6.98 0 01-6.979 6.979z" fill="#CDDC33"/><path d="M147 294C65.962 294 .035 228.054.035 146.998.035 65.946 65.962 0 147 0c81.033 0 146.961 65.946 146.961 146.998C293.961 228.054 228.033 294 147 294zm0-280.038c-73.343 0-133.008 59.68-133.008 133.036 0 73.361 59.666 133.04 133.008 133.04 73.339 0 133.003-59.679 133.003-133.04 0-73.357-59.664-133.036-133.003-133.036z" fill="#CDDC33"/></svg>