<svg width="138" height="36" fill="none" xmlns="http://www.w3.org/2000/svg"><path d="M98.562 33.763c8.519 0 15.426-6.897 15.426-15.406 0-8.508-6.907-15.405-15.426-15.405S83.137 9.849 83.137 18.357c0 8.509 6.906 15.406 15.425 15.406z" fill="#2B5391"/><path d="M108.353 11.484c-.178-.237-.356-.533-.594-.77-2.195-2.667-5.517-4.326-9.255-4.326h-.06c-3.678 0-6.94 1.718-9.136 4.326-.178.237-.415.474-.593.77a12.044 12.044 0 00-2.196 6.932c0 2.548.831 4.977 2.196 6.933.178.237.356.533.593.77 2.195 2.607 5.458 4.326 9.137 4.326h.059c3.678 0 7.001-1.66 9.255-4.326.178-.237.416-.474.594-.77a12.049 12.049 0 002.195-6.933c.059-2.607-.772-4.977-2.195-6.932zm-13.29-3.555c-1.127 1.066-2.017 2.607-2.67 4.503a11.432 11.432 0 01-2.254-1.126c1.305-1.54 2.966-2.725 4.924-3.377zm-5.518 4.088c.772.474 1.602.948 2.551 1.304-.415 1.481-.652 3.2-.652 4.918h-3.916c.06-2.311.771-4.444 2.017-6.222zm-1.958 7.229h3.916c.06 1.481.297 2.844.653 4.148-.95.355-1.84.77-2.551 1.303-1.128-1.54-1.84-3.436-2.018-5.451zm2.552 6.221c.652-.414 1.424-.83 2.254-1.125.653 1.836 1.543 3.436 2.67 4.503a12.02 12.02 0 01-4.924-3.378zm7.95 3.852c-2.017-.296-3.797-2.37-4.747-5.333 1.424-.415 3.026-.711 4.747-.711v6.044zm0-6.992c-1.78.06-3.5.296-5.043.77-.297-1.185-.534-2.488-.594-3.851h5.577v3.081h.06zm0-4.03h-5.637c0-1.658.238-3.199.594-4.62 1.542.473 3.203.77 5.043.77v3.85zm0-4.858c-1.72-.06-3.323-.296-4.747-.71 1.009-2.963 2.73-5.037 4.747-5.334v6.044zm11.509 4.859h-3.975c0-1.778-.237-3.437-.652-4.918.949-.356 1.839-.83 2.61-1.304a10.538 10.538 0 012.017 6.222zm-2.61-6.992c-.653.415-1.424.83-2.314 1.126-.652-1.896-1.542-3.437-2.67-4.503a11.17 11.17 0 014.984 3.377zm-7.95-3.91c2.017.296 3.738 2.37 4.687 5.332-1.424.415-3.026.652-4.687.711V7.395zm0 7.05c1.78-.059 3.5-.296 4.984-.77a18.94 18.94 0 01.593 4.622h-5.577v-3.851zm0 4.8h5.518c-.06 1.363-.238 2.666-.594 3.851-1.483-.474-3.204-.71-4.983-.77l.059-3.081zm0 10.073v-6.044c1.72.06 3.263.296 4.687.711-.949 2.963-2.67 5.037-4.687 5.333zm2.966-.474c1.128-1.067 2.077-2.667 2.67-4.503.89.296 1.661.71 2.314 1.125a11.17 11.17 0 01-4.984 3.378zm5.577-4.148c-.771-.533-1.661-.948-2.61-1.303.356-1.245.593-2.667.652-4.148h3.975c-.178 2.015-.889 3.91-2.017 5.451z" fill="#fff"/><path d="M3.637 31.097V5.618h15.01v3.91H8.087v6.46h9.433v3.91H8.086v11.199h-4.45zm19.519 0V5.618h5.933c2.077 0 3.738.119 4.865.415 1.127.296 2.195.71 3.085 1.363a7.145 7.145 0 012.195 2.43c.534.947.772 1.954.772 3.02 0 1.66-.475 3.141-1.424 4.326-.95 1.245-2.373 2.133-4.153 2.726l5.577 11.199h-5.221L29.682 20.55h-2.135v10.547h-4.39zm4.39-13.806h2.077c1.958 0 3.382-.356 4.45-1.067 1.008-.71 1.542-1.718 1.542-3.022 0-1.362-.534-2.31-1.542-2.962-1.009-.652-2.61-.948-4.806-.948h-1.661v7.999h-.06zM45.11 31.097V5.618h14.832v3.91H49.44v6.281h9.018v3.911H49.44v7.466h10.68v3.97H45.11v-.06zm19.574 0V5.618h7.594c2.788 0 4.924.533 6.348 1.66 1.424 1.066 2.136 2.725 2.136 4.858 0 1.303-.356 2.43-1.009 3.318-.653.889-1.661 1.6-3.026 2.074 1.484.355 2.61 1.066 3.382 2.133.771 1.066 1.187 2.43 1.187 3.97 0 2.488-.83 4.384-2.433 5.57-1.602 1.244-4.034 1.836-7.357 1.836h-6.822v.06zm4.33-14.873h2.611c1.483 0 2.67-.355 3.5-1.007.831-.652 1.246-1.6 1.246-2.785s-.415-2.014-1.186-2.607c-.772-.533-2.017-.83-3.738-.83h-2.432v7.23zm0 11.317h3.145c1.483 0 2.67-.355 3.5-1.066.831-.711 1.246-1.718 1.246-3.022 0-1.244-.415-2.192-1.246-2.844-.83-.652-2.017-1.007-3.56-1.007h-3.144v7.94h.06zm48.177 3.556V5.618h5.933c2.077 0 3.738.119 4.865.415 1.128.296 2.195.71 3.085 1.363a7.14 7.14 0 012.196 2.43c.533.947.771 1.954.771 3.02 0 1.66-.475 3.141-1.424 4.326-.949 1.245-2.373 2.133-4.153 2.726l5.577 11.199h-5.221l-5.102-10.547h-2.136v10.547h-4.391zm4.391-13.806h2.076c1.958 0 3.382-.356 4.45-1.067 1.008-.71 1.542-1.718 1.542-3.022 0-1.362-.534-2.31-1.542-2.962-1.009-.652-2.611-.948-4.806-.948h-1.661v7.999h-.059z" fill="#2B5391"/></svg>