<svg width="161" height="33" fill="none" xmlns="http://www.w3.org/2000/svg"><path d="M158.398 21.222c-.892.704-1.756 1.147-3.053 1.147-1.944 0-3.485-1.538-3.485-4.33 0-2.659 1.566-4.12 3.485-4.12 1.216 0 2.187.47 3.025 1.096l1.999-2.478a8.427 8.427 0 00-5.132-1.721c-4.241 0-7.374 2.738-7.374 7.223 0 4.67 3.16 7.408 7.374 7.408 2.053 0 3.727-.652 5.322-2.008l-2.161-2.217zm-22.156-4.538c.38-2.035 1.65-3.13 3.271-3.13 1.89 0 2.592 1.356 2.592 3.13h-5.863zm3.162-5.895c-4.025 0-7.267 2.765-7.267 7.25 0 4.695 3.025 7.434 7.294 7.434a10.56 10.56 0 005.97-1.826l-1.649-2.425c-1.214.73-2.566 1.2-4.024 1.2-2.188 0-3.349-1.175-3.566-3.547h9.563c.081-.418.135-1.148.135-1.696 0-3.755-2.296-6.39-6.456-6.39zm-5.314-3.912h-16.586v3.495h6.242v14.762h4.077V10.372h6.267V6.877zm-20.367 14.658c-.622.678-1.539 1.173-2.756 1.173-.999 0-1.674-.573-1.674-1.408 0-1.773 2.187-2.321 4.43-2.452v2.687zm3.944-.052V15.64c0-2.868-1.621-4.824-5.78-4.824-1.973 0-4.242.652-6.188 1.59l1.405 2.817c1.783-.835 3.241-1.382 4.619-1.382 1.378 0 2 .626 2 1.669v1.226c-5.376.365-8.375 1.956-8.375 5.007 0 2.217 1.783 3.704 4.323 3.704 1.944 0 3.296-.704 4.511-1.956.811 1.33 1.945 1.721 4.673 1.721v-2.634c-.729 0-1.188-.339-1.188-1.095zm-20.084-.496h-.054l-3.079-9.858h-3.916l4.807 14.005h4.241l4.836-14.005h-3.755l-3.08 9.858zm-13.32-10.198c-1.81 0-3.35.888-4.403 1.956l-.19-1.616h-3.728v14.005h3.945v-9.832c.864-1.044 1.918-1.644 3.133-1.644 1.35 0 1.89.861 1.89 2.113v9.363h3.972v-9.259c0-3.155-1.379-5.086-4.62-5.086zM66.294 22.578c-2.134 0-3.322-1.8-3.322-4.564 0-2.582 1.324-4.303 3.322-4.303 1.946 0 3.242 1.72 3.242 4.303 0 2.764-1.189 4.564-3.242 4.564zm0-11.762c-4.186 0-7.32 2.842-7.32 7.172 0 4.616 2.945 7.459 7.32 7.459 4.323 0 7.24-2.843 7.24-7.46 0-4.329-3.106-7.171-7.24-7.171zM51.246 22.422c-3.567 0-5.808-2.452-5.808-6.207 0-3.625 2.297-5.999 5.808-5.999 1.837 0 3.241.679 4.565 1.696L58.026 9.2c-1.971-1.513-4.241-2.322-6.861-2.322-5.78 0-9.86 3.938-9.86 9.337 0 5.555 3.944 9.546 9.724 9.546 2.945 0 5.295-.913 7.322-2.74l-2.432-2.503c-1.27 1.2-2.782 1.904-4.673 1.904zM25.553 9.035a.655.655 0 01-.666.643H9.295a.655.655 0 01-.666-.643V8.96c0-.113.075-.214.187-.25l8.066-2.592a.685.685 0 01.418 0l8.07 2.594a.258.258 0 01.183.244v.079zm-3.759 12.784V11.152c0-.355.298-.643.666-.643h1.487c.368 0 .666.288.666.643V21.82a.655.655 0 01-.666.643H22.46a.655.655 0 01-.666-.643zm-6.065 0V11.152c0-.355.299-.643.666-.643h1.488c.367 0 .666.288.666.643V21.82a.655.655 0 01-.666.643h-1.488a.655.655 0 01-.666-.643zm-6.16 0V11.152c0-.355.297-.643.665-.643h1.488c.368 0 .666.288.666.643V21.82a.655.655 0 01-.666.643h-1.488a.654.654 0 01-.665-.643zm15.514 2.673a.655.655 0 01-.666.642H9.765a.655.655 0 01-.666-.642v-.529c0-.355.298-.643.666-.643h14.652c.367 0 .666.288.666.643v.529zM17.09.425C7.895.425.44 7.622.44 16.5s7.454 16.075 16.65 16.075c9.195 0 16.65-7.197 16.65-16.075S26.287.425 17.09.425z" fill="#18739F"/></svg>