<svg width="159" height="63" fill="none" xmlns="http://www.w3.org/2000/svg"><g clip-path="url(#clip0)"><path fill-rule="evenodd" clip-rule="evenodd" d="M.406 18.385L8.461 26.4l2.015 2.005 2.015-2.005 8.055-8.015V14.4h-.025l-10.045 9.995L.432 14.4H.406v3.985zm135.28 7.476h-20.155v2.865h20.155V25.86zm0-11.46v2.864h-20.155V14.4h20.155zm0 5.73v2.864h-20.155v-2.864h20.155zm0 11.46v2.865h-20.155v-2.865h20.155zm-46.053-5.73H69.478v2.865h20.155V25.86zm0-11.46v2.864H69.478V14.4h20.155zm0 5.73v2.864H69.478v-2.864h20.155zm0 11.46v2.865H69.478v-2.865h20.155zm-46.053-5.73H23.425v2.865H43.58V25.86zm0-11.46v2.864H23.425V14.4H43.58zm0 5.73v2.864H23.425v-2.864H43.58zm0 11.46v2.865H23.425v-2.865H43.58zm115.125-5.175L146.63 14.4h-4.03l16.105 16.026v-4.01zm-20.14 8.025v-4.003l4.023 4.003h-4.023zm0-8.014v-4.01l12.084 12.024h-4.03l-8.054-8.014zm0-8.02V14.4h.005l20.135 20.037v.004h-4.025l-16.115-16.035zm12.096-4.007h4.03l4.014 3.995v4.01l-8.044-8.005zM50.483 34.441l8.055-8.015 2.015-2.005-2.015-2.005-8.055-8.016H46.46v.006l10.064 10.015L46.46 34.435v.006h4.024zm-4.024-4.017v-4.01l2.004-1.993-2.004-1.994v-4.01l4.019 3.999 2.015 2.005-2.015 2.005-4.019 3.998zM54.514 14.4h4.03l8.055 8.016v4.01l-8.055 8.015h-4.03l10.07-10.02-10.07-10.02zm8.06 0H66.6v4.005L62.574 14.4zM66.6 30.436v4.005h-4.025l4.025-4.005zm40.017-2.002l2.015 2.005 4.021 4.001v-4.01l-2.006-1.996 2.006-1.997v-4.01l-6.036 6.007zm2.006-14.034l4.03 4.01V14.4h-4.03zm-16.11 16.041v-4.015l6.037-6.007-6.037-6.008v-.01h4.02l4.032 4.013 2.015 2.005-2.015 2.005-6.04 6.01 6.038 6.007h-4.03l-4.02-4zm0-8.026v-3.993l2.007 1.997-2.007 1.996zm8.05-8.015h4.03l4.033 4.014 2.015 2.005-2.015 2.005-6.04 6.01 6.037 6.007h-4.03l-4.022-4.002-2.015-2.005 2.015-2.005 6.04-6.01-6.048-6.019zm-96.1 0h4.03l1.984 1.975L12.46 14.4h4.03l-3.999 3.98-2.015 2.005-2.015-2.005-3.999-3.98zm16.084 7.996v4.01l-8.055 8.015-.02.02h-3.99l-.02-.02-8.055-8.015v-4.01l10.07 10.02 10.07-10.02zm0 8.02v4.01l-.014.015h-4.03l4.044-4.024zM4.45 34.442H.42l-.014-.014v-4.01L4.45 34.44z" fill="#1A75CF"/><path d="M30.23 40.64v7.645h6.542v-1.569h-4.696v-1.664h4.178v-1.569h-4.178V42.21h4.696v-1.57H30.23zm22.36 7.645h3.326c2.576 0 4.554-.863 4.554-3.822 0-2.77-1.836-3.823-4.118-3.823H52.59v7.645zm1.846-6.076h1.44c1.703 0 2.576.748 2.576 2.222 0 1.475-.873 2.285-2.576 2.285h-1.44V42.21zm21.849-1.569v7.645h6.542v-1.569H78.13v-1.664h4.178v-1.569H78.13V42.21h4.696v-1.57h-6.542zm22.555 7.645h1.846v-2.811h2.129c1.096 0 1.288.4 1.288 1.695v.527c0 .22.051.421.152.59h2.069c-.355-.422-.355-1.106-.395-2.023-.041-.874-.132-1.295-.923-1.632.771-.305 1.217-1.032 1.217-1.938 0-1.442-.943-2.053-2.86-2.053H98.84v7.645zm1.846-6.076h2.008c1.065 0 1.582.063 1.582.79 0 .716-.507.905-1.501.905h-2.089V42.21zm21.654-1.569v7.645h6.541v-1.569h-4.695v-1.664h4.178v-1.569h-4.178V42.21h4.695v-1.57h-6.541zm22.43 0v7.645h1.774v-5.444l3.712 5.444h2.241V40.64h-1.775v5.392l-3.681-5.392h-2.271zm-139.07 0v7.645h1.774v-5.191l2.19 5.191h1.532l2.282-5.107v5.108h1.774V40.64H12.89l-2.433 5.476-2.374-5.476H5.7z" fill="#545558"/></g><defs><clipPath id="clip0"><path fill="#fff" transform="translate(.266 .388)" d="M0 0h158.725v61.938H0z"/></clipPath></defs></svg>