<svg width="126" height="53" fill="none" xmlns="http://www.w3.org/2000/svg"><path fill-rule="evenodd" clip-rule="evenodd" d="M11.957 38.654c-5.422 0-7.89 1.473-8.863 4.554L0 53h105.388c5.422 0 7.89-1.472 8.864-4.554l3.093-9.792H11.957zm12.687-13.66H19.43c-8.133 0-2.224-17.017 4.623-17.017h8.238c1.32 0 3.65.24 4.797-2.978L38.86 0H27.564c-6.118 0-10.88 2.123-14.321 5.683-5.944 6.095-7.96 15.613-6.535 20.166 1.356 4.212 5.04 6.985 10.81 7.054l4.484.034h5.527l1.355-4.006c1.008-2.842-1.25-3.938-4.24-3.938zm63.47-7.053l1.702-5.444H71.638c-3.025 0-4.38.822-4.901 2.533l-1.704 5.444h18.18c3.023 0 4.379-.822 4.9-2.533zm-25.792 9.586l-1.703 5.444h18.179c2.989 0 4.38-.822 4.9-2.534l1.704-5.444H67.223c-2.99 0-4.345.822-4.9 2.534zM92.354 5.478L94.057.034H75.878c-3.024 0-4.38.822-4.9 2.534l-1.704 5.444h18.179c2.989 0 4.344-.822 4.9-2.534zm-27.46 1.096C64.13 1.506 61.384.034 54.71.034H42.545l-7.091 20.44h4.484c2.676 0 4.032.034 5.457-3.732l2.954-8.765h4.519c3.858 0 2.99 4.76 1.043 9.381-1.738 4.075-4.762 7.67-8.412 7.67h-7.543c-3.024 0-4.414.822-4.97 2.533l-1.877 5.444h5.527l5.422-.034c4.797-.034 8.724-.377 13.313-4.451 4.866-4.348 10.497-15.51 9.523-21.946zM126 0h-10.532l-9.906 10.374c-1.147 1.198-2.329 2.397-3.476 3.8h-.104L106.918 0h-8.586L86.757 32.97h8.586l3.684-10.373 3.824-3.184 3.024 9.38c.938 2.911 1.911 4.178 3.997 4.178h6.569l-6.743-18.42L126 0z" fill="#00B33C"/><path d="M11.47 46.803v2.705H9.942V42.01h3.024c.87 0 1.565.205 2.051.65.487.446.765 1.028.765 1.747 0 .719-.244 1.3-.765 1.746-.486.445-1.182.65-2.05.65H11.47zm0-1.164h1.495c.418 0 .73-.103.974-.342a1.24 1.24 0 00.313-.856c0-.377-.105-.65-.313-.89-.209-.24-.556-.343-.974-.343h-1.494v2.431zm8.656 2.26h-2.677l-.521 1.609h-1.53l2.607-7.498h1.565l2.606 7.498h-1.529l-.521-1.61zM17.832 46.7h1.911l-.938-2.944h-.035l-.938 2.944zm9.94-3.526h-3.371v1.472h1.32c.87 0 1.565.24 2.086.685.522.445.765 1.027.765 1.746 0 .72-.243 1.301-.765 1.746-.521.445-1.216.685-2.085.685h-2.92V42.01h4.97v1.164zm-3.371 2.636v2.534h1.32c.418 0 .765-.137.974-.377a1.38 1.38 0 00.348-.924c0-.343-.105-.65-.348-.89s-.556-.377-.973-.377H24.4v.034zm11.331.617c0 .924-.278 1.677-.869 2.294-.59.616-1.355.89-2.294.89-.938 0-1.703-.308-2.294-.89-.59-.582-.869-1.37-.869-2.294V45.09c0-.924.278-1.677.87-2.294.59-.616 1.355-.89 2.293-.89.939 0 1.703.308 2.294.89.591.583.904 1.37.904 2.294v1.336h-.035zm-1.53-1.336c0-.582-.138-1.061-.45-1.438-.314-.376-.696-.547-1.218-.547-.52 0-.938.17-1.216.547s-.417.856-.417 1.438v1.37c0 .582.139 1.096.417 1.438.278.376.695.548 1.216.548.522 0 .939-.172 1.217-.548.278-.377.452-.856.452-1.438v-1.37zm7.787-1.917h-2.155v6.334h-1.53v-6.334H36.15V42.01h5.805v1.164h.035zm4.414 4.725h-2.676l-.522 1.609h-1.529l2.607-7.498h1.564l2.607 7.498h-1.53l-.52-1.61zM44.11 46.7h1.912l-.939-2.944h-.034L44.11 46.7zm9.767-.479h-3.163v2.123h3.685v1.164h-5.214V42.01h5.214v1.164h-3.685v1.883h3.163v1.164zm3.441-4.211l1.947 5.512h.035l1.946-5.512h1.981v7.498h-1.529v-2.226l.139-3.32h-.035l-2.05 5.546h-1.008l-2.017-5.512h-.034l.139 3.286v2.226H55.3V42.01h2.016zm10.01 7.498V42.01H69.9c.904 0 1.599.171 2.085.514.487.342.765.855.765 1.54 0 .343-.104.65-.278.925-.174.274-.452.479-.8.616.453.103.8.308 1.044.616.243.308.347.685.347 1.096 0 .719-.243 1.267-.73 1.643-.486.377-1.147.548-2.05.548h-2.955zm1.53-4.348h1.112c.418 0 .73-.069.939-.24.209-.171.313-.41.313-.719 0-.342-.104-.616-.348-.753-.208-.171-.556-.24-.973-.24h-1.043v1.952zm0 1.027v2.157h1.39c.418 0 .696-.103.94-.274.242-.171.312-.445.312-.753 0-.377-.104-.65-.278-.856-.174-.206-.452-.274-.87-.274h-1.494zm11.088.753c.035.822-.208 1.472-.73 1.952-.521.479-1.216.719-2.155.719-.903 0-1.668-.274-2.224-.856-.556-.582-.87-1.336-.87-2.226v-1.472c0-.924.279-1.643.835-2.225.556-.582 1.286-.89 2.19-.89.938 0 1.668.24 2.19.718.521.48.799 1.13.764 1.952v.034h-1.494c0-.48-.105-.856-.348-1.13-.243-.273-.626-.376-1.112-.376-.452 0-.834.171-1.078.548-.278.376-.417.821-.417 1.403v1.507c0 .582.14 1.027.417 1.404.278.376.66.547 1.147.547s.834-.137 1.043-.376c.243-.24.348-.617.348-1.13h1.494v-.103zm5.77-.719h-3.163v2.123h3.685v1.164h-5.214V42.01h5.214v1.164h-3.685v1.883h3.163v1.164zm6.43-3.047h-3.44v6.334h-1.53V42.01h4.97v1.164zm7.056 8.183h-1.39v-1.849h-4.658v1.849h-1.39l-.104-3.013h.59c.279-.24.522-.582.73-1.096.21-.479.314-1.232.348-2.19l.209-3.082h4.936v6.334h.903l-.174 3.047zm-4.414-6.266a9.049 9.049 0 01-.278 1.918 3.993 3.993 0 01-.59 1.335h2.989v-5.17h-1.982l-.139 1.917zm9.594 2.808h-2.677l-.521 1.609h-1.53l2.607-7.498h1.564l2.607 7.498h-1.529l-.521-1.61zm-2.294-1.199h1.911l-.938-2.944h-.035l-.938 2.944zm6.569.206h-1.529V42.01h1.529v4.896zm0 2.602h-1.529v-1.301h1.529v1.301z" fill="#fff"/></svg>