<svg width="112" height="64" fill="none" xmlns="http://www.w3.org/2000/svg"><g clip-path="url(#clip0)"><path d="M34.79 32.681a5.64 5.64 0 01-3.997-1.671 5.73 5.73 0 01-1.66-4.029h-8.91a14.756 14.756 0 004.271 10.376 14.528 14.528 0 0010.296 4.305v-8.98z" fill="#0F68AA"/><path d="M111.95.004h-8.911v8.614h8.911V.004z" fill="#00AEEF"/><path d="M29.136 26.981A14.74 14.74 0 0024.869 16.6a14.51 14.51 0 00-10.301-4.3 14.51 14.51 0 00-10.301 4.3A14.74 14.74 0 000 26.98h8.911a5.739 5.739 0 011.657-4.03 5.654 5.654 0 011.835-1.236 5.618 5.618 0 016.165 1.235 5.738 5.738 0 011.657 4.03h8.91v.001z" fill="url(#paint0_linear)"/><path d="M55.526 12.3v1.152a14.466 14.466 0 00-13.714 1.297 14.64 14.64 0 00-4.78 5.292 14.773 14.773 0 000 13.88 14.64 14.64 0 004.78 5.292 14.465 14.465 0 0013.713 1.297v1.152h8.912V12.3h-8.911zm-5.658 20.38a5.625 5.625 0 01-3.143-.96 5.692 5.692 0 01-2.083-2.559 5.742 5.742 0 01-.322-3.293 5.715 5.715 0 011.548-2.92 5.644 5.644 0 012.897-1.56 5.616 5.616 0 013.268.325 5.667 5.667 0 012.538 2.1 5.732 5.732 0 01-.705 7.196 5.64 5.64 0 01-3.998 1.671zM80.276.004h-8.91v41.658h8.91V.004zM96.112 0h-8.91v41.662h8.91V0zm15.838 12.3h-8.911v29.362h8.911V12.3zM20.224.006v26.977a5.723 5.723 0 01-1.655 4.023 5.634 5.634 0 01-3.99 1.671 5.634 5.634 0 01-3.998-1.657 5.722 5.722 0 01-1.669-4.017.252.252 0 00.005-.025.264.264 0 00-.261-.264H.26a.26.26 0 00-.261.264l.001.005a14.78 14.78 0 001.104 5.623 14.69 14.69 0 003.157 4.769 14.561 14.561 0 004.728 3.187 14.472 14.472 0 0011.157 0 14.561 14.561 0 004.729-3.187 14.69 14.69 0 003.157-4.769 14.781 14.781 0 001.104-5.623V.006h-8.912zM4.01 60.208a1.74 1.74 0 00.989-.288c.284-.188.501-.462.62-.783l1.59.227a2.945 2.945 0 01-1.148 1.747 3.402 3.402 0 01-2.05.634 3.55 3.55 0 01-1.688-.401 3.02 3.02 0 01-1.21-1.181 3.805 3.805 0 010-3.606 3.02 3.02 0 011.21-1.181 3.551 3.551 0 011.688-.401 3.402 3.402 0 012.05.634c.582.42.99 1.042 1.148 1.746l-1.59.227a1.608 1.608 0 00-.62-.783 1.738 1.738 0 00-.988-.287 1.671 1.671 0 00-1.261.514 2.04 2.04 0 000 2.667 1.681 1.681 0 001.26.515zm10.902-5.138v6.579H13.37v-5.023h-2.486c0 .367-.01.721-.033 1.064-.021.343-.06.696-.115 1.059-.05.337-.122.67-.214.998-.084.295-.197.58-.338.852a2.433 2.433 0 01-.478.652 1.604 1.604 0 01-.65.368 1.765 1.765 0 01-.836.03v-1.555c.435.072.736-.148.902-.658.142-.438.217-1.26.225-2.464 0-.219-.002-.568-.006-1.046v-.855h5.572zm7.933 0l-2.73 7.237c-.276.75-.727 1.253-1.352 1.513-.625.259-1.33.239-2.113-.06l.362-1.34c.13.042.263.071.398.087.129.014.259.007.386-.02a.853.853 0 00.344-.157.929.929 0 00.258-.34c.079-.174.126-.36.14-.55l-2.35-6.37h1.768l1.554 4.869 1.567-4.868h1.768zm10.462 0l-3.068 3.284 3.068 3.289h-1.62L29.32 59.28v2.368h-1.573V59.28l-2.367 2.362h-1.62l3.067-3.29-3.067-3.282h1.62l2.367 2.362V55.07h1.573v2.362l2.367-2.362h1.62zm4.325.844a3.526 3.526 0 011.57.347 2.78 2.78 0 011.136 1.01c.288.453.436.982.427 1.52a2.85 2.85 0 01-1.563 2.586 3.38 3.38 0 01-1.57.368 3.456 3.456 0 01-1.22-.219 3.322 3.322 0 01-1.023-.598 2.823 2.823 0 01-.961-2.138c0-.753.02-1.622.06-2.607.019-.96.29-1.69.812-2.186s1.236-.744 2.142-.744c.11 0 .292.002.543.006.251.004.44.005.564.003.124-.002.288-.01.492-.021a4.65 4.65 0 00.579-.069 6.42 6.42 0 00.57-.134v1.435a6.55 6.55 0 01-.567.134c-.194.036-.39.059-.588.07-.211.011-.371.02-.48.023-.11.004-.301.003-.576-.003a31.671 31.671 0 00-.537-.009c-.51 0-.892.115-1.145.344-.253.23-.388.613-.404 1.151 0 .072-.002.128-.005.167a3.566 3.566 0 011.744-.436zm1.608 2.876a1.372 1.372 0 00-.46-1.058 1.629 1.629 0 00-1.148-.43 1.61 1.61 0 00-1.14.43 1.438 1.438 0 00-.462 1.06 1.447 1.447 0 00.463 1.06 1.737 1.737 0 002.281 0 1.434 1.434 0 00.466-1.062zm8.307-3.72h1.579v6.579h-1.579l-.041-1.196a2.144 2.144 0 01-.825.95 2.486 2.486 0 01-1.341.341 3.124 3.124 0 01-2.338-.939c-.613-.625-.92-1.44-.92-2.445a3.79 3.79 0 01.246-1.382c.151-.401.382-.767.68-1.073.295-.297.647-.53 1.035-.685a3.405 3.405 0 011.297-.245c.472-.015.938.103 1.347.34.367.227.658.558.837.952l.023-1.196zm-3.31 4.653a1.704 1.704 0 001.269.49 1.665 1.665 0 001.276-.517 2.08 2.08 0 00-.018-2.682 1.67 1.67 0 00-1.258-.508 1.686 1.686 0 00-1.267.496 2.157 2.157 0 00-.003 2.72zm15.694.371h.95V63.7h-1.543v-2.05h-4.184v2.05h-1.543v-3.606h.748c.169-.74.282-1.494.338-2.252.048-.695.071-1.62.071-2.771h5.163v5.023zm-4.035 0h2.492v-3.468H56.3a18.222 18.222 0 01-.403 3.468zm11.063 1.25a3.778 3.778 0 01-3.386 0 3.03 3.03 0 01-1.207-1.178 3.81 3.81 0 010-3.61 3.02 3.02 0 011.21-1.18 3.772 3.772 0 013.383 0c.506.269.925.679 1.207 1.18a3.834 3.834 0 010 3.61 3 3 0 01-1.207 1.178zm-1.694-1.136a1.656 1.656 0 001.26-.509c.333-.364.508-.845.49-1.34a1.827 1.827 0 00-.49-1.333 1.806 1.806 0 00-2.522 0 2.052 2.052 0 00-.002 2.673 1.689 1.689 0 001.264.509zm7.779 0c.35.006.695-.094.988-.288.284-.188.501-.462.62-.783l1.59.227a2.944 2.944 0 01-1.148 1.747 3.402 3.402 0 01-2.05.634 3.55 3.55 0 01-1.688-.401 3.02 3.02 0 01-1.21-1.181 3.804 3.804 0 010-3.606 3.02 3.02 0 011.21-1.181 3.552 3.552 0 011.688-.401 3.402 3.402 0 012.05.634c.582.42.99 1.042 1.148 1.746l-1.59.227a1.608 1.608 0 00-.62-.783 1.738 1.738 0 00-.988-.287 1.672 1.672 0 00-1.261.514 2.04 2.04 0 000 2.667 1.682 1.682 0 001.261.515zm9.229-5.138v1.556h-1.739v5.023h-1.768v-5.023H77.02V55.07h5.252zm6.372 0h1.578v6.579h-1.578l-.042-1.196a2.144 2.144 0 01-.824.95 2.487 2.487 0 01-1.341.341 3.124 3.124 0 01-2.338-.939c-.614-.625-.92-1.44-.92-2.445a3.79 3.79 0 01.246-1.382c.15-.401.382-.767.68-1.073.295-.297.647-.53 1.035-.685a3.404 3.404 0 011.297-.245c.471-.015.938.103 1.346.34.367.227.658.558.837.952l.024-1.196zm-3.311 4.653a1.7 1.7 0 001.27.49 1.667 1.667 0 001.275-.517 2.08 2.08 0 00-.017-2.682 1.669 1.669 0 00-1.258-.508 1.686 1.686 0 00-1.267.496 2.157 2.157 0 00-.003 2.721zm11.251-1.375a1.115 1.115 0 01.842.484c.217.316.328.693.315 1.077.005.272-.058.542-.184.783a1.49 1.49 0 01-.496.547 2.307 2.307 0 01-.7.308 3.26 3.26 0 01-.828.102h-3.678V55.07h3.554c.276-.002.551.032.819.102.243.063.473.167.682.307.202.139.367.326.478.545.12.242.18.51.175.78.013.355-.073.706-.25 1.014a1.174 1.174 0 01-.73.529zm-3.145-2.23v1.698h1.59a.85.85 0 00.614-.236.885.885 0 000-1.226.855.855 0 00-.614-.236h-1.59zm1.709 4.407a.858.858 0 00.614-.234.8.8 0 00.246-.61.823.823 0 00-.53-.797.843.843 0 00-.33-.058h-1.71v1.699h1.71zm9.47-5.455l-2.896 3.284 2.896 3.289h-1.662l-2.344-2.362v2.368h-1.578V55.07h1.578v2.362l2.344-2.362h1.662zm7.38 0v6.579h-1.537v-4.096l-2.788 4.096h-1.703V55.07h1.542v4.096l2.789-4.096h1.697z" fill="#00AEEF"/></g><defs><linearGradient id="paint0_linear" x1="8.679" y1="19.653" x2="26.112" y2="19.81" gradientUnits="userSpaceOnUse"><stop offset=".06" stop-color="#00AEEF"/><stop offset=".8" stop-color="#0F68AA"/></linearGradient><clipPath id="clip0"><path fill="#fff" d="M0 0h112v64H0z"/></clipPath></defs></svg>