<svg width="167" height="36" viewBox="0 0 167 36" fill="none" xmlns="http://www.w3.org/2000/svg">
<path d="M52.9309 12.1558C52.9309 16.9443 52.9309 22.3673 52.9309 27.1558C51.6626 27.1558 50.3943 27.1558 49.0684 27.1558C49.0684 21.2712 49.0684 14.6366 49.0684 8.75195C52.7003 8.75195 56.4476 8.75195 60.0795 8.75195C60.0795 9.96349 60.0795 10.9443 60.0795 12.1558H52.9309Z" fill="black"/>
<path d="M61.0025 27.2137H60.0801V14.9829H63.5967V21.156L70.9183 14.9829H72.0137V27.2137H68.497V20.8675L61.0025 27.2137Z" fill="black"/>
<path d="M87.2334 14.9829V27.156H83.659V18.0983H78.9894V27.156H75.3574V14.9829H87.2334Z" fill="black"/>
<path d="M101.933 21.8483H93.4581C93.5734 23.7522 95.0147 24.5022 96.7442 24.6175C97.263 24.6175 97.8395 24.6752 98.416 24.6175C99.5114 24.5022 100.664 24.2137 101.414 23.8675L101.817 26.4637C100.318 27.156 98.6466 27.5599 96.9748 27.5599C92.7663 27.6175 89.8262 25.1368 89.8262 21.0406C89.8838 16.7714 93.0546 14.8099 96.3406 14.8099C100.953 14.6945 102.913 17.6945 101.933 21.8483ZM93.5158 19.5406H98.9925C99.0502 17.9252 97.7242 17.406 96.3983 17.406C95.0147 17.406 93.804 18.156 93.5158 19.5406Z" fill="black"/>
<path d="M112.254 14.6367C115.886 14.6367 117.846 17.6944 117.846 20.9829C117.846 25.829 113.349 28.7713 109.025 26.6367V33.3867H105.393V19.1367C105.393 17.9829 105.566 17.2329 104.24 17.2906V14.9252C105.912 14.579 108.333 14.5213 108.333 16.8867C109.025 15.3867 110.639 14.6367 112.254 14.6367ZM108.91 23.7521C111.447 25.2521 114.214 24.0983 114.214 21.0406C114.214 19.4252 113.349 17.8098 111.504 17.8098C109.89 17.8098 108.968 19.1367 108.91 20.579V23.7521Z" fill="black"/>
<path d="M127.068 24.6752L123.955 21.6175V27.156C122.802 27.156 121.649 27.156 120.496 27.156C120.496 23.2329 120.496 18.8483 120.496 15.0406H121.591L127.241 20.5791L132.949 14.9829H133.986C133.986 18.8483 133.986 23.1752 133.986 27.0983C132.833 27.0983 131.68 27.0983 130.527 27.0983V21.5598L127.299 24.6175H127.068V24.6752Z" fill="black"/>
<path d="M148.689 21.8483H140.214C140.329 23.7522 141.771 24.5022 143.5 24.6175C144.019 24.6175 144.595 24.6752 145.172 24.6175C146.267 24.5022 147.42 24.2137 148.17 23.8675L148.573 26.4637C147.074 27.156 145.403 27.5599 143.731 27.5599C139.522 27.6175 136.582 25.1368 136.582 21.0406C136.64 16.7714 139.81 14.8099 143.097 14.8099C147.709 14.6945 149.669 17.6945 148.689 21.8483ZM140.272 19.5406H145.748C145.806 17.9252 144.48 17.406 143.154 17.406C141.828 17.406 140.56 18.156 140.272 19.5406Z" fill="black"/>
<path d="M150.59 29.8098L150.475 24.4444H150.532H150.705C152.723 24.3868 152.608 23.0021 152.896 21.0983L153.876 14.9829H163.215V24.4444H164.887L164.772 29.8098H161.659V27.156H153.761V29.8098H150.59ZM159.872 17.9252H156.816L156.297 21.8483L156.124 22.7714C156.009 23.406 155.778 24.0983 155.317 24.4444H159.814V17.9252H159.872Z" fill="black"/>
<path d="M90.4026 10.3676C90.8061 10.483 91.0367 10.7714 91.0367 11.1753C91.0367 11.983 90.2873 12.0407 89.6531 12.0407H88.2695C88.2695 11.0022 88.2695 9.96375 88.2695 8.92529H89.4802C90.0567 8.92529 90.8638 8.98299 90.8638 9.73299C90.8638 10.0214 90.7485 10.2522 90.4026 10.3676ZM89.5378 10.1945C89.8261 10.1945 90.172 10.1368 90.172 9.84837C90.172 9.50222 89.8261 9.44452 89.5378 9.44452H88.9613V10.1945H89.5378ZM89.5955 11.5214C89.8837 11.5214 90.3449 11.5214 90.3449 11.1176C90.3449 10.7138 89.8837 10.7138 89.5378 10.7138H88.9613V11.5791H89.5955V11.5214Z" fill="#646363"/>
<path d="M94.1499 9.96342C94.0346 9.61726 93.6887 9.44419 93.2851 9.44419C92.8239 9.44419 92.3051 9.79034 92.3051 10.425C92.3051 11.1173 92.8239 11.4634 93.2851 11.4634C93.631 11.4634 93.977 11.2903 94.1499 10.8865H94.8417C94.6688 11.6942 93.977 12.0403 93.2851 12.0403C92.478 12.0403 91.6133 11.5211 91.6133 10.425C91.6133 9.3288 92.478 8.80957 93.2851 8.80957C93.977 8.80957 94.6688 9.15572 94.8417 9.96342H94.1499Z" fill="#646363"/>
<path d="M98.3592 10.5982H95.9955C95.9955 11.1751 96.4567 11.5213 97.0332 11.5213C97.4368 11.5213 97.8403 11.4636 98.1862 11.3482L98.3015 11.8675C97.9556 12.0405 97.4944 12.1559 97.0908 12.1559C96.0531 12.1559 95.246 11.5213 95.3037 10.4828C95.3037 9.44437 96.1108 8.92514 96.9755 8.92514C98.0709 8.86745 98.5898 9.55976 98.3592 10.5982ZM95.7649 7.88668C95.7649 7.65591 95.9378 7.54053 96.1684 7.54053C96.399 7.54053 96.572 7.65591 96.572 7.88668C96.572 8.11745 96.399 8.23284 96.1684 8.23284C95.9378 8.23284 95.7649 8.05976 95.7649 7.88668ZM96.0531 10.1367H97.8403C97.8403 9.67514 97.4368 9.44437 97.0332 9.44437C96.5143 9.38668 96.1108 9.61745 96.0531 10.1367ZM97.2638 7.88668C97.2638 7.65591 97.4367 7.54053 97.6674 7.54053C97.898 7.54053 98.0709 7.65591 98.0709 7.88668C98.0709 8.11745 97.898 8.23284 97.6674 8.23284C97.4367 8.23284 97.2638 8.05976 97.2638 7.88668Z" fill="#646363"/>
<path d="M100.549 12.733V11.4638H100.606C101.068 11.4638 101.125 11.0022 101.183 10.483L101.414 8.92529H103.662V11.5214H104.065V12.7907H103.431V12.0984H101.183V12.7907H100.549V12.733ZM102.97 9.50222H101.99L101.817 10.7138C101.759 11.1753 101.702 11.4061 101.529 11.5214H102.97V9.50222Z" fill="#646363"/>
<path d="M105.969 9.55991L105.796 10.9445C105.68 11.9253 105.45 12.2138 104.412 12.0407V11.5214C104.989 11.5791 105.046 11.3484 105.046 10.8868L105.277 8.92529C106.084 8.92529 106.891 8.92529 107.698 8.92529V12.0407H107.006V9.55991H105.969Z" fill="#646363"/>
<path d="M109.312 10.8868C108.908 10.7714 108.62 10.3676 108.62 9.96375C108.62 9.38683 109.081 8.92529 109.773 8.92529C110.177 8.92529 110.984 8.92529 111.387 8.92529V12.0407C111.157 12.0407 110.926 12.0407 110.638 12.0407V11.0599H110.061L109.312 12.0407H108.562V11.983L109.312 10.8868ZM110.638 10.483V9.50222C110.407 9.50222 110.177 9.50222 109.946 9.50222C109.6 9.50222 109.312 9.73299 109.312 10.0214C109.312 10.3099 109.543 10.5407 109.946 10.5407H110.638V10.483Z" fill="#646363"/>
<path d="M113.809 9.09845C114.097 8.92537 114.558 8.86768 114.962 8.86768C115.596 8.86768 116.23 9.04075 116.23 9.73306C116.23 10.0215 116.057 10.31 115.711 10.3677C116.115 10.4831 116.403 10.7715 116.403 11.1754C116.403 11.8677 115.711 12.0984 115.019 12.0984C114.5 12.0984 113.982 11.9831 113.693 11.81L113.751 11.2331C113.982 11.4061 114.5 11.5215 114.962 11.5792C115.365 11.5792 115.711 11.4638 115.711 11.1177C115.711 10.7138 115.25 10.6561 114.904 10.6561C114.731 10.6561 114.616 10.6561 114.443 10.6561V10.1946C114.616 10.1946 114.731 10.1946 114.904 10.1946C115.192 10.1946 115.538 10.1946 115.538 9.79075C115.538 9.4446 115.192 9.38691 114.904 9.38691C114.616 9.38691 114.155 9.4446 113.924 9.61768L113.809 9.09845Z" fill="#646363"/>
<path d="M116.922 12.733V11.4638H116.98C117.441 11.4638 117.498 11.0022 117.556 10.483L117.787 8.92529H120.035V11.5214H120.439V12.7907H119.804V12.0984H117.556V12.7907H116.922V12.733ZM119.343 9.50222H118.363L118.19 10.7138C118.133 11.1753 118.075 11.4061 117.902 11.5214H119.343V9.50222Z" fill="#646363"/>
<path d="M122.629 12.0984C121.764 12.0984 120.957 11.5792 120.957 10.4831C120.957 9.38691 121.764 8.86768 122.629 8.86768C123.494 8.86768 124.358 9.38691 124.358 10.4831C124.301 11.5792 123.436 12.0984 122.629 12.0984ZM122.629 11.4638C123.09 11.4638 123.609 11.1177 123.609 10.4831C123.609 9.79075 123.09 9.4446 122.629 9.50229C122.168 9.50229 121.706 9.84845 121.706 10.4831C121.649 11.1177 122.11 11.4638 122.629 11.4638Z" fill="#646363"/>
<path d="M126.837 8.80957C127.76 8.80957 128.278 9.55957 128.278 10.425C128.278 11.4057 127.529 12.098 126.664 12.0403C126.376 12.0403 126.145 11.925 125.857 11.8096V13.6557H125.108V9.90572C125.108 9.55957 125.165 9.38649 124.762 9.38649V8.92495C125.281 8.80957 125.684 8.92496 125.684 9.44419C125.915 8.98265 126.376 8.80957 126.837 8.80957ZM125.857 11.2326C126.145 11.4057 126.434 11.5211 126.664 11.4634C127.125 11.4634 127.529 11.1173 127.529 10.4826C127.529 9.96342 127.241 9.50188 126.664 9.50188C126.145 9.50188 125.857 9.90572 125.857 10.3673V11.2326Z" fill="#646363"/>
<path d="M130.469 12.0984C129.604 12.0984 128.797 11.5792 128.797 10.4831C128.797 9.38691 129.604 8.86768 130.469 8.86768C131.333 8.86768 132.198 9.38691 132.198 10.4831C132.141 11.5792 131.333 12.0984 130.469 12.0984ZM130.469 11.4638C130.93 11.4638 131.449 11.1177 131.449 10.4831C131.449 9.79075 130.93 9.4446 130.469 9.50229C130.008 9.50229 129.546 9.84845 129.546 10.4831C129.489 11.1177 130.008 11.4638 130.469 11.4638Z" fill="#646363"/>
<path d="M135.082 10.3676C135.486 10.483 135.716 10.7714 135.716 11.1753C135.716 11.983 134.967 12.0407 134.333 12.0407H132.949C132.949 11.0022 132.949 9.96375 132.949 8.92529H134.16C134.736 8.92529 135.543 8.98299 135.543 9.73299C135.543 10.0214 135.428 10.2522 135.082 10.3676ZM134.16 10.1945C134.448 10.1945 134.794 10.1368 134.794 9.84837C134.794 9.50222 134.448 9.44452 134.16 9.44452H133.583V10.1945H134.16ZM134.218 11.5214C134.506 11.5214 134.967 11.5214 134.967 11.1176C134.967 10.7138 134.506 10.7138 134.16 10.7138H133.583V11.5791H134.218V11.5214Z" fill="#646363"/>
<path d="M137.906 12.0984C137.041 12.0984 136.234 11.5792 136.234 10.4831C136.234 9.38691 137.041 8.86768 137.906 8.86768C138.771 8.86768 139.636 9.38691 139.636 10.4831C139.578 11.5792 138.771 12.0984 137.906 12.0984ZM137.906 11.4638C138.367 11.4638 138.886 11.1177 138.886 10.4831C138.886 9.79075 138.367 9.4446 137.906 9.50229C137.445 9.50229 136.984 9.84845 136.984 10.4831C136.926 11.1177 137.445 11.4638 137.906 11.4638Z" fill="#646363"/>
<path d="M140.558 12.0405H140.385V8.92507H141.077V10.7712L143.094 8.86738C143.152 8.86738 143.267 8.86738 143.325 8.86738C143.325 9.90584 143.325 10.9443 143.325 11.9828C143.094 11.9828 142.864 11.9828 142.633 11.9828V10.0789L140.558 12.0405ZM140.904 7.65584C140.961 8.23276 141.365 8.57891 141.941 8.57891C142.518 8.57891 142.921 8.23276 142.979 7.65584C142.864 7.65584 142.633 7.59814 142.518 7.59814C142.46 7.88661 142.23 8.00199 141.941 8.00199C141.653 8.00199 141.422 7.88661 141.365 7.59814L140.904 7.65584Z" fill="#646363"/>
<path d="M149.495 8.92529H150.129C150.186 9.6176 150.013 10.1368 149.322 10.4253L150.302 11.9253V11.983H149.552L148.687 10.5984C148.572 10.5984 148.457 10.6561 148.226 10.6561V11.983H147.534V10.6561C147.304 10.6561 147.188 10.6561 147.073 10.5984L146.208 11.983H145.459V11.9253L146.439 10.4253C145.805 10.1368 145.632 9.55991 145.69 8.92529H146.381C146.324 9.6176 146.612 10.1368 147.534 10.1368V8.92529H148.226V10.1368C149.206 10.1368 149.495 9.6176 149.495 8.92529Z" fill="#646363"/>
<path d="M151.165 12.0408H150.992V8.92537H151.684V10.7715L153.702 8.86768C153.759 8.86768 153.875 8.86768 153.932 8.86768C153.932 9.90614 153.932 10.9446 153.932 11.9831C153.702 11.9831 153.471 11.9831 153.241 11.9831V10.0792L151.165 12.0408Z" fill="#646363"/>
<path d="M154.74 9.09845C155.029 8.92537 155.49 8.86768 155.893 8.86768C156.527 8.86768 157.162 9.04075 157.162 9.73306C157.162 10.0215 156.989 10.31 156.643 10.3677C157.046 10.4831 157.335 10.7715 157.335 11.1754C157.335 11.8677 156.643 12.0984 155.951 12.0984C155.432 12.0984 154.913 11.9831 154.625 11.81L154.683 11.2331C154.913 11.4061 155.432 11.5215 155.893 11.5792C156.297 11.5792 156.643 11.4638 156.643 11.1177C156.643 10.7138 156.182 10.6561 155.836 10.6561C155.663 10.6561 155.547 10.6561 155.374 10.6561V10.1946C155.547 10.1946 155.663 10.1946 155.836 10.1946C156.124 10.1946 156.47 10.1946 156.47 9.79075C156.47 9.4446 156.124 9.38691 155.836 9.38691C155.547 9.38691 155.086 9.4446 154.856 9.61768L154.74 9.09845Z" fill="#646363"/>
<path d="M161.024 8.92529V12.0407H160.332V10.7138H158.776V12.0407H158.084V8.92529H158.776V10.1368H160.332V8.92529H161.024Z" fill="#646363"/>
<path d="M162.177 12.0408H162.004V8.92537H162.696V10.7715L164.713 8.86768C164.771 8.86768 164.886 8.86768 164.944 8.86768C164.944 9.90614 164.944 10.9446 164.944 11.9831C164.713 11.9831 164.483 11.9831 164.252 11.9831V10.0792L162.177 12.0408Z" fill="#646363"/>
<path fill-rule="evenodd" clip-rule="evenodd" d="M9.17434 16.0215L13.0369 18.2138L16.8995 20.3484V24.733V29.0599L13.0369 31.2523L9.17434 33.4446L5.31178 31.2523L1.44922 29.0599V24.733V20.3484L5.31178 18.2138L9.17434 16.0215Z" fill="#F9D900"/>
<path fill-rule="evenodd" clip-rule="evenodd" d="M25.5474 16.0215L29.41 18.2138L33.2725 20.3484V24.733V29.0599L29.41 31.2523L25.5474 33.4446L21.6848 31.2523L17.8223 29.0599V24.733V20.3484L21.6848 18.2138L25.5474 16.0215Z" fill="#95C11F"/>
<path fill-rule="evenodd" clip-rule="evenodd" d="M33.7329 2.17529L37.5955 4.3676L41.4581 6.50222V10.8868V15.2138L37.5955 17.4061L33.7329 19.5984L29.8704 17.4061L26.0078 15.2138V10.8868V6.50222L29.8704 4.3676L33.7329 2.17529Z" fill="#4A5DA7"/>
<path d="M12.9218 24.387C12.8642 24.0985 12.5759 23.9255 12.2877 23.9255C12.23 23.9255 12.1724 23.9255 12.1147 23.9255L11.4229 24.0985C10.9617 24.2139 10.5005 24.2716 10.0393 24.3293C10.097 23.7524 10.2699 23.2909 10.6735 22.8293C11.3653 22.0216 11.25 20.8101 10.4429 20.0601C9.63576 19.3678 8.36746 19.3678 7.61801 20.1178C6.8109 20.8678 6.8109 22.0793 7.50271 22.887C7.90626 23.3485 8.07921 23.8101 8.13686 24.387C7.67566 24.3293 7.21445 24.2716 6.75325 24.1562L6.06145 23.9832C6.0038 23.9832 5.94615 23.9832 5.8885 23.9832C5.60025 23.9832 5.312 24.1562 5.25435 24.4447C5.1967 24.6178 5.25435 24.7909 5.312 24.9639C5.4273 25.137 5.5426 25.1947 5.71555 25.2524L6.63795 25.4832C6.9262 25.5409 7.1568 25.5985 7.44506 25.6562V25.7716H7.32975C6.52265 25.7716 5.8885 26.4062 5.8885 27.2139V27.8485C5.8885 28.6562 6.75325 29.2909 7.50271 29.2909H10.7888C11.5959 29.2909 12.23 28.6562 12.23 27.8485V27.2139C12.23 26.4062 11.5959 25.7716 10.7888 25.7716H10.6735V25.5409C10.9617 25.4832 11.1923 25.4255 11.4806 25.3678L12.3453 25.137C12.8065 25.0793 13.0371 24.7332 12.9218 24.387ZM7.90626 20.3485C8.54041 19.7139 9.57811 19.7139 10.2123 20.2909C10.8464 20.8678 10.9617 21.8486 10.3852 22.5409C9.92401 23.0601 9.69341 23.6947 9.63576 24.3293C9.46281 24.3293 9.23221 24.3293 9.05926 24.3293C8.88631 24.3293 8.65571 24.3293 8.48276 24.3293C8.48276 23.6947 8.25216 23.1178 7.79096 22.5985C7.2721 21.9639 7.2721 20.9832 7.90626 20.3485ZM10.7311 26.1755H10.8464C11.4806 26.1755 11.9418 26.637 11.9418 27.2716V27.9062C11.9418 28.4832 11.4229 29.0024 10.8464 29.0024H7.56036C6.98385 29.0024 6.29205 28.5409 6.29205 27.9062V27.2716C6.29205 26.6947 6.8109 26.1755 7.38741 26.1755H7.50271V26.4639H7.38741C6.9262 26.4639 6.5803 26.8101 6.5803 27.2139V27.8485C6.5803 28.2524 6.9262 28.5986 7.38741 28.5986H10.8464C11.3076 28.5986 11.6535 28.2524 11.6535 27.8485V27.2139C11.6535 26.8101 11.3076 26.4639 10.8464 26.4639H10.7311V26.1755ZM10.7888 26.8101H10.9041C11.1347 26.8101 11.3076 26.9832 11.3076 27.2139V27.8485C11.3076 28.0793 11.1347 28.2524 10.9041 28.2524H7.44506C7.21445 28.2524 7.0415 28.0793 7.0415 27.8485V27.2139C7.0415 26.9832 7.21445 26.8101 7.44506 26.8101H7.56036C7.61801 27.0985 7.90626 27.387 8.25216 27.387H10.0393C10.3852 27.387 10.6735 27.1562 10.7888 26.8101C10.7311 26.8101 10.7311 26.8101 10.7888 26.8101C10.7311 26.8101 10.7311 26.8101 10.7888 26.8101ZM10.3852 26.637C10.3852 26.8101 10.2123 26.9832 10.0393 26.9832H8.25216C8.07921 26.9832 7.90626 26.8101 7.90626 26.637V25.5985C8.30981 25.6562 8.77101 25.6562 9.17456 25.6562C9.57811 25.6562 10.0393 25.6562 10.4429 25.5985V26.637H10.3852ZM12.3453 24.8486L11.4806 25.0793C10.7311 25.2524 9.92401 25.3678 9.11691 25.3678C8.30981 25.3678 7.56036 25.2524 6.75325 25.0793L5.83085 24.8486C5.6579 24.7909 5.60025 24.6755 5.60025 24.5024C5.6579 24.387 5.7732 24.2716 5.8885 24.2716H5.94615L6.63795 24.4447C7.1568 24.5601 7.73331 24.6755 8.25216 24.7332C8.54041 24.7332 8.77101 24.7909 9.05926 24.7909C9.34751 24.7909 9.57811 24.7909 9.86636 24.7332C10.4429 24.6755 10.9617 24.6178 11.4806 24.4447L12.1724 24.2716H12.23C12.3453 24.2716 12.4606 24.387 12.5183 24.5024C12.6336 24.6178 12.5183 24.7909 12.3453 24.8486Z" fill="white"/>
<path d="M9.40537 20.5791C9.52067 20.5791 9.69362 20.6945 9.80892 20.8099C9.92422 20.9253 9.98188 21.0984 10.0395 21.1561C10.0395 21.2138 10.1548 21.2714 10.2125 21.2714H10.2701C10.3854 21.2138 10.4431 21.1561 10.3854 21.0407C10.3278 20.8676 10.2125 20.6945 10.0395 20.5214C9.80892 20.3484 9.63597 20.233 9.46302 20.1753C9.34772 20.1753 9.29007 20.233 9.23242 20.2907C9.23242 20.4638 9.29007 20.5791 9.40537 20.5791Z" fill="white"/>
<path d="M35.3474 10.7138C34.9438 10.0791 34.252 9.67529 33.5602 9.67529C32.8108 9.67529 32.119 10.0791 31.7731 10.7138L30.9083 12.0984C30.7354 12.3868 30.6777 12.6753 30.6777 12.9638C30.6777 13.2522 30.793 13.5407 31.0236 13.8291C31.1966 14.0599 31.4848 14.233 31.7731 14.2907C32.0613 14.3484 32.4072 14.3484 32.6955 14.1753C33.272 13.9445 33.9061 13.9445 34.4826 14.1753C34.6556 14.233 34.8862 14.2907 35.0591 14.2907C35.1744 14.2907 35.2898 14.2907 35.4051 14.233C35.6933 14.1753 35.9816 14.0022 36.1545 13.7714C36.3275 13.5407 36.4428 13.2522 36.5004 12.9061C36.5004 12.6176 36.4428 12.2714 36.2698 12.0407L35.3474 10.7138ZM35.8663 13.5984C35.6933 13.7714 35.5204 13.8868 35.2898 13.9445C35.0592 14.0022 34.8286 14.0022 34.6556 13.8868C33.9638 13.5984 33.2143 13.5984 32.5225 13.8868C32.2919 14.0022 32.0613 14.0022 31.8884 13.9445C31.6578 13.8868 31.4848 13.7714 31.3119 13.5984C31.1389 13.4253 31.0813 13.1945 31.0813 12.9638C31.0813 12.733 31.1389 12.5022 31.2542 12.2714L32.119 10.8868C32.4649 10.3676 32.9837 10.0214 33.6179 10.0214C34.252 10.0214 34.7709 10.3099 35.1168 10.8868L35.9816 12.2714C36.0969 12.4445 36.1545 12.6753 36.1545 12.9638C36.0969 13.1945 35.9816 13.4253 35.8663 13.5984Z" fill="white"/>
<path d="M31.485 9.84814C31.6003 9.55968 31.6003 9.27122 31.485 8.98276C31.3697 8.6943 31.1968 8.46353 30.9085 8.29045C30.6203 8.11737 30.332 8.11738 30.0438 8.23276C29.4673 8.46353 29.2367 9.15584 29.4673 9.79045C29.6402 10.252 30.1014 10.5981 30.5626 10.5981C30.6779 10.5981 30.7932 10.5981 30.9085 10.5405C31.1968 10.4251 31.4274 10.1943 31.485 9.84814ZM30.7932 10.1943C30.4473 10.3097 29.9861 10.0789 29.8132 9.67507C29.6402 9.21353 29.8132 8.75199 30.1591 8.57891C30.2167 8.57891 30.332 8.52122 30.3897 8.52122C30.505 8.52122 30.6203 8.57891 30.7356 8.63661C30.9085 8.75199 31.0815 8.92507 31.1391 9.15584C31.1968 9.38661 31.2544 9.61737 31.1391 9.79045C31.0815 9.96353 30.9662 10.1366 30.7932 10.1943Z" fill="white"/>
<path d="M32.8679 9.27133C33.5597 9.27133 34.1362 8.63672 34.1362 7.82903C34.1362 7.02133 33.5597 6.38672 32.8679 6.38672C32.1761 6.38672 31.5996 7.02133 31.5996 7.82903C31.5996 8.63672 32.1761 9.27133 32.8679 9.27133ZM32.8679 6.73287C33.3868 6.73287 33.7903 7.2521 33.7903 7.82903C33.7903 8.40595 33.3868 8.92518 32.8679 8.92518C32.3491 8.92518 31.9455 8.40595 31.9455 7.82903C31.9455 7.2521 32.3491 6.73287 32.8679 6.73287Z" fill="white"/>
<path d="M35.2313 9.67523C35.3466 9.73292 35.4619 9.73292 35.5772 9.73292C36.096 9.73292 36.6149 9.32907 36.7878 8.75215C36.9031 8.406 36.9031 8.05984 36.7878 7.77138C36.6725 7.42523 36.3843 7.19446 36.096 7.07907C35.7501 6.96369 35.4042 7.02138 35.116 7.19446C34.8277 7.36753 34.5971 7.656 34.4818 8.00215C34.2512 8.75215 34.5971 9.50215 35.2313 9.67523ZM34.8854 8.11753C34.943 7.88676 35.116 7.656 35.3466 7.54061C35.4619 7.48292 35.6348 7.42523 35.7501 7.42523C35.8078 7.42523 35.9231 7.42523 35.9807 7.48292C36.2113 7.54061 36.3843 7.71369 36.4419 7.94446C36.5572 8.17523 36.5572 8.46369 36.4419 8.69446C36.269 9.21369 35.7501 9.50215 35.3466 9.38677C34.8854 9.21369 34.7124 8.63677 34.8854 8.11753Z" fill="white"/>
<path d="M37.9415 9.7328C37.7109 9.55972 37.4227 9.50203 37.1921 9.55972C36.8462 9.61741 36.5579 9.79049 36.3273 10.079C35.9238 10.6559 35.9814 11.3482 36.5003 11.752C36.6732 11.8674 36.9038 11.9828 37.1344 11.9828C37.538 11.9828 37.8839 11.8097 38.1145 11.4636C38.518 10.829 38.4604 10.079 37.9415 9.7328ZM37.8262 11.1751C37.538 11.5213 37.0191 11.6943 36.7309 11.4059C36.385 11.1751 36.385 10.6559 36.6732 10.252C36.8462 10.0213 37.0191 9.90587 37.2497 9.84818C37.3074 9.84818 37.3074 9.84818 37.365 9.84818C37.4803 9.84818 37.6533 9.90587 37.7686 9.96357C38.0568 10.252 38.1145 10.7713 37.8262 11.1751Z" fill="white"/>
<path d="M35.4623 12.5021C35.347 12.5598 35.2893 12.6175 35.347 12.7329C35.347 12.7329 35.4046 12.9059 35.2893 13.079C35.174 13.1944 35.0587 13.2521 35.0011 13.2521C34.8858 13.2521 34.8281 13.3675 34.8281 13.4829C34.8281 13.5983 34.9434 13.656 35.0011 13.656C35.0587 13.656 35.347 13.5983 35.5199 13.3098C35.6929 13.0213 35.6352 12.7329 35.5776 12.6752C35.6352 12.5021 35.5199 12.4444 35.4623 12.5021Z" fill="white"/>
<path fill-rule="evenodd" clip-rule="evenodd" d="M17.3599 2.17529L21.2225 4.3676L25.085 6.50222V10.8868V15.2138L21.2225 17.4061L17.3599 19.5984L13.4973 17.4061L9.63477 15.2138V10.8868V6.50222L13.4973 4.3676L17.3599 2.17529Z" fill="#E52322"/>
<path d="M19.6652 4.88676C19.6075 4.65599 19.3769 4.48291 19.0887 4.48291C19.031 4.48291 18.9734 4.48291 18.9157 4.48291L18.5698 4.5406C18.2816 4.59829 18.051 4.65599 17.7627 4.65599C17.6474 4.65599 17.5321 4.65599 17.3592 4.65599C17.2439 4.65599 17.1286 4.65599 16.9556 4.65599C16.6674 4.65599 16.4368 4.59829 16.1485 4.5406L15.8026 4.48291C15.745 4.48291 15.6873 4.48291 15.6297 4.48291C15.3414 4.48291 15.1108 4.65599 15.0532 4.88676C14.9955 5.05983 15.0532 5.17522 15.1108 5.34829C15.1685 5.46368 15.3414 5.57906 15.5144 5.63676L15.6297 5.69445C15.6297 6.7906 15.572 7.65599 15.6297 8.34829C15.745 10.0214 15.8026 10.4829 15.8603 10.7137C15.9756 11.4637 16.0909 11.8675 16.2062 12.2714C16.2638 12.5021 16.3215 12.7329 16.3791 12.9637C16.4368 13.0791 16.4368 13.2521 16.4944 13.3675C16.6674 14.1175 16.898 14.9252 16.8403 16.5983C16.7827 16.5983 16.725 16.656 16.725 16.7714L16.6097 17.5214C16.6097 17.5791 16.6097 17.6368 16.6674 17.6368C16.725 17.6944 16.725 17.6944 16.7827 17.6944H17.8204C17.878 17.6944 17.9357 17.6944 17.9357 17.6368C17.9933 17.5791 17.9933 17.5214 17.9933 17.5214L17.9357 16.7714C17.9357 16.7137 17.878 16.656 17.8204 16.5983C17.7627 14.9252 17.9933 14.1175 18.1663 13.3675C18.2239 13.2521 18.2239 13.0791 18.2816 12.9637C18.3392 12.7329 18.3969 12.5021 18.4545 12.2714C18.5698 11.8675 18.6851 11.406 18.8004 10.7137C18.8581 10.4829 18.9157 10.0214 19.031 8.34829C19.0887 7.65599 19.031 6.7906 19.031 5.69445L19.1463 5.63676C19.3193 5.57906 19.4346 5.52137 19.5499 5.34829C19.7228 5.23291 19.7228 5.05983 19.6652 4.88676ZM16.2638 9.7906H18.6275C18.6275 9.84829 18.6275 9.96368 18.6275 10.0214H16.3215C16.2638 10.0214 16.2638 9.84829 16.2638 9.7906ZM18.6851 5.75214C18.6851 6.7906 18.7428 7.59829 18.6851 8.2906C18.6851 8.80983 18.6275 9.0406 18.6275 9.38676H16.2062C16.2062 9.09829 16.1485 8.80983 16.1485 8.2906C16.0909 7.59829 16.1485 6.7906 16.1485 5.75214C16.5521 5.86753 17.0133 5.86753 17.4168 5.86753C17.8204 5.92522 18.2816 5.86753 18.6851 5.75214ZM17.3015 15.2714C17.3592 15.2714 17.3592 15.2714 17.4168 15.2714H17.4745C17.4745 15.6752 17.4168 16.0791 17.4168 16.5983H17.3015C17.3592 16.0791 17.3592 15.6752 17.3015 15.2714ZM17.5321 14.8098C17.4745 14.8098 17.4745 14.8675 17.4168 14.8675C17.3592 14.8675 17.3015 14.8675 17.3015 14.8675C17.2439 14.5214 17.1862 14.2329 17.1862 14.0021C17.3015 14.0021 17.3592 14.0598 17.4745 14.0598C17.5898 14.0598 17.6474 14.0598 17.7051 14.0021C17.6474 14.1752 17.5898 14.4637 17.5321 14.8098ZM17.0709 17.3483L17.1286 16.9444H17.6474L17.7051 17.3483H17.0709ZM18.1086 12.156C18.051 12.3868 17.9933 12.6175 17.9357 12.906C17.878 13.0214 17.878 13.1944 17.8204 13.3098C17.8204 13.3675 17.8204 13.4252 17.7627 13.4252C17.7051 13.4829 17.5321 13.5406 17.4168 13.5406C17.2439 13.5406 17.0709 13.4829 17.0133 13.4252C17.0133 13.3675 17.0133 13.3098 16.9556 13.3098C16.898 13.1944 16.898 13.0214 16.8403 12.906C16.7827 12.6175 16.725 12.3868 16.6674 12.156C16.5521 11.7521 16.4368 11.3483 16.3215 10.656C16.3215 10.5983 16.3215 10.5406 16.3215 10.4829H18.5122C18.5122 10.5406 18.5122 10.5983 18.5122 10.656C18.3392 11.3483 18.2239 11.7521 18.1086 12.156ZM19.1463 5.23291L18.6851 5.34829C18.2816 5.46368 17.8204 5.52137 17.4168 5.52137C17.0133 5.52137 16.5521 5.46368 16.1485 5.34829L15.6873 5.23291C15.6297 5.23291 15.572 5.11753 15.572 5.05983C15.572 5.00214 15.6297 4.94445 15.745 4.94445C15.745 4.94445 15.745 4.94445 15.8026 4.94445L16.0909 5.00214C16.3791 5.05983 16.6674 5.11753 16.9556 5.11753C17.0709 5.11753 17.2439 5.11753 17.3592 5.11753C17.4745 5.11753 17.6474 5.11753 17.7627 5.11753C18.051 5.11753 18.3392 5.05983 18.6275 5.00214L18.9734 4.94445C18.9734 4.94445 18.9734 4.94445 19.031 4.94445C19.0887 4.94445 19.1463 5.00214 19.204 5.05983C19.2616 5.11753 19.204 5.17522 19.1463 5.23291Z" fill="white"/>
<path d="M23.7015 27.3869C23.6439 27.3869 23.5286 27.3869 23.4709 27.3292C23.4133 27.2715 23.3556 27.2138 23.3556 27.1561C23.2979 27.0407 23.3556 26.9253 23.3556 26.8676C23.4132 26.8099 23.4133 26.7523 23.4709 26.6946C23.5286 26.6369 23.5285 26.6369 23.5285 26.5792C23.5285 26.5792 23.5285 26.4638 23.5285 26.4061C23.5285 26.3484 23.5286 26.3484 23.4709 26.2907C23.4133 26.233 23.4132 26.233 23.3556 26.1753C23.3556 26.1753 23.2979 26.1176 23.2403 26.0599C23.1826 26.0023 23.125 25.9446 23.125 25.8292C23.125 25.7138 23.1826 25.5984 23.2403 25.5407C23.3556 25.4253 23.4709 25.483 23.5862 25.483C23.8745 25.483 23.9321 25.483 23.9321 25.483C23.9898 25.483 24.1051 25.483 24.1051 25.4253H24.1627C24.1627 25.4253 24.2204 25.3676 24.278 25.3676C24.3933 25.3099 24.5086 25.2523 24.5663 25.2523C24.6239 25.2523 24.7969 25.1946 24.9698 25.3099C24.9698 25.3099 25.1428 25.4253 25.2004 25.5984C25.2004 25.6561 25.2004 25.7138 25.2004 25.8292H25.3157C25.3157 25.8292 25.3157 25.8292 25.3157 25.7715C25.3157 25.6561 25.431 25.5407 25.431 25.483C25.4887 25.4253 25.5463 25.3099 25.7193 25.2523C25.8346 25.1946 26.0075 25.1946 26.1228 25.2523C26.2381 25.3099 26.3534 25.4253 26.3534 25.5407C26.4111 25.6561 26.4111 25.7138 26.4111 25.8292C26.4111 25.8292 26.4111 25.8292 26.4111 25.8869H26.4687C26.6993 25.8869 26.8146 25.8869 26.8146 25.8869C26.8723 25.8869 26.9876 25.9446 27.1029 26.0023C27.1605 26.0599 27.2758 26.1176 27.3335 26.2907C27.3911 26.4061 27.3911 26.6369 27.2758 26.8099C27.2182 26.8676 27.1029 26.9253 27.0452 26.9253C26.8146 26.983 26.6417 26.983 26.6417 26.983C26.4111 26.983 26.3534 26.983 26.1805 26.983C26.0075 26.983 25.8922 26.983 25.8346 26.983C25.7769 26.983 25.6616 26.9253 25.4887 26.8676L25.431 26.8099C25.3157 26.7523 25.2581 26.7523 25.2581 26.7523H25.2004C25.2004 26.8099 25.1428 26.9253 25.0851 26.983C25.0275 27.0407 24.9698 27.0984 24.8545 27.1561C24.7392 27.2138 24.6816 27.2138 24.5663 27.2138H24.3933C24.278 27.2138 24.2204 27.2138 24.1051 27.2138H23.9898C23.9321 27.2138 23.8745 27.2138 23.8168 27.2138H23.7592C23.8168 27.3869 23.7592 27.3869 23.7015 27.3869ZM23.5862 25.9446C23.6439 25.9446 23.6439 26.0023 23.5862 25.9446C23.6439 26.0023 23.6439 26.0599 23.7015 26.0599L23.7592 26.1176C23.8168 26.233 23.8168 26.2907 23.8745 26.3484C23.9321 26.4638 23.8745 26.5792 23.8745 26.6369C23.8745 26.6946 23.8745 26.8099 23.8168 26.8676C23.8168 26.9253 23.7592 26.9253 23.7592 26.9253C23.7592 26.9253 23.7592 26.9253 23.8168 26.9253H23.8745C23.9321 26.9253 23.9898 26.9253 24.0474 26.9253H24.1627C24.278 26.9253 24.3933 26.9253 24.5086 26.9253H24.6816C24.7969 26.9253 24.7969 26.9253 24.7969 26.9253C24.8545 26.9253 24.8545 26.8676 24.8545 26.8676C24.8545 26.8676 24.8545 26.8099 24.9122 26.8099C24.9122 26.7523 24.9698 26.6369 25.0275 26.5792C25.1428 26.5215 25.2581 26.4638 25.3157 26.4638C25.431 26.4638 25.5463 26.4638 25.7193 26.5792L25.7769 26.6369C25.8922 26.6946 26.0075 26.7523 26.0075 26.7523C26.0652 26.7523 26.1228 26.7523 26.2958 26.7523C26.4687 26.7523 26.5264 26.7523 26.757 26.7523C26.757 26.7523 26.9299 26.7523 27.1029 26.6946C27.1029 26.6946 27.1029 26.6946 27.1605 26.6946C27.1605 26.6946 27.1605 26.6369 27.1029 26.6369C27.1029 26.5792 27.0452 26.5792 27.0452 26.5792C26.9876 26.5215 26.9299 26.5215 26.8723 26.5215C26.8723 26.5215 26.8146 26.5215 26.584 26.5215H26.5264C26.3534 26.5215 26.2381 26.5215 26.1805 26.4061C26.1228 26.3484 26.1228 26.233 26.1228 26.1753C26.1228 26.1753 26.1228 26.1176 26.1228 26.0599C26.1228 26.0023 26.1228 25.9446 26.1228 25.9446C26.1228 25.9446 26.1228 25.8869 26.0652 25.8869C26.0075 25.8869 26.0075 25.8869 25.9499 25.8869C25.8922 25.8869 25.8922 25.9446 25.8346 25.9446C25.8346 25.9446 25.7769 26.0023 25.7769 26.0599C25.7769 26.1176 25.7769 26.1176 25.7769 26.1176V26.1753C25.7769 26.233 25.7769 26.3484 25.7193 26.4061C25.604 26.4638 25.5463 26.4638 25.4887 26.4638H25.3734C25.3734 26.4638 25.3157 26.4638 25.2581 26.4638H25.0851H25.0275L24.9122 26.4061C24.7969 26.3484 24.7969 26.1753 24.7969 26.0599C24.7969 25.9446 24.7969 25.9446 24.7969 25.8869C24.7969 25.8869 24.7969 25.8869 24.7392 25.8292C24.7392 25.8292 24.6816 25.8292 24.6239 25.8292C24.6239 25.8292 24.5086 25.8869 24.451 25.8869C24.3933 25.8869 24.3933 25.9446 24.3357 25.9446C24.278 25.9446 24.278 26.0023 24.2204 26.0023C24.1627 26.0023 24.0474 26.0599 23.9321 26.0599C23.9321 26.0023 23.8745 26.0023 23.5862 25.9446Z" fill="white"/>
<path d="M26.9298 25.3676C26.7568 25.3676 26.6415 25.3676 26.6415 25.3676C26.4109 25.3676 26.3533 25.3099 26.1803 25.3099C26.0074 25.3099 25.8921 25.2523 25.8344 25.2523C25.7768 25.1946 25.6615 25.1946 25.5462 25.0792L25.4885 25.0215C25.3732 24.9638 25.3732 24.9638 25.3156 24.9638H25.2579C25.2579 25.0215 25.2003 25.0792 25.1426 25.1946C25.085 25.2523 24.9697 25.3099 24.8544 25.3676C24.7391 25.4253 24.6814 25.3676 24.5661 25.3676H24.3932C24.2779 25.3676 24.2202 25.3676 24.1049 25.3099H23.9896C23.932 25.3099 23.8743 25.3099 23.8743 25.3099H23.8167C23.7014 25.3099 23.5861 25.3099 23.4708 25.1946C23.4131 25.1369 23.3555 25.0792 23.3555 25.0215C23.3555 24.9061 23.4131 24.7907 23.4131 24.7907C23.4708 24.733 23.5284 24.6753 23.5284 24.6753C23.5861 24.6176 23.5861 24.6176 23.5861 24.5599C23.5861 24.5599 23.5861 24.5023 23.5861 24.3869C23.5861 24.3292 23.5861 24.3292 23.5861 24.2715C23.5861 24.2138 23.5284 24.2138 23.5284 24.1561C23.5284 24.1561 23.4708 24.0984 23.4708 24.0407C23.4131 23.9253 23.4131 23.8676 23.4131 23.8099C23.4131 23.6946 23.4708 23.5792 23.5861 23.5792C23.7014 23.5215 23.8167 23.5215 23.932 23.5792C24.2202 23.6369 24.2202 23.6369 24.2779 23.6369C24.3355 23.6369 24.4508 23.6369 24.4508 23.6369H24.5085C24.5085 23.6369 24.5661 23.6369 24.6238 23.5792C24.7391 23.5215 24.8544 23.5215 24.912 23.5215C24.9697 23.5215 25.1426 23.5215 25.2579 23.6369C25.2579 23.6369 25.3732 23.7523 25.4309 23.9253C25.4309 23.983 25.4309 24.0407 25.3732 24.1561L25.4885 24.2138C25.4885 24.2138 25.4885 24.2138 25.4885 24.1561C25.5462 24.0407 25.6038 23.9253 25.6615 23.9253C25.7191 23.8676 25.8344 23.8099 26.0074 23.7523C26.1803 23.7523 26.2956 23.7523 26.4109 23.8676C26.5262 23.9253 26.5839 24.0407 26.6415 24.1561C26.6415 24.2715 26.6415 24.3292 26.6415 24.4446C26.6415 24.4446 26.6415 24.4446 26.6415 24.5023H26.6992C26.9298 24.5599 26.9874 24.5599 27.0451 24.5599C27.1027 24.5599 27.218 24.6176 27.3333 24.733C27.391 24.7907 27.4486 24.8484 27.5063 25.0215C27.5639 25.1946 27.5063 25.3676 27.3333 25.483C27.218 25.5407 27.1604 25.5407 27.1027 25.5407C26.9874 25.3676 26.9298 25.3676 26.9298 25.3676ZM25.2579 24.5023C25.3156 24.5023 25.3156 24.5023 25.2579 24.5023C25.4309 24.5023 25.5462 24.5599 25.6615 24.6753L25.7191 24.733C25.8344 24.7907 25.8921 24.8484 25.9497 24.8484C26.0074 24.8484 26.065 24.8484 26.1803 24.9061C26.2956 24.9061 26.4109 24.9638 26.6415 24.9638C26.6415 24.9638 26.8145 24.9638 26.9874 24.9638C26.9874 24.9638 26.9874 24.9638 27.0451 24.9638V24.9061C27.0451 24.8484 26.9874 24.8484 26.9874 24.7907C26.9298 24.733 26.9298 24.733 26.8721 24.733C26.8721 24.733 26.8145 24.733 26.5839 24.6753H26.5262C26.3533 24.6753 26.238 24.6176 26.1803 24.5023C26.1227 24.3869 26.1227 24.3292 26.1803 24.2715C26.1803 24.2715 26.1803 24.2138 26.1803 24.1561C26.1803 24.0984 26.1803 24.0407 26.1803 24.0407C26.1803 24.0407 26.1803 23.983 26.1227 23.983C26.065 23.983 26.065 23.983 26.0074 23.983C25.9497 23.983 25.9497 24.0407 25.8921 24.0407L25.8344 24.0984C25.8344 24.1561 25.8344 24.1561 25.8344 24.1561V24.2138C25.8344 24.2715 25.8344 24.3869 25.7191 24.4446C25.6038 24.5023 25.5462 24.4446 25.4885 24.4446L25.3732 24.3869H25.3156L25.2003 24.3292H25.1426L25.085 24.2715C24.9697 24.1561 25.0273 24.0407 25.0273 23.9253C25.0273 23.8099 25.085 23.8099 25.085 23.7523C25.085 23.7523 25.085 23.7523 25.085 23.6946C25.085 23.6946 25.0273 23.6946 24.9697 23.6946C24.912 23.6946 24.8544 23.6946 24.7967 23.7523L24.6814 23.8099C24.6238 23.8099 24.6238 23.8099 24.5661 23.8099C24.5085 23.8099 24.3932 23.8099 24.2779 23.8099C24.2202 23.8099 24.1626 23.8099 23.932 23.7523C23.932 23.8099 23.9896 23.8099 23.9896 23.8099L24.0473 23.8676C24.1049 23.983 24.1049 24.0407 24.1049 24.0984C24.1049 24.2138 24.1049 24.3292 24.0473 24.3869C24.0473 24.4446 23.9896 24.5023 23.932 24.6176L23.8743 24.6753H23.932C23.9896 24.6753 24.0473 24.6753 24.1049 24.6753H24.2202C24.3355 24.6753 24.4508 24.733 24.5661 24.733H24.7391C24.8544 24.733 24.8544 24.733 24.8544 24.733C24.8544 24.733 24.912 24.733 24.9697 24.6753C24.9697 24.6753 24.9697 24.6176 25.0273 24.6176C25.0273 24.5599 25.085 24.5023 25.2003 24.4446C25.1426 24.5023 25.2003 24.5023 25.2579 24.5023Z" fill="white"/>
<path d="M27.1035 23.579H27.0459C26.8729 23.579 26.7 23.5213 26.6423 23.5213C26.4694 23.4636 26.3541 23.4636 26.2388 23.4636C26.0658 23.4059 26.0082 23.4059 25.8929 23.3482C25.8352 23.2905 25.7776 23.2328 25.6046 23.1751L25.547 23.1175C25.4317 23.0598 25.4317 23.0021 25.4317 23.0021C25.374 23.0598 25.3164 23.1175 25.2587 23.1751C25.2011 23.2328 25.0858 23.2905 24.9705 23.2905C24.8552 23.2905 24.7975 23.2905 24.6822 23.2328L24.6246 23.1751C24.5093 23.1751 24.4516 23.1175 24.3363 23.1175H24.221C24.1634 23.1175 24.1634 23.1175 24.1057 23.0598H24.0481C23.9328 23.0598 23.8175 23.0021 23.7598 22.8867C23.7022 22.829 23.7022 22.7713 23.6445 22.7136C23.6445 22.5982 23.7022 22.4828 23.7022 22.4828C23.7598 22.4251 23.8175 22.3675 23.8175 22.3675C23.8751 22.3675 23.8751 22.3098 23.8751 22.3098C23.8751 22.3098 23.8751 22.2521 23.9328 22.1944C23.9328 22.1367 23.9328 22.1367 23.9328 22.079C23.9328 22.0213 23.8751 22.0213 23.8751 21.9636C23.8751 21.9636 23.8175 21.9059 23.8175 21.8482C23.7598 21.7328 23.7598 21.6751 23.8175 21.6175C23.8175 21.5021 23.9328 21.4444 23.9904 21.3867C24.1057 21.329 24.221 21.3867 24.3363 21.4444C24.5669 21.5598 24.6246 21.5598 24.6246 21.5598C24.6822 21.5598 24.7399 21.5598 24.7975 21.5598H24.8552C24.8552 21.5598 24.9128 21.5598 24.9705 21.5598C25.0858 21.5598 25.2011 21.5021 25.2587 21.5598C25.3164 21.5598 25.4893 21.6175 25.6046 21.7328C25.6046 21.7905 25.7199 21.9059 25.7199 22.0213C25.7199 22.079 25.7199 22.1367 25.6623 22.1944H25.7199C25.7776 22.079 25.8929 22.0213 25.8929 21.9636C25.9505 21.9059 26.0658 21.8482 26.2388 21.8482C26.3541 21.8482 26.527 21.9059 26.5847 21.9636C26.7 22.0213 26.7576 22.1367 26.7576 22.2521C26.7576 22.3675 26.7576 22.4251 26.7 22.5405H26.7576C26.9882 22.5982 27.0459 22.6559 27.1035 22.6559C27.1612 22.7136 27.2765 22.7136 27.3341 22.829C27.3918 22.8867 27.4494 22.9444 27.4494 23.1175C27.4494 23.2328 27.3918 23.4636 27.2188 23.5213C27.2188 23.579 27.1612 23.579 27.1035 23.579ZM25.4317 22.5982C25.4893 22.5982 25.4893 22.5982 25.547 22.5982C25.6623 22.5982 25.7776 22.7136 25.8929 22.7713L25.9505 22.829C26.0658 22.8867 26.1235 22.9444 26.1235 23.0021C26.1811 23.0021 26.2388 23.0598 26.3541 23.0598C26.4694 23.1175 26.5847 23.1175 26.7576 23.1751C26.7576 23.1751 26.9306 23.2328 27.0459 23.2328C27.0459 23.2328 27.0459 23.2328 27.0459 23.1751C27.0459 23.1175 27.0459 23.1175 26.9882 23.1175C26.9306 23.0598 26.9306 23.0598 26.8729 23.0598C26.8729 23.0598 26.8153 23.0598 26.6423 23.0021H26.5847C26.4117 22.9444 26.3541 22.9444 26.2964 22.829C26.2388 22.7136 26.2964 22.6559 26.2964 22.5982C26.2964 22.5982 26.2964 22.5405 26.2964 22.4828C26.2964 22.4251 26.2964 22.3675 26.2964 22.3675C26.2964 22.3675 26.2964 22.3098 26.2388 22.3098C26.2388 22.3098 26.1811 22.2521 26.1811 22.3098C26.1235 22.3098 26.1235 22.3098 26.0658 22.3675L26.0082 22.4251V22.4828V22.5405C26.0082 22.5982 25.9505 22.6559 25.8929 22.7136C25.7776 22.7713 25.7199 22.7136 25.6623 22.7136H25.6046C25.547 22.7136 25.547 22.7136 25.4893 22.6559L25.374 22.5982H25.3164L25.2587 22.3098C25.2011 22.1944 25.2011 22.079 25.2587 21.9636C25.3164 21.9059 25.3164 21.8482 25.3164 21.8482H25.2587C25.2587 21.8482 25.1434 21.8482 25.0858 21.8482H24.9705C24.9128 21.8482 24.9128 21.8482 24.8552 21.8482C24.7975 21.8482 24.7399 21.8482 24.6246 21.8482C24.5669 21.8482 24.5093 21.8482 24.3363 21.7328C24.3363 21.7905 24.394 21.7905 24.394 21.7905C24.394 21.8482 24.394 21.8482 24.4516 21.8482C24.5093 21.9636 24.4516 22.0213 24.4516 22.079C24.4516 22.1944 24.394 22.3098 24.394 22.3675C24.394 22.4251 24.3363 22.4828 24.2787 22.5405C24.2787 22.5405 24.2787 22.5405 24.221 22.5405H24.2787C24.3363 22.5405 24.394 22.5405 24.4516 22.5982H24.5093C24.6246 22.6559 24.7399 22.6559 24.7975 22.6559L24.9128 22.7136C25.0281 22.7136 25.0281 22.7136 25.0281 22.7136C25.0281 22.7136 25.0858 22.7136 25.0858 22.6559C25.0858 22.6559 25.0858 22.6559 25.1434 22.5982C25.2011 22.5405 25.2011 22.4828 25.3164 22.4251C25.3164 22.5982 25.374 22.5982 25.4317 22.5982Z" fill="white"/>
<path d="M27.2762 21.6752C27.2185 21.6752 27.2185 21.6752 27.2762 21.6752C27.0456 21.6752 26.9303 21.6175 26.8726 21.6175C26.6997 21.5598 26.642 21.5598 26.5267 21.5021C26.4114 21.4444 26.2961 21.4444 26.2385 21.3867C26.1808 21.3291 26.1232 21.2714 26.0079 21.156H25.8926C25.8349 21.0983 25.8349 21.0983 25.8349 21.0983C25.7773 21.0983 25.7773 21.156 25.7196 21.2137C25.662 21.2714 25.5467 21.3291 25.4314 21.3291C25.3161 21.3291 25.2584 21.3291 25.1431 21.2714L25.0278 21.2137C24.9702 21.2137 24.8549 21.156 24.7972 21.156H24.7396C24.6819 21.156 24.6819 21.156 24.6243 21.0983C24.509 21.0406 24.3937 21.0406 24.2784 20.9252C24.2207 20.8675 24.2207 20.8098 24.2207 20.7521C24.2207 20.6367 24.2784 20.5791 24.2784 20.5214C24.336 20.4637 24.3937 20.406 24.3937 20.406C24.4513 20.3483 24.4513 20.3483 24.4513 20.2906C24.4513 20.2906 24.509 20.2329 24.509 20.1175C24.509 20.0598 24.509 20.0598 24.509 20.0021C24.509 19.9444 24.509 19.9444 24.4513 19.8867C24.4513 19.8867 24.4513 19.8291 24.3937 19.7714C24.3937 19.656 24.3937 19.5983 24.3937 19.5406C24.3937 19.4252 24.509 19.3675 24.5666 19.3098C24.6819 19.2521 24.7972 19.3098 24.9125 19.3098C25.1431 19.4252 25.1431 19.4252 25.2008 19.4252C25.2584 19.4252 25.3161 19.4252 25.3161 19.4252H25.3737C25.3737 19.4252 25.4314 19.4252 25.489 19.4252C25.6043 19.4252 25.662 19.3675 25.7773 19.4252C25.8349 19.4252 26.0079 19.4829 26.0655 19.5983C26.0655 19.5983 26.1808 19.7137 26.1232 19.8867C26.1232 19.9444 26.1232 20.0021 26.0655 20.1175C26.1232 20.0021 26.2385 19.9444 26.2385 19.8867C26.2961 19.8291 26.4114 19.7714 26.5844 19.7714C26.6997 19.7714 26.8726 19.8291 26.9303 19.9444C26.9879 20.0021 27.0456 20.1175 27.0456 20.2329C27.0456 20.3483 27.0456 20.406 26.9879 20.5214C27.1609 20.5791 27.2185 20.5791 27.2762 20.6367C27.3338 20.6944 27.4491 20.7521 27.5068 20.8675C27.5068 20.9252 27.6221 21.0406 27.6221 21.156C27.6221 21.2714 27.5644 21.5021 27.3915 21.5598C27.3915 21.6752 27.3338 21.6752 27.2762 21.6752ZM25.8349 20.6367C25.8926 20.6367 25.8926 20.6367 25.9502 20.6367C26.0655 20.6367 26.1232 20.7521 26.2385 20.8098L26.2961 20.8675C26.3538 20.9252 26.4114 20.9829 26.4691 21.0406C26.4691 21.0406 26.5844 21.0983 26.642 21.0983C26.7573 21.156 26.815 21.156 26.9879 21.2137C26.9879 21.2137 27.1032 21.2714 27.2762 21.2714V21.2137C27.2762 21.156 27.2762 21.156 27.2185 21.0983C27.2185 21.0406 27.1609 21.0406 27.1609 21.0406C27.1609 21.0406 27.1032 21.0406 26.9303 20.9829H26.8726C26.7573 20.9252 26.642 20.9252 26.5844 20.7521C26.5844 20.6367 26.5844 20.5791 26.5844 20.5214C26.5844 20.5214 26.5844 20.4637 26.642 20.406C26.642 20.3483 26.6997 20.2906 26.6997 20.2906V20.2329C26.6997 20.2329 26.6997 20.2329 26.642 20.2329C26.5844 20.2329 26.5844 20.2329 26.5844 20.2906L26.5267 20.3483C26.5267 20.406 26.5267 20.406 26.4691 20.406V20.4637C26.4691 20.5214 26.4114 20.5791 26.3538 20.6367C26.2385 20.6944 26.1232 20.6367 26.1232 20.5791H26.0655C26.0079 20.5791 26.0079 20.5791 25.9502 20.5214L25.8926 20.4637H25.8349L25.7196 20.3483C25.662 20.2329 25.7196 20.1175 25.7196 20.0021C25.7773 19.8867 25.7773 19.8867 25.7773 19.8291V19.7714C25.7773 19.7714 25.7773 19.7714 25.7196 19.7714C25.7196 19.7714 25.662 19.7714 25.5467 19.7714H25.4314C25.3737 19.7714 25.3737 19.7714 25.3161 19.7714C25.2584 19.7714 25.1431 19.7714 25.0855 19.7714C25.0278 19.7714 25.0278 19.7714 24.8549 19.656C24.8549 19.7137 24.8549 19.7137 24.9125 19.7137C24.9125 19.7714 24.9125 19.7714 24.9125 19.7714C24.9125 19.8867 24.9125 19.9444 24.9125 20.0021C24.9125 20.1175 24.8549 20.2329 24.8549 20.2906C24.7972 20.3483 24.7972 20.406 24.7396 20.4637L24.6819 20.5214C24.7396 20.5214 24.7972 20.5214 24.7972 20.5791H24.8549C24.9702 20.5791 25.0278 20.6367 25.1431 20.6367L25.2584 20.6944C25.3161 20.6944 25.3161 20.6944 25.3161 20.6944C25.3161 20.6944 25.3737 20.6944 25.3737 20.6367C25.3737 20.6367 25.3737 20.5791 25.4314 20.5791C25.489 20.5214 25.489 20.4637 25.6043 20.406C25.7196 20.6367 25.7773 20.6367 25.8349 20.6367Z" fill="white"/>
<path d="M27.738 19.8291C27.6803 19.8291 27.6803 19.8291 27.6803 19.8291C27.5074 19.8291 27.3921 19.7715 27.3344 19.7715C27.1615 19.7138 27.1038 19.7138 26.9885 19.6561C26.8732 19.5984 26.7579 19.5984 26.7003 19.5407C26.6426 19.483 26.585 19.4253 26.4697 19.3676L26.412 19.3099C26.3544 19.2522 26.3544 19.2522 26.3544 19.2522C26.3544 19.3099 26.2967 19.3676 26.2391 19.4253C26.1814 19.4253 26.1238 19.4253 26.0085 19.4253C25.8932 19.4253 25.8355 19.4253 25.7202 19.3676L25.6049 19.3099C25.5473 19.2522 25.432 19.2522 25.3743 19.2522H25.3167C25.259 19.2522 25.259 19.2522 25.2014 19.1945C25.0861 19.1368 24.9708 19.1368 24.9131 19.0215C24.8555 18.9638 24.8555 18.9061 24.8555 18.8484C24.8555 18.733 24.9131 18.6753 24.9708 18.6176C25.0284 18.5599 25.0861 18.5599 25.0861 18.5022L25.1437 18.4445C25.1437 18.4445 25.2014 18.3868 25.2014 18.3291C25.2014 18.2715 25.2014 18.2715 25.2014 18.2138C25.2014 18.1561 25.2014 18.1561 25.1437 18.0984C25.1437 18.0984 25.1437 18.0407 25.0861 17.983C25.0861 17.9253 25.0861 17.8676 25.0861 17.7522C25.0861 17.6368 25.2014 17.5791 25.259 17.5215C25.3743 17.4638 25.4896 17.5215 25.6049 17.5791C25.7779 17.6945 25.8355 17.6945 25.8355 17.6945C25.8932 17.6945 25.9508 17.6945 25.9508 17.6945C25.9508 17.6945 25.9508 17.6945 26.0085 17.6945H26.1238C26.2391 17.6945 26.2967 17.6945 26.412 17.6945C26.4697 17.6945 26.585 17.7522 26.7003 17.8676C26.7003 17.9253 26.8156 18.0407 26.7579 18.1561C26.7579 18.2138 26.7579 18.2138 26.7003 18.2715C26.7579 18.2138 26.8156 18.1561 26.8156 18.1561C26.8732 18.0984 26.9885 18.0407 27.1038 18.0407C27.2191 18.0407 27.3344 18.0984 27.4497 18.2138C27.5074 18.2715 27.565 18.3868 27.565 18.5022C27.565 18.6176 27.565 18.6753 27.5074 18.733C27.6803 18.7907 27.738 18.8484 27.7956 18.8484C27.8533 18.9061 27.9109 18.9638 28.0262 19.0215C28.0262 19.0791 28.0839 19.1368 28.0839 19.3099C28.0839 19.4253 28.0262 19.5984 27.8533 19.7138C27.8533 19.8291 27.7956 19.8291 27.738 19.8291ZM26.412 18.7907C26.4697 18.7907 26.5273 18.7907 26.5273 18.7907C26.6426 18.8484 26.7003 18.9061 26.8156 18.9638L26.8732 19.0215C26.9309 19.0791 26.9885 19.1368 26.9885 19.1368C26.9885 19.1368 27.1038 19.1945 27.1615 19.1945C27.2768 19.2522 27.3344 19.2522 27.5074 19.3099C27.5074 19.3099 27.6227 19.3676 27.738 19.3676C27.738 19.3676 27.738 19.3676 27.738 19.3099V19.2522C27.738 19.1945 27.6803 19.1945 27.6803 19.1945C27.6803 19.1945 27.6227 19.1945 27.5074 19.1368C27.3344 19.0791 27.2768 19.0215 27.2191 18.9061C27.2191 18.7907 27.2191 18.733 27.2191 18.6753C27.2191 18.6753 27.2191 18.6176 27.2768 18.6176C27.2768 18.5599 27.3344 18.5022 27.3344 18.5022V18.4445C27.3344 18.4445 27.3344 18.4445 27.2768 18.4445C27.2768 18.4445 27.2191 18.4445 27.2191 18.5022C27.2191 18.5022 27.1615 18.5022 27.1615 18.5599V18.6176V18.6753C27.1615 18.733 27.1038 18.7907 27.0462 18.8484C26.9309 18.9061 26.8156 18.8484 26.8156 18.7907H26.7579C26.7003 18.7907 26.7003 18.7907 26.7003 18.733L26.6426 18.6753H26.585L26.4697 18.5599C26.412 18.4445 26.4697 18.3291 26.4697 18.2715C26.5273 18.2138 26.5273 18.1561 26.5273 18.1561V17.9253L26.4697 18.0984C26.4697 18.0984 26.412 18.0984 26.3544 18.0984H26.2391C26.1814 18.0984 26.1814 18.0984 26.1238 18.0984C26.0661 18.0984 25.9508 18.0984 25.8932 18.0407C25.8355 18.0407 25.8355 18.0407 25.7202 17.983V18.0407V18.0984C25.7202 18.2138 25.7202 18.2715 25.7202 18.3291C25.7202 18.4445 25.6626 18.5599 25.6626 18.5599C25.6626 18.6176 25.6049 18.6753 25.5473 18.733C25.6049 18.733 25.6049 18.733 25.6626 18.7907H25.7202C25.8355 18.8484 25.8932 18.8484 25.9508 18.9061L26.0661 18.9638C26.1238 18.9638 26.1238 18.9638 26.1238 18.9638H26.1814C26.1814 18.9638 26.1814 18.9638 26.2391 18.9061C26.2967 18.8484 26.2967 18.7907 26.412 18.733C26.2967 18.7907 26.3544 18.7907 26.412 18.7907Z" fill="white"/>
<path d="M23.5289 31.4831C23.4136 31.4831 23.3559 31.4254 23.3559 31.3677C23.2983 31.31 23.3559 31.1947 23.4136 31.137C23.4136 31.137 23.8748 30.7908 24.336 30.4447L24.4513 30.387C24.5666 30.3293 24.5666 30.3293 24.6242 30.2139V30.1562C24.7395 29.9831 24.7395 29.81 24.6819 29.7524C24.6242 29.6947 24.4513 29.5793 24.336 29.5216L24.4513 29.3485L24.336 29.5216C24.2207 29.4639 23.9324 29.2908 23.8171 28.887C23.7018 28.5408 23.8171 28.2524 23.9901 28.0793C24.1054 28.0216 24.163 27.9639 24.2783 27.9639C24.336 27.9639 24.4513 27.9639 24.5666 27.9062C24.7395 27.8485 24.9125 27.7908 24.9701 27.7331C25.0278 27.7331 25.0278 27.6754 25.0278 27.6754C25.0854 27.56 25.1431 27.5024 25.3737 27.4447C25.5466 27.387 25.8349 27.387 26.0078 27.56C26.1231 27.6754 26.1231 27.7908 26.1231 28.0216V28.137C26.1231 28.4254 26.1808 28.4831 26.1808 28.4831C26.1808 28.5408 26.2384 28.5408 26.2384 28.5408C26.2961 28.5985 26.3537 28.5985 26.4114 28.7139C26.5267 28.9447 26.4114 29.1754 26.3537 29.3485C26.2961 29.4062 26.2961 29.4639 26.2384 29.5216C26.2384 29.5793 26.2384 29.5793 26.2384 29.5793C26.2384 29.637 26.2961 29.6947 26.2961 29.81C26.2384 29.9254 26.1808 29.9831 26.1231 30.0408C26.0655 30.0408 26.0655 30.0985 26.0078 30.0985L25.8925 30.1562C25.7772 30.2139 25.7772 30.2716 25.7772 30.2716C25.7772 30.387 25.7772 30.5024 25.7196 30.56C25.6619 30.6754 25.489 30.7331 25.4313 30.7908C25.3737 30.7908 25.316 30.8485 25.2584 30.8485L25.2007 30.9062C25.1431 30.9639 25.0854 31.0216 25.0278 31.0793C24.8548 31.1947 24.6242 31.2523 24.336 31.31H24.2207C24.1054 31.31 24.0477 31.3677 23.9901 31.3677C23.6442 31.4254 23.5289 31.4831 23.5289 31.4831ZM25.489 27.7908C25.4313 27.7908 25.3737 27.7908 25.3737 27.7908C25.316 27.7908 25.316 27.7908 25.316 27.7908C25.2584 27.8485 25.2007 27.9062 25.1431 27.9639C25.1431 27.9639 25.1431 27.9639 25.0854 27.9639C25.0854 27.9639 24.8548 28.0793 24.6242 28.1947C24.4513 28.2524 24.336 28.2524 24.2207 28.31C24.163 28.31 24.163 28.31 24.1054 28.31C24.1054 28.31 24.0477 28.4254 24.1054 28.6562C24.2207 28.9447 24.336 29.0024 24.4513 29.06C24.4513 29.06 24.4513 29.06 24.5089 29.06C24.6819 29.1754 24.8548 29.2908 24.9701 29.3485C25.1431 29.5216 25.2584 29.81 24.9701 30.2139C24.8548 30.387 24.7972 30.4447 24.6819 30.56L24.5666 30.6177C24.5089 30.6754 24.4513 30.7331 24.336 30.7908C24.5089 30.7331 24.6242 30.7331 24.6819 30.6754C24.6819 30.6754 24.7395 30.6177 24.7972 30.56C24.8548 30.5024 24.9125 30.4447 24.9701 30.387C25.0854 30.3293 25.1431 30.3293 25.2007 30.2716H25.2584C25.2584 30.2716 25.2584 30.2139 25.2584 30.1562C25.2584 30.0985 25.2584 30.0985 25.2584 30.0408C25.316 29.8677 25.4313 29.81 25.5466 29.6947L25.6619 29.637C25.7196 29.5793 25.7772 29.5793 25.8349 29.5216C25.8349 29.4639 25.7772 29.4062 25.7772 29.3485C25.7772 29.2331 25.8349 29.1177 25.8925 29.1177C25.8925 29.1177 25.9502 29.06 25.9502 29.0024C26.0078 28.887 26.0655 28.8293 26.0078 28.7716C26.0078 28.7716 26.0078 28.7716 25.9502 28.7139C25.8925 28.6562 25.8349 28.6562 25.7772 28.5408C25.6619 28.4254 25.6619 28.31 25.6619 27.9639V27.8485C25.6619 27.7908 25.6619 27.6754 25.6619 27.6754C25.6619 27.7908 25.5466 27.7908 25.489 27.7908Z" fill="white"/>
<path d="M28.9478 19.5408C28.6019 20.4061 28.429 21.3292 28.3713 22.2523C28.3137 22.7138 28.3137 23.1754 28.3713 23.6369C28.3713 23.8677 28.429 24.0984 28.429 24.3292L28.5443 25.0215C28.6596 26.0023 28.5443 26.9831 28.256 27.9061C28.0831 28.3677 27.9101 28.8292 27.6795 29.2331C27.5642 29.4638 27.4489 29.6369 27.276 29.8677C27.2183 29.9831 27.103 30.0408 27.0454 30.1561L26.8148 30.3869V30.4446C26.8148 30.4446 26.7571 30.5023 26.6995 30.4446C26.6995 30.4446 26.6418 30.3869 26.6995 30.3869C26.7571 30.2715 26.8724 30.1561 26.9301 30.0984C26.9877 29.9831 27.0454 29.9254 27.103 29.81C27.2183 29.6369 27.3336 29.4061 27.4489 29.1754C27.6795 28.7715 27.8525 28.31 27.9678 27.8484C28.1984 26.9254 28.256 26.0023 28.1407 25.0792L28.0254 24.3869C27.9678 24.1561 27.9678 23.9254 27.9678 23.6369C27.9678 23.1754 27.9678 22.6561 28.0254 22.1946C28.1407 21.2715 28.429 20.2908 28.7749 19.4254C28.7749 19.3677 28.8325 19.3677 28.8902 19.3677C28.9478 19.4831 28.9478 19.5408 28.9478 19.5408Z" fill="white"/>
</svg>
