<svg width="144" height="144" fill="none" xmlns="http://www.w3.org/2000/svg"><path d="M72 0C32.355 0 0 32.358 0 72c0 39.645 32.358 72 72 72 39.644 0 72-32.358 72-72 0-39.644-32.358-72-72-72zm0 8.438c19.409 0 36.81 8.746 48.478 22.502l-15.969 11.797a16.87 16.87 0 00-2.978-.268h-6.69l-7.201-7.202a4.219 4.219 0 00-2.984-1.236H59.344a4.218 4.218 0 00-2.983 1.236l-7.202 7.202h-6.69c-9.305 0-16.875 7.57-16.875 16.875v33.75c0 2.443.526 4.765 1.464 6.863l-8.561 6.326A63.19 63.19 0 018.437 72C8.438 36.952 36.953 8.437 72 8.437zm37.969 50.906v33.75c0 4.652-3.785 8.437-8.438 8.437H42.469a8.4 8.4 0 01-2.726-.454l18.15-13.41A21.009 21.009 0 0072 93.094c11.631 0 21.094-9.463 21.094-21.094 0-3.173-.709-6.182-1.969-8.884l14.827-10.955a8.44 8.44 0 014.017 7.183zM59.344 72c0-6.979 5.677-12.656 12.656-12.656 2.624 0 5.063.803 7.087 2.175L59.896 75.697A12.619 12.619 0 0159.344 72zm25.312 0c0 6.979-5.677 12.656-12.656 12.656a12.59 12.59 0 01-7.087-2.175l19.191-14.178c.358 1.17.552 2.411.552 3.697zm1.45-15.667A21.008 21.008 0 0072 50.906c-11.631 0-21.094 9.463-21.094 21.094 0 3.173.709 6.182 1.969 8.884l-18.69 13.808a8.44 8.44 0 01-.154-1.598v-33.75c0-4.653 3.785-8.438 8.438-8.438h8.437a4.218 4.218 0 002.983-1.235l7.202-7.202H82.91l7.201 7.202a4.219 4.219 0 002.984 1.235h.358l-7.345 5.427zM72 135.562c-19.408 0-36.81-8.746-48.478-22.501l8.795-6.498a16.787 16.787 0 0010.152 3.406h59.062c9.305 0 16.875-7.57 16.875-16.875v-33.75c0-4.887-2.09-9.294-5.421-12.378l12.518-9.249A63.189 63.189 0 01135.562 72c0 35.049-28.513 63.562-63.562 63.562z" fill="#DBDBDB"/></svg>