<svg width="64" height="38" fill="none" xmlns="http://www.w3.org/2000/svg"><g clip-path="url(#clip0)"><path d="M32 33.222c3.86-3.454 6.298-8.533 6.298-14.222 0-5.69-2.438-10.667-6.298-14.222C28.648 1.73 24.076-.2 19.2-.2 8.635-.2 0 8.435 0 19s8.635 19.098 19.2 19.098c4.876.102 9.448-1.828 12.8-4.876z" fill="#07A9E2"/><path d="M0 19c0 10.565 8.635 19.098 19.2 19.098 4.978 0 9.448-1.828 12.8-4.978 3.86-3.453 6.298-8.533 6.298-14.222S35.86 8.333 32 4.778C28.648 1.73 24.076-.2 19.2-.2" fill="#009DDD"/><path d="M32 4.778C28.648 1.73 24.076-.2 19.2-.2h-.914C12.292 4.168 8.432 11.178 8.432 19c0 7.822 3.86 14.831 9.752 19.098h.914c4.978 0 9.448-1.828 12.8-4.978 3.86-3.453 6.299-8.533 6.299-14.222S35.86 8.333 32 4.778z" fill="#0284CC"/><path d="M44.901-.2C39.923-.2 35.453 1.628 32 4.778c-.71.61-1.32 1.32-1.93 2.031h3.86a14.44 14.44 0 011.423 2.032h-6.806c-.407.711-.813 1.32-1.118 2.032h9.041c.305.71.61 1.32.813 2.032H26.717c-.203.71-.406 1.32-.61 2.031h11.785c.304 1.32.406 2.642.406 4.064 0 2.133-.305 4.165-1.016 6.095H26.717c.203.711.508 1.32.813 2.032h9.04a13.012 13.012 0 01-1.117 2.032h-6.806a14.53 14.53 0 001.422 2.031h3.86c-.609.711-1.218 1.422-1.93 2.032 3.454 3.048 7.924 4.978 12.902 4.978C55.466 38.2 64 29.666 64 19.1 64 8.435 55.466-.2 44.901-.2z" fill="#FF2957"/><path d="M44.901-.2C39.923-.2 35.453 1.628 32 4.778c-.71.61-1.32 1.32-1.93 2.031h3.86a14.44 14.44 0 011.423 2.032h-6.806c-.407.711-.813 1.32-1.118 2.032h9.041c.305.71.61 1.32.813 2.032H26.717c-.203.71-.406 1.32-.61 2.031h11.785c.304 1.32.406 2.642.406 4.064 0 2.133-.305 4.165-1.016 6.095H26.717c.203.711.508 1.32.813 2.032h9.04a13.012 13.012 0 01-1.117 2.032h-6.806a14.53 14.53 0 001.422 2.031h3.86c-.609.711-1.218 1.422-1.93 2.032 3.454 3.048 7.924 4.978 12.902 4.978C55.466 38.2 64 29.666 64 19.1" fill="#ED1C2E"/><path d="M32 33.222c3.86-3.454 6.298-8.533 6.298-14.222S35.86 8.333 32 4.778v28.444z" fill="#0466B5"/><path d="M57.397 23.165c0-.305.304-.61.609-.61s.61.305.61.61-.305.61-.61.61-.61-.305-.61-.61zm.609.508c.305 0 .406-.203.406-.508s-.203-.406-.406-.406c-.305 0-.508.203-.508.406s.305.508.508.508zm0-.305h-.102v-.508h.305l.102.102c0 .102 0 .102-.102.102l.102.203h-.102l-.101-.203h-.102v.304zm0-.304h.102v-.102h-.102v.102z" fill="#fff"/><path d="M32 4.778c-.712.61-1.321 1.32-1.93 2.032h3.86c.508.61 1.016 1.32 1.422 2.031h-6.806c-.407.712-.813 1.321-1.118 2.032h9.041c.305.711.61 1.32.813 2.032H26.717c-.203.711-.406 1.32-.61 2.032h11.785c.304 1.32.406 2.641.406 4.063 0 2.134-.305 4.165-1.016 6.096H26.717c.203.71.508 1.32.813 2.031h9.04a13.011 13.011 0 01-1.117 2.032h-6.806c.407.711.914 1.422 1.422 2.032h3.86c-.609.71-1.218 1.422-1.93 2.031 3.454 3.048 7.924 4.978 12.902 4.978h.914c5.892-4.267 9.753-11.276 9.753-19.098 0-7.822-3.86-14.832-9.753-19.099h-.914C39.923-.2 35.453 1.73 32 4.778z" fill="#D1094B"/><path d="M16.762 23.775h-2.438l1.422-7.416-3.25 7.416h-2.134l-.406-7.416-1.422 7.416H6.4l1.829-9.752h3.759l.203 6.095 2.641-6.095h3.86l-1.93 9.752z" fill="#fff"/><path d="M14.426 19.508l1.422-3.15-1.117 5.893c.101.508.203 1.117.406 1.625h1.625l1.829-9.752h-3.556c-.406 1.524-.71 3.25-.71 4.978.1.101.1.203.1.406zm28.952 4.165c-.711.203-1.118.305-1.727.305-1.22 0-1.829-.61-1.829-1.727 0-.203 0-.406.102-.711l.101-.813.102-.61 1.117-5.993h2.337l-.305 1.829h1.22l-.306 1.828h-1.218l-.61 3.251c0 .102-.102.305-.102.305 0 .406.305.61.813.61.305 0 .508 0 .61-.102l-.305 1.828zm7.01-7.72c-.203-.102-.203-.102-.304-.102-.102 0-.204 0-.204-.102h-.305c-.812 0-1.32.305-2.031 1.321l.203-1.219h-2.133l-1.423 7.924h2.438c.813-4.876 1.22-5.689 2.337-5.689h.305l.304.102.813-2.235zM33.93 18.39c0 1.017.61 1.728 1.828 2.134 1.016.406 1.118.508 1.118.914 0 .508-.406.712-1.422.712a7.732 7.732 0 01-2.134-.305l-.304 1.828h.101l.407.102h.61c.609.102 1.015.102 1.32.102 2.54 0 3.758-.813 3.758-2.642 0-1.117-.508-1.727-1.727-2.235-1.015-.406-1.117-.508-1.117-.812 0-.407.406-.61 1.22-.61.405 0 1.117 0 1.726.102l.305-1.829c-.61-.102-1.524-.102-2.133-.102-2.642 0-3.556 1.22-3.556 2.642zm-9.448 5.385h-1.93v-.813c-.61.61-1.422.915-2.54.915-1.32 0-2.133-.915-2.133-2.134 0-1.93 1.524-3.047 4.165-3.047h1.016c.101-.305.101-.407.101-.508 0-.508-.406-.711-1.523-.711-.712 0-1.423.101-1.93.203l-.305.101H19.2l.304-1.727c1.22-.304 1.93-.406 2.845-.406 2.032 0 3.149.813 3.149 2.337 0 .406 0 .71-.203 1.625l-.508 2.844-.102.508-.101.407v.304l-.102.102zm-1.727-3.556h-.508c-1.32 0-2.032.407-2.032 1.22 0 .507.305.812.813.812 1.016 0 1.727-.813 1.727-2.032zm9.549 3.353c-.812.203-1.625.305-2.438.305-2.641 0-4.063-1.22-4.063-3.556 0-2.743 1.727-4.673 4.165-4.673 1.93 0 3.149 1.117 3.149 2.844 0 .61-.102 1.118-.305 1.93h-4.774v.305c0 .915.71 1.422 2.031 1.422.915 0 1.626-.101 2.439-.507l-.204 1.93zm-1.219-4.673v-.407c0-.61-.406-1.015-1.117-1.015s-1.32.508-1.524 1.422h2.641z" fill="#DCE5E5"/><path d="M57.803 20.219c-.406 2.641-2.235 3.759-4.673 3.759-2.641 0-3.759-1.626-3.759-3.658 0-2.742 1.829-4.672 4.673-4.672 2.438 0 3.759 1.625 3.759 3.555v1.016zm-2.54-1.016c0-.813-.305-1.524-1.32-1.524-1.22 0-1.93 1.422-1.93 2.743 0 1.016.507 1.727 1.32 1.727.508 0 1.625-.711 1.829-1.93.101-.407.101-.711.101-1.016z" fill="#fff"/><path d="M49.473 21.235c.101-.711.203-1.524.203-2.235v-.203c-.102.508-.203 1.016-.203 1.625-.102.203-.102.508 0 .813z" fill="#fff"/></g><defs><clipPath id="clip0"><path fill="#fff" d="M0 0h64v38H0z"/></clipPath></defs></svg>