<svg width="87" height="25" fill="none" xmlns="http://www.w3.org/2000/svg"><path d="M0 0h84.962v23.875h-72.28c2.518-.028 5.035-.782 7.115-2.223 2.709-1.852 4.652-4.802 5.199-8.054a12.113 12.113 0 00-1.231-7.794C18.4 8.864 13.038 11.91 7.675 14.97a992.442 992.442 0 00-7.593-4.336 12.233 12.233 0 002.34 8.068c2.325 3.224 6.225 5.173 10.179 5.173H0V0zm17.293.192c-3.201 1.784-6.375 3.609-9.577 5.406-1.436-.81-2.873-1.646-4.323-2.442-.37.274-.616.713-.917 1.056 1.765.975 3.503 2.004 5.268 2.978C11.479 5.036 15.24 2.909 18.99.768 18.443.535 17.909 0 17.293.192zm22.438 2.21c-.561.26-.876.836-1.04 1.412a10.407 10.407 0 00-.328 3.897c.11 1.002.602 2.086 1.6 2.47 1.232.453 2.819.22 3.653-.864.63-.851.725-1.99.561-3.005-.11-.7-.533-1.4-1.204-1.66-1.122-.453-2.353-.151-3.406.329.109-.508.191-1.03.478-1.468.192-.289.548-.385.862-.494.985-.288 1.998-.44 3.01-.604-.068-.37-.136-.727-.205-1.098-1.354.26-2.736.48-3.981 1.084zm20.412 0c-.889.425-1.108 1.495-1.272 2.387-.205 1.454-.356 3.073.37 4.404.547 1.002 1.792 1.317 2.859 1.153.862-.096 1.71-.577 2.134-1.372.452-.851.506-1.88.329-2.813-.137-.686-.602-1.331-1.287-1.564-1.094-.398-2.284-.096-3.31.37.109-.494.191-1.015.465-1.454.191-.302.547-.398.862-.494.985-.288 2.01-.453 3.023-.604-.055-.37-.137-.741-.205-1.098-1.354.275-2.736.48-3.968 1.084zM7.73 8.74C5.719 7.63 3.735 6.45 1.71 5.351c-.205.412-.41.81-.615 1.208 2.189 1.248 4.378 2.483 6.58 3.732 4.556-2.58 9.098-5.187 13.654-7.766a10.088 10.088 0 00-1.094-.933c-4.16 2.387-8.346 4.76-12.505 7.148zm26.323-6.778c-1.094.165-2.162.755-2.723 1.743-.711 1.22-.766 2.758-.383 4.102.342 1.194 1.369 2.14 2.572 2.415 1.3.288 2.682.22 3.927-.247a12.496 12.496 0 00-.287-.946c-1.286.288-2.75.494-3.913-.261-.999-.631-1.314-1.894-1.232-3.005.028-.974.466-2.003 1.355-2.456 1.15-.576 2.517-.384 3.694.014.123-.316.26-.645.383-.961-1.053-.453-2.258-.549-3.393-.398zM7.689 11.855a446.054 446.054 0 00-7.06-4.02c-.123.453-.232.92-.328 1.372 2.463 1.4 4.939 2.785 7.402 4.199a4397.393 4397.393 0 0015.432-8.74c-.26-.385-.547-.742-.834-1.098-4.87 2.757-9.728 5.543-14.612 8.287zm39.525-7.972c-.97.26-1.641 1.166-1.805 2.127-.178 1.015-.192 2.113.246 3.073.355.755 1.163 1.167 1.97 1.222.999.082 2.025 0 2.983-.302-.069-.302-.137-.618-.206-.92-.971.275-2.066.467-3.023.042-.657-.316-.821-1.098-.862-1.77 1.409-.014 2.832-.014 4.241 0 .027-.975-.014-2.072-.657-2.868-.697-.81-1.915-.865-2.886-.604zm5.993.521v-.493h-1.259v8.905h1.204c.014-.837 0-1.674 0-2.511 1.15.15 2.463.15 3.393-.645.958-.81 1.136-2.182 1.013-3.362-.083-.947-.534-1.962-1.464-2.346-.944-.426-2.066-.165-2.887.452zm12.82-.26c-.042.315.136.631.205.947.875-.234 1.833-.453 2.722-.138.602.288.452 1.07.465 1.62-1.067.082-2.23-.124-3.187.452-.89.522-1.013 1.839-.466 2.648.466.645 1.341.81 2.08.714.63-.069 1.163-.398 1.683-.741.273.617 1.026.782 1.628.7.178-.247.082-.618.137-.92-.246-.082-.657-.137-.643-.494-.041-1.18.027-2.373-.028-3.553-.013-.728-.574-1.331-1.272-1.482-1.108-.275-2.271-.165-3.325.247zm17.183-.275c-.862 1.03-1.71 2.072-2.558 3.115.711.823 1.382 1.674 2.107 2.484.479.535 1.135.85 1.847.905.082-.315.15-.631.205-.947-1.245-.452-1.943-1.646-2.873-2.51.862-1.03 1.765-2.018 2.627-3.033-.452-.014-.903-.014-1.355-.014zm-10.863.042v6.339h1.245V7.56h3.01v2.69h1.245c.028-2.113 0-4.226.014-6.353h-1.259v2.69h-3.01v-2.69c-.41.014-.82.014-1.245.014zm7.032 6.38h1.26V3.91h-1.246c-.014 2.126 0 4.253-.014 6.38zm-17.608 3.142c.561.782 1.574 1.249 2.518 1.002.575-.138 1.012-.55 1.368-.988-.164-.206-.342-.398-.506-.604-.383.37-.848.713-1.41.7-.56.041-1.04-.302-1.422-.7l-.547.59zm-27.786.22c-.93.15-1.847.603-2.436 1.372-.697.905-.903 2.099-.82 3.224.068 1.043.424 2.113 1.203 2.84.78.741 1.902 1.016 2.956.975 1.135-.014 2.325-.37 3.092-1.235.889-.974 1.121-2.388.985-3.678-.096-1.097-.589-2.209-1.505-2.854-1-.713-2.299-.823-3.475-.644zm6.444 1.907c.013 2.127 0 4.253.013 6.367h1.204V19.21c1.026-.028 2.039-.014 3.065 0v2.716h1.217v-6.38c-.396 0-.793 0-1.19-.014-.04.906-.014 1.798-.014 2.69-1.026 0-2.038.013-3.064-.014.014-.892 0-1.784.014-2.662-.425 0-.835 0-1.245.014zm8.167-.014c-.04 1.276-.095 2.552-.37 3.8-.081.33-.163.673-.355.961-.287.385-.739.59-1.163.796.11.343.22.7.329 1.043.82-.247 1.628-.741 1.942-1.578.493-1.29.561-2.69.698-4.061h1.834v5.42h1.217v-6.38h-4.132zm5.856.302c.082.302.178.604.26.906.875-.22 1.833-.453 2.709-.138.602.288.451 1.07.465 1.62-1.067.082-2.216-.124-3.188.438-1.163.673-1.053 2.704.22 3.198 1.025.48 2.202.123 3.05-.536.301.645 1.067.769 1.71.7l.082-.905c-.232-.096-.588-.11-.643-.412-.082-1.276.041-2.566-.054-3.856-.069-.7-.67-1.207-1.328-1.33a5.736 5.736 0 00-3.283.315zm6.376-.288c.027 2.127 0 4.253.013 6.367h1.245c1.095-1.578 2.285-3.088 3.297-4.72-.054 1.577-.027 3.142-.027 4.72h1.245v-6.38c-.424 0-.848 0-1.272.013-1.081 1.591-2.285 3.087-3.298 4.734.096-1.578.028-3.17.041-4.748-.41 0-.834 0-1.245.014zm7.428-.014c-.04 2.127-.013 4.267-.013 6.394h1.217v-2.73h3.051v2.73h1.218v-6.394h-1.204c-.014.892 0 1.798 0 2.69H69.46v-2.69h-1.203zM47.092 5.118c.493-.563 1.505-.631 1.998-.027.328.397.356.933.397 1.427h-2.928c.096-.494.191-1.03.533-1.4zm6.157.123c.643-.329 1.423-.617 2.134-.329.712.288.958 1.125.999 1.825.041.837-.096 1.825-.834 2.346-.67.467-1.546.343-2.299.22V5.241zm-13.736.645c.752-.384 1.628-.686 2.49-.466.533.137.903.645.985 1.166.11.686.055 1.44-.315 2.045-.574.988-2.284 1.015-2.818-.042-.438-.823-.397-1.797-.342-2.703zm20.385 0c.78-.398 1.683-.713 2.559-.452.56.164.889.74.944 1.303.068.672.013 1.413-.383 1.99-.657.933-2.367.878-2.833-.22-.369-.823-.328-1.742-.287-2.62zm7.306 1.688c.698-.288 1.478-.165 2.216-.22v1.469c-.67.425-1.532.74-2.312.425-.656-.316-.588-1.427.096-1.674zm-32.945 7.053c.93-.151 1.998.013 2.668.74.739.797.903 1.977.794 3.033-.082.878-.48 1.784-1.273 2.25-.807.467-1.82.522-2.695.234-.903-.316-1.478-1.194-1.642-2.1-.191-.947-.137-1.99.315-2.867.356-.7 1.067-1.167 1.833-1.29zm21.343 4.651c.712-.315 1.505-.178 2.258-.247 0 .508 0 1.002-.014 1.51-.684.343-1.505.7-2.258.398-.684-.289-.643-1.373.014-1.66z" fill="#fff"/><path d="M17.294.192c.616-.192 1.15.357 1.697.576-3.75 2.14-7.511 4.268-11.247 6.422-1.764-.974-3.502-2.004-5.267-2.978.301-.356.534-.782.917-1.056 1.45.796 2.873 1.633 4.323 2.442 3.188-1.797 6.376-3.622 9.577-5.406zm22.438 2.21c1.245-.605 2.626-.81 3.967-1.085.069.37.137.727.205 1.098-1.012.164-2.024.315-3.01.604-.314.11-.67.192-.861.493-.288.44-.37.961-.48 1.469 1.054-.48 2.3-.782 3.407-.33.684.261 1.109.96 1.204 1.66.164 1.016.069 2.155-.56 3.006-.835 1.083-2.422 1.317-3.654.864-.998-.384-1.49-1.468-1.6-2.47a10.407 10.407 0 01.328-3.897c.178-.576.493-1.152 1.054-1.413zm-.22 3.484c-.054.906-.081 1.88.343 2.717.533 1.057 2.23 1.03 2.818.041.37-.604.424-1.358.315-2.044-.082-.535-.452-1.043-.985-1.167-.862-.233-1.738.069-2.49.453zm20.632-3.485c1.245-.604 2.627-.81 3.954-1.098.069.37.15.728.205 1.098-1.012.165-2.038.316-3.023.604-.315.11-.67.206-.862.494-.287.439-.37.947-.465 1.454 1.026-.466 2.216-.754 3.31-.37.685.233 1.15.864 1.287 1.564.178.933.123 1.962-.329 2.813-.424.782-1.258 1.276-2.134 1.372-1.054.165-2.312-.151-2.86-1.153-.724-1.344-.574-2.95-.369-4.404.164-.878.383-1.949 1.286-2.374zm-.246 3.485c-.055.878-.082 1.798.301 2.607.465 1.098 2.175 1.167 2.832.22.383-.576.438-1.317.383-1.99-.055-.562-.383-1.125-.944-1.303-.876-.247-1.792.068-2.572.466zM7.731 8.74c4.159-2.387 8.345-4.761 12.505-7.148.383.288.752.59 1.094.933-4.556 2.58-9.098 5.172-13.654 7.766-2.189-1.249-4.378-2.484-6.58-3.732.205-.412.41-.81.615-1.208C3.736 6.45 5.72 7.63 7.731 8.741zm26.323-6.778c1.149-.15 2.34-.055 3.42.398-.123.315-.26.645-.383.96-1.177-.398-2.545-.59-3.694-.013-.903.452-1.327 1.482-1.354 2.456-.082 1.111.232 2.387 1.231 3.005 1.163.754 2.64.549 3.913.26.11.316.205.632.287.947a7.091 7.091 0 01-3.926.247c-1.204-.274-2.23-1.221-2.573-2.415-.383-1.344-.328-2.868.384-4.102.533-.988 1.587-1.578 2.695-1.743zM7.69 11.855c4.884-2.744 9.74-5.53 14.611-8.288.302.357.575.714.835 1.098-5.144 2.909-10.275 5.832-15.433 8.74-2.462-1.413-4.939-2.799-7.401-4.198.096-.467.205-.92.328-1.372a446.116 446.116 0 017.06 4.02zm39.525-7.972c.972-.26 2.19-.206 2.9.604.657.796.685 1.893.657 2.867-1.409 0-2.832-.013-4.24 0 .027.659.19 1.455.861 1.77.958.426 2.052.247 3.024-.04l.205.919c-.958.302-1.984.384-2.983.302-.793-.055-1.614-.48-1.97-1.222-.438-.946-.438-2.058-.246-3.073.15-.96.82-1.866 1.792-2.127zm-.123 1.235c-.355.37-.451.905-.52 1.4H49.5c-.04-.495-.068-1.03-.397-1.428-.492-.603-1.518-.535-2.01.028zm6.116-.714c.82-.617 1.943-.878 2.914-.452.917.384 1.368 1.4 1.464 2.346.123 1.18-.055 2.552-1.013 3.362-.93.795-2.243.795-3.393.645v2.51h-1.204V3.91h1.26c-.028.124-.028.37-.028.494zm.04.837v4.062c.767.123 1.629.247 2.3-.22.724-.521.875-1.51.834-2.346-.027-.7-.288-1.537-.999-1.825-.711-.288-1.491 0-2.134.33zm12.78-1.097a5.806 5.806 0 013.31-.275c.698.151 1.259.755 1.273 1.482.054 1.18-.014 2.374.027 3.554-.014.357.397.412.643.494-.055.302.04.672-.137.92-.602.095-1.354-.083-1.628-.7-.506.342-1.053.672-1.683.74-.739.096-1.614-.054-2.08-.713-.56-.81-.424-2.113.466-2.648.958-.563 2.134-.37 3.188-.453-.028-.549.136-1.331-.466-1.62-.875-.301-1.847-.082-2.722.138-.055-.288-.22-.604-.192-.92zm1.176 3.43c-.684.247-.753 1.358-.096 1.674.78.33 1.642 0 2.312-.425-.014-.494 0-.975 0-1.469-.739.055-1.518-.054-2.216.22zM83.21 3.869h1.368c-.862 1.016-1.765 2.017-2.627 3.033.93.864 1.629 2.058 2.874 2.51-.055.316-.137.632-.206.947a2.659 2.659 0 01-1.847-.905c-.725-.81-1.409-1.66-2.107-2.484a253.25 253.25 0 012.545-3.1zm-10.863.041h1.259V6.6h3.01V3.91h1.258c0 2.113.014 4.24-.013 6.353h-1.245v-2.69h-3.01v2.69h-1.245c-.014-2.126-.014-4.24-.014-6.353zm7.032 6.38c.014-2.126-.013-4.253.014-6.38h1.245v6.38H79.38zM7.676 14.957c5.363-3.06 10.726-6.106 16.09-9.166a12.113 12.113 0 011.23 7.794c-.546 3.252-2.49 6.202-5.198 8.054-2.08 1.44-4.597 2.196-7.114 2.223h-.069c-3.954 0-7.867-1.948-10.179-5.173a12.255 12.255 0 01-2.34-8.068c2.518 1.44 5.049 2.895 7.58 4.336z" fill="#299E30"/><path d="M61.772 13.433c.178-.192.37-.398.56-.59.37.384.849.727 1.423.7.562.014 1.027-.316 1.41-.7.164.206.342.398.506.604-.356.44-.807.85-1.368.988-.958.247-1.97-.233-2.531-1.002zm-27.787.22c1.176-.179 2.476-.069 3.489.645.916.645 1.409 1.756 1.505 2.854.136 1.276-.083 2.69-.986 3.677-.78.864-1.97 1.235-3.092 1.235-1.053.041-2.175-.233-2.955-.974-.78-.727-1.135-1.798-1.204-2.84-.082-1.126.11-2.32.821-3.225.575-.768 1.491-1.221 2.422-1.372zm.273.974c-.766.11-1.477.59-1.833 1.29-.451.864-.492 1.907-.314 2.868.177.905.752 1.783 1.641 2.099.876.288 1.888.233 2.695-.233.78-.467 1.177-1.372 1.273-2.25.11-1.057-.041-2.224-.794-3.033-.67-.713-1.737-.892-2.668-.741zm6.17.933c.411-.014.822-.014 1.232 0-.014.892 0 1.784-.014 2.662 1.026.027 2.039.014 3.065.014.014-.892-.027-1.798.014-2.69.396.014.793.014 1.19.014v6.38h-1.218v-2.716a114.268 114.268 0 00-3.064 0v2.716h-1.204c0-2.126.013-4.253 0-6.38zm8.169-.014h4.145v6.38h-1.218v-5.42h-1.833c-.137 1.373-.205 2.773-.698 4.062-.3.837-1.122 1.331-1.942 1.578-.11-.343-.22-.7-.329-1.043.424-.205.876-.411 1.163-.795.192-.289.287-.632.356-.96.26-1.25.315-2.526.356-3.802zm5.855.302c1.026-.439 2.203-.535 3.297-.33.657.124 1.26.646 1.328 1.332.095 1.276-.028 2.566.054 3.855.055.302.41.316.643.412l-.082.906c-.643.068-1.409-.055-1.71-.7-.848.672-2.025 1.015-3.051.535-1.272-.494-1.382-2.525-.219-3.197.958-.563 2.12-.357 3.188-.439-.027-.549.137-1.331-.465-1.62-.876-.301-1.834-.082-2.71.138-.095-.288-.177-.59-.273-.892zm1.15 3.43c-.657.289-.685 1.373-.014 1.66.766.303 1.573-.054 2.257-.397.014-.508.014-1.002.014-1.51-.753.07-1.56-.068-2.258.248zm5.226-3.718c.424-.014.848-.014 1.258-.014-.013 1.578.041 3.17-.04 4.748.998-1.647 2.216-3.142 3.297-4.734.424-.014.848-.014 1.272-.014v6.38H65.37c0-1.577-.027-3.141.027-4.72-1.012 1.633-2.202 3.143-3.297 4.72h-1.245c-.041-2.112-.014-4.24-.027-6.366zm7.429-.014c.396 0 .793.014 1.204.014v2.69h3.064v-2.69h1.204c.014 2.127 0 4.254 0 6.394h-1.217v-2.73H69.46v2.73h-1.218c.014-2.154-.014-4.28.014-6.408z" fill="#F59624"/></svg>