<svg width="140" height="20" fill="none" xmlns="http://www.w3.org/2000/svg">
    <path fill-rule="evenodd" clip-rule="evenodd"
          d="M119.583 18.563c-.098.555.45.988.932.74l5.488-2.82 5.486 2.82c.482.248 1.03-.186.932-.74l-1.037-5.912 4.404-4.195c.411-.392.197-1.11-.354-1.187l-6.123-.87-2.73-5.409a.644.644 0 00-.579-.366.644.644 0 00-.579.366l-2.73 5.41-6.123.87c-.551.077-.765.795-.354 1.187l4.404 4.195-1.037 5.913v-.003zm6.131-3.46l-4.608 2.368.868-4.946a.713.713 0 00-.204-.631l-3.632-3.463 5.065-.72a.654.654 0 00.491-.36l2.309-4.572 2.307 4.572a.664.664 0 00.491.36l5.065.719-3.632 3.463a.692.692 0 00-.181.29.695.695 0 00-.023.342l.868 4.946-4.608-2.367a.63.63 0 00-.576 0zm-34.132 3.46c-.097.555.45.988.933.74l5.487-2.82 5.487 2.82c.482.248 1.03-.186.932-.74l-1.037-5.912 4.404-4.195c.411-.392.197-1.11-.354-1.187l-6.123-.87L98.581.99a.642.642 0 00-1.159 0l-2.73 5.41-6.122.87c-.551.077-.765.795-.354 1.187l4.404 4.195-1.038 5.913v-.003zm6.132-3.46l-4.608 2.368.868-4.946a.707.707 0 00-.204-.631L90.138 8.43l5.064-.72a.656.656 0 00.492-.36l2.308-4.572 2.308 4.572a.664.664 0 00.491.36l5.065.719-3.632 3.463a.692.692 0 00-.181.29.695.695 0 00-.023.342l.867 4.946-4.607-2.367a.63.63 0 00-.576 0zm-90.131 3.46c-.098.555.45.988.932.74l5.487-2.82 5.487 2.82c.482.248 1.03-.186.932-.74l-1.037-5.912 4.404-4.195c.41-.392.197-1.11-.354-1.187l-6.123-.87L14.581.99a.642.642 0 00-1.159 0l-2.73 5.41-6.122.87c-.551.077-.765.795-.354 1.187l4.404 4.195-1.037 5.913v-.003zm6.13-3.46l-4.607 2.368.868-4.946a.707.707 0 00-.204-.631L6.138 8.43l5.065-.72a.656.656 0 00.49-.36l2.31-4.572L16.31 7.35a.656.656 0 00.491.36l5.065.719-3.632 3.463a.704.704 0 00-.204.632l.867 4.946-4.607-2.367a.63.63 0 00-.576 0zm21.87 3.46c-.098.555.45.988.932.74l5.487-2.82 5.487 2.82c.482.248 1.03-.186.932-.74l-1.037-5.912 4.404-4.195c.41-.392.197-1.11-.354-1.187l-6.123-.87L42.581.99a.642.642 0 00-1.159 0l-2.73 5.41-6.122.87c-.551.077-.765.795-.354 1.187l4.404 4.195-1.037 5.913v-.003zm6.13-3.46l-4.607 2.368.868-4.946a.707.707 0 00-.204-.631L34.137 8.43l5.066-.72a.656.656 0 00.49-.36l2.31-4.572L44.31 7.35a.656.656 0 00.491.36l5.065.719-3.632 3.463a.704.704 0 00-.204.632l.867 4.946-4.607-2.367a.63.63 0 00-.576 0zm21.87 3.46c-.098.555.45.988.932.74l5.487-2.82 5.487 2.82c.482.248 1.03-.186.932-.74l-1.037-5.912 4.403-4.195c.412-.392.198-1.11-.353-1.187l-6.123-.87L70.581.99a.642.642 0 00-1.159 0l-2.73 5.41-6.122.87c-.551.077-.765.795-.354 1.187l4.404 4.195-1.038 5.913v-.003zm6.13-3.46l-4.607 2.368.868-4.946a.707.707 0 00-.204-.631L62.138 8.43l5.065-.72a.656.656 0 00.49-.36l2.31-4.572L72.31 7.35a.656.656 0 00.491.36l5.065.719-3.632 3.463a.704.704 0 00-.204.632l.867 4.946-4.607-2.367a.63.63 0 00-.576 0z" fill="#FFB21E"/></svg>