<svg width="25" height="25" fill="none" xmlns="http://www.w3.org/2000/svg"><g clip-path="url(#clip0)"><path d="M23.991 4.607A4.37 4.37 0 0020.11.726a72.488 72.488 0 00-15.415 0A4.37 4.37 0 00.813 4.607a72.489 72.489 0 000 15.415 4.37 4.37 0 003.882 3.882 72.484 72.484 0 0015.415 0 4.37 4.37 0 003.881-3.882 72.496 72.496 0 000-15.415z" fill="url(#paint0_radial)"/><path d="M22.686 5.475a3.878 3.878 0 00-3.445-3.444 64.35 64.35 0 00-13.678 0 3.878 3.878 0 00-3.445 3.444 64.348 64.348 0 000 13.679 3.878 3.878 0 003.445 3.444 64.21 64.21 0 0013.678 0 3.878 3.878 0 003.445-3.444 64.33 64.33 0 000-13.679z" fill="url(#paint1_linear)"/><path d="M.762 19.524l.051.498a4.37 4.37 0 003.882 3.882 72.482 72.482 0 0015.414 0 4.37 4.37 0 003.882-3.882l.052-.498H.762z" fill="url(#paint2_linear)"/><path d="M23.991 20.022c.295-2.758.43-5.52.409-8.283l-5.486-5.486c-.686-.782-1.687-1.27-2.863-1.313a103.35 103.35 0 00-7.265 0c-2.01.07-3.415 1.42-3.775 3.405-.064.35-.102.706-.152 1.059v5.82c.028.188.069.376.081.565.08 1.208.577 2.242 1.372 2.942l5.582 5.582c2.74.02 5.48-.117 8.215-.41a4.37 4.37 0 003.882-3.881z" fill="url(#paint3_linear)"/><path d="M23.991 20.022a4.37 4.37 0 01-3.882 3.882 72.591 72.591 0 01-8.215.409L6.32 18.739c.646.565 1.489.91 2.466.947 2.419.09 4.846.088 7.265 0 2.188-.078 3.771-1.697 3.84-3.885.072-2.323.072-4.652 0-6.975-.032-1.01-.386-1.897-.974-2.57L24.4 11.74a72.695 72.695 0 01-.409 8.283z" fill="url(#paint4_linear)"/><path d="M15.235 9.716a3.844 3.844 0 10-5.43 5.43l8.893 8.895c.47-.041.941-.087 1.412-.137a4.37 4.37 0 003.882-3.882c.05-.47.096-.941.137-1.412l-8.894-8.894z" fill="url(#paint5_linear)"/><path d="M24.356 14.9l-7.158-7.158a.912.912 0 00-1.641.553c0 .297.142.56.361.727l8.31 8.31c.056-.81.1-1.621.128-2.432z" fill="url(#paint6_linear)"/><path d="M4.86 9.404c.05-.353.087-.708.151-1.059.36-1.985 1.765-3.335 3.775-3.404a103.35 103.35 0 017.265 0c2.187.078 3.77 1.697 3.84 3.885.072 2.323.072 4.652 0 6.975-.07 2.188-1.652 3.807-3.84 3.886a98.32 98.32 0 01-7.265-.002c-2.187-.082-3.7-1.705-3.846-3.896-.012-.19-.053-.377-.08-.566v-5.82zm7.544 8.986c1.107 0 2.215.033 3.32-.008 1.734-.064 2.8-1.098 2.841-2.83.05-2.158.05-4.319 0-6.477-.04-1.731-1.107-2.79-2.84-2.827-2.2-.046-4.401-.046-6.6 0-1.72.036-2.79 1.073-2.836 2.786a119.56 119.56 0 000 6.56c.047 1.711 1.116 2.725 2.836 2.789 1.091.04 2.186.007 3.28.007z" fill="url(#paint7_linear)"/><path d="M4.86 9.404c.05-.353.087-.708.151-1.059.36-1.985 1.765-3.335 3.775-3.404a103.35 103.35 0 017.265 0c2.187.078 3.77 1.697 3.84 3.885.072 2.323.072 4.652 0 6.975-.07 2.188-1.652 3.807-3.84 3.886a98.32 98.32 0 01-7.265-.002c-2.187-.082-3.7-1.705-3.846-3.896-.012-.19-.053-.377-.08-.566v-5.82zm7.544 8.986c1.107 0 2.215.033 3.32-.008 1.734-.064 2.8-1.098 2.841-2.83.05-2.158.05-4.319 0-6.477-.04-1.731-1.107-2.79-2.84-2.827-2.2-.046-4.401-.046-6.6 0-1.72.036-2.79 1.073-2.836 2.786a119.56 119.56 0 000 6.56c.047 1.711 1.116 2.725 2.836 2.789 1.091.04 2.186.007 3.28.007z" fill="#fff"/><path d="M12.403 8.47a3.844 3.844 0 100 7.69 3.844 3.844 0 000-7.69zm0 6.365a2.52 2.52 0 110-5.04 2.52 2.52 0 010 5.04zm4.983-6.54a.914.914 0 11-1.83 0 .914.914 0 011.83 0z" fill="#fff"/></g><defs><linearGradient id="paint1_linear" x1="9.607" y1="10.742" x2="-31.052" y2="-12.128" gradientUnits="userSpaceOnUse"><stop stop-color="#A1B5D8" stop-opacity="0"/><stop offset=".309" stop-color="#90A2BD" stop-opacity=".31"/><stop offset=".755" stop-color="#7C8B9C" stop-opacity=".757"/><stop offset="1" stop-color="#748290"/></linearGradient><linearGradient id="paint2_linear" x1="12.402" y1="21.501" x2="12.402" y2="25.242" gradientUnits="userSpaceOnUse"><stop stop-color="#FAE100" stop-opacity="0"/><stop offset=".307" stop-color="#FCA800" stop-opacity=".306"/><stop offset=".627" stop-color="#FE7300" stop-opacity=".627"/><stop offset=".869" stop-color="#FF5200" stop-opacity=".867"/><stop offset="1" stop-color="#FF4500"/></linearGradient><linearGradient id="paint3_linear" x1="11.037" y1="10.915" x2="5.097" y2="4.976" gradientUnits="userSpaceOnUse"><stop stop-color="#833AB4" stop-opacity="0"/><stop offset="1" stop-color="#833AB4"/></linearGradient><linearGradient id="paint4_linear" x1="16.851" y1="22.266" x2="13.886" y2="8.29" gradientUnits="userSpaceOnUse"><stop stop-color="#833AB4" stop-opacity="0"/><stop offset="1" stop-color="#833AB4"/></linearGradient><linearGradient id="paint5_linear" x1="17.979" y1="17.891" x2="6.072" y2="5.984" gradientUnits="userSpaceOnUse"><stop stop-color="#833AB4" stop-opacity="0"/><stop offset="1" stop-color="#833AB4"/></linearGradient><linearGradient id="paint6_linear" x1="18.862" y1="10.686" x2="14.925" y2="6.749" gradientUnits="userSpaceOnUse"><stop stop-color="#833AB4" stop-opacity="0"/><stop offset="1" stop-color="#833AB4"/></linearGradient><linearGradient id="paint7_linear" x1="17.167" y1="7.583" x2="7.459" y2="17.291" gradientUnits="userSpaceOnUse"><stop stop-color="#833AB4"/><stop offset=".092" stop-color="#9C3495"/><stop offset=".293" stop-color="#DC2546"/><stop offset=".392" stop-color="#FD1D1D"/><stop offset=".559" stop-color="#FC6831"/><stop offset=".689" stop-color="#FC9B40"/><stop offset=".752" stop-color="#FCAF45"/><stop offset=".781" stop-color="#FDB750"/><stop offset=".866" stop-color="#FECB6A"/><stop offset=".942" stop-color="#FFD87A"/><stop offset="1" stop-color="#FFDC80"/></linearGradient><radialGradient id="paint0_radial" cx="0" cy="0" r="1" gradientUnits="userSpaceOnUse" gradientTransform="translate(5.322 21.289) scale(26.4678)"><stop stop-color="#FAE100"/><stop offset=".054" stop-color="#FADC04"/><stop offset=".117" stop-color="#FBCE0E"/><stop offset=".183" stop-color="#FCB720"/><stop offset=".251" stop-color="#FE9838"/><stop offset=".305" stop-color="#FF7950"/><stop offset=".492" stop-color="#FF1C74"/><stop offset="1" stop-color="#6C1CD1"/></radialGradient><clipPath id="clip0"><path fill="#fff" transform="translate(.402 .315)" d="M0 0h24v24H0z"/></clipPath></defs></svg>