<svg width="25" height="25" fill="none" xmlns="http://www.w3.org/2000/svg"><g clip-path="url(#clip0)"><path d="M20.11 23.904a72.484 72.484 0 01-15.415 0 4.37 4.37 0 01-3.882-3.882 72.489 72.489 0 010-15.415A4.37 4.37 0 014.695.726a72.488 72.488 0 0115.414 0 4.37 4.37 0 013.882 3.881 72.496 72.496 0 010 15.415 4.37 4.37 0 01-3.881 3.882z" fill="url(#paint0_linear)"/><path d="M22.686 5.475a3.878 3.878 0 00-3.445-3.444 64.35 64.35 0 00-13.678 0 3.878 3.878 0 00-3.445 3.444 64.348 64.348 0 000 13.679 3.878 3.878 0 003.445 3.444 64.21 64.21 0 0013.678 0 3.878 3.878 0 003.445-3.444 64.33 64.33 0 000-13.679z" fill="url(#paint1_linear)"/><path d="M.762 19.524l.051.498a4.37 4.37 0 003.882 3.882 72.482 72.482 0 0015.414 0 4.37 4.37 0 003.882-3.882l.052-.498H.762z" fill="url(#paint2_linear)"/><path d="M24.398 11.471L19.416 6.49a5.943 5.943 0 01-1.42.594 4.068 4.068 0 01-.502.103 3.094 3.094 0 00-5.246 2.779c-.713-.01-3.031-.201-5.242-2.096L5.963 6.827s-1.223 2.135.575 3.755c.08.088.166.175.261.26l.023.025c-.236-.016-.946-.086-1.357-.377 0 0-.082 1.305 1.005 2.266l.877.885c-.267.022-.563.017-.768-.073 0 0 .182.773.885 1.391l1.23 1.236c-.738.43-2.03.968-3.73.83l7.46 7.29a72.686 72.686 0 007.686-.411 4.37 4.37 0 003.882-3.882c.304-2.847.439-5.7.406-8.55z" fill="url(#paint3_linear)"/><path d="M19.841 7.691c-.53.278-1.33.406-1.596.443a4.92 4.92 0 00-.006-.037c.901-.558 1.177-1.607 1.177-1.607a5.943 5.943 0 01-1.42.594 4.102 4.102 0 01-.501.103 3.094 3.094 0 00-5.246 2.779c-.827-.012-3.812-.266-6.286-3.14 0 0-1.377 2.404.939 4.045 0 0-.939-.029-1.437-.38 0 0-.146 2.315 2.52 3.047 0 0-.937.235-1.406.03 0 0 .469 1.993 2.814 2.14 0 0-1.682 1.54-4.428 1.318a8.74 8.74 0 0013.407-7.571 2.94 2.94 0 00.002-.108v-.075c.892-.595 1.467-1.58 1.467-1.58z" fill="#fff"/></g><defs><linearGradient id="paint0_linear" x1="8.371" y1="3.689" x2="14.441" y2="16.677" gradientUnits="userSpaceOnUse"><stop stop-color="#00C3FF"/><stop offset="1" stop-color="#00B0ED"/></linearGradient><linearGradient id="paint1_linear" x1="17.478" y1="15.037" x2="-17.391" y2="-3.667" gradientUnits="userSpaceOnUse"><stop stop-color="#00B0ED" stop-opacity="0"/><stop offset="1" stop-color="#00A2CE"/></linearGradient><linearGradient id="paint2_linear" x1="12.402" y1="20.817" x2="12.402" y2="23.962" gradientUnits="userSpaceOnUse"><stop stop-color="#00B0ED" stop-opacity="0"/><stop offset="1" stop-color="#00A2CE"/></linearGradient><linearGradient id="paint3_linear" x1="23.345" y1="22.912" x2="11.62" y2="11.187" gradientUnits="userSpaceOnUse"><stop stop-color="#00B0ED" stop-opacity="0"/><stop offset="1" stop-color="#00A2CE"/></linearGradient><clipPath id="clip0"><path fill="#fff" transform="translate(.402 .315)" d="M0 0h24v24H0z"/></clipPath></defs></svg>