<svg width="25" height="25" fill="none" xmlns="http://www.w3.org/2000/svg"><g clip-path="url(#clip0)"><path d="M20.11 23.904a72.484 72.484 0 01-15.415 0 4.37 4.37 0 01-3.882-3.882 72.489 72.489 0 010-15.415A4.37 4.37 0 014.695.726a72.488 72.488 0 0115.414 0 4.37 4.37 0 013.882 3.881 72.496 72.496 0 010 15.415 4.37 4.37 0 01-3.881 3.882z" fill="url(#paint0_linear)"/><path d="M22.686 5.476a3.878 3.878 0 00-3.445-3.445 64.35 64.35 0 00-13.678 0 3.878 3.878 0 00-3.445 3.445 64.348 64.348 0 000 13.678 3.878 3.878 0 003.445 3.445 64.33 64.33 0 0013.678 0 3.878 3.878 0 003.445-3.445 64.33 64.33 0 000-13.678z" fill="url(#paint1_linear)"/><path d="M.762 19.524l.051.498a4.37 4.37 0 003.882 3.882 72.482 72.482 0 0015.414 0 4.37 4.37 0 003.882-3.882l.052-.498H.762z" fill="url(#paint2_linear)"/><path d="M20.11 23.904a4.37 4.37 0 003.882-3.882c.24-2.245.374-4.492.404-6.74l-5.213-5.213c-.268-.332-.51-.363-1.012-.46a8.138 8.138 0 00-1.236-.15 132.844 132.844 0 00-3.97-.115c-1.942-.019-3.886-.012-5.822.212-.834.097-1.717.752-1.811 1.644-.049.459-.133.915-.16 1.374-.095 1.674-.115 3.347.12 5.014.077.558.164.814.54 1.125l7.594 7.594a72.719 72.719 0 006.684-.403z" fill="url(#paint3_linear)"/><path d="M12.814 17.48c-1.937-.065-3.436-.102-4.934-.173a5.257 5.257 0 01-1.36-.225c-.797-.258-1.251-.84-1.37-1.682-.234-1.667-.214-3.34-.118-5.014.027-.46.11-.915.16-1.374.094-.892.976-1.547 1.81-1.644 1.936-.225 3.88-.231 5.823-.213 1.324.013 2.647.063 3.97.115.413.016.83.07 1.236.15.895.175 1.414.735 1.571 1.635.214 1.218.27 2.447.225 3.677-.034.93-.13 1.86-.226 2.788-.107 1.023-.993 1.629-1.791 1.682-1.808.119-3.62.203-4.996.278z" fill="url(#paint4_linear)"/><path d="M10.986 14.579l3.728-2.289L10.986 10v4.579z" fill="#fff"/></g><defs><linearGradient id="paint0_linear" x1="5.862" y1="-.286" x2="23.155" y2="33.031" gradientUnits="userSpaceOnUse"><stop stop-color="#FFFCF8"/><stop offset=".188" stop-color="#FAF8F6"/><stop offset=".404" stop-color="#ECEEF2"/><stop offset=".635" stop-color="#D5DCEA"/><stop offset=".875" stop-color="#B5C4DF"/><stop offset="1" stop-color="#A1B5D8"/></linearGradient><linearGradient id="paint1_linear" x1="9.607" y1="10.742" x2="-31.052" y2="-12.128" gradientUnits="userSpaceOnUse"><stop stop-color="#A1B5D8" stop-opacity="0"/><stop offset=".309" stop-color="#90A2BD" stop-opacity=".31"/><stop offset=".755" stop-color="#7C8B9C" stop-opacity=".757"/><stop offset="1" stop-color="#748290"/></linearGradient><linearGradient id="paint2_linear" x1="12.402" y1="21.501" x2="12.402" y2="25.242" gradientUnits="userSpaceOnUse"><stop stop-color="#A1B5D8" stop-opacity="0"/><stop offset=".309" stop-color="#90A2BD" stop-opacity=".31"/><stop offset=".755" stop-color="#7C8B9C" stop-opacity=".757"/><stop offset="1" stop-color="#748290"/></linearGradient><linearGradient id="paint3_linear" x1="20.254" y1="20.139" x2="3.79" y2="3.674" gradientUnits="userSpaceOnUse"><stop stop-color="#A1B5D8" stop-opacity="0"/><stop offset=".309" stop-color="#90A2BD" stop-opacity=".31"/><stop offset=".755" stop-color="#7C8B9C" stop-opacity=".757"/><stop offset="1" stop-color="#748290"/></linearGradient><linearGradient id="paint4_linear" x1="11.495" y1="9.685" x2="13.7" y2="16.102" gradientUnits="userSpaceOnUse"><stop stop-color="#E52D27"/><stop offset="1" stop-color="#B31217"/></linearGradient><clipPath id="clip0"><path fill="#fff" transform="translate(.402 .315)" d="M0 0h24v24H0z"/></clipPath></defs></svg>