<svg width="25" height="25" fill="none" xmlns="http://www.w3.org/2000/svg"><path d="M20.11 23.904a72.484 72.484 0 01-15.415 0 4.37 4.37 0 01-3.882-3.882 72.489 72.489 0 010-15.415A4.37 4.37 0 014.695.726a72.488 72.488 0 0115.414 0 4.37 4.37 0 013.882 3.881 72.496 72.496 0 010 15.415 4.37 4.37 0 01-3.881 3.882z" fill="url(#paint0_linear)"/><path d="M22.686 5.475a3.878 3.878 0 00-3.445-3.444 64.35 64.35 0 00-13.678 0 3.878 3.878 0 00-3.445 3.444 64.348 64.348 0 000 13.679 3.878 3.878 0 003.445 3.444 64.21 64.21 0 0013.678 0 3.878 3.878 0 003.445-3.444 64.33 64.33 0 000-13.679z" fill="url(#paint1_linear)"/><path d="M.762 19.524l.051.498a4.37 4.37 0 003.882 3.882 72.482 72.482 0 0015.414 0 4.37 4.37 0 003.882-3.882l.052-.498H.762z" fill="url(#paint2_linear)"/><path d="M17.402 13.315l-1.5 1.5c-.5 0-2 1-2 1v1c-1.708 0-.783-1.033-.5-1.5.08-.133 1.037-.654 1-1-1.5.5-2 .5-2 .5h-.5v-.5s-.135-.267-.5 0c.08.088-.095.414 0 .5.008.008-1-.303-1-.5-.236-.016-.589.29-1 0 0 0-.066.059-1 0l-.5.5c1 1.5 1.5 2.5 1.5 2.5s2.297-.619 3 0l-1 .5c-1 .5-2 1.5-3 2l2.5 4.5c1 0 6.648-.138 9.208-.411 1.292-.09 2.792-1.09 2.792-1.59 0 0-4-7-5.5-9z" fill="url(#paint3_linear)"/><path d="M15.902 6.315c-.5 0-3-1.5-2.77-1.504-2.124 0-4.845 2.221-4.845 4.344 0 1.12.615 2.16 1.115 2.66l9.27 12.242c.47-.041.941-.087 1.412-.137a4.37 4.37 0 003.882-3.882c.05-.47.095-.941.136-1.412l-8.2-12.311z" fill="url(#paint4_linear)"/><path d="M12.402 12.981a4.333 4.333 0 100-8.666 4.333 4.333 0 000 8.666zm0-6.666a2.333 2.333 0 110 4.666 2.333 2.333 0 010-4.666z" fill="#fff"/><path d="M16.647 15.034c.47-.31.755-.836.755-1.4a1.21 1.21 0 00-.678-1.103 1.267 1.267 0 00-1.333.126 5.072 5.072 0 01-5.977 0 1.273 1.273 0 00-1.333-.126 1.21 1.21 0 00-.679 1.103 1.68 1.68 0 00.756 1.4 7.694 7.694 0 001.953.933c.117.036.239.07.363.101l-2.014 1.97a1.333 1.333 0 101.89 1.881l2.052-2.125 2.058 2.13a1.333 1.333 0 101.882-1.888l-2.011-1.968c.125-.032.246-.066.365-.102a7.667 7.667 0 001.95-.931z" fill="#fff"/><defs><linearGradient id="paint0_linear" x1="8.371" y1="3.689" x2="14.441" y2="16.677" gradientUnits="userSpaceOnUse"><stop stop-color="#FF9800"/><stop offset="1" stop-color="#ED8D00"/></linearGradient><linearGradient id="paint1_linear" x1="17.478" y1="15.037" x2="-17.391" y2="-3.667" gradientUnits="userSpaceOnUse"><stop stop-color="#BD7100" stop-opacity="0"/><stop offset="1" stop-color="#F39100"/></linearGradient><linearGradient id="paint2_linear" x1="12.402" y1="20.817" x2="12.402" y2="23.962" gradientUnits="userSpaceOnUse"><stop stop-color="#FF9800" stop-opacity="0"/><stop offset="1" stop-color="#F09002"/></linearGradient><linearGradient id="paint3_linear" x1="23.344" y1="22.912" x2="11.619" y2="11.187" gradientUnits="userSpaceOnUse"><stop stop-color="#D57F02" stop-opacity="0"/><stop offset="1" stop-color="#D17D01"/></linearGradient><linearGradient id="paint4_linear" x1="19.902" y1="19.815" x2="10.402" y2="7.815" gradientUnits="userSpaceOnUse"><stop stop-color="#D07C00" stop-opacity="0"/><stop offset="1" stop-color="#C77702"/></linearGradient></defs></svg>