<svg width="50" height="35" fill="none" xmlns="http://www.w3.org/2000/svg"><path d="M48.338 5.39a6.178 6.178 0 00-4.365-4.36C40.125 0 24.685 0 24.685 0S9.245 0 5.397 1.03a6.178 6.178 0 00-4.365 4.36C0 9.231 0 17.254 0 17.254s0 8.023 1.032 11.866a6.178 6.178 0 004.365 4.359c3.849 1.03 19.288 1.03 19.288 1.03s15.44 0 19.288-1.03a6.178 6.178 0 004.365-4.359c1.032-3.843 1.032-11.866 1.032-11.866s-.004-8.023-1.032-11.866z" fill="#000" fill-opacity=".61"/><path d="M18.314 24.642l12.827-7.145-12.826-7.145v14.29z" fill="#fff"/></svg>