<svg width="24" height="24" viewBox="0 0 24 24" fill="none" xmlns="http://www.w3.org/2000/svg">
<path fill-rule="evenodd" clip-rule="evenodd" d="M6.96888 14.469C7.03854 14.3992 7.12131 14.3437 7.21242 14.3059C7.30354 14.2681 7.40122 14.2487 7.49988 14.2487C7.59853 14.2487 7.69621 14.2681 7.78733 14.3059C7.87844 14.3437 7.96121 14.3992 8.03088 14.469L11.9999 18.4395L15.9689 14.469C16.1097 14.3282 16.3007 14.2491 16.4999 14.2491C16.699 14.2491 16.89 14.3282 17.0309 14.469C17.1717 14.6098 17.2508 14.8008 17.2508 15C17.2508 15.1992 17.1717 15.3902 17.0309 15.531L12.5309 20.031C12.4612 20.1008 12.3784 20.1563 12.2873 20.1941C12.1962 20.2319 12.0985 20.2513 11.9999 20.2513C11.9012 20.2513 11.8035 20.2319 11.7124 20.1941C11.6213 20.1563 11.5385 20.1008 11.4689 20.031L6.96888 15.531C6.89903 15.4613 6.84362 15.3786 6.80581 15.2874C6.768 15.1963 6.74854 15.0986 6.74854 15C6.74854 14.9013 6.768 14.8037 6.80581 14.7125C6.84362 14.6214 6.89903 14.5387 6.96888 14.469Z" fill="black"/>
<path fill-rule="evenodd" clip-rule="evenodd" d="M12 3.75C12.1989 3.75 12.3897 3.82902 12.5303 3.96967C12.671 4.11032 12.75 4.30109 12.75 4.5V18C12.75 18.1989 12.671 18.3897 12.5303 18.5303C12.3897 18.671 12.1989 18.75 12 18.75C11.8011 18.75 11.6103 18.671 11.4697 18.5303C11.329 18.3897 11.25 18.1989 11.25 18V4.5C11.25 4.30109 11.329 4.11032 11.4697 3.96967C11.6103 3.82902 11.8011 3.75 12 3.75Z" fill="black"/>
</svg>
