<svg width="24" height="24" viewBox="0 0 24 24" fill="none" xmlns="http://www.w3.org/2000/svg">
<path fill-rule="evenodd" clip-rule="evenodd" d="M19.2857 7.55644H4.71429V19.1693C4.71429 19.5116 4.84222 19.8398 5.06994 20.0817C5.29766 20.3237 5.60652 20.4597 5.92857 20.4597H18.0714C18.3935 20.4597 18.7023 20.3237 18.9301 20.0817C19.1578 19.8398 19.2857 19.5116 19.2857 19.1693V7.55644ZM3.5 6.26611V19.1693C3.5 19.8538 3.75587 20.5102 4.21131 20.9941C4.66676 21.4781 5.28447 21.75 5.92857 21.75H18.0714C18.7155 21.75 19.3332 21.4781 19.7887 20.9941C20.2441 20.5102 20.5 19.8538 20.5 19.1693V6.26611H3.5Z" fill="black"/>
<path d="M12 3.04032C11.1949 3.04032 10.4227 3.38018 9.85343 3.98514C9.28412 4.5901 8.96429 5.41059 8.96429 6.26613H7.75C7.75 5.06838 8.19777 3.91968 8.9948 3.07274C9.79183 2.22581 10.8728 1.75 12 1.75C13.1272 1.75 14.2082 2.22581 15.0052 3.07274C15.8022 3.91968 16.25 5.06838 16.25 6.26613H15.0357C15.0357 5.41059 14.7159 4.5901 14.1466 3.98514C13.5773 3.38018 12.8051 3.04032 12 3.04032Z" fill="black"/>
</svg>
