<svg width="24" height="24" viewBox="0 0 24 24" fill="none" xmlns="http://www.w3.org/2000/svg">
<path d="M5.78135 17.2031C4.4542 17.2031 3.38135 18.2753 3.38135 19.6016C3.38135 20.9278 4.4542 22 5.78135 22C7.1085 22 8.18135 20.9278 8.18135 19.6016C8.18135 18.2792 7.1085 17.2031 5.78135 17.2031ZM5.78135 20.7293C5.15751 20.7293 4.65287 20.225 4.65287 19.6016C4.65287 18.9781 5.15751 18.4738 5.78135 18.4738C6.40519 18.4738 6.90982 18.9781 6.90982 19.6016C6.90982 20.225 6.40519 20.7293 5.78135 20.7293Z" fill="black"/>
<path d="M18.4847 17.2031C17.1631 17.2031 16.0947 18.2753 16.0947 19.6016C16.0947 20.9278 17.1631 22 18.4847 22C19.8063 22 20.8747 20.9278 20.8747 19.6016C20.8747 18.2792 19.8063 17.2031 18.4847 17.2031ZM18.4847 20.7293C17.8635 20.7293 17.361 20.225 17.361 19.6016C17.361 18.9781 17.8635 18.4738 18.4847 18.4738C19.106 18.4738 19.6085 18.9781 19.6085 19.6016C19.6085 20.225 19.106 20.7293 18.4847 20.7293Z" fill="black"/>
<path d="M21.9049 7.25107C21.7835 7.08468 21.5915 6.9802 21.3838 6.96472L8.78012 6.18693C8.76445 6.18693 8.75269 6.18693 8.73702 6.18693C8.53721 6.18693 8.34915 6.27206 8.21986 6.42298C8.09058 6.57389 8.03573 6.77124 8.06707 6.96472L8.07882 7.02277C8.12975 7.31686 8.37266 7.53743 8.67433 7.55677L18.0145 8.13335L20.4514 8.28426L18.9704 13.7946H6.9113L5.21487 3.48593C5.17961 3.26924 5.04249 3.08349 4.8466 2.98288L3.05222 2.07739C2.95427 2.02709 2.84457 2 2.73488 2C2.46454 2 2.2138 2.15865 2.10018 2.40244C1.94347 2.7391 2.09235 3.1338 2.4332 3.30793L3.89848 4.04703L5.61841 14.4911C5.68502 14.8897 6.02587 15.1761 6.43332 15.1761H19.5072C19.8206 15.1761 20.0988 14.9671 20.1811 14.6653L22.0185 7.83539C22.0655 7.6303 22.0264 7.41747 21.9049 7.25107Z" fill="black"/>
</svg>
