<svg width="24" height="24" viewBox="0 0 24 24" fill="none" xmlns="http://www.w3.org/2000/svg">
<path d="M24 12C24 15.1991 22.7542 18.2067 20.4922 20.4688C18.23 22.7309 15.2225 23.9767 12.0234 23.9767C9.56304 23.9767 7.19902 23.236 5.18685 21.8349C3.84632 20.9014 2.72421 19.7213 1.87135 18.3597V20.8889H0V15.2749H5.61404V17.1462H3.32061C5.11672 20.2034 8.38119 22.1053 12.0234 22.1053C17.5955 22.1053 22.1287 17.5721 22.1287 12H24ZM11.9298 1.89478C15.5721 1.89478 18.8365 3.79672 20.6326 6.85385H18.386V8.72519H23.9532V3.11116H22.0819V5.64033C21.229 4.27883 20.1069 3.09862 18.7664 2.16519C16.7542 0.764069 14.3902 0.0234375 11.9298 0.0234375C8.73258 0.0234375 5.73263 1.26994 3.48253 3.53324C1.23682 5.79223 0 8.79911 0 12H1.87135C1.87135 6.42798 6.38353 1.89478 11.9298 1.89478ZM8.39083 6.61993L7.18115 7.81955C6.64042 8.36019 6.58325 9.11083 6.83008 9.87205C7.25731 11.1898 7.70648 12.2245 9.76412 14.2817C11.8217 16.3389 12.9119 16.672 14.1928 17.2C14.4877 17.3215 14.7662 17.3801 15.0272 17.3801C15.4912 17.3801 15.8996 17.1949 16.2457 16.849L17.4503 15.6397L14.3556 12.5405L12.7598 14.1008C12.3367 13.7913 11.8575 13.3765 11.2633 12.7824C10.6621 12.1814 10.204 11.671 9.85806 11.2157L11.4072 9.6538L8.39083 6.61993Z" fill="black"/>
</svg>
