<svg width="24" height="24" viewBox="0 0 24 24" fill="none" xmlns="http://www.w3.org/2000/svg">
<path fill-rule="evenodd" clip-rule="evenodd" d="M2.46888 6.96906C2.53854 6.89921 2.62131 6.8438 2.71243 6.80599C2.80354 6.76818 2.90122 6.74872 2.99988 6.74872C3.09853 6.74872 3.19621 6.76818 3.28733 6.80599C3.37844 6.8438 3.46121 6.89921 3.53088 6.96906L11.9999 15.4396L20.4689 6.96906C20.5386 6.89933 20.6214 6.84401 20.7125 6.80627C20.8036 6.76853 20.9013 6.74911 20.9999 6.74911C21.0985 6.74911 21.1961 6.76853 21.2873 6.80627C21.3784 6.84401 21.4611 6.89933 21.5309 6.96906C21.6006 7.03879 21.6559 7.12157 21.6937 7.21268C21.7314 7.30379 21.7508 7.40144 21.7508 7.50006C21.7508 7.59867 21.7314 7.69633 21.6937 7.78743C21.6559 7.87854 21.6006 7.96133 21.5309 8.03106L12.5309 17.0311C12.4612 17.1009 12.3784 17.1563 12.2873 17.1941C12.1962 17.2319 12.0985 17.2514 11.9999 17.2514C11.9012 17.2514 11.8035 17.2319 11.7124 17.1941C11.6213 17.1563 11.5385 17.1009 11.4689 17.0311L2.46888 8.03106C2.39903 7.96139 2.34362 7.87863 2.30581 7.78751C2.268 7.69639 2.24854 7.59871 2.24854 7.50006C2.24854 7.40141 2.268 7.30373 2.30581 7.21261C2.34362 7.12149 2.39903 7.03873 2.46888 6.96906Z" fill="black"/>
</svg>
