<svg width="24" height="24" viewBox="0 0 24 24" fill="none" xmlns="http://www.w3.org/2000/svg">
<path fill-rule="evenodd" clip-rule="evenodd" d="M0.75 3C0.75 2.40326 0.987053 1.83097 1.40901 1.40901C1.83097 0.987053 2.40326 0.75 3 0.75H9.879C10.4755 0.750525 11.0474 0.987923 11.469 1.41L21.969 11.91C22.3904 12.3319 22.627 12.9037 22.627 13.5C22.627 14.0963 22.3904 14.6681 21.969 15.09L15.0915 21.969C14.8825 22.1781 14.6344 22.3439 14.3614 22.4571C14.0883 22.5703 13.7956 22.6285 13.5 22.6285C13.2044 22.6285 12.9117 22.5703 12.6386 22.4571C12.3656 22.3439 12.1175 22.1781 11.9085 21.969L1.4085 11.469C0.986973 11.0472 0.750127 10.4753 0.75 9.879V3ZM3 2.25C2.80109 2.25 2.61032 2.32902 2.46967 2.46967C2.32902 2.61032 2.25 2.80109 2.25 3V9.879C2.25004 10.0775 2.3288 10.2679 2.469 10.4085L12.969 20.9085C13.0387 20.9783 13.1214 21.0338 13.2126 21.0716C13.3037 21.1094 13.4013 21.1288 13.5 21.1288C13.5987 21.1288 13.6963 21.1094 13.7874 21.0716C13.8786 21.0338 13.9613 20.9783 14.031 20.9085L20.9085 14.031C20.9783 13.9613 21.0338 13.8786 21.0716 13.7875C21.1094 13.6963 21.1288 13.5987 21.1288 13.5C21.1288 13.4014 21.1094 13.3037 21.0716 13.2126C21.0338 13.1214 20.9783 13.0387 20.9085 12.969L10.4085 2.469C10.2679 2.3288 10.0775 2.25004 9.879 2.25H3Z" fill="black"/>
<path fill-rule="evenodd" clip-rule="evenodd" d="M3.75 6.75C3.75 5.95435 4.06607 5.19129 4.62868 4.62868C5.19129 4.06607 5.95435 3.75 6.75 3.75C7.54565 3.75 8.30871 4.06607 8.87132 4.62868C9.43393 5.19129 9.75 5.95435 9.75 6.75C9.75 7.54565 9.43393 8.30871 8.87132 8.87132C8.30871 9.43393 7.54565 9.75 6.75 9.75C5.95435 9.75 5.19129 9.43393 4.62868 8.87132C4.06607 8.30871 3.75 7.54565 3.75 6.75ZM6.75 5.25C6.35218 5.25 5.97064 5.40804 5.68934 5.68934C5.40804 5.97064 5.25 6.35218 5.25 6.75C5.25 7.14782 5.40804 7.52936 5.68934 7.81066C5.97064 8.09196 6.35218 8.25 6.75 8.25C7.14782 8.25 7.52936 8.09196 7.81066 7.81066C8.09196 7.52936 8.25 7.14782 8.25 6.75C8.25 6.35218 8.09196 5.97064 7.81066 5.68934C7.52936 5.40804 7.14782 5.25 6.75 5.25Z" fill="black"/>
<path d="M10.6788 13.2423C10.1848 13.2423 9.78156 13.0975 9.46893 12.8078C9.15631 12.5181 9 12.1226 9 11.6212C9 11.2925 9.0719 11.0056 9.21571 10.7604C9.35952 10.5153 9.55647 10.3287 9.80656 10.2006C10.0629 10.0669 10.3537 10 10.6788 10C11.179 10 11.5854 10.1476 11.898 10.4429C12.2106 10.7326 12.3669 11.1253 12.3669 11.6212C12.3669 12.1226 12.2106 12.5181 11.898 12.8078C11.5854 13.0975 11.179 13.2423 10.6788 13.2423ZM14.5615 10.0752H15.9121L11.4291 15.9248H10.0785L14.5615 10.0752ZM10.6788 12.4485C10.8476 12.4485 10.982 12.3816 11.0821 12.2479C11.1821 12.1142 11.2321 11.9053 11.2321 11.6212C11.2321 11.337 11.1821 11.1281 11.0821 10.9944C10.982 10.8607 10.8476 10.7939 10.6788 10.7939C10.5162 10.7939 10.3818 10.8635 10.2755 11.0028C10.1755 11.1365 10.1254 11.3426 10.1254 11.6212C10.1254 11.8997 10.1755 12.1086 10.2755 12.2479C10.3818 12.3816 10.5162 12.4485 10.6788 12.4485ZM15.3118 16C14.8116 16 14.4052 15.8552 14.0926 15.5655C13.7862 15.2758 13.6331 14.8802 13.6331 14.3788C13.6331 13.883 13.7894 13.4903 14.102 13.2006C14.4146 12.9053 14.8179 12.7577 15.3118 12.7577C15.812 12.7577 16.2184 12.9053 16.5311 13.2006C16.8437 13.4903 17 13.883 17 14.3788C17 14.8802 16.8437 15.2758 16.5311 15.5655C16.2184 15.8552 15.812 16 15.3118 16ZM15.3118 15.2061C15.4807 15.2061 15.6151 15.1393 15.7151 15.0056C15.8152 14.8719 15.8652 14.663 15.8652 14.3788C15.8652 14.0947 15.8152 13.8858 15.7151 13.7521C15.6151 13.6184 15.4807 13.5515 15.3118 13.5515C15.143 13.5515 15.0086 13.6184 14.9086 13.7521C14.8085 13.8858 14.7585 14.0947 14.7585 14.3788C14.7585 14.663 14.8085 14.8719 14.9086 15.0056C15.0086 15.1393 15.143 15.2061 15.3118 15.2061Z" fill="black"/>
</svg>
