<svg width="34" height="34" viewBox="0 0 34 34" fill="none" xmlns="http://www.w3.org/2000/svg">
<path d="M24.8091 14.8525V8.79663C24.8091 8.62329 24.729 8.46313 24.6157 8.33643L17.8262 1.20679C17.6995 1.07349 17.5193 1 17.3394 1H6.57471C4.5874 1 3 2.62061 3 4.60815V24.9634C3 26.9509 4.5874 28.5449 6.57471 28.5449H15.0718C16.679 31.2126 19.6003 33 22.9282 33C27.9836 33 32.1121 28.8916 32.1121 23.8296C32.1189 19.4077 28.9441 15.7129 24.8091 14.8525ZM18.0063 3.34106L22.5615 8.13623H19.6069C18.7266 8.13623 18.0063 7.40942 18.0063 6.52905V3.34106ZM6.57471 27.2109C5.32764 27.2109 4.33398 26.2104 4.33398 24.9634V4.60815C4.33398 3.35425 5.32764 2.33398 6.57471 2.33398H16.6724V6.52905C16.6724 8.14966 17.9863 9.47021 19.6069 9.47021H23.4751V14.679C23.2751 14.6724 23.115 14.6523 22.9417 14.6523C20.614 14.6523 18.4731 15.5461 16.8591 16.9468H8.38892C8.02197 16.9468 7.72192 17.2468 7.72192 17.6135C7.72192 17.9805 8.02197 18.2805 8.38892 18.2805H15.6187C15.145 18.9475 14.7515 19.6145 14.4448 20.3481H8.38892C8.02197 20.3481 7.72192 20.6482 7.72192 21.0151C7.72192 21.3818 8.02197 21.6821 8.38892 21.6821H14.0112C13.8445 22.3491 13.7578 23.0894 13.7578 23.8296C13.7578 25.03 13.9912 26.2173 14.4114 27.2178H6.57471V27.2109ZM22.9351 31.6729C18.6133 31.6729 15.0984 28.158 15.0984 23.8362C15.0984 19.5144 18.6064 15.9995 22.9351 15.9995C27.2634 15.9995 30.7715 19.5144 30.7715 23.8362C30.7715 28.158 27.2568 31.6729 22.9351 31.6729Z" fill="#545454"/>
<path d="M8.38892 14.9395H15.145C15.512 14.9395 15.812 14.6392 15.812 14.2725C15.812 13.9055 15.512 13.6055 15.145 13.6055H8.38892C8.02197 13.6055 7.72192 13.9055 7.72192 14.2725C7.72192 14.6392 8.02197 14.9395 8.38892 14.9395Z" fill="#545454"/>
<path d="M26.3496 23.696L23.6087 26.6506V19.3677C23.6087 19.0007 23.3084 18.7007 22.9417 18.7007C22.5747 18.7007 22.2747 19.0007 22.2747 19.3677V26.6506L19.5135 23.696C19.26 23.4294 18.8333 23.4094 18.5664 23.6628C18.2996 23.9163 18.2796 24.3364 18.5332 24.6033L22.4348 28.7983C22.5616 28.9316 22.7349 29.0117 22.9217 29.0117C23.1084 29.0117 23.2818 28.9316 23.4085 28.7983L27.3169 24.6033C27.5704 24.3364 27.5569 23.9097 27.2901 23.6628C27.0166 23.4094 26.6033 23.4294 26.3496 23.696Z" fill="#545454"/>
</svg>
