<svg width="24" height="24" viewBox="0 0 24 24" fill="none" xmlns="http://www.w3.org/2000/svg">
<path d="M23.9835 5.169C23.9775 5.118 23.97 5.0685 23.9535 5.019C23.8365 4.305 23.2455 3.75 22.5 3.75H1.5C0.7545 3.75 0.1635 4.305 0.0465 5.019C0.03 5.0685 0.0225 5.118 0.0165 5.169C0.015 5.1975 0 5.2215 0 5.25V18.75C0 18.7785 0.015 18.804 0.0165 18.8325C0.0225 18.8835 0.03 18.9315 0.0465 18.981C0.162 19.6935 0.7545 20.25 1.5 20.25H22.5C23.2455 20.25 23.838 19.6935 23.9535 18.9795C23.97 18.93 23.9775 18.882 23.9835 18.831C23.985 18.804 24 18.7785 24 18.75V5.25C24 5.2215 23.985 5.1975 23.9835 5.169ZM21.981 5.25L13.656 11.355L12 12.57L10.3455 11.3565C10.3455 11.3565 10.344 11.3565 10.344 11.355L2.019 5.25H21.981ZM1.5 6.7305L8.688 12.0015L1.5 17.271V6.7305ZM2.019 18.75L9.957 12.9315L11.556 14.1045C11.688 14.202 11.844 14.25 12 14.25C12.156 14.25 12.312 14.202 12.444 14.1045L14.043 12.9315L21.981 18.75H2.019ZM22.5 17.271L15.312 12.0015L22.5 6.7305V17.271Z" fill="black"/>
</svg>
