<svg width="20" height="20" viewBox="0 0 20 20" fill="none" xmlns="http://www.w3.org/2000/svg">
<g clip-path="url(#clip0)">
<path d="M0.0624294 9.58383C0.228935 9.33409 3.7253 3.34033 9.96879 3.34033C16.2123 3.34033 19.7086 9.33409 19.8751 9.58383C20.0416 9.83357 20.0416 10.1665 19.8751 10.4163C19.7086 10.666 16.2123 16.6598 9.96876 16.6598C3.72526 16.6598 0.228897 10.666 0.0623913 10.4163C-0.0208416 10.1665 -0.0208435 9.83357 0.0624294 9.58383ZM9.96876 14.1624C12.2997 14.1624 14.1311 12.331 14.1311 10.0001C14.1311 7.66918 12.2997 5.83773 9.96876 5.83773C7.63782 5.83773 5.80641 7.66914 5.80641 10.0001C5.80641 12.331 7.63786 14.1624 9.96876 14.1624Z" fill="#545454"/>
<path d="M9.9694 7.50269C11.3846 7.50269 12.4668 8.58488 12.4668 10.0001C12.4668 11.4153 11.3846 12.4975 9.9694 12.4975C8.55419 12.4975 7.472 11.4153 7.472 10.0001C7.472 8.58488 8.55423 7.50269 9.9694 7.50269ZM9.13694 10.0001C9.63642 10.0001 9.9694 9.66711 9.9694 9.16763C9.9694 8.66815 9.63642 8.33518 9.13694 8.33518C8.63746 8.33518 8.30449 8.66815 8.30449 9.16763C8.30449 9.66707 8.63746 10.0001 9.13694 10.0001Z" fill="#545454"/>
</g>
<defs>
<clipPath id="clip0">
<rect width="20" height="20" fill="white" transform="matrix(-1 0 0 1 20 0)"/>
</clipPath>
</defs>
</svg>
