<svg width="24" height="24" viewBox="0 0 24 24" fill="none" xmlns="http://www.w3.org/2000/svg">
<path d="M11.9343 1.99609C8.18168 1.99609 5.12878 5.24532 5.12878 9.23932C5.12878 10.5542 5.68284 11.9683 5.70606 12.028C5.885 12.48 6.23809 13.1822 6.4927 13.5938L11.1589 21.1186C11.3499 21.4271 11.6325 21.6039 11.9343 21.6039C12.2362 21.6039 12.5188 21.4271 12.7098 21.1191L17.3764 13.5938C17.6314 13.1822 17.9841 12.48 18.163 12.028C18.1862 11.9687 18.7399 10.5546 18.7399 9.23932C18.7399 5.24532 15.687 1.99609 11.9343 1.99609ZM17.4248 11.6973C17.2651 12.1025 16.9364 12.7557 16.7078 13.1247L12.0412 20.65C11.9492 20.7987 11.9199 20.7987 11.8279 20.65L7.16124 13.1247C6.93266 12.7557 6.60399 12.1021 6.44426 11.6969C6.43745 11.6794 5.92944 10.3778 5.92944 9.23932C5.92944 5.71528 8.62324 2.84824 11.9343 2.84824C15.2454 2.84824 17.9392 5.71528 17.9392 9.23932C17.9392 10.3795 17.43 11.6845 17.4248 11.6973Z" fill="black"/>
<path fill-rule="evenodd" clip-rule="evenodd" d="M5.52545 12.1007L5.52504 12.0996L5.52438 12.098C5.49296 12.0173 4.93433 10.5843 4.93433 9.23935C4.93433 5.14717 8.06452 1.80005 11.9343 1.80005C15.8041 1.80005 18.9343 5.14717 18.9343 9.23935C18.9343 10.594 18.3685 12.0372 18.3439 12.0999C18.1607 12.5627 17.8025 13.2762 17.5413 13.6977L12.8746 21.223C12.8746 21.223 12.8746 21.223 12.8746 21.223C12.6562 21.5754 12.3171 21.8 11.9343 21.8C11.5516 21.8 11.2125 21.5754 10.994 21.2226M10.994 21.2226L6.32782 13.6978C6.06714 13.2764 5.7087 12.5636 5.52545 12.1007M11.1589 21.1187C11.3498 21.4271 11.6325 21.604 11.9343 21.604C12.2362 21.604 12.5188 21.4271 12.7098 21.1191L17.3764 13.5938C17.6314 13.1822 17.9841 12.4801 18.163 12.028C18.1862 11.9688 18.7399 10.5546 18.7399 9.23935C18.7399 5.24535 15.687 1.99613 11.9343 1.99613C8.18166 1.99613 5.12877 5.24535 5.12877 9.23935C5.12877 10.5462 5.67608 11.9511 5.70556 12.0268L5.70604 12.028C5.88499 12.4801 6.23808 13.1822 6.49268 13.5938L11.1589 21.1187ZM17.2449 11.6229C17.2471 11.6173 17.3719 11.297 17.4965 10.8393C17.6225 10.3757 17.7448 9.78389 17.7448 9.23935C17.7448 5.8135 15.1283 3.04435 11.9343 3.04435C8.74036 3.04435 6.12387 5.8135 6.12387 9.23935C6.12387 10.3315 6.61343 11.5949 6.62509 11.6249C6.78051 12.019 7.1037 12.6617 7.32609 13.0207C7.32611 13.0208 7.32608 13.0207 7.32609 13.0207L11.9345 20.4522L16.5429 13.0208C16.7654 12.6617 17.0888 12.019 17.2441 11.6249L17.2449 11.6229ZM16.7078 13.1247L12.0412 20.65C11.9491 20.7987 11.9199 20.7987 11.8278 20.65L7.16123 13.1247C6.93264 12.7557 6.60397 12.1021 6.44424 11.6969C6.43563 11.6748 5.92942 10.3757 5.92942 9.23935C5.92942 5.71531 8.62322 2.84827 11.9343 2.84827C15.2454 2.84827 17.9392 5.71531 17.9392 9.23935C17.9392 10.3795 17.43 11.6846 17.4248 11.6974C17.2651 12.1026 16.9364 12.7557 16.7078 13.1247Z" fill="black"/>
<path d="M12 5C9.79422 5 8 6.79467 8 9C8 11.2053 9.79422 13 12 13C14.2058 13 16 11.2053 16 9C16 6.79467 14.2058 5 12 5ZM12 12.1111C10.2849 12.1111 8.88889 10.7156 8.88889 9C8.88889 7.28444 10.2849 5.88889 12 5.88889C13.7151 5.88889 15.1111 7.28444 15.1111 9C15.1111 10.7156 13.7151 12.1111 12 12.1111Z" fill="black"/>
<path fill-rule="evenodd" clip-rule="evenodd" d="M7.80005 9.00005C7.80005 6.68427 9.6838 4.80005 12 4.80005C14.3163 4.80005 16.2 6.68427 16.2 9.00005C16.2 11.3158 14.3163 13.2 12 13.2C9.6838 13.2 7.80005 11.3158 7.80005 9.00005ZM9.08894 9.00005C9.08894 10.6051 10.3954 11.9112 12 11.9112C13.6047 11.9112 14.9112 10.6051 14.9112 9.00005C14.9112 7.39497 13.6047 6.08894 12 6.08894C10.3954 6.08894 9.08894 7.39497 9.08894 9.00005ZM8.00005 9.00005C8.00005 6.79472 9.79427 5.00005 12 5.00005C14.2058 5.00005 16 6.79472 16 9.00005C16 11.2054 14.2058 13 12 13C9.79427 13 8.00005 11.2054 8.00005 9.00005ZM8.88894 9.00005C8.88894 10.7156 10.2849 12.1112 12 12.1112C13.7152 12.1112 15.1112 10.7156 15.1112 9.00005C15.1112 7.28449 13.7152 5.88894 12 5.88894C10.2849 5.88894 8.88894 7.28449 8.88894 9.00005Z" fill="black"/>
</svg>
