<svg width="24" height="24" viewBox="0 0 24 24" fill="none" xmlns="http://www.w3.org/2000/svg">
<g clip-path="url(#clip0)">
<path d="M21.3744 10.7494C21.0294 10.7494 20.7494 11.0294 20.7494 11.3744V18.4514L15.7498 20.4513V13.8742C15.7498 13.5292 15.4698 13.2493 15.1248 13.2493C14.7798 13.2493 14.4998 13.5292 14.4998 13.8742V20.4501L9.50014 18.4502V8.54829L12.3962 9.70697C12.7124 9.83446 13.0799 9.67947 13.2087 9.35824C13.3374 9.03826 13.1812 8.67453 12.8599 8.54579L9.11892 7.04838C9.11892 7.04838 9.11892 7.04838 9.11767 7.04838L9.10767 7.04463C8.95893 6.98463 8.79269 6.98463 8.64394 7.04463L8.6327 7.04838C8.6327 7.04838 8.6327 7.04838 8.63145 7.04838L2.39309 9.54448C2.15685 9.63947 2.00061 9.86821 2.00061 10.1244V21.3738C2.00061 21.5812 2.10435 21.775 2.27559 21.8912C2.38059 21.9625 2.50183 21.9987 2.62557 21.9987C2.70432 21.9987 2.78306 21.9837 2.85806 21.9537L8.87518 19.5476L14.8811 21.95C14.8811 21.95 14.8811 21.95 14.8823 21.95L14.8936 21.955C15.0423 22.015 15.2085 22.015 15.3573 21.955L15.3685 21.95C15.3685 21.95 15.3685 21.95 15.3698 21.95L21.6081 19.4551C21.8431 19.3589 21.9994 19.1301 21.9994 18.8739V11.3744C21.9994 11.0294 21.7194 10.7494 21.3744 10.7494ZM8.25022 18.4502L3.25053 20.4501V10.5469L8.25022 8.54704V18.4502Z" fill="black"/>
<path d="M17.6246 4.49988C16.591 4.49988 15.7498 5.34108 15.7498 6.37476C15.7498 7.40845 16.591 8.24964 17.6246 8.24964C18.6583 8.24964 19.4995 7.40845 19.4995 6.37476C19.4995 5.34108 18.6583 4.49988 17.6246 4.49988ZM17.6246 6.99972C17.2797 6.99972 16.9997 6.71974 16.9997 6.37476C16.9997 6.02978 17.2797 5.7498 17.6246 5.7498C17.9696 5.7498 18.2496 6.02978 18.2496 6.37476C18.2496 6.71974 17.9696 6.99972 17.6246 6.99972Z" fill="black"/>
<path d="M17.6246 2C15.2123 2 13.2499 3.96238 13.2499 6.37473C13.2499 8.61959 16.7597 12.5956 17.1596 13.0418C17.2784 13.1731 17.4471 13.2493 17.6246 13.2493C17.8021 13.2493 17.9708 13.1731 18.0896 13.0418C18.4896 12.5956 21.9993 8.61959 21.9993 6.37473C21.9993 3.96238 20.037 2 17.6246 2ZM17.6246 11.6706C16.2597 10.052 14.4998 7.56715 14.4998 6.37473C14.4998 4.65233 15.9022 3.24992 17.6246 3.24992C19.347 3.24992 20.7494 4.65233 20.7494 6.37473C20.7494 7.5659 18.9895 10.052 17.6246 11.6706Z" fill="black"/>
</g>
<defs>
<clipPath id="clip0">
<rect width="20" height="20" fill="white" transform="translate(2 2)"/>
</clipPath>
</defs>
</svg>
