<svg width="24" height="24" viewBox="0 0 24 24" fill="none" xmlns="http://www.w3.org/2000/svg">
<path d="M20.4818 16.507L17.8802 13.9043C17.5308 13.5567 17.063 13.3652 16.563 13.3652C16.0427 13.3652 15.5515 13.57 15.1801 13.9417L14.1674 14.9542C13.3805 14.5168 12.3346 13.9152 11.2487 12.8293C10.164 11.7443 9.56237 10.7014 9.12274 9.91026L10.1364 8.89734C10.89 8.14214 10.9055 6.93055 10.1709 6.19664L7.56982 3.5955C7.22141 3.24612 6.75355 3.05371 6.25234 3.05371C5.74369 3.05371 5.26251 3.24955 4.89324 3.606C4.66986 3.78591 3.54882 4.77552 3.131 6.8164C2.54602 9.67302 3.89008 12.4215 7.7702 16.3032C12.1046 20.6363 15.8049 20.9731 16.8358 20.9731C17.0504 20.9731 17.1799 20.9598 17.2144 20.9558C19.2359 20.7189 19.9596 19.8211 20.4881 19.1656C21.1729 18.3161 21.1705 17.1982 20.4818 16.507ZM19.6185 18.4646C19.1218 19.0807 18.6527 19.6625 17.0845 19.8464C17.0837 19.8465 16.9979 19.8561 16.8358 19.8561C15.9135 19.8561 12.5908 19.5429 8.56003 15.5134C4.98186 11.9337 3.72596 9.4789 4.22524 7.04038C4.58966 5.26027 5.55716 4.50365 5.59476 4.47491L5.62812 4.45026L5.65738 4.42093C5.81889 4.25956 6.03015 4.17066 6.25227 4.17066C6.45451 4.17066 6.64156 4.24646 6.77947 4.38481L9.38113 6.98655C9.68047 7.28559 9.66454 7.78881 9.34606 8.10796L8.1997 9.25335L8.18086 9.27308C7.88212 9.60213 7.91726 10.0468 8.08183 10.3364C8.55668 11.1933 9.20711 12.3669 10.4587 13.6189C11.7061 14.8663 12.878 15.5162 13.7325 15.9902C13.8181 16.0382 13.9947 16.1188 14.2158 16.1188C14.4769 16.1188 14.7166 16.0083 14.894 15.8068L15.9698 14.7313C16.1305 14.5706 16.341 14.4821 16.5629 14.4821C16.7656 14.4821 16.9536 14.5581 17.0912 14.695L19.6911 17.2959C20.0213 17.6274 19.885 18.1341 19.6185 18.4646Z" fill="#000002"/>
<path d="M13.9048 5.79009C14.8644 5.90052 15.9943 6.48178 16.7833 7.27086C17.5797 8.06724 18.1624 9.20861 18.2676 10.1786C18.2986 10.4648 18.5406 10.6769 18.8221 10.6769C18.8422 10.6769 18.8626 10.6758 18.883 10.6736C19.1897 10.6403 19.4113 10.3648 19.378 10.0582C19.2449 8.83198 18.5533 7.46134 17.5732 6.48111C16.6022 5.51004 15.2455 4.82014 14.0325 4.68052C13.7262 4.645 13.4492 4.86511 13.4139 5.17145C13.3786 5.47779 13.5983 5.7548 13.9048 5.79009Z" fill="#000002"/>
<path d="M13.3814 8.13004C13.9004 8.18983 14.6187 8.57481 15.0892 9.04534C15.5638 9.51996 15.9495 10.2451 16.0063 10.7697C16.0374 11.0559 16.2794 11.268 16.5608 11.268C16.581 11.268 16.6013 11.2669 16.6217 11.2647C16.9283 11.2314 17.15 10.9559 17.1167 10.6493C17.0196 9.75363 16.425 8.80162 15.8789 8.25551C15.3377 7.71424 14.395 7.12248 13.5091 7.02039C13.2024 6.98472 12.9257 7.20491 12.8904 7.51125C12.8552 7.81767 13.075 8.09474 13.3814 8.13004Z" fill="#000002"/>
</svg>
