<svg width="20" height="20" viewBox="0 0 20 20" fill="none" xmlns="http://www.w3.org/2000/svg">
<path d="M17.7302 5.83165H15.714V2.5415C15.714 2.24103 15.4704 1.99756 15.1698 1.99756H4.83027C4.52971 1.99756 4.28605 2.24103 4.28605 2.5415V5.83165H2.26986C1.5697 5.83165 1 6.40098 1 7.10086V14.0797C1 14.7795 1.5697 15.3489 2.26986 15.3489H4.28605V18.0471C4.28605 18.3476 4.52971 18.591 4.83027 18.591H15.1697C15.4703 18.591 15.714 18.3476 15.714 18.0471V15.3489H17.7301C18.4303 15.3489 19 14.7795 19 14.0797V7.10086C19.0001 6.40106 18.4304 5.83165 17.7302 5.83165ZM5.3745 3.08545H14.6255V5.83165H5.3745V3.08545ZM14.6255 17.5031H5.3745V12.1069H14.6255V17.5031ZM17.9116 14.0797C17.9116 14.178 17.8285 14.261 17.7302 14.261H15.714V11.563C15.714 11.2625 15.4704 11.019 15.1698 11.019H4.83027C4.52971 11.019 4.28605 11.2625 4.28605 11.563V14.261H2.26986C2.17154 14.261 2.08846 14.178 2.08846 14.0797V7.10086C2.08846 7.00252 2.17154 6.91955 2.26986 6.91955H4.83027H15.1697H17.7301C17.8285 6.91955 17.9115 7.00252 17.9115 7.10086V14.0797H17.9116Z" fill="black"/>
<path d="M15.1686 9.74353C15.5962 9.74353 15.9427 9.39695 15.9427 8.96942C15.9427 8.54189 15.5962 8.19531 15.1686 8.19531C14.7411 8.19531 14.3945 8.54189 14.3945 8.96942C14.3945 9.39695 14.7411 9.74353 15.1686 9.74353Z" fill="black"/>
<path d="M12.4767 13.1802H7.5247C7.22414 13.1802 6.98047 13.4238 6.98047 13.7244C6.98047 14.025 7.22414 14.2686 7.5247 14.2686H12.4767C12.7773 14.2686 13.021 14.025 13.021 13.7244C13.021 13.4238 12.7774 13.1802 12.4767 13.1802Z" fill="black"/>
<path d="M12.4767 15.3418H7.5247C7.22414 15.3418 6.98047 15.5854 6.98047 15.886C6.98047 16.1867 7.22414 16.4303 7.5247 16.4303H12.4767C12.7773 16.4303 13.021 16.1867 13.021 15.886C13.021 15.5854 12.7774 15.3418 12.4767 15.3418Z" fill="black"/>
</svg>
