<svg width="24" height="24" viewBox="0 0 24 24" fill="none" xmlns="http://www.w3.org/2000/svg">
<path fill-rule="evenodd" clip-rule="evenodd" d="M15.0527 15.0528C15.1688 14.9366 15.3067 14.8443 15.4584 14.7814C15.6102 14.7185 15.7729 14.6862 15.9371 14.6862C16.1014 14.6862 16.2641 14.7185 16.4158 14.7814C16.5676 14.8443 16.7054 14.9366 16.8215 15.0528L21.6341 19.8654C21.8687 20.0997 22.0005 20.4177 22.0006 20.7493C22.0007 21.0809 21.8691 21.399 21.6347 21.6335C21.4003 21.8681 21.0824 21.9999 20.7508 22C20.4192 22.0001 20.1011 21.8685 19.8666 21.6341L15.054 16.8216C14.9378 16.7055 14.8456 16.5676 14.7827 16.4158C14.7198 16.2641 14.6874 16.1014 14.6874 15.9372C14.6874 15.7729 14.7198 15.6102 14.7827 15.4585C14.8456 15.3067 14.9378 15.1689 15.054 15.0528H15.0527Z" fill="black"/>
<path fill-rule="evenodd" clip-rule="evenodd" d="M10.1251 17.0003C11.028 17.0003 11.922 16.8224 12.7561 16.4769C13.5903 16.1314 14.3482 15.625 14.9866 14.9866C15.625 14.3482 16.1314 13.5903 16.4769 12.7561C16.8224 11.922 17.0003 11.028 17.0003 10.1251C17.0003 9.22229 16.8224 8.32828 16.4769 7.49415C16.1314 6.66002 15.625 5.90211 14.9866 5.2637C14.3482 4.62529 13.5903 4.11887 12.7561 3.77336C11.922 3.42785 11.028 3.25002 10.1251 3.25002C8.30175 3.25002 6.55304 3.97436 5.2637 5.2637C3.97436 6.55304 3.25002 8.30175 3.25002 10.1251C3.25002 11.9485 3.97436 13.6973 5.2637 14.9866C6.55304 16.2759 8.30175 17.0003 10.1251 17.0003ZM18.2503 10.1251C18.2503 12.2801 17.3943 14.3467 15.8705 15.8705C14.3467 17.3943 12.2801 18.2503 10.1251 18.2503C7.97022 18.2503 5.90356 17.3943 4.3798 15.8705C2.85604 14.3467 2 12.2801 2 10.1251C2 7.97022 2.85604 5.90356 4.3798 4.3798C5.90356 2.85604 7.97022 2 10.1251 2C12.2801 2 14.3467 2.85604 15.8705 4.3798C17.3943 5.90356 18.2503 7.97022 18.2503 10.1251Z" fill="black"/>
</svg>
